G75*
%MOIN*%
%OFA0B0*%
%FSLAX25Y25*%
%IPPOS*%
%LPD*%
%AMOC8*
5,1,8,0,0,1.08239X$1,22.5*
%
%ADD10C,0.00004*%
%ADD11C,0.00000*%
%ADD12R,0.05906X0.03543*%
%ADD13C,0.08600*%
%ADD14C,0.07400*%
%ADD15OC8,0.10000*%
%ADD16R,0.07400X0.07400*%
%ADD17C,0.05150*%
%ADD18C,0.06000*%
%ADD19R,0.07400X0.07400*%
%ADD20R,0.07677X0.07677*%
%ADD21R,0.05937X0.05937*%
%ADD22R,0.35433X0.35433*%
%ADD23C,0.00600*%
%ADD24C,0.01600*%
%ADD25R,0.02978X0.02978*%
D10*
X0073524Y0106665D02*
X0074757Y0106650D01*
X0075989Y0106605D01*
X0077220Y0106531D01*
X0078448Y0106427D01*
X0079674Y0106293D01*
X0080896Y0106129D01*
X0082114Y0105936D01*
X0083326Y0105714D01*
X0084533Y0105463D01*
X0085734Y0105182D01*
X0086927Y0104873D01*
X0088113Y0104535D01*
X0089290Y0104168D01*
X0090458Y0103773D01*
X0091616Y0103350D01*
X0092763Y0102899D01*
X0093899Y0102420D01*
X0095024Y0101914D01*
X0096135Y0101381D01*
X0097234Y0100822D01*
X0098319Y0100236D01*
X0099389Y0099624D01*
X0100444Y0098986D01*
X0101484Y0098323D01*
X0102507Y0097635D01*
X0103513Y0096923D01*
X0104502Y0096186D01*
X0105472Y0095426D01*
X0106424Y0094643D01*
X0107357Y0093837D01*
X0108270Y0093008D01*
X0109163Y0092158D01*
X0110035Y0091286D01*
X0110886Y0090394D01*
X0111714Y0089481D01*
X0112521Y0088549D01*
X0113305Y0087597D01*
X0114065Y0086627D01*
X0114802Y0085638D01*
X0114801Y0085637D02*
X0114802Y0085637D01*
X0114802Y0085637D01*
X0114803Y0085637D01*
X0114803Y0085638D01*
X0114803Y0085639D01*
X0114802Y0085638D02*
X0154149Y0047255D01*
X0154150Y0047256D02*
X0154149Y0047256D01*
X0154149Y0047256D01*
X0154148Y0047256D01*
X0154148Y0047255D01*
X0154148Y0047254D01*
X0154149Y0047254D01*
X0154149Y0047254D01*
X0154150Y0047254D01*
X0154150Y0047255D01*
X0154150Y0047256D01*
X0180756Y0034233D02*
X0276867Y0034233D01*
X0276867Y0033702D02*
X0276866Y0033702D01*
X0276866Y0033701D01*
X0276866Y0033701D01*
X0276866Y0033700D01*
X0276867Y0033700D01*
X0276868Y0033700D01*
X0276868Y0033701D01*
X0276868Y0033701D01*
X0276868Y0033702D01*
X0276867Y0033702D01*
X0303286Y0047066D02*
X0343890Y0086531D01*
X0343889Y0086532D02*
X0343889Y0086531D01*
X0343889Y0086530D01*
X0343890Y0086530D01*
X0343890Y0086530D01*
X0343891Y0086530D01*
X0343891Y0086531D01*
X0343891Y0086532D01*
X0343890Y0086532D01*
X0343890Y0086532D01*
X0343889Y0086532D01*
X0383688Y0106663D02*
X0383687Y0106663D01*
X0383687Y0106664D01*
X0383687Y0106664D01*
X0383687Y0106665D01*
X0383688Y0106665D01*
X0408998Y0106665D01*
X0408997Y0106665D01*
X0408997Y0106664D01*
X0408997Y0106664D01*
X0408997Y0106663D01*
X0408998Y0106663D01*
X0408999Y0106663D01*
X0408999Y0106664D01*
X0408999Y0106664D01*
X0408999Y0106665D01*
X0408998Y0106665D01*
X0383688Y0106663D02*
X0383689Y0106663D01*
X0383689Y0106664D01*
X0383689Y0106664D01*
X0383689Y0106665D01*
X0383688Y0106665D01*
X0408997Y0106664D02*
X0409707Y0106706D01*
X0410416Y0106766D01*
X0411123Y0106842D01*
X0411828Y0106936D01*
X0412531Y0107047D01*
X0413231Y0107174D01*
X0413927Y0107319D01*
X0414620Y0107481D01*
X0415308Y0107659D01*
X0415992Y0107854D01*
X0416671Y0108065D01*
X0417345Y0108293D01*
X0418013Y0108538D01*
X0418675Y0108798D01*
X0419330Y0109075D01*
X0419979Y0109367D01*
X0420620Y0109675D01*
X0421254Y0109998D01*
X0421879Y0110337D01*
X0422496Y0110690D01*
X0423105Y0111059D01*
X0423704Y0111442D01*
X0424293Y0111840D01*
X0424873Y0112252D01*
X0425443Y0112678D01*
X0426002Y0113117D01*
X0426551Y0113570D01*
X0427088Y0114037D01*
X0427614Y0114516D01*
X0428127Y0115008D01*
X0428629Y0115512D01*
X0429119Y0116028D01*
X0429596Y0116556D01*
X0430059Y0117095D01*
X0430510Y0117645D01*
X0430947Y0118206D01*
X0431370Y0118778D01*
X0431780Y0119360D01*
X0432175Y0119951D01*
X0432555Y0120552D01*
X0432921Y0121162D01*
X0433272Y0121780D01*
X0433608Y0122407D01*
X0433929Y0123042D01*
X0434234Y0123685D01*
X0434523Y0124335D01*
X0434797Y0124991D01*
X0435054Y0125654D01*
X0435295Y0126324D01*
X0435520Y0126998D01*
X0435729Y0127678D01*
X0435921Y0128363D01*
X0436096Y0129053D01*
X0436255Y0129746D01*
X0436396Y0130443D01*
X0436521Y0131143D01*
X0436629Y0131846D01*
X0436719Y0132552D01*
X0436792Y0133259D01*
X0436849Y0133968D01*
X0436887Y0134679D01*
X0436909Y0135390D01*
X0436913Y0136101D01*
X0436901Y0136812D01*
X0436870Y0137523D01*
X0436871Y0137523D02*
X0436871Y0222493D01*
X0438946Y0222493D02*
X0438946Y0222492D01*
X0438947Y0222492D01*
X0438947Y0222492D01*
X0438948Y0222492D01*
X0438948Y0222493D01*
X0438948Y0222494D01*
X0438947Y0222494D01*
X0438947Y0222494D01*
X0438946Y0222494D01*
X0438946Y0222493D01*
X0436871Y0222493D02*
X0436896Y0223151D01*
X0436905Y0223810D01*
X0436898Y0224469D01*
X0436874Y0225127D01*
X0436835Y0225785D01*
X0436779Y0226441D01*
X0436708Y0227096D01*
X0436620Y0227749D01*
X0436517Y0228400D01*
X0436398Y0229048D01*
X0436263Y0229693D01*
X0436112Y0230334D01*
X0435945Y0230972D01*
X0435763Y0231605D01*
X0435566Y0232233D01*
X0435354Y0232857D01*
X0435126Y0233475D01*
X0434883Y0234088D01*
X0434625Y0234694D01*
X0434353Y0235294D01*
X0434066Y0235887D01*
X0433764Y0236473D01*
X0433449Y0237051D01*
X0433119Y0237622D01*
X0432776Y0238184D01*
X0432418Y0238737D01*
X0432048Y0239282D01*
X0431664Y0239818D01*
X0431267Y0240344D01*
X0430858Y0240860D01*
X0430436Y0241366D01*
X0430002Y0241862D01*
X0429556Y0242346D01*
X0429098Y0242820D01*
X0428629Y0243283D01*
X0428148Y0243733D01*
X0427657Y0244172D01*
X0427155Y0244599D01*
X0426643Y0245014D01*
X0426121Y0245416D01*
X0425589Y0245805D01*
X0425048Y0246180D01*
X0424498Y0246543D01*
X0423939Y0246892D01*
X0423372Y0247227D01*
X0422797Y0247548D01*
X0422214Y0247856D01*
X0421624Y0248148D01*
X0421027Y0248427D01*
X0420423Y0248690D01*
X0419813Y0248939D01*
X0419197Y0249173D01*
X0418575Y0249392D01*
X0417949Y0249595D01*
X0417317Y0249783D01*
X0416681Y0249956D01*
X0416042Y0250113D01*
X0415398Y0250254D01*
X0414751Y0250380D01*
X0414102Y0250490D01*
X0413450Y0250584D01*
X0412795Y0250662D01*
X0412139Y0250724D01*
X0411482Y0250769D01*
X0045644Y0250769D01*
X0045644Y0250768D02*
X0044991Y0250744D01*
X0044339Y0250705D01*
X0043688Y0250649D01*
X0043039Y0250577D01*
X0042391Y0250490D01*
X0041746Y0250387D01*
X0041104Y0250268D01*
X0040464Y0250133D01*
X0039828Y0249983D01*
X0039196Y0249817D01*
X0038569Y0249636D01*
X0037945Y0249440D01*
X0037327Y0249229D01*
X0036714Y0249002D01*
X0036107Y0248761D01*
X0035506Y0248505D01*
X0034912Y0248234D01*
X0034324Y0247949D01*
X0033743Y0247649D01*
X0033170Y0247336D01*
X0032604Y0247008D01*
X0032047Y0246667D01*
X0031499Y0246312D01*
X0030959Y0245944D01*
X0030428Y0245563D01*
X0029907Y0245169D01*
X0029395Y0244763D01*
X0028894Y0244344D01*
X0028403Y0243913D01*
X0027922Y0243470D01*
X0027453Y0243016D01*
X0026995Y0242550D01*
X0026548Y0242073D01*
X0026113Y0241585D01*
X0025691Y0241087D01*
X0025280Y0240579D01*
X0024882Y0240061D01*
X0024497Y0239533D01*
X0024125Y0238996D01*
X0023766Y0238450D01*
X0023420Y0237896D01*
X0023088Y0237333D01*
X0022770Y0236762D01*
X0022466Y0236184D01*
X0022176Y0235598D01*
X0021901Y0235006D01*
X0021640Y0234407D01*
X0021394Y0233801D01*
X0021162Y0233190D01*
X0020946Y0232574D01*
X0020745Y0231952D01*
X0020559Y0231326D01*
X0020388Y0230695D01*
X0020233Y0230060D01*
X0020094Y0229422D01*
X0019970Y0228781D01*
X0019862Y0228136D01*
X0019769Y0227490D01*
X0019692Y0226841D01*
X0019632Y0226190D01*
X0019587Y0225538D01*
X0019558Y0224886D01*
X0019545Y0224232D01*
X0019548Y0223579D01*
X0019548Y0223580D02*
X0019548Y0136438D01*
X0018583Y0136438D02*
X0018583Y0136439D01*
X0018582Y0136439D01*
X0018582Y0136439D01*
X0018581Y0136439D01*
X0018581Y0136438D01*
X0018581Y0136437D01*
X0018582Y0136437D01*
X0018582Y0136437D01*
X0018583Y0136437D01*
X0018583Y0136438D01*
X0019547Y0136438D02*
X0019539Y0135732D01*
X0019548Y0135026D01*
X0019573Y0134320D01*
X0019616Y0133615D01*
X0019676Y0132912D01*
X0019754Y0132210D01*
X0019848Y0131511D01*
X0019959Y0130813D01*
X0020087Y0130119D01*
X0020231Y0129428D01*
X0020393Y0128741D01*
X0020571Y0128058D01*
X0020766Y0127379D01*
X0020977Y0126705D01*
X0021204Y0126037D01*
X0021448Y0125374D01*
X0021708Y0124718D01*
X0021983Y0124068D01*
X0022274Y0123425D01*
X0022581Y0122789D01*
X0022903Y0122160D01*
X0023240Y0121540D01*
X0023592Y0120928D01*
X0023959Y0120325D01*
X0024340Y0119731D01*
X0024736Y0119146D01*
X0025146Y0118571D01*
X0025570Y0118007D01*
X0026007Y0117452D01*
X0026458Y0116909D01*
X0026921Y0116376D01*
X0027398Y0115855D01*
X0027887Y0115346D01*
X0028388Y0114849D01*
X0028901Y0114364D01*
X0029425Y0113892D01*
X0029961Y0113432D01*
X0030508Y0112986D01*
X0031066Y0112553D01*
X0031634Y0112134D01*
X0032212Y0111728D01*
X0032800Y0111337D01*
X0033397Y0110960D01*
X0034003Y0110598D01*
X0034618Y0110251D01*
X0035241Y0109919D01*
X0035871Y0109601D01*
X0036510Y0109300D01*
X0037155Y0109014D01*
X0037807Y0108743D01*
X0038466Y0108489D01*
X0039130Y0108250D01*
X0039800Y0108028D01*
X0040476Y0107822D01*
X0041156Y0107633D01*
X0041840Y0107460D01*
X0042529Y0107304D01*
X0043221Y0107165D01*
X0043916Y0107042D01*
X0044614Y0106937D01*
X0045315Y0106848D01*
X0046017Y0106776D01*
X0046721Y0106722D01*
X0047426Y0106684D01*
X0048132Y0106664D01*
X0048132Y0106665D02*
X0048131Y0106665D01*
X0048131Y0106664D01*
X0048131Y0106664D01*
X0048131Y0106663D01*
X0048132Y0106663D01*
X0048133Y0106663D01*
X0048133Y0106664D01*
X0048133Y0106664D01*
X0048133Y0106665D01*
X0048132Y0106665D01*
X0073525Y0106665D01*
X0073524Y0106665D01*
X0073524Y0106664D01*
X0073524Y0106664D01*
X0073524Y0106663D01*
X0073525Y0106663D01*
X0073526Y0106663D01*
X0073526Y0106664D01*
X0073526Y0106664D01*
X0073526Y0106665D01*
X0073525Y0106665D01*
X0114801Y0085637D02*
X0114801Y0085638D01*
X0114801Y0085639D01*
X0114802Y0085639D01*
X0114802Y0085639D01*
X0114803Y0085639D01*
X0154149Y0047255D02*
X0154630Y0046630D01*
X0155126Y0046018D01*
X0155637Y0045417D01*
X0156162Y0044829D01*
X0156702Y0044254D01*
X0157255Y0043692D01*
X0157821Y0043144D01*
X0158401Y0042610D01*
X0158993Y0042089D01*
X0159598Y0041583D01*
X0160214Y0041092D01*
X0160843Y0040616D01*
X0161482Y0040155D01*
X0162133Y0039710D01*
X0162794Y0039281D01*
X0163466Y0038867D01*
X0164147Y0038471D01*
X0164837Y0038090D01*
X0165537Y0037727D01*
X0166245Y0037380D01*
X0166961Y0037051D01*
X0167685Y0036739D01*
X0168417Y0036444D01*
X0169155Y0036168D01*
X0169900Y0035909D01*
X0170650Y0035668D01*
X0171407Y0035446D01*
X0172168Y0035242D01*
X0172934Y0035056D01*
X0173705Y0034889D01*
X0174479Y0034741D01*
X0175257Y0034611D01*
X0176037Y0034500D01*
X0176820Y0034408D01*
X0177605Y0034335D01*
X0178392Y0034281D01*
X0179179Y0034246D01*
X0179968Y0034230D01*
X0180756Y0034233D01*
X0180756Y0033702D02*
X0180755Y0033702D01*
X0180755Y0033701D01*
X0180755Y0033701D01*
X0180755Y0033700D01*
X0180756Y0033700D01*
X0180757Y0033700D01*
X0180757Y0033701D01*
X0180757Y0033701D01*
X0180757Y0033702D01*
X0180756Y0033702D01*
X0276867Y0034233D02*
X0277648Y0034230D01*
X0278429Y0034245D01*
X0279210Y0034280D01*
X0279990Y0034333D01*
X0280768Y0034404D01*
X0281544Y0034495D01*
X0282317Y0034603D01*
X0283088Y0034731D01*
X0283856Y0034877D01*
X0284620Y0035041D01*
X0285379Y0035224D01*
X0286134Y0035425D01*
X0286884Y0035644D01*
X0287629Y0035881D01*
X0288368Y0036135D01*
X0289100Y0036408D01*
X0289825Y0036698D01*
X0290544Y0037005D01*
X0291255Y0037329D01*
X0291957Y0037671D01*
X0292652Y0038029D01*
X0293337Y0038404D01*
X0294014Y0038795D01*
X0294681Y0039202D01*
X0295337Y0039625D01*
X0295984Y0040064D01*
X0296620Y0040518D01*
X0297244Y0040987D01*
X0297858Y0041472D01*
X0298459Y0041970D01*
X0299048Y0042483D01*
X0299625Y0043011D01*
X0300189Y0043551D01*
X0300740Y0044106D01*
X0301277Y0044673D01*
X0301800Y0045253D01*
X0302310Y0045845D01*
X0302805Y0046450D01*
X0303285Y0047066D01*
X0303285Y0047067D02*
X0303285Y0047066D01*
X0303285Y0047065D01*
X0303286Y0047065D01*
X0303286Y0047065D01*
X0303287Y0047065D01*
X0303287Y0047066D01*
X0303287Y0047067D01*
X0303286Y0047067D01*
X0303286Y0047067D01*
X0303285Y0047067D01*
X0343891Y0086530D02*
X0344605Y0087478D01*
X0345342Y0088408D01*
X0346101Y0089320D01*
X0346881Y0090213D01*
X0347683Y0091088D01*
X0348506Y0091943D01*
X0349349Y0092778D01*
X0350212Y0093592D01*
X0351094Y0094386D01*
X0351995Y0095158D01*
X0352914Y0095908D01*
X0353851Y0096636D01*
X0354805Y0097341D01*
X0355776Y0098024D01*
X0356763Y0098682D01*
X0357765Y0099317D01*
X0358782Y0099927D01*
X0359814Y0100513D01*
X0360860Y0101074D01*
X0361919Y0101610D01*
X0362990Y0102120D01*
X0364073Y0102604D01*
X0365168Y0103062D01*
X0366273Y0103493D01*
X0367388Y0103898D01*
X0368513Y0104276D01*
X0369646Y0104627D01*
X0370788Y0104951D01*
X0371937Y0105247D01*
X0373093Y0105515D01*
X0374255Y0105756D01*
X0375422Y0105968D01*
X0376594Y0106152D01*
X0377770Y0106309D01*
X0378950Y0106437D01*
X0380132Y0106536D01*
X0381316Y0106607D01*
X0382502Y0106650D01*
X0383689Y0106664D01*
X0439624Y0137523D02*
X0439624Y0137522D01*
X0439625Y0137522D01*
X0439625Y0137522D01*
X0439626Y0137522D01*
X0439626Y0137523D01*
X0439626Y0137524D01*
X0439625Y0137524D01*
X0439625Y0137524D01*
X0439624Y0137524D01*
X0439624Y0137523D01*
X0019278Y0223580D02*
X0019278Y0223581D01*
X0019277Y0223581D01*
X0019277Y0223581D01*
X0019276Y0223581D01*
X0019276Y0223580D01*
X0019276Y0223579D01*
X0019277Y0223579D01*
X0019277Y0223579D01*
X0019278Y0223579D01*
X0019278Y0223580D01*
D11*
X0115336Y0098308D02*
X0115338Y0098464D01*
X0115344Y0098620D01*
X0115354Y0098775D01*
X0115368Y0098930D01*
X0115386Y0099085D01*
X0115408Y0099239D01*
X0115433Y0099393D01*
X0115463Y0099546D01*
X0115497Y0099698D01*
X0115534Y0099850D01*
X0115575Y0100000D01*
X0115620Y0100149D01*
X0115669Y0100297D01*
X0115722Y0100444D01*
X0115778Y0100589D01*
X0115838Y0100733D01*
X0115902Y0100875D01*
X0115970Y0101016D01*
X0116041Y0101154D01*
X0116115Y0101291D01*
X0116193Y0101426D01*
X0116274Y0101559D01*
X0116359Y0101690D01*
X0116447Y0101819D01*
X0116538Y0101945D01*
X0116633Y0102069D01*
X0116730Y0102190D01*
X0116831Y0102309D01*
X0116935Y0102426D01*
X0117041Y0102539D01*
X0117151Y0102650D01*
X0117263Y0102758D01*
X0117378Y0102863D01*
X0117496Y0102966D01*
X0117616Y0103065D01*
X0117739Y0103161D01*
X0117864Y0103254D01*
X0117991Y0103343D01*
X0118121Y0103430D01*
X0118253Y0103513D01*
X0118387Y0103592D01*
X0118523Y0103669D01*
X0118661Y0103741D01*
X0118800Y0103811D01*
X0118942Y0103876D01*
X0119085Y0103938D01*
X0119229Y0103996D01*
X0119375Y0104051D01*
X0119523Y0104102D01*
X0119671Y0104149D01*
X0119821Y0104192D01*
X0119972Y0104231D01*
X0120124Y0104267D01*
X0120276Y0104298D01*
X0120430Y0104326D01*
X0120584Y0104350D01*
X0120738Y0104370D01*
X0120893Y0104386D01*
X0121049Y0104398D01*
X0121204Y0104406D01*
X0121360Y0104410D01*
X0121516Y0104410D01*
X0121672Y0104406D01*
X0121827Y0104398D01*
X0121983Y0104386D01*
X0122138Y0104370D01*
X0122292Y0104350D01*
X0122446Y0104326D01*
X0122600Y0104298D01*
X0122752Y0104267D01*
X0122904Y0104231D01*
X0123055Y0104192D01*
X0123205Y0104149D01*
X0123353Y0104102D01*
X0123501Y0104051D01*
X0123647Y0103996D01*
X0123791Y0103938D01*
X0123934Y0103876D01*
X0124076Y0103811D01*
X0124215Y0103741D01*
X0124353Y0103669D01*
X0124489Y0103592D01*
X0124623Y0103513D01*
X0124755Y0103430D01*
X0124885Y0103343D01*
X0125012Y0103254D01*
X0125137Y0103161D01*
X0125260Y0103065D01*
X0125380Y0102966D01*
X0125498Y0102863D01*
X0125613Y0102758D01*
X0125725Y0102650D01*
X0125835Y0102539D01*
X0125941Y0102426D01*
X0126045Y0102309D01*
X0126146Y0102190D01*
X0126243Y0102069D01*
X0126338Y0101945D01*
X0126429Y0101819D01*
X0126517Y0101690D01*
X0126602Y0101559D01*
X0126683Y0101426D01*
X0126761Y0101291D01*
X0126835Y0101154D01*
X0126906Y0101016D01*
X0126974Y0100875D01*
X0127038Y0100733D01*
X0127098Y0100589D01*
X0127154Y0100444D01*
X0127207Y0100297D01*
X0127256Y0100149D01*
X0127301Y0100000D01*
X0127342Y0099850D01*
X0127379Y0099698D01*
X0127413Y0099546D01*
X0127443Y0099393D01*
X0127468Y0099239D01*
X0127490Y0099085D01*
X0127508Y0098930D01*
X0127522Y0098775D01*
X0127532Y0098620D01*
X0127538Y0098464D01*
X0127540Y0098308D01*
X0127538Y0098152D01*
X0127532Y0097996D01*
X0127522Y0097841D01*
X0127508Y0097686D01*
X0127490Y0097531D01*
X0127468Y0097377D01*
X0127443Y0097223D01*
X0127413Y0097070D01*
X0127379Y0096918D01*
X0127342Y0096766D01*
X0127301Y0096616D01*
X0127256Y0096467D01*
X0127207Y0096319D01*
X0127154Y0096172D01*
X0127098Y0096027D01*
X0127038Y0095883D01*
X0126974Y0095741D01*
X0126906Y0095600D01*
X0126835Y0095462D01*
X0126761Y0095325D01*
X0126683Y0095190D01*
X0126602Y0095057D01*
X0126517Y0094926D01*
X0126429Y0094797D01*
X0126338Y0094671D01*
X0126243Y0094547D01*
X0126146Y0094426D01*
X0126045Y0094307D01*
X0125941Y0094190D01*
X0125835Y0094077D01*
X0125725Y0093966D01*
X0125613Y0093858D01*
X0125498Y0093753D01*
X0125380Y0093650D01*
X0125260Y0093551D01*
X0125137Y0093455D01*
X0125012Y0093362D01*
X0124885Y0093273D01*
X0124755Y0093186D01*
X0124623Y0093103D01*
X0124489Y0093024D01*
X0124353Y0092947D01*
X0124215Y0092875D01*
X0124076Y0092805D01*
X0123934Y0092740D01*
X0123791Y0092678D01*
X0123647Y0092620D01*
X0123501Y0092565D01*
X0123353Y0092514D01*
X0123205Y0092467D01*
X0123055Y0092424D01*
X0122904Y0092385D01*
X0122752Y0092349D01*
X0122600Y0092318D01*
X0122446Y0092290D01*
X0122292Y0092266D01*
X0122138Y0092246D01*
X0121983Y0092230D01*
X0121827Y0092218D01*
X0121672Y0092210D01*
X0121516Y0092206D01*
X0121360Y0092206D01*
X0121204Y0092210D01*
X0121049Y0092218D01*
X0120893Y0092230D01*
X0120738Y0092246D01*
X0120584Y0092266D01*
X0120430Y0092290D01*
X0120276Y0092318D01*
X0120124Y0092349D01*
X0119972Y0092385D01*
X0119821Y0092424D01*
X0119671Y0092467D01*
X0119523Y0092514D01*
X0119375Y0092565D01*
X0119229Y0092620D01*
X0119085Y0092678D01*
X0118942Y0092740D01*
X0118800Y0092805D01*
X0118661Y0092875D01*
X0118523Y0092947D01*
X0118387Y0093024D01*
X0118253Y0093103D01*
X0118121Y0093186D01*
X0117991Y0093273D01*
X0117864Y0093362D01*
X0117739Y0093455D01*
X0117616Y0093551D01*
X0117496Y0093650D01*
X0117378Y0093753D01*
X0117263Y0093858D01*
X0117151Y0093966D01*
X0117041Y0094077D01*
X0116935Y0094190D01*
X0116831Y0094307D01*
X0116730Y0094426D01*
X0116633Y0094547D01*
X0116538Y0094671D01*
X0116447Y0094797D01*
X0116359Y0094926D01*
X0116274Y0095057D01*
X0116193Y0095190D01*
X0116115Y0095325D01*
X0116041Y0095462D01*
X0115970Y0095600D01*
X0115902Y0095741D01*
X0115838Y0095883D01*
X0115778Y0096027D01*
X0115722Y0096172D01*
X0115669Y0096319D01*
X0115620Y0096467D01*
X0115575Y0096616D01*
X0115534Y0096766D01*
X0115497Y0096918D01*
X0115463Y0097070D01*
X0115433Y0097223D01*
X0115408Y0097377D01*
X0115386Y0097531D01*
X0115368Y0097686D01*
X0115354Y0097841D01*
X0115344Y0097996D01*
X0115338Y0098152D01*
X0115336Y0098308D01*
X0328808Y0096808D02*
X0328810Y0096964D01*
X0328816Y0097120D01*
X0328826Y0097275D01*
X0328840Y0097430D01*
X0328858Y0097585D01*
X0328880Y0097739D01*
X0328905Y0097893D01*
X0328935Y0098046D01*
X0328969Y0098198D01*
X0329006Y0098350D01*
X0329047Y0098500D01*
X0329092Y0098649D01*
X0329141Y0098797D01*
X0329194Y0098944D01*
X0329250Y0099089D01*
X0329310Y0099233D01*
X0329374Y0099375D01*
X0329442Y0099516D01*
X0329513Y0099654D01*
X0329587Y0099791D01*
X0329665Y0099926D01*
X0329746Y0100059D01*
X0329831Y0100190D01*
X0329919Y0100319D01*
X0330010Y0100445D01*
X0330105Y0100569D01*
X0330202Y0100690D01*
X0330303Y0100809D01*
X0330407Y0100926D01*
X0330513Y0101039D01*
X0330623Y0101150D01*
X0330735Y0101258D01*
X0330850Y0101363D01*
X0330968Y0101466D01*
X0331088Y0101565D01*
X0331211Y0101661D01*
X0331336Y0101754D01*
X0331463Y0101843D01*
X0331593Y0101930D01*
X0331725Y0102013D01*
X0331859Y0102092D01*
X0331995Y0102169D01*
X0332133Y0102241D01*
X0332272Y0102311D01*
X0332414Y0102376D01*
X0332557Y0102438D01*
X0332701Y0102496D01*
X0332847Y0102551D01*
X0332995Y0102602D01*
X0333143Y0102649D01*
X0333293Y0102692D01*
X0333444Y0102731D01*
X0333596Y0102767D01*
X0333748Y0102798D01*
X0333902Y0102826D01*
X0334056Y0102850D01*
X0334210Y0102870D01*
X0334365Y0102886D01*
X0334521Y0102898D01*
X0334676Y0102906D01*
X0334832Y0102910D01*
X0334988Y0102910D01*
X0335144Y0102906D01*
X0335299Y0102898D01*
X0335455Y0102886D01*
X0335610Y0102870D01*
X0335764Y0102850D01*
X0335918Y0102826D01*
X0336072Y0102798D01*
X0336224Y0102767D01*
X0336376Y0102731D01*
X0336527Y0102692D01*
X0336677Y0102649D01*
X0336825Y0102602D01*
X0336973Y0102551D01*
X0337119Y0102496D01*
X0337263Y0102438D01*
X0337406Y0102376D01*
X0337548Y0102311D01*
X0337687Y0102241D01*
X0337825Y0102169D01*
X0337961Y0102092D01*
X0338095Y0102013D01*
X0338227Y0101930D01*
X0338357Y0101843D01*
X0338484Y0101754D01*
X0338609Y0101661D01*
X0338732Y0101565D01*
X0338852Y0101466D01*
X0338970Y0101363D01*
X0339085Y0101258D01*
X0339197Y0101150D01*
X0339307Y0101039D01*
X0339413Y0100926D01*
X0339517Y0100809D01*
X0339618Y0100690D01*
X0339715Y0100569D01*
X0339810Y0100445D01*
X0339901Y0100319D01*
X0339989Y0100190D01*
X0340074Y0100059D01*
X0340155Y0099926D01*
X0340233Y0099791D01*
X0340307Y0099654D01*
X0340378Y0099516D01*
X0340446Y0099375D01*
X0340510Y0099233D01*
X0340570Y0099089D01*
X0340626Y0098944D01*
X0340679Y0098797D01*
X0340728Y0098649D01*
X0340773Y0098500D01*
X0340814Y0098350D01*
X0340851Y0098198D01*
X0340885Y0098046D01*
X0340915Y0097893D01*
X0340940Y0097739D01*
X0340962Y0097585D01*
X0340980Y0097430D01*
X0340994Y0097275D01*
X0341004Y0097120D01*
X0341010Y0096964D01*
X0341012Y0096808D01*
X0341010Y0096652D01*
X0341004Y0096496D01*
X0340994Y0096341D01*
X0340980Y0096186D01*
X0340962Y0096031D01*
X0340940Y0095877D01*
X0340915Y0095723D01*
X0340885Y0095570D01*
X0340851Y0095418D01*
X0340814Y0095266D01*
X0340773Y0095116D01*
X0340728Y0094967D01*
X0340679Y0094819D01*
X0340626Y0094672D01*
X0340570Y0094527D01*
X0340510Y0094383D01*
X0340446Y0094241D01*
X0340378Y0094100D01*
X0340307Y0093962D01*
X0340233Y0093825D01*
X0340155Y0093690D01*
X0340074Y0093557D01*
X0339989Y0093426D01*
X0339901Y0093297D01*
X0339810Y0093171D01*
X0339715Y0093047D01*
X0339618Y0092926D01*
X0339517Y0092807D01*
X0339413Y0092690D01*
X0339307Y0092577D01*
X0339197Y0092466D01*
X0339085Y0092358D01*
X0338970Y0092253D01*
X0338852Y0092150D01*
X0338732Y0092051D01*
X0338609Y0091955D01*
X0338484Y0091862D01*
X0338357Y0091773D01*
X0338227Y0091686D01*
X0338095Y0091603D01*
X0337961Y0091524D01*
X0337825Y0091447D01*
X0337687Y0091375D01*
X0337548Y0091305D01*
X0337406Y0091240D01*
X0337263Y0091178D01*
X0337119Y0091120D01*
X0336973Y0091065D01*
X0336825Y0091014D01*
X0336677Y0090967D01*
X0336527Y0090924D01*
X0336376Y0090885D01*
X0336224Y0090849D01*
X0336072Y0090818D01*
X0335918Y0090790D01*
X0335764Y0090766D01*
X0335610Y0090746D01*
X0335455Y0090730D01*
X0335299Y0090718D01*
X0335144Y0090710D01*
X0334988Y0090706D01*
X0334832Y0090706D01*
X0334676Y0090710D01*
X0334521Y0090718D01*
X0334365Y0090730D01*
X0334210Y0090746D01*
X0334056Y0090766D01*
X0333902Y0090790D01*
X0333748Y0090818D01*
X0333596Y0090849D01*
X0333444Y0090885D01*
X0333293Y0090924D01*
X0333143Y0090967D01*
X0332995Y0091014D01*
X0332847Y0091065D01*
X0332701Y0091120D01*
X0332557Y0091178D01*
X0332414Y0091240D01*
X0332272Y0091305D01*
X0332133Y0091375D01*
X0331995Y0091447D01*
X0331859Y0091524D01*
X0331725Y0091603D01*
X0331593Y0091686D01*
X0331463Y0091773D01*
X0331336Y0091862D01*
X0331211Y0091955D01*
X0331088Y0092051D01*
X0330968Y0092150D01*
X0330850Y0092253D01*
X0330735Y0092358D01*
X0330623Y0092466D01*
X0330513Y0092577D01*
X0330407Y0092690D01*
X0330303Y0092807D01*
X0330202Y0092926D01*
X0330105Y0093047D01*
X0330010Y0093171D01*
X0329919Y0093297D01*
X0329831Y0093426D01*
X0329746Y0093557D01*
X0329665Y0093690D01*
X0329587Y0093825D01*
X0329513Y0093962D01*
X0329442Y0094100D01*
X0329374Y0094241D01*
X0329310Y0094383D01*
X0329250Y0094527D01*
X0329194Y0094672D01*
X0329141Y0094819D01*
X0329092Y0094967D01*
X0329047Y0095116D01*
X0329006Y0095266D01*
X0328969Y0095418D01*
X0328935Y0095570D01*
X0328905Y0095723D01*
X0328880Y0095877D01*
X0328858Y0096031D01*
X0328840Y0096186D01*
X0328826Y0096341D01*
X0328816Y0096496D01*
X0328810Y0096652D01*
X0328808Y0096808D01*
X0222107Y0238957D02*
X0222109Y0239113D01*
X0222115Y0239269D01*
X0222125Y0239424D01*
X0222139Y0239579D01*
X0222157Y0239734D01*
X0222179Y0239888D01*
X0222204Y0240042D01*
X0222234Y0240195D01*
X0222268Y0240347D01*
X0222305Y0240499D01*
X0222346Y0240649D01*
X0222391Y0240798D01*
X0222440Y0240946D01*
X0222493Y0241093D01*
X0222549Y0241238D01*
X0222609Y0241382D01*
X0222673Y0241524D01*
X0222741Y0241665D01*
X0222812Y0241803D01*
X0222886Y0241940D01*
X0222964Y0242075D01*
X0223045Y0242208D01*
X0223130Y0242339D01*
X0223218Y0242468D01*
X0223309Y0242594D01*
X0223404Y0242718D01*
X0223501Y0242839D01*
X0223602Y0242958D01*
X0223706Y0243075D01*
X0223812Y0243188D01*
X0223922Y0243299D01*
X0224034Y0243407D01*
X0224149Y0243512D01*
X0224267Y0243615D01*
X0224387Y0243714D01*
X0224510Y0243810D01*
X0224635Y0243903D01*
X0224762Y0243992D01*
X0224892Y0244079D01*
X0225024Y0244162D01*
X0225158Y0244241D01*
X0225294Y0244318D01*
X0225432Y0244390D01*
X0225571Y0244460D01*
X0225713Y0244525D01*
X0225856Y0244587D01*
X0226000Y0244645D01*
X0226146Y0244700D01*
X0226294Y0244751D01*
X0226442Y0244798D01*
X0226592Y0244841D01*
X0226743Y0244880D01*
X0226895Y0244916D01*
X0227047Y0244947D01*
X0227201Y0244975D01*
X0227355Y0244999D01*
X0227509Y0245019D01*
X0227664Y0245035D01*
X0227820Y0245047D01*
X0227975Y0245055D01*
X0228131Y0245059D01*
X0228287Y0245059D01*
X0228443Y0245055D01*
X0228598Y0245047D01*
X0228754Y0245035D01*
X0228909Y0245019D01*
X0229063Y0244999D01*
X0229217Y0244975D01*
X0229371Y0244947D01*
X0229523Y0244916D01*
X0229675Y0244880D01*
X0229826Y0244841D01*
X0229976Y0244798D01*
X0230124Y0244751D01*
X0230272Y0244700D01*
X0230418Y0244645D01*
X0230562Y0244587D01*
X0230705Y0244525D01*
X0230847Y0244460D01*
X0230986Y0244390D01*
X0231124Y0244318D01*
X0231260Y0244241D01*
X0231394Y0244162D01*
X0231526Y0244079D01*
X0231656Y0243992D01*
X0231783Y0243903D01*
X0231908Y0243810D01*
X0232031Y0243714D01*
X0232151Y0243615D01*
X0232269Y0243512D01*
X0232384Y0243407D01*
X0232496Y0243299D01*
X0232606Y0243188D01*
X0232712Y0243075D01*
X0232816Y0242958D01*
X0232917Y0242839D01*
X0233014Y0242718D01*
X0233109Y0242594D01*
X0233200Y0242468D01*
X0233288Y0242339D01*
X0233373Y0242208D01*
X0233454Y0242075D01*
X0233532Y0241940D01*
X0233606Y0241803D01*
X0233677Y0241665D01*
X0233745Y0241524D01*
X0233809Y0241382D01*
X0233869Y0241238D01*
X0233925Y0241093D01*
X0233978Y0240946D01*
X0234027Y0240798D01*
X0234072Y0240649D01*
X0234113Y0240499D01*
X0234150Y0240347D01*
X0234184Y0240195D01*
X0234214Y0240042D01*
X0234239Y0239888D01*
X0234261Y0239734D01*
X0234279Y0239579D01*
X0234293Y0239424D01*
X0234303Y0239269D01*
X0234309Y0239113D01*
X0234311Y0238957D01*
X0234309Y0238801D01*
X0234303Y0238645D01*
X0234293Y0238490D01*
X0234279Y0238335D01*
X0234261Y0238180D01*
X0234239Y0238026D01*
X0234214Y0237872D01*
X0234184Y0237719D01*
X0234150Y0237567D01*
X0234113Y0237415D01*
X0234072Y0237265D01*
X0234027Y0237116D01*
X0233978Y0236968D01*
X0233925Y0236821D01*
X0233869Y0236676D01*
X0233809Y0236532D01*
X0233745Y0236390D01*
X0233677Y0236249D01*
X0233606Y0236111D01*
X0233532Y0235974D01*
X0233454Y0235839D01*
X0233373Y0235706D01*
X0233288Y0235575D01*
X0233200Y0235446D01*
X0233109Y0235320D01*
X0233014Y0235196D01*
X0232917Y0235075D01*
X0232816Y0234956D01*
X0232712Y0234839D01*
X0232606Y0234726D01*
X0232496Y0234615D01*
X0232384Y0234507D01*
X0232269Y0234402D01*
X0232151Y0234299D01*
X0232031Y0234200D01*
X0231908Y0234104D01*
X0231783Y0234011D01*
X0231656Y0233922D01*
X0231526Y0233835D01*
X0231394Y0233752D01*
X0231260Y0233673D01*
X0231124Y0233596D01*
X0230986Y0233524D01*
X0230847Y0233454D01*
X0230705Y0233389D01*
X0230562Y0233327D01*
X0230418Y0233269D01*
X0230272Y0233214D01*
X0230124Y0233163D01*
X0229976Y0233116D01*
X0229826Y0233073D01*
X0229675Y0233034D01*
X0229523Y0232998D01*
X0229371Y0232967D01*
X0229217Y0232939D01*
X0229063Y0232915D01*
X0228909Y0232895D01*
X0228754Y0232879D01*
X0228598Y0232867D01*
X0228443Y0232859D01*
X0228287Y0232855D01*
X0228131Y0232855D01*
X0227975Y0232859D01*
X0227820Y0232867D01*
X0227664Y0232879D01*
X0227509Y0232895D01*
X0227355Y0232915D01*
X0227201Y0232939D01*
X0227047Y0232967D01*
X0226895Y0232998D01*
X0226743Y0233034D01*
X0226592Y0233073D01*
X0226442Y0233116D01*
X0226294Y0233163D01*
X0226146Y0233214D01*
X0226000Y0233269D01*
X0225856Y0233327D01*
X0225713Y0233389D01*
X0225571Y0233454D01*
X0225432Y0233524D01*
X0225294Y0233596D01*
X0225158Y0233673D01*
X0225024Y0233752D01*
X0224892Y0233835D01*
X0224762Y0233922D01*
X0224635Y0234011D01*
X0224510Y0234104D01*
X0224387Y0234200D01*
X0224267Y0234299D01*
X0224149Y0234402D01*
X0224034Y0234507D01*
X0223922Y0234615D01*
X0223812Y0234726D01*
X0223706Y0234839D01*
X0223602Y0234956D01*
X0223501Y0235075D01*
X0223404Y0235196D01*
X0223309Y0235320D01*
X0223218Y0235446D01*
X0223130Y0235575D01*
X0223045Y0235706D01*
X0222964Y0235839D01*
X0222886Y0235974D01*
X0222812Y0236111D01*
X0222741Y0236249D01*
X0222673Y0236390D01*
X0222609Y0236532D01*
X0222549Y0236676D01*
X0222493Y0236821D01*
X0222440Y0236968D01*
X0222391Y0237116D01*
X0222346Y0237265D01*
X0222305Y0237415D01*
X0222268Y0237567D01*
X0222234Y0237719D01*
X0222204Y0237872D01*
X0222179Y0238026D01*
X0222157Y0238180D01*
X0222139Y0238335D01*
X0222125Y0238490D01*
X0222115Y0238645D01*
X0222109Y0238801D01*
X0222107Y0238957D01*
D12*
X0137461Y0239548D03*
X0118170Y0239548D03*
X0118170Y0226556D03*
X0137461Y0226556D03*
X0052816Y0135217D03*
X0033524Y0135217D03*
X0033524Y0122225D03*
X0052816Y0122225D03*
X0320926Y0226556D03*
X0340217Y0226556D03*
X0340217Y0239548D03*
X0320926Y0239548D03*
X0403603Y0135217D03*
X0403603Y0122225D03*
X0422894Y0122225D03*
X0422894Y0135217D03*
D13*
X0327912Y0199708D03*
X0313993Y0185789D03*
X0300073Y0171870D03*
D14*
X0273623Y0176743D03*
X0286950Y0210898D03*
X0296950Y0211898D03*
X0276950Y0211898D03*
X0231989Y0222459D03*
X0221989Y0221459D03*
X0211989Y0222459D03*
X0170965Y0211898D03*
X0160965Y0210898D03*
X0150965Y0211898D03*
X0092225Y0211898D03*
X0082225Y0210898D03*
X0072225Y0211898D03*
X0080209Y0194044D03*
X0108493Y0165760D03*
X0158105Y0100050D03*
X0164988Y0092796D03*
X0165122Y0061585D03*
X0172900Y0055221D03*
X0179264Y0047443D03*
X0277813Y0047300D03*
X0284177Y0055079D03*
X0291955Y0061443D03*
X0273623Y0136743D03*
X0365690Y0210898D03*
X0355690Y0211898D03*
X0375690Y0211898D03*
D15*
X0153406Y0171080D03*
X0153406Y0141480D03*
D16*
X0180965Y0210898D03*
X0241989Y0221459D03*
X0306950Y0210898D03*
X0385690Y0210898D03*
X0102225Y0210898D03*
D17*
X0195792Y0197359D02*
X0200942Y0197359D01*
X0200942Y0187359D02*
X0195792Y0187359D01*
X0195792Y0177359D02*
X0200942Y0177359D01*
X0200942Y0167359D02*
X0195792Y0167359D01*
X0195792Y0157359D02*
X0200942Y0157359D01*
X0200942Y0147359D02*
X0195792Y0147359D01*
X0195792Y0137359D02*
X0200942Y0137359D01*
X0200942Y0127359D02*
X0195792Y0127359D01*
X0195792Y0117359D02*
X0200942Y0117359D01*
X0200942Y0107359D02*
X0195792Y0107359D01*
X0195792Y0097359D02*
X0200942Y0097359D01*
X0200942Y0087359D02*
X0195792Y0087359D01*
X0195792Y0077359D02*
X0200942Y0077359D01*
X0200942Y0067359D02*
X0195792Y0067359D01*
X0195792Y0057359D02*
X0200942Y0057359D01*
X0255792Y0057359D02*
X0260942Y0057359D01*
X0260942Y0067359D02*
X0255792Y0067359D01*
X0255792Y0077359D02*
X0260942Y0077359D01*
X0260942Y0087359D02*
X0255792Y0087359D01*
X0255792Y0097359D02*
X0260942Y0097359D01*
X0260942Y0107359D02*
X0255792Y0107359D01*
X0255792Y0117359D02*
X0260942Y0117359D01*
X0260942Y0127359D02*
X0255792Y0127359D01*
X0255792Y0137359D02*
X0260942Y0137359D01*
X0260942Y0147359D02*
X0255792Y0147359D01*
X0255792Y0157359D02*
X0260942Y0157359D01*
X0260942Y0167359D02*
X0255792Y0167359D01*
X0255792Y0177359D02*
X0260942Y0177359D01*
X0260942Y0187359D02*
X0255792Y0187359D01*
X0255792Y0197359D02*
X0260942Y0197359D01*
D18*
X0092132Y0155338D02*
X0087889Y0159581D01*
X0075303Y0146994D02*
X0079545Y0142752D01*
X0061443Y0160854D02*
X0057201Y0165096D01*
X0069787Y0177683D02*
X0074030Y0173440D01*
D19*
G36*
X0151085Y0102074D02*
X0145991Y0107440D01*
X0151357Y0112534D01*
X0156451Y0107168D01*
X0151085Y0102074D01*
G37*
D20*
G36*
X0279891Y0095259D02*
X0274464Y0089832D01*
X0269037Y0095259D01*
X0274464Y0100686D01*
X0279891Y0095259D01*
G37*
G36*
X0299690Y0114493D02*
X0294263Y0109066D01*
X0288836Y0114493D01*
X0294263Y0119920D01*
X0299690Y0114493D01*
G37*
G36*
X0331156Y0082885D02*
X0325729Y0077458D01*
X0320302Y0082885D01*
X0325729Y0088312D01*
X0331156Y0082885D01*
G37*
G36*
X0311711Y0063439D02*
X0306284Y0058012D01*
X0300857Y0063439D01*
X0306284Y0068866D01*
X0311711Y0063439D01*
G37*
D21*
G36*
X0308713Y0075814D02*
X0304516Y0071617D01*
X0300319Y0075814D01*
X0304516Y0080011D01*
X0308713Y0075814D01*
G37*
G36*
X0317198Y0084016D02*
X0313001Y0079819D01*
X0308804Y0084016D01*
X0313001Y0088213D01*
X0317198Y0084016D01*
G37*
G36*
X0308147Y0092926D02*
X0303950Y0088729D01*
X0299753Y0092926D01*
X0303950Y0097123D01*
X0308147Y0092926D01*
G37*
G36*
X0299874Y0084653D02*
X0295677Y0080456D01*
X0291480Y0084653D01*
X0295677Y0088850D01*
X0299874Y0084653D01*
G37*
G36*
X0291035Y0093491D02*
X0286838Y0089294D01*
X0282641Y0093491D01*
X0286838Y0097688D01*
X0291035Y0093491D01*
G37*
G36*
X0299379Y0101694D02*
X0295182Y0097497D01*
X0290985Y0101694D01*
X0295182Y0105891D01*
X0299379Y0101694D01*
G37*
D22*
G36*
X0426492Y0179902D02*
X0401438Y0154848D01*
X0376384Y0179902D01*
X0401438Y0204956D01*
X0426492Y0179902D01*
G37*
D23*
X0428406Y0177997D02*
X0428406Y0160541D01*
X0422565Y0154700D01*
X0421581Y0153716D01*
X0421048Y0152429D01*
X0421048Y0139689D01*
X0419405Y0139689D01*
X0418412Y0139278D01*
X0417653Y0138518D01*
X0417242Y0137526D01*
X0417242Y0132909D01*
X0417653Y0131916D01*
X0418412Y0131157D01*
X0419405Y0130746D01*
X0426384Y0130746D01*
X0427377Y0131157D01*
X0428136Y0131916D01*
X0428547Y0132909D01*
X0428547Y0137526D01*
X0428136Y0138518D01*
X0428048Y0138607D01*
X0428048Y0150283D01*
X0432569Y0154804D01*
X0432569Y0138257D01*
X0432529Y0138143D01*
X0432569Y0137406D01*
X0432569Y0136667D01*
X0432579Y0136644D01*
X0432588Y0134824D01*
X0431888Y0129952D01*
X0430246Y0125311D01*
X0428547Y0122460D01*
X0428547Y0124534D01*
X0428136Y0125526D01*
X0427377Y0126286D01*
X0426384Y0126697D01*
X0419405Y0126697D01*
X0418412Y0126286D01*
X0417852Y0125725D01*
X0411844Y0125725D01*
X0410558Y0125192D01*
X0409256Y0123891D01*
X0409256Y0124534D01*
X0408845Y0125526D01*
X0408085Y0126286D01*
X0407093Y0126697D01*
X0400113Y0126697D01*
X0399121Y0126286D01*
X0398361Y0125526D01*
X0397950Y0124534D01*
X0397950Y0119916D01*
X0398361Y0118924D01*
X0399121Y0118165D01*
X0400113Y0117754D01*
X0406048Y0117754D01*
X0406048Y0117529D01*
X0405770Y0117251D01*
X0405359Y0116259D01*
X0405359Y0112207D01*
X0405770Y0111215D01*
X0406018Y0110967D01*
X0384843Y0110967D01*
X0384841Y0110967D01*
X0382535Y0110967D01*
X0382534Y0110967D01*
X0379488Y0110967D01*
X0371189Y0109661D01*
X0363193Y0107081D01*
X0355697Y0103288D01*
X0348881Y0098376D01*
X0345095Y0094625D01*
X0345313Y0095438D01*
X0345313Y0098177D01*
X0344604Y0100823D01*
X0343234Y0103195D01*
X0341297Y0105132D01*
X0338925Y0106501D01*
X0336280Y0107210D01*
X0333541Y0107210D01*
X0330895Y0106501D01*
X0328523Y0105132D01*
X0326586Y0103195D01*
X0325217Y0100823D01*
X0324508Y0098177D01*
X0324508Y0095438D01*
X0325217Y0092793D01*
X0326244Y0091013D01*
X0325192Y0091013D01*
X0324200Y0090602D01*
X0319316Y0085718D01*
X0314531Y0090503D01*
X0313538Y0090914D01*
X0312464Y0090914D01*
X0311472Y0090503D01*
X0306514Y0085546D01*
X0306103Y0084553D01*
X0306103Y0083479D01*
X0306514Y0082487D01*
X0311472Y0077529D01*
X0312464Y0077118D01*
X0313538Y0077118D01*
X0314531Y0077529D01*
X0318184Y0081183D01*
X0324200Y0075167D01*
X0325192Y0074756D01*
X0325603Y0074756D01*
X0314412Y0063879D01*
X0314412Y0063977D01*
X0314001Y0064969D01*
X0307844Y0071126D01*
X0311003Y0074284D01*
X0311414Y0075277D01*
X0311414Y0076351D01*
X0311003Y0077343D01*
X0306045Y0082301D01*
X0305053Y0082712D01*
X0303979Y0082712D01*
X0302986Y0082301D01*
X0298029Y0077343D01*
X0297618Y0076351D01*
X0297618Y0075277D01*
X0298029Y0074284D01*
X0302955Y0069358D01*
X0298566Y0064969D01*
X0298155Y0063977D01*
X0298155Y0063198D01*
X0297381Y0065068D01*
X0295580Y0066868D01*
X0293228Y0067842D01*
X0290682Y0067842D01*
X0288330Y0066868D01*
X0286695Y0065233D01*
X0281352Y0065233D01*
X0280065Y0064700D01*
X0279081Y0063716D01*
X0266308Y0050942D01*
X0184741Y0050942D01*
X0184689Y0051068D01*
X0182889Y0052868D01*
X0180537Y0053842D01*
X0177991Y0053842D01*
X0177666Y0053708D01*
X0177777Y0054050D01*
X0177900Y0054827D01*
X0177900Y0055614D01*
X0177777Y0056392D01*
X0177533Y0057140D01*
X0177176Y0057841D01*
X0176714Y0058478D01*
X0176647Y0058544D01*
X0173324Y0055221D01*
X0172900Y0055645D01*
X0176223Y0058968D01*
X0176157Y0059034D01*
X0175520Y0059497D01*
X0174819Y0059854D01*
X0174071Y0060098D01*
X0173293Y0060221D01*
X0172506Y0060221D01*
X0171729Y0060098D01*
X0171387Y0059986D01*
X0171522Y0060312D01*
X0171522Y0062858D01*
X0170547Y0065210D01*
X0168747Y0067010D01*
X0166395Y0067985D01*
X0163849Y0067985D01*
X0161496Y0067010D01*
X0159696Y0065210D01*
X0158722Y0062858D01*
X0158722Y0060312D01*
X0159696Y0057959D01*
X0161496Y0056159D01*
X0163849Y0055185D01*
X0166395Y0055185D01*
X0167933Y0055822D01*
X0167900Y0055614D01*
X0167900Y0054827D01*
X0168023Y0054050D01*
X0168266Y0053301D01*
X0168623Y0052600D01*
X0169086Y0051963D01*
X0169152Y0051897D01*
X0172476Y0055221D01*
X0172900Y0054796D01*
X0169576Y0051473D01*
X0169643Y0051407D01*
X0170279Y0050944D01*
X0170980Y0050587D01*
X0171729Y0050344D01*
X0172506Y0050221D01*
X0173293Y0050221D01*
X0173501Y0050254D01*
X0172864Y0048716D01*
X0172864Y0046169D01*
X0173838Y0043817D01*
X0175638Y0042017D01*
X0177991Y0041043D01*
X0180537Y0041043D01*
X0182889Y0042017D01*
X0184689Y0043817D01*
X0184741Y0043943D01*
X0268454Y0043943D01*
X0269740Y0044475D01*
X0271413Y0046148D01*
X0271413Y0046027D01*
X0272387Y0043675D01*
X0274188Y0041875D01*
X0276540Y0040900D01*
X0279086Y0040900D01*
X0281438Y0041875D01*
X0283239Y0043675D01*
X0284213Y0046027D01*
X0284213Y0048573D01*
X0283576Y0050111D01*
X0283783Y0050079D01*
X0284570Y0050079D01*
X0285348Y0050202D01*
X0286096Y0050445D01*
X0286798Y0050802D01*
X0287434Y0051265D01*
X0287500Y0051331D01*
X0284177Y0054654D01*
X0284601Y0055078D01*
X0287925Y0051755D01*
X0287991Y0051821D01*
X0288453Y0052458D01*
X0288811Y0053159D01*
X0289054Y0053908D01*
X0289177Y0054685D01*
X0289177Y0055472D01*
X0289144Y0055680D01*
X0290682Y0055043D01*
X0293228Y0055043D01*
X0295580Y0056017D01*
X0297381Y0057817D01*
X0298355Y0060169D01*
X0298355Y0062420D01*
X0298566Y0061910D01*
X0304754Y0055722D01*
X0305641Y0055354D01*
X0300863Y0050710D01*
X0300535Y0050570D01*
X0300357Y0050332D01*
X0300041Y0049911D01*
X0299674Y0049554D01*
X0299577Y0049330D01*
X0298165Y0047643D01*
X0294241Y0044109D01*
X0289728Y0041367D01*
X0284783Y0039514D01*
X0279579Y0038615D01*
X0276956Y0038535D01*
X0276903Y0038535D01*
X0276082Y0038548D01*
X0276048Y0038535D01*
X0181576Y0038535D01*
X0181543Y0038548D01*
X0180722Y0038535D01*
X0180670Y0038535D01*
X0178021Y0038618D01*
X0172769Y0039533D01*
X0167781Y0041415D01*
X0163234Y0044199D01*
X0159290Y0047785D01*
X0157865Y0049505D01*
X0157765Y0049737D01*
X0157395Y0050098D01*
X0157078Y0050521D01*
X0157078Y0050521D01*
X0156899Y0050759D01*
X0156576Y0050897D01*
X0118097Y0088434D01*
X0120068Y0087906D01*
X0122807Y0087906D01*
X0125453Y0088614D01*
X0127825Y0089984D01*
X0129762Y0091921D01*
X0131131Y0094293D01*
X0131840Y0096938D01*
X0131840Y0099677D01*
X0131131Y0102323D01*
X0129762Y0104695D01*
X0127825Y0106632D01*
X0125453Y0108001D01*
X0122807Y0108710D01*
X0120068Y0108710D01*
X0117423Y0108001D01*
X0115051Y0106632D01*
X0113114Y0104695D01*
X0111744Y0102323D01*
X0111035Y0099677D01*
X0111035Y0096938D01*
X0111242Y0096167D01*
X0109564Y0097845D01*
X0102519Y0102962D01*
X0094760Y0106914D01*
X0094760Y0106914D01*
X0086479Y0109604D01*
X0086479Y0109604D01*
X0077879Y0110966D01*
X0077879Y0110966D01*
X0074679Y0110966D01*
X0074678Y0110967D01*
X0072372Y0110967D01*
X0072370Y0110967D01*
X0049286Y0110967D01*
X0049285Y0110967D01*
X0048183Y0110967D01*
X0045766Y0111127D01*
X0040998Y0112163D01*
X0036525Y0114113D01*
X0032521Y0116903D01*
X0031704Y0117754D01*
X0037014Y0117754D01*
X0038007Y0118165D01*
X0038766Y0118924D01*
X0039177Y0119916D01*
X0039177Y0124534D01*
X0038766Y0125526D01*
X0038007Y0126286D01*
X0037014Y0126697D01*
X0034002Y0126697D01*
X0029298Y0131401D01*
X0029298Y0133176D01*
X0029360Y0132944D01*
X0029531Y0132647D01*
X0029773Y0132405D01*
X0030070Y0132234D01*
X0030400Y0132146D01*
X0033224Y0132146D01*
X0033224Y0134917D01*
X0033824Y0134917D01*
X0033824Y0132146D01*
X0036648Y0132146D01*
X0036979Y0132234D01*
X0037275Y0132405D01*
X0037517Y0132647D01*
X0037689Y0132944D01*
X0037777Y0133275D01*
X0037777Y0134917D01*
X0033824Y0134917D01*
X0033824Y0135517D01*
X0033224Y0135517D01*
X0033224Y0138289D01*
X0030400Y0138289D01*
X0030070Y0138200D01*
X0029773Y0138029D01*
X0029531Y0137787D01*
X0029360Y0137491D01*
X0029298Y0137259D01*
X0029298Y0227783D01*
X0043498Y0241983D01*
X0114099Y0241983D01*
X0114006Y0241821D01*
X0113917Y0241491D01*
X0113917Y0239848D01*
X0117870Y0239848D01*
X0117870Y0239248D01*
X0113917Y0239248D01*
X0113917Y0237605D01*
X0114006Y0237275D01*
X0114177Y0236978D01*
X0114419Y0236736D01*
X0114716Y0236565D01*
X0115046Y0236476D01*
X0117870Y0236476D01*
X0117870Y0239248D01*
X0118470Y0239248D01*
X0118470Y0236476D01*
X0121294Y0236476D01*
X0121625Y0236565D01*
X0121921Y0236736D01*
X0122163Y0236978D01*
X0122334Y0237275D01*
X0122423Y0237605D01*
X0122423Y0239248D01*
X0118470Y0239248D01*
X0118470Y0239848D01*
X0122423Y0239848D01*
X0122423Y0241409D01*
X0127565Y0236266D01*
X0128852Y0235733D01*
X0132734Y0235733D01*
X0132979Y0235487D01*
X0133593Y0235233D01*
X0131352Y0235233D01*
X0130065Y0234700D01*
X0129081Y0233716D01*
X0125421Y0230056D01*
X0123213Y0230056D01*
X0122652Y0230616D01*
X0121660Y0231028D01*
X0114680Y0231028D01*
X0113688Y0230616D01*
X0112928Y0229857D01*
X0112517Y0228865D01*
X0112517Y0224247D01*
X0112928Y0223255D01*
X0113688Y0222495D01*
X0114680Y0222084D01*
X0121660Y0222084D01*
X0122652Y0222495D01*
X0123213Y0223056D01*
X0127567Y0223056D01*
X0128853Y0223589D01*
X0131809Y0226544D01*
X0131809Y0224247D01*
X0132220Y0223255D01*
X0132979Y0222495D01*
X0133972Y0222084D01*
X0137594Y0222084D01*
X0137838Y0221983D01*
X0139230Y0221983D01*
X0139475Y0222084D01*
X0140951Y0222084D01*
X0141944Y0222495D01*
X0142592Y0223143D01*
X0142780Y0222955D01*
X0143772Y0222544D01*
X0147824Y0222544D01*
X0148816Y0222955D01*
X0149576Y0223715D01*
X0149987Y0224707D01*
X0149987Y0228233D01*
X0180002Y0228233D01*
X0180280Y0227955D01*
X0181272Y0227544D01*
X0185324Y0227544D01*
X0186316Y0227955D01*
X0187076Y0228715D01*
X0187487Y0229707D01*
X0187487Y0233759D01*
X0187076Y0234751D01*
X0186316Y0235511D01*
X0185324Y0235922D01*
X0181272Y0235922D01*
X0180280Y0235511D01*
X0180002Y0235233D01*
X0141329Y0235233D01*
X0141944Y0235487D01*
X0142703Y0236247D01*
X0143114Y0237239D01*
X0143114Y0241857D01*
X0142703Y0242849D01*
X0141944Y0243609D01*
X0140951Y0244020D01*
X0133972Y0244020D01*
X0132979Y0243609D01*
X0132220Y0242849D01*
X0132172Y0242733D01*
X0130998Y0242733D01*
X0127264Y0246467D01*
X0221007Y0246467D01*
X0219885Y0245345D01*
X0218516Y0242973D01*
X0217807Y0240327D01*
X0217807Y0237588D01*
X0218516Y0234942D01*
X0219885Y0232570D01*
X0221822Y0230634D01*
X0224194Y0229264D01*
X0226840Y0228555D01*
X0229579Y0228555D01*
X0232225Y0229264D01*
X0234597Y0230634D01*
X0236533Y0232570D01*
X0237903Y0234942D01*
X0238612Y0237588D01*
X0238612Y0240327D01*
X0237903Y0242973D01*
X0236533Y0245345D01*
X0235412Y0246467D01*
X0411302Y0246467D01*
X0413437Y0246239D01*
X0417719Y0245132D01*
X0421705Y0243215D01*
X0425243Y0240560D01*
X0428198Y0237269D01*
X0430457Y0233467D01*
X0430658Y0232900D01*
X0428858Y0234700D01*
X0427572Y0235233D01*
X0344085Y0235233D01*
X0344699Y0235487D01*
X0345459Y0236247D01*
X0345870Y0237239D01*
X0345870Y0241857D01*
X0345459Y0242849D01*
X0344699Y0243609D01*
X0343707Y0244020D01*
X0336727Y0244020D01*
X0335735Y0243609D01*
X0334976Y0242849D01*
X0334565Y0241857D01*
X0334565Y0238845D01*
X0333453Y0237733D01*
X0325179Y0237733D01*
X0325179Y0239248D01*
X0321226Y0239248D01*
X0321226Y0239848D01*
X0325179Y0239848D01*
X0325179Y0241491D01*
X0325090Y0241821D01*
X0324919Y0242118D01*
X0324677Y0242360D01*
X0324381Y0242531D01*
X0324050Y0242620D01*
X0321226Y0242620D01*
X0321226Y0239848D01*
X0320626Y0239848D01*
X0320626Y0239248D01*
X0316673Y0239248D01*
X0316673Y0237605D01*
X0316735Y0237374D01*
X0316315Y0237200D01*
X0315331Y0236216D01*
X0300598Y0221483D01*
X0272602Y0221483D01*
X0271315Y0220950D01*
X0270331Y0219966D01*
X0263098Y0212733D01*
X0236237Y0212733D01*
X0236237Y0214765D01*
X0235826Y0215757D01*
X0235548Y0216035D01*
X0235548Y0216179D01*
X0235489Y0216322D01*
X0235489Y0216982D01*
X0235614Y0217034D01*
X0236989Y0218408D01*
X0236989Y0217588D01*
X0237078Y0217258D01*
X0237249Y0216961D01*
X0237491Y0216719D01*
X0237787Y0216548D01*
X0238118Y0216459D01*
X0241689Y0216459D01*
X0241689Y0221159D01*
X0242289Y0221159D01*
X0242289Y0216459D01*
X0245860Y0216459D01*
X0246191Y0216548D01*
X0246487Y0216719D01*
X0246729Y0216961D01*
X0246900Y0217258D01*
X0246989Y0217588D01*
X0246989Y0221159D01*
X0242289Y0221159D01*
X0242289Y0221759D01*
X0246989Y0221759D01*
X0246989Y0225331D01*
X0246900Y0225661D01*
X0246729Y0225958D01*
X0246487Y0226200D01*
X0246191Y0226371D01*
X0245860Y0226459D01*
X0242289Y0226459D01*
X0242289Y0221759D01*
X0241689Y0221759D01*
X0241689Y0226459D01*
X0238118Y0226459D01*
X0237787Y0226371D01*
X0237491Y0226200D01*
X0237395Y0226104D01*
X0235614Y0227885D01*
X0233262Y0228859D01*
X0230716Y0228859D01*
X0228364Y0227885D01*
X0226563Y0226085D01*
X0226520Y0225980D01*
X0225614Y0226885D01*
X0223262Y0227859D01*
X0220716Y0227859D01*
X0218364Y0226885D01*
X0217458Y0225980D01*
X0217415Y0226085D01*
X0215614Y0227885D01*
X0213262Y0228859D01*
X0210716Y0228859D01*
X0208364Y0227885D01*
X0206563Y0226085D01*
X0205589Y0223732D01*
X0205589Y0221186D01*
X0206563Y0218834D01*
X0208364Y0217034D01*
X0210716Y0216059D01*
X0213262Y0216059D01*
X0215614Y0217034D01*
X0216520Y0217939D01*
X0216563Y0217834D01*
X0218364Y0216034D01*
X0218493Y0215980D01*
X0218270Y0215757D01*
X0217859Y0214765D01*
X0217859Y0212733D01*
X0197844Y0212733D01*
X0197566Y0213011D01*
X0196574Y0213422D01*
X0192522Y0213422D01*
X0191530Y0213011D01*
X0190770Y0212251D01*
X0190359Y0211259D01*
X0190359Y0209672D01*
X0188772Y0209672D01*
X0187780Y0209261D01*
X0187020Y0208501D01*
X0186609Y0207509D01*
X0186609Y0205233D01*
X0176594Y0205233D01*
X0176316Y0205511D01*
X0175324Y0205922D01*
X0173261Y0205922D01*
X0174591Y0206473D01*
X0175965Y0207847D01*
X0175965Y0207027D01*
X0176054Y0206697D01*
X0176225Y0206400D01*
X0176467Y0206158D01*
X0176764Y0205987D01*
X0177094Y0205898D01*
X0180665Y0205898D01*
X0180665Y0210598D01*
X0181265Y0210598D01*
X0181265Y0205898D01*
X0184837Y0205898D01*
X0185167Y0205987D01*
X0185464Y0206158D01*
X0185706Y0206400D01*
X0185877Y0206697D01*
X0185965Y0207027D01*
X0185965Y0210598D01*
X0181265Y0210598D01*
X0181265Y0211198D01*
X0185965Y0211198D01*
X0185965Y0214770D01*
X0185877Y0215100D01*
X0185706Y0215397D01*
X0185464Y0215639D01*
X0185167Y0215810D01*
X0184837Y0215898D01*
X0181265Y0215898D01*
X0181265Y0211198D01*
X0180665Y0211198D01*
X0180665Y0215898D01*
X0177094Y0215898D01*
X0176764Y0215810D01*
X0176467Y0215639D01*
X0176372Y0215543D01*
X0174591Y0217324D01*
X0172238Y0218298D01*
X0169692Y0218298D01*
X0167340Y0217324D01*
X0165540Y0215524D01*
X0165496Y0215419D01*
X0164591Y0216324D01*
X0162238Y0217298D01*
X0159692Y0217298D01*
X0157340Y0216324D01*
X0156435Y0215419D01*
X0156391Y0215524D01*
X0154591Y0217324D01*
X0152238Y0218298D01*
X0149692Y0218298D01*
X0147340Y0217324D01*
X0145540Y0215524D01*
X0144565Y0213171D01*
X0144565Y0210625D01*
X0145540Y0208273D01*
X0147340Y0206473D01*
X0149692Y0205498D01*
X0152238Y0205498D01*
X0154591Y0206473D01*
X0155496Y0207378D01*
X0155540Y0207273D01*
X0157340Y0205473D01*
X0157465Y0205421D01*
X0157465Y0204864D01*
X0157998Y0203577D01*
X0158983Y0202593D01*
X0164109Y0197467D01*
X0164109Y0196201D01*
X0164520Y0195209D01*
X0165280Y0194449D01*
X0166272Y0194038D01*
X0170324Y0194038D01*
X0171316Y0194449D01*
X0172076Y0195209D01*
X0172487Y0196201D01*
X0172487Y0197544D01*
X0175324Y0197544D01*
X0176316Y0197955D01*
X0176594Y0198233D01*
X0190517Y0198233D01*
X0190517Y0196310D01*
X0191320Y0194371D01*
X0192804Y0192887D01*
X0194079Y0192359D01*
X0192804Y0191831D01*
X0191320Y0190347D01*
X0190517Y0188408D01*
X0190517Y0186310D01*
X0191320Y0184371D01*
X0192804Y0182887D01*
X0194079Y0182359D01*
X0192804Y0181831D01*
X0191320Y0180347D01*
X0190517Y0178408D01*
X0190517Y0176310D01*
X0191320Y0174371D01*
X0192804Y0172887D01*
X0194079Y0172359D01*
X0192804Y0171831D01*
X0191832Y0170859D01*
X0161106Y0170859D01*
X0161106Y0174270D01*
X0156596Y0178780D01*
X0150217Y0178780D01*
X0145706Y0174270D01*
X0145706Y0167891D01*
X0150217Y0163380D01*
X0156596Y0163380D01*
X0157074Y0163859D01*
X0191832Y0163859D01*
X0192804Y0162887D01*
X0194079Y0162359D01*
X0192804Y0161831D01*
X0191320Y0160347D01*
X0190517Y0158408D01*
X0190517Y0156310D01*
X0191320Y0154371D01*
X0192804Y0152887D01*
X0194079Y0152359D01*
X0192804Y0151831D01*
X0191832Y0150859D01*
X0174478Y0150859D01*
X0173191Y0150326D01*
X0172207Y0149342D01*
X0168098Y0145233D01*
X0160543Y0145233D01*
X0156596Y0149180D01*
X0150217Y0149180D01*
X0145706Y0144670D01*
X0145706Y0138291D01*
X0146264Y0137733D01*
X0058383Y0137733D01*
X0058057Y0138518D01*
X0057298Y0139278D01*
X0056306Y0139689D01*
X0049326Y0139689D01*
X0048334Y0139278D01*
X0047574Y0138518D01*
X0047163Y0137526D01*
X0047163Y0132909D01*
X0047574Y0131916D01*
X0048334Y0131157D01*
X0049326Y0130746D01*
X0053073Y0130746D01*
X0053104Y0130733D01*
X0165598Y0130733D01*
X0168548Y0127783D01*
X0168548Y0098249D01*
X0166261Y0099196D01*
X0164505Y0099196D01*
X0164505Y0101323D01*
X0163530Y0103675D01*
X0161730Y0105476D01*
X0159378Y0106450D01*
X0159088Y0106450D01*
X0159137Y0106559D01*
X0159165Y0107633D01*
X0158780Y0108636D01*
X0152947Y0114783D01*
X0151966Y0115220D01*
X0150892Y0115248D01*
X0149889Y0114863D01*
X0143742Y0109030D01*
X0143305Y0108048D01*
X0143277Y0106975D01*
X0143662Y0105972D01*
X0149495Y0099825D01*
X0150477Y0099388D01*
X0151550Y0099360D01*
X0151705Y0099419D01*
X0151705Y0098777D01*
X0152679Y0096425D01*
X0152808Y0096296D01*
X0142415Y0096296D01*
X0141511Y0095922D01*
X0140022Y0095922D01*
X0139030Y0095511D01*
X0138270Y0094751D01*
X0137859Y0093759D01*
X0137859Y0089707D01*
X0138270Y0088715D01*
X0139030Y0087955D01*
X0140022Y0087544D01*
X0144074Y0087544D01*
X0145066Y0087955D01*
X0145826Y0088715D01*
X0146067Y0089296D01*
X0159511Y0089296D01*
X0159563Y0089171D01*
X0161363Y0087371D01*
X0163715Y0086396D01*
X0166261Y0086396D01*
X0168614Y0087371D01*
X0170037Y0088794D01*
X0173455Y0085376D01*
X0174439Y0084392D01*
X0175726Y0083859D01*
X0191832Y0083859D01*
X0192804Y0082887D01*
X0194079Y0082359D01*
X0192804Y0081831D01*
X0191320Y0080347D01*
X0190517Y0078408D01*
X0190517Y0076310D01*
X0191320Y0074371D01*
X0192804Y0072887D01*
X0194079Y0072359D01*
X0192804Y0071831D01*
X0191320Y0070347D01*
X0190517Y0068408D01*
X0190517Y0066310D01*
X0191320Y0064371D01*
X0192804Y0062887D01*
X0194079Y0062359D01*
X0192804Y0061831D01*
X0191320Y0060347D01*
X0190517Y0058408D01*
X0190517Y0056310D01*
X0191320Y0054371D01*
X0192804Y0052887D01*
X0194743Y0052084D01*
X0201991Y0052084D01*
X0203930Y0052887D01*
X0204275Y0053233D01*
X0220002Y0053233D01*
X0220280Y0052955D01*
X0221272Y0052544D01*
X0225324Y0052544D01*
X0226316Y0052955D01*
X0227076Y0053715D01*
X0227487Y0054707D01*
X0227487Y0058759D01*
X0227076Y0059751D01*
X0226316Y0060511D01*
X0225324Y0060922D01*
X0221272Y0060922D01*
X0220280Y0060511D01*
X0220002Y0060233D01*
X0205461Y0060233D01*
X0205413Y0060347D01*
X0203930Y0061831D01*
X0202654Y0062359D01*
X0203930Y0062887D01*
X0205413Y0064371D01*
X0206217Y0066310D01*
X0206217Y0068408D01*
X0205413Y0070347D01*
X0203930Y0071831D01*
X0202654Y0072359D01*
X0203930Y0072887D01*
X0205413Y0074371D01*
X0206217Y0076310D01*
X0206217Y0078408D01*
X0205413Y0080347D01*
X0203930Y0081831D01*
X0202654Y0082359D01*
X0203930Y0082887D01*
X0205413Y0084371D01*
X0206217Y0086310D01*
X0206217Y0088408D01*
X0205413Y0090347D01*
X0203930Y0091831D01*
X0202654Y0092359D01*
X0203930Y0092887D01*
X0205413Y0094371D01*
X0206217Y0096310D01*
X0206217Y0098408D01*
X0205413Y0100347D01*
X0203930Y0101831D01*
X0202654Y0102359D01*
X0203930Y0102887D01*
X0205413Y0104371D01*
X0206217Y0106310D01*
X0206217Y0108408D01*
X0205894Y0109188D01*
X0206315Y0108766D01*
X0209705Y0105376D01*
X0210689Y0104392D01*
X0211976Y0103859D01*
X0251832Y0103859D01*
X0252804Y0102887D01*
X0254079Y0102359D01*
X0252804Y0101831D01*
X0251320Y0100347D01*
X0250517Y0098408D01*
X0250517Y0096310D01*
X0251320Y0094371D01*
X0252804Y0092887D01*
X0254079Y0092359D01*
X0252804Y0091831D01*
X0251320Y0090347D01*
X0250517Y0088408D01*
X0250517Y0086310D01*
X0251320Y0084371D01*
X0252804Y0082887D01*
X0254079Y0082359D01*
X0252804Y0081831D01*
X0251320Y0080347D01*
X0250517Y0078408D01*
X0250517Y0076310D01*
X0251320Y0074371D01*
X0252804Y0072887D01*
X0254079Y0072359D01*
X0252804Y0071831D01*
X0251320Y0070347D01*
X0250517Y0068408D01*
X0250517Y0066310D01*
X0251320Y0064371D01*
X0252804Y0062887D01*
X0254079Y0062359D01*
X0252804Y0061831D01*
X0251320Y0060347D01*
X0250517Y0058408D01*
X0250517Y0056310D01*
X0251320Y0054371D01*
X0252804Y0052887D01*
X0254743Y0052084D01*
X0261991Y0052084D01*
X0263930Y0052887D01*
X0265413Y0054371D01*
X0266217Y0056310D01*
X0266217Y0058408D01*
X0265413Y0060347D01*
X0263930Y0061831D01*
X0262654Y0062359D01*
X0263930Y0062887D01*
X0265413Y0064371D01*
X0266217Y0066310D01*
X0266217Y0068408D01*
X0265413Y0070347D01*
X0263930Y0071831D01*
X0262654Y0072359D01*
X0263930Y0072887D01*
X0265413Y0074371D01*
X0266217Y0076310D01*
X0266217Y0078408D01*
X0265413Y0080347D01*
X0263930Y0081831D01*
X0262654Y0082359D01*
X0263930Y0082887D01*
X0265413Y0084371D01*
X0266217Y0086310D01*
X0266217Y0088408D01*
X0265674Y0089717D01*
X0268217Y0092259D01*
X0272934Y0087542D01*
X0273927Y0087131D01*
X0275001Y0087131D01*
X0275993Y0087542D01*
X0280382Y0091931D01*
X0285309Y0087004D01*
X0286301Y0086593D01*
X0287375Y0086593D01*
X0288368Y0087004D01*
X0293325Y0091962D01*
X0293736Y0092954D01*
X0293736Y0094029D01*
X0293325Y0095021D01*
X0288368Y0099979D01*
X0287375Y0100390D01*
X0286301Y0100390D01*
X0285548Y0100078D01*
X0285548Y0117187D01*
X0285826Y0117465D01*
X0286237Y0118457D01*
X0286237Y0120733D01*
X0291256Y0120733D01*
X0286545Y0116022D01*
X0286134Y0115030D01*
X0286134Y0113955D01*
X0286545Y0112963D01*
X0292490Y0107018D01*
X0288695Y0103223D01*
X0288284Y0102231D01*
X0288284Y0101157D01*
X0288695Y0100164D01*
X0293653Y0095207D01*
X0294645Y0094796D01*
X0295719Y0094796D01*
X0296712Y0095207D01*
X0301669Y0100164D01*
X0302080Y0101157D01*
X0302080Y0102231D01*
X0301669Y0103223D01*
X0296955Y0107938D01*
X0301980Y0112963D01*
X0302391Y0113955D01*
X0302391Y0115030D01*
X0301980Y0116022D01*
X0297269Y0120733D01*
X0352744Y0120733D01*
X0354031Y0121266D01*
X0355015Y0122250D01*
X0357781Y0125016D01*
X0358765Y0126000D01*
X0359298Y0127287D01*
X0359298Y0170937D01*
X0359576Y0171215D01*
X0359987Y0172207D01*
X0359987Y0175733D01*
X0376734Y0175733D01*
X0399908Y0152558D01*
X0400901Y0152147D01*
X0401975Y0152147D01*
X0402967Y0152558D01*
X0428406Y0177997D01*
X0428406Y0177876D02*
X0428285Y0177876D01*
X0428406Y0177277D02*
X0427686Y0177277D01*
X0427088Y0176679D02*
X0428406Y0176679D01*
X0428406Y0176080D02*
X0426489Y0176080D01*
X0425890Y0175482D02*
X0428406Y0175482D01*
X0428406Y0174883D02*
X0425292Y0174883D01*
X0424693Y0174285D02*
X0428406Y0174285D01*
X0428406Y0173686D02*
X0424095Y0173686D01*
X0423496Y0173088D02*
X0428406Y0173088D01*
X0428406Y0172489D02*
X0422898Y0172489D01*
X0422299Y0171891D02*
X0428406Y0171891D01*
X0428406Y0171292D02*
X0421701Y0171292D01*
X0421102Y0170694D02*
X0428406Y0170694D01*
X0428406Y0170095D02*
X0420504Y0170095D01*
X0419905Y0169497D02*
X0428406Y0169497D01*
X0428406Y0168898D02*
X0419307Y0168898D01*
X0418708Y0168300D02*
X0428406Y0168300D01*
X0428406Y0167701D02*
X0418110Y0167701D01*
X0417511Y0167103D02*
X0428406Y0167103D01*
X0428406Y0166504D02*
X0416913Y0166504D01*
X0416314Y0165906D02*
X0428406Y0165906D01*
X0428406Y0165307D02*
X0415716Y0165307D01*
X0415117Y0164709D02*
X0428406Y0164709D01*
X0428406Y0164110D02*
X0414519Y0164110D01*
X0413920Y0163512D02*
X0428406Y0163512D01*
X0428406Y0162913D02*
X0413322Y0162913D01*
X0412723Y0162314D02*
X0428406Y0162314D01*
X0428406Y0161716D02*
X0412125Y0161716D01*
X0411526Y0161117D02*
X0428406Y0161117D01*
X0428384Y0160519D02*
X0410928Y0160519D01*
X0410329Y0159920D02*
X0427786Y0159920D01*
X0427187Y0159322D02*
X0409731Y0159322D01*
X0409132Y0158723D02*
X0426589Y0158723D01*
X0425990Y0158125D02*
X0408534Y0158125D01*
X0407935Y0157526D02*
X0425392Y0157526D01*
X0424793Y0156928D02*
X0407337Y0156928D01*
X0406738Y0156329D02*
X0424195Y0156329D01*
X0423596Y0155731D02*
X0406140Y0155731D01*
X0405541Y0155132D02*
X0422998Y0155132D01*
X0422399Y0154534D02*
X0404943Y0154534D01*
X0404344Y0153935D02*
X0421801Y0153935D01*
X0421424Y0153337D02*
X0403746Y0153337D01*
X0403147Y0152738D02*
X0421176Y0152738D01*
X0421048Y0152140D02*
X0359298Y0152140D01*
X0359298Y0152738D02*
X0399729Y0152738D01*
X0399130Y0153337D02*
X0359298Y0153337D01*
X0359298Y0153935D02*
X0398531Y0153935D01*
X0397933Y0154534D02*
X0359298Y0154534D01*
X0359298Y0155132D02*
X0397334Y0155132D01*
X0396736Y0155731D02*
X0359298Y0155731D01*
X0359298Y0156329D02*
X0396137Y0156329D01*
X0395539Y0156928D02*
X0359298Y0156928D01*
X0359298Y0157526D02*
X0394940Y0157526D01*
X0394342Y0158125D02*
X0359298Y0158125D01*
X0359298Y0158723D02*
X0393743Y0158723D01*
X0393145Y0159322D02*
X0359298Y0159322D01*
X0359298Y0159920D02*
X0392546Y0159920D01*
X0391948Y0160519D02*
X0359298Y0160519D01*
X0359298Y0161117D02*
X0391349Y0161117D01*
X0390751Y0161716D02*
X0359298Y0161716D01*
X0359298Y0162314D02*
X0390152Y0162314D01*
X0389554Y0162913D02*
X0359298Y0162913D01*
X0359298Y0163512D02*
X0388955Y0163512D01*
X0388357Y0164110D02*
X0359298Y0164110D01*
X0359298Y0164709D02*
X0387758Y0164709D01*
X0387160Y0165307D02*
X0359298Y0165307D01*
X0359298Y0165906D02*
X0386561Y0165906D01*
X0385963Y0166504D02*
X0359298Y0166504D01*
X0359298Y0167103D02*
X0385364Y0167103D01*
X0384766Y0167701D02*
X0359298Y0167701D01*
X0359298Y0168300D02*
X0384167Y0168300D01*
X0383569Y0168898D02*
X0359298Y0168898D01*
X0359298Y0169497D02*
X0382970Y0169497D01*
X0382372Y0170095D02*
X0359298Y0170095D01*
X0359298Y0170694D02*
X0381773Y0170694D01*
X0381175Y0171292D02*
X0359608Y0171292D01*
X0359856Y0171891D02*
X0380576Y0171891D01*
X0379978Y0172489D02*
X0359987Y0172489D01*
X0359987Y0173088D02*
X0379379Y0173088D01*
X0378781Y0173686D02*
X0359987Y0173686D01*
X0359987Y0174285D02*
X0378182Y0174285D01*
X0377584Y0174883D02*
X0359987Y0174883D01*
X0359987Y0175482D02*
X0376985Y0175482D01*
X0375395Y0182733D02*
X0320304Y0182733D01*
X0320993Y0184397D01*
X0320993Y0187181D01*
X0319927Y0189754D01*
X0317958Y0191723D01*
X0315385Y0192789D01*
X0312601Y0192789D01*
X0310028Y0191723D01*
X0308059Y0189754D01*
X0306993Y0187181D01*
X0306993Y0184397D01*
X0307682Y0182733D01*
X0286352Y0182733D01*
X0285065Y0182200D01*
X0280023Y0177158D01*
X0280023Y0178016D01*
X0279048Y0180368D01*
X0277248Y0182169D01*
X0274896Y0183143D01*
X0272350Y0183143D01*
X0269998Y0182169D01*
X0268197Y0180368D01*
X0267223Y0178016D01*
X0267223Y0175470D01*
X0268197Y0173118D01*
X0269798Y0171517D01*
X0269798Y0153183D01*
X0267474Y0150859D01*
X0264901Y0150859D01*
X0263930Y0151831D01*
X0262654Y0152359D01*
X0263930Y0152887D01*
X0265413Y0154371D01*
X0266217Y0156310D01*
X0266217Y0158408D01*
X0265413Y0160347D01*
X0263930Y0161831D01*
X0261991Y0162634D01*
X0254743Y0162634D01*
X0252804Y0161831D01*
X0251320Y0160347D01*
X0250517Y0158408D01*
X0250517Y0156310D01*
X0251320Y0154371D01*
X0252804Y0152887D01*
X0254079Y0152359D01*
X0252804Y0151831D01*
X0251320Y0150347D01*
X0250517Y0148408D01*
X0250517Y0146310D01*
X0251320Y0144371D01*
X0252804Y0142887D01*
X0254079Y0142359D01*
X0252804Y0141831D01*
X0251320Y0140347D01*
X0250517Y0138408D01*
X0250517Y0136310D01*
X0251320Y0134371D01*
X0252804Y0132887D01*
X0254079Y0132359D01*
X0252804Y0131831D01*
X0251320Y0130347D01*
X0250517Y0128408D01*
X0250517Y0126310D01*
X0251320Y0124371D01*
X0252804Y0122887D01*
X0254079Y0122359D01*
X0252804Y0121831D01*
X0251320Y0120347D01*
X0250517Y0118408D01*
X0250517Y0116310D01*
X0251320Y0114371D01*
X0252804Y0112887D01*
X0254079Y0112359D01*
X0252804Y0111831D01*
X0251832Y0110859D01*
X0247487Y0110859D01*
X0247487Y0113759D01*
X0247076Y0114751D01*
X0246798Y0115029D01*
X0246798Y0190044D01*
X0249074Y0190044D01*
X0250066Y0190455D01*
X0250826Y0191215D01*
X0251237Y0192207D01*
X0251237Y0193475D01*
X0251727Y0193965D01*
X0252804Y0192887D01*
X0254079Y0192359D01*
X0252804Y0191831D01*
X0251320Y0190347D01*
X0250517Y0188408D01*
X0250517Y0186310D01*
X0251320Y0184371D01*
X0252804Y0182887D01*
X0254079Y0182359D01*
X0252804Y0181831D01*
X0251320Y0180347D01*
X0250517Y0178408D01*
X0250517Y0176310D01*
X0251320Y0174371D01*
X0252804Y0172887D01*
X0254743Y0172084D01*
X0261991Y0172084D01*
X0263930Y0172887D01*
X0265413Y0174371D01*
X0266217Y0176310D01*
X0266217Y0178408D01*
X0265413Y0180347D01*
X0263930Y0181831D01*
X0262654Y0182359D01*
X0263930Y0182887D01*
X0264901Y0183859D01*
X0293370Y0183859D01*
X0294657Y0184392D01*
X0299031Y0188766D01*
X0300015Y0189750D01*
X0300548Y0191037D01*
X0300548Y0206462D01*
X0300575Y0206473D01*
X0301950Y0207847D01*
X0301950Y0207027D01*
X0302038Y0206697D01*
X0302209Y0206400D01*
X0302451Y0206158D01*
X0302748Y0205987D01*
X0303078Y0205898D01*
X0306650Y0205898D01*
X0306650Y0210598D01*
X0307250Y0210598D01*
X0307250Y0211198D01*
X0311950Y0211198D01*
X0311950Y0214770D01*
X0311861Y0215100D01*
X0311690Y0215397D01*
X0311448Y0215639D01*
X0311151Y0215810D01*
X0310821Y0215898D01*
X0307250Y0215898D01*
X0307250Y0211198D01*
X0306650Y0211198D01*
X0306650Y0215898D01*
X0304913Y0215898D01*
X0315273Y0226259D01*
X0315273Y0224247D01*
X0315684Y0223255D01*
X0316444Y0222495D01*
X0317436Y0222084D01*
X0324416Y0222084D01*
X0325408Y0222495D01*
X0325969Y0223056D01*
X0327567Y0223056D01*
X0328853Y0223589D01*
X0333498Y0228233D01*
X0334565Y0228233D01*
X0334565Y0224247D01*
X0334976Y0223255D01*
X0335735Y0222495D01*
X0336727Y0222084D01*
X0343707Y0222084D01*
X0344699Y0222495D01*
X0345260Y0223056D01*
X0348929Y0223056D01*
X0349030Y0222955D01*
X0350022Y0222544D01*
X0354074Y0222544D01*
X0355066Y0222955D01*
X0355826Y0223715D01*
X0356237Y0224707D01*
X0356237Y0228233D01*
X0425426Y0228233D01*
X0428406Y0225253D01*
X0428406Y0181807D01*
X0402967Y0207246D01*
X0401975Y0207657D01*
X0400901Y0207657D01*
X0399908Y0207246D01*
X0375395Y0182733D01*
X0375924Y0183262D02*
X0320523Y0183262D01*
X0320771Y0183861D02*
X0376523Y0183861D01*
X0377122Y0184459D02*
X0320993Y0184459D01*
X0320993Y0185058D02*
X0377720Y0185058D01*
X0378319Y0185656D02*
X0320993Y0185656D01*
X0320993Y0186255D02*
X0378917Y0186255D01*
X0379516Y0186853D02*
X0320993Y0186853D01*
X0320881Y0187452D02*
X0380114Y0187452D01*
X0380713Y0188050D02*
X0320633Y0188050D01*
X0320385Y0188649D02*
X0381311Y0188649D01*
X0381910Y0189248D02*
X0320137Y0189248D01*
X0319835Y0189846D02*
X0382508Y0189846D01*
X0383107Y0190445D02*
X0319237Y0190445D01*
X0318638Y0191043D02*
X0383705Y0191043D01*
X0384304Y0191642D02*
X0318040Y0191642D01*
X0316710Y0192240D02*
X0384902Y0192240D01*
X0385501Y0192839D02*
X0329619Y0192839D01*
X0329305Y0192708D02*
X0331877Y0193774D01*
X0333847Y0195743D01*
X0334912Y0198316D01*
X0334912Y0201101D01*
X0333847Y0203674D01*
X0331877Y0205643D01*
X0329305Y0206708D01*
X0326520Y0206708D01*
X0323947Y0205643D01*
X0321978Y0203674D01*
X0320912Y0201101D01*
X0320912Y0198316D01*
X0321978Y0195743D01*
X0323947Y0193774D01*
X0326520Y0192708D01*
X0329305Y0192708D01*
X0331064Y0193437D02*
X0386099Y0193437D01*
X0386698Y0194036D02*
X0332139Y0194036D01*
X0332738Y0194634D02*
X0387296Y0194634D01*
X0387895Y0195233D02*
X0333336Y0195233D01*
X0333883Y0195831D02*
X0388493Y0195831D01*
X0389092Y0196430D02*
X0334131Y0196430D01*
X0334379Y0197028D02*
X0389690Y0197028D01*
X0390289Y0197627D02*
X0334627Y0197627D01*
X0334875Y0198225D02*
X0390887Y0198225D01*
X0391486Y0198824D02*
X0334912Y0198824D01*
X0334912Y0199422D02*
X0392084Y0199422D01*
X0392683Y0200021D02*
X0334912Y0200021D01*
X0334912Y0200619D02*
X0393281Y0200619D01*
X0393880Y0201218D02*
X0334864Y0201218D01*
X0334616Y0201816D02*
X0394478Y0201816D01*
X0395077Y0202415D02*
X0334368Y0202415D01*
X0334120Y0203013D02*
X0395675Y0203013D01*
X0396274Y0203612D02*
X0333872Y0203612D01*
X0333310Y0204210D02*
X0396872Y0204210D01*
X0397471Y0204809D02*
X0367712Y0204809D01*
X0366963Y0204498D02*
X0369315Y0205473D01*
X0371115Y0207273D01*
X0371159Y0207378D01*
X0372064Y0206473D01*
X0374417Y0205498D01*
X0376963Y0205498D01*
X0379315Y0206473D01*
X0380690Y0207847D01*
X0380690Y0207027D01*
X0380778Y0206697D01*
X0380950Y0206400D01*
X0381192Y0206158D01*
X0381488Y0205987D01*
X0381819Y0205898D01*
X0385390Y0205898D01*
X0385390Y0210598D01*
X0385990Y0210598D01*
X0385990Y0205898D01*
X0389561Y0205898D01*
X0389892Y0205987D01*
X0390188Y0206158D01*
X0390430Y0206400D01*
X0390601Y0206697D01*
X0390690Y0207027D01*
X0390690Y0210598D01*
X0385990Y0210598D01*
X0385990Y0211198D01*
X0390690Y0211198D01*
X0390690Y0214770D01*
X0390601Y0215100D01*
X0390430Y0215397D01*
X0390188Y0215639D01*
X0389892Y0215810D01*
X0389561Y0215898D01*
X0385990Y0215898D01*
X0385990Y0211198D01*
X0385390Y0211198D01*
X0385390Y0215898D01*
X0381819Y0215898D01*
X0381488Y0215810D01*
X0381192Y0215639D01*
X0381096Y0215543D01*
X0379315Y0217324D01*
X0376963Y0218298D01*
X0374417Y0218298D01*
X0372064Y0217324D01*
X0370264Y0215524D01*
X0370221Y0215419D01*
X0369315Y0216324D01*
X0366963Y0217298D01*
X0364417Y0217298D01*
X0362064Y0216324D01*
X0361159Y0215419D01*
X0361115Y0215524D01*
X0359315Y0217324D01*
X0356963Y0218298D01*
X0354417Y0218298D01*
X0352064Y0217324D01*
X0350264Y0215524D01*
X0349290Y0213171D01*
X0349290Y0210625D01*
X0350264Y0208273D01*
X0352064Y0206473D01*
X0354417Y0205498D01*
X0356963Y0205498D01*
X0359315Y0206473D01*
X0360221Y0207378D01*
X0360264Y0207273D01*
X0362064Y0205473D01*
X0364417Y0204498D01*
X0366963Y0204498D01*
X0369157Y0205407D02*
X0398069Y0205407D01*
X0398668Y0206006D02*
X0389924Y0206006D01*
X0390548Y0206604D02*
X0399266Y0206604D01*
X0399865Y0207203D02*
X0390690Y0207203D01*
X0390690Y0207801D02*
X0428406Y0207801D01*
X0428406Y0207203D02*
X0403011Y0207203D01*
X0403609Y0206604D02*
X0428406Y0206604D01*
X0428406Y0206006D02*
X0404208Y0206006D01*
X0404806Y0205407D02*
X0428406Y0205407D01*
X0428406Y0204809D02*
X0405405Y0204809D01*
X0406003Y0204210D02*
X0428406Y0204210D01*
X0428406Y0203612D02*
X0406602Y0203612D01*
X0407200Y0203013D02*
X0428406Y0203013D01*
X0428406Y0202415D02*
X0407799Y0202415D01*
X0408397Y0201816D02*
X0428406Y0201816D01*
X0428406Y0201218D02*
X0408996Y0201218D01*
X0409594Y0200619D02*
X0428406Y0200619D01*
X0428406Y0200021D02*
X0410193Y0200021D01*
X0410791Y0199422D02*
X0428406Y0199422D01*
X0428406Y0198824D02*
X0411390Y0198824D01*
X0411988Y0198225D02*
X0428406Y0198225D01*
X0428406Y0197627D02*
X0412587Y0197627D01*
X0413185Y0197028D02*
X0428406Y0197028D01*
X0428406Y0196430D02*
X0413784Y0196430D01*
X0414382Y0195831D02*
X0428406Y0195831D01*
X0428406Y0195233D02*
X0414981Y0195233D01*
X0415579Y0194634D02*
X0428406Y0194634D01*
X0428406Y0194036D02*
X0416178Y0194036D01*
X0416776Y0193437D02*
X0428406Y0193437D01*
X0428406Y0192839D02*
X0417375Y0192839D01*
X0417973Y0192240D02*
X0428406Y0192240D01*
X0428406Y0191642D02*
X0418572Y0191642D01*
X0419170Y0191043D02*
X0428406Y0191043D01*
X0428406Y0190445D02*
X0419769Y0190445D01*
X0420367Y0189846D02*
X0428406Y0189846D01*
X0428406Y0189248D02*
X0420966Y0189248D01*
X0421564Y0188649D02*
X0428406Y0188649D01*
X0428406Y0188050D02*
X0422163Y0188050D01*
X0422762Y0187452D02*
X0428406Y0187452D01*
X0428406Y0186853D02*
X0423360Y0186853D01*
X0423959Y0186255D02*
X0428406Y0186255D01*
X0428406Y0185656D02*
X0424557Y0185656D01*
X0425156Y0185058D02*
X0428406Y0185058D01*
X0428406Y0184459D02*
X0425754Y0184459D01*
X0426353Y0183861D02*
X0428406Y0183861D01*
X0428406Y0183262D02*
X0426951Y0183262D01*
X0427550Y0182664D02*
X0428406Y0182664D01*
X0428406Y0182065D02*
X0428148Y0182065D01*
X0432299Y0154534D02*
X0432569Y0154534D01*
X0432569Y0153935D02*
X0431700Y0153935D01*
X0431102Y0153337D02*
X0432569Y0153337D01*
X0432569Y0152738D02*
X0430503Y0152738D01*
X0429904Y0152140D02*
X0432569Y0152140D01*
X0432569Y0151541D02*
X0429306Y0151541D01*
X0428707Y0150943D02*
X0432569Y0150943D01*
X0432569Y0150344D02*
X0428109Y0150344D01*
X0428048Y0149746D02*
X0432569Y0149746D01*
X0432569Y0149147D02*
X0428048Y0149147D01*
X0428048Y0148549D02*
X0432569Y0148549D01*
X0432569Y0147950D02*
X0428048Y0147950D01*
X0428048Y0147352D02*
X0432569Y0147352D01*
X0432569Y0146753D02*
X0428048Y0146753D01*
X0428048Y0146155D02*
X0432569Y0146155D01*
X0432569Y0145556D02*
X0428048Y0145556D01*
X0428048Y0144958D02*
X0432569Y0144958D01*
X0432569Y0144359D02*
X0428048Y0144359D01*
X0428048Y0143761D02*
X0432569Y0143761D01*
X0432569Y0143162D02*
X0428048Y0143162D01*
X0428048Y0142564D02*
X0432569Y0142564D01*
X0432569Y0141965D02*
X0428048Y0141965D01*
X0428048Y0141367D02*
X0432569Y0141367D01*
X0432569Y0140768D02*
X0428048Y0140768D01*
X0428048Y0140170D02*
X0432569Y0140170D01*
X0432569Y0139571D02*
X0428048Y0139571D01*
X0428048Y0138973D02*
X0432569Y0138973D01*
X0432569Y0138374D02*
X0428196Y0138374D01*
X0428444Y0137776D02*
X0432549Y0137776D01*
X0432569Y0137177D02*
X0428547Y0137177D01*
X0428547Y0136579D02*
X0432579Y0136579D01*
X0432582Y0135980D02*
X0428547Y0135980D01*
X0428547Y0135381D02*
X0432585Y0135381D01*
X0432582Y0134783D02*
X0428547Y0134783D01*
X0428547Y0134184D02*
X0432496Y0134184D01*
X0432410Y0133586D02*
X0428547Y0133586D01*
X0428547Y0132987D02*
X0432324Y0132987D01*
X0432238Y0132389D02*
X0428332Y0132389D01*
X0428010Y0131790D02*
X0432152Y0131790D01*
X0432066Y0131192D02*
X0427412Y0131192D01*
X0431980Y0130593D02*
X0359298Y0130593D01*
X0359298Y0129995D02*
X0431894Y0129995D01*
X0431691Y0129396D02*
X0359298Y0129396D01*
X0359298Y0128798D02*
X0431480Y0128798D01*
X0431268Y0128199D02*
X0359298Y0128199D01*
X0359298Y0127601D02*
X0431056Y0127601D01*
X0430844Y0127002D02*
X0359180Y0127002D01*
X0358932Y0126404D02*
X0399406Y0126404D01*
X0398640Y0125805D02*
X0358570Y0125805D01*
X0357971Y0125207D02*
X0398229Y0125207D01*
X0397981Y0124608D02*
X0357373Y0124608D01*
X0357781Y0125016D02*
X0357781Y0125016D01*
X0356774Y0124010D02*
X0397950Y0124010D01*
X0397950Y0123411D02*
X0356176Y0123411D01*
X0355577Y0122813D02*
X0397950Y0122813D01*
X0397950Y0122214D02*
X0354979Y0122214D01*
X0354380Y0121616D02*
X0397950Y0121616D01*
X0397950Y0121017D02*
X0353430Y0121017D01*
X0350598Y0127733D02*
X0294987Y0127733D01*
X0294987Y0130009D01*
X0294576Y0131001D01*
X0293816Y0131761D01*
X0292824Y0132172D01*
X0288772Y0132172D01*
X0287780Y0131761D01*
X0287502Y0131483D01*
X0277414Y0131483D01*
X0279048Y0133118D01*
X0280023Y0135470D01*
X0280023Y0138016D01*
X0279971Y0138141D01*
X0280015Y0138186D01*
X0280548Y0139472D01*
X0280548Y0167783D01*
X0288498Y0175733D01*
X0296634Y0175733D01*
X0300073Y0172294D01*
X0299649Y0171870D01*
X0295902Y0175617D01*
X0295802Y0175518D01*
X0295284Y0174805D01*
X0294884Y0174019D01*
X0294611Y0173181D01*
X0294473Y0172310D01*
X0294473Y0171429D01*
X0294611Y0170558D01*
X0294884Y0169720D01*
X0295284Y0168934D01*
X0295802Y0168221D01*
X0295902Y0168122D01*
X0299649Y0171870D01*
X0300073Y0171445D01*
X0296326Y0167698D01*
X0296425Y0167598D01*
X0297138Y0167080D01*
X0297924Y0166680D01*
X0298762Y0166407D01*
X0299633Y0166270D01*
X0300514Y0166270D01*
X0301385Y0166407D01*
X0302223Y0166680D01*
X0303009Y0167080D01*
X0303722Y0167598D01*
X0303821Y0167698D01*
X0300074Y0171445D01*
X0300498Y0171870D01*
X0300074Y0172294D01*
X0303513Y0175733D01*
X0351609Y0175733D01*
X0351609Y0172207D01*
X0352020Y0171215D01*
X0352298Y0170937D01*
X0352298Y0129433D01*
X0350598Y0127733D01*
X0351065Y0128199D02*
X0294987Y0128199D01*
X0294987Y0128798D02*
X0351663Y0128798D01*
X0352262Y0129396D02*
X0294987Y0129396D01*
X0294987Y0129995D02*
X0352298Y0129995D01*
X0352298Y0130593D02*
X0294745Y0130593D01*
X0294386Y0131192D02*
X0352298Y0131192D01*
X0352298Y0131790D02*
X0293745Y0131790D01*
X0287851Y0131790D02*
X0277721Y0131790D01*
X0278320Y0132389D02*
X0352298Y0132389D01*
X0352298Y0132987D02*
X0278918Y0132987D01*
X0279242Y0133586D02*
X0352298Y0133586D01*
X0352298Y0134184D02*
X0279490Y0134184D01*
X0279738Y0134783D02*
X0352298Y0134783D01*
X0352298Y0135381D02*
X0279986Y0135381D01*
X0280023Y0135980D02*
X0352298Y0135980D01*
X0352298Y0136579D02*
X0280023Y0136579D01*
X0280023Y0137177D02*
X0352298Y0137177D01*
X0352298Y0137776D02*
X0280023Y0137776D01*
X0280093Y0138374D02*
X0352298Y0138374D01*
X0352298Y0138973D02*
X0280341Y0138973D01*
X0280548Y0139571D02*
X0352298Y0139571D01*
X0352298Y0140170D02*
X0280548Y0140170D01*
X0280548Y0140768D02*
X0352298Y0140768D01*
X0352298Y0141367D02*
X0280548Y0141367D01*
X0280548Y0141965D02*
X0352298Y0141965D01*
X0352298Y0142564D02*
X0280548Y0142564D01*
X0280548Y0143162D02*
X0352298Y0143162D01*
X0352298Y0143761D02*
X0280548Y0143761D01*
X0280548Y0144359D02*
X0352298Y0144359D01*
X0352298Y0144958D02*
X0280548Y0144958D01*
X0280548Y0145556D02*
X0352298Y0145556D01*
X0352298Y0146155D02*
X0280548Y0146155D01*
X0280548Y0146753D02*
X0352298Y0146753D01*
X0352298Y0147352D02*
X0280548Y0147352D01*
X0280548Y0147950D02*
X0352298Y0147950D01*
X0352298Y0148549D02*
X0280548Y0148549D01*
X0280548Y0149147D02*
X0352298Y0149147D01*
X0352298Y0149746D02*
X0280548Y0149746D01*
X0280548Y0150344D02*
X0352298Y0150344D01*
X0352298Y0150943D02*
X0280548Y0150943D01*
X0280548Y0151541D02*
X0352298Y0151541D01*
X0352298Y0152140D02*
X0280548Y0152140D01*
X0280548Y0152738D02*
X0352298Y0152738D01*
X0352298Y0153337D02*
X0280548Y0153337D01*
X0280548Y0153935D02*
X0352298Y0153935D01*
X0352298Y0154534D02*
X0280548Y0154534D01*
X0280548Y0155132D02*
X0352298Y0155132D01*
X0352298Y0155731D02*
X0280548Y0155731D01*
X0280548Y0156329D02*
X0352298Y0156329D01*
X0352298Y0156928D02*
X0280548Y0156928D01*
X0280548Y0157526D02*
X0352298Y0157526D01*
X0352298Y0158125D02*
X0280548Y0158125D01*
X0280548Y0158723D02*
X0352298Y0158723D01*
X0352298Y0159322D02*
X0280548Y0159322D01*
X0280548Y0159920D02*
X0352298Y0159920D01*
X0352298Y0160519D02*
X0280548Y0160519D01*
X0280548Y0161117D02*
X0352298Y0161117D01*
X0352298Y0161716D02*
X0280548Y0161716D01*
X0280548Y0162314D02*
X0352298Y0162314D01*
X0352298Y0162913D02*
X0280548Y0162913D01*
X0280548Y0163512D02*
X0352298Y0163512D01*
X0352298Y0164110D02*
X0280548Y0164110D01*
X0280548Y0164709D02*
X0352298Y0164709D01*
X0352298Y0165307D02*
X0280548Y0165307D01*
X0280548Y0165906D02*
X0352298Y0165906D01*
X0352298Y0166504D02*
X0301682Y0166504D01*
X0303040Y0167103D02*
X0352298Y0167103D01*
X0352298Y0167701D02*
X0303818Y0167701D01*
X0304245Y0168122D02*
X0304345Y0168221D01*
X0304863Y0168934D01*
X0305263Y0169720D01*
X0305536Y0170558D01*
X0305673Y0171429D01*
X0305673Y0172310D01*
X0305536Y0173181D01*
X0305263Y0174019D01*
X0304863Y0174805D01*
X0304345Y0175518D01*
X0304245Y0175617D01*
X0300498Y0171870D01*
X0304245Y0168122D01*
X0304402Y0168300D02*
X0352298Y0168300D01*
X0352298Y0168898D02*
X0304837Y0168898D01*
X0305149Y0169497D02*
X0352298Y0169497D01*
X0352298Y0170095D02*
X0305385Y0170095D01*
X0305557Y0170694D02*
X0352298Y0170694D01*
X0351988Y0171292D02*
X0305652Y0171292D01*
X0305673Y0171891D02*
X0351740Y0171891D01*
X0351609Y0172489D02*
X0305645Y0172489D01*
X0305550Y0173088D02*
X0351609Y0173088D01*
X0351609Y0173686D02*
X0305371Y0173686D01*
X0305128Y0174285D02*
X0351609Y0174285D01*
X0351609Y0174883D02*
X0304806Y0174883D01*
X0304371Y0175482D02*
X0351609Y0175482D01*
X0326206Y0192839D02*
X0300548Y0192839D01*
X0300548Y0193437D02*
X0324761Y0193437D01*
X0323686Y0194036D02*
X0300548Y0194036D01*
X0300548Y0194634D02*
X0323087Y0194634D01*
X0322489Y0195233D02*
X0300548Y0195233D01*
X0300548Y0195831D02*
X0321942Y0195831D01*
X0321694Y0196430D02*
X0300548Y0196430D01*
X0300548Y0197028D02*
X0321446Y0197028D01*
X0321198Y0197627D02*
X0300548Y0197627D01*
X0300548Y0198225D02*
X0320950Y0198225D01*
X0320912Y0198824D02*
X0300548Y0198824D01*
X0300548Y0199422D02*
X0320912Y0199422D01*
X0320912Y0200021D02*
X0300548Y0200021D01*
X0300548Y0200619D02*
X0320912Y0200619D01*
X0320961Y0201218D02*
X0300548Y0201218D01*
X0300548Y0201816D02*
X0321209Y0201816D01*
X0321457Y0202415D02*
X0300548Y0202415D01*
X0300548Y0203013D02*
X0321705Y0203013D01*
X0321952Y0203612D02*
X0300548Y0203612D01*
X0300548Y0204210D02*
X0322515Y0204210D01*
X0323113Y0204809D02*
X0300548Y0204809D01*
X0300548Y0205407D02*
X0323712Y0205407D01*
X0324824Y0206006D02*
X0311184Y0206006D01*
X0311151Y0205987D02*
X0311448Y0206158D01*
X0311690Y0206400D01*
X0311861Y0206697D01*
X0311950Y0207027D01*
X0311950Y0210598D01*
X0307250Y0210598D01*
X0307250Y0205898D01*
X0310821Y0205898D01*
X0311151Y0205987D01*
X0311808Y0206604D02*
X0326269Y0206604D01*
X0329556Y0206604D02*
X0351933Y0206604D01*
X0351334Y0207203D02*
X0311950Y0207203D01*
X0311950Y0207801D02*
X0350736Y0207801D01*
X0350212Y0208400D02*
X0311950Y0208400D01*
X0311950Y0208998D02*
X0349964Y0208998D01*
X0349716Y0209597D02*
X0311950Y0209597D01*
X0311950Y0210195D02*
X0349468Y0210195D01*
X0349290Y0210794D02*
X0307250Y0210794D01*
X0307250Y0211392D02*
X0306650Y0211392D01*
X0306650Y0211991D02*
X0307250Y0211991D01*
X0307250Y0212589D02*
X0306650Y0212589D01*
X0306650Y0213188D02*
X0307250Y0213188D01*
X0307250Y0213786D02*
X0306650Y0213786D01*
X0306650Y0214385D02*
X0307250Y0214385D01*
X0307250Y0214983D02*
X0306650Y0214983D01*
X0306650Y0215582D02*
X0307250Y0215582D01*
X0305794Y0216779D02*
X0351519Y0216779D01*
X0350921Y0216181D02*
X0305195Y0216181D01*
X0306392Y0217378D02*
X0352194Y0217378D01*
X0353638Y0217976D02*
X0306991Y0217976D01*
X0307589Y0218575D02*
X0428406Y0218575D01*
X0428406Y0219173D02*
X0308188Y0219173D01*
X0308786Y0219772D02*
X0428406Y0219772D01*
X0428406Y0220370D02*
X0309385Y0220370D01*
X0309983Y0220969D02*
X0428406Y0220969D01*
X0428406Y0221567D02*
X0310582Y0221567D01*
X0311180Y0222166D02*
X0317240Y0222166D01*
X0316175Y0222764D02*
X0311779Y0222764D01*
X0312377Y0223363D02*
X0315640Y0223363D01*
X0315392Y0223961D02*
X0312976Y0223961D01*
X0313574Y0224560D02*
X0315273Y0224560D01*
X0315273Y0225158D02*
X0314173Y0225158D01*
X0314771Y0225757D02*
X0315273Y0225757D01*
X0309660Y0230545D02*
X0234443Y0230545D01*
X0235106Y0231143D02*
X0310259Y0231143D01*
X0310857Y0231742D02*
X0235705Y0231742D01*
X0236303Y0232340D02*
X0311456Y0232340D01*
X0312054Y0232939D02*
X0236746Y0232939D01*
X0237092Y0233537D02*
X0312653Y0233537D01*
X0313251Y0234136D02*
X0237437Y0234136D01*
X0237783Y0234734D02*
X0313850Y0234734D01*
X0314448Y0235333D02*
X0238008Y0235333D01*
X0238168Y0235931D02*
X0315047Y0235931D01*
X0315645Y0236530D02*
X0238328Y0236530D01*
X0238489Y0237128D02*
X0316244Y0237128D01*
X0316673Y0237727D02*
X0238612Y0237727D01*
X0238612Y0238325D02*
X0316673Y0238325D01*
X0316673Y0238924D02*
X0238612Y0238924D01*
X0238612Y0239522D02*
X0320626Y0239522D01*
X0320626Y0239848D02*
X0316673Y0239848D01*
X0316673Y0241491D01*
X0316762Y0241821D01*
X0316933Y0242118D01*
X0317175Y0242360D01*
X0317471Y0242531D01*
X0317802Y0242620D01*
X0320626Y0242620D01*
X0320626Y0239848D01*
X0320626Y0240121D02*
X0321226Y0240121D01*
X0321226Y0240719D02*
X0320626Y0240719D01*
X0320626Y0241318D02*
X0321226Y0241318D01*
X0321226Y0241916D02*
X0320626Y0241916D01*
X0320626Y0242515D02*
X0321226Y0242515D01*
X0321226Y0239522D02*
X0334565Y0239522D01*
X0334565Y0238924D02*
X0325179Y0238924D01*
X0325179Y0238325D02*
X0334045Y0238325D01*
X0334565Y0240121D02*
X0325179Y0240121D01*
X0325179Y0240719D02*
X0334565Y0240719D01*
X0334565Y0241318D02*
X0325179Y0241318D01*
X0325035Y0241916D02*
X0334589Y0241916D01*
X0334837Y0242515D02*
X0324408Y0242515D01*
X0317444Y0242515D02*
X0238026Y0242515D01*
X0238186Y0241916D02*
X0316817Y0241916D01*
X0316673Y0241318D02*
X0238346Y0241318D01*
X0238507Y0240719D02*
X0316673Y0240719D01*
X0316673Y0240121D02*
X0238612Y0240121D01*
X0237822Y0243114D02*
X0335240Y0243114D01*
X0335985Y0243712D02*
X0237476Y0243712D01*
X0237130Y0244311D02*
X0419426Y0244311D01*
X0418182Y0244909D02*
X0236785Y0244909D01*
X0236371Y0245508D02*
X0416265Y0245508D01*
X0413949Y0246106D02*
X0235772Y0246106D01*
X0220647Y0246106D02*
X0127625Y0246106D01*
X0128223Y0245508D02*
X0220048Y0245508D01*
X0219634Y0244909D02*
X0128822Y0244909D01*
X0129420Y0244311D02*
X0219288Y0244311D01*
X0218943Y0243712D02*
X0141694Y0243712D01*
X0142439Y0243114D02*
X0218597Y0243114D01*
X0218393Y0242515D02*
X0142841Y0242515D01*
X0143089Y0241916D02*
X0218233Y0241916D01*
X0218073Y0241318D02*
X0143114Y0241318D01*
X0143114Y0240719D02*
X0217912Y0240719D01*
X0217807Y0240121D02*
X0143114Y0240121D01*
X0143114Y0239522D02*
X0217807Y0239522D01*
X0217807Y0238924D02*
X0143114Y0238924D01*
X0143114Y0238325D02*
X0217807Y0238325D01*
X0217807Y0237727D02*
X0143114Y0237727D01*
X0143068Y0237128D02*
X0217930Y0237128D01*
X0218091Y0236530D02*
X0142820Y0236530D01*
X0142388Y0235931D02*
X0218251Y0235931D01*
X0218411Y0235333D02*
X0186495Y0235333D01*
X0187083Y0234734D02*
X0218636Y0234734D01*
X0218982Y0234136D02*
X0187331Y0234136D01*
X0187487Y0233537D02*
X0219327Y0233537D01*
X0219673Y0232939D02*
X0187487Y0232939D01*
X0187487Y0232340D02*
X0220115Y0232340D01*
X0220714Y0231742D02*
X0187487Y0231742D01*
X0187487Y0231143D02*
X0221312Y0231143D01*
X0221976Y0230545D02*
X0187487Y0230545D01*
X0187487Y0229946D02*
X0223013Y0229946D01*
X0224049Y0229348D02*
X0187338Y0229348D01*
X0187090Y0228749D02*
X0210450Y0228749D01*
X0209005Y0228151D02*
X0186512Y0228151D01*
X0185344Y0227552D02*
X0208031Y0227552D01*
X0207432Y0226954D02*
X0149987Y0226954D01*
X0149987Y0227552D02*
X0181252Y0227552D01*
X0180084Y0228151D02*
X0149987Y0228151D01*
X0149987Y0226355D02*
X0206834Y0226355D01*
X0206427Y0225757D02*
X0149987Y0225757D01*
X0149987Y0225158D02*
X0206180Y0225158D01*
X0205932Y0224560D02*
X0149926Y0224560D01*
X0149678Y0223961D02*
X0205684Y0223961D01*
X0205589Y0223363D02*
X0149224Y0223363D01*
X0148355Y0222764D02*
X0205589Y0222764D01*
X0205589Y0222166D02*
X0141148Y0222166D01*
X0142212Y0222764D02*
X0143241Y0222764D01*
X0147469Y0217378D02*
X0095721Y0217378D01*
X0095851Y0217324D02*
X0093498Y0218298D01*
X0090952Y0218298D01*
X0088600Y0217324D01*
X0086800Y0215524D01*
X0086756Y0215419D01*
X0085851Y0216324D01*
X0083498Y0217298D01*
X0080952Y0217298D01*
X0078600Y0216324D01*
X0077694Y0215419D01*
X0077651Y0215524D01*
X0076015Y0217159D01*
X0084237Y0226294D01*
X0085324Y0226294D01*
X0086316Y0226705D01*
X0087076Y0227465D01*
X0087487Y0228457D01*
X0087487Y0232509D01*
X0087076Y0233501D01*
X0086316Y0234261D01*
X0085324Y0234672D01*
X0081272Y0234672D01*
X0080280Y0234261D01*
X0079520Y0233501D01*
X0079109Y0232509D01*
X0079109Y0231061D01*
X0069508Y0220393D01*
X0069081Y0219966D01*
X0069044Y0219878D01*
X0068981Y0219807D01*
X0068779Y0219237D01*
X0068548Y0218679D01*
X0068548Y0218584D01*
X0068516Y0218494D01*
X0068548Y0217891D01*
X0068548Y0217272D01*
X0066800Y0215524D01*
X0065825Y0213171D01*
X0065825Y0210625D01*
X0066800Y0208273D01*
X0068600Y0206473D01*
X0070952Y0205498D01*
X0073498Y0205498D01*
X0075851Y0206473D01*
X0076756Y0207378D01*
X0076800Y0207273D01*
X0078548Y0205525D01*
X0078548Y0202287D01*
X0079081Y0201000D01*
X0079637Y0200444D01*
X0078936Y0200444D01*
X0076584Y0199470D01*
X0074783Y0197670D01*
X0073809Y0195318D01*
X0073809Y0192771D01*
X0074783Y0190419D01*
X0076584Y0188619D01*
X0078936Y0187644D01*
X0081482Y0187644D01*
X0083834Y0188619D01*
X0085635Y0190419D01*
X0086609Y0192771D01*
X0086609Y0193472D01*
X0087565Y0192516D01*
X0088852Y0191983D01*
X0154348Y0191983D01*
X0157859Y0188472D01*
X0157859Y0187207D01*
X0158270Y0186215D01*
X0159030Y0185455D01*
X0160022Y0185044D01*
X0164074Y0185044D01*
X0165066Y0185455D01*
X0165826Y0186215D01*
X0166237Y0187207D01*
X0166237Y0191259D01*
X0165826Y0192251D01*
X0165066Y0193011D01*
X0164074Y0193422D01*
X0162809Y0193422D01*
X0158765Y0197466D01*
X0157781Y0198450D01*
X0156494Y0198983D01*
X0090998Y0198983D01*
X0085548Y0204433D01*
X0085548Y0205347D01*
X0085851Y0205473D01*
X0087651Y0207273D01*
X0087694Y0207378D01*
X0088600Y0206473D01*
X0090952Y0205498D01*
X0093498Y0205498D01*
X0095851Y0206473D01*
X0097225Y0207847D01*
X0097225Y0207027D01*
X0097314Y0206697D01*
X0097485Y0206400D01*
X0097727Y0206158D01*
X0098023Y0205987D01*
X0098354Y0205898D01*
X0101925Y0205898D01*
X0101925Y0210598D01*
X0102525Y0210598D01*
X0102525Y0205898D01*
X0106096Y0205898D01*
X0106427Y0205987D01*
X0106723Y0206158D01*
X0106965Y0206400D01*
X0107137Y0206697D01*
X0107225Y0207027D01*
X0107225Y0210598D01*
X0102525Y0210598D01*
X0102525Y0211198D01*
X0107225Y0211198D01*
X0107225Y0214770D01*
X0107137Y0215100D01*
X0106965Y0215397D01*
X0106723Y0215639D01*
X0106427Y0215810D01*
X0106096Y0215898D01*
X0102525Y0215898D01*
X0102525Y0211198D01*
X0101925Y0211198D01*
X0101925Y0215898D01*
X0098354Y0215898D01*
X0098023Y0215810D01*
X0097727Y0215639D01*
X0097631Y0215543D01*
X0095851Y0217324D01*
X0096396Y0216779D02*
X0146795Y0216779D01*
X0146196Y0216181D02*
X0096994Y0216181D01*
X0097593Y0215582D02*
X0097670Y0215582D01*
X0094277Y0217976D02*
X0148914Y0217976D01*
X0145598Y0215582D02*
X0106780Y0215582D01*
X0107168Y0214983D02*
X0145316Y0214983D01*
X0145068Y0214385D02*
X0107225Y0214385D01*
X0107225Y0213786D02*
X0144820Y0213786D01*
X0144572Y0213188D02*
X0107225Y0213188D01*
X0107225Y0212589D02*
X0144565Y0212589D01*
X0144565Y0211991D02*
X0107225Y0211991D01*
X0107225Y0211392D02*
X0144565Y0211392D01*
X0144565Y0210794D02*
X0102525Y0210794D01*
X0102525Y0211392D02*
X0101925Y0211392D01*
X0101925Y0211991D02*
X0102525Y0211991D01*
X0102525Y0212589D02*
X0101925Y0212589D01*
X0101925Y0213188D02*
X0102525Y0213188D01*
X0102525Y0213786D02*
X0101925Y0213786D01*
X0101925Y0214385D02*
X0102525Y0214385D01*
X0102525Y0214983D02*
X0101925Y0214983D01*
X0101925Y0215582D02*
X0102525Y0215582D01*
X0102525Y0210195D02*
X0101925Y0210195D01*
X0101925Y0209597D02*
X0102525Y0209597D01*
X0102525Y0208998D02*
X0101925Y0208998D01*
X0101925Y0208400D02*
X0102525Y0208400D01*
X0102525Y0207801D02*
X0101925Y0207801D01*
X0101925Y0207203D02*
X0102525Y0207203D01*
X0102525Y0206604D02*
X0101925Y0206604D01*
X0101925Y0206006D02*
X0102525Y0206006D01*
X0106460Y0206006D02*
X0148467Y0206006D01*
X0147208Y0206604D02*
X0107083Y0206604D01*
X0107225Y0207203D02*
X0146610Y0207203D01*
X0146011Y0207801D02*
X0107225Y0207801D01*
X0107225Y0208400D02*
X0145487Y0208400D01*
X0145239Y0208998D02*
X0107225Y0208998D01*
X0107225Y0209597D02*
X0144991Y0209597D01*
X0144743Y0210195D02*
X0107225Y0210195D01*
X0097991Y0206006D02*
X0094723Y0206006D01*
X0095982Y0206604D02*
X0097367Y0206604D01*
X0097225Y0207203D02*
X0096581Y0207203D01*
X0097179Y0207801D02*
X0097225Y0207801D01*
X0089727Y0206006D02*
X0086384Y0206006D01*
X0086982Y0206604D02*
X0088468Y0206604D01*
X0087870Y0207203D02*
X0087581Y0207203D01*
X0085692Y0205407D02*
X0157465Y0205407D01*
X0157488Y0204809D02*
X0085548Y0204809D01*
X0085771Y0204210D02*
X0157736Y0204210D01*
X0157984Y0203612D02*
X0086369Y0203612D01*
X0086968Y0203013D02*
X0158562Y0203013D01*
X0159161Y0202415D02*
X0087566Y0202415D01*
X0088165Y0201816D02*
X0159759Y0201816D01*
X0160358Y0201218D02*
X0088763Y0201218D01*
X0089362Y0200619D02*
X0160956Y0200619D01*
X0161555Y0200021D02*
X0089960Y0200021D01*
X0090559Y0199422D02*
X0162153Y0199422D01*
X0162752Y0198824D02*
X0156879Y0198824D01*
X0158006Y0198225D02*
X0163350Y0198225D01*
X0163949Y0197627D02*
X0158604Y0197627D01*
X0158765Y0197466D02*
X0158765Y0197466D01*
X0159203Y0197028D02*
X0164109Y0197028D01*
X0164109Y0196430D02*
X0159801Y0196430D01*
X0160400Y0195831D02*
X0164262Y0195831D01*
X0164510Y0195233D02*
X0160998Y0195233D01*
X0161597Y0194634D02*
X0165095Y0194634D01*
X0165239Y0192839D02*
X0192922Y0192839D01*
X0192254Y0193437D02*
X0162794Y0193437D01*
X0162195Y0194036D02*
X0191656Y0194036D01*
X0191211Y0194634D02*
X0171501Y0194634D01*
X0172086Y0195233D02*
X0190964Y0195233D01*
X0190716Y0195831D02*
X0172334Y0195831D01*
X0172487Y0196430D02*
X0190517Y0196430D01*
X0190517Y0197028D02*
X0172487Y0197028D01*
X0175523Y0197627D02*
X0190517Y0197627D01*
X0190517Y0198225D02*
X0176586Y0198225D01*
X0176420Y0205407D02*
X0186609Y0205407D01*
X0186609Y0206006D02*
X0185200Y0206006D01*
X0185823Y0206604D02*
X0186609Y0206604D01*
X0186609Y0207203D02*
X0185965Y0207203D01*
X0185965Y0207801D02*
X0186730Y0207801D01*
X0186978Y0208400D02*
X0185965Y0208400D01*
X0185965Y0208998D02*
X0187517Y0208998D01*
X0188591Y0209597D02*
X0185965Y0209597D01*
X0185965Y0210195D02*
X0190359Y0210195D01*
X0190359Y0210794D02*
X0181265Y0210794D01*
X0181265Y0211392D02*
X0180665Y0211392D01*
X0180665Y0211991D02*
X0181265Y0211991D01*
X0181265Y0212589D02*
X0180665Y0212589D01*
X0180665Y0213188D02*
X0181265Y0213188D01*
X0181265Y0213786D02*
X0180665Y0213786D01*
X0180665Y0214385D02*
X0181265Y0214385D01*
X0181265Y0214983D02*
X0180665Y0214983D01*
X0180665Y0215582D02*
X0181265Y0215582D01*
X0185520Y0215582D02*
X0218198Y0215582D01*
X0218217Y0216181D02*
X0213554Y0216181D01*
X0214999Y0216779D02*
X0217618Y0216779D01*
X0217020Y0217378D02*
X0215958Y0217378D01*
X0217950Y0214983D02*
X0185908Y0214983D01*
X0185965Y0214385D02*
X0217859Y0214385D01*
X0217859Y0213786D02*
X0185965Y0213786D01*
X0185965Y0213188D02*
X0191957Y0213188D01*
X0191108Y0212589D02*
X0185965Y0212589D01*
X0185965Y0211991D02*
X0190662Y0211991D01*
X0190414Y0211392D02*
X0185965Y0211392D01*
X0181265Y0210195D02*
X0180665Y0210195D01*
X0180665Y0209597D02*
X0181265Y0209597D01*
X0181265Y0208998D02*
X0180665Y0208998D01*
X0180665Y0208400D02*
X0181265Y0208400D01*
X0181265Y0207801D02*
X0180665Y0207801D01*
X0180665Y0207203D02*
X0181265Y0207203D01*
X0181265Y0206604D02*
X0180665Y0206604D01*
X0180665Y0206006D02*
X0181265Y0206006D01*
X0176731Y0206006D02*
X0173463Y0206006D01*
X0174722Y0206604D02*
X0176107Y0206604D01*
X0175965Y0207203D02*
X0175321Y0207203D01*
X0175919Y0207801D02*
X0175965Y0207801D01*
X0176333Y0215582D02*
X0176410Y0215582D01*
X0175734Y0216181D02*
X0210424Y0216181D01*
X0208979Y0216779D02*
X0175136Y0216779D01*
X0174462Y0217378D02*
X0208020Y0217378D01*
X0207421Y0217976D02*
X0173017Y0217976D01*
X0168914Y0217976D02*
X0153017Y0217976D01*
X0154462Y0217378D02*
X0167469Y0217378D01*
X0166795Y0216779D02*
X0163492Y0216779D01*
X0164734Y0216181D02*
X0166196Y0216181D01*
X0165598Y0215582D02*
X0165333Y0215582D01*
X0158438Y0216779D02*
X0155136Y0216779D01*
X0155734Y0216181D02*
X0157196Y0216181D01*
X0156598Y0215582D02*
X0156333Y0215582D01*
X0155610Y0207203D02*
X0155321Y0207203D01*
X0154722Y0206604D02*
X0156208Y0206604D01*
X0156807Y0206006D02*
X0153463Y0206006D01*
X0154690Y0191642D02*
X0086141Y0191642D01*
X0086389Y0192240D02*
X0088231Y0192240D01*
X0087243Y0192839D02*
X0086609Y0192839D01*
X0086609Y0193437D02*
X0086644Y0193437D01*
X0085893Y0191043D02*
X0155288Y0191043D01*
X0155887Y0190445D02*
X0085645Y0190445D01*
X0085062Y0189846D02*
X0156485Y0189846D01*
X0157084Y0189248D02*
X0084463Y0189248D01*
X0083865Y0188649D02*
X0157682Y0188649D01*
X0157859Y0188050D02*
X0082462Y0188050D01*
X0077956Y0188050D02*
X0029298Y0188050D01*
X0029298Y0187452D02*
X0157859Y0187452D01*
X0158005Y0186853D02*
X0029298Y0186853D01*
X0029298Y0186255D02*
X0158253Y0186255D01*
X0158828Y0185656D02*
X0029298Y0185656D01*
X0029298Y0185058D02*
X0159989Y0185058D01*
X0164107Y0185058D02*
X0191036Y0185058D01*
X0190788Y0185656D02*
X0165268Y0185656D01*
X0165843Y0186255D02*
X0190540Y0186255D01*
X0190517Y0186853D02*
X0166091Y0186853D01*
X0166237Y0187452D02*
X0190517Y0187452D01*
X0190517Y0188050D02*
X0166237Y0188050D01*
X0166237Y0188649D02*
X0190617Y0188649D01*
X0190865Y0189248D02*
X0166237Y0189248D01*
X0166237Y0189846D02*
X0191113Y0189846D01*
X0191418Y0190445D02*
X0166237Y0190445D01*
X0166237Y0191043D02*
X0192016Y0191043D01*
X0192615Y0191642D02*
X0166079Y0191642D01*
X0165831Y0192240D02*
X0193792Y0192240D01*
X0191284Y0184459D02*
X0029298Y0184459D01*
X0029298Y0183861D02*
X0191831Y0183861D01*
X0192429Y0183262D02*
X0071212Y0183262D01*
X0070921Y0183383D02*
X0068653Y0183383D01*
X0066558Y0182515D01*
X0064955Y0180912D01*
X0064087Y0178817D01*
X0064087Y0176549D01*
X0064955Y0174454D01*
X0070801Y0168608D01*
X0072896Y0167740D01*
X0075164Y0167740D01*
X0077259Y0168608D01*
X0078862Y0170211D01*
X0079730Y0172306D01*
X0079730Y0174574D01*
X0078862Y0176669D01*
X0073016Y0182515D01*
X0070921Y0183383D01*
X0072657Y0182664D02*
X0193344Y0182664D01*
X0193370Y0182065D02*
X0073466Y0182065D01*
X0074064Y0181467D02*
X0192440Y0181467D01*
X0191842Y0180868D02*
X0074663Y0180868D01*
X0075261Y0180270D02*
X0191288Y0180270D01*
X0191041Y0179671D02*
X0075860Y0179671D01*
X0076458Y0179073D02*
X0190793Y0179073D01*
X0190545Y0178474D02*
X0156902Y0178474D01*
X0157500Y0177876D02*
X0190517Y0177876D01*
X0190517Y0177277D02*
X0158099Y0177277D01*
X0158697Y0176679D02*
X0190517Y0176679D01*
X0190612Y0176080D02*
X0159296Y0176080D01*
X0159894Y0175482D02*
X0190860Y0175482D01*
X0191108Y0174883D02*
X0160493Y0174883D01*
X0161091Y0174285D02*
X0191407Y0174285D01*
X0192005Y0173686D02*
X0161106Y0173686D01*
X0161106Y0173088D02*
X0192604Y0173088D01*
X0192949Y0171891D02*
X0161106Y0171891D01*
X0161106Y0172489D02*
X0193765Y0172489D01*
X0192266Y0171292D02*
X0161106Y0171292D01*
X0149911Y0178474D02*
X0077057Y0178474D01*
X0077655Y0177876D02*
X0149312Y0177876D01*
X0148714Y0177277D02*
X0078254Y0177277D01*
X0078852Y0176679D02*
X0148115Y0176679D01*
X0147517Y0176080D02*
X0079106Y0176080D01*
X0079354Y0175482D02*
X0146918Y0175482D01*
X0146320Y0174883D02*
X0079602Y0174883D01*
X0079730Y0174285D02*
X0145721Y0174285D01*
X0145706Y0173686D02*
X0079730Y0173686D01*
X0079730Y0173088D02*
X0145706Y0173088D01*
X0145706Y0172489D02*
X0079730Y0172489D01*
X0079558Y0171891D02*
X0106570Y0171891D01*
X0107220Y0172160D02*
X0104868Y0171186D01*
X0103068Y0169386D01*
X0102093Y0167033D01*
X0102093Y0164487D01*
X0103068Y0162135D01*
X0104868Y0160335D01*
X0107220Y0159360D01*
X0109766Y0159360D01*
X0112119Y0160335D01*
X0113919Y0162135D01*
X0114893Y0164487D01*
X0114893Y0167033D01*
X0113919Y0169386D01*
X0112119Y0171186D01*
X0109766Y0172160D01*
X0107220Y0172160D01*
X0105125Y0171292D02*
X0079310Y0171292D01*
X0079062Y0170694D02*
X0104376Y0170694D01*
X0103777Y0170095D02*
X0078746Y0170095D01*
X0078147Y0169497D02*
X0103179Y0169497D01*
X0102866Y0168898D02*
X0077549Y0168898D01*
X0076514Y0168300D02*
X0102618Y0168300D01*
X0102370Y0167701D02*
X0062657Y0167701D01*
X0063255Y0167103D02*
X0102122Y0167103D01*
X0102093Y0166504D02*
X0063854Y0166504D01*
X0064452Y0165906D02*
X0102093Y0165906D01*
X0102093Y0165307D02*
X0065051Y0165307D01*
X0065649Y0164709D02*
X0085373Y0164709D01*
X0084660Y0164413D02*
X0083057Y0162810D01*
X0082189Y0160715D01*
X0082189Y0158447D01*
X0083057Y0156352D01*
X0088903Y0150506D01*
X0090998Y0149638D01*
X0093265Y0149638D01*
X0095360Y0150506D01*
X0096964Y0152109D01*
X0097832Y0154204D01*
X0097832Y0156472D01*
X0096964Y0158567D01*
X0091118Y0164413D01*
X0089023Y0165281D01*
X0086755Y0165281D01*
X0084660Y0164413D01*
X0084357Y0164110D02*
X0066248Y0164110D01*
X0066275Y0164083D02*
X0067143Y0161988D01*
X0067143Y0159720D01*
X0066275Y0157625D01*
X0064672Y0156021D01*
X0062577Y0155154D01*
X0060309Y0155154D01*
X0058214Y0156021D01*
X0052368Y0161868D01*
X0051501Y0163963D01*
X0051501Y0166230D01*
X0052368Y0168325D01*
X0053972Y0169929D01*
X0056067Y0170796D01*
X0058334Y0170796D01*
X0060429Y0169929D01*
X0066275Y0164083D01*
X0066512Y0163512D02*
X0083759Y0163512D01*
X0083160Y0162913D02*
X0066760Y0162913D01*
X0067008Y0162314D02*
X0082852Y0162314D01*
X0082604Y0161716D02*
X0067143Y0161716D01*
X0067143Y0161117D02*
X0082356Y0161117D01*
X0082189Y0160519D02*
X0067143Y0160519D01*
X0067143Y0159920D02*
X0082189Y0159920D01*
X0082189Y0159322D02*
X0066978Y0159322D01*
X0066730Y0158723D02*
X0082189Y0158723D01*
X0082322Y0158125D02*
X0066483Y0158125D01*
X0066177Y0157526D02*
X0082570Y0157526D01*
X0082818Y0156928D02*
X0065578Y0156928D01*
X0064980Y0156329D02*
X0083080Y0156329D01*
X0083678Y0155731D02*
X0063970Y0155731D01*
X0058916Y0155731D02*
X0029298Y0155731D01*
X0029298Y0156329D02*
X0057907Y0156329D01*
X0057308Y0156928D02*
X0029298Y0156928D01*
X0029298Y0157526D02*
X0056710Y0157526D01*
X0056111Y0158125D02*
X0029298Y0158125D01*
X0029298Y0158723D02*
X0055512Y0158723D01*
X0054914Y0159322D02*
X0029298Y0159322D01*
X0029298Y0159920D02*
X0054315Y0159920D01*
X0053717Y0160519D02*
X0029298Y0160519D01*
X0029298Y0161117D02*
X0053118Y0161117D01*
X0052520Y0161716D02*
X0029298Y0161716D01*
X0029298Y0162314D02*
X0052183Y0162314D01*
X0051935Y0162913D02*
X0029298Y0162913D01*
X0029298Y0163512D02*
X0051687Y0163512D01*
X0051501Y0164110D02*
X0029298Y0164110D01*
X0029298Y0164709D02*
X0051501Y0164709D01*
X0051501Y0165307D02*
X0029298Y0165307D01*
X0029298Y0165906D02*
X0051501Y0165906D01*
X0051614Y0166504D02*
X0029298Y0166504D01*
X0029298Y0167103D02*
X0051862Y0167103D01*
X0052110Y0167701D02*
X0029298Y0167701D01*
X0029298Y0168300D02*
X0052358Y0168300D01*
X0052941Y0168898D02*
X0029298Y0168898D01*
X0029298Y0169497D02*
X0053540Y0169497D01*
X0054374Y0170095D02*
X0029298Y0170095D01*
X0029298Y0170694D02*
X0055819Y0170694D01*
X0058582Y0170694D02*
X0068715Y0170694D01*
X0068117Y0171292D02*
X0029298Y0171292D01*
X0029298Y0171891D02*
X0067518Y0171891D01*
X0066920Y0172489D02*
X0029298Y0172489D01*
X0029298Y0173088D02*
X0066321Y0173088D01*
X0065723Y0173686D02*
X0029298Y0173686D01*
X0029298Y0174285D02*
X0065124Y0174285D01*
X0064777Y0174883D02*
X0029298Y0174883D01*
X0029298Y0175482D02*
X0064529Y0175482D01*
X0064281Y0176080D02*
X0029298Y0176080D01*
X0029298Y0176679D02*
X0064087Y0176679D01*
X0064087Y0177277D02*
X0029298Y0177277D01*
X0029298Y0177876D02*
X0064087Y0177876D01*
X0064087Y0178474D02*
X0029298Y0178474D01*
X0029298Y0179073D02*
X0064193Y0179073D01*
X0064441Y0179671D02*
X0029298Y0179671D01*
X0029298Y0180270D02*
X0064689Y0180270D01*
X0064937Y0180868D02*
X0029298Y0180868D01*
X0029298Y0181467D02*
X0065510Y0181467D01*
X0066109Y0182065D02*
X0029298Y0182065D01*
X0029298Y0182664D02*
X0066918Y0182664D01*
X0068363Y0183262D02*
X0029298Y0183262D01*
X0029298Y0188649D02*
X0076554Y0188649D01*
X0075955Y0189248D02*
X0029298Y0189248D01*
X0029298Y0189846D02*
X0075357Y0189846D01*
X0074773Y0190445D02*
X0029298Y0190445D01*
X0029298Y0191043D02*
X0074525Y0191043D01*
X0074277Y0191642D02*
X0029298Y0191642D01*
X0029298Y0192240D02*
X0074029Y0192240D01*
X0073809Y0192839D02*
X0029298Y0192839D01*
X0029298Y0193437D02*
X0073809Y0193437D01*
X0073809Y0194036D02*
X0029298Y0194036D01*
X0029298Y0194634D02*
X0073809Y0194634D01*
X0073809Y0195233D02*
X0029298Y0195233D01*
X0029298Y0195831D02*
X0074022Y0195831D01*
X0074270Y0196430D02*
X0029298Y0196430D01*
X0029298Y0197028D02*
X0074518Y0197028D01*
X0074766Y0197627D02*
X0029298Y0197627D01*
X0029298Y0198225D02*
X0075339Y0198225D01*
X0075937Y0198824D02*
X0029298Y0198824D01*
X0029298Y0199422D02*
X0076536Y0199422D01*
X0077913Y0200021D02*
X0029298Y0200021D01*
X0029298Y0200619D02*
X0079462Y0200619D01*
X0078991Y0201218D02*
X0029298Y0201218D01*
X0029298Y0201816D02*
X0078743Y0201816D01*
X0078548Y0202415D02*
X0029298Y0202415D01*
X0029298Y0203013D02*
X0078548Y0203013D01*
X0078548Y0203612D02*
X0029298Y0203612D01*
X0029298Y0204210D02*
X0078548Y0204210D01*
X0078548Y0204809D02*
X0029298Y0204809D01*
X0029298Y0205407D02*
X0078548Y0205407D01*
X0078067Y0206006D02*
X0074723Y0206006D01*
X0075982Y0206604D02*
X0077468Y0206604D01*
X0076870Y0207203D02*
X0076581Y0207203D01*
X0069727Y0206006D02*
X0029298Y0206006D01*
X0029298Y0206604D02*
X0068468Y0206604D01*
X0067870Y0207203D02*
X0029298Y0207203D01*
X0029298Y0207801D02*
X0067271Y0207801D01*
X0066747Y0208400D02*
X0029298Y0208400D01*
X0029298Y0208998D02*
X0066499Y0208998D01*
X0066251Y0209597D02*
X0029298Y0209597D01*
X0029298Y0210195D02*
X0066003Y0210195D01*
X0065825Y0210794D02*
X0029298Y0210794D01*
X0029298Y0211392D02*
X0065825Y0211392D01*
X0065825Y0211991D02*
X0029298Y0211991D01*
X0029298Y0212589D02*
X0065825Y0212589D01*
X0065832Y0213188D02*
X0029298Y0213188D01*
X0029298Y0213786D02*
X0066080Y0213786D01*
X0066328Y0214385D02*
X0029298Y0214385D01*
X0029298Y0214983D02*
X0066576Y0214983D01*
X0066858Y0215582D02*
X0029298Y0215582D01*
X0029298Y0216181D02*
X0067456Y0216181D01*
X0068055Y0216779D02*
X0029298Y0216779D01*
X0029298Y0217378D02*
X0068548Y0217378D01*
X0068544Y0217976D02*
X0029298Y0217976D01*
X0029298Y0218575D02*
X0068545Y0218575D01*
X0068753Y0219173D02*
X0029298Y0219173D01*
X0029298Y0219772D02*
X0068968Y0219772D01*
X0069485Y0220370D02*
X0029298Y0220370D01*
X0029298Y0220969D02*
X0070026Y0220969D01*
X0070565Y0221567D02*
X0029298Y0221567D01*
X0029298Y0222166D02*
X0071104Y0222166D01*
X0071642Y0222764D02*
X0029298Y0222764D01*
X0029298Y0223363D02*
X0072181Y0223363D01*
X0072720Y0223961D02*
X0029298Y0223961D01*
X0029298Y0224560D02*
X0073258Y0224560D01*
X0073797Y0225158D02*
X0029298Y0225158D01*
X0029298Y0225757D02*
X0074336Y0225757D01*
X0074874Y0226355D02*
X0029298Y0226355D01*
X0029298Y0226954D02*
X0075413Y0226954D01*
X0075952Y0227552D02*
X0029298Y0227552D01*
X0029665Y0228151D02*
X0076490Y0228151D01*
X0077029Y0228749D02*
X0030264Y0228749D01*
X0030862Y0229348D02*
X0077567Y0229348D01*
X0078106Y0229946D02*
X0031461Y0229946D01*
X0032059Y0230545D02*
X0078645Y0230545D01*
X0079109Y0231143D02*
X0032658Y0231143D01*
X0033257Y0231742D02*
X0079109Y0231742D01*
X0079109Y0232340D02*
X0033855Y0232340D01*
X0034454Y0232939D02*
X0079287Y0232939D01*
X0079556Y0233537D02*
X0035052Y0233537D01*
X0035651Y0234136D02*
X0080154Y0234136D01*
X0086442Y0234136D02*
X0129501Y0234136D01*
X0128903Y0233537D02*
X0087040Y0233537D01*
X0087309Y0232939D02*
X0128304Y0232939D01*
X0127706Y0232340D02*
X0087487Y0232340D01*
X0087487Y0231742D02*
X0127107Y0231742D01*
X0126509Y0231143D02*
X0087487Y0231143D01*
X0087487Y0230545D02*
X0113616Y0230545D01*
X0113018Y0229946D02*
X0087487Y0229946D01*
X0087487Y0229348D02*
X0112717Y0229348D01*
X0112517Y0228749D02*
X0087487Y0228749D01*
X0087360Y0228151D02*
X0112517Y0228151D01*
X0112517Y0227552D02*
X0087112Y0227552D01*
X0086565Y0226954D02*
X0112517Y0226954D01*
X0112517Y0226355D02*
X0085472Y0226355D01*
X0083753Y0225757D02*
X0112517Y0225757D01*
X0112517Y0225158D02*
X0083214Y0225158D01*
X0082676Y0224560D02*
X0112517Y0224560D01*
X0112636Y0223961D02*
X0082137Y0223961D01*
X0081598Y0223363D02*
X0112884Y0223363D01*
X0113419Y0222764D02*
X0081060Y0222764D01*
X0080521Y0222166D02*
X0114484Y0222166D01*
X0121856Y0222166D02*
X0133775Y0222166D01*
X0132710Y0222764D02*
X0122921Y0222764D01*
X0128308Y0223363D02*
X0132175Y0223363D01*
X0131927Y0223961D02*
X0129226Y0223961D01*
X0129824Y0224560D02*
X0131809Y0224560D01*
X0131809Y0225158D02*
X0130423Y0225158D01*
X0131021Y0225757D02*
X0131809Y0225757D01*
X0131809Y0226355D02*
X0131620Y0226355D01*
X0125910Y0230545D02*
X0122724Y0230545D01*
X0121494Y0236530D02*
X0127301Y0236530D01*
X0126703Y0237128D02*
X0122250Y0237128D01*
X0122423Y0237727D02*
X0126104Y0237727D01*
X0125506Y0238325D02*
X0122423Y0238325D01*
X0122423Y0238924D02*
X0124907Y0238924D01*
X0124309Y0239522D02*
X0118470Y0239522D01*
X0118470Y0238924D02*
X0117870Y0238924D01*
X0117870Y0239522D02*
X0041037Y0239522D01*
X0040439Y0238924D02*
X0113917Y0238924D01*
X0113917Y0238325D02*
X0039840Y0238325D01*
X0039242Y0237727D02*
X0113917Y0237727D01*
X0114090Y0237128D02*
X0038643Y0237128D01*
X0038045Y0236530D02*
X0114846Y0236530D01*
X0117870Y0236530D02*
X0118470Y0236530D01*
X0118470Y0237128D02*
X0117870Y0237128D01*
X0117870Y0237727D02*
X0118470Y0237727D01*
X0118470Y0238325D02*
X0117870Y0238325D01*
X0113917Y0240121D02*
X0041636Y0240121D01*
X0042234Y0240719D02*
X0113917Y0240719D01*
X0113917Y0241318D02*
X0042833Y0241318D01*
X0043431Y0241916D02*
X0114061Y0241916D01*
X0122423Y0241318D02*
X0122513Y0241318D01*
X0122423Y0240719D02*
X0123112Y0240719D01*
X0123710Y0240121D02*
X0122423Y0240121D01*
X0128373Y0235931D02*
X0037446Y0235931D01*
X0036848Y0235333D02*
X0133352Y0235333D01*
X0130148Y0234734D02*
X0036249Y0234734D01*
X0076212Y0217378D02*
X0088729Y0217378D01*
X0088055Y0216779D02*
X0084752Y0216779D01*
X0085994Y0216181D02*
X0087456Y0216181D01*
X0086858Y0215582D02*
X0086593Y0215582D01*
X0090174Y0217976D02*
X0076750Y0217976D01*
X0077289Y0218575D02*
X0206823Y0218575D01*
X0206423Y0219173D02*
X0077828Y0219173D01*
X0078366Y0219772D02*
X0206175Y0219772D01*
X0205927Y0220370D02*
X0078905Y0220370D01*
X0079444Y0220969D02*
X0205679Y0220969D01*
X0205589Y0221567D02*
X0079982Y0221567D01*
X0079698Y0216779D02*
X0076396Y0216779D01*
X0076994Y0216181D02*
X0078456Y0216181D01*
X0077858Y0215582D02*
X0077593Y0215582D01*
X0130019Y0243712D02*
X0133229Y0243712D01*
X0132484Y0243114D02*
X0130617Y0243114D01*
X0141570Y0235333D02*
X0180102Y0235333D01*
X0213528Y0228749D02*
X0226115Y0228749D01*
X0225449Y0226954D02*
X0227432Y0226954D01*
X0228031Y0227552D02*
X0224004Y0227552D01*
X0226144Y0226355D02*
X0226834Y0226355D01*
X0229005Y0228151D02*
X0214973Y0228151D01*
X0215947Y0227552D02*
X0219974Y0227552D01*
X0218529Y0226954D02*
X0216546Y0226954D01*
X0217144Y0226355D02*
X0217834Y0226355D01*
X0230303Y0228749D02*
X0230450Y0228749D01*
X0232370Y0229348D02*
X0308463Y0229348D01*
X0309061Y0229946D02*
X0233406Y0229946D01*
X0233528Y0228749D02*
X0307864Y0228749D01*
X0307266Y0228151D02*
X0234973Y0228151D01*
X0235947Y0227552D02*
X0306667Y0227552D01*
X0306069Y0226954D02*
X0236546Y0226954D01*
X0237144Y0226355D02*
X0237760Y0226355D01*
X0241689Y0226355D02*
X0242289Y0226355D01*
X0242289Y0225757D02*
X0241689Y0225757D01*
X0241689Y0225158D02*
X0242289Y0225158D01*
X0242289Y0224560D02*
X0241689Y0224560D01*
X0241689Y0223961D02*
X0242289Y0223961D01*
X0242289Y0223363D02*
X0241689Y0223363D01*
X0241689Y0222764D02*
X0242289Y0222764D01*
X0242289Y0222166D02*
X0241689Y0222166D01*
X0242289Y0221567D02*
X0300682Y0221567D01*
X0301281Y0222166D02*
X0246989Y0222166D01*
X0246989Y0222764D02*
X0301879Y0222764D01*
X0302478Y0223363D02*
X0246989Y0223363D01*
X0246989Y0223961D02*
X0303076Y0223961D01*
X0303675Y0224560D02*
X0246989Y0224560D01*
X0246989Y0225158D02*
X0304273Y0225158D01*
X0304872Y0225757D02*
X0246845Y0225757D01*
X0246218Y0226355D02*
X0305470Y0226355D01*
X0311504Y0215582D02*
X0350322Y0215582D01*
X0350040Y0214983D02*
X0311892Y0214983D01*
X0311950Y0214385D02*
X0349792Y0214385D01*
X0349545Y0213786D02*
X0311950Y0213786D01*
X0311950Y0213188D02*
X0349297Y0213188D01*
X0349290Y0212589D02*
X0311950Y0212589D01*
X0311950Y0211991D02*
X0349290Y0211991D01*
X0349290Y0211392D02*
X0311950Y0211392D01*
X0307250Y0210195D02*
X0306650Y0210195D01*
X0306650Y0209597D02*
X0307250Y0209597D01*
X0307250Y0208998D02*
X0306650Y0208998D01*
X0306650Y0208400D02*
X0307250Y0208400D01*
X0307250Y0207801D02*
X0306650Y0207801D01*
X0306650Y0207203D02*
X0307250Y0207203D01*
X0307250Y0206604D02*
X0306650Y0206604D01*
X0306650Y0206006D02*
X0307250Y0206006D01*
X0302715Y0206006D02*
X0300548Y0206006D01*
X0300706Y0206604D02*
X0302091Y0206604D01*
X0301950Y0207203D02*
X0301305Y0207203D01*
X0301903Y0207801D02*
X0301950Y0207801D01*
X0300548Y0192240D02*
X0311275Y0192240D01*
X0309946Y0191642D02*
X0300548Y0191642D01*
X0300548Y0191043D02*
X0309347Y0191043D01*
X0308749Y0190445D02*
X0300303Y0190445D01*
X0300055Y0189846D02*
X0308150Y0189846D01*
X0307849Y0189248D02*
X0299512Y0189248D01*
X0298914Y0188649D02*
X0307601Y0188649D01*
X0307353Y0188050D02*
X0298315Y0188050D01*
X0297717Y0187452D02*
X0307105Y0187452D01*
X0306993Y0186853D02*
X0297118Y0186853D01*
X0296520Y0186255D02*
X0306993Y0186255D01*
X0306993Y0185656D02*
X0295921Y0185656D01*
X0295323Y0185058D02*
X0306993Y0185058D01*
X0306993Y0184459D02*
X0294724Y0184459D01*
X0293375Y0183861D02*
X0307215Y0183861D01*
X0307463Y0183262D02*
X0264305Y0183262D01*
X0263390Y0182664D02*
X0271193Y0182664D01*
X0269894Y0182065D02*
X0263363Y0182065D01*
X0264294Y0181467D02*
X0269296Y0181467D01*
X0268697Y0180868D02*
X0264892Y0180868D01*
X0265445Y0180270D02*
X0268156Y0180270D01*
X0267909Y0179671D02*
X0265693Y0179671D01*
X0265941Y0179073D02*
X0267661Y0179073D01*
X0267413Y0178474D02*
X0266189Y0178474D01*
X0266217Y0177876D02*
X0267223Y0177876D01*
X0267223Y0177277D02*
X0266217Y0177277D01*
X0266217Y0176679D02*
X0267223Y0176679D01*
X0267223Y0176080D02*
X0266121Y0176080D01*
X0265874Y0175482D02*
X0267223Y0175482D01*
X0267466Y0174883D02*
X0265626Y0174883D01*
X0265327Y0174285D02*
X0267714Y0174285D01*
X0267962Y0173686D02*
X0264729Y0173686D01*
X0264130Y0173088D02*
X0268227Y0173088D01*
X0268826Y0172489D02*
X0262969Y0172489D01*
X0262072Y0171085D02*
X0261323Y0171234D01*
X0258667Y0171234D01*
X0258667Y0167659D01*
X0264817Y0167659D01*
X0264817Y0167741D01*
X0264668Y0168489D01*
X0264376Y0169194D01*
X0263951Y0169829D01*
X0263412Y0170369D01*
X0262777Y0170793D01*
X0262072Y0171085D01*
X0262926Y0170694D02*
X0269798Y0170694D01*
X0269798Y0171292D02*
X0246798Y0171292D01*
X0246798Y0170694D02*
X0253808Y0170694D01*
X0253957Y0170793D02*
X0253322Y0170369D01*
X0252782Y0169829D01*
X0252358Y0169194D01*
X0252066Y0168489D01*
X0251917Y0167741D01*
X0251917Y0167659D01*
X0258067Y0167659D01*
X0258067Y0171234D01*
X0255410Y0171234D01*
X0254662Y0171085D01*
X0253957Y0170793D01*
X0253048Y0170095D02*
X0246798Y0170095D01*
X0246798Y0169497D02*
X0252560Y0169497D01*
X0252236Y0168898D02*
X0246798Y0168898D01*
X0246798Y0168300D02*
X0252029Y0168300D01*
X0251917Y0167701D02*
X0246798Y0167701D01*
X0246798Y0167103D02*
X0258067Y0167103D01*
X0258067Y0167059D02*
X0251917Y0167059D01*
X0251917Y0166977D01*
X0252066Y0166229D01*
X0252358Y0165524D01*
X0252782Y0164889D01*
X0253322Y0164349D01*
X0253957Y0163925D01*
X0254662Y0163633D01*
X0255410Y0163484D01*
X0258067Y0163484D01*
X0258067Y0167059D01*
X0258667Y0167059D01*
X0258667Y0167659D01*
X0258067Y0167659D01*
X0258067Y0167059D01*
X0258067Y0166504D02*
X0258667Y0166504D01*
X0258667Y0167059D02*
X0258667Y0163484D01*
X0261323Y0163484D01*
X0262072Y0163633D01*
X0262777Y0163925D01*
X0263412Y0164349D01*
X0263951Y0164889D01*
X0264376Y0165524D01*
X0264668Y0166229D01*
X0264817Y0166977D01*
X0264817Y0167059D01*
X0258667Y0167059D01*
X0258667Y0167103D02*
X0269798Y0167103D01*
X0269798Y0167701D02*
X0264817Y0167701D01*
X0264705Y0168300D02*
X0269798Y0168300D01*
X0269798Y0168898D02*
X0264498Y0168898D01*
X0264174Y0169497D02*
X0269798Y0169497D01*
X0269798Y0170095D02*
X0263685Y0170095D01*
X0264722Y0166504D02*
X0269798Y0166504D01*
X0269798Y0165906D02*
X0264534Y0165906D01*
X0264231Y0165307D02*
X0269798Y0165307D01*
X0269798Y0164709D02*
X0263771Y0164709D01*
X0263054Y0164110D02*
X0269798Y0164110D01*
X0269798Y0163512D02*
X0261460Y0163512D01*
X0262762Y0162314D02*
X0269798Y0162314D01*
X0269798Y0161716D02*
X0264044Y0161716D01*
X0264643Y0161117D02*
X0269798Y0161117D01*
X0269798Y0160519D02*
X0265242Y0160519D01*
X0265590Y0159920D02*
X0269798Y0159920D01*
X0269798Y0159322D02*
X0265838Y0159322D01*
X0266086Y0158723D02*
X0269798Y0158723D01*
X0269798Y0158125D02*
X0266217Y0158125D01*
X0266217Y0157526D02*
X0269798Y0157526D01*
X0269798Y0156928D02*
X0266217Y0156928D01*
X0266217Y0156329D02*
X0269798Y0156329D01*
X0269798Y0155731D02*
X0265977Y0155731D01*
X0265729Y0155132D02*
X0269798Y0155132D01*
X0269798Y0154534D02*
X0265481Y0154534D01*
X0264978Y0153935D02*
X0269798Y0153935D01*
X0269798Y0153337D02*
X0264379Y0153337D01*
X0263570Y0152738D02*
X0269354Y0152738D01*
X0268755Y0152140D02*
X0263184Y0152140D01*
X0264219Y0151541D02*
X0268157Y0151541D01*
X0267558Y0150943D02*
X0264818Y0150943D01*
X0253550Y0152140D02*
X0246798Y0152140D01*
X0246798Y0152738D02*
X0253164Y0152738D01*
X0252355Y0153337D02*
X0246798Y0153337D01*
X0246798Y0153935D02*
X0251756Y0153935D01*
X0251253Y0154534D02*
X0246798Y0154534D01*
X0246798Y0155132D02*
X0251005Y0155132D01*
X0250757Y0155731D02*
X0246798Y0155731D01*
X0246798Y0156329D02*
X0250517Y0156329D01*
X0250517Y0156928D02*
X0246798Y0156928D01*
X0246798Y0157526D02*
X0250517Y0157526D01*
X0250517Y0158125D02*
X0246798Y0158125D01*
X0246798Y0158723D02*
X0250648Y0158723D01*
X0250896Y0159322D02*
X0246798Y0159322D01*
X0246798Y0159920D02*
X0251144Y0159920D01*
X0251492Y0160519D02*
X0246798Y0160519D01*
X0246798Y0161117D02*
X0252091Y0161117D01*
X0252689Y0161716D02*
X0246798Y0161716D01*
X0246798Y0162314D02*
X0253972Y0162314D01*
X0255273Y0163512D02*
X0246798Y0163512D01*
X0246798Y0164110D02*
X0253680Y0164110D01*
X0252963Y0164709D02*
X0246798Y0164709D01*
X0246798Y0165307D02*
X0252503Y0165307D01*
X0252200Y0165906D02*
X0246798Y0165906D01*
X0246798Y0166504D02*
X0252011Y0166504D01*
X0258067Y0165906D02*
X0258667Y0165906D01*
X0258667Y0165307D02*
X0258067Y0165307D01*
X0258067Y0164709D02*
X0258667Y0164709D01*
X0258667Y0164110D02*
X0258067Y0164110D01*
X0258067Y0163512D02*
X0258667Y0163512D01*
X0258667Y0167701D02*
X0258067Y0167701D01*
X0258067Y0168300D02*
X0258667Y0168300D01*
X0258667Y0168898D02*
X0258067Y0168898D01*
X0258067Y0169497D02*
X0258667Y0169497D01*
X0258667Y0170095D02*
X0258067Y0170095D01*
X0258067Y0170694D02*
X0258667Y0170694D01*
X0253765Y0172489D02*
X0246798Y0172489D01*
X0246798Y0171891D02*
X0269424Y0171891D01*
X0280023Y0177277D02*
X0280143Y0177277D01*
X0280023Y0177876D02*
X0280741Y0177876D01*
X0281340Y0178474D02*
X0279833Y0178474D01*
X0279585Y0179073D02*
X0281938Y0179073D01*
X0282537Y0179671D02*
X0279337Y0179671D01*
X0279089Y0180270D02*
X0283135Y0180270D01*
X0283734Y0180868D02*
X0278548Y0180868D01*
X0277950Y0181467D02*
X0284332Y0181467D01*
X0284931Y0182065D02*
X0277351Y0182065D01*
X0276052Y0182664D02*
X0286185Y0182664D01*
X0288246Y0175482D02*
X0295776Y0175482D01*
X0296037Y0175482D02*
X0296886Y0175482D01*
X0296636Y0174883D02*
X0297484Y0174883D01*
X0297234Y0174285D02*
X0298083Y0174285D01*
X0297833Y0173686D02*
X0298681Y0173686D01*
X0298431Y0173088D02*
X0299280Y0173088D01*
X0299030Y0172489D02*
X0299878Y0172489D01*
X0300269Y0172489D02*
X0301117Y0172489D01*
X0300867Y0173088D02*
X0301716Y0173088D01*
X0301466Y0173686D02*
X0302314Y0173686D01*
X0302064Y0174285D02*
X0302913Y0174285D01*
X0302663Y0174883D02*
X0303511Y0174883D01*
X0303261Y0175482D02*
X0304110Y0175482D01*
X0300519Y0171891D02*
X0300477Y0171891D01*
X0300227Y0171292D02*
X0301075Y0171292D01*
X0300825Y0170694D02*
X0301674Y0170694D01*
X0301424Y0170095D02*
X0302272Y0170095D01*
X0302022Y0169497D02*
X0302871Y0169497D01*
X0302621Y0168898D02*
X0303469Y0168898D01*
X0303219Y0168300D02*
X0304068Y0168300D01*
X0299920Y0171292D02*
X0299072Y0171292D01*
X0299322Y0170694D02*
X0298473Y0170694D01*
X0298723Y0170095D02*
X0297875Y0170095D01*
X0298125Y0169497D02*
X0297276Y0169497D01*
X0297526Y0168898D02*
X0296678Y0168898D01*
X0296928Y0168300D02*
X0296079Y0168300D01*
X0295745Y0168300D02*
X0281064Y0168300D01*
X0280548Y0167701D02*
X0296329Y0167701D01*
X0297107Y0167103D02*
X0280548Y0167103D01*
X0280548Y0166504D02*
X0298465Y0166504D01*
X0295310Y0168898D02*
X0281663Y0168898D01*
X0282261Y0169497D02*
X0294998Y0169497D01*
X0294762Y0170095D02*
X0282860Y0170095D01*
X0283458Y0170694D02*
X0294590Y0170694D01*
X0294495Y0171292D02*
X0284057Y0171292D01*
X0284655Y0171891D02*
X0294473Y0171891D01*
X0294502Y0172489D02*
X0285254Y0172489D01*
X0285852Y0173088D02*
X0294597Y0173088D01*
X0294776Y0173686D02*
X0286451Y0173686D01*
X0287049Y0174285D02*
X0295019Y0174285D01*
X0295341Y0174883D02*
X0287648Y0174883D01*
X0299628Y0171891D02*
X0299670Y0171891D01*
X0269798Y0162913D02*
X0246798Y0162913D01*
X0246798Y0173088D02*
X0252604Y0173088D01*
X0252005Y0173686D02*
X0246798Y0173686D01*
X0246798Y0174285D02*
X0251407Y0174285D01*
X0251108Y0174883D02*
X0246798Y0174883D01*
X0246798Y0175482D02*
X0250860Y0175482D01*
X0250612Y0176080D02*
X0246798Y0176080D01*
X0246798Y0176679D02*
X0250517Y0176679D01*
X0250517Y0177277D02*
X0246798Y0177277D01*
X0246798Y0177876D02*
X0250517Y0177876D01*
X0250545Y0178474D02*
X0246798Y0178474D01*
X0246798Y0179073D02*
X0250793Y0179073D01*
X0251041Y0179671D02*
X0246798Y0179671D01*
X0246798Y0180270D02*
X0251288Y0180270D01*
X0251842Y0180868D02*
X0246798Y0180868D01*
X0246798Y0181467D02*
X0252440Y0181467D01*
X0253370Y0182065D02*
X0246798Y0182065D01*
X0246798Y0182664D02*
X0253344Y0182664D01*
X0252429Y0183262D02*
X0246798Y0183262D01*
X0246798Y0183861D02*
X0251831Y0183861D01*
X0251284Y0184459D02*
X0246798Y0184459D01*
X0246798Y0185058D02*
X0251036Y0185058D01*
X0250788Y0185656D02*
X0246798Y0185656D01*
X0246798Y0186255D02*
X0250540Y0186255D01*
X0250517Y0186853D02*
X0246798Y0186853D01*
X0246798Y0187452D02*
X0250517Y0187452D01*
X0250517Y0188050D02*
X0246798Y0188050D01*
X0246798Y0188649D02*
X0250617Y0188649D01*
X0250865Y0189248D02*
X0246798Y0189248D01*
X0246798Y0189846D02*
X0251113Y0189846D01*
X0251418Y0190445D02*
X0250041Y0190445D01*
X0250654Y0191043D02*
X0252016Y0191043D01*
X0252615Y0191642D02*
X0251003Y0191642D01*
X0251237Y0192240D02*
X0253792Y0192240D01*
X0252922Y0192839D02*
X0251237Y0192839D01*
X0251237Y0193437D02*
X0252254Y0193437D01*
X0263553Y0213188D02*
X0236237Y0213188D01*
X0236237Y0213786D02*
X0264152Y0213786D01*
X0264750Y0214385D02*
X0236237Y0214385D01*
X0236146Y0214983D02*
X0265349Y0214983D01*
X0265947Y0215582D02*
X0235899Y0215582D01*
X0235548Y0216181D02*
X0266546Y0216181D01*
X0267144Y0216779D02*
X0246547Y0216779D01*
X0246932Y0217378D02*
X0267743Y0217378D01*
X0268341Y0217976D02*
X0246989Y0217976D01*
X0246989Y0218575D02*
X0268940Y0218575D01*
X0269538Y0219173D02*
X0246989Y0219173D01*
X0246989Y0219772D02*
X0270137Y0219772D01*
X0270735Y0220370D02*
X0246989Y0220370D01*
X0246989Y0220969D02*
X0271360Y0220969D01*
X0242289Y0220969D02*
X0241689Y0220969D01*
X0241689Y0220370D02*
X0242289Y0220370D01*
X0242289Y0219772D02*
X0241689Y0219772D01*
X0241689Y0219173D02*
X0242289Y0219173D01*
X0242289Y0218575D02*
X0241689Y0218575D01*
X0241689Y0217976D02*
X0242289Y0217976D01*
X0242289Y0217378D02*
X0241689Y0217378D01*
X0241689Y0216779D02*
X0242289Y0216779D01*
X0237431Y0216779D02*
X0235489Y0216779D01*
X0235958Y0217378D02*
X0237045Y0217378D01*
X0236989Y0217976D02*
X0236557Y0217976D01*
X0217859Y0213188D02*
X0197139Y0213188D01*
X0145706Y0171891D02*
X0110417Y0171891D01*
X0111862Y0171292D02*
X0145706Y0171292D01*
X0145706Y0170694D02*
X0112611Y0170694D01*
X0113209Y0170095D02*
X0145706Y0170095D01*
X0145706Y0169497D02*
X0113808Y0169497D01*
X0114121Y0168898D02*
X0145706Y0168898D01*
X0145706Y0168300D02*
X0114369Y0168300D01*
X0114617Y0167701D02*
X0145896Y0167701D01*
X0146495Y0167103D02*
X0114865Y0167103D01*
X0114893Y0166504D02*
X0147093Y0166504D01*
X0147692Y0165906D02*
X0114893Y0165906D01*
X0114893Y0165307D02*
X0148290Y0165307D01*
X0148889Y0164709D02*
X0114893Y0164709D01*
X0114737Y0164110D02*
X0149487Y0164110D01*
X0150086Y0163512D02*
X0114489Y0163512D01*
X0114241Y0162913D02*
X0192778Y0162913D01*
X0192180Y0163512D02*
X0156727Y0163512D01*
X0156629Y0149147D02*
X0172012Y0149147D01*
X0171414Y0148549D02*
X0157227Y0148549D01*
X0157826Y0147950D02*
X0170815Y0147950D01*
X0170217Y0147352D02*
X0158424Y0147352D01*
X0159023Y0146753D02*
X0169618Y0146753D01*
X0169020Y0146155D02*
X0159621Y0146155D01*
X0160220Y0145556D02*
X0168421Y0145556D01*
X0172611Y0149746D02*
X0093525Y0149746D01*
X0094970Y0150344D02*
X0173235Y0150344D01*
X0190517Y0156329D02*
X0097832Y0156329D01*
X0097832Y0155731D02*
X0190757Y0155731D01*
X0191005Y0155132D02*
X0097832Y0155132D01*
X0097832Y0154534D02*
X0191253Y0154534D01*
X0191756Y0153935D02*
X0097720Y0153935D01*
X0097472Y0153337D02*
X0192355Y0153337D01*
X0193164Y0152738D02*
X0097224Y0152738D01*
X0096976Y0152140D02*
X0193550Y0152140D01*
X0192515Y0151541D02*
X0096396Y0151541D01*
X0095797Y0150943D02*
X0191916Y0150943D01*
X0190517Y0156928D02*
X0097643Y0156928D01*
X0097395Y0157526D02*
X0190517Y0157526D01*
X0190517Y0158125D02*
X0097147Y0158125D01*
X0096808Y0158723D02*
X0190648Y0158723D01*
X0190896Y0159322D02*
X0096209Y0159322D01*
X0095611Y0159920D02*
X0105868Y0159920D01*
X0104684Y0160519D02*
X0095012Y0160519D01*
X0094413Y0161117D02*
X0104085Y0161117D01*
X0103487Y0161716D02*
X0093815Y0161716D01*
X0093216Y0162314D02*
X0102993Y0162314D01*
X0102745Y0162913D02*
X0092618Y0162913D01*
X0092019Y0163512D02*
X0102497Y0163512D01*
X0102250Y0164110D02*
X0091421Y0164110D01*
X0090405Y0164709D02*
X0102093Y0164709D01*
X0111119Y0159920D02*
X0191144Y0159920D01*
X0191492Y0160519D02*
X0112303Y0160519D01*
X0112902Y0161117D02*
X0192091Y0161117D01*
X0192689Y0161716D02*
X0113500Y0161716D01*
X0113993Y0162314D02*
X0193972Y0162314D01*
X0150184Y0149147D02*
X0079231Y0149147D01*
X0079829Y0148549D02*
X0149585Y0148549D01*
X0148987Y0147950D02*
X0080077Y0147950D01*
X0080252Y0148126D02*
X0078104Y0150274D01*
X0077556Y0150672D01*
X0076953Y0150979D01*
X0076309Y0151189D01*
X0075641Y0151294D01*
X0074964Y0151294D01*
X0074296Y0151189D01*
X0073652Y0150979D01*
X0073049Y0150672D01*
X0072501Y0150274D01*
X0072474Y0150247D01*
X0077424Y0145297D01*
X0080252Y0148126D01*
X0080677Y0147702D02*
X0077848Y0144873D01*
X0082798Y0139923D01*
X0082825Y0139951D01*
X0083223Y0140498D01*
X0083530Y0141101D01*
X0083739Y0141745D01*
X0083845Y0142413D01*
X0083845Y0143090D01*
X0083739Y0143759D01*
X0083530Y0144402D01*
X0083223Y0145005D01*
X0082825Y0145553D01*
X0080677Y0147702D01*
X0081026Y0147352D02*
X0148388Y0147352D01*
X0147790Y0146753D02*
X0081625Y0146753D01*
X0082223Y0146155D02*
X0147191Y0146155D01*
X0146593Y0145556D02*
X0082822Y0145556D01*
X0083247Y0144958D02*
X0145994Y0144958D01*
X0145706Y0144359D02*
X0083544Y0144359D01*
X0083739Y0143761D02*
X0145706Y0143761D01*
X0145706Y0143162D02*
X0083834Y0143162D01*
X0083845Y0142564D02*
X0145706Y0142564D01*
X0145706Y0141965D02*
X0083774Y0141965D01*
X0083616Y0141367D02*
X0145706Y0141367D01*
X0145706Y0140768D02*
X0083360Y0140768D01*
X0082984Y0140170D02*
X0145706Y0140170D01*
X0145706Y0139571D02*
X0082302Y0139571D01*
X0082374Y0139499D02*
X0077424Y0144449D01*
X0077848Y0144873D01*
X0077424Y0145297D01*
X0077000Y0144873D01*
X0077424Y0144449D01*
X0074595Y0141620D01*
X0076744Y0139472D01*
X0077291Y0139074D01*
X0077895Y0138767D01*
X0078538Y0138558D01*
X0079207Y0138452D01*
X0079884Y0138452D01*
X0080552Y0138558D01*
X0081196Y0138767D01*
X0081799Y0139074D01*
X0082346Y0139472D01*
X0082374Y0139499D01*
X0082552Y0140170D02*
X0081703Y0140170D01*
X0081953Y0140768D02*
X0081105Y0140768D01*
X0081355Y0141367D02*
X0080506Y0141367D01*
X0080756Y0141965D02*
X0079908Y0141965D01*
X0080158Y0142564D02*
X0079309Y0142564D01*
X0079559Y0143162D02*
X0078711Y0143162D01*
X0078961Y0143761D02*
X0078112Y0143761D01*
X0078362Y0144359D02*
X0077514Y0144359D01*
X0077334Y0144359D02*
X0076486Y0144359D01*
X0076736Y0143761D02*
X0075887Y0143761D01*
X0076137Y0143162D02*
X0075289Y0143162D01*
X0075539Y0142564D02*
X0074690Y0142564D01*
X0074940Y0141965D02*
X0029298Y0141965D01*
X0029298Y0141367D02*
X0074849Y0141367D01*
X0075448Y0140768D02*
X0029298Y0140768D01*
X0029298Y0140170D02*
X0076046Y0140170D01*
X0076645Y0139571D02*
X0056590Y0139571D01*
X0057603Y0138973D02*
X0077491Y0138973D01*
X0081600Y0138973D02*
X0145706Y0138973D01*
X0145706Y0138374D02*
X0058117Y0138374D01*
X0058365Y0137776D02*
X0146222Y0137776D01*
X0165738Y0130593D02*
X0030106Y0130593D01*
X0030704Y0129995D02*
X0166336Y0129995D01*
X0166935Y0129396D02*
X0031303Y0129396D01*
X0031901Y0128798D02*
X0167533Y0128798D01*
X0168132Y0128199D02*
X0032500Y0128199D01*
X0033098Y0127601D02*
X0168548Y0127601D01*
X0168548Y0127002D02*
X0033697Y0127002D01*
X0037722Y0126404D02*
X0048619Y0126404D01*
X0048334Y0126286D02*
X0047574Y0125526D01*
X0047163Y0124534D01*
X0047163Y0119916D01*
X0047574Y0118924D01*
X0048334Y0118165D01*
X0049326Y0117754D01*
X0056306Y0117754D01*
X0057298Y0118165D01*
X0057859Y0118725D01*
X0058266Y0118725D01*
X0058270Y0118715D01*
X0059030Y0117955D01*
X0060022Y0117544D01*
X0064074Y0117544D01*
X0065066Y0117955D01*
X0065826Y0118715D01*
X0066237Y0119707D01*
X0066237Y0123759D01*
X0065826Y0124751D01*
X0065066Y0125511D01*
X0064074Y0125922D01*
X0060022Y0125922D01*
X0059547Y0125725D01*
X0057859Y0125725D01*
X0057298Y0126286D01*
X0056306Y0126697D01*
X0049326Y0126697D01*
X0048334Y0126286D01*
X0047853Y0125805D02*
X0038487Y0125805D01*
X0038898Y0125207D02*
X0047442Y0125207D01*
X0047194Y0124608D02*
X0039146Y0124608D01*
X0039177Y0124010D02*
X0047163Y0124010D01*
X0047163Y0123411D02*
X0039177Y0123411D01*
X0039177Y0122813D02*
X0047163Y0122813D01*
X0047163Y0122214D02*
X0039177Y0122214D01*
X0039177Y0121616D02*
X0047163Y0121616D01*
X0047163Y0121017D02*
X0039177Y0121017D01*
X0039177Y0120419D02*
X0047163Y0120419D01*
X0047203Y0119820D02*
X0039137Y0119820D01*
X0038889Y0119222D02*
X0047451Y0119222D01*
X0047875Y0118623D02*
X0038465Y0118623D01*
X0037669Y0118025D02*
X0048671Y0118025D01*
X0056960Y0118025D02*
X0058960Y0118025D01*
X0058362Y0118623D02*
X0057756Y0118623D01*
X0065136Y0118025D02*
X0168548Y0118025D01*
X0168548Y0118623D02*
X0065734Y0118623D01*
X0066036Y0119222D02*
X0168548Y0119222D01*
X0168548Y0119820D02*
X0066237Y0119820D01*
X0066237Y0120419D02*
X0168548Y0120419D01*
X0168548Y0121017D02*
X0066237Y0121017D01*
X0066237Y0121616D02*
X0168548Y0121616D01*
X0168548Y0122214D02*
X0066237Y0122214D01*
X0066237Y0122813D02*
X0168548Y0122813D01*
X0168548Y0123411D02*
X0066237Y0123411D01*
X0066133Y0124010D02*
X0168548Y0124010D01*
X0168548Y0124608D02*
X0065885Y0124608D01*
X0065371Y0125207D02*
X0168548Y0125207D01*
X0168548Y0125805D02*
X0064356Y0125805D01*
X0059740Y0125805D02*
X0057778Y0125805D01*
X0057013Y0126404D02*
X0168548Y0126404D01*
X0168548Y0117426D02*
X0032018Y0117426D01*
X0032628Y0116828D02*
X0168548Y0116828D01*
X0168548Y0116229D02*
X0033488Y0116229D01*
X0034347Y0115631D02*
X0168548Y0115631D01*
X0168548Y0115032D02*
X0152387Y0115032D01*
X0153278Y0114434D02*
X0168548Y0114434D01*
X0168548Y0113835D02*
X0153846Y0113835D01*
X0154414Y0113237D02*
X0168548Y0113237D01*
X0168548Y0112638D02*
X0154982Y0112638D01*
X0155550Y0112040D02*
X0168548Y0112040D01*
X0168548Y0111441D02*
X0156118Y0111441D01*
X0156686Y0110843D02*
X0168548Y0110843D01*
X0168548Y0110244D02*
X0157254Y0110244D01*
X0157822Y0109645D02*
X0168548Y0109645D01*
X0168548Y0109047D02*
X0158390Y0109047D01*
X0158852Y0108448D02*
X0168548Y0108448D01*
X0168548Y0107850D02*
X0159082Y0107850D01*
X0159155Y0107251D02*
X0168548Y0107251D01*
X0168548Y0106653D02*
X0159140Y0106653D01*
X0160333Y0106054D02*
X0168548Y0106054D01*
X0168548Y0105456D02*
X0161750Y0105456D01*
X0162349Y0104857D02*
X0168548Y0104857D01*
X0168548Y0104259D02*
X0162947Y0104259D01*
X0163537Y0103660D02*
X0168548Y0103660D01*
X0168548Y0103062D02*
X0163785Y0103062D01*
X0164033Y0102463D02*
X0168548Y0102463D01*
X0168548Y0101865D02*
X0164280Y0101865D01*
X0164505Y0101266D02*
X0168548Y0101266D01*
X0168548Y0100668D02*
X0164505Y0100668D01*
X0164505Y0100069D02*
X0168548Y0100069D01*
X0168548Y0099471D02*
X0164505Y0099471D01*
X0167044Y0098872D02*
X0168548Y0098872D01*
X0168548Y0098274D02*
X0168489Y0098274D01*
X0169940Y0088698D02*
X0170134Y0088698D01*
X0170732Y0088099D02*
X0169342Y0088099D01*
X0168743Y0087501D02*
X0171331Y0087501D01*
X0171929Y0086902D02*
X0167482Y0086902D01*
X0162495Y0086902D02*
X0119667Y0086902D01*
X0119054Y0087501D02*
X0161233Y0087501D01*
X0160635Y0088099D02*
X0145210Y0088099D01*
X0145809Y0088698D02*
X0160036Y0088698D01*
X0159511Y0089296D02*
X0146067Y0089296D01*
X0138886Y0088099D02*
X0123530Y0088099D01*
X0125597Y0088698D02*
X0138287Y0088698D01*
X0138029Y0089296D02*
X0126634Y0089296D01*
X0127670Y0089895D02*
X0137859Y0089895D01*
X0137859Y0090493D02*
X0128334Y0090493D01*
X0128933Y0091092D02*
X0137859Y0091092D01*
X0137859Y0091690D02*
X0129531Y0091690D01*
X0129974Y0092289D02*
X0137859Y0092289D01*
X0137859Y0092887D02*
X0130320Y0092887D01*
X0130665Y0093486D02*
X0137859Y0093486D01*
X0137994Y0094084D02*
X0131011Y0094084D01*
X0131236Y0094683D02*
X0138242Y0094683D01*
X0138800Y0095281D02*
X0131396Y0095281D01*
X0131556Y0095880D02*
X0139920Y0095880D01*
X0131840Y0097077D02*
X0152409Y0097077D01*
X0152161Y0097675D02*
X0131840Y0097675D01*
X0131840Y0098274D02*
X0151913Y0098274D01*
X0151705Y0098872D02*
X0131840Y0098872D01*
X0131840Y0099471D02*
X0150291Y0099471D01*
X0149264Y0100069D02*
X0131735Y0100069D01*
X0131575Y0100668D02*
X0148696Y0100668D01*
X0148128Y0101266D02*
X0131414Y0101266D01*
X0131254Y0101865D02*
X0147560Y0101865D01*
X0146992Y0102463D02*
X0131050Y0102463D01*
X0130705Y0103062D02*
X0146424Y0103062D01*
X0145856Y0103660D02*
X0130359Y0103660D01*
X0130014Y0104259D02*
X0145288Y0104259D01*
X0144720Y0104857D02*
X0129599Y0104857D01*
X0129001Y0105456D02*
X0144152Y0105456D01*
X0143631Y0106054D02*
X0128402Y0106054D01*
X0127788Y0106653D02*
X0143401Y0106653D01*
X0143285Y0107251D02*
X0126752Y0107251D01*
X0125715Y0107850D02*
X0143300Y0107850D01*
X0143484Y0108448D02*
X0123784Y0108448D01*
X0119091Y0108448D02*
X0090036Y0108448D01*
X0091878Y0107850D02*
X0117160Y0107850D01*
X0116124Y0107251D02*
X0093720Y0107251D01*
X0095272Y0106653D02*
X0115087Y0106653D01*
X0114473Y0106054D02*
X0096447Y0106054D01*
X0097622Y0105456D02*
X0113875Y0105456D01*
X0113276Y0104857D02*
X0098797Y0104857D01*
X0099972Y0104259D02*
X0112862Y0104259D01*
X0112516Y0103660D02*
X0101147Y0103660D01*
X0102322Y0103062D02*
X0112171Y0103062D01*
X0111825Y0102463D02*
X0103205Y0102463D01*
X0102519Y0102962D02*
X0102519Y0102962D01*
X0104029Y0101865D02*
X0111622Y0101865D01*
X0111461Y0101266D02*
X0104853Y0101266D01*
X0105677Y0100668D02*
X0111301Y0100668D01*
X0111140Y0100069D02*
X0106501Y0100069D01*
X0107325Y0099471D02*
X0111035Y0099471D01*
X0111035Y0098872D02*
X0108149Y0098872D01*
X0108973Y0098274D02*
X0111035Y0098274D01*
X0111035Y0097675D02*
X0109733Y0097675D01*
X0109564Y0097845D02*
X0109564Y0097845D01*
X0110332Y0097077D02*
X0111035Y0097077D01*
X0110931Y0096478D02*
X0111159Y0096478D01*
X0118440Y0088099D02*
X0119346Y0088099D01*
X0120281Y0086304D02*
X0172528Y0086304D01*
X0173126Y0085705D02*
X0120895Y0085705D01*
X0121508Y0085107D02*
X0173725Y0085107D01*
X0174323Y0084508D02*
X0122122Y0084508D01*
X0122735Y0083910D02*
X0175604Y0083910D01*
X0190565Y0078523D02*
X0128257Y0078523D01*
X0128870Y0077924D02*
X0190517Y0077924D01*
X0190517Y0077326D02*
X0129484Y0077326D01*
X0130097Y0076727D02*
X0190517Y0076727D01*
X0190592Y0076129D02*
X0130711Y0076129D01*
X0131324Y0075530D02*
X0190840Y0075530D01*
X0191088Y0074932D02*
X0131938Y0074932D01*
X0132552Y0074333D02*
X0191358Y0074333D01*
X0191957Y0073735D02*
X0133165Y0073735D01*
X0133779Y0073136D02*
X0192555Y0073136D01*
X0193648Y0072538D02*
X0134392Y0072538D01*
X0135006Y0071939D02*
X0193066Y0071939D01*
X0192314Y0071341D02*
X0135619Y0071341D01*
X0136233Y0070742D02*
X0191716Y0070742D01*
X0191236Y0070144D02*
X0136846Y0070144D01*
X0137460Y0069545D02*
X0190988Y0069545D01*
X0190740Y0068947D02*
X0138073Y0068947D01*
X0138687Y0068348D02*
X0190517Y0068348D01*
X0190517Y0067750D02*
X0166962Y0067750D01*
X0168407Y0067151D02*
X0190517Y0067151D01*
X0190517Y0066553D02*
X0169205Y0066553D01*
X0169803Y0065954D02*
X0190665Y0065954D01*
X0190913Y0065356D02*
X0170402Y0065356D01*
X0170735Y0064757D02*
X0191160Y0064757D01*
X0191533Y0064159D02*
X0170983Y0064159D01*
X0171231Y0063560D02*
X0192131Y0063560D01*
X0192730Y0062962D02*
X0171479Y0062962D01*
X0171522Y0062363D02*
X0194070Y0062363D01*
X0192738Y0061765D02*
X0171522Y0061765D01*
X0171522Y0061166D02*
X0192139Y0061166D01*
X0191541Y0060568D02*
X0171522Y0060568D01*
X0174466Y0059969D02*
X0191164Y0059969D01*
X0190916Y0059371D02*
X0175695Y0059371D01*
X0176027Y0058772D02*
X0190668Y0058772D01*
X0190517Y0058174D02*
X0176935Y0058174D01*
X0176277Y0058174D02*
X0175428Y0058174D01*
X0175678Y0057575D02*
X0174830Y0057575D01*
X0175080Y0056977D02*
X0174231Y0056977D01*
X0174481Y0056378D02*
X0173633Y0056378D01*
X0173883Y0055779D02*
X0173034Y0055779D01*
X0172515Y0055181D02*
X0172436Y0055181D01*
X0172686Y0054582D02*
X0171837Y0054582D01*
X0172087Y0053984D02*
X0171239Y0053984D01*
X0171489Y0053385D02*
X0170640Y0053385D01*
X0170890Y0052787D02*
X0170042Y0052787D01*
X0170292Y0052188D02*
X0169443Y0052188D01*
X0168923Y0052188D02*
X0155252Y0052188D01*
X0155866Y0051590D02*
X0169693Y0051590D01*
X0170214Y0050991D02*
X0156479Y0050991D01*
X0156899Y0050759D02*
X0156899Y0050759D01*
X0156899Y0050759D01*
X0157174Y0050393D02*
X0171578Y0050393D01*
X0173311Y0049794D02*
X0157706Y0049794D01*
X0158121Y0049196D02*
X0173063Y0049196D01*
X0172864Y0048597D02*
X0158616Y0048597D01*
X0159112Y0047999D02*
X0172864Y0047999D01*
X0172864Y0047400D02*
X0159712Y0047400D01*
X0160371Y0046802D02*
X0172864Y0046802D01*
X0172864Y0046203D02*
X0161029Y0046203D01*
X0161688Y0045605D02*
X0173098Y0045605D01*
X0173346Y0045006D02*
X0162346Y0045006D01*
X0163004Y0044408D02*
X0173593Y0044408D01*
X0173846Y0043809D02*
X0163871Y0043809D01*
X0164848Y0043211D02*
X0174445Y0043211D01*
X0175043Y0042612D02*
X0165826Y0042612D01*
X0166803Y0042014D02*
X0175646Y0042014D01*
X0177091Y0041415D02*
X0167781Y0041415D01*
X0169367Y0040817D02*
X0288258Y0040817D01*
X0289807Y0041415D02*
X0280329Y0041415D01*
X0281577Y0042014D02*
X0290792Y0042014D01*
X0291777Y0042612D02*
X0282176Y0042612D01*
X0282774Y0043211D02*
X0292763Y0043211D01*
X0293748Y0043809D02*
X0283294Y0043809D01*
X0283542Y0044408D02*
X0294573Y0044408D01*
X0295238Y0045006D02*
X0283790Y0045006D01*
X0284038Y0045605D02*
X0295902Y0045605D01*
X0296566Y0046203D02*
X0284213Y0046203D01*
X0284213Y0046802D02*
X0297231Y0046802D01*
X0297895Y0047400D02*
X0284213Y0047400D01*
X0284213Y0047999D02*
X0298463Y0047999D01*
X0298964Y0048597D02*
X0284203Y0048597D01*
X0283955Y0049196D02*
X0299465Y0049196D01*
X0299921Y0049794D02*
X0283707Y0049794D01*
X0285936Y0050393D02*
X0300402Y0050393D01*
X0300357Y0050332D02*
X0300357Y0050332D01*
X0300535Y0050570D02*
X0300535Y0050570D01*
X0301152Y0050991D02*
X0287058Y0050991D01*
X0287241Y0051590D02*
X0301768Y0051590D01*
X0302384Y0052188D02*
X0288257Y0052188D01*
X0288621Y0052787D02*
X0303000Y0052787D01*
X0303616Y0053385D02*
X0288884Y0053385D01*
X0289066Y0053984D02*
X0304231Y0053984D01*
X0304847Y0054582D02*
X0289161Y0054582D01*
X0289177Y0055181D02*
X0290348Y0055181D01*
X0293562Y0055181D02*
X0305463Y0055181D01*
X0304697Y0055779D02*
X0295007Y0055779D01*
X0295942Y0056378D02*
X0304098Y0056378D01*
X0303500Y0056977D02*
X0296540Y0056977D01*
X0297139Y0057575D02*
X0302901Y0057575D01*
X0302303Y0058174D02*
X0297528Y0058174D01*
X0297776Y0058772D02*
X0301704Y0058772D01*
X0301106Y0059371D02*
X0298024Y0059371D01*
X0298272Y0059969D02*
X0300507Y0059969D01*
X0299909Y0060568D02*
X0298355Y0060568D01*
X0298355Y0061166D02*
X0299310Y0061166D01*
X0298712Y0061765D02*
X0298355Y0061765D01*
X0298355Y0062363D02*
X0298378Y0062363D01*
X0298155Y0063560D02*
X0298005Y0063560D01*
X0298231Y0064159D02*
X0297757Y0064159D01*
X0297509Y0064757D02*
X0298478Y0064757D01*
X0298953Y0065356D02*
X0297093Y0065356D01*
X0296494Y0065954D02*
X0299551Y0065954D01*
X0300150Y0066553D02*
X0295896Y0066553D01*
X0294897Y0067151D02*
X0300748Y0067151D01*
X0301347Y0067750D02*
X0293452Y0067750D01*
X0290458Y0067750D02*
X0266217Y0067750D01*
X0266217Y0068348D02*
X0301946Y0068348D01*
X0302544Y0068947D02*
X0265993Y0068947D01*
X0265746Y0069545D02*
X0302768Y0069545D01*
X0302169Y0070144D02*
X0265498Y0070144D01*
X0265018Y0070742D02*
X0301571Y0070742D01*
X0300972Y0071341D02*
X0264420Y0071341D01*
X0263668Y0071939D02*
X0300374Y0071939D01*
X0299775Y0072538D02*
X0263086Y0072538D01*
X0264179Y0073136D02*
X0299177Y0073136D01*
X0298578Y0073735D02*
X0264777Y0073735D01*
X0265376Y0074333D02*
X0298009Y0074333D01*
X0297761Y0074932D02*
X0265646Y0074932D01*
X0265894Y0075530D02*
X0297618Y0075530D01*
X0297618Y0076129D02*
X0266142Y0076129D01*
X0266217Y0076727D02*
X0297774Y0076727D01*
X0298022Y0077326D02*
X0266217Y0077326D01*
X0266217Y0077924D02*
X0294730Y0077924D01*
X0295140Y0077755D02*
X0296214Y0077755D01*
X0297206Y0078166D01*
X0302164Y0083123D01*
X0302575Y0084116D01*
X0302575Y0085190D01*
X0302164Y0086182D01*
X0297206Y0091140D01*
X0296214Y0091551D01*
X0295140Y0091551D01*
X0294148Y0091140D01*
X0289190Y0086182D01*
X0288779Y0085190D01*
X0288779Y0084116D01*
X0289190Y0083123D01*
X0294148Y0078166D01*
X0295140Y0077755D01*
X0296624Y0077924D02*
X0298610Y0077924D01*
X0299209Y0078523D02*
X0297564Y0078523D01*
X0298162Y0079121D02*
X0299807Y0079121D01*
X0300406Y0079720D02*
X0298761Y0079720D01*
X0299359Y0080318D02*
X0301004Y0080318D01*
X0301603Y0080917D02*
X0299958Y0080917D01*
X0300556Y0081515D02*
X0302201Y0081515D01*
X0302800Y0082114D02*
X0301155Y0082114D01*
X0301753Y0082712D02*
X0306421Y0082712D01*
X0306232Y0082114D02*
X0306887Y0082114D01*
X0306831Y0081515D02*
X0307485Y0081515D01*
X0307429Y0080917D02*
X0308084Y0080917D01*
X0308028Y0080318D02*
X0308683Y0080318D01*
X0308626Y0079720D02*
X0309281Y0079720D01*
X0309225Y0079121D02*
X0309880Y0079121D01*
X0309823Y0078523D02*
X0310478Y0078523D01*
X0310422Y0077924D02*
X0311077Y0077924D01*
X0311010Y0077326D02*
X0311963Y0077326D01*
X0311258Y0076727D02*
X0322640Y0076727D01*
X0323238Y0076129D02*
X0311414Y0076129D01*
X0311414Y0075530D02*
X0323837Y0075530D01*
X0324768Y0074932D02*
X0311271Y0074932D01*
X0311023Y0074333D02*
X0325168Y0074333D01*
X0324552Y0073735D02*
X0310453Y0073735D01*
X0309855Y0073136D02*
X0323936Y0073136D01*
X0323321Y0072538D02*
X0309256Y0072538D01*
X0308658Y0071939D02*
X0322705Y0071939D01*
X0322089Y0071341D02*
X0308059Y0071341D01*
X0308228Y0070742D02*
X0321473Y0070742D01*
X0320858Y0070144D02*
X0308826Y0070144D01*
X0309425Y0069545D02*
X0320242Y0069545D01*
X0319626Y0068947D02*
X0310023Y0068947D01*
X0310622Y0068348D02*
X0319010Y0068348D01*
X0318394Y0067750D02*
X0311220Y0067750D01*
X0311819Y0067151D02*
X0317779Y0067151D01*
X0317163Y0066553D02*
X0312417Y0066553D01*
X0313016Y0065954D02*
X0316547Y0065954D01*
X0315931Y0065356D02*
X0313614Y0065356D01*
X0314089Y0064757D02*
X0315316Y0064757D01*
X0314700Y0064159D02*
X0314337Y0064159D01*
X0314040Y0077326D02*
X0322041Y0077326D01*
X0321443Y0077924D02*
X0314926Y0077924D01*
X0315524Y0078523D02*
X0320844Y0078523D01*
X0320246Y0079121D02*
X0316123Y0079121D01*
X0316721Y0079720D02*
X0319647Y0079720D01*
X0319049Y0080318D02*
X0317320Y0080318D01*
X0317918Y0080917D02*
X0318450Y0080917D01*
X0318730Y0086304D02*
X0319901Y0086304D01*
X0320499Y0086902D02*
X0318132Y0086902D01*
X0317533Y0087501D02*
X0321098Y0087501D01*
X0321696Y0088099D02*
X0316935Y0088099D01*
X0316336Y0088698D02*
X0322295Y0088698D01*
X0322893Y0089296D02*
X0315738Y0089296D01*
X0315139Y0089895D02*
X0323492Y0089895D01*
X0324090Y0090493D02*
X0314541Y0090493D01*
X0311462Y0090493D02*
X0309534Y0090493D01*
X0308935Y0089895D02*
X0310863Y0089895D01*
X0310265Y0089296D02*
X0308337Y0089296D01*
X0307738Y0088698D02*
X0309666Y0088698D01*
X0309068Y0088099D02*
X0307140Y0088099D01*
X0306541Y0087501D02*
X0308469Y0087501D01*
X0307871Y0086902D02*
X0305943Y0086902D01*
X0305480Y0086439D02*
X0310437Y0091396D01*
X0310848Y0092389D01*
X0310848Y0093463D01*
X0310437Y0094455D01*
X0305480Y0099413D01*
X0304487Y0099824D01*
X0303413Y0099824D01*
X0302421Y0099413D01*
X0297463Y0094455D01*
X0297052Y0093463D01*
X0297052Y0092389D01*
X0297463Y0091396D01*
X0302421Y0086439D01*
X0303413Y0086028D01*
X0304487Y0086028D01*
X0305480Y0086439D01*
X0305153Y0086304D02*
X0307272Y0086304D01*
X0306673Y0085705D02*
X0302362Y0085705D01*
X0302575Y0085107D02*
X0306332Y0085107D01*
X0306103Y0084508D02*
X0302575Y0084508D01*
X0302490Y0083910D02*
X0306103Y0083910D01*
X0306173Y0083311D02*
X0302242Y0083311D01*
X0302043Y0086304D02*
X0302747Y0086304D01*
X0301957Y0086902D02*
X0301444Y0086902D01*
X0301359Y0087501D02*
X0300846Y0087501D01*
X0300760Y0088099D02*
X0300247Y0088099D01*
X0300162Y0088698D02*
X0299649Y0088698D01*
X0299563Y0089296D02*
X0299050Y0089296D01*
X0298965Y0089895D02*
X0298452Y0089895D01*
X0298366Y0090493D02*
X0297853Y0090493D01*
X0297768Y0091092D02*
X0297255Y0091092D01*
X0297341Y0091690D02*
X0293053Y0091690D01*
X0293461Y0092289D02*
X0297094Y0092289D01*
X0297052Y0092887D02*
X0293708Y0092887D01*
X0293736Y0093486D02*
X0297062Y0093486D01*
X0297309Y0094084D02*
X0293713Y0094084D01*
X0293465Y0094683D02*
X0297691Y0094683D01*
X0298289Y0095281D02*
X0296786Y0095281D01*
X0297384Y0095880D02*
X0298888Y0095880D01*
X0299486Y0096478D02*
X0297983Y0096478D01*
X0298581Y0097077D02*
X0300085Y0097077D01*
X0300683Y0097675D02*
X0299180Y0097675D01*
X0299778Y0098274D02*
X0301282Y0098274D01*
X0301880Y0098872D02*
X0300377Y0098872D01*
X0300975Y0099471D02*
X0302561Y0099471D01*
X0301574Y0100069D02*
X0325015Y0100069D01*
X0324854Y0099471D02*
X0305340Y0099471D01*
X0306020Y0098872D02*
X0324694Y0098872D01*
X0324534Y0098274D02*
X0306619Y0098274D01*
X0307217Y0097675D02*
X0324508Y0097675D01*
X0324508Y0097077D02*
X0307816Y0097077D01*
X0308414Y0096478D02*
X0324508Y0096478D01*
X0324508Y0095880D02*
X0309013Y0095880D01*
X0309611Y0095281D02*
X0324550Y0095281D01*
X0324710Y0094683D02*
X0310210Y0094683D01*
X0310591Y0094084D02*
X0324871Y0094084D01*
X0325031Y0093486D02*
X0310839Y0093486D01*
X0310848Y0092887D02*
X0325191Y0092887D01*
X0325508Y0092289D02*
X0310807Y0092289D01*
X0310559Y0091690D02*
X0325853Y0091690D01*
X0326199Y0091092D02*
X0310133Y0091092D01*
X0301878Y0100668D02*
X0325175Y0100668D01*
X0325473Y0101266D02*
X0302080Y0101266D01*
X0302080Y0101865D02*
X0325818Y0101865D01*
X0326164Y0102463D02*
X0301984Y0102463D01*
X0301736Y0103062D02*
X0326509Y0103062D01*
X0327052Y0103660D02*
X0301232Y0103660D01*
X0300634Y0104259D02*
X0327650Y0104259D01*
X0328249Y0104857D02*
X0300035Y0104857D01*
X0299437Y0105456D02*
X0329084Y0105456D01*
X0330121Y0106054D02*
X0298838Y0106054D01*
X0298240Y0106653D02*
X0331461Y0106653D01*
X0338360Y0106653D02*
X0362348Y0106653D01*
X0361165Y0106054D02*
X0339699Y0106054D01*
X0340736Y0105456D02*
X0359982Y0105456D01*
X0358799Y0104857D02*
X0341572Y0104857D01*
X0342170Y0104259D02*
X0357616Y0104259D01*
X0356433Y0103660D02*
X0342769Y0103660D01*
X0343311Y0103062D02*
X0355383Y0103062D01*
X0354552Y0102463D02*
X0343657Y0102463D01*
X0344002Y0101865D02*
X0353722Y0101865D01*
X0352892Y0101266D02*
X0344348Y0101266D01*
X0344645Y0100668D02*
X0352061Y0100668D01*
X0351231Y0100069D02*
X0344806Y0100069D01*
X0344966Y0099471D02*
X0350400Y0099471D01*
X0349570Y0098872D02*
X0345126Y0098872D01*
X0345287Y0098274D02*
X0348778Y0098274D01*
X0348174Y0097675D02*
X0345313Y0097675D01*
X0345313Y0097077D02*
X0347570Y0097077D01*
X0346965Y0096478D02*
X0345313Y0096478D01*
X0345313Y0095880D02*
X0346361Y0095880D01*
X0345757Y0095281D02*
X0345270Y0095281D01*
X0345153Y0094683D02*
X0345110Y0094683D01*
X0363723Y0107251D02*
X0297641Y0107251D01*
X0297042Y0107850D02*
X0365577Y0107850D01*
X0367431Y0108448D02*
X0297466Y0108448D01*
X0298064Y0109047D02*
X0369286Y0109047D01*
X0371140Y0109645D02*
X0298663Y0109645D01*
X0299261Y0110244D02*
X0374893Y0110244D01*
X0378697Y0110843D02*
X0299860Y0110843D01*
X0300458Y0111441D02*
X0405676Y0111441D01*
X0405428Y0112040D02*
X0301057Y0112040D01*
X0301655Y0112638D02*
X0405359Y0112638D01*
X0405359Y0113237D02*
X0302094Y0113237D01*
X0302342Y0113835D02*
X0405359Y0113835D01*
X0405359Y0114434D02*
X0302391Y0114434D01*
X0302390Y0115032D02*
X0405359Y0115032D01*
X0405359Y0115631D02*
X0302142Y0115631D01*
X0301773Y0116229D02*
X0405359Y0116229D01*
X0405595Y0116828D02*
X0301175Y0116828D01*
X0300576Y0117426D02*
X0405945Y0117426D01*
X0399459Y0118025D02*
X0299978Y0118025D01*
X0299379Y0118623D02*
X0398662Y0118623D01*
X0398238Y0119222D02*
X0298781Y0119222D01*
X0298182Y0119820D02*
X0397990Y0119820D01*
X0397950Y0120419D02*
X0297584Y0120419D01*
X0290942Y0120419D02*
X0286237Y0120419D01*
X0286237Y0119820D02*
X0290344Y0119820D01*
X0289745Y0119222D02*
X0286237Y0119222D01*
X0286237Y0118623D02*
X0289147Y0118623D01*
X0288548Y0118025D02*
X0286058Y0118025D01*
X0285787Y0117426D02*
X0287950Y0117426D01*
X0287351Y0116828D02*
X0285548Y0116828D01*
X0285548Y0116229D02*
X0286752Y0116229D01*
X0286383Y0115631D02*
X0285548Y0115631D01*
X0285548Y0115032D02*
X0286135Y0115032D01*
X0286134Y0114434D02*
X0285548Y0114434D01*
X0285548Y0113835D02*
X0286184Y0113835D01*
X0286432Y0113237D02*
X0285548Y0113237D01*
X0285548Y0112638D02*
X0286870Y0112638D01*
X0287469Y0112040D02*
X0285548Y0112040D01*
X0285548Y0111441D02*
X0288067Y0111441D01*
X0288666Y0110843D02*
X0285548Y0110843D01*
X0285548Y0110244D02*
X0289264Y0110244D01*
X0289863Y0109645D02*
X0285548Y0109645D01*
X0285548Y0109047D02*
X0290461Y0109047D01*
X0291060Y0108448D02*
X0285548Y0108448D01*
X0285548Y0107850D02*
X0291658Y0107850D01*
X0292257Y0107251D02*
X0285548Y0107251D01*
X0285548Y0106653D02*
X0292125Y0106653D01*
X0291526Y0106054D02*
X0285548Y0106054D01*
X0285548Y0105456D02*
X0290928Y0105456D01*
X0290329Y0104857D02*
X0285548Y0104857D01*
X0285548Y0104259D02*
X0289731Y0104259D01*
X0289132Y0103660D02*
X0285548Y0103660D01*
X0285548Y0103062D02*
X0288628Y0103062D01*
X0288380Y0102463D02*
X0285548Y0102463D01*
X0285548Y0101865D02*
X0288284Y0101865D01*
X0288284Y0101266D02*
X0285548Y0101266D01*
X0285548Y0100668D02*
X0288487Y0100668D01*
X0288790Y0100069D02*
X0288148Y0100069D01*
X0288875Y0099471D02*
X0289389Y0099471D01*
X0289474Y0098872D02*
X0289987Y0098872D01*
X0290072Y0098274D02*
X0290586Y0098274D01*
X0290671Y0097675D02*
X0291184Y0097675D01*
X0291269Y0097077D02*
X0291783Y0097077D01*
X0291868Y0096478D02*
X0292381Y0096478D01*
X0292466Y0095880D02*
X0292980Y0095880D01*
X0293065Y0095281D02*
X0293578Y0095281D01*
X0294100Y0091092D02*
X0292455Y0091092D01*
X0291856Y0090493D02*
X0293501Y0090493D01*
X0292903Y0089895D02*
X0291258Y0089895D01*
X0290659Y0089296D02*
X0292304Y0089296D01*
X0291706Y0088698D02*
X0290061Y0088698D01*
X0289462Y0088099D02*
X0291107Y0088099D01*
X0290509Y0087501D02*
X0288864Y0087501D01*
X0288120Y0086902D02*
X0289910Y0086902D01*
X0289312Y0086304D02*
X0266214Y0086304D01*
X0266217Y0086902D02*
X0285556Y0086902D01*
X0284813Y0087501D02*
X0275894Y0087501D01*
X0276551Y0088099D02*
X0284214Y0088099D01*
X0283616Y0088698D02*
X0277149Y0088698D01*
X0277748Y0089296D02*
X0283017Y0089296D01*
X0282419Y0089895D02*
X0278346Y0089895D01*
X0278945Y0090493D02*
X0281820Y0090493D01*
X0281222Y0091092D02*
X0279543Y0091092D01*
X0280142Y0091690D02*
X0280623Y0091690D01*
X0273034Y0087501D02*
X0266217Y0087501D01*
X0266217Y0088099D02*
X0272377Y0088099D01*
X0271779Y0088698D02*
X0266097Y0088698D01*
X0265849Y0089296D02*
X0271180Y0089296D01*
X0270582Y0089895D02*
X0265852Y0089895D01*
X0266451Y0090493D02*
X0269983Y0090493D01*
X0269385Y0091092D02*
X0267049Y0091092D01*
X0267648Y0091690D02*
X0268786Y0091690D01*
X0265966Y0085705D02*
X0288992Y0085705D01*
X0288779Y0085107D02*
X0265718Y0085107D01*
X0265470Y0084508D02*
X0288779Y0084508D01*
X0288864Y0083910D02*
X0264952Y0083910D01*
X0264353Y0083311D02*
X0289112Y0083311D01*
X0289601Y0082712D02*
X0263508Y0082712D01*
X0263246Y0082114D02*
X0290199Y0082114D01*
X0290798Y0081515D02*
X0264245Y0081515D01*
X0264844Y0080917D02*
X0291396Y0080917D01*
X0291995Y0080318D02*
X0265425Y0080318D01*
X0265673Y0079720D02*
X0292593Y0079720D01*
X0293192Y0079121D02*
X0265921Y0079121D01*
X0266169Y0078523D02*
X0293790Y0078523D01*
X0289013Y0067151D02*
X0266217Y0067151D01*
X0266217Y0066553D02*
X0288014Y0066553D01*
X0287416Y0065954D02*
X0266069Y0065954D01*
X0265821Y0065356D02*
X0286817Y0065356D01*
X0280203Y0064757D02*
X0265573Y0064757D01*
X0265201Y0064159D02*
X0279524Y0064159D01*
X0278925Y0063560D02*
X0264602Y0063560D01*
X0264004Y0062962D02*
X0278327Y0062962D01*
X0277728Y0062363D02*
X0262664Y0062363D01*
X0263996Y0061765D02*
X0277130Y0061765D01*
X0276531Y0061166D02*
X0264594Y0061166D01*
X0265193Y0060568D02*
X0275933Y0060568D01*
X0275334Y0059969D02*
X0265570Y0059969D01*
X0265818Y0059371D02*
X0274736Y0059371D01*
X0274137Y0058772D02*
X0266066Y0058772D01*
X0266217Y0058174D02*
X0273539Y0058174D01*
X0272940Y0057575D02*
X0266217Y0057575D01*
X0266217Y0056977D02*
X0272342Y0056977D01*
X0271743Y0056378D02*
X0266217Y0056378D01*
X0265997Y0055779D02*
X0271145Y0055779D01*
X0270546Y0055181D02*
X0265749Y0055181D01*
X0265501Y0054582D02*
X0269948Y0054582D01*
X0269349Y0053984D02*
X0265026Y0053984D01*
X0264428Y0053385D02*
X0268751Y0053385D01*
X0268152Y0052787D02*
X0263687Y0052787D01*
X0262242Y0052188D02*
X0267554Y0052188D01*
X0266955Y0051590D02*
X0184167Y0051590D01*
X0184721Y0050991D02*
X0266357Y0050991D01*
X0270869Y0045605D02*
X0271588Y0045605D01*
X0271836Y0045006D02*
X0270271Y0045006D01*
X0269577Y0044408D02*
X0272084Y0044408D01*
X0272332Y0043809D02*
X0184681Y0043809D01*
X0184083Y0043211D02*
X0272852Y0043211D01*
X0273450Y0042612D02*
X0183484Y0042612D01*
X0182882Y0042014D02*
X0274049Y0042014D01*
X0275297Y0041415D02*
X0181437Y0041415D01*
X0175705Y0039021D02*
X0281928Y0039021D01*
X0285064Y0039620D02*
X0172538Y0039620D01*
X0170952Y0040218D02*
X0286661Y0040218D01*
X0286643Y0052188D02*
X0287491Y0052188D01*
X0286893Y0052787D02*
X0286044Y0052787D01*
X0286294Y0053385D02*
X0285446Y0053385D01*
X0285696Y0053984D02*
X0284847Y0053984D01*
X0285097Y0054582D02*
X0284249Y0054582D01*
X0254491Y0052188D02*
X0202242Y0052188D01*
X0203687Y0052787D02*
X0220686Y0052787D01*
X0225910Y0052787D02*
X0253046Y0052787D01*
X0252306Y0053385D02*
X0226747Y0053385D01*
X0227187Y0053984D02*
X0251708Y0053984D01*
X0251233Y0054582D02*
X0227435Y0054582D01*
X0227487Y0055181D02*
X0250985Y0055181D01*
X0250737Y0055779D02*
X0227487Y0055779D01*
X0227487Y0056378D02*
X0250517Y0056378D01*
X0250517Y0056977D02*
X0227487Y0056977D01*
X0227487Y0057575D02*
X0250517Y0057575D01*
X0250517Y0058174D02*
X0227487Y0058174D01*
X0227482Y0058772D02*
X0250668Y0058772D01*
X0250916Y0059371D02*
X0227234Y0059371D01*
X0226858Y0059969D02*
X0251164Y0059969D01*
X0251541Y0060568D02*
X0226180Y0060568D01*
X0220416Y0060568D02*
X0205193Y0060568D01*
X0204594Y0061166D02*
X0252139Y0061166D01*
X0252738Y0061765D02*
X0203996Y0061765D01*
X0204004Y0062962D02*
X0252730Y0062962D01*
X0252131Y0063560D02*
X0204602Y0063560D01*
X0205201Y0064159D02*
X0251533Y0064159D01*
X0251160Y0064757D02*
X0205573Y0064757D01*
X0205821Y0065356D02*
X0250913Y0065356D01*
X0250665Y0065954D02*
X0206069Y0065954D01*
X0206217Y0066553D02*
X0250517Y0066553D01*
X0250517Y0067151D02*
X0206217Y0067151D01*
X0206217Y0067750D02*
X0250517Y0067750D01*
X0250517Y0068348D02*
X0206217Y0068348D01*
X0205993Y0068947D02*
X0250740Y0068947D01*
X0250988Y0069545D02*
X0205746Y0069545D01*
X0205498Y0070144D02*
X0251236Y0070144D01*
X0251716Y0070742D02*
X0205018Y0070742D01*
X0204420Y0071341D02*
X0252314Y0071341D01*
X0253066Y0071939D02*
X0203668Y0071939D01*
X0203086Y0072538D02*
X0253648Y0072538D01*
X0252555Y0073136D02*
X0204179Y0073136D01*
X0204777Y0073735D02*
X0251957Y0073735D01*
X0251358Y0074333D02*
X0205376Y0074333D01*
X0205646Y0074932D02*
X0251088Y0074932D01*
X0250840Y0075530D02*
X0205894Y0075530D01*
X0206142Y0076129D02*
X0250592Y0076129D01*
X0250517Y0076727D02*
X0206217Y0076727D01*
X0206217Y0077326D02*
X0250517Y0077326D01*
X0250517Y0077924D02*
X0206217Y0077924D01*
X0206169Y0078523D02*
X0250565Y0078523D01*
X0250813Y0079121D02*
X0205921Y0079121D01*
X0205673Y0079720D02*
X0251061Y0079720D01*
X0251309Y0080318D02*
X0205425Y0080318D01*
X0204844Y0080917D02*
X0251890Y0080917D01*
X0252489Y0081515D02*
X0204245Y0081515D01*
X0203246Y0082114D02*
X0253488Y0082114D01*
X0253226Y0082712D02*
X0203508Y0082712D01*
X0204353Y0083311D02*
X0252380Y0083311D01*
X0251782Y0083910D02*
X0204952Y0083910D01*
X0205470Y0084508D02*
X0251264Y0084508D01*
X0251016Y0085107D02*
X0205718Y0085107D01*
X0205966Y0085705D02*
X0250768Y0085705D01*
X0250520Y0086304D02*
X0206214Y0086304D01*
X0206217Y0086902D02*
X0250517Y0086902D01*
X0250517Y0087501D02*
X0206217Y0087501D01*
X0206217Y0088099D02*
X0250517Y0088099D01*
X0250637Y0088698D02*
X0206097Y0088698D01*
X0205849Y0089296D02*
X0250885Y0089296D01*
X0251133Y0089895D02*
X0205601Y0089895D01*
X0205267Y0090493D02*
X0251467Y0090493D01*
X0252065Y0091092D02*
X0204669Y0091092D01*
X0204070Y0091690D02*
X0252664Y0091690D01*
X0252804Y0092887D02*
X0203929Y0092887D01*
X0204528Y0093486D02*
X0252206Y0093486D01*
X0251607Y0094084D02*
X0205127Y0094084D01*
X0205543Y0094683D02*
X0251191Y0094683D01*
X0250943Y0095281D02*
X0205790Y0095281D01*
X0206038Y0095880D02*
X0250695Y0095880D01*
X0250517Y0096478D02*
X0206217Y0096478D01*
X0206217Y0097077D02*
X0250517Y0097077D01*
X0250517Y0097675D02*
X0206217Y0097675D01*
X0206217Y0098274D02*
X0250517Y0098274D01*
X0250710Y0098872D02*
X0206024Y0098872D01*
X0205776Y0099471D02*
X0250957Y0099471D01*
X0251205Y0100069D02*
X0205529Y0100069D01*
X0205093Y0100668D02*
X0251641Y0100668D01*
X0252240Y0101266D02*
X0204494Y0101266D01*
X0203847Y0101865D02*
X0252886Y0101865D01*
X0253828Y0102463D02*
X0202906Y0102463D01*
X0204104Y0103062D02*
X0252630Y0103062D01*
X0252031Y0103660D02*
X0204703Y0103660D01*
X0205301Y0104259D02*
X0211011Y0104259D01*
X0210224Y0104857D02*
X0205615Y0104857D01*
X0205863Y0105456D02*
X0209625Y0105456D01*
X0209027Y0106054D02*
X0206111Y0106054D01*
X0206217Y0106653D02*
X0208428Y0106653D01*
X0207830Y0107251D02*
X0206217Y0107251D01*
X0206217Y0107850D02*
X0207231Y0107850D01*
X0206633Y0108448D02*
X0206200Y0108448D01*
X0206034Y0109047D02*
X0205952Y0109047D01*
X0202824Y0092289D02*
X0253910Y0092289D01*
X0252414Y0111441D02*
X0247487Y0111441D01*
X0247487Y0112040D02*
X0253308Y0112040D01*
X0253406Y0112638D02*
X0247487Y0112638D01*
X0247487Y0113237D02*
X0252455Y0113237D01*
X0251856Y0113835D02*
X0247456Y0113835D01*
X0247208Y0114434D02*
X0251294Y0114434D01*
X0251047Y0115032D02*
X0246798Y0115032D01*
X0246798Y0115631D02*
X0250799Y0115631D01*
X0250551Y0116229D02*
X0246798Y0116229D01*
X0246798Y0116828D02*
X0250517Y0116828D01*
X0250517Y0117426D02*
X0246798Y0117426D01*
X0246798Y0118025D02*
X0250517Y0118025D01*
X0250606Y0118623D02*
X0246798Y0118623D01*
X0246798Y0119222D02*
X0250854Y0119222D01*
X0251102Y0119820D02*
X0246798Y0119820D01*
X0246798Y0120419D02*
X0251392Y0120419D01*
X0251991Y0121017D02*
X0246798Y0121017D01*
X0246798Y0121616D02*
X0252589Y0121616D01*
X0252984Y0122813D02*
X0246798Y0122813D01*
X0246798Y0123411D02*
X0252280Y0123411D01*
X0251682Y0124010D02*
X0246798Y0124010D01*
X0246798Y0124608D02*
X0251222Y0124608D01*
X0250974Y0125207D02*
X0246798Y0125207D01*
X0246798Y0125805D02*
X0250726Y0125805D01*
X0250517Y0126404D02*
X0246798Y0126404D01*
X0246798Y0127002D02*
X0250517Y0127002D01*
X0250517Y0127601D02*
X0246798Y0127601D01*
X0246798Y0128199D02*
X0250517Y0128199D01*
X0250679Y0128798D02*
X0246798Y0128798D01*
X0246798Y0129396D02*
X0250927Y0129396D01*
X0251175Y0129995D02*
X0246798Y0129995D01*
X0246798Y0130593D02*
X0251567Y0130593D01*
X0252165Y0131192D02*
X0246798Y0131192D01*
X0246798Y0131790D02*
X0252764Y0131790D01*
X0252704Y0132987D02*
X0246798Y0132987D01*
X0246798Y0132389D02*
X0254007Y0132389D01*
X0252106Y0133586D02*
X0246798Y0133586D01*
X0246798Y0134184D02*
X0251507Y0134184D01*
X0251150Y0134783D02*
X0246798Y0134783D01*
X0246798Y0135381D02*
X0250902Y0135381D01*
X0250654Y0135980D02*
X0246798Y0135980D01*
X0246798Y0136579D02*
X0250517Y0136579D01*
X0250517Y0137177D02*
X0246798Y0137177D01*
X0246798Y0137776D02*
X0250517Y0137776D01*
X0250517Y0138374D02*
X0246798Y0138374D01*
X0246798Y0138973D02*
X0250751Y0138973D01*
X0250999Y0139571D02*
X0246798Y0139571D01*
X0246798Y0140170D02*
X0251247Y0140170D01*
X0251741Y0140768D02*
X0246798Y0140768D01*
X0246798Y0141367D02*
X0252340Y0141367D01*
X0253128Y0141965D02*
X0246798Y0141965D01*
X0246798Y0142564D02*
X0253586Y0142564D01*
X0252529Y0143162D02*
X0246798Y0143162D01*
X0246798Y0143761D02*
X0251931Y0143761D01*
X0251332Y0144359D02*
X0246798Y0144359D01*
X0246798Y0144958D02*
X0251077Y0144958D01*
X0250829Y0145556D02*
X0246798Y0145556D01*
X0246798Y0146155D02*
X0250582Y0146155D01*
X0250517Y0146753D02*
X0246798Y0146753D01*
X0246798Y0147352D02*
X0250517Y0147352D01*
X0250517Y0147950D02*
X0246798Y0147950D01*
X0246798Y0148549D02*
X0250576Y0148549D01*
X0250823Y0149147D02*
X0246798Y0149147D01*
X0246798Y0149746D02*
X0251071Y0149746D01*
X0251319Y0150344D02*
X0246798Y0150344D01*
X0246798Y0150943D02*
X0251916Y0150943D01*
X0252515Y0151541D02*
X0246798Y0151541D01*
X0246798Y0122214D02*
X0253730Y0122214D01*
X0193226Y0082712D02*
X0123962Y0082712D01*
X0124576Y0082114D02*
X0193488Y0082114D01*
X0192489Y0081515D02*
X0125189Y0081515D01*
X0125803Y0080917D02*
X0191890Y0080917D01*
X0191309Y0080318D02*
X0126416Y0080318D01*
X0127030Y0079720D02*
X0191061Y0079720D01*
X0190813Y0079121D02*
X0127643Y0079121D01*
X0123349Y0083311D02*
X0192380Y0083311D01*
X0163281Y0067750D02*
X0139300Y0067750D01*
X0139914Y0067151D02*
X0161837Y0067151D01*
X0161039Y0066553D02*
X0140527Y0066553D01*
X0141141Y0065954D02*
X0160440Y0065954D01*
X0159842Y0065356D02*
X0141754Y0065356D01*
X0142368Y0064757D02*
X0159508Y0064757D01*
X0159261Y0064159D02*
X0142981Y0064159D01*
X0143595Y0063560D02*
X0159013Y0063560D01*
X0158765Y0062962D02*
X0144209Y0062962D01*
X0144822Y0062363D02*
X0158722Y0062363D01*
X0158722Y0061765D02*
X0145436Y0061765D01*
X0146049Y0061166D02*
X0158722Y0061166D01*
X0158722Y0060568D02*
X0146663Y0060568D01*
X0147276Y0059969D02*
X0158864Y0059969D01*
X0159111Y0059371D02*
X0147890Y0059371D01*
X0148503Y0058772D02*
X0159359Y0058772D01*
X0159607Y0058174D02*
X0149117Y0058174D01*
X0149730Y0057575D02*
X0160080Y0057575D01*
X0160679Y0056977D02*
X0150344Y0056977D01*
X0150957Y0056378D02*
X0161277Y0056378D01*
X0162412Y0055779D02*
X0151571Y0055779D01*
X0152184Y0055181D02*
X0167900Y0055181D01*
X0167926Y0055779D02*
X0167831Y0055779D01*
X0167939Y0054582D02*
X0152798Y0054582D01*
X0153411Y0053984D02*
X0168044Y0053984D01*
X0168239Y0053385D02*
X0154025Y0053385D01*
X0154638Y0052787D02*
X0168528Y0052787D01*
X0177755Y0053984D02*
X0191708Y0053984D01*
X0191233Y0054582D02*
X0177861Y0054582D01*
X0177900Y0055181D02*
X0190985Y0055181D01*
X0190737Y0055779D02*
X0177874Y0055779D01*
X0177779Y0056378D02*
X0190517Y0056378D01*
X0190517Y0056977D02*
X0177587Y0056977D01*
X0177312Y0057575D02*
X0190517Y0057575D01*
X0192306Y0053385D02*
X0181640Y0053385D01*
X0182970Y0052787D02*
X0193046Y0052787D01*
X0194491Y0052188D02*
X0183569Y0052188D01*
X0202664Y0062363D02*
X0254070Y0062363D01*
X0152657Y0096478D02*
X0131717Y0096478D01*
X0143761Y0109047D02*
X0088193Y0109047D01*
X0086217Y0109645D02*
X0144391Y0109645D01*
X0145022Y0110244D02*
X0082438Y0110244D01*
X0078660Y0110843D02*
X0145653Y0110843D01*
X0146283Y0111441D02*
X0044320Y0111441D01*
X0041565Y0112040D02*
X0146914Y0112040D01*
X0147545Y0112638D02*
X0039908Y0112638D01*
X0038535Y0113237D02*
X0148175Y0113237D01*
X0148806Y0113835D02*
X0037163Y0113835D01*
X0036065Y0114434D02*
X0149437Y0114434D01*
X0150330Y0115032D02*
X0035206Y0115032D01*
X0029507Y0131192D02*
X0048298Y0131192D01*
X0047700Y0131790D02*
X0029298Y0131790D01*
X0029298Y0132389D02*
X0029802Y0132389D01*
X0029349Y0132987D02*
X0029298Y0132987D01*
X0033224Y0132987D02*
X0033824Y0132987D01*
X0033824Y0132389D02*
X0033224Y0132389D01*
X0033224Y0133586D02*
X0033824Y0133586D01*
X0033824Y0134184D02*
X0033224Y0134184D01*
X0033224Y0134783D02*
X0033824Y0134783D01*
X0033824Y0135381D02*
X0047163Y0135381D01*
X0047163Y0134783D02*
X0037777Y0134783D01*
X0037777Y0134184D02*
X0047163Y0134184D01*
X0047163Y0133586D02*
X0037777Y0133586D01*
X0037700Y0132987D02*
X0047163Y0132987D01*
X0047378Y0132389D02*
X0037247Y0132389D01*
X0037777Y0135517D02*
X0037777Y0137160D01*
X0037689Y0137491D01*
X0037517Y0137787D01*
X0037275Y0138029D01*
X0036979Y0138200D01*
X0036648Y0138289D01*
X0033824Y0138289D01*
X0033824Y0135517D01*
X0037777Y0135517D01*
X0037777Y0135980D02*
X0047163Y0135980D01*
X0047163Y0136579D02*
X0037777Y0136579D01*
X0037773Y0137177D02*
X0047163Y0137177D01*
X0047266Y0137776D02*
X0037524Y0137776D01*
X0033824Y0137776D02*
X0033224Y0137776D01*
X0033224Y0137177D02*
X0033824Y0137177D01*
X0033824Y0136579D02*
X0033224Y0136579D01*
X0033224Y0135980D02*
X0033824Y0135980D01*
X0029525Y0137776D02*
X0029298Y0137776D01*
X0029298Y0138374D02*
X0047514Y0138374D01*
X0048028Y0138973D02*
X0029298Y0138973D01*
X0029298Y0139571D02*
X0049041Y0139571D01*
X0029298Y0142564D02*
X0073652Y0142564D01*
X0074171Y0142045D02*
X0072023Y0144193D01*
X0071625Y0144741D01*
X0071318Y0145344D01*
X0071108Y0145987D01*
X0071003Y0146656D01*
X0071003Y0147333D01*
X0071108Y0148001D01*
X0071318Y0148645D01*
X0071625Y0149248D01*
X0072023Y0149796D01*
X0072050Y0149823D01*
X0077000Y0144873D01*
X0074171Y0142045D01*
X0073054Y0143162D02*
X0029298Y0143162D01*
X0029298Y0143761D02*
X0072455Y0143761D01*
X0071902Y0144359D02*
X0029298Y0144359D01*
X0029298Y0144958D02*
X0071514Y0144958D01*
X0071249Y0145556D02*
X0029298Y0145556D01*
X0029298Y0146155D02*
X0071082Y0146155D01*
X0071003Y0146753D02*
X0029298Y0146753D01*
X0029298Y0147352D02*
X0071006Y0147352D01*
X0071100Y0147950D02*
X0029298Y0147950D01*
X0029298Y0148549D02*
X0071286Y0148549D01*
X0071573Y0149147D02*
X0029298Y0149147D01*
X0029298Y0149746D02*
X0071986Y0149746D01*
X0072127Y0149746D02*
X0072975Y0149746D01*
X0072725Y0149147D02*
X0073574Y0149147D01*
X0073324Y0148549D02*
X0074172Y0148549D01*
X0073922Y0147950D02*
X0074771Y0147950D01*
X0074521Y0147352D02*
X0075369Y0147352D01*
X0075119Y0146753D02*
X0075968Y0146753D01*
X0075718Y0146155D02*
X0076566Y0146155D01*
X0076317Y0145556D02*
X0077165Y0145556D01*
X0077683Y0145556D02*
X0078531Y0145556D01*
X0078281Y0146155D02*
X0079130Y0146155D01*
X0078880Y0146753D02*
X0079728Y0146753D01*
X0079478Y0147352D02*
X0080327Y0147352D01*
X0078632Y0149746D02*
X0090738Y0149746D01*
X0089293Y0150344D02*
X0078007Y0150344D01*
X0077025Y0150943D02*
X0088466Y0150943D01*
X0087868Y0151541D02*
X0029298Y0151541D01*
X0029298Y0150943D02*
X0073580Y0150943D01*
X0072598Y0150344D02*
X0029298Y0150344D01*
X0029298Y0152140D02*
X0087269Y0152140D01*
X0086671Y0152738D02*
X0029298Y0152738D01*
X0029298Y0153337D02*
X0086072Y0153337D01*
X0085474Y0153935D02*
X0029298Y0153935D01*
X0029298Y0154534D02*
X0084875Y0154534D01*
X0084277Y0155132D02*
X0029298Y0155132D01*
X0060027Y0170095D02*
X0069314Y0170095D01*
X0069912Y0169497D02*
X0060861Y0169497D01*
X0061460Y0168898D02*
X0070511Y0168898D01*
X0071545Y0168300D02*
X0062058Y0168300D01*
X0076915Y0144958D02*
X0077084Y0144958D01*
X0077764Y0144958D02*
X0077933Y0144958D01*
X0324612Y0222166D02*
X0336531Y0222166D01*
X0335466Y0222764D02*
X0325677Y0222764D01*
X0328308Y0223363D02*
X0334931Y0223363D01*
X0334683Y0223961D02*
X0329226Y0223961D01*
X0329824Y0224560D02*
X0334565Y0224560D01*
X0334565Y0225158D02*
X0330423Y0225158D01*
X0331021Y0225757D02*
X0334565Y0225757D01*
X0334565Y0226355D02*
X0331620Y0226355D01*
X0332218Y0226954D02*
X0334565Y0226954D01*
X0334565Y0227552D02*
X0332817Y0227552D01*
X0333415Y0228151D02*
X0334565Y0228151D01*
X0344968Y0222764D02*
X0349491Y0222764D01*
X0354605Y0222764D02*
X0428406Y0222764D01*
X0428406Y0222166D02*
X0343904Y0222166D01*
X0355474Y0223363D02*
X0428406Y0223363D01*
X0428406Y0223961D02*
X0355928Y0223961D01*
X0356176Y0224560D02*
X0428406Y0224560D01*
X0428406Y0225158D02*
X0356237Y0225158D01*
X0356237Y0225757D02*
X0427902Y0225757D01*
X0427304Y0226355D02*
X0356237Y0226355D01*
X0356237Y0226954D02*
X0426705Y0226954D01*
X0426107Y0227552D02*
X0356237Y0227552D01*
X0356237Y0228151D02*
X0425508Y0228151D01*
X0430620Y0232939D02*
X0430645Y0232939D01*
X0430415Y0233537D02*
X0430021Y0233537D01*
X0430060Y0234136D02*
X0429423Y0234136D01*
X0429704Y0234734D02*
X0428776Y0234734D01*
X0429348Y0235333D02*
X0344326Y0235333D01*
X0345143Y0235931D02*
X0428993Y0235931D01*
X0428637Y0236530D02*
X0345576Y0236530D01*
X0345824Y0237128D02*
X0428281Y0237128D01*
X0427786Y0237727D02*
X0345870Y0237727D01*
X0345870Y0238325D02*
X0427249Y0238325D01*
X0426712Y0238924D02*
X0345870Y0238924D01*
X0345870Y0239522D02*
X0426174Y0239522D01*
X0425637Y0240121D02*
X0345870Y0240121D01*
X0345870Y0240719D02*
X0425030Y0240719D01*
X0424233Y0241318D02*
X0345870Y0241318D01*
X0345845Y0241916D02*
X0423435Y0241916D01*
X0422637Y0242515D02*
X0345597Y0242515D01*
X0345195Y0243114D02*
X0421840Y0243114D01*
X0420671Y0243712D02*
X0344450Y0243712D01*
X0357741Y0217976D02*
X0373638Y0217976D01*
X0372194Y0217378D02*
X0359186Y0217378D01*
X0359860Y0216779D02*
X0363163Y0216779D01*
X0361921Y0216181D02*
X0360459Y0216181D01*
X0361057Y0215582D02*
X0361322Y0215582D01*
X0368217Y0216779D02*
X0371519Y0216779D01*
X0370921Y0216181D02*
X0369459Y0216181D01*
X0370057Y0215582D02*
X0370322Y0215582D01*
X0377741Y0217976D02*
X0428406Y0217976D01*
X0428406Y0217378D02*
X0379186Y0217378D01*
X0379860Y0216779D02*
X0428406Y0216779D01*
X0428406Y0216181D02*
X0380459Y0216181D01*
X0381057Y0215582D02*
X0381135Y0215582D01*
X0385390Y0215582D02*
X0385990Y0215582D01*
X0385990Y0214983D02*
X0385390Y0214983D01*
X0385390Y0214385D02*
X0385990Y0214385D01*
X0385990Y0213786D02*
X0385390Y0213786D01*
X0385390Y0213188D02*
X0385990Y0213188D01*
X0385990Y0212589D02*
X0385390Y0212589D01*
X0385390Y0211991D02*
X0385990Y0211991D01*
X0385990Y0211392D02*
X0385390Y0211392D01*
X0385990Y0210794D02*
X0428406Y0210794D01*
X0428406Y0211392D02*
X0390690Y0211392D01*
X0390690Y0211991D02*
X0428406Y0211991D01*
X0428406Y0212589D02*
X0390690Y0212589D01*
X0390690Y0213188D02*
X0428406Y0213188D01*
X0428406Y0213786D02*
X0390690Y0213786D01*
X0390690Y0214385D02*
X0428406Y0214385D01*
X0428406Y0214983D02*
X0390632Y0214983D01*
X0390245Y0215582D02*
X0428406Y0215582D01*
X0428406Y0210195D02*
X0390690Y0210195D01*
X0390690Y0209597D02*
X0428406Y0209597D01*
X0428406Y0208998D02*
X0390690Y0208998D01*
X0390690Y0208400D02*
X0428406Y0208400D01*
X0385990Y0208400D02*
X0385390Y0208400D01*
X0385390Y0208998D02*
X0385990Y0208998D01*
X0385990Y0209597D02*
X0385390Y0209597D01*
X0385390Y0210195D02*
X0385990Y0210195D01*
X0385990Y0207801D02*
X0385390Y0207801D01*
X0385390Y0207203D02*
X0385990Y0207203D01*
X0385990Y0206604D02*
X0385390Y0206604D01*
X0385390Y0206006D02*
X0385990Y0206006D01*
X0381455Y0206006D02*
X0378188Y0206006D01*
X0379447Y0206604D02*
X0380832Y0206604D01*
X0380690Y0207203D02*
X0380045Y0207203D01*
X0380644Y0207801D02*
X0380690Y0207801D01*
X0373192Y0206006D02*
X0369848Y0206006D01*
X0370447Y0206604D02*
X0371933Y0206604D01*
X0371334Y0207203D02*
X0371045Y0207203D01*
X0363667Y0204809D02*
X0332711Y0204809D01*
X0332113Y0205407D02*
X0362222Y0205407D01*
X0361531Y0206006D02*
X0358188Y0206006D01*
X0359447Y0206604D02*
X0360933Y0206604D01*
X0360334Y0207203D02*
X0360045Y0207203D01*
X0353192Y0206006D02*
X0331001Y0206006D01*
X0359298Y0151541D02*
X0421048Y0151541D01*
X0421048Y0150943D02*
X0359298Y0150943D01*
X0359298Y0150344D02*
X0421048Y0150344D01*
X0421048Y0149746D02*
X0359298Y0149746D01*
X0359298Y0149147D02*
X0421048Y0149147D01*
X0421048Y0148549D02*
X0359298Y0148549D01*
X0359298Y0147950D02*
X0421048Y0147950D01*
X0421048Y0147352D02*
X0359298Y0147352D01*
X0359298Y0146753D02*
X0421048Y0146753D01*
X0421048Y0146155D02*
X0359298Y0146155D01*
X0359298Y0145556D02*
X0421048Y0145556D01*
X0421048Y0144958D02*
X0359298Y0144958D01*
X0359298Y0144359D02*
X0421048Y0144359D01*
X0421048Y0143761D02*
X0359298Y0143761D01*
X0359298Y0143162D02*
X0421048Y0143162D01*
X0421048Y0142564D02*
X0359298Y0142564D01*
X0359298Y0141965D02*
X0421048Y0141965D01*
X0421048Y0141367D02*
X0359298Y0141367D01*
X0359298Y0140768D02*
X0421048Y0140768D01*
X0421048Y0140170D02*
X0359298Y0140170D01*
X0359298Y0139571D02*
X0419120Y0139571D01*
X0418107Y0138973D02*
X0359298Y0138973D01*
X0359298Y0138374D02*
X0417593Y0138374D01*
X0417345Y0137776D02*
X0407603Y0137776D01*
X0407596Y0137787D02*
X0407354Y0138029D01*
X0407058Y0138200D01*
X0406727Y0138289D01*
X0403903Y0138289D01*
X0403903Y0135517D01*
X0407856Y0135517D01*
X0407856Y0137160D01*
X0407767Y0137491D01*
X0407596Y0137787D01*
X0407851Y0137177D02*
X0417242Y0137177D01*
X0417242Y0136579D02*
X0407856Y0136579D01*
X0407856Y0135980D02*
X0417242Y0135980D01*
X0417242Y0135381D02*
X0403903Y0135381D01*
X0403903Y0135517D02*
X0403903Y0134917D01*
X0403903Y0132146D01*
X0406727Y0132146D01*
X0407058Y0132234D01*
X0407354Y0132405D01*
X0407596Y0132647D01*
X0407767Y0132944D01*
X0407856Y0133275D01*
X0407856Y0134917D01*
X0403903Y0134917D01*
X0403303Y0134917D01*
X0403303Y0132146D01*
X0400479Y0132146D01*
X0400149Y0132234D01*
X0399852Y0132405D01*
X0399610Y0132647D01*
X0399439Y0132944D01*
X0399350Y0133275D01*
X0399350Y0134917D01*
X0403303Y0134917D01*
X0403303Y0135517D01*
X0399350Y0135517D01*
X0399350Y0137160D01*
X0399439Y0137491D01*
X0399610Y0137787D01*
X0399852Y0138029D01*
X0400149Y0138200D01*
X0400479Y0138289D01*
X0403303Y0138289D01*
X0403303Y0135517D01*
X0403903Y0135517D01*
X0403903Y0135980D02*
X0403303Y0135980D01*
X0403303Y0136579D02*
X0403903Y0136579D01*
X0403903Y0137177D02*
X0403303Y0137177D01*
X0403303Y0137776D02*
X0403903Y0137776D01*
X0403303Y0135381D02*
X0359298Y0135381D01*
X0359298Y0134783D02*
X0399350Y0134783D01*
X0399350Y0134184D02*
X0359298Y0134184D01*
X0359298Y0133586D02*
X0399350Y0133586D01*
X0399427Y0132987D02*
X0359298Y0132987D01*
X0359298Y0132389D02*
X0399881Y0132389D01*
X0403303Y0132389D02*
X0403903Y0132389D01*
X0403903Y0132987D02*
X0403303Y0132987D01*
X0403303Y0133586D02*
X0403903Y0133586D01*
X0403903Y0134184D02*
X0403303Y0134184D01*
X0403303Y0134783D02*
X0403903Y0134783D01*
X0407856Y0134783D02*
X0417242Y0134783D01*
X0417242Y0134184D02*
X0407856Y0134184D01*
X0407856Y0133586D02*
X0417242Y0133586D01*
X0417242Y0132987D02*
X0407779Y0132987D01*
X0407326Y0132389D02*
X0417457Y0132389D01*
X0417779Y0131790D02*
X0359298Y0131790D01*
X0359298Y0131192D02*
X0418377Y0131192D01*
X0418697Y0126404D02*
X0407800Y0126404D01*
X0408566Y0125805D02*
X0417932Y0125805D01*
X0410592Y0125207D02*
X0408977Y0125207D01*
X0409225Y0124608D02*
X0409974Y0124608D01*
X0409375Y0124010D02*
X0409256Y0124010D01*
X0427092Y0126404D02*
X0430633Y0126404D01*
X0430421Y0125805D02*
X0427857Y0125805D01*
X0428269Y0125207D02*
X0430184Y0125207D01*
X0429827Y0124608D02*
X0428516Y0124608D01*
X0428547Y0124010D02*
X0429471Y0124010D01*
X0429114Y0123411D02*
X0428547Y0123411D01*
X0428547Y0122813D02*
X0428758Y0122813D01*
X0399350Y0135980D02*
X0359298Y0135980D01*
X0359298Y0136579D02*
X0399350Y0136579D01*
X0399355Y0137177D02*
X0359298Y0137177D01*
X0359298Y0137776D02*
X0399603Y0137776D01*
D24*
X0422894Y0135217D02*
X0424548Y0136871D01*
X0424548Y0151733D01*
X0431906Y0159091D01*
X0431906Y0226703D01*
X0426876Y0231733D01*
X0332048Y0231733D01*
X0326871Y0226556D01*
X0320926Y0226556D01*
X0318298Y0234233D02*
X0334902Y0234233D01*
X0340217Y0239548D01*
X0339902Y0239233D01*
X0340217Y0226556D02*
X0351871Y0226556D01*
X0352048Y0226733D01*
X0318298Y0234233D02*
X0302048Y0217983D01*
X0273298Y0217983D01*
X0264548Y0209233D01*
X0194548Y0209233D01*
X0190798Y0205483D02*
X0244548Y0205483D01*
X0253298Y0205483D02*
X0243298Y0195483D01*
X0243298Y0111733D01*
X0258367Y0107359D02*
X0212672Y0107359D01*
X0208298Y0111733D01*
X0208298Y0199233D01*
X0205798Y0201733D01*
X0173298Y0201733D01*
X0168298Y0198227D02*
X0160965Y0205560D01*
X0160965Y0210898D01*
X0155798Y0195483D02*
X0089548Y0195483D01*
X0082048Y0202983D01*
X0082048Y0210721D01*
X0082225Y0210898D01*
X0072225Y0211898D02*
X0072048Y0212076D01*
X0072048Y0217983D01*
X0083298Y0230483D01*
X0118170Y0226556D02*
X0126871Y0226556D01*
X0132048Y0231733D01*
X0183298Y0231733D01*
X0145798Y0226733D02*
X0139784Y0226733D01*
X0138534Y0225483D01*
X0137461Y0226556D01*
X0137146Y0239233D02*
X0129548Y0239233D01*
X0123298Y0245483D01*
X0042048Y0245483D01*
X0025798Y0229233D01*
X0025798Y0129952D01*
X0033524Y0122225D01*
X0052816Y0122225D02*
X0061556Y0122225D01*
X0062048Y0121733D01*
X0053800Y0134233D02*
X0052816Y0135217D01*
X0053800Y0134233D02*
X0167048Y0134233D01*
X0172048Y0129233D01*
X0172048Y0091733D01*
X0176422Y0087359D01*
X0198367Y0087359D01*
X0197741Y0086733D01*
X0164988Y0092796D02*
X0143111Y0092796D01*
X0142048Y0091733D01*
X0198367Y0057359D02*
X0198993Y0056733D01*
X0223298Y0056733D01*
X0179264Y0047443D02*
X0267757Y0047443D01*
X0282048Y0061733D01*
X0291665Y0061733D01*
X0291955Y0061443D01*
X0258367Y0087359D02*
X0267048Y0096040D01*
X0267048Y0117983D01*
X0273298Y0124233D01*
X0352048Y0124233D01*
X0355798Y0127983D01*
X0355798Y0174233D01*
X0400769Y0179233D02*
X0287048Y0179233D01*
X0277048Y0169233D01*
X0277048Y0140168D01*
X0273623Y0136743D01*
X0273007Y0137359D01*
X0258367Y0137359D01*
X0258367Y0147359D02*
X0268924Y0147359D01*
X0273298Y0151733D01*
X0273298Y0176418D01*
X0273623Y0176743D01*
X0258367Y0187359D02*
X0292674Y0187359D01*
X0297048Y0191733D01*
X0297048Y0211800D01*
X0296950Y0211898D01*
X0287048Y0210800D02*
X0287048Y0205483D01*
X0283298Y0201733D01*
X0254548Y0201733D01*
X0254149Y0201334D01*
X0254146Y0201334D01*
X0250798Y0197986D01*
X0253296Y0200485D02*
X0247048Y0194236D01*
X0247048Y0194233D01*
X0258367Y0197359D02*
X0272048Y0197359D01*
X0274548Y0205483D02*
X0253298Y0205483D01*
X0274548Y0205483D02*
X0276950Y0207885D01*
X0276950Y0211898D01*
X0286950Y0210898D02*
X0287048Y0210800D01*
X0232048Y0212739D02*
X0232048Y0215483D01*
X0231989Y0215542D01*
X0231989Y0222459D01*
X0222048Y0222650D02*
X0221989Y0221459D01*
X0222048Y0222650D02*
X0222048Y0212739D01*
X0162048Y0189233D02*
X0155798Y0195483D01*
X0153406Y0171080D02*
X0157128Y0167359D01*
X0198367Y0167359D01*
X0198367Y0147359D02*
X0175174Y0147359D01*
X0169548Y0141733D01*
X0153659Y0141733D01*
X0165172Y0137359D02*
X0198367Y0137359D01*
X0258367Y0127359D02*
X0258991Y0127983D01*
X0290798Y0127983D01*
X0282048Y0120483D02*
X0282048Y0098282D01*
X0286838Y0093491D01*
X0273623Y0136743D02*
X0273007Y0137359D01*
X0400769Y0179233D02*
X0401438Y0179902D01*
X0412540Y0122225D02*
X0409548Y0119233D01*
X0409548Y0114233D01*
X0412540Y0122225D02*
X0422894Y0122225D01*
X0137461Y0239548D02*
X0137146Y0239233D01*
D25*
X0145798Y0226733D03*
X0183298Y0231733D03*
X0194548Y0209233D03*
X0190798Y0205483D03*
X0173298Y0201733D03*
X0168298Y0198227D03*
X0162048Y0189233D03*
X0222048Y0212739D03*
X0232048Y0212739D03*
X0244548Y0205483D03*
X0247048Y0194233D03*
X0272048Y0197359D03*
X0352048Y0226733D03*
X0355798Y0174233D03*
X0290798Y0127983D03*
X0282048Y0120483D03*
X0243298Y0111733D03*
X0165172Y0137359D03*
X0153659Y0141733D03*
X0142048Y0091733D03*
X0062048Y0121733D03*
X0223298Y0056733D03*
X0409548Y0114233D03*
X0083298Y0230483D03*
M02*
