G75*
%MOIN*%
%OFA0B0*%
%FSLAX25Y25*%
%IPPOS*%
%LPD*%
%AMOC8*
5,1,8,0,0,1.08239X$1,22.5*
%
%ADD10C,0.08600*%
%ADD11C,0.07400*%
%ADD12OC8,0.10000*%
%ADD13R,0.07400X0.07400*%
%ADD14C,0.05150*%
%ADD15C,0.06000*%
%ADD16R,0.07400X0.07400*%
%ADD17R,0.07677X0.07677*%
%ADD18R,0.05937X0.05937*%
%ADD19C,0.01600*%
%ADD20R,0.02978X0.02978*%
%ADD21C,0.00600*%
D10*
X0300073Y0171870D03*
X0313993Y0185789D03*
X0327912Y0199708D03*
D11*
X0355690Y0211898D03*
X0365690Y0210898D03*
X0375690Y0211898D03*
X0296950Y0211898D03*
X0286950Y0210898D03*
X0276950Y0211898D03*
X0231989Y0222459D03*
X0221989Y0221459D03*
X0211989Y0222459D03*
X0170965Y0211898D03*
X0160965Y0210898D03*
X0150965Y0211898D03*
X0092225Y0211898D03*
X0082225Y0210898D03*
X0072225Y0211898D03*
X0080209Y0194044D03*
X0108493Y0165760D03*
X0158105Y0100050D03*
X0164988Y0092796D03*
X0165122Y0061585D03*
X0172900Y0055221D03*
X0179264Y0047443D03*
X0277813Y0047300D03*
X0284177Y0055079D03*
X0291955Y0061443D03*
X0273623Y0136743D03*
X0273623Y0176743D03*
D12*
X0153406Y0171080D03*
X0153406Y0141480D03*
D13*
X0180965Y0210898D03*
X0241989Y0221459D03*
X0306950Y0210898D03*
X0385690Y0210898D03*
X0102225Y0210898D03*
D14*
X0195792Y0197359D02*
X0200942Y0197359D01*
X0200942Y0187359D02*
X0195792Y0187359D01*
X0195792Y0177359D02*
X0200942Y0177359D01*
X0200942Y0167359D02*
X0195792Y0167359D01*
X0195792Y0157359D02*
X0200942Y0157359D01*
X0200942Y0147359D02*
X0195792Y0147359D01*
X0195792Y0137359D02*
X0200942Y0137359D01*
X0200942Y0127359D02*
X0195792Y0127359D01*
X0195792Y0117359D02*
X0200942Y0117359D01*
X0200942Y0107359D02*
X0195792Y0107359D01*
X0195792Y0097359D02*
X0200942Y0097359D01*
X0200942Y0087359D02*
X0195792Y0087359D01*
X0195792Y0077359D02*
X0200942Y0077359D01*
X0200942Y0067359D02*
X0195792Y0067359D01*
X0195792Y0057359D02*
X0200942Y0057359D01*
X0255792Y0057359D02*
X0260942Y0057359D01*
X0260942Y0067359D02*
X0255792Y0067359D01*
X0255792Y0077359D02*
X0260942Y0077359D01*
X0260942Y0087359D02*
X0255792Y0087359D01*
X0255792Y0097359D02*
X0260942Y0097359D01*
X0260942Y0107359D02*
X0255792Y0107359D01*
X0255792Y0117359D02*
X0260942Y0117359D01*
X0260942Y0127359D02*
X0255792Y0127359D01*
X0255792Y0137359D02*
X0260942Y0137359D01*
X0260942Y0147359D02*
X0255792Y0147359D01*
X0255792Y0157359D02*
X0260942Y0157359D01*
X0260942Y0167359D02*
X0255792Y0167359D01*
X0255792Y0177359D02*
X0260942Y0177359D01*
X0260942Y0187359D02*
X0255792Y0187359D01*
X0255792Y0197359D02*
X0260942Y0197359D01*
D15*
X0092132Y0155338D02*
X0087889Y0159581D01*
X0075303Y0146994D02*
X0079545Y0142752D01*
X0061443Y0160854D02*
X0057201Y0165096D01*
X0069787Y0177683D02*
X0074030Y0173440D01*
D16*
G36*
X0151085Y0102074D02*
X0145991Y0107440D01*
X0151357Y0112534D01*
X0156451Y0107168D01*
X0151085Y0102074D01*
G37*
D17*
G36*
X0279891Y0095259D02*
X0274464Y0089832D01*
X0269037Y0095259D01*
X0274464Y0100686D01*
X0279891Y0095259D01*
G37*
G36*
X0299690Y0114493D02*
X0294263Y0109066D01*
X0288836Y0114493D01*
X0294263Y0119920D01*
X0299690Y0114493D01*
G37*
G36*
X0331156Y0082885D02*
X0325729Y0077458D01*
X0320302Y0082885D01*
X0325729Y0088312D01*
X0331156Y0082885D01*
G37*
G36*
X0311711Y0063439D02*
X0306284Y0058012D01*
X0300857Y0063439D01*
X0306284Y0068866D01*
X0311711Y0063439D01*
G37*
D18*
G36*
X0308713Y0075814D02*
X0304516Y0071617D01*
X0300319Y0075814D01*
X0304516Y0080011D01*
X0308713Y0075814D01*
G37*
G36*
X0317198Y0084016D02*
X0313001Y0079819D01*
X0308804Y0084016D01*
X0313001Y0088213D01*
X0317198Y0084016D01*
G37*
G36*
X0308147Y0092926D02*
X0303950Y0088729D01*
X0299753Y0092926D01*
X0303950Y0097123D01*
X0308147Y0092926D01*
G37*
G36*
X0299874Y0084653D02*
X0295677Y0080456D01*
X0291480Y0084653D01*
X0295677Y0088850D01*
X0299874Y0084653D01*
G37*
G36*
X0291035Y0093491D02*
X0286838Y0089294D01*
X0282641Y0093491D01*
X0286838Y0097688D01*
X0291035Y0093491D01*
G37*
G36*
X0299379Y0101694D02*
X0295182Y0097497D01*
X0290985Y0101694D01*
X0295182Y0105891D01*
X0299379Y0101694D01*
G37*
D19*
X0295677Y0084653D02*
X0295677Y0075362D01*
X0264548Y0044233D01*
X0217048Y0044233D01*
X0209548Y0051733D01*
X0209548Y0076733D01*
X0204548Y0081733D01*
X0154548Y0081733D01*
X0149548Y0086733D01*
X0149548Y0105631D01*
X0151221Y0107304D01*
X0147048Y0119233D02*
X0168922Y0097359D01*
X0198367Y0097359D01*
X0198993Y0106733D02*
X0228298Y0106733D01*
X0231423Y0109858D01*
X0232048Y0110483D01*
X0232048Y0212739D01*
X0222048Y0212739D02*
X0222048Y0121733D01*
X0221989Y0121674D01*
X0220173Y0119858D01*
X0217048Y0116733D01*
X0198993Y0116733D01*
X0198367Y0117359D01*
X0198367Y0127359D02*
X0178922Y0127359D01*
X0168298Y0137983D01*
X0168298Y0198227D01*
X0173298Y0201733D02*
X0154548Y0201733D01*
X0150965Y0205316D01*
X0150965Y0211898D01*
X0173298Y0230483D02*
X0083298Y0230483D01*
X0162048Y0189233D02*
X0162048Y0140483D01*
X0165172Y0137359D01*
X0153659Y0141733D02*
X0153406Y0141480D01*
X0147048Y0138788D02*
X0147048Y0119233D01*
X0147048Y0138788D02*
X0147006Y0138829D01*
X0147006Y0166775D01*
X0138220Y0175562D01*
X0071908Y0175562D01*
X0090010Y0157460D02*
X0100193Y0157460D01*
X0108493Y0165760D01*
X0187048Y0209233D02*
X0187048Y0215483D01*
X0173298Y0230483D01*
X0183298Y0231733D02*
X0190798Y0224233D01*
X0190798Y0212983D01*
X0194548Y0209233D01*
X0190798Y0205483D02*
X0187048Y0209233D01*
X0237048Y0184233D02*
X0237048Y0062983D01*
X0230798Y0056733D01*
X0223298Y0056733D01*
X0198367Y0067359D02*
X0192674Y0067359D01*
X0187048Y0061733D01*
X0187048Y0051733D01*
X0197048Y0041733D01*
X0267048Y0041733D01*
X0272048Y0046733D01*
X0277246Y0046733D01*
X0277813Y0047300D01*
X0267048Y0064233D02*
X0260174Y0057359D01*
X0258367Y0057359D01*
X0267048Y0064233D02*
X0267048Y0096733D01*
X0294548Y0124233D01*
X0357048Y0124233D01*
X0364548Y0131733D01*
X0364548Y0209757D01*
X0365690Y0210898D01*
X0355798Y0211790D02*
X0355690Y0211898D01*
X0355798Y0211790D02*
X0355798Y0174233D01*
X0314548Y0185234D02*
X0314548Y0132983D01*
X0309548Y0127983D01*
X0290798Y0127983D01*
X0282048Y0120483D02*
X0282048Y0190483D01*
X0275172Y0197359D01*
X0272048Y0197359D01*
X0250798Y0199233D02*
X0244548Y0205483D01*
X0250798Y0199233D02*
X0250798Y0122983D01*
X0256422Y0117359D01*
X0258367Y0117359D01*
X0243298Y0111733D02*
X0243298Y0100483D01*
X0246422Y0097359D01*
X0258367Y0097359D01*
X0198993Y0106733D02*
X0198367Y0107359D01*
X0198367Y0077359D02*
X0170174Y0077359D01*
X0164548Y0071733D01*
X0164548Y0062158D01*
X0165122Y0061585D01*
X0258367Y0167359D02*
X0262674Y0167359D01*
X0267048Y0171733D01*
X0267048Y0216186D01*
X0260524Y0222709D01*
X0241989Y0221459D01*
X0247048Y0194233D02*
X0237048Y0184233D01*
X0300073Y0186009D02*
X0300073Y0171870D01*
X0313993Y0185789D02*
X0314548Y0185234D01*
X0307048Y0192983D02*
X0307048Y0210800D01*
X0306950Y0210898D01*
X0307048Y0192983D02*
X0300073Y0186009D01*
D20*
X0272048Y0197359D03*
X0247048Y0194233D03*
X0244548Y0205483D03*
X0232048Y0212739D03*
X0222048Y0212739D03*
X0194548Y0209233D03*
X0190798Y0205483D03*
X0173298Y0201733D03*
X0168298Y0198227D03*
X0162048Y0189233D03*
X0145798Y0226733D03*
X0183298Y0231733D03*
X0083298Y0230483D03*
X0153659Y0141733D03*
X0165172Y0137359D03*
X0142048Y0091733D03*
X0062048Y0121733D03*
X0223298Y0056733D03*
X0243298Y0111733D03*
X0282048Y0120483D03*
X0290798Y0127983D03*
X0355798Y0174233D03*
X0352048Y0226733D03*
X0409548Y0114233D03*
D21*
X0151611Y0079720D02*
X0127030Y0079720D01*
X0127643Y0079121D02*
X0152210Y0079121D01*
X0152565Y0078766D02*
X0153852Y0078233D01*
X0166098Y0078233D01*
X0161581Y0073716D01*
X0161048Y0072429D01*
X0161048Y0066562D01*
X0159696Y0065210D01*
X0158722Y0062858D01*
X0158722Y0060312D01*
X0159696Y0057959D01*
X0161496Y0056159D01*
X0163849Y0055185D01*
X0166395Y0055185D01*
X0166500Y0055228D01*
X0166500Y0053948D01*
X0167474Y0051595D01*
X0169274Y0049795D01*
X0171627Y0048821D01*
X0174173Y0048821D01*
X0174498Y0048955D01*
X0174387Y0048613D01*
X0174264Y0047836D01*
X0174264Y0047049D01*
X0174387Y0046272D01*
X0174630Y0045523D01*
X0174987Y0044822D01*
X0175450Y0044185D01*
X0175516Y0044119D01*
X0178839Y0047442D01*
X0179264Y0047018D01*
X0179688Y0047442D01*
X0183011Y0044119D01*
X0183078Y0044185D01*
X0183540Y0044822D01*
X0183897Y0045523D01*
X0184141Y0046272D01*
X0184264Y0047049D01*
X0184264Y0047836D01*
X0184141Y0048613D01*
X0183897Y0049362D01*
X0183540Y0050063D01*
X0183078Y0050700D01*
X0183011Y0050766D01*
X0179688Y0047443D01*
X0179264Y0047867D01*
X0182587Y0051190D01*
X0182521Y0051256D01*
X0181884Y0051719D01*
X0181183Y0052076D01*
X0180435Y0052319D01*
X0179657Y0052442D01*
X0178870Y0052442D01*
X0178663Y0052410D01*
X0179300Y0053948D01*
X0179300Y0056494D01*
X0178325Y0058846D01*
X0176525Y0060646D01*
X0174173Y0061621D01*
X0171627Y0061621D01*
X0171522Y0061577D01*
X0171522Y0062858D01*
X0170547Y0065210D01*
X0168747Y0067010D01*
X0168048Y0067300D01*
X0168048Y0070283D01*
X0171624Y0073859D01*
X0191832Y0073859D01*
X0192804Y0072887D01*
X0194079Y0072359D01*
X0192804Y0071831D01*
X0191730Y0070756D01*
X0190691Y0070326D01*
X0185065Y0064700D01*
X0184081Y0063716D01*
X0183548Y0062429D01*
X0183548Y0051037D01*
X0184081Y0049750D01*
X0185065Y0048766D01*
X0185065Y0048766D01*
X0195065Y0038766D01*
X0195623Y0038535D01*
X0181576Y0038535D01*
X0181543Y0038548D01*
X0180722Y0038535D01*
X0180670Y0038535D01*
X0178021Y0038618D01*
X0172769Y0039533D01*
X0167781Y0041415D01*
X0163234Y0044199D01*
X0159290Y0047785D01*
X0157865Y0049505D01*
X0157765Y0049737D01*
X0157395Y0050098D01*
X0157078Y0050521D01*
X0157078Y0050521D01*
X0156899Y0050759D01*
X0156576Y0050897D01*
X0118097Y0088434D01*
X0120068Y0087906D01*
X0122807Y0087906D01*
X0125453Y0088614D01*
X0127825Y0089984D01*
X0129762Y0091921D01*
X0131131Y0094293D01*
X0131840Y0096938D01*
X0131840Y0099677D01*
X0131131Y0102323D01*
X0129762Y0104695D01*
X0127825Y0106632D01*
X0125453Y0108001D01*
X0122807Y0108710D01*
X0120068Y0108710D01*
X0117423Y0108001D01*
X0115051Y0106632D01*
X0113114Y0104695D01*
X0111744Y0102323D01*
X0111035Y0099677D01*
X0111035Y0096938D01*
X0111242Y0096167D01*
X0109564Y0097845D01*
X0102519Y0102962D01*
X0094760Y0106914D01*
X0094760Y0106914D01*
X0086479Y0109604D01*
X0086479Y0109604D01*
X0077879Y0110966D01*
X0077879Y0110966D01*
X0074679Y0110966D01*
X0074678Y0110967D01*
X0072372Y0110967D01*
X0072370Y0110967D01*
X0049286Y0110967D01*
X0049285Y0110967D01*
X0048183Y0110967D01*
X0045766Y0111127D01*
X0040998Y0112163D01*
X0036525Y0114113D01*
X0032521Y0116903D01*
X0029141Y0120423D01*
X0026518Y0124537D01*
X0024751Y0129085D01*
X0023910Y0133892D01*
X0023850Y0136284D01*
X0023850Y0136386D01*
X0023869Y0137189D01*
X0023850Y0137240D01*
X0023850Y0222761D01*
X0023864Y0222796D01*
X0023850Y0223615D01*
X0023850Y0223667D01*
X0023947Y0226155D01*
X0024973Y0231051D01*
X0027058Y0235598D01*
X0030099Y0239571D01*
X0033943Y0242772D01*
X0038402Y0245041D01*
X0043252Y0246267D01*
X0045733Y0246467D01*
X0221007Y0246467D01*
X0219885Y0245345D01*
X0218516Y0242973D01*
X0217807Y0240327D01*
X0217807Y0237588D01*
X0218516Y0234942D01*
X0219885Y0232570D01*
X0221822Y0230634D01*
X0224194Y0229264D01*
X0226840Y0228555D01*
X0229579Y0228555D01*
X0232225Y0229264D01*
X0234597Y0230634D01*
X0236533Y0232570D01*
X0237903Y0234942D01*
X0238612Y0237588D01*
X0238612Y0240327D01*
X0237903Y0242973D01*
X0236533Y0245345D01*
X0235412Y0246467D01*
X0411302Y0246467D01*
X0413437Y0246239D01*
X0417719Y0245132D01*
X0421705Y0243215D01*
X0425243Y0240560D01*
X0428198Y0237269D01*
X0430457Y0233467D01*
X0431936Y0229298D01*
X0432577Y0224922D01*
X0432575Y0223363D01*
X0432569Y0223348D01*
X0432569Y0222600D01*
X0432532Y0221853D01*
X0432569Y0221748D01*
X0432569Y0138257D01*
X0432529Y0138143D01*
X0432569Y0137406D01*
X0432569Y0136667D01*
X0432579Y0136644D01*
X0432588Y0134824D01*
X0431888Y0129952D01*
X0430246Y0125311D01*
X0427726Y0121082D01*
X0424427Y0117429D01*
X0420475Y0114493D01*
X0416025Y0112390D01*
X0411248Y0111199D01*
X0408853Y0110967D01*
X0407845Y0110967D01*
X0407843Y0110967D01*
X0384843Y0110967D01*
X0384841Y0110967D01*
X0382535Y0110967D01*
X0382534Y0110967D01*
X0379488Y0110967D01*
X0371189Y0109661D01*
X0363193Y0107081D01*
X0355697Y0103288D01*
X0348881Y0098376D01*
X0345095Y0094625D01*
X0345313Y0095438D01*
X0345313Y0098177D01*
X0344604Y0100823D01*
X0343234Y0103195D01*
X0341297Y0105132D01*
X0338925Y0106501D01*
X0336280Y0107210D01*
X0333541Y0107210D01*
X0330895Y0106501D01*
X0328523Y0105132D01*
X0326586Y0103195D01*
X0325217Y0100823D01*
X0324508Y0098177D01*
X0324508Y0095438D01*
X0325217Y0092793D01*
X0326244Y0091013D01*
X0325192Y0091013D01*
X0324200Y0090602D01*
X0319316Y0085718D01*
X0314531Y0090503D01*
X0313538Y0090914D01*
X0312464Y0090914D01*
X0311472Y0090503D01*
X0306514Y0085546D01*
X0306103Y0084553D01*
X0306103Y0083479D01*
X0306514Y0082487D01*
X0311472Y0077529D01*
X0312464Y0077118D01*
X0313538Y0077118D01*
X0314531Y0077529D01*
X0318184Y0081183D01*
X0324200Y0075167D01*
X0325192Y0074756D01*
X0325603Y0074756D01*
X0314412Y0063879D01*
X0314412Y0063977D01*
X0314001Y0064969D01*
X0307844Y0071126D01*
X0311003Y0074284D01*
X0311414Y0075277D01*
X0311414Y0076351D01*
X0311003Y0077343D01*
X0306045Y0082301D01*
X0305053Y0082712D01*
X0303979Y0082712D01*
X0302986Y0082301D01*
X0299177Y0078491D01*
X0299177Y0080136D01*
X0302164Y0083123D01*
X0302575Y0084116D01*
X0302575Y0085190D01*
X0302164Y0086182D01*
X0297206Y0091140D01*
X0296214Y0091551D01*
X0295140Y0091551D01*
X0294148Y0091140D01*
X0289190Y0086182D01*
X0288779Y0085190D01*
X0288779Y0084116D01*
X0289190Y0083123D01*
X0292177Y0080136D01*
X0292177Y0076812D01*
X0263098Y0047733D01*
X0218498Y0047733D01*
X0213048Y0053183D01*
X0213048Y0077429D01*
X0212515Y0078716D01*
X0211531Y0079700D01*
X0206531Y0084700D01*
X0205693Y0085047D01*
X0206217Y0086310D01*
X0206217Y0088408D01*
X0205413Y0090347D01*
X0203930Y0091831D01*
X0202654Y0092359D01*
X0203930Y0092887D01*
X0205413Y0094371D01*
X0206217Y0096310D01*
X0206217Y0098408D01*
X0205413Y0100347D01*
X0203930Y0101831D01*
X0202654Y0102359D01*
X0203930Y0102887D01*
X0204275Y0103233D01*
X0228994Y0103233D01*
X0230281Y0103766D01*
X0231265Y0104750D01*
X0233406Y0106891D01*
X0233548Y0107033D01*
X0233548Y0064433D01*
X0229348Y0060233D01*
X0226594Y0060233D01*
X0226316Y0060511D01*
X0225324Y0060922D01*
X0221272Y0060922D01*
X0220280Y0060511D01*
X0219520Y0059751D01*
X0219109Y0058759D01*
X0219109Y0054707D01*
X0219520Y0053715D01*
X0220280Y0052955D01*
X0221272Y0052544D01*
X0225324Y0052544D01*
X0226316Y0052955D01*
X0226594Y0053233D01*
X0231494Y0053233D01*
X0232781Y0053766D01*
X0233765Y0054750D01*
X0239031Y0060016D01*
X0240015Y0061000D01*
X0240548Y0062287D01*
X0240548Y0098283D01*
X0243455Y0095376D01*
X0244439Y0094392D01*
X0245726Y0093859D01*
X0251832Y0093859D01*
X0252804Y0092887D01*
X0254079Y0092359D01*
X0252804Y0091831D01*
X0251320Y0090347D01*
X0250517Y0088408D01*
X0250517Y0086310D01*
X0251320Y0084371D01*
X0252804Y0082887D01*
X0254079Y0082359D01*
X0252804Y0081831D01*
X0251320Y0080347D01*
X0250517Y0078408D01*
X0250517Y0076310D01*
X0251320Y0074371D01*
X0252804Y0072887D01*
X0254079Y0072359D01*
X0252804Y0071831D01*
X0251320Y0070347D01*
X0250517Y0068408D01*
X0250517Y0066310D01*
X0251320Y0064371D01*
X0252804Y0062887D01*
X0254079Y0062359D01*
X0252804Y0061831D01*
X0251320Y0060347D01*
X0250517Y0058408D01*
X0250517Y0056310D01*
X0251320Y0054371D01*
X0252804Y0052887D01*
X0254743Y0052084D01*
X0261991Y0052084D01*
X0263930Y0052887D01*
X0265413Y0054371D01*
X0266217Y0056310D01*
X0266217Y0058408D01*
X0266204Y0058439D01*
X0269031Y0061266D01*
X0270015Y0062250D01*
X0270548Y0063537D01*
X0270548Y0089928D01*
X0272934Y0087542D01*
X0273927Y0087131D01*
X0275001Y0087131D01*
X0275993Y0087542D01*
X0280382Y0091931D01*
X0285309Y0087004D01*
X0286301Y0086593D01*
X0287375Y0086593D01*
X0288368Y0087004D01*
X0293325Y0091962D01*
X0293736Y0092954D01*
X0293736Y0094029D01*
X0293325Y0095021D01*
X0288368Y0099979D01*
X0287375Y0100390D01*
X0286301Y0100390D01*
X0285309Y0099979D01*
X0282150Y0096820D01*
X0277117Y0101853D01*
X0287387Y0112122D01*
X0292490Y0107018D01*
X0288695Y0103223D01*
X0288284Y0102231D01*
X0288284Y0101157D01*
X0288695Y0100164D01*
X0293653Y0095207D01*
X0294645Y0094796D01*
X0295719Y0094796D01*
X0296712Y0095207D01*
X0301669Y0100164D01*
X0302080Y0101157D01*
X0302080Y0102231D01*
X0301669Y0103223D01*
X0296955Y0107938D01*
X0301980Y0112963D01*
X0302391Y0113955D01*
X0302391Y0115030D01*
X0301980Y0116022D01*
X0297269Y0120733D01*
X0357744Y0120733D01*
X0359031Y0121266D01*
X0367515Y0129750D01*
X0368048Y0131037D01*
X0368048Y0204948D01*
X0369315Y0205473D01*
X0371115Y0207273D01*
X0371752Y0208811D01*
X0371876Y0208641D01*
X0372432Y0208085D01*
X0373069Y0207622D01*
X0373770Y0207265D01*
X0374519Y0207022D01*
X0375296Y0206898D01*
X0375390Y0206898D01*
X0375390Y0211598D01*
X0375990Y0211598D01*
X0375990Y0206898D01*
X0376083Y0206898D01*
X0376861Y0207022D01*
X0377609Y0207265D01*
X0378310Y0207622D01*
X0378947Y0208085D01*
X0379290Y0208427D01*
X0379290Y0206661D01*
X0379701Y0205669D01*
X0380460Y0204909D01*
X0381453Y0204498D01*
X0389927Y0204498D01*
X0390919Y0204909D01*
X0391679Y0205669D01*
X0392090Y0206661D01*
X0392090Y0215135D01*
X0391679Y0216128D01*
X0390919Y0216887D01*
X0389927Y0217298D01*
X0381453Y0217298D01*
X0380460Y0216887D01*
X0379701Y0216128D01*
X0379358Y0215301D01*
X0378947Y0215712D01*
X0378310Y0216175D01*
X0377609Y0216532D01*
X0376861Y0216775D01*
X0376083Y0216898D01*
X0375990Y0216898D01*
X0375990Y0212198D01*
X0375390Y0212198D01*
X0375390Y0216898D01*
X0375296Y0216898D01*
X0374519Y0216775D01*
X0373770Y0216532D01*
X0373069Y0216175D01*
X0372432Y0215712D01*
X0371876Y0215156D01*
X0371413Y0214519D01*
X0371250Y0214199D01*
X0371115Y0214524D01*
X0369315Y0216324D01*
X0366963Y0217298D01*
X0364417Y0217298D01*
X0362064Y0216324D01*
X0361159Y0215419D01*
X0361115Y0215524D01*
X0359315Y0217324D01*
X0356963Y0218298D01*
X0354417Y0218298D01*
X0352064Y0217324D01*
X0350264Y0215524D01*
X0349290Y0213171D01*
X0349290Y0210625D01*
X0350264Y0208273D01*
X0352064Y0206473D01*
X0352298Y0206376D01*
X0352298Y0177529D01*
X0352020Y0177251D01*
X0351609Y0176259D01*
X0351609Y0172207D01*
X0352020Y0171215D01*
X0352780Y0170455D01*
X0353772Y0170044D01*
X0357824Y0170044D01*
X0358816Y0170455D01*
X0359576Y0171215D01*
X0359987Y0172207D01*
X0359987Y0176259D01*
X0359576Y0177251D01*
X0359298Y0177529D01*
X0359298Y0206466D01*
X0359315Y0206473D01*
X0360221Y0207378D01*
X0360264Y0207273D01*
X0361048Y0206489D01*
X0361048Y0133183D01*
X0355598Y0127733D01*
X0314248Y0127733D01*
X0316531Y0130016D01*
X0317515Y0131000D01*
X0318048Y0132287D01*
X0318048Y0179945D01*
X0319927Y0181824D01*
X0320993Y0184397D01*
X0320993Y0187181D01*
X0319927Y0189754D01*
X0317958Y0191723D01*
X0315385Y0192789D01*
X0312601Y0192789D01*
X0310374Y0191867D01*
X0310548Y0192287D01*
X0310548Y0204498D01*
X0311187Y0204498D01*
X0312179Y0204909D01*
X0312939Y0205669D01*
X0313350Y0206661D01*
X0313350Y0215135D01*
X0312939Y0216128D01*
X0312179Y0216887D01*
X0311187Y0217298D01*
X0302713Y0217298D01*
X0301720Y0216887D01*
X0300961Y0216128D01*
X0300618Y0215301D01*
X0300207Y0215712D01*
X0299570Y0216175D01*
X0298869Y0216532D01*
X0298120Y0216775D01*
X0297343Y0216898D01*
X0297250Y0216898D01*
X0297250Y0212198D01*
X0296650Y0212198D01*
X0296650Y0216898D01*
X0296556Y0216898D01*
X0295779Y0216775D01*
X0295030Y0216532D01*
X0294329Y0216175D01*
X0293692Y0215712D01*
X0293136Y0215156D01*
X0292673Y0214519D01*
X0292510Y0214199D01*
X0292375Y0214524D01*
X0290575Y0216324D01*
X0288223Y0217298D01*
X0285677Y0217298D01*
X0283324Y0216324D01*
X0282419Y0215419D01*
X0282375Y0215524D01*
X0280575Y0217324D01*
X0278223Y0218298D01*
X0275677Y0218298D01*
X0273324Y0217324D01*
X0271524Y0215524D01*
X0270550Y0213171D01*
X0270550Y0210625D01*
X0271524Y0208273D01*
X0273324Y0206473D01*
X0275677Y0205498D01*
X0278223Y0205498D01*
X0280575Y0206473D01*
X0281480Y0207378D01*
X0281524Y0207273D01*
X0283324Y0205473D01*
X0285677Y0204498D01*
X0288223Y0204498D01*
X0290575Y0205473D01*
X0292375Y0207273D01*
X0293012Y0208811D01*
X0293136Y0208641D01*
X0293692Y0208085D01*
X0294329Y0207622D01*
X0295030Y0207265D01*
X0295779Y0207022D01*
X0296556Y0206898D01*
X0296650Y0206898D01*
X0296650Y0211598D01*
X0297250Y0211598D01*
X0297250Y0206898D01*
X0297343Y0206898D01*
X0298120Y0207022D01*
X0298869Y0207265D01*
X0299570Y0207622D01*
X0300207Y0208085D01*
X0300550Y0208427D01*
X0300550Y0206661D01*
X0300961Y0205669D01*
X0301720Y0204909D01*
X0302713Y0204498D01*
X0303548Y0204498D01*
X0303548Y0194433D01*
X0297106Y0187991D01*
X0296573Y0186705D01*
X0296573Y0177997D01*
X0296108Y0177804D01*
X0294139Y0175835D01*
X0293073Y0173262D01*
X0293073Y0170477D01*
X0294139Y0167904D01*
X0296108Y0165935D01*
X0298681Y0164870D01*
X0301466Y0164870D01*
X0304039Y0165935D01*
X0306008Y0167904D01*
X0307073Y0170477D01*
X0307073Y0173262D01*
X0306008Y0175835D01*
X0304039Y0177804D01*
X0303573Y0177997D01*
X0303573Y0184559D01*
X0307556Y0188542D01*
X0306993Y0187181D01*
X0306993Y0184397D01*
X0308059Y0181824D01*
X0310028Y0179855D01*
X0311048Y0179432D01*
X0311048Y0134433D01*
X0308098Y0131483D01*
X0294094Y0131483D01*
X0293816Y0131761D01*
X0292824Y0132172D01*
X0288772Y0132172D01*
X0287780Y0131761D01*
X0287020Y0131001D01*
X0286609Y0130009D01*
X0286609Y0125957D01*
X0287020Y0124965D01*
X0287780Y0124205D01*
X0288772Y0123794D01*
X0289159Y0123794D01*
X0286237Y0120872D01*
X0286237Y0122509D01*
X0285826Y0123501D01*
X0285548Y0123779D01*
X0285548Y0191179D01*
X0285015Y0192466D01*
X0277155Y0200326D01*
X0275868Y0200859D01*
X0275344Y0200859D01*
X0275066Y0201137D01*
X0274074Y0201548D01*
X0270548Y0201548D01*
X0270548Y0216882D01*
X0270015Y0218168D01*
X0263405Y0224778D01*
X0263351Y0224887D01*
X0262916Y0225268D01*
X0262507Y0225677D01*
X0262395Y0225723D01*
X0262303Y0225803D01*
X0261755Y0225988D01*
X0261221Y0226209D01*
X0261099Y0226209D01*
X0260984Y0226248D01*
X0260406Y0226209D01*
X0259828Y0226209D01*
X0259716Y0226163D01*
X0248389Y0225399D01*
X0248389Y0225697D01*
X0247978Y0226689D01*
X0247218Y0227448D01*
X0246226Y0227859D01*
X0237752Y0227859D01*
X0236760Y0227448D01*
X0236405Y0227094D01*
X0235614Y0227885D01*
X0233262Y0228859D01*
X0230716Y0228859D01*
X0228364Y0227885D01*
X0226563Y0226085D01*
X0226520Y0225980D01*
X0225614Y0226885D01*
X0223262Y0227859D01*
X0220716Y0227859D01*
X0218364Y0226885D01*
X0216563Y0225085D01*
X0216429Y0224760D01*
X0216265Y0225080D01*
X0215803Y0225717D01*
X0215246Y0226273D01*
X0214610Y0226736D01*
X0213908Y0227093D01*
X0213160Y0227336D01*
X0212382Y0227459D01*
X0212289Y0227459D01*
X0212289Y0222759D01*
X0211689Y0222759D01*
X0211689Y0222159D01*
X0212289Y0222159D01*
X0212289Y0217459D01*
X0212382Y0217459D01*
X0213160Y0217583D01*
X0213908Y0217826D01*
X0214610Y0218183D01*
X0215246Y0218646D01*
X0215803Y0219202D01*
X0215926Y0219372D01*
X0216563Y0217834D01*
X0218364Y0216034D01*
X0218493Y0215980D01*
X0218270Y0215757D01*
X0217859Y0214765D01*
X0217859Y0210713D01*
X0218270Y0209720D01*
X0218548Y0209442D01*
X0218548Y0123183D01*
X0218190Y0122825D01*
X0215598Y0120233D01*
X0205461Y0120233D01*
X0205413Y0120347D01*
X0203930Y0121831D01*
X0202654Y0122359D01*
X0203930Y0122887D01*
X0205413Y0124371D01*
X0206217Y0126310D01*
X0206217Y0128408D01*
X0205413Y0130347D01*
X0203930Y0131831D01*
X0202654Y0132359D01*
X0203930Y0132887D01*
X0205413Y0134371D01*
X0206217Y0136310D01*
X0206217Y0138408D01*
X0205413Y0140347D01*
X0203930Y0141831D01*
X0202654Y0142359D01*
X0203930Y0142887D01*
X0205413Y0144371D01*
X0206217Y0146310D01*
X0206217Y0148408D01*
X0205413Y0150347D01*
X0203930Y0151831D01*
X0202654Y0152359D01*
X0203930Y0152887D01*
X0205413Y0154371D01*
X0206217Y0156310D01*
X0206217Y0158408D01*
X0205413Y0160347D01*
X0203930Y0161831D01*
X0201991Y0162634D01*
X0194743Y0162634D01*
X0192804Y0161831D01*
X0191320Y0160347D01*
X0190517Y0158408D01*
X0190517Y0156310D01*
X0191320Y0154371D01*
X0192804Y0152887D01*
X0194079Y0152359D01*
X0192804Y0151831D01*
X0191320Y0150347D01*
X0190517Y0148408D01*
X0190517Y0146310D01*
X0191320Y0144371D01*
X0192804Y0142887D01*
X0194079Y0142359D01*
X0192804Y0141831D01*
X0191320Y0140347D01*
X0190517Y0138408D01*
X0190517Y0136310D01*
X0191320Y0134371D01*
X0192804Y0132887D01*
X0194079Y0132359D01*
X0192804Y0131831D01*
X0191832Y0130859D01*
X0180372Y0130859D01*
X0171798Y0139433D01*
X0171798Y0194931D01*
X0172076Y0195209D01*
X0172487Y0196201D01*
X0172487Y0197544D01*
X0175324Y0197544D01*
X0176316Y0197955D01*
X0177076Y0198715D01*
X0177487Y0199707D01*
X0177487Y0203759D01*
X0177181Y0204498D01*
X0185202Y0204498D01*
X0186195Y0204909D01*
X0186308Y0205023D01*
X0186609Y0204722D01*
X0186609Y0203457D01*
X0187020Y0202465D01*
X0187780Y0201705D01*
X0188772Y0201294D01*
X0192267Y0201294D01*
X0191320Y0200347D01*
X0190517Y0198408D01*
X0190517Y0196310D01*
X0191320Y0194371D01*
X0192804Y0192887D01*
X0194079Y0192359D01*
X0192804Y0191831D01*
X0191320Y0190347D01*
X0190517Y0188408D01*
X0190517Y0186310D01*
X0191320Y0184371D01*
X0192804Y0182887D01*
X0194079Y0182359D01*
X0192804Y0181831D01*
X0191320Y0180347D01*
X0190517Y0178408D01*
X0190517Y0176310D01*
X0191320Y0174371D01*
X0192804Y0172887D01*
X0194743Y0172084D01*
X0201991Y0172084D01*
X0203930Y0172887D01*
X0205413Y0174371D01*
X0206217Y0176310D01*
X0206217Y0178408D01*
X0205413Y0180347D01*
X0203930Y0181831D01*
X0202654Y0182359D01*
X0203930Y0182887D01*
X0205413Y0184371D01*
X0206217Y0186310D01*
X0206217Y0188408D01*
X0205413Y0190347D01*
X0203930Y0191831D01*
X0202654Y0192359D01*
X0203930Y0192887D01*
X0205413Y0194371D01*
X0206217Y0196310D01*
X0206217Y0198408D01*
X0205413Y0200347D01*
X0203930Y0201831D01*
X0201991Y0202634D01*
X0194743Y0202634D01*
X0194626Y0202585D01*
X0194987Y0203457D01*
X0194987Y0205044D01*
X0196574Y0205044D01*
X0197566Y0205455D01*
X0198326Y0206215D01*
X0198737Y0207207D01*
X0198737Y0211259D01*
X0198326Y0212251D01*
X0197566Y0213011D01*
X0196574Y0213422D01*
X0195309Y0213422D01*
X0194298Y0214433D01*
X0194298Y0224929D01*
X0193765Y0226216D01*
X0187487Y0232494D01*
X0187487Y0233759D01*
X0187076Y0234751D01*
X0186316Y0235511D01*
X0185324Y0235922D01*
X0181272Y0235922D01*
X0180280Y0235511D01*
X0179520Y0234751D01*
X0179109Y0233759D01*
X0179109Y0229707D01*
X0179399Y0229007D01*
X0176295Y0232393D01*
X0176265Y0232466D01*
X0175827Y0232904D01*
X0175408Y0233361D01*
X0175336Y0233395D01*
X0175281Y0233450D01*
X0174708Y0233688D01*
X0174146Y0233950D01*
X0174067Y0233953D01*
X0173994Y0233983D01*
X0173374Y0233983D01*
X0172755Y0234010D01*
X0172681Y0233983D01*
X0086594Y0233983D01*
X0086316Y0234261D01*
X0085324Y0234672D01*
X0081272Y0234672D01*
X0080280Y0234261D01*
X0079520Y0233501D01*
X0079109Y0232509D01*
X0079109Y0228457D01*
X0079520Y0227465D01*
X0080280Y0226705D01*
X0081272Y0226294D01*
X0085324Y0226294D01*
X0086316Y0226705D01*
X0086594Y0226983D01*
X0171758Y0226983D01*
X0180636Y0217298D01*
X0176728Y0217298D01*
X0175736Y0216887D01*
X0174976Y0216128D01*
X0174634Y0215301D01*
X0174223Y0215712D01*
X0173586Y0216175D01*
X0172885Y0216532D01*
X0172136Y0216775D01*
X0171359Y0216898D01*
X0171265Y0216898D01*
X0171265Y0212198D01*
X0170665Y0212198D01*
X0170665Y0216898D01*
X0170572Y0216898D01*
X0169795Y0216775D01*
X0169046Y0216532D01*
X0168345Y0216175D01*
X0167708Y0215712D01*
X0167152Y0215156D01*
X0166689Y0214519D01*
X0166526Y0214199D01*
X0166391Y0214524D01*
X0164591Y0216324D01*
X0162238Y0217298D01*
X0159692Y0217298D01*
X0157340Y0216324D01*
X0156435Y0215419D01*
X0156391Y0215524D01*
X0154591Y0217324D01*
X0152238Y0218298D01*
X0149692Y0218298D01*
X0147340Y0217324D01*
X0145540Y0215524D01*
X0144565Y0213171D01*
X0144565Y0210625D01*
X0145540Y0208273D01*
X0147340Y0206473D01*
X0147465Y0206421D01*
X0147465Y0204620D01*
X0147998Y0203333D01*
X0151581Y0199750D01*
X0152565Y0198766D01*
X0153852Y0198233D01*
X0164109Y0198233D01*
X0164109Y0196201D01*
X0164520Y0195209D01*
X0164798Y0194931D01*
X0164798Y0193122D01*
X0164074Y0193422D01*
X0160022Y0193422D01*
X0159030Y0193011D01*
X0158270Y0192251D01*
X0157859Y0191259D01*
X0157859Y0187207D01*
X0158270Y0186215D01*
X0158548Y0185937D01*
X0158548Y0174848D01*
X0156016Y0177380D01*
X0153706Y0177380D01*
X0153706Y0171380D01*
X0153106Y0171380D01*
X0153106Y0177380D01*
X0150797Y0177380D01*
X0147106Y0173690D01*
X0147106Y0171625D01*
X0140202Y0178529D01*
X0138916Y0179062D01*
X0076469Y0179062D01*
X0073016Y0182515D01*
X0070921Y0183383D01*
X0068653Y0183383D01*
X0066558Y0182515D01*
X0064955Y0180912D01*
X0064087Y0178817D01*
X0064087Y0176549D01*
X0064955Y0174454D01*
X0070801Y0168608D01*
X0072896Y0167740D01*
X0075164Y0167740D01*
X0077259Y0168608D01*
X0078862Y0170211D01*
X0079628Y0172062D01*
X0106982Y0172062D01*
X0104868Y0171186D01*
X0103068Y0169386D01*
X0102093Y0167033D01*
X0102093Y0164487D01*
X0102145Y0164362D01*
X0098743Y0160960D01*
X0094571Y0160960D01*
X0091118Y0164413D01*
X0089023Y0165281D01*
X0086755Y0165281D01*
X0084660Y0164413D01*
X0083057Y0162810D01*
X0082189Y0160715D01*
X0082189Y0158447D01*
X0083057Y0156352D01*
X0088903Y0150506D01*
X0090998Y0149638D01*
X0093265Y0149638D01*
X0095360Y0150506D01*
X0096964Y0152109D01*
X0097730Y0153960D01*
X0100889Y0153960D01*
X0102175Y0154492D01*
X0107095Y0159412D01*
X0107220Y0159360D01*
X0109766Y0159360D01*
X0112119Y0160335D01*
X0113919Y0162135D01*
X0114893Y0164487D01*
X0114893Y0167033D01*
X0113919Y0169386D01*
X0112119Y0171186D01*
X0110005Y0172062D01*
X0136770Y0172062D01*
X0143506Y0165325D01*
X0143506Y0138133D01*
X0143548Y0138032D01*
X0143548Y0118537D01*
X0144081Y0117250D01*
X0148134Y0113197D01*
X0143742Y0109030D01*
X0143305Y0108048D01*
X0143277Y0106975D01*
X0143662Y0105972D01*
X0146048Y0103458D01*
X0146048Y0086037D01*
X0146581Y0084750D01*
X0151581Y0079750D01*
X0152565Y0078766D01*
X0153152Y0078523D02*
X0128257Y0078523D01*
X0128870Y0077924D02*
X0165790Y0077924D01*
X0165191Y0077326D02*
X0129484Y0077326D01*
X0130097Y0076727D02*
X0164593Y0076727D01*
X0163994Y0076129D02*
X0130711Y0076129D01*
X0131324Y0075530D02*
X0163396Y0075530D01*
X0162797Y0074932D02*
X0131938Y0074932D01*
X0132552Y0074333D02*
X0162199Y0074333D01*
X0161600Y0073735D02*
X0133165Y0073735D01*
X0133779Y0073136D02*
X0161341Y0073136D01*
X0161093Y0072538D02*
X0134392Y0072538D01*
X0135006Y0071939D02*
X0161048Y0071939D01*
X0161048Y0071341D02*
X0135619Y0071341D01*
X0136233Y0070742D02*
X0161048Y0070742D01*
X0161048Y0070144D02*
X0136846Y0070144D01*
X0137460Y0069545D02*
X0161048Y0069545D01*
X0161048Y0068947D02*
X0138073Y0068947D01*
X0138687Y0068348D02*
X0161048Y0068348D01*
X0161048Y0067750D02*
X0139300Y0067750D01*
X0139914Y0067151D02*
X0161048Y0067151D01*
X0161039Y0066553D02*
X0140527Y0066553D01*
X0141141Y0065954D02*
X0160440Y0065954D01*
X0159842Y0065356D02*
X0141754Y0065356D01*
X0142368Y0064757D02*
X0159508Y0064757D01*
X0159261Y0064159D02*
X0142981Y0064159D01*
X0143595Y0063560D02*
X0159013Y0063560D01*
X0158765Y0062962D02*
X0144209Y0062962D01*
X0144822Y0062363D02*
X0158722Y0062363D01*
X0158722Y0061765D02*
X0145436Y0061765D01*
X0146049Y0061166D02*
X0158722Y0061166D01*
X0158722Y0060568D02*
X0146663Y0060568D01*
X0147276Y0059969D02*
X0158864Y0059969D01*
X0159111Y0059371D02*
X0147890Y0059371D01*
X0148503Y0058772D02*
X0159359Y0058772D01*
X0159607Y0058174D02*
X0149117Y0058174D01*
X0149730Y0057575D02*
X0160080Y0057575D01*
X0160679Y0056977D02*
X0150344Y0056977D01*
X0150957Y0056378D02*
X0161277Y0056378D01*
X0162412Y0055779D02*
X0151571Y0055779D01*
X0152184Y0055181D02*
X0166500Y0055181D01*
X0166500Y0054582D02*
X0152798Y0054582D01*
X0153411Y0053984D02*
X0166500Y0053984D01*
X0166733Y0053385D02*
X0154025Y0053385D01*
X0154638Y0052787D02*
X0166981Y0052787D01*
X0167228Y0052188D02*
X0155252Y0052188D01*
X0155866Y0051590D02*
X0167480Y0051590D01*
X0168078Y0050991D02*
X0156479Y0050991D01*
X0156899Y0050759D02*
X0156899Y0050759D01*
X0156899Y0050759D01*
X0157174Y0050393D02*
X0168677Y0050393D01*
X0169276Y0049794D02*
X0157706Y0049794D01*
X0158121Y0049196D02*
X0170721Y0049196D01*
X0174384Y0048597D02*
X0158616Y0048597D01*
X0159112Y0047999D02*
X0174290Y0047999D01*
X0174264Y0047400D02*
X0159712Y0047400D01*
X0160371Y0046802D02*
X0174303Y0046802D01*
X0174409Y0046203D02*
X0161029Y0046203D01*
X0161688Y0045605D02*
X0174604Y0045605D01*
X0174893Y0045006D02*
X0162346Y0045006D01*
X0163004Y0044408D02*
X0175288Y0044408D01*
X0175805Y0044408D02*
X0176653Y0044408D01*
X0176403Y0045006D02*
X0177252Y0045006D01*
X0177002Y0045605D02*
X0177850Y0045605D01*
X0177600Y0046203D02*
X0178449Y0046203D01*
X0178199Y0046802D02*
X0179047Y0046802D01*
X0179264Y0047018D02*
X0175940Y0043695D01*
X0176006Y0043629D01*
X0176643Y0043166D01*
X0177344Y0042809D01*
X0178093Y0042566D01*
X0178870Y0042443D01*
X0179657Y0042443D01*
X0180435Y0042566D01*
X0181183Y0042809D01*
X0181884Y0043166D01*
X0182521Y0043629D01*
X0182587Y0043695D01*
X0179264Y0047018D01*
X0179480Y0046802D02*
X0180329Y0046802D01*
X0180079Y0046203D02*
X0180927Y0046203D01*
X0180677Y0045605D02*
X0181526Y0045605D01*
X0181276Y0045006D02*
X0182124Y0045006D01*
X0181874Y0044408D02*
X0182723Y0044408D01*
X0183239Y0044408D02*
X0189424Y0044408D01*
X0190022Y0043809D02*
X0182473Y0043809D01*
X0181946Y0043211D02*
X0190621Y0043211D01*
X0191219Y0042612D02*
X0180578Y0042612D01*
X0177949Y0042612D02*
X0165826Y0042612D01*
X0166803Y0042014D02*
X0191818Y0042014D01*
X0192416Y0041415D02*
X0167781Y0041415D01*
X0169367Y0040817D02*
X0193015Y0040817D01*
X0193613Y0040218D02*
X0170952Y0040218D01*
X0172538Y0039620D02*
X0194212Y0039620D01*
X0194810Y0039021D02*
X0175705Y0039021D01*
X0176582Y0043211D02*
X0164848Y0043211D01*
X0163871Y0043809D02*
X0176055Y0043809D01*
X0178797Y0047400D02*
X0178882Y0047400D01*
X0179646Y0047400D02*
X0179730Y0047400D01*
X0179396Y0047999D02*
X0180244Y0047999D01*
X0179994Y0048597D02*
X0180843Y0048597D01*
X0180593Y0049196D02*
X0181441Y0049196D01*
X0181191Y0049794D02*
X0182040Y0049794D01*
X0181790Y0050393D02*
X0182638Y0050393D01*
X0182388Y0050991D02*
X0183567Y0050991D01*
X0183548Y0051590D02*
X0182062Y0051590D01*
X0180838Y0052188D02*
X0183548Y0052188D01*
X0183548Y0052787D02*
X0178819Y0052787D01*
X0179067Y0053385D02*
X0183548Y0053385D01*
X0183548Y0053984D02*
X0179300Y0053984D01*
X0179300Y0054582D02*
X0183548Y0054582D01*
X0183548Y0055181D02*
X0179300Y0055181D01*
X0179300Y0055779D02*
X0183548Y0055779D01*
X0183548Y0056378D02*
X0179300Y0056378D01*
X0179100Y0056977D02*
X0183548Y0056977D01*
X0183548Y0057575D02*
X0178852Y0057575D01*
X0178604Y0058174D02*
X0183548Y0058174D01*
X0183548Y0058772D02*
X0178356Y0058772D01*
X0177801Y0059371D02*
X0183548Y0059371D01*
X0183548Y0059969D02*
X0177202Y0059969D01*
X0176604Y0060568D02*
X0183548Y0060568D01*
X0183548Y0061166D02*
X0175270Y0061166D01*
X0171522Y0061765D02*
X0183548Y0061765D01*
X0183548Y0062363D02*
X0171522Y0062363D01*
X0171479Y0062962D02*
X0183769Y0062962D01*
X0184016Y0063560D02*
X0171231Y0063560D01*
X0170983Y0064159D02*
X0184524Y0064159D01*
X0185065Y0064700D02*
X0185065Y0064700D01*
X0185122Y0064757D02*
X0170735Y0064757D01*
X0170402Y0065356D02*
X0185721Y0065356D01*
X0186319Y0065954D02*
X0169803Y0065954D01*
X0169205Y0066553D02*
X0186918Y0066553D01*
X0187516Y0067151D02*
X0168407Y0067151D01*
X0168048Y0067750D02*
X0188115Y0067750D01*
X0188713Y0068348D02*
X0168048Y0068348D01*
X0168048Y0068947D02*
X0189312Y0068947D01*
X0189910Y0069545D02*
X0168048Y0069545D01*
X0168048Y0070144D02*
X0190509Y0070144D01*
X0191696Y0070742D02*
X0168507Y0070742D01*
X0169105Y0071341D02*
X0192314Y0071341D01*
X0193066Y0071939D02*
X0169704Y0071939D01*
X0170302Y0072538D02*
X0193648Y0072538D01*
X0192555Y0073136D02*
X0170901Y0073136D01*
X0171500Y0073735D02*
X0191957Y0073735D01*
X0190963Y0085233D02*
X0155998Y0085233D01*
X0153048Y0088183D01*
X0153048Y0096056D01*
X0154479Y0094625D01*
X0156832Y0093650D01*
X0159378Y0093650D01*
X0160109Y0093953D01*
X0159988Y0093190D01*
X0159988Y0092403D01*
X0160111Y0091626D01*
X0160355Y0090877D01*
X0160712Y0090176D01*
X0161152Y0089570D01*
X0164564Y0092807D01*
X0164977Y0092372D01*
X0161572Y0089141D01*
X0161731Y0088983D01*
X0162368Y0088520D01*
X0163069Y0088163D01*
X0163818Y0087920D01*
X0164595Y0087796D01*
X0165382Y0087796D01*
X0166159Y0087920D01*
X0166908Y0088163D01*
X0167609Y0088520D01*
X0168215Y0088960D01*
X0164977Y0092372D01*
X0165412Y0092785D01*
X0168643Y0089381D01*
X0168802Y0089539D01*
X0169265Y0090176D01*
X0169622Y0090877D01*
X0169865Y0091626D01*
X0169988Y0092403D01*
X0169988Y0093190D01*
X0169882Y0093859D01*
X0191832Y0093859D01*
X0192804Y0092887D01*
X0194079Y0092359D01*
X0192804Y0091831D01*
X0191320Y0090347D01*
X0190517Y0088408D01*
X0190517Y0086310D01*
X0190963Y0085233D01*
X0190768Y0085705D02*
X0155526Y0085705D01*
X0154927Y0086304D02*
X0190520Y0086304D01*
X0190517Y0086902D02*
X0154329Y0086902D01*
X0153730Y0087501D02*
X0190517Y0087501D01*
X0190517Y0088099D02*
X0166712Y0088099D01*
X0167853Y0088698D02*
X0190637Y0088698D01*
X0190885Y0089296D02*
X0167896Y0089296D01*
X0168156Y0089895D02*
X0167328Y0089895D01*
X0167588Y0090493D02*
X0166761Y0090493D01*
X0167020Y0091092D02*
X0166193Y0091092D01*
X0166452Y0091690D02*
X0165625Y0091690D01*
X0165884Y0092289D02*
X0165057Y0092289D01*
X0164889Y0092289D02*
X0164017Y0092289D01*
X0164258Y0091690D02*
X0163387Y0091690D01*
X0163628Y0091092D02*
X0162756Y0091092D01*
X0162997Y0090493D02*
X0162125Y0090493D01*
X0162366Y0089895D02*
X0161495Y0089895D01*
X0160916Y0089895D02*
X0153048Y0089895D01*
X0153048Y0090493D02*
X0160550Y0090493D01*
X0160285Y0091092D02*
X0153048Y0091092D01*
X0153048Y0091690D02*
X0160101Y0091690D01*
X0160006Y0092289D02*
X0153048Y0092289D01*
X0153048Y0092887D02*
X0159988Y0092887D01*
X0160035Y0093486D02*
X0153048Y0093486D01*
X0153048Y0094084D02*
X0155784Y0094084D01*
X0154421Y0094683D02*
X0153048Y0094683D01*
X0153048Y0095281D02*
X0153823Y0095281D01*
X0153224Y0095880D02*
X0153048Y0095880D01*
X0153048Y0089296D02*
X0161736Y0089296D01*
X0162123Y0088698D02*
X0153048Y0088698D01*
X0153132Y0088099D02*
X0163265Y0088099D01*
X0169060Y0089895D02*
X0191133Y0089895D01*
X0191467Y0090493D02*
X0169426Y0090493D01*
X0169692Y0091092D02*
X0192065Y0091092D01*
X0192664Y0091690D02*
X0169875Y0091690D01*
X0169970Y0092289D02*
X0193910Y0092289D01*
X0192804Y0092887D02*
X0169988Y0092887D01*
X0169941Y0093486D02*
X0192206Y0093486D01*
X0202824Y0092289D02*
X0233548Y0092289D01*
X0233548Y0092887D02*
X0203929Y0092887D01*
X0204528Y0093486D02*
X0233548Y0093486D01*
X0233548Y0094084D02*
X0205127Y0094084D01*
X0205543Y0094683D02*
X0233548Y0094683D01*
X0233548Y0095281D02*
X0205790Y0095281D01*
X0206038Y0095880D02*
X0233548Y0095880D01*
X0233548Y0096478D02*
X0206217Y0096478D01*
X0206217Y0097077D02*
X0233548Y0097077D01*
X0233548Y0097675D02*
X0206217Y0097675D01*
X0206217Y0098274D02*
X0233548Y0098274D01*
X0233548Y0098872D02*
X0206024Y0098872D01*
X0205776Y0099471D02*
X0233548Y0099471D01*
X0233548Y0100069D02*
X0205529Y0100069D01*
X0205093Y0100668D02*
X0233548Y0100668D01*
X0233548Y0101266D02*
X0204494Y0101266D01*
X0203847Y0101865D02*
X0233548Y0101865D01*
X0233548Y0102463D02*
X0202906Y0102463D01*
X0204104Y0103062D02*
X0233548Y0103062D01*
X0233548Y0103660D02*
X0230026Y0103660D01*
X0230774Y0104259D02*
X0233548Y0104259D01*
X0233548Y0104857D02*
X0231372Y0104857D01*
X0231971Y0105456D02*
X0233548Y0105456D01*
X0233548Y0106054D02*
X0232569Y0106054D01*
X0233168Y0106653D02*
X0233548Y0106653D01*
X0240548Y0098274D02*
X0240558Y0098274D01*
X0240548Y0097675D02*
X0241156Y0097675D01*
X0241755Y0097077D02*
X0240548Y0097077D01*
X0240548Y0096478D02*
X0242353Y0096478D01*
X0242952Y0095880D02*
X0240548Y0095880D01*
X0240548Y0095281D02*
X0243550Y0095281D01*
X0244149Y0094683D02*
X0240548Y0094683D01*
X0240548Y0094084D02*
X0245182Y0094084D01*
X0240548Y0093486D02*
X0252206Y0093486D01*
X0252804Y0092887D02*
X0240548Y0092887D01*
X0240548Y0092289D02*
X0253910Y0092289D01*
X0252664Y0091690D02*
X0240548Y0091690D01*
X0240548Y0091092D02*
X0252065Y0091092D01*
X0251467Y0090493D02*
X0240548Y0090493D01*
X0240548Y0089895D02*
X0251133Y0089895D01*
X0250885Y0089296D02*
X0240548Y0089296D01*
X0240548Y0088698D02*
X0250637Y0088698D01*
X0250517Y0088099D02*
X0240548Y0088099D01*
X0240548Y0087501D02*
X0250517Y0087501D01*
X0250517Y0086902D02*
X0240548Y0086902D01*
X0240548Y0086304D02*
X0250520Y0086304D01*
X0250768Y0085705D02*
X0240548Y0085705D01*
X0240548Y0085107D02*
X0251016Y0085107D01*
X0251264Y0084508D02*
X0240548Y0084508D01*
X0240548Y0083910D02*
X0251782Y0083910D01*
X0252380Y0083311D02*
X0240548Y0083311D01*
X0240548Y0082712D02*
X0253226Y0082712D01*
X0253488Y0082114D02*
X0240548Y0082114D01*
X0240548Y0081515D02*
X0252489Y0081515D01*
X0251890Y0080917D02*
X0240548Y0080917D01*
X0240548Y0080318D02*
X0251309Y0080318D01*
X0251061Y0079720D02*
X0240548Y0079720D01*
X0240548Y0079121D02*
X0250813Y0079121D01*
X0250565Y0078523D02*
X0240548Y0078523D01*
X0240548Y0077924D02*
X0250517Y0077924D01*
X0250517Y0077326D02*
X0240548Y0077326D01*
X0240548Y0076727D02*
X0250517Y0076727D01*
X0250592Y0076129D02*
X0240548Y0076129D01*
X0240548Y0075530D02*
X0250840Y0075530D01*
X0251088Y0074932D02*
X0240548Y0074932D01*
X0240548Y0074333D02*
X0251358Y0074333D01*
X0251957Y0073735D02*
X0240548Y0073735D01*
X0240548Y0073136D02*
X0252555Y0073136D01*
X0253648Y0072538D02*
X0240548Y0072538D01*
X0240548Y0071939D02*
X0253066Y0071939D01*
X0252314Y0071341D02*
X0240548Y0071341D01*
X0240548Y0070742D02*
X0251716Y0070742D01*
X0251236Y0070144D02*
X0240548Y0070144D01*
X0240548Y0069545D02*
X0250988Y0069545D01*
X0250740Y0068947D02*
X0240548Y0068947D01*
X0240548Y0068348D02*
X0250517Y0068348D01*
X0250517Y0067750D02*
X0240548Y0067750D01*
X0240548Y0067151D02*
X0250517Y0067151D01*
X0250517Y0066553D02*
X0240548Y0066553D01*
X0240548Y0065954D02*
X0250665Y0065954D01*
X0250913Y0065356D02*
X0240548Y0065356D01*
X0240548Y0064757D02*
X0251160Y0064757D01*
X0251533Y0064159D02*
X0240548Y0064159D01*
X0240548Y0063560D02*
X0252131Y0063560D01*
X0252730Y0062962D02*
X0240548Y0062962D01*
X0240548Y0062363D02*
X0254070Y0062363D01*
X0252738Y0061765D02*
X0240332Y0061765D01*
X0240084Y0061166D02*
X0252139Y0061166D01*
X0251541Y0060568D02*
X0239582Y0060568D01*
X0238984Y0059969D02*
X0251164Y0059969D01*
X0250916Y0059371D02*
X0238385Y0059371D01*
X0237787Y0058772D02*
X0250668Y0058772D01*
X0250517Y0058174D02*
X0237188Y0058174D01*
X0236590Y0057575D02*
X0250517Y0057575D01*
X0250517Y0056977D02*
X0235991Y0056977D01*
X0235393Y0056378D02*
X0250517Y0056378D01*
X0250737Y0055779D02*
X0234794Y0055779D01*
X0234196Y0055181D02*
X0250985Y0055181D01*
X0251233Y0054582D02*
X0233597Y0054582D01*
X0232999Y0053984D02*
X0251708Y0053984D01*
X0252306Y0053385D02*
X0231862Y0053385D01*
X0225910Y0052787D02*
X0253046Y0052787D01*
X0254491Y0052188D02*
X0214042Y0052188D01*
X0213444Y0052787D02*
X0220686Y0052787D01*
X0219849Y0053385D02*
X0213048Y0053385D01*
X0213048Y0053984D02*
X0219409Y0053984D01*
X0219161Y0054582D02*
X0213048Y0054582D01*
X0213048Y0055181D02*
X0219109Y0055181D01*
X0219109Y0055779D02*
X0213048Y0055779D01*
X0213048Y0056378D02*
X0219109Y0056378D01*
X0219109Y0056977D02*
X0213048Y0056977D01*
X0213048Y0057575D02*
X0219109Y0057575D01*
X0219109Y0058174D02*
X0213048Y0058174D01*
X0213048Y0058772D02*
X0219114Y0058772D01*
X0219362Y0059371D02*
X0213048Y0059371D01*
X0213048Y0059969D02*
X0219738Y0059969D01*
X0220416Y0060568D02*
X0213048Y0060568D01*
X0213048Y0061166D02*
X0230281Y0061166D01*
X0229683Y0060568D02*
X0226180Y0060568D01*
X0230880Y0061765D02*
X0213048Y0061765D01*
X0213048Y0062363D02*
X0231478Y0062363D01*
X0232077Y0062962D02*
X0213048Y0062962D01*
X0213048Y0063560D02*
X0232675Y0063560D01*
X0233274Y0064159D02*
X0213048Y0064159D01*
X0213048Y0064757D02*
X0233548Y0064757D01*
X0233548Y0065356D02*
X0213048Y0065356D01*
X0213048Y0065954D02*
X0233548Y0065954D01*
X0233548Y0066553D02*
X0213048Y0066553D01*
X0213048Y0067151D02*
X0233548Y0067151D01*
X0233548Y0067750D02*
X0213048Y0067750D01*
X0213048Y0068348D02*
X0233548Y0068348D01*
X0233548Y0068947D02*
X0213048Y0068947D01*
X0213048Y0069545D02*
X0233548Y0069545D01*
X0233548Y0070144D02*
X0213048Y0070144D01*
X0213048Y0070742D02*
X0233548Y0070742D01*
X0233548Y0071341D02*
X0213048Y0071341D01*
X0213048Y0071939D02*
X0233548Y0071939D01*
X0233548Y0072538D02*
X0213048Y0072538D01*
X0213048Y0073136D02*
X0233548Y0073136D01*
X0233548Y0073735D02*
X0213048Y0073735D01*
X0213048Y0074333D02*
X0233548Y0074333D01*
X0233548Y0074932D02*
X0213048Y0074932D01*
X0213048Y0075530D02*
X0233548Y0075530D01*
X0233548Y0076129D02*
X0213048Y0076129D01*
X0213048Y0076727D02*
X0233548Y0076727D01*
X0233548Y0077326D02*
X0213048Y0077326D01*
X0212843Y0077924D02*
X0233548Y0077924D01*
X0233548Y0078523D02*
X0212595Y0078523D01*
X0212109Y0079121D02*
X0233548Y0079121D01*
X0233548Y0079720D02*
X0211511Y0079720D01*
X0210912Y0080318D02*
X0233548Y0080318D01*
X0233548Y0080917D02*
X0210314Y0080917D01*
X0209715Y0081515D02*
X0233548Y0081515D01*
X0233548Y0082114D02*
X0209117Y0082114D01*
X0208518Y0082712D02*
X0233548Y0082712D01*
X0233548Y0083311D02*
X0207920Y0083311D01*
X0207321Y0083910D02*
X0233548Y0083910D01*
X0233548Y0084508D02*
X0206723Y0084508D01*
X0205718Y0085107D02*
X0233548Y0085107D01*
X0233548Y0085705D02*
X0205966Y0085705D01*
X0206214Y0086304D02*
X0233548Y0086304D01*
X0233548Y0086902D02*
X0206217Y0086902D01*
X0206217Y0087501D02*
X0233548Y0087501D01*
X0233548Y0088099D02*
X0206217Y0088099D01*
X0206097Y0088698D02*
X0233548Y0088698D01*
X0233548Y0089296D02*
X0205849Y0089296D01*
X0205601Y0089895D02*
X0233548Y0089895D01*
X0233548Y0090493D02*
X0205267Y0090493D01*
X0204669Y0091092D02*
X0233548Y0091092D01*
X0233548Y0091690D02*
X0204070Y0091690D01*
X0205342Y0120419D02*
X0215784Y0120419D01*
X0216382Y0121017D02*
X0204743Y0121017D01*
X0204145Y0121616D02*
X0216981Y0121616D01*
X0217579Y0122214D02*
X0203004Y0122214D01*
X0203750Y0122813D02*
X0218178Y0122813D01*
X0218548Y0123411D02*
X0204454Y0123411D01*
X0205052Y0124010D02*
X0218548Y0124010D01*
X0218548Y0124608D02*
X0205512Y0124608D01*
X0205760Y0125207D02*
X0218548Y0125207D01*
X0218548Y0125805D02*
X0206008Y0125805D01*
X0206217Y0126404D02*
X0218548Y0126404D01*
X0218548Y0127002D02*
X0206217Y0127002D01*
X0206217Y0127601D02*
X0218548Y0127601D01*
X0218548Y0128199D02*
X0206217Y0128199D01*
X0206055Y0128798D02*
X0218548Y0128798D01*
X0218548Y0129396D02*
X0205807Y0129396D01*
X0205559Y0129995D02*
X0218548Y0129995D01*
X0218548Y0130593D02*
X0205167Y0130593D01*
X0204569Y0131192D02*
X0218548Y0131192D01*
X0218548Y0131790D02*
X0203970Y0131790D01*
X0204030Y0132987D02*
X0218548Y0132987D01*
X0218548Y0132389D02*
X0202726Y0132389D01*
X0204628Y0133586D02*
X0218548Y0133586D01*
X0218548Y0134184D02*
X0205227Y0134184D01*
X0205584Y0134783D02*
X0218548Y0134783D01*
X0218548Y0135381D02*
X0205832Y0135381D01*
X0206080Y0135980D02*
X0218548Y0135980D01*
X0218548Y0136579D02*
X0206217Y0136579D01*
X0206217Y0137177D02*
X0218548Y0137177D01*
X0218548Y0137776D02*
X0206217Y0137776D01*
X0206217Y0138374D02*
X0218548Y0138374D01*
X0218548Y0138973D02*
X0205983Y0138973D01*
X0205735Y0139571D02*
X0218548Y0139571D01*
X0218548Y0140170D02*
X0205487Y0140170D01*
X0204992Y0140768D02*
X0218548Y0140768D01*
X0218548Y0141367D02*
X0204394Y0141367D01*
X0203605Y0141965D02*
X0218548Y0141965D01*
X0218548Y0142564D02*
X0203148Y0142564D01*
X0204205Y0143162D02*
X0218548Y0143162D01*
X0218548Y0143761D02*
X0204803Y0143761D01*
X0205402Y0144359D02*
X0218548Y0144359D01*
X0218548Y0144958D02*
X0205656Y0144958D01*
X0205904Y0145556D02*
X0218548Y0145556D01*
X0218548Y0146155D02*
X0206152Y0146155D01*
X0206217Y0146753D02*
X0218548Y0146753D01*
X0218548Y0147352D02*
X0206217Y0147352D01*
X0206217Y0147950D02*
X0218548Y0147950D01*
X0218548Y0148549D02*
X0206158Y0148549D01*
X0205910Y0149147D02*
X0218548Y0149147D01*
X0218548Y0149746D02*
X0205663Y0149746D01*
X0205415Y0150344D02*
X0218548Y0150344D01*
X0218548Y0150943D02*
X0204818Y0150943D01*
X0204219Y0151541D02*
X0218548Y0151541D01*
X0218548Y0152140D02*
X0203184Y0152140D01*
X0203570Y0152738D02*
X0218548Y0152738D01*
X0218548Y0153337D02*
X0204379Y0153337D01*
X0204978Y0153935D02*
X0218548Y0153935D01*
X0218548Y0154534D02*
X0205481Y0154534D01*
X0205729Y0155132D02*
X0218548Y0155132D01*
X0218548Y0155731D02*
X0205977Y0155731D01*
X0206217Y0156329D02*
X0218548Y0156329D01*
X0218548Y0156928D02*
X0206217Y0156928D01*
X0206217Y0157526D02*
X0218548Y0157526D01*
X0218548Y0158125D02*
X0206217Y0158125D01*
X0206086Y0158723D02*
X0218548Y0158723D01*
X0218548Y0159322D02*
X0205838Y0159322D01*
X0205590Y0159920D02*
X0218548Y0159920D01*
X0218548Y0160519D02*
X0205242Y0160519D01*
X0204643Y0161117D02*
X0218548Y0161117D01*
X0218548Y0161716D02*
X0204044Y0161716D01*
X0202762Y0162314D02*
X0218548Y0162314D01*
X0218548Y0162913D02*
X0171798Y0162913D01*
X0171798Y0163512D02*
X0195273Y0163512D01*
X0195410Y0163484D02*
X0198067Y0163484D01*
X0198067Y0167059D01*
X0198667Y0167059D01*
X0198667Y0167659D01*
X0204817Y0167659D01*
X0204817Y0167741D01*
X0204668Y0168489D01*
X0204376Y0169194D01*
X0203951Y0169829D01*
X0203412Y0170369D01*
X0202777Y0170793D01*
X0202072Y0171085D01*
X0201323Y0171234D01*
X0198667Y0171234D01*
X0198667Y0167659D01*
X0198067Y0167659D01*
X0198067Y0171234D01*
X0195410Y0171234D01*
X0194662Y0171085D01*
X0193957Y0170793D01*
X0193322Y0170369D01*
X0192782Y0169829D01*
X0192358Y0169194D01*
X0192066Y0168489D01*
X0191917Y0167741D01*
X0191917Y0167659D01*
X0198067Y0167659D01*
X0198067Y0167059D01*
X0191917Y0167059D01*
X0191917Y0166977D01*
X0192066Y0166229D01*
X0192358Y0165524D01*
X0192782Y0164889D01*
X0193322Y0164349D01*
X0193957Y0163925D01*
X0194662Y0163633D01*
X0195410Y0163484D01*
X0193680Y0164110D02*
X0171798Y0164110D01*
X0171798Y0164709D02*
X0192963Y0164709D01*
X0192503Y0165307D02*
X0171798Y0165307D01*
X0171798Y0165906D02*
X0192200Y0165906D01*
X0192011Y0166504D02*
X0171798Y0166504D01*
X0171798Y0167103D02*
X0198067Y0167103D01*
X0198067Y0167701D02*
X0198667Y0167701D01*
X0198667Y0167103D02*
X0218548Y0167103D01*
X0218548Y0167701D02*
X0204817Y0167701D01*
X0204705Y0168300D02*
X0218548Y0168300D01*
X0218548Y0168898D02*
X0204498Y0168898D01*
X0204174Y0169497D02*
X0218548Y0169497D01*
X0218548Y0170095D02*
X0203685Y0170095D01*
X0202926Y0170694D02*
X0218548Y0170694D01*
X0218548Y0171292D02*
X0171798Y0171292D01*
X0171798Y0170694D02*
X0193808Y0170694D01*
X0193048Y0170095D02*
X0171798Y0170095D01*
X0171798Y0169497D02*
X0192560Y0169497D01*
X0192236Y0168898D02*
X0171798Y0168898D01*
X0171798Y0168300D02*
X0192029Y0168300D01*
X0191917Y0167701D02*
X0171798Y0167701D01*
X0171798Y0171891D02*
X0218548Y0171891D01*
X0218548Y0172489D02*
X0202969Y0172489D01*
X0204130Y0173088D02*
X0218548Y0173088D01*
X0218548Y0173686D02*
X0204729Y0173686D01*
X0205327Y0174285D02*
X0218548Y0174285D01*
X0218548Y0174883D02*
X0205626Y0174883D01*
X0205874Y0175482D02*
X0218548Y0175482D01*
X0218548Y0176080D02*
X0206121Y0176080D01*
X0206217Y0176679D02*
X0218548Y0176679D01*
X0218548Y0177277D02*
X0206217Y0177277D01*
X0206217Y0177876D02*
X0218548Y0177876D01*
X0218548Y0178474D02*
X0206189Y0178474D01*
X0205941Y0179073D02*
X0218548Y0179073D01*
X0218548Y0179671D02*
X0205693Y0179671D01*
X0205445Y0180270D02*
X0218548Y0180270D01*
X0218548Y0180868D02*
X0204892Y0180868D01*
X0204294Y0181467D02*
X0218548Y0181467D01*
X0218548Y0182065D02*
X0203363Y0182065D01*
X0203390Y0182664D02*
X0218548Y0182664D01*
X0218548Y0183262D02*
X0204305Y0183262D01*
X0204903Y0183861D02*
X0218548Y0183861D01*
X0218548Y0184459D02*
X0205450Y0184459D01*
X0205698Y0185058D02*
X0218548Y0185058D01*
X0218548Y0185656D02*
X0205946Y0185656D01*
X0206194Y0186255D02*
X0218548Y0186255D01*
X0218548Y0186853D02*
X0206217Y0186853D01*
X0206217Y0187452D02*
X0218548Y0187452D01*
X0218548Y0188050D02*
X0206217Y0188050D01*
X0206117Y0188649D02*
X0218548Y0188649D01*
X0218548Y0189248D02*
X0205869Y0189248D01*
X0205621Y0189846D02*
X0218548Y0189846D01*
X0218548Y0190445D02*
X0205316Y0190445D01*
X0204717Y0191043D02*
X0218548Y0191043D01*
X0218548Y0191642D02*
X0204119Y0191642D01*
X0203812Y0192839D02*
X0218548Y0192839D01*
X0218548Y0193437D02*
X0204479Y0193437D01*
X0205078Y0194036D02*
X0218548Y0194036D01*
X0218548Y0194634D02*
X0205522Y0194634D01*
X0205770Y0195233D02*
X0218548Y0195233D01*
X0218548Y0195831D02*
X0206018Y0195831D01*
X0206217Y0196430D02*
X0218548Y0196430D01*
X0218548Y0197028D02*
X0206217Y0197028D01*
X0206217Y0197627D02*
X0218548Y0197627D01*
X0218548Y0198225D02*
X0206217Y0198225D01*
X0206044Y0198824D02*
X0218548Y0198824D01*
X0218548Y0199422D02*
X0205797Y0199422D01*
X0205549Y0200021D02*
X0218548Y0200021D01*
X0218548Y0200619D02*
X0205141Y0200619D01*
X0204543Y0201218D02*
X0218548Y0201218D01*
X0218548Y0201816D02*
X0203944Y0201816D01*
X0202520Y0202415D02*
X0218548Y0202415D01*
X0218548Y0203013D02*
X0194803Y0203013D01*
X0194987Y0203612D02*
X0218548Y0203612D01*
X0218548Y0204210D02*
X0194987Y0204210D01*
X0194987Y0204809D02*
X0218548Y0204809D01*
X0218548Y0205407D02*
X0197451Y0205407D01*
X0198117Y0206006D02*
X0218548Y0206006D01*
X0218548Y0206604D02*
X0198487Y0206604D01*
X0198735Y0207203D02*
X0218548Y0207203D01*
X0218548Y0207801D02*
X0198737Y0207801D01*
X0198737Y0208400D02*
X0218548Y0208400D01*
X0218548Y0208998D02*
X0198737Y0208998D01*
X0198737Y0209597D02*
X0218394Y0209597D01*
X0218073Y0210195D02*
X0198737Y0210195D01*
X0198737Y0210794D02*
X0217859Y0210794D01*
X0217859Y0211392D02*
X0198682Y0211392D01*
X0198434Y0211991D02*
X0217859Y0211991D01*
X0217859Y0212589D02*
X0197988Y0212589D01*
X0197139Y0213188D02*
X0217859Y0213188D01*
X0217859Y0213786D02*
X0194944Y0213786D01*
X0194346Y0214385D02*
X0217859Y0214385D01*
X0217950Y0214983D02*
X0194298Y0214983D01*
X0194298Y0215582D02*
X0218198Y0215582D01*
X0218217Y0216181D02*
X0194298Y0216181D01*
X0194298Y0216779D02*
X0217618Y0216779D01*
X0217020Y0217378D02*
X0194298Y0217378D01*
X0194298Y0217976D02*
X0209775Y0217976D01*
X0210070Y0217826D02*
X0210818Y0217583D01*
X0211595Y0217459D01*
X0211689Y0217459D01*
X0211689Y0222159D01*
X0206989Y0222159D01*
X0206989Y0222066D01*
X0207112Y0221289D01*
X0207355Y0220540D01*
X0207713Y0219839D01*
X0208175Y0219202D01*
X0208732Y0218646D01*
X0209368Y0218183D01*
X0210070Y0217826D01*
X0208830Y0218575D02*
X0194298Y0218575D01*
X0194298Y0219173D02*
X0208204Y0219173D01*
X0207761Y0219772D02*
X0194298Y0219772D01*
X0194298Y0220370D02*
X0207442Y0220370D01*
X0207216Y0220969D02*
X0194298Y0220969D01*
X0194298Y0221567D02*
X0207068Y0221567D01*
X0206989Y0222759D02*
X0211689Y0222759D01*
X0211689Y0227459D01*
X0211595Y0227459D01*
X0210818Y0227336D01*
X0210070Y0227093D01*
X0209368Y0226736D01*
X0208732Y0226273D01*
X0208175Y0225717D01*
X0207713Y0225080D01*
X0207355Y0224379D01*
X0207112Y0223630D01*
X0206989Y0222853D01*
X0206989Y0222759D01*
X0206989Y0222764D02*
X0194298Y0222764D01*
X0194298Y0222166D02*
X0211689Y0222166D01*
X0211689Y0222764D02*
X0212289Y0222764D01*
X0212289Y0223363D02*
X0211689Y0223363D01*
X0211689Y0223961D02*
X0212289Y0223961D01*
X0212289Y0224560D02*
X0211689Y0224560D01*
X0211689Y0225158D02*
X0212289Y0225158D01*
X0212289Y0225757D02*
X0211689Y0225757D01*
X0211689Y0226355D02*
X0212289Y0226355D01*
X0212289Y0226954D02*
X0211689Y0226954D01*
X0209796Y0226954D02*
X0193027Y0226954D01*
X0192429Y0227552D02*
X0219974Y0227552D01*
X0218529Y0226954D02*
X0214182Y0226954D01*
X0215133Y0226355D02*
X0217834Y0226355D01*
X0217235Y0225757D02*
X0215763Y0225757D01*
X0216209Y0225158D02*
X0216637Y0225158D01*
X0212289Y0221567D02*
X0211689Y0221567D01*
X0211689Y0220969D02*
X0212289Y0220969D01*
X0212289Y0220370D02*
X0211689Y0220370D01*
X0211689Y0219772D02*
X0212289Y0219772D01*
X0212289Y0219173D02*
X0211689Y0219173D01*
X0211689Y0218575D02*
X0212289Y0218575D01*
X0212289Y0217976D02*
X0211689Y0217976D01*
X0214203Y0217976D02*
X0216505Y0217976D01*
X0216257Y0218575D02*
X0215148Y0218575D01*
X0215774Y0219173D02*
X0216009Y0219173D01*
X0207070Y0223363D02*
X0194298Y0223363D01*
X0194298Y0223961D02*
X0207220Y0223961D01*
X0207447Y0224560D02*
X0194298Y0224560D01*
X0194203Y0225158D02*
X0207769Y0225158D01*
X0208215Y0225757D02*
X0193955Y0225757D01*
X0193626Y0226355D02*
X0208845Y0226355D01*
X0219673Y0232939D02*
X0187487Y0232939D01*
X0187487Y0233537D02*
X0219327Y0233537D01*
X0218982Y0234136D02*
X0187331Y0234136D01*
X0187083Y0234734D02*
X0218636Y0234734D01*
X0218411Y0235333D02*
X0186495Y0235333D01*
X0187641Y0232340D02*
X0220115Y0232340D01*
X0220714Y0231742D02*
X0188239Y0231742D01*
X0188838Y0231143D02*
X0221312Y0231143D01*
X0221976Y0230545D02*
X0189436Y0230545D01*
X0190035Y0229946D02*
X0223013Y0229946D01*
X0224049Y0229348D02*
X0190633Y0229348D01*
X0191232Y0228749D02*
X0226115Y0228749D01*
X0225449Y0226954D02*
X0227432Y0226954D01*
X0228031Y0227552D02*
X0224004Y0227552D01*
X0226144Y0226355D02*
X0226834Y0226355D01*
X0229005Y0228151D02*
X0191830Y0228151D01*
X0179258Y0229348D02*
X0179087Y0229348D01*
X0179109Y0229946D02*
X0178538Y0229946D01*
X0177989Y0230545D02*
X0179109Y0230545D01*
X0179109Y0231143D02*
X0177441Y0231143D01*
X0176892Y0231742D02*
X0179109Y0231742D01*
X0179109Y0232340D02*
X0176344Y0232340D01*
X0175795Y0232939D02*
X0179109Y0232939D01*
X0179109Y0233537D02*
X0175070Y0233537D01*
X0179265Y0234136D02*
X0086442Y0234136D01*
X0080154Y0234136D02*
X0026388Y0234136D01*
X0026662Y0234734D02*
X0179513Y0234734D01*
X0180102Y0235333D02*
X0026937Y0235333D01*
X0027313Y0235931D02*
X0218251Y0235931D01*
X0218091Y0236530D02*
X0027771Y0236530D01*
X0028229Y0237128D02*
X0217930Y0237128D01*
X0217807Y0237727D02*
X0028687Y0237727D01*
X0029145Y0238325D02*
X0217807Y0238325D01*
X0217807Y0238924D02*
X0029603Y0238924D01*
X0030061Y0239522D02*
X0217807Y0239522D01*
X0217807Y0240121D02*
X0030759Y0240121D01*
X0031478Y0240719D02*
X0217912Y0240719D01*
X0218073Y0241318D02*
X0032197Y0241318D01*
X0032916Y0241916D02*
X0218233Y0241916D01*
X0218393Y0242515D02*
X0033635Y0242515D01*
X0034615Y0243114D02*
X0218597Y0243114D01*
X0218943Y0243712D02*
X0035790Y0243712D01*
X0036966Y0244311D02*
X0219288Y0244311D01*
X0219634Y0244909D02*
X0038141Y0244909D01*
X0040246Y0245508D02*
X0220048Y0245508D01*
X0220647Y0246106D02*
X0042613Y0246106D01*
X0026113Y0233537D02*
X0079556Y0233537D01*
X0079287Y0232939D02*
X0025839Y0232939D01*
X0025564Y0232340D02*
X0079109Y0232340D01*
X0079109Y0231742D02*
X0025290Y0231742D01*
X0025016Y0231143D02*
X0079109Y0231143D01*
X0079109Y0230545D02*
X0024867Y0230545D01*
X0024742Y0229946D02*
X0079109Y0229946D01*
X0079109Y0229348D02*
X0024616Y0229348D01*
X0024491Y0228749D02*
X0079109Y0228749D01*
X0079236Y0228151D02*
X0024366Y0228151D01*
X0024240Y0227552D02*
X0079484Y0227552D01*
X0080031Y0226954D02*
X0024115Y0226954D01*
X0023989Y0226355D02*
X0081124Y0226355D01*
X0085472Y0226355D02*
X0172334Y0226355D01*
X0172883Y0225757D02*
X0023932Y0225757D01*
X0023908Y0225158D02*
X0173431Y0225158D01*
X0173980Y0224560D02*
X0023885Y0224560D01*
X0023861Y0223961D02*
X0174528Y0223961D01*
X0175077Y0223363D02*
X0023854Y0223363D01*
X0023851Y0222764D02*
X0175626Y0222764D01*
X0176174Y0222166D02*
X0023850Y0222166D01*
X0023850Y0221567D02*
X0176723Y0221567D01*
X0177272Y0220969D02*
X0023850Y0220969D01*
X0023850Y0220370D02*
X0177820Y0220370D01*
X0178369Y0219772D02*
X0023850Y0219772D01*
X0023850Y0219173D02*
X0178918Y0219173D01*
X0179466Y0218575D02*
X0023850Y0218575D01*
X0023850Y0217976D02*
X0070174Y0217976D01*
X0070952Y0218298D02*
X0068600Y0217324D01*
X0066800Y0215524D01*
X0065825Y0213171D01*
X0065825Y0210625D01*
X0066800Y0208273D01*
X0068600Y0206473D01*
X0070952Y0205498D01*
X0073498Y0205498D01*
X0075851Y0206473D01*
X0076756Y0207378D01*
X0076800Y0207273D01*
X0078600Y0205473D01*
X0080952Y0204498D01*
X0083498Y0204498D01*
X0085851Y0205473D01*
X0087651Y0207273D01*
X0088288Y0208811D01*
X0088411Y0208641D01*
X0088968Y0208085D01*
X0089605Y0207622D01*
X0090306Y0207265D01*
X0091054Y0207022D01*
X0091832Y0206898D01*
X0091925Y0206898D01*
X0091925Y0211598D01*
X0092525Y0211598D01*
X0092525Y0206898D01*
X0092619Y0206898D01*
X0093396Y0207022D01*
X0094145Y0207265D01*
X0094846Y0207622D01*
X0095482Y0208085D01*
X0095825Y0208427D01*
X0095825Y0206661D01*
X0096236Y0205669D01*
X0096996Y0204909D01*
X0097988Y0204498D01*
X0106462Y0204498D01*
X0107455Y0204909D01*
X0108214Y0205669D01*
X0108625Y0206661D01*
X0108625Y0215135D01*
X0108214Y0216128D01*
X0107455Y0216887D01*
X0106462Y0217298D01*
X0097988Y0217298D01*
X0096996Y0216887D01*
X0096236Y0216128D01*
X0095894Y0215301D01*
X0095482Y0215712D01*
X0094846Y0216175D01*
X0094145Y0216532D01*
X0093396Y0216775D01*
X0092619Y0216898D01*
X0092525Y0216898D01*
X0092525Y0212198D01*
X0091925Y0212198D01*
X0091925Y0216898D01*
X0091832Y0216898D01*
X0091054Y0216775D01*
X0090306Y0216532D01*
X0089605Y0216175D01*
X0088968Y0215712D01*
X0088411Y0215156D01*
X0087949Y0214519D01*
X0087786Y0214199D01*
X0087651Y0214524D01*
X0085851Y0216324D01*
X0083498Y0217298D01*
X0080952Y0217298D01*
X0078600Y0216324D01*
X0077694Y0215419D01*
X0077651Y0215524D01*
X0075851Y0217324D01*
X0073498Y0218298D01*
X0070952Y0218298D01*
X0068729Y0217378D02*
X0023850Y0217378D01*
X0023850Y0216779D02*
X0068055Y0216779D01*
X0067456Y0216181D02*
X0023850Y0216181D01*
X0023850Y0215582D02*
X0066858Y0215582D01*
X0066576Y0214983D02*
X0023850Y0214983D01*
X0023850Y0214385D02*
X0066328Y0214385D01*
X0066080Y0213786D02*
X0023850Y0213786D01*
X0023850Y0213188D02*
X0065832Y0213188D01*
X0065825Y0212589D02*
X0023850Y0212589D01*
X0023850Y0211991D02*
X0065825Y0211991D01*
X0065825Y0211392D02*
X0023850Y0211392D01*
X0023850Y0210794D02*
X0065825Y0210794D01*
X0066003Y0210195D02*
X0023850Y0210195D01*
X0023850Y0209597D02*
X0066251Y0209597D01*
X0066499Y0208998D02*
X0023850Y0208998D01*
X0023850Y0208400D02*
X0066747Y0208400D01*
X0067271Y0207801D02*
X0023850Y0207801D01*
X0023850Y0207203D02*
X0067870Y0207203D01*
X0068468Y0206604D02*
X0023850Y0206604D01*
X0023850Y0206006D02*
X0069727Y0206006D01*
X0074723Y0206006D02*
X0078067Y0206006D01*
X0077468Y0206604D02*
X0075982Y0206604D01*
X0076581Y0207203D02*
X0076870Y0207203D01*
X0078758Y0205407D02*
X0023850Y0205407D01*
X0023850Y0204809D02*
X0080203Y0204809D01*
X0084248Y0204809D02*
X0097239Y0204809D01*
X0096498Y0205407D02*
X0085692Y0205407D01*
X0086384Y0206006D02*
X0096097Y0206006D01*
X0095849Y0206604D02*
X0086982Y0206604D01*
X0087581Y0207203D02*
X0090496Y0207203D01*
X0089358Y0207801D02*
X0087870Y0207801D01*
X0088118Y0208400D02*
X0088653Y0208400D01*
X0091925Y0208400D02*
X0092525Y0208400D01*
X0092525Y0208998D02*
X0091925Y0208998D01*
X0091925Y0209597D02*
X0092525Y0209597D01*
X0092525Y0210195D02*
X0091925Y0210195D01*
X0091925Y0210794D02*
X0092525Y0210794D01*
X0092525Y0211392D02*
X0091925Y0211392D01*
X0091925Y0212589D02*
X0092525Y0212589D01*
X0092525Y0213188D02*
X0091925Y0213188D01*
X0091925Y0213786D02*
X0092525Y0213786D01*
X0092525Y0214385D02*
X0091925Y0214385D01*
X0091925Y0214983D02*
X0092525Y0214983D01*
X0092525Y0215582D02*
X0091925Y0215582D01*
X0091925Y0216181D02*
X0092525Y0216181D01*
X0092525Y0216779D02*
X0091925Y0216779D01*
X0091078Y0216779D02*
X0084752Y0216779D01*
X0085994Y0216181D02*
X0089616Y0216181D01*
X0088838Y0215582D02*
X0086593Y0215582D01*
X0087191Y0214983D02*
X0088286Y0214983D01*
X0087881Y0214385D02*
X0087708Y0214385D01*
X0093372Y0216779D02*
X0096887Y0216779D01*
X0096289Y0216181D02*
X0094835Y0216181D01*
X0095613Y0215582D02*
X0096010Y0215582D01*
X0095825Y0208400D02*
X0095798Y0208400D01*
X0095825Y0207801D02*
X0095093Y0207801D01*
X0095825Y0207203D02*
X0093954Y0207203D01*
X0092525Y0207203D02*
X0091925Y0207203D01*
X0091925Y0207801D02*
X0092525Y0207801D01*
X0083466Y0197858D02*
X0082830Y0198321D01*
X0082128Y0198678D01*
X0081380Y0198921D01*
X0080603Y0199044D01*
X0079816Y0199044D01*
X0079038Y0198921D01*
X0078290Y0198678D01*
X0077588Y0198321D01*
X0076952Y0197858D01*
X0076886Y0197792D01*
X0080209Y0194469D01*
X0079785Y0194045D01*
X0076461Y0197368D01*
X0076395Y0197302D01*
X0075933Y0196665D01*
X0075575Y0195964D01*
X0075332Y0195215D01*
X0075209Y0194438D01*
X0075209Y0193651D01*
X0075332Y0192874D01*
X0075575Y0192125D01*
X0075933Y0191424D01*
X0076395Y0190787D01*
X0076461Y0190721D01*
X0079785Y0194044D01*
X0080209Y0193620D01*
X0080633Y0194044D01*
X0083957Y0190721D01*
X0084023Y0190787D01*
X0084485Y0191424D01*
X0084843Y0192125D01*
X0085086Y0192874D01*
X0085209Y0193651D01*
X0085209Y0194438D01*
X0085086Y0195215D01*
X0084843Y0195964D01*
X0084485Y0196665D01*
X0084023Y0197302D01*
X0083957Y0197368D01*
X0080633Y0194045D01*
X0080209Y0194469D01*
X0083532Y0197792D01*
X0083466Y0197858D01*
X0083367Y0197627D02*
X0164109Y0197627D01*
X0164109Y0198225D02*
X0082961Y0198225D01*
X0082768Y0197028D02*
X0083617Y0197028D01*
X0084222Y0197028D02*
X0164109Y0197028D01*
X0164109Y0196430D02*
X0084605Y0196430D01*
X0084886Y0195831D02*
X0164262Y0195831D01*
X0164510Y0195233D02*
X0085080Y0195233D01*
X0085178Y0194634D02*
X0164798Y0194634D01*
X0164798Y0194036D02*
X0085209Y0194036D01*
X0085175Y0193437D02*
X0164798Y0193437D01*
X0158857Y0192839D02*
X0085075Y0192839D01*
X0084880Y0192240D02*
X0158265Y0192240D01*
X0158017Y0191642D02*
X0084596Y0191642D01*
X0084209Y0191043D02*
X0157859Y0191043D01*
X0157859Y0190445D02*
X0083385Y0190445D01*
X0083532Y0190297D02*
X0080209Y0193620D01*
X0076886Y0190297D01*
X0076952Y0190231D01*
X0077588Y0189768D01*
X0078290Y0189411D01*
X0079038Y0189168D01*
X0079816Y0189044D01*
X0080603Y0189044D01*
X0081380Y0189168D01*
X0082128Y0189411D01*
X0082830Y0189768D01*
X0083466Y0190231D01*
X0083532Y0190297D01*
X0082937Y0189846D02*
X0157859Y0189846D01*
X0157859Y0189248D02*
X0081626Y0189248D01*
X0082786Y0191043D02*
X0083635Y0191043D01*
X0083036Y0191642D02*
X0082188Y0191642D01*
X0082438Y0192240D02*
X0081589Y0192240D01*
X0081839Y0192839D02*
X0080991Y0192839D01*
X0081241Y0193437D02*
X0080392Y0193437D01*
X0080026Y0193437D02*
X0079177Y0193437D01*
X0079427Y0192839D02*
X0078579Y0192839D01*
X0078829Y0192240D02*
X0077980Y0192240D01*
X0078230Y0191642D02*
X0077382Y0191642D01*
X0077632Y0191043D02*
X0076783Y0191043D01*
X0076209Y0191043D02*
X0023850Y0191043D01*
X0023850Y0190445D02*
X0077033Y0190445D01*
X0077481Y0189846D02*
X0023850Y0189846D01*
X0023850Y0189248D02*
X0078792Y0189248D01*
X0075822Y0191642D02*
X0023850Y0191642D01*
X0023850Y0192240D02*
X0075538Y0192240D01*
X0075344Y0192839D02*
X0023850Y0192839D01*
X0023850Y0193437D02*
X0075243Y0193437D01*
X0075209Y0194036D02*
X0023850Y0194036D01*
X0023850Y0194634D02*
X0075240Y0194634D01*
X0075338Y0195233D02*
X0023850Y0195233D01*
X0023850Y0195831D02*
X0075532Y0195831D01*
X0075813Y0196430D02*
X0023850Y0196430D01*
X0023850Y0197028D02*
X0076196Y0197028D01*
X0076801Y0197028D02*
X0077650Y0197028D01*
X0077400Y0196430D02*
X0078248Y0196430D01*
X0077998Y0195831D02*
X0078847Y0195831D01*
X0078597Y0195233D02*
X0079445Y0195233D01*
X0079195Y0194634D02*
X0080044Y0194634D01*
X0080374Y0194634D02*
X0081223Y0194634D01*
X0080973Y0195233D02*
X0081821Y0195233D01*
X0081571Y0195831D02*
X0082420Y0195831D01*
X0082170Y0196430D02*
X0083018Y0196430D01*
X0081680Y0198824D02*
X0152508Y0198824D01*
X0151909Y0199422D02*
X0023850Y0199422D01*
X0023850Y0198824D02*
X0078738Y0198824D01*
X0077457Y0198225D02*
X0023850Y0198225D01*
X0023850Y0197627D02*
X0077051Y0197627D01*
X0079776Y0194036D02*
X0079794Y0194036D01*
X0080624Y0194036D02*
X0080642Y0194036D01*
X0072657Y0182664D02*
X0158548Y0182664D01*
X0158548Y0183262D02*
X0071212Y0183262D01*
X0073466Y0182065D02*
X0158548Y0182065D01*
X0158548Y0181467D02*
X0074064Y0181467D01*
X0074663Y0180868D02*
X0158548Y0180868D01*
X0158548Y0180270D02*
X0075261Y0180270D01*
X0075860Y0179671D02*
X0158548Y0179671D01*
X0158548Y0179073D02*
X0076458Y0179073D01*
X0079557Y0171891D02*
X0106570Y0171891D01*
X0105125Y0171292D02*
X0079310Y0171292D01*
X0079062Y0170694D02*
X0104376Y0170694D01*
X0103777Y0170095D02*
X0078746Y0170095D01*
X0078147Y0169497D02*
X0103179Y0169497D01*
X0102866Y0168898D02*
X0077549Y0168898D01*
X0076514Y0168300D02*
X0102618Y0168300D01*
X0102370Y0167701D02*
X0062657Y0167701D01*
X0063255Y0167103D02*
X0102122Y0167103D01*
X0102093Y0166504D02*
X0063854Y0166504D01*
X0064452Y0165906D02*
X0102093Y0165906D01*
X0102093Y0165307D02*
X0065051Y0165307D01*
X0065649Y0164709D02*
X0085373Y0164709D01*
X0084357Y0164110D02*
X0066248Y0164110D01*
X0066275Y0164083D02*
X0067143Y0161988D01*
X0067143Y0159720D01*
X0066275Y0157625D01*
X0064672Y0156021D01*
X0062577Y0155154D01*
X0060309Y0155154D01*
X0058214Y0156021D01*
X0052368Y0161868D01*
X0051501Y0163963D01*
X0051501Y0166230D01*
X0052368Y0168325D01*
X0053972Y0169929D01*
X0056067Y0170796D01*
X0058334Y0170796D01*
X0060429Y0169929D01*
X0066275Y0164083D01*
X0066512Y0163512D02*
X0083759Y0163512D01*
X0083160Y0162913D02*
X0066760Y0162913D01*
X0067008Y0162314D02*
X0082852Y0162314D01*
X0082604Y0161716D02*
X0067143Y0161716D01*
X0067143Y0161117D02*
X0082356Y0161117D01*
X0082189Y0160519D02*
X0067143Y0160519D01*
X0067143Y0159920D02*
X0082189Y0159920D01*
X0082189Y0159322D02*
X0066978Y0159322D01*
X0066730Y0158723D02*
X0082189Y0158723D01*
X0082322Y0158125D02*
X0066483Y0158125D01*
X0066177Y0157526D02*
X0082570Y0157526D01*
X0082818Y0156928D02*
X0065578Y0156928D01*
X0064980Y0156329D02*
X0083080Y0156329D01*
X0083678Y0155731D02*
X0063970Y0155731D01*
X0058916Y0155731D02*
X0023850Y0155731D01*
X0023850Y0156329D02*
X0057907Y0156329D01*
X0057308Y0156928D02*
X0023850Y0156928D01*
X0023850Y0157526D02*
X0056710Y0157526D01*
X0056111Y0158125D02*
X0023850Y0158125D01*
X0023850Y0158723D02*
X0055512Y0158723D01*
X0054914Y0159322D02*
X0023850Y0159322D01*
X0023850Y0159920D02*
X0054315Y0159920D01*
X0053717Y0160519D02*
X0023850Y0160519D01*
X0023850Y0161117D02*
X0053118Y0161117D01*
X0052520Y0161716D02*
X0023850Y0161716D01*
X0023850Y0162314D02*
X0052183Y0162314D01*
X0051935Y0162913D02*
X0023850Y0162913D01*
X0023850Y0163512D02*
X0051687Y0163512D01*
X0051501Y0164110D02*
X0023850Y0164110D01*
X0023850Y0164709D02*
X0051501Y0164709D01*
X0051501Y0165307D02*
X0023850Y0165307D01*
X0023850Y0165906D02*
X0051501Y0165906D01*
X0051614Y0166504D02*
X0023850Y0166504D01*
X0023850Y0167103D02*
X0051862Y0167103D01*
X0052110Y0167701D02*
X0023850Y0167701D01*
X0023850Y0168300D02*
X0052358Y0168300D01*
X0052941Y0168898D02*
X0023850Y0168898D01*
X0023850Y0169497D02*
X0053540Y0169497D01*
X0054374Y0170095D02*
X0023850Y0170095D01*
X0023850Y0170694D02*
X0055819Y0170694D01*
X0058582Y0170694D02*
X0068715Y0170694D01*
X0068117Y0171292D02*
X0023850Y0171292D01*
X0023850Y0171891D02*
X0067518Y0171891D01*
X0066920Y0172489D02*
X0023850Y0172489D01*
X0023850Y0173088D02*
X0066321Y0173088D01*
X0065723Y0173686D02*
X0023850Y0173686D01*
X0023850Y0174285D02*
X0065124Y0174285D01*
X0064777Y0174883D02*
X0023850Y0174883D01*
X0023850Y0175482D02*
X0064529Y0175482D01*
X0064281Y0176080D02*
X0023850Y0176080D01*
X0023850Y0176679D02*
X0064087Y0176679D01*
X0064087Y0177277D02*
X0023850Y0177277D01*
X0023850Y0177876D02*
X0064087Y0177876D01*
X0064087Y0178474D02*
X0023850Y0178474D01*
X0023850Y0179073D02*
X0064193Y0179073D01*
X0064441Y0179671D02*
X0023850Y0179671D01*
X0023850Y0180270D02*
X0064689Y0180270D01*
X0064937Y0180868D02*
X0023850Y0180868D01*
X0023850Y0181467D02*
X0065510Y0181467D01*
X0066109Y0182065D02*
X0023850Y0182065D01*
X0023850Y0182664D02*
X0066918Y0182664D01*
X0068363Y0183262D02*
X0023850Y0183262D01*
X0023850Y0183861D02*
X0158548Y0183861D01*
X0158548Y0184459D02*
X0023850Y0184459D01*
X0023850Y0185058D02*
X0158548Y0185058D01*
X0158548Y0185656D02*
X0023850Y0185656D01*
X0023850Y0186255D02*
X0158253Y0186255D01*
X0158005Y0186853D02*
X0023850Y0186853D01*
X0023850Y0187452D02*
X0157859Y0187452D01*
X0157859Y0188050D02*
X0023850Y0188050D01*
X0023850Y0188649D02*
X0157859Y0188649D01*
X0171798Y0188649D02*
X0190617Y0188649D01*
X0190517Y0188050D02*
X0171798Y0188050D01*
X0171798Y0187452D02*
X0190517Y0187452D01*
X0190517Y0186853D02*
X0171798Y0186853D01*
X0171798Y0186255D02*
X0190540Y0186255D01*
X0190788Y0185656D02*
X0171798Y0185656D01*
X0171798Y0185058D02*
X0191036Y0185058D01*
X0191284Y0184459D02*
X0171798Y0184459D01*
X0171798Y0183861D02*
X0191831Y0183861D01*
X0192429Y0183262D02*
X0171798Y0183262D01*
X0171798Y0182664D02*
X0193344Y0182664D01*
X0193370Y0182065D02*
X0171798Y0182065D01*
X0171798Y0181467D02*
X0192440Y0181467D01*
X0191842Y0180868D02*
X0171798Y0180868D01*
X0171798Y0180270D02*
X0191288Y0180270D01*
X0191041Y0179671D02*
X0171798Y0179671D01*
X0171798Y0179073D02*
X0190793Y0179073D01*
X0190545Y0178474D02*
X0171798Y0178474D01*
X0171798Y0177876D02*
X0190517Y0177876D01*
X0190517Y0177277D02*
X0171798Y0177277D01*
X0171798Y0176679D02*
X0190517Y0176679D01*
X0190612Y0176080D02*
X0171798Y0176080D01*
X0171798Y0175482D02*
X0190860Y0175482D01*
X0191108Y0174883D02*
X0171798Y0174883D01*
X0171798Y0174285D02*
X0191407Y0174285D01*
X0192005Y0173686D02*
X0171798Y0173686D01*
X0171798Y0173088D02*
X0192604Y0173088D01*
X0193765Y0172489D02*
X0171798Y0172489D01*
X0158548Y0174883D02*
X0158513Y0174883D01*
X0158548Y0175482D02*
X0157914Y0175482D01*
X0157316Y0176080D02*
X0158548Y0176080D01*
X0158548Y0176679D02*
X0156717Y0176679D01*
X0156119Y0177277D02*
X0158548Y0177277D01*
X0158548Y0177876D02*
X0140855Y0177876D01*
X0140257Y0178474D02*
X0158548Y0178474D01*
X0153706Y0177277D02*
X0153106Y0177277D01*
X0153106Y0176679D02*
X0153706Y0176679D01*
X0153706Y0176080D02*
X0153106Y0176080D01*
X0153106Y0175482D02*
X0153706Y0175482D01*
X0153706Y0174883D02*
X0153106Y0174883D01*
X0153106Y0174285D02*
X0153706Y0174285D01*
X0153706Y0173686D02*
X0153106Y0173686D01*
X0153106Y0173088D02*
X0153706Y0173088D01*
X0153706Y0172489D02*
X0153106Y0172489D01*
X0153106Y0171891D02*
X0153706Y0171891D01*
X0153706Y0170780D02*
X0153706Y0164780D01*
X0156016Y0164780D01*
X0158548Y0167313D01*
X0158548Y0147228D01*
X0156596Y0149180D01*
X0150506Y0149180D01*
X0150506Y0165071D01*
X0150797Y0164780D01*
X0153106Y0164780D01*
X0153106Y0170780D01*
X0153706Y0170780D01*
X0153706Y0170694D02*
X0153106Y0170694D01*
X0153106Y0170095D02*
X0153706Y0170095D01*
X0153706Y0169497D02*
X0153106Y0169497D01*
X0153106Y0168898D02*
X0153706Y0168898D01*
X0153706Y0168300D02*
X0153106Y0168300D01*
X0153106Y0167701D02*
X0153706Y0167701D01*
X0153706Y0167103D02*
X0153106Y0167103D01*
X0153106Y0166504D02*
X0153706Y0166504D01*
X0153706Y0165906D02*
X0153106Y0165906D01*
X0153106Y0165307D02*
X0153706Y0165307D01*
X0156543Y0165307D02*
X0158548Y0165307D01*
X0158548Y0164709D02*
X0150506Y0164709D01*
X0150506Y0164110D02*
X0158548Y0164110D01*
X0158548Y0163512D02*
X0150506Y0163512D01*
X0150506Y0162913D02*
X0158548Y0162913D01*
X0158548Y0162314D02*
X0150506Y0162314D01*
X0150506Y0161716D02*
X0158548Y0161716D01*
X0158548Y0161117D02*
X0150506Y0161117D01*
X0150506Y0160519D02*
X0158548Y0160519D01*
X0158548Y0159920D02*
X0150506Y0159920D01*
X0150506Y0159322D02*
X0158548Y0159322D01*
X0158548Y0158723D02*
X0150506Y0158723D01*
X0150506Y0158125D02*
X0158548Y0158125D01*
X0158548Y0157526D02*
X0150506Y0157526D01*
X0150506Y0156928D02*
X0158548Y0156928D01*
X0158548Y0156329D02*
X0150506Y0156329D01*
X0150506Y0155731D02*
X0158548Y0155731D01*
X0158548Y0155132D02*
X0150506Y0155132D01*
X0150506Y0154534D02*
X0158548Y0154534D01*
X0158548Y0153935D02*
X0150506Y0153935D01*
X0150506Y0153337D02*
X0158548Y0153337D01*
X0158548Y0152738D02*
X0150506Y0152738D01*
X0150506Y0152140D02*
X0158548Y0152140D01*
X0158548Y0151541D02*
X0150506Y0151541D01*
X0150506Y0150943D02*
X0158548Y0150943D01*
X0158548Y0150344D02*
X0150506Y0150344D01*
X0150506Y0149746D02*
X0158548Y0149746D01*
X0158548Y0149147D02*
X0156629Y0149147D01*
X0157227Y0148549D02*
X0158548Y0148549D01*
X0158548Y0147950D02*
X0157826Y0147950D01*
X0158424Y0147352D02*
X0158548Y0147352D01*
X0171798Y0147352D02*
X0190517Y0147352D01*
X0190517Y0147950D02*
X0171798Y0147950D01*
X0171798Y0148549D02*
X0190576Y0148549D01*
X0190823Y0149147D02*
X0171798Y0149147D01*
X0171798Y0149746D02*
X0191071Y0149746D01*
X0191319Y0150344D02*
X0171798Y0150344D01*
X0171798Y0150943D02*
X0191916Y0150943D01*
X0192515Y0151541D02*
X0171798Y0151541D01*
X0171798Y0152140D02*
X0193550Y0152140D01*
X0193164Y0152738D02*
X0171798Y0152738D01*
X0171798Y0153337D02*
X0192355Y0153337D01*
X0191756Y0153935D02*
X0171798Y0153935D01*
X0171798Y0154534D02*
X0191253Y0154534D01*
X0191005Y0155132D02*
X0171798Y0155132D01*
X0171798Y0155731D02*
X0190757Y0155731D01*
X0190517Y0156329D02*
X0171798Y0156329D01*
X0171798Y0156928D02*
X0190517Y0156928D01*
X0190517Y0157526D02*
X0171798Y0157526D01*
X0171798Y0158125D02*
X0190517Y0158125D01*
X0190648Y0158723D02*
X0171798Y0158723D01*
X0171798Y0159322D02*
X0190896Y0159322D01*
X0191144Y0159920D02*
X0171798Y0159920D01*
X0171798Y0160519D02*
X0191492Y0160519D01*
X0192091Y0161117D02*
X0171798Y0161117D01*
X0171798Y0161716D02*
X0192689Y0161716D01*
X0193972Y0162314D02*
X0171798Y0162314D01*
X0158548Y0165906D02*
X0157141Y0165906D01*
X0157740Y0166504D02*
X0158548Y0166504D01*
X0158548Y0167103D02*
X0158338Y0167103D01*
X0147106Y0171891D02*
X0146840Y0171891D01*
X0147106Y0172489D02*
X0146242Y0172489D01*
X0145643Y0173088D02*
X0147106Y0173088D01*
X0147106Y0173686D02*
X0145045Y0173686D01*
X0144446Y0174285D02*
X0147701Y0174285D01*
X0148300Y0174883D02*
X0143848Y0174883D01*
X0143249Y0175482D02*
X0148898Y0175482D01*
X0149497Y0176080D02*
X0142651Y0176080D01*
X0142052Y0176679D02*
X0150095Y0176679D01*
X0150694Y0177277D02*
X0141454Y0177277D01*
X0136941Y0171891D02*
X0110417Y0171891D01*
X0111862Y0171292D02*
X0137539Y0171292D01*
X0138138Y0170694D02*
X0112611Y0170694D01*
X0113209Y0170095D02*
X0138736Y0170095D01*
X0139335Y0169497D02*
X0113808Y0169497D01*
X0114121Y0168898D02*
X0139933Y0168898D01*
X0140532Y0168300D02*
X0114369Y0168300D01*
X0114617Y0167701D02*
X0141130Y0167701D01*
X0141729Y0167103D02*
X0114865Y0167103D01*
X0114893Y0166504D02*
X0142327Y0166504D01*
X0142926Y0165906D02*
X0114893Y0165906D01*
X0114893Y0165307D02*
X0143506Y0165307D01*
X0143506Y0164709D02*
X0114893Y0164709D01*
X0114737Y0164110D02*
X0143506Y0164110D01*
X0143506Y0163512D02*
X0114489Y0163512D01*
X0114241Y0162913D02*
X0143506Y0162913D01*
X0143506Y0162314D02*
X0113993Y0162314D01*
X0113500Y0161716D02*
X0143506Y0161716D01*
X0143506Y0161117D02*
X0112902Y0161117D01*
X0112303Y0160519D02*
X0143506Y0160519D01*
X0143506Y0159920D02*
X0111119Y0159920D01*
X0107005Y0159322D02*
X0143506Y0159322D01*
X0143506Y0158723D02*
X0106406Y0158723D01*
X0105808Y0158125D02*
X0143506Y0158125D01*
X0143506Y0157526D02*
X0105209Y0157526D01*
X0104611Y0156928D02*
X0143506Y0156928D01*
X0143506Y0156329D02*
X0104012Y0156329D01*
X0103414Y0155731D02*
X0143506Y0155731D01*
X0143506Y0155132D02*
X0102815Y0155132D01*
X0102217Y0154534D02*
X0143506Y0154534D01*
X0143506Y0153935D02*
X0097720Y0153935D01*
X0097472Y0153337D02*
X0143506Y0153337D01*
X0143506Y0152738D02*
X0097224Y0152738D01*
X0096976Y0152140D02*
X0143506Y0152140D01*
X0143506Y0151541D02*
X0096396Y0151541D01*
X0095797Y0150943D02*
X0143506Y0150943D01*
X0143506Y0150344D02*
X0094970Y0150344D01*
X0093525Y0149746D02*
X0143506Y0149746D01*
X0143506Y0149147D02*
X0081211Y0149147D01*
X0081809Y0148549D02*
X0143506Y0148549D01*
X0143506Y0147950D02*
X0082408Y0147950D01*
X0083006Y0147352D02*
X0143506Y0147352D01*
X0143506Y0146753D02*
X0083605Y0146753D01*
X0084203Y0146155D02*
X0143506Y0146155D01*
X0143506Y0145556D02*
X0084553Y0145556D01*
X0084377Y0145981D02*
X0085245Y0143886D01*
X0085245Y0141618D01*
X0084377Y0139523D01*
X0082774Y0137920D01*
X0080679Y0137052D01*
X0078411Y0137052D01*
X0076316Y0137920D01*
X0070470Y0143766D01*
X0069603Y0145861D01*
X0069603Y0148128D01*
X0070470Y0150223D01*
X0072074Y0151827D01*
X0074169Y0152694D01*
X0076436Y0152694D01*
X0078531Y0151827D01*
X0084377Y0145981D01*
X0084801Y0144958D02*
X0143506Y0144958D01*
X0143506Y0144359D02*
X0085049Y0144359D01*
X0085245Y0143761D02*
X0143506Y0143761D01*
X0143506Y0143162D02*
X0085245Y0143162D01*
X0085245Y0142564D02*
X0143506Y0142564D01*
X0143506Y0141965D02*
X0085245Y0141965D01*
X0085141Y0141367D02*
X0143506Y0141367D01*
X0143506Y0140768D02*
X0084893Y0140768D01*
X0084645Y0140170D02*
X0143506Y0140170D01*
X0143506Y0139571D02*
X0084397Y0139571D01*
X0083827Y0138973D02*
X0143506Y0138973D01*
X0143506Y0138374D02*
X0083228Y0138374D01*
X0082426Y0137776D02*
X0143548Y0137776D01*
X0143548Y0137177D02*
X0080981Y0137177D01*
X0078109Y0137177D02*
X0023869Y0137177D01*
X0023855Y0136579D02*
X0143548Y0136579D01*
X0143548Y0135980D02*
X0023858Y0135980D01*
X0023873Y0135381D02*
X0143548Y0135381D01*
X0143548Y0134783D02*
X0023888Y0134783D01*
X0023903Y0134184D02*
X0143548Y0134184D01*
X0143548Y0133586D02*
X0023964Y0133586D01*
X0024068Y0132987D02*
X0143548Y0132987D01*
X0143548Y0132389D02*
X0024173Y0132389D01*
X0024278Y0131790D02*
X0143548Y0131790D01*
X0143548Y0131192D02*
X0024383Y0131192D01*
X0024487Y0130593D02*
X0143548Y0130593D01*
X0143548Y0129995D02*
X0024592Y0129995D01*
X0024697Y0129396D02*
X0143548Y0129396D01*
X0143548Y0128798D02*
X0024863Y0128798D01*
X0025095Y0128199D02*
X0143548Y0128199D01*
X0143548Y0127601D02*
X0025328Y0127601D01*
X0025560Y0127002D02*
X0143548Y0127002D01*
X0143548Y0126404D02*
X0025792Y0126404D01*
X0026025Y0125805D02*
X0143548Y0125805D01*
X0143548Y0125207D02*
X0026257Y0125207D01*
X0026490Y0124608D02*
X0143548Y0124608D01*
X0143548Y0124010D02*
X0026854Y0124010D01*
X0027235Y0123411D02*
X0143548Y0123411D01*
X0143548Y0122813D02*
X0027617Y0122813D01*
X0027999Y0122214D02*
X0143548Y0122214D01*
X0143548Y0121616D02*
X0028380Y0121616D01*
X0028762Y0121017D02*
X0143548Y0121017D01*
X0143548Y0120419D02*
X0029145Y0120419D01*
X0029720Y0119820D02*
X0143548Y0119820D01*
X0143548Y0119222D02*
X0030294Y0119222D01*
X0030869Y0118623D02*
X0143548Y0118623D01*
X0143760Y0118025D02*
X0031444Y0118025D01*
X0032018Y0117426D02*
X0144008Y0117426D01*
X0144504Y0116828D02*
X0032628Y0116828D01*
X0033488Y0116229D02*
X0145102Y0116229D01*
X0145701Y0115631D02*
X0034347Y0115631D01*
X0035206Y0115032D02*
X0146299Y0115032D01*
X0146898Y0114434D02*
X0036065Y0114434D01*
X0037163Y0113835D02*
X0147496Y0113835D01*
X0148095Y0113237D02*
X0038535Y0113237D01*
X0039908Y0112638D02*
X0147545Y0112638D01*
X0146914Y0112040D02*
X0041565Y0112040D01*
X0044320Y0111441D02*
X0146283Y0111441D01*
X0145653Y0110843D02*
X0078660Y0110843D01*
X0082438Y0110244D02*
X0145022Y0110244D01*
X0144391Y0109645D02*
X0086217Y0109645D01*
X0088193Y0109047D02*
X0143761Y0109047D01*
X0143484Y0108448D02*
X0123784Y0108448D01*
X0125715Y0107850D02*
X0143300Y0107850D01*
X0143285Y0107251D02*
X0126752Y0107251D01*
X0127788Y0106653D02*
X0143401Y0106653D01*
X0143631Y0106054D02*
X0128402Y0106054D01*
X0129001Y0105456D02*
X0144152Y0105456D01*
X0144720Y0104857D02*
X0129599Y0104857D01*
X0130014Y0104259D02*
X0145288Y0104259D01*
X0145856Y0103660D02*
X0130359Y0103660D01*
X0130705Y0103062D02*
X0146048Y0103062D01*
X0146048Y0102463D02*
X0131050Y0102463D01*
X0131254Y0101865D02*
X0146048Y0101865D01*
X0146048Y0101266D02*
X0131414Y0101266D01*
X0131575Y0100668D02*
X0146048Y0100668D01*
X0146048Y0100069D02*
X0131735Y0100069D01*
X0131840Y0099471D02*
X0146048Y0099471D01*
X0146048Y0098872D02*
X0131840Y0098872D01*
X0131840Y0098274D02*
X0146048Y0098274D01*
X0146048Y0097675D02*
X0131840Y0097675D01*
X0131840Y0097077D02*
X0146048Y0097077D01*
X0146048Y0096478D02*
X0131717Y0096478D01*
X0131556Y0095880D02*
X0146048Y0095880D01*
X0146048Y0095281D02*
X0131396Y0095281D01*
X0131236Y0094683D02*
X0146048Y0094683D01*
X0146048Y0094084D02*
X0131011Y0094084D01*
X0130665Y0093486D02*
X0146048Y0093486D01*
X0146048Y0092887D02*
X0130320Y0092887D01*
X0129974Y0092289D02*
X0146048Y0092289D01*
X0146048Y0091690D02*
X0129531Y0091690D01*
X0128933Y0091092D02*
X0146048Y0091092D01*
X0146048Y0090493D02*
X0128334Y0090493D01*
X0127670Y0089895D02*
X0146048Y0089895D01*
X0146048Y0089296D02*
X0126634Y0089296D01*
X0125597Y0088698D02*
X0146048Y0088698D01*
X0146048Y0088099D02*
X0123530Y0088099D01*
X0120895Y0085705D02*
X0146185Y0085705D01*
X0146048Y0086304D02*
X0120281Y0086304D01*
X0119667Y0086902D02*
X0146048Y0086902D01*
X0146048Y0087501D02*
X0119054Y0087501D01*
X0119346Y0088099D02*
X0118440Y0088099D01*
X0121508Y0085107D02*
X0146433Y0085107D01*
X0146823Y0084508D02*
X0122122Y0084508D01*
X0122735Y0083910D02*
X0147422Y0083910D01*
X0148020Y0083311D02*
X0123349Y0083311D01*
X0123962Y0082712D02*
X0148619Y0082712D01*
X0149217Y0082114D02*
X0124576Y0082114D01*
X0125189Y0081515D02*
X0149816Y0081515D01*
X0150414Y0080917D02*
X0125803Y0080917D01*
X0126416Y0080318D02*
X0151013Y0080318D01*
X0151581Y0079750D02*
X0151581Y0079750D01*
X0111159Y0096478D02*
X0110931Y0096478D01*
X0111035Y0097077D02*
X0110332Y0097077D01*
X0109733Y0097675D02*
X0111035Y0097675D01*
X0111035Y0098274D02*
X0108973Y0098274D01*
X0109564Y0097845D02*
X0109564Y0097845D01*
X0108149Y0098872D02*
X0111035Y0098872D01*
X0111035Y0099471D02*
X0107325Y0099471D01*
X0106501Y0100069D02*
X0111140Y0100069D01*
X0111301Y0100668D02*
X0105677Y0100668D01*
X0104853Y0101266D02*
X0111461Y0101266D01*
X0111622Y0101865D02*
X0104029Y0101865D01*
X0103205Y0102463D02*
X0111825Y0102463D01*
X0112171Y0103062D02*
X0102322Y0103062D01*
X0102519Y0102962D02*
X0102519Y0102962D01*
X0101147Y0103660D02*
X0112516Y0103660D01*
X0112862Y0104259D02*
X0099972Y0104259D01*
X0098797Y0104857D02*
X0113276Y0104857D01*
X0113875Y0105456D02*
X0097622Y0105456D01*
X0096447Y0106054D02*
X0114473Y0106054D01*
X0115087Y0106653D02*
X0095272Y0106653D01*
X0093720Y0107251D02*
X0116124Y0107251D01*
X0117160Y0107850D02*
X0091878Y0107850D01*
X0090036Y0108448D02*
X0119091Y0108448D01*
X0076664Y0137776D02*
X0023850Y0137776D01*
X0023850Y0138374D02*
X0075862Y0138374D01*
X0075263Y0138973D02*
X0023850Y0138973D01*
X0023850Y0139571D02*
X0074665Y0139571D01*
X0074066Y0140170D02*
X0023850Y0140170D01*
X0023850Y0140768D02*
X0073468Y0140768D01*
X0072869Y0141367D02*
X0023850Y0141367D01*
X0023850Y0141965D02*
X0072271Y0141965D01*
X0071672Y0142564D02*
X0023850Y0142564D01*
X0023850Y0143162D02*
X0071074Y0143162D01*
X0070475Y0143761D02*
X0023850Y0143761D01*
X0023850Y0144359D02*
X0070224Y0144359D01*
X0069977Y0144958D02*
X0023850Y0144958D01*
X0023850Y0145556D02*
X0069729Y0145556D01*
X0069603Y0146155D02*
X0023850Y0146155D01*
X0023850Y0146753D02*
X0069603Y0146753D01*
X0069603Y0147352D02*
X0023850Y0147352D01*
X0023850Y0147950D02*
X0069603Y0147950D01*
X0069777Y0148549D02*
X0023850Y0148549D01*
X0023850Y0149147D02*
X0070025Y0149147D01*
X0070273Y0149746D02*
X0023850Y0149746D01*
X0023850Y0150344D02*
X0070591Y0150344D01*
X0071190Y0150943D02*
X0023850Y0150943D01*
X0023850Y0151541D02*
X0071788Y0151541D01*
X0072830Y0152140D02*
X0023850Y0152140D01*
X0023850Y0152738D02*
X0086671Y0152738D01*
X0087269Y0152140D02*
X0077775Y0152140D01*
X0078817Y0151541D02*
X0087868Y0151541D01*
X0088466Y0150943D02*
X0079415Y0150943D01*
X0080014Y0150344D02*
X0089293Y0150344D01*
X0090738Y0149746D02*
X0080612Y0149746D01*
X0085474Y0153935D02*
X0023850Y0153935D01*
X0023850Y0153337D02*
X0086072Y0153337D01*
X0084875Y0154534D02*
X0023850Y0154534D01*
X0023850Y0155132D02*
X0084277Y0155132D01*
X0093216Y0162314D02*
X0100098Y0162314D01*
X0099499Y0161716D02*
X0093815Y0161716D01*
X0094413Y0161117D02*
X0098901Y0161117D01*
X0100696Y0162913D02*
X0092618Y0162913D01*
X0092019Y0163512D02*
X0101295Y0163512D01*
X0101893Y0164110D02*
X0091421Y0164110D01*
X0090405Y0164709D02*
X0102093Y0164709D01*
X0071545Y0168300D02*
X0062058Y0168300D01*
X0061460Y0168898D02*
X0070511Y0168898D01*
X0069912Y0169497D02*
X0060861Y0169497D01*
X0060027Y0170095D02*
X0069314Y0170095D01*
X0023850Y0200021D02*
X0151311Y0200021D01*
X0150712Y0200619D02*
X0023850Y0200619D01*
X0023850Y0201218D02*
X0150114Y0201218D01*
X0149515Y0201816D02*
X0023850Y0201816D01*
X0023850Y0202415D02*
X0148917Y0202415D01*
X0148318Y0203013D02*
X0023850Y0203013D01*
X0023850Y0203612D02*
X0147883Y0203612D01*
X0147635Y0204210D02*
X0023850Y0204210D01*
X0074277Y0217976D02*
X0148914Y0217976D01*
X0147469Y0217378D02*
X0075721Y0217378D01*
X0076396Y0216779D02*
X0079698Y0216779D01*
X0078456Y0216181D02*
X0076994Y0216181D01*
X0077593Y0215582D02*
X0077858Y0215582D01*
X0086565Y0226954D02*
X0171785Y0226954D01*
X0172113Y0216779D02*
X0175628Y0216779D01*
X0175029Y0216181D02*
X0173575Y0216181D01*
X0174353Y0215582D02*
X0174750Y0215582D01*
X0171265Y0215582D02*
X0170665Y0215582D01*
X0170665Y0216181D02*
X0171265Y0216181D01*
X0171265Y0216779D02*
X0170665Y0216779D01*
X0169818Y0216779D02*
X0163492Y0216779D01*
X0164734Y0216181D02*
X0168356Y0216181D01*
X0167578Y0215582D02*
X0165333Y0215582D01*
X0165931Y0214983D02*
X0167026Y0214983D01*
X0166621Y0214385D02*
X0166448Y0214385D01*
X0170665Y0214385D02*
X0171265Y0214385D01*
X0171265Y0214983D02*
X0170665Y0214983D01*
X0170665Y0213786D02*
X0171265Y0213786D01*
X0171265Y0213188D02*
X0170665Y0213188D01*
X0170665Y0212589D02*
X0171265Y0212589D01*
X0171265Y0211598D02*
X0171265Y0206898D01*
X0171359Y0206898D01*
X0172136Y0207022D01*
X0172885Y0207265D01*
X0173586Y0207622D01*
X0174223Y0208085D01*
X0174565Y0208427D01*
X0174565Y0206661D01*
X0174872Y0205922D01*
X0171272Y0205922D01*
X0170280Y0205511D01*
X0170002Y0205233D01*
X0164012Y0205233D01*
X0164591Y0205473D01*
X0166391Y0207273D01*
X0167028Y0208811D01*
X0167152Y0208641D01*
X0167708Y0208085D01*
X0168345Y0207622D01*
X0169046Y0207265D01*
X0169795Y0207022D01*
X0170572Y0206898D01*
X0170665Y0206898D01*
X0170665Y0211598D01*
X0171265Y0211598D01*
X0171265Y0211392D02*
X0170665Y0211392D01*
X0170665Y0210794D02*
X0171265Y0210794D01*
X0171265Y0210195D02*
X0170665Y0210195D01*
X0170665Y0209597D02*
X0171265Y0209597D01*
X0171265Y0208998D02*
X0170665Y0208998D01*
X0170665Y0208400D02*
X0171265Y0208400D01*
X0171265Y0207801D02*
X0170665Y0207801D01*
X0170665Y0207203D02*
X0171265Y0207203D01*
X0172694Y0207203D02*
X0174565Y0207203D01*
X0174565Y0207801D02*
X0173833Y0207801D01*
X0174538Y0208400D02*
X0174565Y0208400D01*
X0174589Y0206604D02*
X0165722Y0206604D01*
X0165124Y0206006D02*
X0174837Y0206006D01*
X0177300Y0204210D02*
X0186609Y0204210D01*
X0186609Y0203612D02*
X0177487Y0203612D01*
X0177487Y0203013D02*
X0186793Y0203013D01*
X0187070Y0202415D02*
X0177487Y0202415D01*
X0177487Y0201816D02*
X0187669Y0201816D01*
X0186523Y0204809D02*
X0185952Y0204809D01*
X0191593Y0200619D02*
X0177487Y0200619D01*
X0177487Y0200021D02*
X0191185Y0200021D01*
X0190937Y0199422D02*
X0177369Y0199422D01*
X0177121Y0198824D02*
X0190689Y0198824D01*
X0190517Y0198225D02*
X0176586Y0198225D01*
X0175523Y0197627D02*
X0190517Y0197627D01*
X0190517Y0197028D02*
X0172487Y0197028D01*
X0172487Y0196430D02*
X0190517Y0196430D01*
X0190716Y0195831D02*
X0172334Y0195831D01*
X0172086Y0195233D02*
X0190964Y0195233D01*
X0191211Y0194634D02*
X0171798Y0194634D01*
X0171798Y0194036D02*
X0191656Y0194036D01*
X0192254Y0193437D02*
X0171798Y0193437D01*
X0171798Y0192839D02*
X0192922Y0192839D01*
X0193792Y0192240D02*
X0171798Y0192240D01*
X0171798Y0191642D02*
X0192615Y0191642D01*
X0192016Y0191043D02*
X0171798Y0191043D01*
X0171798Y0190445D02*
X0191418Y0190445D01*
X0191113Y0189846D02*
X0171798Y0189846D01*
X0171798Y0189248D02*
X0190865Y0189248D01*
X0202942Y0192240D02*
X0218548Y0192240D01*
X0192191Y0201218D02*
X0177487Y0201218D01*
X0170176Y0205407D02*
X0164433Y0205407D01*
X0166321Y0207203D02*
X0169237Y0207203D01*
X0168098Y0207801D02*
X0166610Y0207801D01*
X0166858Y0208400D02*
X0167393Y0208400D01*
X0157196Y0216181D02*
X0155734Y0216181D01*
X0155136Y0216779D02*
X0158438Y0216779D01*
X0156598Y0215582D02*
X0156333Y0215582D01*
X0154462Y0217378D02*
X0180563Y0217378D01*
X0180015Y0217976D02*
X0153017Y0217976D01*
X0146795Y0216779D02*
X0107563Y0216779D01*
X0108161Y0216181D02*
X0146196Y0216181D01*
X0145598Y0215582D02*
X0108440Y0215582D01*
X0108625Y0214983D02*
X0145316Y0214983D01*
X0145068Y0214385D02*
X0108625Y0214385D01*
X0108625Y0213786D02*
X0144820Y0213786D01*
X0144572Y0213188D02*
X0108625Y0213188D01*
X0108625Y0212589D02*
X0144565Y0212589D01*
X0144565Y0211991D02*
X0108625Y0211991D01*
X0108625Y0211392D02*
X0144565Y0211392D01*
X0144565Y0210794D02*
X0108625Y0210794D01*
X0108625Y0210195D02*
X0144743Y0210195D01*
X0144991Y0209597D02*
X0108625Y0209597D01*
X0108625Y0208998D02*
X0145239Y0208998D01*
X0145487Y0208400D02*
X0108625Y0208400D01*
X0108625Y0207801D02*
X0146011Y0207801D01*
X0146610Y0207203D02*
X0108625Y0207203D01*
X0108602Y0206604D02*
X0147208Y0206604D01*
X0147465Y0206006D02*
X0108354Y0206006D01*
X0107952Y0205407D02*
X0147465Y0205407D01*
X0147465Y0204809D02*
X0107212Y0204809D01*
X0198067Y0170694D02*
X0198667Y0170694D01*
X0198667Y0170095D02*
X0198067Y0170095D01*
X0198067Y0169497D02*
X0198667Y0169497D01*
X0198667Y0168898D02*
X0198067Y0168898D01*
X0198067Y0168300D02*
X0198667Y0168300D01*
X0198667Y0167059D02*
X0204817Y0167059D01*
X0204817Y0166977D01*
X0204668Y0166229D01*
X0204376Y0165524D01*
X0203951Y0164889D01*
X0203412Y0164349D01*
X0202777Y0163925D01*
X0202072Y0163633D01*
X0201323Y0163484D01*
X0198667Y0163484D01*
X0198667Y0167059D01*
X0198667Y0166504D02*
X0198067Y0166504D01*
X0198067Y0165906D02*
X0198667Y0165906D01*
X0198667Y0165307D02*
X0198067Y0165307D01*
X0198067Y0164709D02*
X0198667Y0164709D01*
X0198667Y0164110D02*
X0198067Y0164110D01*
X0198067Y0163512D02*
X0198667Y0163512D01*
X0201460Y0163512D02*
X0218548Y0163512D01*
X0218548Y0164110D02*
X0203054Y0164110D01*
X0203771Y0164709D02*
X0218548Y0164709D01*
X0218548Y0165307D02*
X0204231Y0165307D01*
X0204534Y0165906D02*
X0218548Y0165906D01*
X0218548Y0166504D02*
X0204722Y0166504D01*
X0190517Y0146753D02*
X0171798Y0146753D01*
X0171798Y0146155D02*
X0190582Y0146155D01*
X0190829Y0145556D02*
X0171798Y0145556D01*
X0171798Y0144958D02*
X0191077Y0144958D01*
X0191332Y0144359D02*
X0171798Y0144359D01*
X0171798Y0143761D02*
X0191931Y0143761D01*
X0192529Y0143162D02*
X0171798Y0143162D01*
X0171798Y0142564D02*
X0193586Y0142564D01*
X0193128Y0141965D02*
X0171798Y0141965D01*
X0171798Y0141367D02*
X0192340Y0141367D01*
X0191741Y0140768D02*
X0171798Y0140768D01*
X0171798Y0140170D02*
X0191247Y0140170D01*
X0190999Y0139571D02*
X0171798Y0139571D01*
X0172258Y0138973D02*
X0190751Y0138973D01*
X0190517Y0138374D02*
X0172857Y0138374D01*
X0173455Y0137776D02*
X0190517Y0137776D01*
X0190517Y0137177D02*
X0174054Y0137177D01*
X0174652Y0136579D02*
X0190517Y0136579D01*
X0190654Y0135980D02*
X0175251Y0135980D01*
X0175849Y0135381D02*
X0190902Y0135381D01*
X0191150Y0134783D02*
X0176448Y0134783D01*
X0177046Y0134184D02*
X0191507Y0134184D01*
X0192106Y0133586D02*
X0177645Y0133586D01*
X0178243Y0132987D02*
X0192704Y0132987D01*
X0192764Y0131790D02*
X0179440Y0131790D01*
X0178842Y0132389D02*
X0194007Y0132389D01*
X0192165Y0131192D02*
X0180039Y0131192D01*
X0254298Y0182450D02*
X0254298Y0183784D01*
X0254662Y0183633D01*
X0255410Y0183484D01*
X0258067Y0183484D01*
X0258067Y0187059D01*
X0258667Y0187059D01*
X0258667Y0183484D01*
X0261323Y0183484D01*
X0262072Y0183633D01*
X0262777Y0183925D01*
X0263412Y0184349D01*
X0263548Y0184486D01*
X0263548Y0181989D01*
X0261991Y0182634D01*
X0254743Y0182634D01*
X0254298Y0182450D01*
X0254298Y0182664D02*
X0263548Y0182664D01*
X0263548Y0183262D02*
X0254298Y0183262D01*
X0258067Y0183861D02*
X0258667Y0183861D01*
X0258667Y0184459D02*
X0258067Y0184459D01*
X0258067Y0185058D02*
X0258667Y0185058D01*
X0258667Y0185656D02*
X0258067Y0185656D01*
X0258067Y0186255D02*
X0258667Y0186255D01*
X0258667Y0186853D02*
X0258067Y0186853D01*
X0258067Y0187659D02*
X0258067Y0191234D01*
X0255410Y0191234D01*
X0254662Y0191085D01*
X0254298Y0190934D01*
X0254298Y0192269D01*
X0254743Y0192084D01*
X0261991Y0192084D01*
X0263548Y0192729D01*
X0263548Y0190233D01*
X0263412Y0190369D01*
X0262777Y0190793D01*
X0262072Y0191085D01*
X0261323Y0191234D01*
X0258667Y0191234D01*
X0258667Y0187659D01*
X0258067Y0187659D01*
X0258067Y0188050D02*
X0258667Y0188050D01*
X0258667Y0188649D02*
X0258067Y0188649D01*
X0258067Y0189248D02*
X0258667Y0189248D01*
X0258667Y0189846D02*
X0258067Y0189846D01*
X0258067Y0190445D02*
X0258667Y0190445D01*
X0258667Y0191043D02*
X0258067Y0191043D01*
X0254561Y0191043D02*
X0254298Y0191043D01*
X0254298Y0191642D02*
X0263548Y0191642D01*
X0263548Y0192240D02*
X0262367Y0192240D01*
X0262173Y0191043D02*
X0263548Y0191043D01*
X0263548Y0190445D02*
X0263298Y0190445D01*
X0263522Y0184459D02*
X0263548Y0184459D01*
X0263548Y0183861D02*
X0262622Y0183861D01*
X0263363Y0182065D02*
X0263548Y0182065D01*
X0254367Y0192240D02*
X0254298Y0192240D01*
X0270548Y0201816D02*
X0303548Y0201816D01*
X0303548Y0201218D02*
X0274871Y0201218D01*
X0276447Y0200619D02*
X0303548Y0200619D01*
X0303548Y0200021D02*
X0277460Y0200021D01*
X0278059Y0199422D02*
X0303548Y0199422D01*
X0303548Y0198824D02*
X0278657Y0198824D01*
X0279256Y0198225D02*
X0303548Y0198225D01*
X0303548Y0197627D02*
X0279854Y0197627D01*
X0280453Y0197028D02*
X0303548Y0197028D01*
X0303548Y0196430D02*
X0281051Y0196430D01*
X0281650Y0195831D02*
X0303548Y0195831D01*
X0303548Y0195233D02*
X0282248Y0195233D01*
X0282847Y0194634D02*
X0303548Y0194634D01*
X0303151Y0194036D02*
X0283445Y0194036D01*
X0284044Y0193437D02*
X0302552Y0193437D01*
X0301954Y0192839D02*
X0284642Y0192839D01*
X0285109Y0192240D02*
X0301355Y0192240D01*
X0300757Y0191642D02*
X0285357Y0191642D01*
X0285548Y0191043D02*
X0300158Y0191043D01*
X0299560Y0190445D02*
X0285548Y0190445D01*
X0285548Y0189846D02*
X0298961Y0189846D01*
X0298363Y0189248D02*
X0285548Y0189248D01*
X0285548Y0188649D02*
X0297764Y0188649D01*
X0297166Y0188050D02*
X0285548Y0188050D01*
X0285548Y0187452D02*
X0296883Y0187452D01*
X0296635Y0186853D02*
X0285548Y0186853D01*
X0285548Y0186255D02*
X0296573Y0186255D01*
X0296573Y0185656D02*
X0285548Y0185656D01*
X0285548Y0185058D02*
X0296573Y0185058D01*
X0296573Y0184459D02*
X0285548Y0184459D01*
X0285548Y0183861D02*
X0296573Y0183861D01*
X0296573Y0183262D02*
X0285548Y0183262D01*
X0285548Y0182664D02*
X0296573Y0182664D01*
X0296573Y0182065D02*
X0285548Y0182065D01*
X0285548Y0181467D02*
X0296573Y0181467D01*
X0296573Y0180868D02*
X0285548Y0180868D01*
X0285548Y0180270D02*
X0296573Y0180270D01*
X0296573Y0179671D02*
X0285548Y0179671D01*
X0285548Y0179073D02*
X0296573Y0179073D01*
X0296573Y0178474D02*
X0285548Y0178474D01*
X0285548Y0177876D02*
X0296282Y0177876D01*
X0295582Y0177277D02*
X0285548Y0177277D01*
X0285548Y0176679D02*
X0294983Y0176679D01*
X0294385Y0176080D02*
X0285548Y0176080D01*
X0285548Y0175482D02*
X0293993Y0175482D01*
X0293745Y0174883D02*
X0285548Y0174883D01*
X0285548Y0174285D02*
X0293497Y0174285D01*
X0293249Y0173686D02*
X0285548Y0173686D01*
X0285548Y0173088D02*
X0293073Y0173088D01*
X0293073Y0172489D02*
X0285548Y0172489D01*
X0285548Y0171891D02*
X0293073Y0171891D01*
X0293073Y0171292D02*
X0285548Y0171292D01*
X0285548Y0170694D02*
X0293073Y0170694D01*
X0293232Y0170095D02*
X0285548Y0170095D01*
X0285548Y0169497D02*
X0293480Y0169497D01*
X0293728Y0168898D02*
X0285548Y0168898D01*
X0285548Y0168300D02*
X0293975Y0168300D01*
X0294342Y0167701D02*
X0285548Y0167701D01*
X0285548Y0167103D02*
X0294941Y0167103D01*
X0295539Y0166504D02*
X0285548Y0166504D01*
X0285548Y0165906D02*
X0296180Y0165906D01*
X0297625Y0165307D02*
X0285548Y0165307D01*
X0285548Y0164709D02*
X0311048Y0164709D01*
X0311048Y0165307D02*
X0302522Y0165307D01*
X0303967Y0165906D02*
X0311048Y0165906D01*
X0311048Y0166504D02*
X0304607Y0166504D01*
X0305206Y0167103D02*
X0311048Y0167103D01*
X0311048Y0167701D02*
X0305805Y0167701D01*
X0306171Y0168300D02*
X0311048Y0168300D01*
X0311048Y0168898D02*
X0306419Y0168898D01*
X0306667Y0169497D02*
X0311048Y0169497D01*
X0311048Y0170095D02*
X0306915Y0170095D01*
X0307073Y0170694D02*
X0311048Y0170694D01*
X0311048Y0171292D02*
X0307073Y0171292D01*
X0307073Y0171891D02*
X0311048Y0171891D01*
X0311048Y0172489D02*
X0307073Y0172489D01*
X0307073Y0173088D02*
X0311048Y0173088D01*
X0311048Y0173686D02*
X0306898Y0173686D01*
X0306650Y0174285D02*
X0311048Y0174285D01*
X0311048Y0174883D02*
X0306402Y0174883D01*
X0306154Y0175482D02*
X0311048Y0175482D01*
X0311048Y0176080D02*
X0305762Y0176080D01*
X0305164Y0176679D02*
X0311048Y0176679D01*
X0311048Y0177277D02*
X0304565Y0177277D01*
X0303865Y0177876D02*
X0311048Y0177876D01*
X0311048Y0178474D02*
X0303573Y0178474D01*
X0303573Y0179073D02*
X0311048Y0179073D01*
X0310470Y0179671D02*
X0303573Y0179671D01*
X0303573Y0180270D02*
X0309613Y0180270D01*
X0309014Y0180868D02*
X0303573Y0180868D01*
X0303573Y0181467D02*
X0308416Y0181467D01*
X0307959Y0182065D02*
X0303573Y0182065D01*
X0303573Y0182664D02*
X0307711Y0182664D01*
X0307463Y0183262D02*
X0303573Y0183262D01*
X0303573Y0183861D02*
X0307215Y0183861D01*
X0306993Y0184459D02*
X0303573Y0184459D01*
X0304073Y0185058D02*
X0306993Y0185058D01*
X0306993Y0185656D02*
X0304671Y0185656D01*
X0305270Y0186255D02*
X0306993Y0186255D01*
X0306993Y0186853D02*
X0305868Y0186853D01*
X0306467Y0187452D02*
X0307105Y0187452D01*
X0307065Y0188050D02*
X0307353Y0188050D01*
X0310529Y0192240D02*
X0311275Y0192240D01*
X0310548Y0192839D02*
X0352298Y0192839D01*
X0352298Y0193437D02*
X0310548Y0193437D01*
X0310548Y0194036D02*
X0352298Y0194036D01*
X0352298Y0194634D02*
X0330289Y0194634D01*
X0330062Y0194519D02*
X0330847Y0194919D01*
X0331560Y0195437D01*
X0331660Y0195536D01*
X0327912Y0199284D01*
X0324165Y0195536D01*
X0324264Y0195437D01*
X0324977Y0194919D01*
X0325763Y0194519D01*
X0326601Y0194246D01*
X0327472Y0194108D01*
X0328353Y0194108D01*
X0329224Y0194246D01*
X0330062Y0194519D01*
X0331279Y0195233D02*
X0352298Y0195233D01*
X0352298Y0195831D02*
X0331365Y0195831D01*
X0331615Y0196430D02*
X0330767Y0196430D01*
X0331017Y0197028D02*
X0330168Y0197028D01*
X0330418Y0197627D02*
X0329570Y0197627D01*
X0329820Y0198225D02*
X0328971Y0198225D01*
X0329221Y0198824D02*
X0328373Y0198824D01*
X0328623Y0199422D02*
X0328050Y0199422D01*
X0327912Y0199284D02*
X0328337Y0199708D01*
X0332084Y0195961D01*
X0332184Y0196060D01*
X0332702Y0196773D01*
X0333102Y0197559D01*
X0333374Y0198397D01*
X0333512Y0199268D01*
X0333512Y0200149D01*
X0333374Y0201020D01*
X0333102Y0201858D01*
X0332702Y0202643D01*
X0332184Y0203357D01*
X0332084Y0203456D01*
X0328337Y0199708D01*
X0327912Y0200133D01*
X0327488Y0199708D01*
X0327912Y0199284D01*
X0327774Y0199422D02*
X0327202Y0199422D01*
X0327488Y0199708D02*
X0323740Y0195961D01*
X0323641Y0196060D01*
X0323123Y0196773D01*
X0322723Y0197559D01*
X0322450Y0198397D01*
X0322312Y0199268D01*
X0322312Y0200149D01*
X0322450Y0201020D01*
X0322723Y0201858D01*
X0323123Y0202643D01*
X0323641Y0203357D01*
X0323740Y0203456D01*
X0327488Y0199708D01*
X0327176Y0200021D02*
X0327800Y0200021D01*
X0327912Y0200133D02*
X0324165Y0203880D01*
X0324264Y0203980D01*
X0324977Y0204498D01*
X0325763Y0204898D01*
X0326601Y0205170D01*
X0327472Y0205308D01*
X0328353Y0205308D01*
X0329224Y0205170D01*
X0330062Y0204898D01*
X0330847Y0204498D01*
X0331560Y0203980D01*
X0331660Y0203880D01*
X0327912Y0200133D01*
X0328024Y0200021D02*
X0328649Y0200021D01*
X0328399Y0200619D02*
X0329247Y0200619D01*
X0328997Y0201218D02*
X0329846Y0201218D01*
X0329596Y0201816D02*
X0330444Y0201816D01*
X0330194Y0202415D02*
X0331043Y0202415D01*
X0330793Y0203013D02*
X0331641Y0203013D01*
X0331391Y0203612D02*
X0352298Y0203612D01*
X0352298Y0204210D02*
X0331243Y0204210D01*
X0330237Y0204809D02*
X0352298Y0204809D01*
X0352298Y0205407D02*
X0312677Y0205407D01*
X0313078Y0206006D02*
X0352298Y0206006D01*
X0351933Y0206604D02*
X0313326Y0206604D01*
X0313350Y0207203D02*
X0351334Y0207203D01*
X0350736Y0207801D02*
X0313350Y0207801D01*
X0313350Y0208400D02*
X0350212Y0208400D01*
X0349964Y0208998D02*
X0313350Y0208998D01*
X0313350Y0209597D02*
X0349716Y0209597D01*
X0349468Y0210195D02*
X0313350Y0210195D01*
X0313350Y0210794D02*
X0349290Y0210794D01*
X0349290Y0211392D02*
X0313350Y0211392D01*
X0313350Y0211991D02*
X0349290Y0211991D01*
X0349290Y0212589D02*
X0313350Y0212589D01*
X0313350Y0213188D02*
X0349297Y0213188D01*
X0349545Y0213786D02*
X0313350Y0213786D01*
X0313350Y0214385D02*
X0349792Y0214385D01*
X0350040Y0214983D02*
X0313350Y0214983D01*
X0313165Y0215582D02*
X0350322Y0215582D01*
X0350921Y0216181D02*
X0312886Y0216181D01*
X0312287Y0216779D02*
X0351519Y0216779D01*
X0352194Y0217378D02*
X0280446Y0217378D01*
X0281120Y0216779D02*
X0284423Y0216779D01*
X0283181Y0216181D02*
X0281718Y0216181D01*
X0282317Y0215582D02*
X0282582Y0215582D01*
X0279001Y0217976D02*
X0353638Y0217976D01*
X0357741Y0217976D02*
X0432569Y0217976D01*
X0432569Y0217378D02*
X0359186Y0217378D01*
X0359860Y0216779D02*
X0363163Y0216779D01*
X0361921Y0216181D02*
X0360459Y0216181D01*
X0361057Y0215582D02*
X0361322Y0215582D01*
X0368217Y0216779D02*
X0374542Y0216779D01*
X0375390Y0216779D02*
X0375990Y0216779D01*
X0375990Y0216181D02*
X0375390Y0216181D01*
X0375390Y0215582D02*
X0375990Y0215582D01*
X0375990Y0214983D02*
X0375390Y0214983D01*
X0375390Y0214385D02*
X0375990Y0214385D01*
X0375990Y0213786D02*
X0375390Y0213786D01*
X0375390Y0213188D02*
X0375990Y0213188D01*
X0375990Y0212589D02*
X0375390Y0212589D01*
X0375390Y0211392D02*
X0375990Y0211392D01*
X0375990Y0210794D02*
X0375390Y0210794D01*
X0375390Y0210195D02*
X0375990Y0210195D01*
X0375990Y0209597D02*
X0375390Y0209597D01*
X0375390Y0208998D02*
X0375990Y0208998D01*
X0375990Y0208400D02*
X0375390Y0208400D01*
X0375390Y0207801D02*
X0375990Y0207801D01*
X0375990Y0207203D02*
X0375390Y0207203D01*
X0373961Y0207203D02*
X0371045Y0207203D01*
X0371334Y0207801D02*
X0372822Y0207801D01*
X0372117Y0208400D02*
X0371582Y0208400D01*
X0370447Y0206604D02*
X0379313Y0206604D01*
X0379290Y0207203D02*
X0377419Y0207203D01*
X0378557Y0207801D02*
X0379290Y0207801D01*
X0379262Y0208400D02*
X0379290Y0208400D01*
X0379561Y0206006D02*
X0369848Y0206006D01*
X0369157Y0205407D02*
X0379962Y0205407D01*
X0380703Y0204809D02*
X0368048Y0204809D01*
X0368048Y0204210D02*
X0432569Y0204210D01*
X0432569Y0203612D02*
X0368048Y0203612D01*
X0368048Y0203013D02*
X0432569Y0203013D01*
X0432569Y0202415D02*
X0368048Y0202415D01*
X0368048Y0201816D02*
X0432569Y0201816D01*
X0432569Y0201218D02*
X0368048Y0201218D01*
X0368048Y0200619D02*
X0432569Y0200619D01*
X0432569Y0200021D02*
X0368048Y0200021D01*
X0368048Y0199422D02*
X0432569Y0199422D01*
X0432569Y0198824D02*
X0368048Y0198824D01*
X0368048Y0198225D02*
X0432569Y0198225D01*
X0432569Y0197627D02*
X0368048Y0197627D01*
X0368048Y0197028D02*
X0432569Y0197028D01*
X0432569Y0196430D02*
X0368048Y0196430D01*
X0368048Y0195831D02*
X0432569Y0195831D01*
X0432569Y0195233D02*
X0368048Y0195233D01*
X0368048Y0194634D02*
X0432569Y0194634D01*
X0432569Y0194036D02*
X0368048Y0194036D01*
X0368048Y0193437D02*
X0432569Y0193437D01*
X0432569Y0192839D02*
X0368048Y0192839D01*
X0368048Y0192240D02*
X0432569Y0192240D01*
X0432569Y0191642D02*
X0368048Y0191642D01*
X0368048Y0191043D02*
X0432569Y0191043D01*
X0432569Y0190445D02*
X0368048Y0190445D01*
X0368048Y0189846D02*
X0432569Y0189846D01*
X0432569Y0189248D02*
X0368048Y0189248D01*
X0368048Y0188649D02*
X0432569Y0188649D01*
X0432569Y0188050D02*
X0368048Y0188050D01*
X0368048Y0187452D02*
X0432569Y0187452D01*
X0432569Y0186853D02*
X0368048Y0186853D01*
X0368048Y0186255D02*
X0432569Y0186255D01*
X0432569Y0185656D02*
X0368048Y0185656D01*
X0368048Y0185058D02*
X0432569Y0185058D01*
X0432569Y0184459D02*
X0368048Y0184459D01*
X0368048Y0183861D02*
X0432569Y0183861D01*
X0432569Y0183262D02*
X0368048Y0183262D01*
X0368048Y0182664D02*
X0432569Y0182664D01*
X0432569Y0182065D02*
X0368048Y0182065D01*
X0368048Y0181467D02*
X0432569Y0181467D01*
X0432569Y0180868D02*
X0368048Y0180868D01*
X0368048Y0180270D02*
X0432569Y0180270D01*
X0432569Y0179671D02*
X0368048Y0179671D01*
X0368048Y0179073D02*
X0432569Y0179073D01*
X0432569Y0178474D02*
X0368048Y0178474D01*
X0368048Y0177876D02*
X0432569Y0177876D01*
X0432569Y0177277D02*
X0368048Y0177277D01*
X0368048Y0176679D02*
X0432569Y0176679D01*
X0432569Y0176080D02*
X0368048Y0176080D01*
X0368048Y0175482D02*
X0432569Y0175482D01*
X0432569Y0174883D02*
X0368048Y0174883D01*
X0368048Y0174285D02*
X0432569Y0174285D01*
X0432569Y0173686D02*
X0368048Y0173686D01*
X0368048Y0173088D02*
X0432569Y0173088D01*
X0432569Y0172489D02*
X0368048Y0172489D01*
X0368048Y0171891D02*
X0432569Y0171891D01*
X0432569Y0171292D02*
X0368048Y0171292D01*
X0368048Y0170694D02*
X0432569Y0170694D01*
X0432569Y0170095D02*
X0368048Y0170095D01*
X0368048Y0169497D02*
X0432569Y0169497D01*
X0432569Y0168898D02*
X0368048Y0168898D01*
X0368048Y0168300D02*
X0432569Y0168300D01*
X0432569Y0167701D02*
X0368048Y0167701D01*
X0368048Y0167103D02*
X0432569Y0167103D01*
X0432569Y0166504D02*
X0368048Y0166504D01*
X0368048Y0165906D02*
X0432569Y0165906D01*
X0432569Y0165307D02*
X0368048Y0165307D01*
X0368048Y0164709D02*
X0432569Y0164709D01*
X0432569Y0164110D02*
X0368048Y0164110D01*
X0368048Y0163512D02*
X0432569Y0163512D01*
X0432569Y0162913D02*
X0368048Y0162913D01*
X0368048Y0162314D02*
X0432569Y0162314D01*
X0432569Y0161716D02*
X0368048Y0161716D01*
X0368048Y0161117D02*
X0432569Y0161117D01*
X0432569Y0160519D02*
X0368048Y0160519D01*
X0368048Y0159920D02*
X0432569Y0159920D01*
X0432569Y0159322D02*
X0368048Y0159322D01*
X0368048Y0158723D02*
X0432569Y0158723D01*
X0432569Y0158125D02*
X0368048Y0158125D01*
X0368048Y0157526D02*
X0432569Y0157526D01*
X0432569Y0156928D02*
X0368048Y0156928D01*
X0368048Y0156329D02*
X0432569Y0156329D01*
X0432569Y0155731D02*
X0368048Y0155731D01*
X0368048Y0155132D02*
X0432569Y0155132D01*
X0432569Y0154534D02*
X0368048Y0154534D01*
X0368048Y0153935D02*
X0432569Y0153935D01*
X0432569Y0153337D02*
X0368048Y0153337D01*
X0368048Y0152738D02*
X0432569Y0152738D01*
X0432569Y0152140D02*
X0368048Y0152140D01*
X0368048Y0151541D02*
X0432569Y0151541D01*
X0432569Y0150943D02*
X0368048Y0150943D01*
X0368048Y0150344D02*
X0432569Y0150344D01*
X0432569Y0149746D02*
X0368048Y0149746D01*
X0368048Y0149147D02*
X0432569Y0149147D01*
X0432569Y0148549D02*
X0368048Y0148549D01*
X0368048Y0147950D02*
X0432569Y0147950D01*
X0432569Y0147352D02*
X0368048Y0147352D01*
X0368048Y0146753D02*
X0432569Y0146753D01*
X0432569Y0146155D02*
X0368048Y0146155D01*
X0368048Y0145556D02*
X0432569Y0145556D01*
X0432569Y0144958D02*
X0368048Y0144958D01*
X0368048Y0144359D02*
X0432569Y0144359D01*
X0432569Y0143761D02*
X0368048Y0143761D01*
X0368048Y0143162D02*
X0432569Y0143162D01*
X0432569Y0142564D02*
X0368048Y0142564D01*
X0368048Y0141965D02*
X0432569Y0141965D01*
X0432569Y0141367D02*
X0368048Y0141367D01*
X0368048Y0140768D02*
X0432569Y0140768D01*
X0432569Y0140170D02*
X0368048Y0140170D01*
X0368048Y0139571D02*
X0432569Y0139571D01*
X0432569Y0138973D02*
X0368048Y0138973D01*
X0368048Y0138374D02*
X0432569Y0138374D01*
X0432549Y0137776D02*
X0368048Y0137776D01*
X0368048Y0137177D02*
X0432569Y0137177D01*
X0432579Y0136579D02*
X0368048Y0136579D01*
X0368048Y0135980D02*
X0432582Y0135980D01*
X0432585Y0135381D02*
X0368048Y0135381D01*
X0368048Y0134783D02*
X0432582Y0134783D01*
X0432496Y0134184D02*
X0368048Y0134184D01*
X0368048Y0133586D02*
X0432410Y0133586D01*
X0432324Y0132987D02*
X0368048Y0132987D01*
X0368048Y0132389D02*
X0432238Y0132389D01*
X0432152Y0131790D02*
X0368048Y0131790D01*
X0368048Y0131192D02*
X0432066Y0131192D01*
X0431980Y0130593D02*
X0367864Y0130593D01*
X0367616Y0129995D02*
X0431894Y0129995D01*
X0431691Y0129396D02*
X0367161Y0129396D01*
X0366563Y0128798D02*
X0431480Y0128798D01*
X0431268Y0128199D02*
X0365964Y0128199D01*
X0365366Y0127601D02*
X0431056Y0127601D01*
X0430844Y0127002D02*
X0364767Y0127002D01*
X0364169Y0126404D02*
X0430633Y0126404D01*
X0430421Y0125805D02*
X0363570Y0125805D01*
X0362971Y0125207D02*
X0430184Y0125207D01*
X0429827Y0124608D02*
X0362373Y0124608D01*
X0361774Y0124010D02*
X0429471Y0124010D01*
X0429114Y0123411D02*
X0361176Y0123411D01*
X0360577Y0122813D02*
X0428758Y0122813D01*
X0428401Y0122214D02*
X0359979Y0122214D01*
X0359380Y0121616D02*
X0428044Y0121616D01*
X0427668Y0121017D02*
X0358430Y0121017D01*
X0356065Y0128199D02*
X0314714Y0128199D01*
X0315313Y0128798D02*
X0356663Y0128798D01*
X0357262Y0129396D02*
X0315911Y0129396D01*
X0316510Y0129995D02*
X0357860Y0129995D01*
X0358459Y0130593D02*
X0317108Y0130593D01*
X0317594Y0131192D02*
X0359057Y0131192D01*
X0359656Y0131790D02*
X0317842Y0131790D01*
X0318048Y0132389D02*
X0360254Y0132389D01*
X0360853Y0132987D02*
X0318048Y0132987D01*
X0318048Y0133586D02*
X0361048Y0133586D01*
X0361048Y0134184D02*
X0318048Y0134184D01*
X0318048Y0134783D02*
X0361048Y0134783D01*
X0361048Y0135381D02*
X0318048Y0135381D01*
X0318048Y0135980D02*
X0361048Y0135980D01*
X0361048Y0136579D02*
X0318048Y0136579D01*
X0318048Y0137177D02*
X0361048Y0137177D01*
X0361048Y0137776D02*
X0318048Y0137776D01*
X0318048Y0138374D02*
X0361048Y0138374D01*
X0361048Y0138973D02*
X0318048Y0138973D01*
X0318048Y0139571D02*
X0361048Y0139571D01*
X0361048Y0140170D02*
X0318048Y0140170D01*
X0318048Y0140768D02*
X0361048Y0140768D01*
X0361048Y0141367D02*
X0318048Y0141367D01*
X0318048Y0141965D02*
X0361048Y0141965D01*
X0361048Y0142564D02*
X0318048Y0142564D01*
X0318048Y0143162D02*
X0361048Y0143162D01*
X0361048Y0143761D02*
X0318048Y0143761D01*
X0318048Y0144359D02*
X0361048Y0144359D01*
X0361048Y0144958D02*
X0318048Y0144958D01*
X0318048Y0145556D02*
X0361048Y0145556D01*
X0361048Y0146155D02*
X0318048Y0146155D01*
X0318048Y0146753D02*
X0361048Y0146753D01*
X0361048Y0147352D02*
X0318048Y0147352D01*
X0318048Y0147950D02*
X0361048Y0147950D01*
X0361048Y0148549D02*
X0318048Y0148549D01*
X0318048Y0149147D02*
X0361048Y0149147D01*
X0361048Y0149746D02*
X0318048Y0149746D01*
X0318048Y0150344D02*
X0361048Y0150344D01*
X0361048Y0150943D02*
X0318048Y0150943D01*
X0318048Y0151541D02*
X0361048Y0151541D01*
X0361048Y0152140D02*
X0318048Y0152140D01*
X0318048Y0152738D02*
X0361048Y0152738D01*
X0361048Y0153337D02*
X0318048Y0153337D01*
X0318048Y0153935D02*
X0361048Y0153935D01*
X0361048Y0154534D02*
X0318048Y0154534D01*
X0318048Y0155132D02*
X0361048Y0155132D01*
X0361048Y0155731D02*
X0318048Y0155731D01*
X0318048Y0156329D02*
X0361048Y0156329D01*
X0361048Y0156928D02*
X0318048Y0156928D01*
X0318048Y0157526D02*
X0361048Y0157526D01*
X0361048Y0158125D02*
X0318048Y0158125D01*
X0318048Y0158723D02*
X0361048Y0158723D01*
X0361048Y0159322D02*
X0318048Y0159322D01*
X0318048Y0159920D02*
X0361048Y0159920D01*
X0361048Y0160519D02*
X0318048Y0160519D01*
X0318048Y0161117D02*
X0361048Y0161117D01*
X0361048Y0161716D02*
X0318048Y0161716D01*
X0318048Y0162314D02*
X0361048Y0162314D01*
X0361048Y0162913D02*
X0318048Y0162913D01*
X0318048Y0163512D02*
X0361048Y0163512D01*
X0361048Y0164110D02*
X0318048Y0164110D01*
X0318048Y0164709D02*
X0361048Y0164709D01*
X0361048Y0165307D02*
X0318048Y0165307D01*
X0318048Y0165906D02*
X0361048Y0165906D01*
X0361048Y0166504D02*
X0318048Y0166504D01*
X0318048Y0167103D02*
X0361048Y0167103D01*
X0361048Y0167701D02*
X0318048Y0167701D01*
X0318048Y0168300D02*
X0361048Y0168300D01*
X0361048Y0168898D02*
X0318048Y0168898D01*
X0318048Y0169497D02*
X0361048Y0169497D01*
X0361048Y0170095D02*
X0357947Y0170095D01*
X0359055Y0170694D02*
X0361048Y0170694D01*
X0361048Y0171292D02*
X0359608Y0171292D01*
X0359856Y0171891D02*
X0361048Y0171891D01*
X0361048Y0172489D02*
X0359987Y0172489D01*
X0359987Y0173088D02*
X0361048Y0173088D01*
X0361048Y0173686D02*
X0359987Y0173686D01*
X0359987Y0174285D02*
X0361048Y0174285D01*
X0361048Y0174883D02*
X0359987Y0174883D01*
X0359987Y0175482D02*
X0361048Y0175482D01*
X0361048Y0176080D02*
X0359987Y0176080D01*
X0359813Y0176679D02*
X0361048Y0176679D01*
X0361048Y0177277D02*
X0359550Y0177277D01*
X0359298Y0177876D02*
X0361048Y0177876D01*
X0361048Y0178474D02*
X0359298Y0178474D01*
X0359298Y0179073D02*
X0361048Y0179073D01*
X0361048Y0179671D02*
X0359298Y0179671D01*
X0359298Y0180270D02*
X0361048Y0180270D01*
X0361048Y0180868D02*
X0359298Y0180868D01*
X0359298Y0181467D02*
X0361048Y0181467D01*
X0361048Y0182065D02*
X0359298Y0182065D01*
X0359298Y0182664D02*
X0361048Y0182664D01*
X0361048Y0183262D02*
X0359298Y0183262D01*
X0359298Y0183861D02*
X0361048Y0183861D01*
X0361048Y0184459D02*
X0359298Y0184459D01*
X0359298Y0185058D02*
X0361048Y0185058D01*
X0361048Y0185656D02*
X0359298Y0185656D01*
X0359298Y0186255D02*
X0361048Y0186255D01*
X0361048Y0186853D02*
X0359298Y0186853D01*
X0359298Y0187452D02*
X0361048Y0187452D01*
X0361048Y0188050D02*
X0359298Y0188050D01*
X0359298Y0188649D02*
X0361048Y0188649D01*
X0361048Y0189248D02*
X0359298Y0189248D01*
X0359298Y0189846D02*
X0361048Y0189846D01*
X0361048Y0190445D02*
X0359298Y0190445D01*
X0359298Y0191043D02*
X0361048Y0191043D01*
X0361048Y0191642D02*
X0359298Y0191642D01*
X0359298Y0192240D02*
X0361048Y0192240D01*
X0361048Y0192839D02*
X0359298Y0192839D01*
X0359298Y0193437D02*
X0361048Y0193437D01*
X0361048Y0194036D02*
X0359298Y0194036D01*
X0359298Y0194634D02*
X0361048Y0194634D01*
X0361048Y0195233D02*
X0359298Y0195233D01*
X0359298Y0195831D02*
X0361048Y0195831D01*
X0361048Y0196430D02*
X0359298Y0196430D01*
X0359298Y0197028D02*
X0361048Y0197028D01*
X0361048Y0197627D02*
X0359298Y0197627D01*
X0359298Y0198225D02*
X0361048Y0198225D01*
X0361048Y0198824D02*
X0359298Y0198824D01*
X0359298Y0199422D02*
X0361048Y0199422D01*
X0361048Y0200021D02*
X0359298Y0200021D01*
X0359298Y0200619D02*
X0361048Y0200619D01*
X0361048Y0201218D02*
X0359298Y0201218D01*
X0359298Y0201816D02*
X0361048Y0201816D01*
X0361048Y0202415D02*
X0359298Y0202415D01*
X0359298Y0203013D02*
X0361048Y0203013D01*
X0361048Y0203612D02*
X0359298Y0203612D01*
X0359298Y0204210D02*
X0361048Y0204210D01*
X0361048Y0204809D02*
X0359298Y0204809D01*
X0359298Y0205407D02*
X0361048Y0205407D01*
X0361048Y0206006D02*
X0359298Y0206006D01*
X0359447Y0206604D02*
X0360933Y0206604D01*
X0360334Y0207203D02*
X0360045Y0207203D01*
X0352298Y0203013D02*
X0332433Y0203013D01*
X0332818Y0202415D02*
X0352298Y0202415D01*
X0352298Y0201816D02*
X0333116Y0201816D01*
X0333310Y0201218D02*
X0352298Y0201218D01*
X0352298Y0200619D02*
X0333438Y0200619D01*
X0333512Y0200021D02*
X0352298Y0200021D01*
X0352298Y0199422D02*
X0333512Y0199422D01*
X0333442Y0198824D02*
X0352298Y0198824D01*
X0352298Y0198225D02*
X0333319Y0198225D01*
X0333124Y0197627D02*
X0352298Y0197627D01*
X0352298Y0197028D02*
X0332832Y0197028D01*
X0332452Y0196430D02*
X0352298Y0196430D01*
X0352298Y0192240D02*
X0316710Y0192240D01*
X0318040Y0191642D02*
X0352298Y0191642D01*
X0352298Y0191043D02*
X0318638Y0191043D01*
X0319237Y0190445D02*
X0352298Y0190445D01*
X0352298Y0189846D02*
X0319835Y0189846D01*
X0320137Y0189248D02*
X0352298Y0189248D01*
X0352298Y0188649D02*
X0320385Y0188649D01*
X0320633Y0188050D02*
X0352298Y0188050D01*
X0352298Y0187452D02*
X0320881Y0187452D01*
X0320993Y0186853D02*
X0352298Y0186853D01*
X0352298Y0186255D02*
X0320993Y0186255D01*
X0320993Y0185656D02*
X0352298Y0185656D01*
X0352298Y0185058D02*
X0320993Y0185058D01*
X0320993Y0184459D02*
X0352298Y0184459D01*
X0352298Y0183861D02*
X0320771Y0183861D01*
X0320523Y0183262D02*
X0352298Y0183262D01*
X0352298Y0182664D02*
X0320275Y0182664D01*
X0320027Y0182065D02*
X0352298Y0182065D01*
X0352298Y0181467D02*
X0319570Y0181467D01*
X0318972Y0180868D02*
X0352298Y0180868D01*
X0352298Y0180270D02*
X0318373Y0180270D01*
X0318048Y0179671D02*
X0352298Y0179671D01*
X0352298Y0179073D02*
X0318048Y0179073D01*
X0318048Y0178474D02*
X0352298Y0178474D01*
X0352298Y0177876D02*
X0318048Y0177876D01*
X0318048Y0177277D02*
X0352046Y0177277D01*
X0351783Y0176679D02*
X0318048Y0176679D01*
X0318048Y0176080D02*
X0351609Y0176080D01*
X0351609Y0175482D02*
X0318048Y0175482D01*
X0318048Y0174883D02*
X0351609Y0174883D01*
X0351609Y0174285D02*
X0318048Y0174285D01*
X0318048Y0173686D02*
X0351609Y0173686D01*
X0351609Y0173088D02*
X0318048Y0173088D01*
X0318048Y0172489D02*
X0351609Y0172489D01*
X0351740Y0171891D02*
X0318048Y0171891D01*
X0318048Y0171292D02*
X0351988Y0171292D01*
X0352541Y0170694D02*
X0318048Y0170694D01*
X0318048Y0170095D02*
X0353649Y0170095D01*
X0325536Y0194634D02*
X0310548Y0194634D01*
X0310548Y0195233D02*
X0324545Y0195233D01*
X0324459Y0195831D02*
X0310548Y0195831D01*
X0310548Y0196430D02*
X0323372Y0196430D01*
X0322993Y0197028D02*
X0310548Y0197028D01*
X0310548Y0197627D02*
X0322701Y0197627D01*
X0322506Y0198225D02*
X0310548Y0198225D01*
X0310548Y0198824D02*
X0322383Y0198824D01*
X0322312Y0199422D02*
X0310548Y0199422D01*
X0310548Y0200021D02*
X0322312Y0200021D01*
X0322387Y0200619D02*
X0310548Y0200619D01*
X0310548Y0201218D02*
X0322515Y0201218D01*
X0322709Y0201816D02*
X0310548Y0201816D01*
X0310548Y0202415D02*
X0323006Y0202415D01*
X0323391Y0203013D02*
X0310548Y0203013D01*
X0310548Y0203612D02*
X0324433Y0203612D01*
X0324581Y0204210D02*
X0310548Y0204210D01*
X0311936Y0204809D02*
X0325587Y0204809D01*
X0325032Y0203013D02*
X0324183Y0203013D01*
X0324782Y0202415D02*
X0325630Y0202415D01*
X0325380Y0201816D02*
X0326229Y0201816D01*
X0325979Y0201218D02*
X0326827Y0201218D01*
X0326577Y0200619D02*
X0327426Y0200619D01*
X0327452Y0198824D02*
X0326603Y0198824D01*
X0326853Y0198225D02*
X0326005Y0198225D01*
X0326255Y0197627D02*
X0325406Y0197627D01*
X0325656Y0197028D02*
X0324808Y0197028D01*
X0325058Y0196430D02*
X0324209Y0196430D01*
X0303548Y0202415D02*
X0270548Y0202415D01*
X0270548Y0203013D02*
X0303548Y0203013D01*
X0303548Y0203612D02*
X0270548Y0203612D01*
X0270548Y0204210D02*
X0303548Y0204210D01*
X0301963Y0204809D02*
X0288972Y0204809D01*
X0290417Y0205407D02*
X0301222Y0205407D01*
X0300821Y0206006D02*
X0291108Y0206006D01*
X0291706Y0206604D02*
X0300573Y0206604D01*
X0300550Y0207203D02*
X0298678Y0207203D01*
X0299817Y0207801D02*
X0300550Y0207801D01*
X0300522Y0208400D02*
X0300550Y0208400D01*
X0297250Y0208400D02*
X0296650Y0208400D01*
X0296650Y0208998D02*
X0297250Y0208998D01*
X0297250Y0209597D02*
X0296650Y0209597D01*
X0296650Y0210195D02*
X0297250Y0210195D01*
X0297250Y0210794D02*
X0296650Y0210794D01*
X0296650Y0211392D02*
X0297250Y0211392D01*
X0297250Y0212589D02*
X0296650Y0212589D01*
X0296650Y0213188D02*
X0297250Y0213188D01*
X0297250Y0213786D02*
X0296650Y0213786D01*
X0296650Y0214385D02*
X0297250Y0214385D01*
X0297250Y0214983D02*
X0296650Y0214983D01*
X0296650Y0215582D02*
X0297250Y0215582D01*
X0297250Y0216181D02*
X0296650Y0216181D01*
X0296650Y0216779D02*
X0297250Y0216779D01*
X0298097Y0216779D02*
X0301612Y0216779D01*
X0301013Y0216181D02*
X0299559Y0216181D01*
X0300337Y0215582D02*
X0300735Y0215582D01*
X0295802Y0216779D02*
X0289477Y0216779D01*
X0290718Y0216181D02*
X0294340Y0216181D01*
X0293562Y0215582D02*
X0291317Y0215582D01*
X0291916Y0214983D02*
X0293011Y0214983D01*
X0292605Y0214385D02*
X0292433Y0214385D01*
X0292842Y0208400D02*
X0293377Y0208400D01*
X0294082Y0207801D02*
X0292594Y0207801D01*
X0292305Y0207203D02*
X0295221Y0207203D01*
X0296650Y0207203D02*
X0297250Y0207203D01*
X0297250Y0207801D02*
X0296650Y0207801D01*
X0284927Y0204809D02*
X0270548Y0204809D01*
X0270548Y0205407D02*
X0283482Y0205407D01*
X0282791Y0206006D02*
X0279448Y0206006D01*
X0280706Y0206604D02*
X0282193Y0206604D01*
X0281594Y0207203D02*
X0281305Y0207203D01*
X0274452Y0206006D02*
X0270548Y0206006D01*
X0270548Y0206604D02*
X0273193Y0206604D01*
X0272594Y0207203D02*
X0270548Y0207203D01*
X0270548Y0207801D02*
X0271996Y0207801D01*
X0271471Y0208400D02*
X0270548Y0208400D01*
X0270548Y0208998D02*
X0271224Y0208998D01*
X0270976Y0209597D02*
X0270548Y0209597D01*
X0270548Y0210195D02*
X0270728Y0210195D01*
X0270550Y0210794D02*
X0270548Y0210794D01*
X0270548Y0211392D02*
X0270550Y0211392D01*
X0270548Y0211991D02*
X0270550Y0211991D01*
X0270548Y0212589D02*
X0270550Y0212589D01*
X0270548Y0213188D02*
X0270556Y0213188D01*
X0270548Y0213786D02*
X0270804Y0213786D01*
X0271052Y0214385D02*
X0270548Y0214385D01*
X0270548Y0214983D02*
X0271300Y0214983D01*
X0271582Y0215582D02*
X0270548Y0215582D01*
X0270548Y0216181D02*
X0272181Y0216181D01*
X0272779Y0216779D02*
X0270548Y0216779D01*
X0270343Y0217378D02*
X0273453Y0217378D01*
X0274898Y0217976D02*
X0270095Y0217976D01*
X0269609Y0218575D02*
X0432569Y0218575D01*
X0432569Y0219173D02*
X0269011Y0219173D01*
X0268412Y0219772D02*
X0432569Y0219772D01*
X0432569Y0220370D02*
X0267813Y0220370D01*
X0267215Y0220969D02*
X0432569Y0220969D01*
X0432569Y0221567D02*
X0266616Y0221567D01*
X0266018Y0222166D02*
X0432547Y0222166D01*
X0432569Y0222764D02*
X0265419Y0222764D01*
X0264821Y0223363D02*
X0432575Y0223363D01*
X0432576Y0223961D02*
X0264222Y0223961D01*
X0263624Y0224560D02*
X0432576Y0224560D01*
X0432542Y0225158D02*
X0263041Y0225158D01*
X0262356Y0225757D02*
X0432455Y0225757D01*
X0432367Y0226355D02*
X0248116Y0226355D01*
X0248364Y0225757D02*
X0253693Y0225757D01*
X0247713Y0226954D02*
X0432279Y0226954D01*
X0432192Y0227552D02*
X0246968Y0227552D01*
X0237010Y0227552D02*
X0235947Y0227552D01*
X0234973Y0228151D02*
X0432104Y0228151D01*
X0432016Y0228749D02*
X0233528Y0228749D01*
X0233406Y0229946D02*
X0431706Y0229946D01*
X0431918Y0229348D02*
X0232370Y0229348D01*
X0230450Y0228749D02*
X0230303Y0228749D01*
X0234443Y0230545D02*
X0431494Y0230545D01*
X0431281Y0231143D02*
X0235106Y0231143D01*
X0235705Y0231742D02*
X0431069Y0231742D01*
X0430857Y0232340D02*
X0236303Y0232340D01*
X0236746Y0232939D02*
X0430645Y0232939D01*
X0430415Y0233537D02*
X0237092Y0233537D01*
X0237437Y0234136D02*
X0430060Y0234136D01*
X0429704Y0234734D02*
X0237783Y0234734D01*
X0238008Y0235333D02*
X0429348Y0235333D01*
X0428993Y0235931D02*
X0238168Y0235931D01*
X0238328Y0236530D02*
X0428637Y0236530D01*
X0428281Y0237128D02*
X0238489Y0237128D01*
X0238612Y0237727D02*
X0427786Y0237727D01*
X0427249Y0238325D02*
X0238612Y0238325D01*
X0238612Y0238924D02*
X0426712Y0238924D01*
X0426174Y0239522D02*
X0238612Y0239522D01*
X0238612Y0240121D02*
X0425637Y0240121D01*
X0425030Y0240719D02*
X0238507Y0240719D01*
X0238346Y0241318D02*
X0424233Y0241318D01*
X0423435Y0241916D02*
X0238186Y0241916D01*
X0238026Y0242515D02*
X0422637Y0242515D01*
X0421840Y0243114D02*
X0237822Y0243114D01*
X0237476Y0243712D02*
X0420671Y0243712D01*
X0419426Y0244311D02*
X0237130Y0244311D01*
X0236785Y0244909D02*
X0418182Y0244909D01*
X0416265Y0245508D02*
X0236371Y0245508D01*
X0235772Y0246106D02*
X0413949Y0246106D01*
X0432569Y0216779D02*
X0391028Y0216779D01*
X0391626Y0216181D02*
X0432569Y0216181D01*
X0432569Y0215582D02*
X0391905Y0215582D01*
X0392090Y0214983D02*
X0432569Y0214983D01*
X0432569Y0214385D02*
X0392090Y0214385D01*
X0392090Y0213786D02*
X0432569Y0213786D01*
X0432569Y0213188D02*
X0392090Y0213188D01*
X0392090Y0212589D02*
X0432569Y0212589D01*
X0432569Y0211991D02*
X0392090Y0211991D01*
X0392090Y0211392D02*
X0432569Y0211392D01*
X0432569Y0210794D02*
X0392090Y0210794D01*
X0392090Y0210195D02*
X0432569Y0210195D01*
X0432569Y0209597D02*
X0392090Y0209597D01*
X0392090Y0208998D02*
X0432569Y0208998D01*
X0432569Y0208400D02*
X0392090Y0208400D01*
X0392090Y0207801D02*
X0432569Y0207801D01*
X0432569Y0207203D02*
X0392090Y0207203D01*
X0392066Y0206604D02*
X0432569Y0206604D01*
X0432569Y0206006D02*
X0391818Y0206006D01*
X0391417Y0205407D02*
X0432569Y0205407D01*
X0432569Y0204809D02*
X0390676Y0204809D01*
X0379475Y0215582D02*
X0379077Y0215582D01*
X0379753Y0216181D02*
X0378299Y0216181D01*
X0376837Y0216779D02*
X0380352Y0216779D01*
X0373080Y0216181D02*
X0369459Y0216181D01*
X0370057Y0215582D02*
X0372302Y0215582D01*
X0371751Y0214983D02*
X0370656Y0214983D01*
X0371173Y0214385D02*
X0371345Y0214385D01*
X0311048Y0164110D02*
X0285548Y0164110D01*
X0285548Y0163512D02*
X0311048Y0163512D01*
X0311048Y0162913D02*
X0285548Y0162913D01*
X0285548Y0162314D02*
X0311048Y0162314D01*
X0311048Y0161716D02*
X0285548Y0161716D01*
X0285548Y0161117D02*
X0311048Y0161117D01*
X0311048Y0160519D02*
X0285548Y0160519D01*
X0285548Y0159920D02*
X0311048Y0159920D01*
X0311048Y0159322D02*
X0285548Y0159322D01*
X0285548Y0158723D02*
X0311048Y0158723D01*
X0311048Y0158125D02*
X0285548Y0158125D01*
X0285548Y0157526D02*
X0311048Y0157526D01*
X0311048Y0156928D02*
X0285548Y0156928D01*
X0285548Y0156329D02*
X0311048Y0156329D01*
X0311048Y0155731D02*
X0285548Y0155731D01*
X0285548Y0155132D02*
X0311048Y0155132D01*
X0311048Y0154534D02*
X0285548Y0154534D01*
X0285548Y0153935D02*
X0311048Y0153935D01*
X0311048Y0153337D02*
X0285548Y0153337D01*
X0285548Y0152738D02*
X0311048Y0152738D01*
X0311048Y0152140D02*
X0285548Y0152140D01*
X0285548Y0151541D02*
X0311048Y0151541D01*
X0311048Y0150943D02*
X0285548Y0150943D01*
X0285548Y0150344D02*
X0311048Y0150344D01*
X0311048Y0149746D02*
X0285548Y0149746D01*
X0285548Y0149147D02*
X0311048Y0149147D01*
X0311048Y0148549D02*
X0285548Y0148549D01*
X0285548Y0147950D02*
X0311048Y0147950D01*
X0311048Y0147352D02*
X0285548Y0147352D01*
X0285548Y0146753D02*
X0311048Y0146753D01*
X0311048Y0146155D02*
X0285548Y0146155D01*
X0285548Y0145556D02*
X0311048Y0145556D01*
X0311048Y0144958D02*
X0285548Y0144958D01*
X0285548Y0144359D02*
X0311048Y0144359D01*
X0311048Y0143761D02*
X0285548Y0143761D01*
X0285548Y0143162D02*
X0311048Y0143162D01*
X0311048Y0142564D02*
X0285548Y0142564D01*
X0285548Y0141965D02*
X0311048Y0141965D01*
X0311048Y0141367D02*
X0285548Y0141367D01*
X0285548Y0140768D02*
X0311048Y0140768D01*
X0311048Y0140170D02*
X0285548Y0140170D01*
X0285548Y0139571D02*
X0311048Y0139571D01*
X0311048Y0138973D02*
X0285548Y0138973D01*
X0285548Y0138374D02*
X0311048Y0138374D01*
X0311048Y0137776D02*
X0285548Y0137776D01*
X0285548Y0137177D02*
X0311048Y0137177D01*
X0311048Y0136579D02*
X0285548Y0136579D01*
X0285548Y0135980D02*
X0311048Y0135980D01*
X0311048Y0135381D02*
X0285548Y0135381D01*
X0285548Y0134783D02*
X0311048Y0134783D01*
X0310800Y0134184D02*
X0285548Y0134184D01*
X0285548Y0133586D02*
X0310201Y0133586D01*
X0309603Y0132987D02*
X0285548Y0132987D01*
X0285548Y0132389D02*
X0309004Y0132389D01*
X0308406Y0131790D02*
X0293745Y0131790D01*
X0287851Y0131790D02*
X0285548Y0131790D01*
X0285548Y0131192D02*
X0287211Y0131192D01*
X0286851Y0130593D02*
X0285548Y0130593D01*
X0285548Y0129995D02*
X0286609Y0129995D01*
X0286609Y0129396D02*
X0285548Y0129396D01*
X0285548Y0128798D02*
X0286609Y0128798D01*
X0286609Y0128199D02*
X0285548Y0128199D01*
X0285548Y0127601D02*
X0286609Y0127601D01*
X0286609Y0127002D02*
X0285548Y0127002D01*
X0285548Y0126404D02*
X0286609Y0126404D01*
X0286672Y0125805D02*
X0285548Y0125805D01*
X0285548Y0125207D02*
X0286920Y0125207D01*
X0287376Y0124608D02*
X0285548Y0124608D01*
X0285548Y0124010D02*
X0288251Y0124010D01*
X0288776Y0123411D02*
X0285863Y0123411D01*
X0286111Y0122813D02*
X0288178Y0122813D01*
X0287579Y0122214D02*
X0286237Y0122214D01*
X0286237Y0121616D02*
X0286981Y0121616D01*
X0286382Y0121017D02*
X0286237Y0121017D01*
X0297584Y0120419D02*
X0427127Y0120419D01*
X0426587Y0119820D02*
X0298182Y0119820D01*
X0298781Y0119222D02*
X0426046Y0119222D01*
X0425506Y0118623D02*
X0299379Y0118623D01*
X0299978Y0118025D02*
X0424965Y0118025D01*
X0424423Y0117426D02*
X0300576Y0117426D01*
X0301175Y0116828D02*
X0423617Y0116828D01*
X0422812Y0116229D02*
X0301773Y0116229D01*
X0302142Y0115631D02*
X0422006Y0115631D01*
X0421200Y0115032D02*
X0302390Y0115032D01*
X0302391Y0114434D02*
X0420348Y0114434D01*
X0419082Y0113835D02*
X0302342Y0113835D01*
X0302094Y0113237D02*
X0417816Y0113237D01*
X0416550Y0112638D02*
X0301655Y0112638D01*
X0301057Y0112040D02*
X0414621Y0112040D01*
X0412220Y0111441D02*
X0300458Y0111441D01*
X0299860Y0110843D02*
X0378697Y0110843D01*
X0374893Y0110244D02*
X0299261Y0110244D01*
X0298663Y0109645D02*
X0371140Y0109645D01*
X0369286Y0109047D02*
X0298064Y0109047D01*
X0297466Y0108448D02*
X0367431Y0108448D01*
X0365577Y0107850D02*
X0297042Y0107850D01*
X0297641Y0107251D02*
X0363723Y0107251D01*
X0362348Y0106653D02*
X0338360Y0106653D01*
X0339699Y0106054D02*
X0361165Y0106054D01*
X0359982Y0105456D02*
X0340736Y0105456D01*
X0341572Y0104857D02*
X0358799Y0104857D01*
X0357616Y0104259D02*
X0342170Y0104259D01*
X0342769Y0103660D02*
X0356433Y0103660D01*
X0355383Y0103062D02*
X0343311Y0103062D01*
X0343657Y0102463D02*
X0354552Y0102463D01*
X0353722Y0101865D02*
X0344002Y0101865D01*
X0344348Y0101266D02*
X0352892Y0101266D01*
X0352061Y0100668D02*
X0344645Y0100668D01*
X0344806Y0100069D02*
X0351231Y0100069D01*
X0350400Y0099471D02*
X0344966Y0099471D01*
X0345126Y0098872D02*
X0349570Y0098872D01*
X0348778Y0098274D02*
X0345287Y0098274D01*
X0345313Y0097675D02*
X0348174Y0097675D01*
X0347570Y0097077D02*
X0345313Y0097077D01*
X0345313Y0096478D02*
X0346965Y0096478D01*
X0346361Y0095880D02*
X0345313Y0095880D01*
X0345270Y0095281D02*
X0345757Y0095281D01*
X0345153Y0094683D02*
X0345110Y0094683D01*
X0329084Y0105456D02*
X0299437Y0105456D01*
X0300035Y0104857D02*
X0328249Y0104857D01*
X0327650Y0104259D02*
X0300634Y0104259D01*
X0301232Y0103660D02*
X0327052Y0103660D01*
X0326509Y0103062D02*
X0301736Y0103062D01*
X0301984Y0102463D02*
X0326164Y0102463D01*
X0325818Y0101865D02*
X0302080Y0101865D01*
X0302080Y0101266D02*
X0325473Y0101266D01*
X0325175Y0100668D02*
X0301878Y0100668D01*
X0301574Y0100069D02*
X0325015Y0100069D01*
X0324854Y0099471D02*
X0305340Y0099471D01*
X0305480Y0099413D02*
X0304487Y0099824D01*
X0303413Y0099824D01*
X0302421Y0099413D01*
X0297463Y0094455D01*
X0297052Y0093463D01*
X0297052Y0092389D01*
X0297463Y0091396D01*
X0302421Y0086439D01*
X0303413Y0086028D01*
X0304487Y0086028D01*
X0305480Y0086439D01*
X0310437Y0091396D01*
X0310848Y0092389D01*
X0310848Y0093463D01*
X0310437Y0094455D01*
X0305480Y0099413D01*
X0306020Y0098872D02*
X0324694Y0098872D01*
X0324534Y0098274D02*
X0306619Y0098274D01*
X0307217Y0097675D02*
X0324508Y0097675D01*
X0324508Y0097077D02*
X0307816Y0097077D01*
X0308414Y0096478D02*
X0324508Y0096478D01*
X0324508Y0095880D02*
X0309013Y0095880D01*
X0309611Y0095281D02*
X0324550Y0095281D01*
X0324710Y0094683D02*
X0310210Y0094683D01*
X0310591Y0094084D02*
X0324871Y0094084D01*
X0325031Y0093486D02*
X0310839Y0093486D01*
X0310848Y0092887D02*
X0325191Y0092887D01*
X0325508Y0092289D02*
X0310807Y0092289D01*
X0310559Y0091690D02*
X0325853Y0091690D01*
X0326199Y0091092D02*
X0310133Y0091092D01*
X0309534Y0090493D02*
X0311462Y0090493D01*
X0310863Y0089895D02*
X0308935Y0089895D01*
X0308337Y0089296D02*
X0310265Y0089296D01*
X0309666Y0088698D02*
X0307738Y0088698D01*
X0307140Y0088099D02*
X0309068Y0088099D01*
X0308469Y0087501D02*
X0306541Y0087501D01*
X0305943Y0086902D02*
X0307871Y0086902D01*
X0307272Y0086304D02*
X0305153Y0086304D01*
X0306673Y0085705D02*
X0302362Y0085705D01*
X0302575Y0085107D02*
X0306332Y0085107D01*
X0306103Y0084508D02*
X0302575Y0084508D01*
X0302490Y0083910D02*
X0306103Y0083910D01*
X0306173Y0083311D02*
X0302242Y0083311D01*
X0301753Y0082712D02*
X0306421Y0082712D01*
X0306232Y0082114D02*
X0306887Y0082114D01*
X0306831Y0081515D02*
X0307485Y0081515D01*
X0307429Y0080917D02*
X0308084Y0080917D01*
X0308028Y0080318D02*
X0308683Y0080318D01*
X0308626Y0079720D02*
X0309281Y0079720D01*
X0309225Y0079121D02*
X0309880Y0079121D01*
X0309823Y0078523D02*
X0310478Y0078523D01*
X0310422Y0077924D02*
X0311077Y0077924D01*
X0311010Y0077326D02*
X0311963Y0077326D01*
X0311258Y0076727D02*
X0322640Y0076727D01*
X0323238Y0076129D02*
X0311414Y0076129D01*
X0311414Y0075530D02*
X0323837Y0075530D01*
X0324768Y0074932D02*
X0311271Y0074932D01*
X0311023Y0074333D02*
X0325168Y0074333D01*
X0324552Y0073735D02*
X0310453Y0073735D01*
X0309855Y0073136D02*
X0323936Y0073136D01*
X0323321Y0072538D02*
X0309256Y0072538D01*
X0308658Y0071939D02*
X0322705Y0071939D01*
X0322089Y0071341D02*
X0308059Y0071341D01*
X0308228Y0070742D02*
X0321473Y0070742D01*
X0320858Y0070144D02*
X0308826Y0070144D01*
X0309425Y0069545D02*
X0320242Y0069545D01*
X0319626Y0068947D02*
X0310023Y0068947D01*
X0310622Y0068348D02*
X0319010Y0068348D01*
X0318394Y0067750D02*
X0311220Y0067750D01*
X0311819Y0067151D02*
X0317779Y0067151D01*
X0317163Y0066553D02*
X0312417Y0066553D01*
X0313016Y0065954D02*
X0316547Y0065954D01*
X0315931Y0065356D02*
X0313614Y0065356D01*
X0314089Y0064757D02*
X0315316Y0064757D01*
X0314700Y0064159D02*
X0314337Y0064159D01*
X0305641Y0055354D02*
X0300863Y0050710D01*
X0300535Y0050570D01*
X0300357Y0050332D01*
X0300041Y0049911D01*
X0299674Y0049554D01*
X0299577Y0049330D01*
X0298165Y0047643D01*
X0294241Y0044109D01*
X0289728Y0041367D01*
X0284783Y0039514D01*
X0279579Y0038615D01*
X0276956Y0038535D01*
X0276903Y0038535D01*
X0276082Y0038548D01*
X0276048Y0038535D01*
X0268473Y0038535D01*
X0269031Y0038766D01*
X0273164Y0042899D01*
X0274188Y0041875D01*
X0276540Y0040900D01*
X0279086Y0040900D01*
X0281438Y0041875D01*
X0283239Y0043675D01*
X0284213Y0046027D01*
X0284213Y0048573D01*
X0284169Y0048679D01*
X0285450Y0048679D01*
X0287802Y0049653D01*
X0289603Y0051453D01*
X0290577Y0053805D01*
X0290577Y0056352D01*
X0290442Y0056677D01*
X0290784Y0056566D01*
X0291562Y0056443D01*
X0292349Y0056443D01*
X0293126Y0056566D01*
X0293874Y0056809D01*
X0294576Y0057166D01*
X0295212Y0057629D01*
X0295279Y0057695D01*
X0291955Y0061018D01*
X0292379Y0061442D01*
X0295703Y0058119D01*
X0295769Y0058185D01*
X0296231Y0058822D01*
X0296589Y0059523D01*
X0296832Y0060272D01*
X0296955Y0061049D01*
X0296955Y0061836D01*
X0296832Y0062613D01*
X0296589Y0063362D01*
X0296231Y0064063D01*
X0295769Y0064700D01*
X0295703Y0064766D01*
X0292379Y0061443D01*
X0291955Y0061867D01*
X0295279Y0065190D01*
X0295212Y0065256D01*
X0294576Y0065719D01*
X0293874Y0066076D01*
X0293126Y0066319D01*
X0292349Y0066442D01*
X0291707Y0066442D01*
X0297660Y0072395D01*
X0298644Y0073380D01*
X0298729Y0073584D01*
X0302955Y0069358D01*
X0298566Y0064969D01*
X0298155Y0063977D01*
X0298155Y0062902D01*
X0298566Y0061910D01*
X0304754Y0055722D01*
X0305641Y0055354D01*
X0305463Y0055181D02*
X0290577Y0055181D01*
X0290577Y0055779D02*
X0304697Y0055779D01*
X0304098Y0056378D02*
X0290566Y0056378D01*
X0290577Y0054582D02*
X0304847Y0054582D01*
X0304231Y0053984D02*
X0290577Y0053984D01*
X0290403Y0053385D02*
X0303616Y0053385D01*
X0303000Y0052787D02*
X0290155Y0052787D01*
X0289907Y0052188D02*
X0302384Y0052188D01*
X0301768Y0051590D02*
X0289659Y0051590D01*
X0289141Y0050991D02*
X0301152Y0050991D01*
X0300535Y0050570D02*
X0300535Y0050570D01*
X0300402Y0050393D02*
X0288542Y0050393D01*
X0287944Y0049794D02*
X0299921Y0049794D01*
X0300357Y0050332D02*
X0300357Y0050332D01*
X0299465Y0049196D02*
X0286699Y0049196D01*
X0284203Y0048597D02*
X0298964Y0048597D01*
X0298463Y0047999D02*
X0284213Y0047999D01*
X0284213Y0047400D02*
X0297895Y0047400D01*
X0297231Y0046802D02*
X0284213Y0046802D01*
X0284213Y0046203D02*
X0296566Y0046203D01*
X0295902Y0045605D02*
X0284038Y0045605D01*
X0283790Y0045006D02*
X0295238Y0045006D01*
X0294573Y0044408D02*
X0283542Y0044408D01*
X0283294Y0043809D02*
X0293748Y0043809D01*
X0292763Y0043211D02*
X0282774Y0043211D01*
X0282176Y0042612D02*
X0291777Y0042612D01*
X0290792Y0042014D02*
X0281577Y0042014D01*
X0280329Y0041415D02*
X0289807Y0041415D01*
X0288258Y0040817D02*
X0271081Y0040817D01*
X0270483Y0040218D02*
X0286661Y0040218D01*
X0285064Y0039620D02*
X0269884Y0039620D01*
X0269286Y0039021D02*
X0281928Y0039021D01*
X0275297Y0041415D02*
X0271680Y0041415D01*
X0272278Y0042014D02*
X0274049Y0042014D01*
X0273450Y0042612D02*
X0272877Y0042612D01*
X0263364Y0047999D02*
X0218232Y0047999D01*
X0217633Y0048597D02*
X0263963Y0048597D01*
X0264561Y0049196D02*
X0217035Y0049196D01*
X0216436Y0049794D02*
X0265160Y0049794D01*
X0265758Y0050393D02*
X0215838Y0050393D01*
X0215239Y0050991D02*
X0266357Y0050991D01*
X0266955Y0051590D02*
X0214641Y0051590D01*
X0188825Y0045006D02*
X0183634Y0045006D01*
X0183924Y0045605D02*
X0188227Y0045605D01*
X0187628Y0046203D02*
X0184118Y0046203D01*
X0184225Y0046802D02*
X0187030Y0046802D01*
X0186431Y0047400D02*
X0184264Y0047400D01*
X0184238Y0047999D02*
X0185833Y0047999D01*
X0185234Y0048597D02*
X0184143Y0048597D01*
X0183951Y0049196D02*
X0184635Y0049196D01*
X0184063Y0049794D02*
X0183677Y0049794D01*
X0183815Y0050393D02*
X0183301Y0050393D01*
X0262242Y0052188D02*
X0267554Y0052188D01*
X0268152Y0052787D02*
X0263687Y0052787D01*
X0264428Y0053385D02*
X0268751Y0053385D01*
X0269349Y0053984D02*
X0265026Y0053984D01*
X0265501Y0054582D02*
X0269948Y0054582D01*
X0270546Y0055181D02*
X0265749Y0055181D01*
X0265997Y0055779D02*
X0271145Y0055779D01*
X0271743Y0056378D02*
X0266217Y0056378D01*
X0266217Y0056977D02*
X0272342Y0056977D01*
X0272940Y0057575D02*
X0266217Y0057575D01*
X0266217Y0058174D02*
X0273539Y0058174D01*
X0274137Y0058772D02*
X0266537Y0058772D01*
X0267135Y0059371D02*
X0274736Y0059371D01*
X0275334Y0059969D02*
X0267734Y0059969D01*
X0268332Y0060568D02*
X0275933Y0060568D01*
X0276531Y0061166D02*
X0268931Y0061166D01*
X0269031Y0061266D02*
X0269031Y0061266D01*
X0269529Y0061765D02*
X0277130Y0061765D01*
X0277728Y0062363D02*
X0270062Y0062363D01*
X0270310Y0062962D02*
X0278327Y0062962D01*
X0278925Y0063560D02*
X0270548Y0063560D01*
X0270548Y0064159D02*
X0279524Y0064159D01*
X0280122Y0064757D02*
X0270548Y0064757D01*
X0270548Y0065356D02*
X0280721Y0065356D01*
X0281319Y0065954D02*
X0270548Y0065954D01*
X0270548Y0066553D02*
X0281918Y0066553D01*
X0282516Y0067151D02*
X0270548Y0067151D01*
X0270548Y0067750D02*
X0283115Y0067750D01*
X0283713Y0068348D02*
X0270548Y0068348D01*
X0270548Y0068947D02*
X0284312Y0068947D01*
X0284910Y0069545D02*
X0270548Y0069545D01*
X0270548Y0070144D02*
X0285509Y0070144D01*
X0286107Y0070742D02*
X0270548Y0070742D01*
X0270548Y0071341D02*
X0286706Y0071341D01*
X0287305Y0071939D02*
X0270548Y0071939D01*
X0270548Y0072538D02*
X0287903Y0072538D01*
X0288502Y0073136D02*
X0270548Y0073136D01*
X0270548Y0073735D02*
X0289100Y0073735D01*
X0289699Y0074333D02*
X0270548Y0074333D01*
X0270548Y0074932D02*
X0290297Y0074932D01*
X0290896Y0075530D02*
X0270548Y0075530D01*
X0270548Y0076129D02*
X0291494Y0076129D01*
X0292093Y0076727D02*
X0270548Y0076727D01*
X0270548Y0077326D02*
X0292177Y0077326D01*
X0292177Y0077924D02*
X0270548Y0077924D01*
X0270548Y0078523D02*
X0292177Y0078523D01*
X0292177Y0079121D02*
X0270548Y0079121D01*
X0270548Y0079720D02*
X0292177Y0079720D01*
X0291995Y0080318D02*
X0270548Y0080318D01*
X0270548Y0080917D02*
X0291396Y0080917D01*
X0290798Y0081515D02*
X0270548Y0081515D01*
X0270548Y0082114D02*
X0290199Y0082114D01*
X0289601Y0082712D02*
X0270548Y0082712D01*
X0270548Y0083311D02*
X0289112Y0083311D01*
X0288864Y0083910D02*
X0270548Y0083910D01*
X0270548Y0084508D02*
X0288779Y0084508D01*
X0288779Y0085107D02*
X0270548Y0085107D01*
X0270548Y0085705D02*
X0288992Y0085705D01*
X0289312Y0086304D02*
X0270548Y0086304D01*
X0270548Y0086902D02*
X0285556Y0086902D01*
X0284813Y0087501D02*
X0275894Y0087501D01*
X0276551Y0088099D02*
X0284214Y0088099D01*
X0283616Y0088698D02*
X0277149Y0088698D01*
X0277748Y0089296D02*
X0283017Y0089296D01*
X0282419Y0089895D02*
X0278346Y0089895D01*
X0278945Y0090493D02*
X0281820Y0090493D01*
X0281222Y0091092D02*
X0279543Y0091092D01*
X0280142Y0091690D02*
X0280623Y0091690D01*
X0281893Y0097077D02*
X0282407Y0097077D01*
X0283006Y0097675D02*
X0281295Y0097675D01*
X0280696Y0098274D02*
X0283604Y0098274D01*
X0284203Y0098872D02*
X0280098Y0098872D01*
X0279499Y0099471D02*
X0284801Y0099471D01*
X0285528Y0100069D02*
X0278901Y0100069D01*
X0278302Y0100668D02*
X0288487Y0100668D01*
X0288284Y0101266D02*
X0277704Y0101266D01*
X0277130Y0101865D02*
X0288284Y0101865D01*
X0288380Y0102463D02*
X0277728Y0102463D01*
X0278327Y0103062D02*
X0288628Y0103062D01*
X0289132Y0103660D02*
X0278925Y0103660D01*
X0279524Y0104259D02*
X0289731Y0104259D01*
X0290329Y0104857D02*
X0280122Y0104857D01*
X0280721Y0105456D02*
X0290928Y0105456D01*
X0291526Y0106054D02*
X0281319Y0106054D01*
X0281918Y0106653D02*
X0292125Y0106653D01*
X0292257Y0107251D02*
X0282516Y0107251D01*
X0283115Y0107850D02*
X0291658Y0107850D01*
X0291060Y0108448D02*
X0283713Y0108448D01*
X0284312Y0109047D02*
X0290461Y0109047D01*
X0289863Y0109645D02*
X0284910Y0109645D01*
X0285509Y0110244D02*
X0289264Y0110244D01*
X0288666Y0110843D02*
X0286107Y0110843D01*
X0286706Y0111441D02*
X0288067Y0111441D01*
X0287469Y0112040D02*
X0287304Y0112040D01*
X0298240Y0106653D02*
X0331461Y0106653D01*
X0330121Y0106054D02*
X0298838Y0106054D01*
X0288790Y0100069D02*
X0288148Y0100069D01*
X0288875Y0099471D02*
X0289389Y0099471D01*
X0289474Y0098872D02*
X0289987Y0098872D01*
X0290072Y0098274D02*
X0290586Y0098274D01*
X0290671Y0097675D02*
X0291184Y0097675D01*
X0291269Y0097077D02*
X0291783Y0097077D01*
X0291868Y0096478D02*
X0292381Y0096478D01*
X0292466Y0095880D02*
X0292980Y0095880D01*
X0293065Y0095281D02*
X0293578Y0095281D01*
X0293465Y0094683D02*
X0297691Y0094683D01*
X0297309Y0094084D02*
X0293713Y0094084D01*
X0293736Y0093486D02*
X0297062Y0093486D01*
X0297052Y0092887D02*
X0293708Y0092887D01*
X0293461Y0092289D02*
X0297094Y0092289D01*
X0297341Y0091690D02*
X0293053Y0091690D01*
X0292455Y0091092D02*
X0294100Y0091092D01*
X0293501Y0090493D02*
X0291856Y0090493D01*
X0291258Y0089895D02*
X0292903Y0089895D01*
X0292304Y0089296D02*
X0290659Y0089296D01*
X0290061Y0088698D02*
X0291706Y0088698D01*
X0291107Y0088099D02*
X0289462Y0088099D01*
X0288864Y0087501D02*
X0290509Y0087501D01*
X0289910Y0086902D02*
X0288120Y0086902D01*
X0297255Y0091092D02*
X0297768Y0091092D01*
X0297853Y0090493D02*
X0298366Y0090493D01*
X0298452Y0089895D02*
X0298965Y0089895D01*
X0299050Y0089296D02*
X0299563Y0089296D01*
X0299649Y0088698D02*
X0300162Y0088698D01*
X0300247Y0088099D02*
X0300760Y0088099D01*
X0300846Y0087501D02*
X0301359Y0087501D01*
X0301444Y0086902D02*
X0301957Y0086902D01*
X0302043Y0086304D02*
X0302747Y0086304D01*
X0302800Y0082114D02*
X0301155Y0082114D01*
X0300556Y0081515D02*
X0302201Y0081515D01*
X0301603Y0080917D02*
X0299958Y0080917D01*
X0299359Y0080318D02*
X0301004Y0080318D01*
X0300406Y0079720D02*
X0299177Y0079720D01*
X0299177Y0079121D02*
X0299807Y0079121D01*
X0299209Y0078523D02*
X0299177Y0078523D01*
X0299177Y0073136D02*
X0298401Y0073136D01*
X0297802Y0072538D02*
X0299775Y0072538D01*
X0300374Y0071939D02*
X0297204Y0071939D01*
X0296605Y0071341D02*
X0300972Y0071341D01*
X0301571Y0070742D02*
X0296007Y0070742D01*
X0295408Y0070144D02*
X0302169Y0070144D01*
X0302768Y0069545D02*
X0294810Y0069545D01*
X0294211Y0068947D02*
X0302544Y0068947D01*
X0301945Y0068348D02*
X0293613Y0068348D01*
X0293014Y0067750D02*
X0301347Y0067750D01*
X0300748Y0067151D02*
X0292416Y0067151D01*
X0291817Y0066553D02*
X0300150Y0066553D01*
X0299551Y0065954D02*
X0294114Y0065954D01*
X0295076Y0065356D02*
X0298953Y0065356D01*
X0298478Y0064757D02*
X0295712Y0064757D01*
X0295694Y0064757D02*
X0294846Y0064757D01*
X0295095Y0064159D02*
X0294247Y0064159D01*
X0294497Y0063560D02*
X0293648Y0063560D01*
X0293898Y0062962D02*
X0293050Y0062962D01*
X0293300Y0062363D02*
X0292451Y0062363D01*
X0292701Y0061765D02*
X0292057Y0061765D01*
X0292103Y0061166D02*
X0292656Y0061166D01*
X0292406Y0060568D02*
X0293254Y0060568D01*
X0293004Y0059969D02*
X0293853Y0059969D01*
X0293603Y0059371D02*
X0294451Y0059371D01*
X0294201Y0058772D02*
X0295050Y0058772D01*
X0294800Y0058174D02*
X0295648Y0058174D01*
X0295757Y0058174D02*
X0302303Y0058174D01*
X0301704Y0058772D02*
X0296195Y0058772D01*
X0296511Y0059371D02*
X0301106Y0059371D01*
X0300507Y0059969D02*
X0296734Y0059969D01*
X0296879Y0060568D02*
X0299909Y0060568D01*
X0299310Y0061166D02*
X0296955Y0061166D01*
X0296955Y0061765D02*
X0298712Y0061765D01*
X0298378Y0062363D02*
X0296872Y0062363D01*
X0296719Y0062962D02*
X0298155Y0062962D01*
X0298155Y0063560D02*
X0296488Y0063560D01*
X0296162Y0064159D02*
X0298231Y0064159D01*
X0295138Y0057575D02*
X0302901Y0057575D01*
X0303500Y0056977D02*
X0294204Y0056977D01*
X0314040Y0077326D02*
X0322041Y0077326D01*
X0321443Y0077924D02*
X0314926Y0077924D01*
X0315524Y0078523D02*
X0320844Y0078523D01*
X0320246Y0079121D02*
X0316123Y0079121D01*
X0316721Y0079720D02*
X0319647Y0079720D01*
X0319049Y0080318D02*
X0317320Y0080318D01*
X0317918Y0080917D02*
X0318450Y0080917D01*
X0318730Y0086304D02*
X0319901Y0086304D01*
X0320499Y0086902D02*
X0318132Y0086902D01*
X0317533Y0087501D02*
X0321098Y0087501D01*
X0321696Y0088099D02*
X0316935Y0088099D01*
X0316336Y0088698D02*
X0322295Y0088698D01*
X0322893Y0089296D02*
X0315738Y0089296D01*
X0315139Y0089895D02*
X0323492Y0089895D01*
X0324090Y0090493D02*
X0314541Y0090493D01*
X0302561Y0099471D02*
X0300975Y0099471D01*
X0300377Y0098872D02*
X0301880Y0098872D01*
X0301282Y0098274D02*
X0299778Y0098274D01*
X0299180Y0097675D02*
X0300683Y0097675D01*
X0300085Y0097077D02*
X0298581Y0097077D01*
X0297983Y0096478D02*
X0299486Y0096478D01*
X0298888Y0095880D02*
X0297384Y0095880D01*
X0296786Y0095281D02*
X0298289Y0095281D01*
X0273034Y0087501D02*
X0270548Y0087501D01*
X0270548Y0088099D02*
X0272377Y0088099D01*
X0271779Y0088698D02*
X0270548Y0088698D01*
X0270548Y0089296D02*
X0271180Y0089296D01*
X0270582Y0089895D02*
X0270548Y0089895D01*
M02*
