G75*
%MOIN*%
%OFA0B0*%
%FSLAX25Y25*%
%IPPOS*%
%LPD*%
%AMOC8*
5,1,8,0,0,1.08239X$1,22.5*
%
%ADD10C,0.00600*%
D10*
X0212320Y0073903D02*
X0218720Y0073903D01*
X0218720Y0076748D01*
X0217654Y0078965D02*
X0215876Y0078965D01*
X0216587Y0078965D02*
X0216587Y0081809D01*
X0215876Y0081809D01*
X0215802Y0081807D01*
X0215727Y0081801D01*
X0215654Y0081791D01*
X0215580Y0081778D01*
X0215508Y0081761D01*
X0215437Y0081739D01*
X0215366Y0081715D01*
X0215298Y0081686D01*
X0215230Y0081654D01*
X0215165Y0081618D01*
X0215102Y0081580D01*
X0215040Y0081537D01*
X0214981Y0081492D01*
X0214924Y0081444D01*
X0214870Y0081393D01*
X0214819Y0081339D01*
X0214771Y0081282D01*
X0214726Y0081223D01*
X0214683Y0081161D01*
X0214645Y0081098D01*
X0214609Y0081033D01*
X0214577Y0080965D01*
X0214548Y0080897D01*
X0214524Y0080826D01*
X0214502Y0080755D01*
X0214485Y0080683D01*
X0214472Y0080609D01*
X0214462Y0080536D01*
X0214456Y0080461D01*
X0214454Y0080387D01*
X0214456Y0080313D01*
X0214462Y0080238D01*
X0214472Y0080165D01*
X0214485Y0080091D01*
X0214502Y0080019D01*
X0214524Y0079948D01*
X0214548Y0079877D01*
X0214577Y0079809D01*
X0214609Y0079741D01*
X0214645Y0079676D01*
X0214683Y0079613D01*
X0214726Y0079551D01*
X0214771Y0079492D01*
X0214819Y0079435D01*
X0214870Y0079381D01*
X0214924Y0079330D01*
X0214981Y0079282D01*
X0215040Y0079237D01*
X0215102Y0079194D01*
X0215165Y0079156D01*
X0215230Y0079120D01*
X0215298Y0079088D01*
X0215366Y0079059D01*
X0215437Y0079035D01*
X0215508Y0079013D01*
X0215580Y0078996D01*
X0215654Y0078983D01*
X0215727Y0078973D01*
X0215802Y0078967D01*
X0215876Y0078965D01*
X0217654Y0078965D02*
X0217718Y0078967D01*
X0217783Y0078973D01*
X0217846Y0078982D01*
X0217909Y0078996D01*
X0217971Y0079013D01*
X0218032Y0079034D01*
X0218092Y0079059D01*
X0218150Y0079087D01*
X0218206Y0079119D01*
X0218260Y0079154D01*
X0218312Y0079192D01*
X0218362Y0079233D01*
X0218408Y0079278D01*
X0218453Y0079324D01*
X0218494Y0079374D01*
X0218532Y0079426D01*
X0218567Y0079480D01*
X0218599Y0079536D01*
X0218627Y0079594D01*
X0218652Y0079654D01*
X0218673Y0079715D01*
X0218690Y0079777D01*
X0218704Y0079840D01*
X0218713Y0079903D01*
X0218719Y0079968D01*
X0218721Y0080032D01*
X0218720Y0080032D02*
X0218720Y0081809D01*
X0218720Y0085514D02*
X0218720Y0087114D01*
X0215520Y0087114D01*
X0216232Y0087114D02*
X0216232Y0085514D01*
X0215520Y0087114D02*
X0215456Y0087112D01*
X0215391Y0087106D01*
X0215328Y0087097D01*
X0215265Y0087083D01*
X0215203Y0087066D01*
X0215142Y0087045D01*
X0215082Y0087020D01*
X0215024Y0086992D01*
X0214968Y0086960D01*
X0214914Y0086925D01*
X0214862Y0086887D01*
X0214812Y0086846D01*
X0214766Y0086801D01*
X0214721Y0086755D01*
X0214680Y0086705D01*
X0214642Y0086653D01*
X0214607Y0086599D01*
X0214575Y0086543D01*
X0214547Y0086485D01*
X0214522Y0086425D01*
X0214501Y0086364D01*
X0214484Y0086302D01*
X0214470Y0086239D01*
X0214461Y0086176D01*
X0214455Y0086111D01*
X0214453Y0086047D01*
X0214454Y0086047D02*
X0214454Y0084625D01*
X0216232Y0085514D02*
X0216234Y0085444D01*
X0216240Y0085375D01*
X0216250Y0085306D01*
X0216263Y0085237D01*
X0216281Y0085170D01*
X0216302Y0085103D01*
X0216327Y0085038D01*
X0216355Y0084974D01*
X0216387Y0084912D01*
X0216423Y0084852D01*
X0216461Y0084794D01*
X0216503Y0084738D01*
X0216548Y0084685D01*
X0216596Y0084634D01*
X0216647Y0084586D01*
X0216700Y0084541D01*
X0216756Y0084499D01*
X0216814Y0084461D01*
X0216874Y0084425D01*
X0216936Y0084393D01*
X0217000Y0084365D01*
X0217065Y0084340D01*
X0217132Y0084319D01*
X0217199Y0084301D01*
X0217268Y0084288D01*
X0217337Y0084278D01*
X0217406Y0084272D01*
X0217476Y0084270D01*
X0217546Y0084272D01*
X0217615Y0084278D01*
X0217684Y0084288D01*
X0217753Y0084301D01*
X0217820Y0084319D01*
X0217887Y0084340D01*
X0217952Y0084365D01*
X0218016Y0084393D01*
X0218078Y0084425D01*
X0218138Y0084461D01*
X0218196Y0084499D01*
X0218252Y0084541D01*
X0218305Y0084586D01*
X0218356Y0084634D01*
X0218404Y0084685D01*
X0218449Y0084738D01*
X0218491Y0084794D01*
X0218529Y0084852D01*
X0218565Y0084912D01*
X0218597Y0084974D01*
X0218625Y0085038D01*
X0218650Y0085103D01*
X0218671Y0085170D01*
X0218689Y0085237D01*
X0218702Y0085306D01*
X0218712Y0085375D01*
X0218718Y0085444D01*
X0218720Y0085514D01*
X0222820Y0087863D02*
X0229220Y0087863D01*
X0229220Y0086086D01*
X0229221Y0086086D02*
X0229219Y0086022D01*
X0229213Y0085957D01*
X0229204Y0085894D01*
X0229190Y0085831D01*
X0229173Y0085769D01*
X0229152Y0085708D01*
X0229127Y0085648D01*
X0229099Y0085590D01*
X0229067Y0085534D01*
X0229032Y0085480D01*
X0228994Y0085428D01*
X0228953Y0085378D01*
X0228908Y0085332D01*
X0228862Y0085287D01*
X0228812Y0085246D01*
X0228760Y0085208D01*
X0228706Y0085173D01*
X0228650Y0085141D01*
X0228592Y0085113D01*
X0228532Y0085088D01*
X0228471Y0085067D01*
X0228409Y0085050D01*
X0228346Y0085036D01*
X0228283Y0085027D01*
X0228218Y0085021D01*
X0228154Y0085019D01*
X0226020Y0085019D01*
X0225956Y0085021D01*
X0225891Y0085027D01*
X0225828Y0085036D01*
X0225765Y0085050D01*
X0225703Y0085067D01*
X0225642Y0085088D01*
X0225582Y0085113D01*
X0225524Y0085141D01*
X0225468Y0085173D01*
X0225414Y0085208D01*
X0225362Y0085246D01*
X0225312Y0085287D01*
X0225266Y0085332D01*
X0225221Y0085378D01*
X0225180Y0085428D01*
X0225142Y0085480D01*
X0225107Y0085534D01*
X0225075Y0085590D01*
X0225047Y0085648D01*
X0225022Y0085708D01*
X0225001Y0085769D01*
X0224984Y0085831D01*
X0224970Y0085894D01*
X0224961Y0085957D01*
X0224955Y0086022D01*
X0224953Y0086086D01*
X0224954Y0086086D02*
X0224954Y0087863D01*
X0224954Y0090573D02*
X0229220Y0090573D01*
X0229220Y0093253D02*
X0224954Y0093253D01*
X0224954Y0095031D01*
X0224953Y0095031D02*
X0224955Y0095095D01*
X0224961Y0095160D01*
X0224970Y0095223D01*
X0224984Y0095286D01*
X0225001Y0095348D01*
X0225022Y0095409D01*
X0225047Y0095469D01*
X0225075Y0095527D01*
X0225107Y0095583D01*
X0225142Y0095637D01*
X0225180Y0095689D01*
X0225221Y0095739D01*
X0225266Y0095785D01*
X0225312Y0095830D01*
X0225362Y0095871D01*
X0225414Y0095909D01*
X0225468Y0095944D01*
X0225524Y0095976D01*
X0225582Y0096004D01*
X0225642Y0096029D01*
X0225703Y0096050D01*
X0225765Y0096067D01*
X0225828Y0096081D01*
X0225891Y0096090D01*
X0225956Y0096096D01*
X0226020Y0096098D01*
X0229220Y0096098D01*
X0228154Y0098763D02*
X0226020Y0098763D01*
X0225956Y0098765D01*
X0225891Y0098771D01*
X0225828Y0098780D01*
X0225765Y0098794D01*
X0225703Y0098811D01*
X0225642Y0098832D01*
X0225582Y0098857D01*
X0225524Y0098885D01*
X0225468Y0098917D01*
X0225414Y0098952D01*
X0225362Y0098990D01*
X0225312Y0099031D01*
X0225266Y0099076D01*
X0225221Y0099122D01*
X0225180Y0099172D01*
X0225142Y0099224D01*
X0225107Y0099278D01*
X0225075Y0099334D01*
X0225047Y0099392D01*
X0225022Y0099452D01*
X0225001Y0099513D01*
X0224984Y0099575D01*
X0224970Y0099638D01*
X0224961Y0099701D01*
X0224955Y0099766D01*
X0224953Y0099830D01*
X0224954Y0099830D02*
X0224954Y0101607D01*
X0230287Y0101607D01*
X0230287Y0101608D02*
X0230351Y0101606D01*
X0230416Y0101600D01*
X0230479Y0101591D01*
X0230542Y0101577D01*
X0230604Y0101560D01*
X0230665Y0101539D01*
X0230725Y0101514D01*
X0230783Y0101486D01*
X0230839Y0101454D01*
X0230893Y0101419D01*
X0230945Y0101381D01*
X0230995Y0101340D01*
X0231041Y0101295D01*
X0231086Y0101249D01*
X0231127Y0101199D01*
X0231165Y0101147D01*
X0231200Y0101093D01*
X0231232Y0101037D01*
X0231260Y0100979D01*
X0231285Y0100919D01*
X0231306Y0100858D01*
X0231323Y0100796D01*
X0231337Y0100733D01*
X0231346Y0100670D01*
X0231352Y0100605D01*
X0231354Y0100541D01*
X0231354Y0099118D01*
X0229220Y0099830D02*
X0229220Y0101607D01*
X0229221Y0099830D02*
X0229219Y0099766D01*
X0229213Y0099701D01*
X0229204Y0099638D01*
X0229190Y0099575D01*
X0229173Y0099513D01*
X0229152Y0099452D01*
X0229127Y0099392D01*
X0229099Y0099334D01*
X0229067Y0099278D01*
X0229032Y0099224D01*
X0228994Y0099172D01*
X0228953Y0099122D01*
X0228908Y0099076D01*
X0228862Y0099031D01*
X0228812Y0098990D01*
X0228760Y0098952D01*
X0228706Y0098917D01*
X0228650Y0098885D01*
X0228592Y0098857D01*
X0228532Y0098832D01*
X0228471Y0098811D01*
X0228409Y0098794D01*
X0228346Y0098780D01*
X0228283Y0098771D01*
X0228218Y0098765D01*
X0228154Y0098763D01*
X0235454Y0099080D02*
X0235454Y0100858D01*
X0235453Y0100858D02*
X0235455Y0100922D01*
X0235461Y0100987D01*
X0235470Y0101050D01*
X0235484Y0101113D01*
X0235501Y0101175D01*
X0235522Y0101236D01*
X0235547Y0101296D01*
X0235575Y0101354D01*
X0235607Y0101410D01*
X0235642Y0101464D01*
X0235680Y0101516D01*
X0235721Y0101566D01*
X0235766Y0101612D01*
X0235812Y0101657D01*
X0235862Y0101698D01*
X0235914Y0101736D01*
X0235968Y0101771D01*
X0236024Y0101803D01*
X0236082Y0101831D01*
X0236142Y0101856D01*
X0236203Y0101877D01*
X0236265Y0101894D01*
X0236328Y0101908D01*
X0236391Y0101917D01*
X0236456Y0101923D01*
X0236520Y0101925D01*
X0236520Y0101924D02*
X0239720Y0101924D01*
X0239720Y0099080D02*
X0235454Y0099080D01*
X0235454Y0096152D02*
X0240787Y0096152D01*
X0239720Y0096152D02*
X0239720Y0094374D01*
X0239721Y0094374D02*
X0239719Y0094310D01*
X0239713Y0094245D01*
X0239704Y0094182D01*
X0239690Y0094119D01*
X0239673Y0094057D01*
X0239652Y0093996D01*
X0239627Y0093936D01*
X0239599Y0093878D01*
X0239567Y0093822D01*
X0239532Y0093768D01*
X0239494Y0093716D01*
X0239453Y0093666D01*
X0239408Y0093620D01*
X0239362Y0093575D01*
X0239312Y0093534D01*
X0239260Y0093496D01*
X0239206Y0093461D01*
X0239150Y0093429D01*
X0239092Y0093401D01*
X0239032Y0093376D01*
X0238971Y0093355D01*
X0238909Y0093338D01*
X0238846Y0093324D01*
X0238783Y0093315D01*
X0238718Y0093309D01*
X0238654Y0093307D01*
X0236520Y0093307D01*
X0236456Y0093309D01*
X0236391Y0093315D01*
X0236328Y0093324D01*
X0236265Y0093338D01*
X0236203Y0093355D01*
X0236142Y0093376D01*
X0236082Y0093401D01*
X0236024Y0093429D01*
X0235968Y0093461D01*
X0235914Y0093496D01*
X0235862Y0093534D01*
X0235812Y0093575D01*
X0235766Y0093620D01*
X0235721Y0093666D01*
X0235680Y0093716D01*
X0235642Y0093768D01*
X0235607Y0093822D01*
X0235575Y0093878D01*
X0235547Y0093936D01*
X0235522Y0093996D01*
X0235501Y0094057D01*
X0235484Y0094119D01*
X0235470Y0094182D01*
X0235461Y0094245D01*
X0235455Y0094310D01*
X0235453Y0094374D01*
X0235454Y0094374D02*
X0235454Y0096152D01*
X0240787Y0096152D02*
X0240851Y0096150D01*
X0240916Y0096144D01*
X0240979Y0096135D01*
X0241042Y0096121D01*
X0241104Y0096104D01*
X0241165Y0096083D01*
X0241225Y0096058D01*
X0241283Y0096030D01*
X0241339Y0095998D01*
X0241393Y0095963D01*
X0241445Y0095925D01*
X0241495Y0095884D01*
X0241541Y0095839D01*
X0241586Y0095793D01*
X0241627Y0095743D01*
X0241665Y0095691D01*
X0241700Y0095637D01*
X0241732Y0095581D01*
X0241760Y0095523D01*
X0241785Y0095463D01*
X0241806Y0095402D01*
X0241823Y0095340D01*
X0241837Y0095277D01*
X0241846Y0095214D01*
X0241852Y0095149D01*
X0241854Y0095085D01*
X0241854Y0093663D01*
X0239720Y0090861D02*
X0235454Y0090861D01*
X0233676Y0091039D02*
X0233676Y0090683D01*
X0233320Y0090683D01*
X0233320Y0091039D01*
X0233676Y0091039D01*
X0239720Y0087497D02*
X0239716Y0087343D01*
X0239708Y0087190D01*
X0239696Y0087037D01*
X0239680Y0086884D01*
X0239661Y0086732D01*
X0239637Y0086580D01*
X0239610Y0086429D01*
X0239578Y0086279D01*
X0239543Y0086129D01*
X0239504Y0085980D01*
X0239461Y0085833D01*
X0239415Y0085686D01*
X0239365Y0085541D01*
X0235453Y0086430D02*
X0235457Y0086548D01*
X0235464Y0086665D01*
X0235474Y0086783D01*
X0235488Y0086900D01*
X0235505Y0087016D01*
X0235525Y0087132D01*
X0235549Y0087248D01*
X0235576Y0087363D01*
X0235607Y0087477D01*
X0235641Y0087589D01*
X0235678Y0087701D01*
X0235719Y0087812D01*
X0235762Y0087922D01*
X0235809Y0088030D01*
X0235454Y0086430D02*
X0235455Y0086371D01*
X0235460Y0086311D01*
X0235469Y0086253D01*
X0235481Y0086194D01*
X0235498Y0086137D01*
X0235517Y0086081D01*
X0235541Y0086026D01*
X0235568Y0085973D01*
X0235598Y0085922D01*
X0235632Y0085873D01*
X0235668Y0085826D01*
X0235708Y0085782D01*
X0235750Y0085740D01*
X0235795Y0085701D01*
X0235843Y0085665D01*
X0235892Y0085632D01*
X0235944Y0085603D01*
X0235997Y0085576D01*
X0236052Y0085554D01*
X0236109Y0085535D01*
X0236166Y0085519D01*
X0236224Y0085508D01*
X0236283Y0085500D01*
X0236343Y0085496D01*
X0236402Y0085495D01*
X0236462Y0085499D01*
X0236521Y0085506D01*
X0236579Y0085518D01*
X0236637Y0085533D01*
X0236693Y0085551D01*
X0236748Y0085574D01*
X0236802Y0085599D01*
X0236854Y0085629D01*
X0236904Y0085661D01*
X0236951Y0085697D01*
X0236997Y0085735D01*
X0237039Y0085777D01*
X0237079Y0085821D01*
X0237116Y0085867D01*
X0237150Y0085916D01*
X0237181Y0085967D01*
X0237208Y0086020D01*
X0237232Y0086075D01*
X0237232Y0086074D02*
X0237943Y0087852D01*
X0237967Y0087907D01*
X0237994Y0087960D01*
X0238025Y0088011D01*
X0238059Y0088060D01*
X0238096Y0088106D01*
X0238136Y0088150D01*
X0238178Y0088192D01*
X0238224Y0088230D01*
X0238271Y0088266D01*
X0238321Y0088298D01*
X0238373Y0088328D01*
X0238427Y0088353D01*
X0238482Y0088376D01*
X0238538Y0088394D01*
X0238596Y0088409D01*
X0238654Y0088421D01*
X0238713Y0088428D01*
X0238773Y0088432D01*
X0238832Y0088431D01*
X0238892Y0088427D01*
X0238951Y0088419D01*
X0239009Y0088408D01*
X0239066Y0088392D01*
X0239123Y0088373D01*
X0239178Y0088351D01*
X0239231Y0088324D01*
X0239283Y0088295D01*
X0239332Y0088262D01*
X0239380Y0088226D01*
X0239425Y0088187D01*
X0239467Y0088145D01*
X0239507Y0088101D01*
X0239543Y0088054D01*
X0239577Y0088005D01*
X0239607Y0087954D01*
X0239634Y0087901D01*
X0239658Y0087846D01*
X0239677Y0087790D01*
X0239694Y0087733D01*
X0239706Y0087674D01*
X0239715Y0087616D01*
X0239720Y0087556D01*
X0239721Y0087497D01*
X0239720Y0083052D02*
X0239720Y0081274D01*
X0239721Y0081274D02*
X0239719Y0081210D01*
X0239713Y0081145D01*
X0239704Y0081082D01*
X0239690Y0081019D01*
X0239673Y0080957D01*
X0239652Y0080896D01*
X0239627Y0080836D01*
X0239599Y0080778D01*
X0239567Y0080722D01*
X0239532Y0080668D01*
X0239494Y0080616D01*
X0239453Y0080566D01*
X0239408Y0080520D01*
X0239362Y0080475D01*
X0239312Y0080434D01*
X0239260Y0080396D01*
X0239206Y0080361D01*
X0239150Y0080329D01*
X0239092Y0080301D01*
X0239032Y0080276D01*
X0238971Y0080255D01*
X0238909Y0080238D01*
X0238846Y0080224D01*
X0238783Y0080215D01*
X0238718Y0080209D01*
X0238654Y0080207D01*
X0238654Y0080208D02*
X0236876Y0080208D01*
X0237587Y0080208D02*
X0237587Y0083052D01*
X0236876Y0083052D01*
X0236802Y0083050D01*
X0236727Y0083044D01*
X0236654Y0083034D01*
X0236580Y0083021D01*
X0236508Y0083004D01*
X0236437Y0082982D01*
X0236366Y0082958D01*
X0236298Y0082929D01*
X0236230Y0082897D01*
X0236165Y0082861D01*
X0236102Y0082823D01*
X0236040Y0082780D01*
X0235981Y0082735D01*
X0235924Y0082687D01*
X0235870Y0082636D01*
X0235819Y0082582D01*
X0235771Y0082525D01*
X0235726Y0082466D01*
X0235683Y0082404D01*
X0235645Y0082341D01*
X0235609Y0082276D01*
X0235577Y0082208D01*
X0235548Y0082140D01*
X0235524Y0082069D01*
X0235502Y0081998D01*
X0235485Y0081926D01*
X0235472Y0081852D01*
X0235462Y0081779D01*
X0235456Y0081704D01*
X0235454Y0081630D01*
X0235456Y0081556D01*
X0235462Y0081481D01*
X0235472Y0081408D01*
X0235485Y0081334D01*
X0235502Y0081262D01*
X0235524Y0081191D01*
X0235548Y0081120D01*
X0235577Y0081052D01*
X0235609Y0080984D01*
X0235645Y0080919D01*
X0235683Y0080856D01*
X0235726Y0080794D01*
X0235771Y0080735D01*
X0235819Y0080678D01*
X0235870Y0080624D01*
X0235924Y0080573D01*
X0235981Y0080525D01*
X0236040Y0080480D01*
X0236102Y0080437D01*
X0236165Y0080399D01*
X0236230Y0080363D01*
X0236298Y0080331D01*
X0236366Y0080302D01*
X0236437Y0080278D01*
X0236508Y0080256D01*
X0236580Y0080239D01*
X0236654Y0080226D01*
X0236727Y0080216D01*
X0236802Y0080210D01*
X0236876Y0080208D01*
X0237943Y0077459D02*
X0235098Y0077459D01*
X0235016Y0077457D01*
X0234934Y0077451D01*
X0234852Y0077442D01*
X0234771Y0077429D01*
X0234691Y0077412D01*
X0234611Y0077391D01*
X0234533Y0077367D01*
X0234456Y0077339D01*
X0234380Y0077308D01*
X0234305Y0077273D01*
X0234233Y0077234D01*
X0234162Y0077193D01*
X0234093Y0077148D01*
X0234027Y0077100D01*
X0233962Y0077049D01*
X0233900Y0076995D01*
X0233841Y0076938D01*
X0233784Y0076879D01*
X0233730Y0076817D01*
X0233679Y0076752D01*
X0233631Y0076686D01*
X0233586Y0076617D01*
X0233545Y0076546D01*
X0233506Y0076474D01*
X0233471Y0076399D01*
X0233440Y0076323D01*
X0233412Y0076246D01*
X0233388Y0076168D01*
X0233367Y0076088D01*
X0233350Y0076008D01*
X0233337Y0075927D01*
X0233328Y0075845D01*
X0233322Y0075763D01*
X0233320Y0075681D01*
X0233320Y0073903D01*
X0239720Y0073903D01*
X0239720Y0075681D01*
X0239721Y0075681D02*
X0239719Y0075763D01*
X0239713Y0075845D01*
X0239704Y0075927D01*
X0239691Y0076008D01*
X0239674Y0076088D01*
X0239653Y0076168D01*
X0239629Y0076246D01*
X0239601Y0076323D01*
X0239570Y0076399D01*
X0239535Y0076474D01*
X0239496Y0076546D01*
X0239455Y0076617D01*
X0239410Y0076686D01*
X0239362Y0076752D01*
X0239311Y0076817D01*
X0239257Y0076879D01*
X0239200Y0076938D01*
X0239141Y0076995D01*
X0239079Y0077049D01*
X0239014Y0077100D01*
X0238948Y0077148D01*
X0238879Y0077193D01*
X0238808Y0077234D01*
X0238736Y0077273D01*
X0238661Y0077308D01*
X0238585Y0077339D01*
X0238508Y0077367D01*
X0238430Y0077391D01*
X0238350Y0077412D01*
X0238270Y0077429D01*
X0238189Y0077442D01*
X0238107Y0077451D01*
X0238025Y0077457D01*
X0237943Y0077459D01*
X0229220Y0077459D02*
X0225309Y0075325D01*
X0226732Y0073903D02*
X0222820Y0077459D01*
X0226376Y0079714D02*
X0227798Y0079714D01*
X0227872Y0079716D01*
X0227947Y0079722D01*
X0228020Y0079732D01*
X0228094Y0079745D01*
X0228166Y0079762D01*
X0228237Y0079784D01*
X0228308Y0079808D01*
X0228376Y0079837D01*
X0228444Y0079869D01*
X0228509Y0079905D01*
X0228572Y0079943D01*
X0228634Y0079986D01*
X0228693Y0080031D01*
X0228750Y0080079D01*
X0228804Y0080130D01*
X0228855Y0080184D01*
X0228903Y0080241D01*
X0228948Y0080300D01*
X0228991Y0080362D01*
X0229029Y0080425D01*
X0229065Y0080490D01*
X0229097Y0080558D01*
X0229126Y0080626D01*
X0229150Y0080697D01*
X0229172Y0080768D01*
X0229189Y0080840D01*
X0229202Y0080914D01*
X0229212Y0080987D01*
X0229218Y0081062D01*
X0229220Y0081136D01*
X0229218Y0081210D01*
X0229212Y0081285D01*
X0229202Y0081358D01*
X0229189Y0081432D01*
X0229172Y0081504D01*
X0229150Y0081575D01*
X0229126Y0081646D01*
X0229097Y0081714D01*
X0229065Y0081782D01*
X0229029Y0081847D01*
X0228991Y0081910D01*
X0228948Y0081972D01*
X0228903Y0082031D01*
X0228855Y0082088D01*
X0228804Y0082142D01*
X0228750Y0082193D01*
X0228693Y0082241D01*
X0228634Y0082286D01*
X0228572Y0082329D01*
X0228509Y0082367D01*
X0228444Y0082403D01*
X0228376Y0082435D01*
X0228308Y0082464D01*
X0228237Y0082488D01*
X0228166Y0082510D01*
X0228094Y0082527D01*
X0228020Y0082540D01*
X0227947Y0082550D01*
X0227872Y0082556D01*
X0227798Y0082558D01*
X0227798Y0082559D02*
X0226376Y0082559D01*
X0226376Y0082558D02*
X0226302Y0082556D01*
X0226227Y0082550D01*
X0226154Y0082540D01*
X0226080Y0082527D01*
X0226008Y0082510D01*
X0225937Y0082488D01*
X0225866Y0082464D01*
X0225798Y0082435D01*
X0225730Y0082403D01*
X0225665Y0082367D01*
X0225602Y0082329D01*
X0225540Y0082286D01*
X0225481Y0082241D01*
X0225424Y0082193D01*
X0225370Y0082142D01*
X0225319Y0082088D01*
X0225271Y0082031D01*
X0225226Y0081972D01*
X0225183Y0081910D01*
X0225145Y0081847D01*
X0225109Y0081782D01*
X0225077Y0081714D01*
X0225048Y0081646D01*
X0225024Y0081575D01*
X0225002Y0081504D01*
X0224985Y0081432D01*
X0224972Y0081358D01*
X0224962Y0081285D01*
X0224956Y0081210D01*
X0224954Y0081136D01*
X0224956Y0081062D01*
X0224962Y0080987D01*
X0224972Y0080914D01*
X0224985Y0080840D01*
X0225002Y0080768D01*
X0225024Y0080697D01*
X0225048Y0080626D01*
X0225077Y0080558D01*
X0225109Y0080490D01*
X0225145Y0080425D01*
X0225183Y0080362D01*
X0225226Y0080300D01*
X0225271Y0080241D01*
X0225319Y0080184D01*
X0225370Y0080130D01*
X0225424Y0080079D01*
X0225481Y0080031D01*
X0225540Y0079986D01*
X0225602Y0079943D01*
X0225665Y0079905D01*
X0225730Y0079869D01*
X0225798Y0079837D01*
X0225866Y0079808D01*
X0225937Y0079784D01*
X0226008Y0079762D01*
X0226080Y0079745D01*
X0226154Y0079732D01*
X0226227Y0079722D01*
X0226302Y0079716D01*
X0226376Y0079714D01*
X0229220Y0073903D02*
X0222820Y0073903D01*
X0222820Y0090395D02*
X0222820Y0090750D01*
X0223176Y0090750D01*
X0223176Y0090395D01*
X0222820Y0090395D01*
X0218720Y0090076D02*
X0214454Y0090076D01*
X0214454Y0092209D01*
X0215165Y0092209D01*
X0214454Y0094350D02*
X0214454Y0096128D01*
X0214453Y0096128D02*
X0214455Y0096192D01*
X0214461Y0096257D01*
X0214470Y0096320D01*
X0214484Y0096383D01*
X0214501Y0096445D01*
X0214522Y0096506D01*
X0214547Y0096566D01*
X0214575Y0096624D01*
X0214607Y0096680D01*
X0214642Y0096734D01*
X0214680Y0096786D01*
X0214721Y0096836D01*
X0214766Y0096882D01*
X0214812Y0096927D01*
X0214862Y0096968D01*
X0214914Y0097006D01*
X0214968Y0097041D01*
X0215024Y0097073D01*
X0215082Y0097101D01*
X0215142Y0097126D01*
X0215203Y0097147D01*
X0215265Y0097164D01*
X0215328Y0097178D01*
X0215391Y0097187D01*
X0215456Y0097193D01*
X0215520Y0097195D01*
X0218720Y0097195D01*
X0218720Y0099875D02*
X0214454Y0099875D01*
X0212676Y0100053D02*
X0212676Y0099697D01*
X0212320Y0099697D01*
X0212320Y0100053D01*
X0212676Y0100053D01*
X0214454Y0102555D02*
X0214454Y0104333D01*
X0214453Y0104333D02*
X0214455Y0104397D01*
X0214461Y0104462D01*
X0214470Y0104525D01*
X0214484Y0104588D01*
X0214501Y0104650D01*
X0214522Y0104711D01*
X0214547Y0104771D01*
X0214575Y0104829D01*
X0214607Y0104885D01*
X0214642Y0104939D01*
X0214680Y0104991D01*
X0214721Y0105041D01*
X0214766Y0105087D01*
X0214812Y0105132D01*
X0214862Y0105173D01*
X0214914Y0105211D01*
X0214968Y0105246D01*
X0215024Y0105278D01*
X0215082Y0105306D01*
X0215142Y0105331D01*
X0215203Y0105352D01*
X0215265Y0105369D01*
X0215328Y0105383D01*
X0215391Y0105392D01*
X0215456Y0105398D01*
X0215520Y0105400D01*
X0218720Y0105400D01*
X0218720Y0102555D02*
X0214454Y0102555D01*
X0222820Y0104673D02*
X0229220Y0104673D01*
X0226732Y0104673D02*
X0222820Y0108229D01*
X0220854Y0108421D02*
X0220854Y0109843D01*
X0220852Y0109907D01*
X0220846Y0109972D01*
X0220837Y0110035D01*
X0220823Y0110098D01*
X0220806Y0110160D01*
X0220785Y0110221D01*
X0220760Y0110281D01*
X0220732Y0110339D01*
X0220700Y0110395D01*
X0220665Y0110449D01*
X0220627Y0110501D01*
X0220586Y0110551D01*
X0220541Y0110597D01*
X0220495Y0110642D01*
X0220445Y0110683D01*
X0220393Y0110721D01*
X0220339Y0110756D01*
X0220283Y0110788D01*
X0220225Y0110816D01*
X0220165Y0110841D01*
X0220104Y0110862D01*
X0220042Y0110879D01*
X0219979Y0110893D01*
X0219916Y0110902D01*
X0219851Y0110908D01*
X0219787Y0110910D01*
X0214454Y0110910D01*
X0214454Y0109132D01*
X0214453Y0109132D02*
X0214455Y0109068D01*
X0214461Y0109003D01*
X0214470Y0108940D01*
X0214484Y0108877D01*
X0214501Y0108815D01*
X0214522Y0108754D01*
X0214547Y0108694D01*
X0214575Y0108636D01*
X0214607Y0108580D01*
X0214642Y0108526D01*
X0214680Y0108474D01*
X0214721Y0108424D01*
X0214766Y0108378D01*
X0214812Y0108333D01*
X0214862Y0108292D01*
X0214914Y0108254D01*
X0214968Y0108219D01*
X0215024Y0108187D01*
X0215082Y0108159D01*
X0215142Y0108134D01*
X0215203Y0108113D01*
X0215265Y0108096D01*
X0215328Y0108082D01*
X0215391Y0108073D01*
X0215456Y0108067D01*
X0215520Y0108065D01*
X0217654Y0108065D01*
X0217718Y0108067D01*
X0217783Y0108073D01*
X0217846Y0108082D01*
X0217909Y0108096D01*
X0217971Y0108113D01*
X0218032Y0108134D01*
X0218092Y0108159D01*
X0218150Y0108187D01*
X0218206Y0108219D01*
X0218260Y0108254D01*
X0218312Y0108292D01*
X0218362Y0108333D01*
X0218408Y0108378D01*
X0218453Y0108424D01*
X0218494Y0108474D01*
X0218532Y0108526D01*
X0218567Y0108580D01*
X0218599Y0108636D01*
X0218627Y0108694D01*
X0218652Y0108754D01*
X0218673Y0108815D01*
X0218690Y0108877D01*
X0218704Y0108940D01*
X0218713Y0109003D01*
X0218719Y0109068D01*
X0218721Y0109132D01*
X0218720Y0109132D02*
X0218720Y0110910D01*
X0218720Y0113976D02*
X0212320Y0113976D01*
X0212320Y0115753D01*
X0212321Y0115753D02*
X0212323Y0115827D01*
X0212329Y0115902D01*
X0212339Y0115975D01*
X0212352Y0116049D01*
X0212369Y0116121D01*
X0212391Y0116192D01*
X0212415Y0116263D01*
X0212444Y0116331D01*
X0212476Y0116399D01*
X0212512Y0116464D01*
X0212550Y0116527D01*
X0212593Y0116589D01*
X0212638Y0116648D01*
X0212686Y0116705D01*
X0212737Y0116759D01*
X0212791Y0116810D01*
X0212848Y0116858D01*
X0212907Y0116903D01*
X0212969Y0116946D01*
X0213032Y0116984D01*
X0213097Y0117020D01*
X0213165Y0117052D01*
X0213233Y0117081D01*
X0213304Y0117105D01*
X0213375Y0117127D01*
X0213447Y0117144D01*
X0213521Y0117157D01*
X0213594Y0117167D01*
X0213669Y0117173D01*
X0213743Y0117175D01*
X0213817Y0117173D01*
X0213892Y0117167D01*
X0213965Y0117157D01*
X0214039Y0117144D01*
X0214111Y0117127D01*
X0214182Y0117105D01*
X0214253Y0117081D01*
X0214321Y0117052D01*
X0214389Y0117020D01*
X0214454Y0116984D01*
X0214517Y0116946D01*
X0214579Y0116903D01*
X0214638Y0116858D01*
X0214695Y0116810D01*
X0214749Y0116759D01*
X0214800Y0116705D01*
X0214848Y0116648D01*
X0214893Y0116589D01*
X0214936Y0116527D01*
X0214974Y0116464D01*
X0215010Y0116399D01*
X0215042Y0116331D01*
X0215071Y0116263D01*
X0215095Y0116192D01*
X0215117Y0116121D01*
X0215134Y0116049D01*
X0215147Y0115975D01*
X0215157Y0115902D01*
X0215163Y0115827D01*
X0215165Y0115753D01*
X0215165Y0113976D01*
X0215165Y0115753D02*
X0215167Y0115836D01*
X0215173Y0115919D01*
X0215183Y0116002D01*
X0215196Y0116085D01*
X0215214Y0116166D01*
X0215235Y0116247D01*
X0215260Y0116326D01*
X0215289Y0116404D01*
X0215321Y0116481D01*
X0215357Y0116556D01*
X0215396Y0116630D01*
X0215439Y0116701D01*
X0215485Y0116771D01*
X0215535Y0116838D01*
X0215587Y0116903D01*
X0215642Y0116965D01*
X0215701Y0117025D01*
X0215762Y0117082D01*
X0215825Y0117136D01*
X0215891Y0117187D01*
X0215960Y0117234D01*
X0216030Y0117279D01*
X0216103Y0117320D01*
X0216177Y0117357D01*
X0216253Y0117392D01*
X0216331Y0117422D01*
X0216409Y0117449D01*
X0216490Y0117472D01*
X0216571Y0117492D01*
X0216653Y0117507D01*
X0216735Y0117519D01*
X0216818Y0117527D01*
X0216901Y0117531D01*
X0216985Y0117531D01*
X0217068Y0117527D01*
X0217151Y0117519D01*
X0217233Y0117507D01*
X0217315Y0117492D01*
X0217396Y0117472D01*
X0217477Y0117449D01*
X0217555Y0117422D01*
X0217633Y0117392D01*
X0217709Y0117357D01*
X0217783Y0117320D01*
X0217856Y0117279D01*
X0217926Y0117234D01*
X0217995Y0117187D01*
X0218061Y0117136D01*
X0218124Y0117082D01*
X0218185Y0117025D01*
X0218244Y0116965D01*
X0218299Y0116903D01*
X0218351Y0116838D01*
X0218401Y0116771D01*
X0218447Y0116701D01*
X0218490Y0116630D01*
X0218529Y0116556D01*
X0218565Y0116481D01*
X0218597Y0116404D01*
X0218626Y0116326D01*
X0218651Y0116247D01*
X0218672Y0116166D01*
X0218690Y0116085D01*
X0218703Y0116002D01*
X0218713Y0115919D01*
X0218719Y0115836D01*
X0218721Y0115753D01*
X0218720Y0115753D02*
X0218720Y0113976D01*
X0224954Y0112856D02*
X0224954Y0110723D01*
X0229220Y0110723D01*
X0229220Y0108229D02*
X0225309Y0106095D01*
X0224954Y0112856D02*
X0225665Y0112856D01*
X0226376Y0114792D02*
X0228154Y0114792D01*
X0228218Y0114794D01*
X0228283Y0114800D01*
X0228346Y0114809D01*
X0228409Y0114823D01*
X0228471Y0114840D01*
X0228532Y0114861D01*
X0228592Y0114886D01*
X0228650Y0114914D01*
X0228706Y0114946D01*
X0228760Y0114981D01*
X0228812Y0115019D01*
X0228862Y0115060D01*
X0228908Y0115105D01*
X0228953Y0115151D01*
X0228994Y0115201D01*
X0229032Y0115253D01*
X0229067Y0115307D01*
X0229099Y0115363D01*
X0229127Y0115421D01*
X0229152Y0115481D01*
X0229173Y0115542D01*
X0229190Y0115604D01*
X0229204Y0115667D01*
X0229213Y0115730D01*
X0229219Y0115795D01*
X0229221Y0115859D01*
X0229220Y0115859D02*
X0229220Y0117637D01*
X0227087Y0117637D02*
X0227087Y0114792D01*
X0226376Y0114792D02*
X0226302Y0114794D01*
X0226227Y0114800D01*
X0226154Y0114810D01*
X0226080Y0114823D01*
X0226008Y0114840D01*
X0225937Y0114862D01*
X0225866Y0114886D01*
X0225798Y0114915D01*
X0225730Y0114947D01*
X0225665Y0114983D01*
X0225602Y0115021D01*
X0225540Y0115064D01*
X0225481Y0115109D01*
X0225424Y0115157D01*
X0225370Y0115208D01*
X0225319Y0115262D01*
X0225271Y0115319D01*
X0225226Y0115378D01*
X0225183Y0115440D01*
X0225145Y0115503D01*
X0225109Y0115568D01*
X0225077Y0115636D01*
X0225048Y0115704D01*
X0225024Y0115775D01*
X0225002Y0115846D01*
X0224985Y0115918D01*
X0224972Y0115992D01*
X0224962Y0116065D01*
X0224956Y0116140D01*
X0224954Y0116214D01*
X0224956Y0116288D01*
X0224962Y0116363D01*
X0224972Y0116436D01*
X0224985Y0116510D01*
X0225002Y0116582D01*
X0225024Y0116653D01*
X0225048Y0116724D01*
X0225077Y0116792D01*
X0225109Y0116860D01*
X0225145Y0116925D01*
X0225183Y0116988D01*
X0225226Y0117050D01*
X0225271Y0117109D01*
X0225319Y0117166D01*
X0225370Y0117220D01*
X0225424Y0117271D01*
X0225481Y0117319D01*
X0225540Y0117364D01*
X0225602Y0117407D01*
X0225665Y0117445D01*
X0225730Y0117481D01*
X0225798Y0117513D01*
X0225866Y0117542D01*
X0225937Y0117566D01*
X0226008Y0117588D01*
X0226080Y0117605D01*
X0226154Y0117618D01*
X0226227Y0117628D01*
X0226302Y0117634D01*
X0226376Y0117636D01*
X0226376Y0117637D02*
X0227087Y0117637D01*
X0224954Y0120452D02*
X0224954Y0121875D01*
X0224953Y0121875D02*
X0224955Y0121939D01*
X0224961Y0122004D01*
X0224970Y0122067D01*
X0224984Y0122130D01*
X0225001Y0122192D01*
X0225022Y0122253D01*
X0225047Y0122313D01*
X0225075Y0122371D01*
X0225107Y0122427D01*
X0225142Y0122481D01*
X0225180Y0122533D01*
X0225221Y0122583D01*
X0225266Y0122629D01*
X0225312Y0122674D01*
X0225362Y0122715D01*
X0225414Y0122753D01*
X0225468Y0122788D01*
X0225524Y0122820D01*
X0225582Y0122848D01*
X0225642Y0122873D01*
X0225703Y0122894D01*
X0225765Y0122911D01*
X0225828Y0122925D01*
X0225891Y0122934D01*
X0225956Y0122940D01*
X0226020Y0122942D01*
X0226020Y0122941D02*
X0229220Y0122941D01*
X0229220Y0121341D01*
X0229218Y0121271D01*
X0229212Y0121202D01*
X0229202Y0121133D01*
X0229189Y0121064D01*
X0229171Y0120997D01*
X0229150Y0120930D01*
X0229125Y0120865D01*
X0229097Y0120801D01*
X0229065Y0120739D01*
X0229029Y0120679D01*
X0228991Y0120621D01*
X0228949Y0120565D01*
X0228904Y0120512D01*
X0228856Y0120461D01*
X0228805Y0120413D01*
X0228752Y0120368D01*
X0228696Y0120326D01*
X0228638Y0120288D01*
X0228578Y0120252D01*
X0228516Y0120220D01*
X0228452Y0120192D01*
X0228387Y0120167D01*
X0228320Y0120146D01*
X0228253Y0120128D01*
X0228184Y0120115D01*
X0228115Y0120105D01*
X0228046Y0120099D01*
X0227976Y0120097D01*
X0227906Y0120099D01*
X0227837Y0120105D01*
X0227768Y0120115D01*
X0227699Y0120128D01*
X0227632Y0120146D01*
X0227565Y0120167D01*
X0227500Y0120192D01*
X0227436Y0120220D01*
X0227374Y0120252D01*
X0227314Y0120288D01*
X0227256Y0120326D01*
X0227200Y0120368D01*
X0227147Y0120413D01*
X0227096Y0120461D01*
X0227048Y0120512D01*
X0227003Y0120565D01*
X0226961Y0120621D01*
X0226923Y0120679D01*
X0226887Y0120739D01*
X0226855Y0120801D01*
X0226827Y0120865D01*
X0226802Y0120930D01*
X0226781Y0120997D01*
X0226763Y0121064D01*
X0226750Y0121133D01*
X0226740Y0121202D01*
X0226734Y0121271D01*
X0226732Y0121341D01*
X0226732Y0122941D01*
X0224954Y0125154D02*
X0224954Y0127287D01*
X0222820Y0125865D02*
X0228154Y0125865D01*
X0228154Y0125864D02*
X0228218Y0125866D01*
X0228283Y0125872D01*
X0228346Y0125881D01*
X0228409Y0125895D01*
X0228471Y0125912D01*
X0228532Y0125933D01*
X0228592Y0125958D01*
X0228650Y0125986D01*
X0228706Y0126018D01*
X0228760Y0126053D01*
X0228812Y0126091D01*
X0228862Y0126132D01*
X0228908Y0126177D01*
X0228953Y0126223D01*
X0228994Y0126273D01*
X0229032Y0126325D01*
X0229067Y0126379D01*
X0229099Y0126435D01*
X0229127Y0126493D01*
X0229152Y0126553D01*
X0229173Y0126614D01*
X0229190Y0126676D01*
X0229204Y0126739D01*
X0229213Y0126802D01*
X0229219Y0126867D01*
X0229221Y0126931D01*
X0229220Y0126931D02*
X0229220Y0127287D01*
X0227798Y0129562D02*
X0226376Y0129562D01*
X0226302Y0129564D01*
X0226227Y0129570D01*
X0226154Y0129580D01*
X0226080Y0129593D01*
X0226008Y0129610D01*
X0225937Y0129632D01*
X0225866Y0129656D01*
X0225798Y0129685D01*
X0225730Y0129717D01*
X0225665Y0129753D01*
X0225602Y0129791D01*
X0225540Y0129834D01*
X0225481Y0129879D01*
X0225424Y0129927D01*
X0225370Y0129978D01*
X0225319Y0130032D01*
X0225271Y0130089D01*
X0225226Y0130148D01*
X0225183Y0130210D01*
X0225145Y0130273D01*
X0225109Y0130338D01*
X0225077Y0130406D01*
X0225048Y0130474D01*
X0225024Y0130545D01*
X0225002Y0130616D01*
X0224985Y0130688D01*
X0224972Y0130762D01*
X0224962Y0130835D01*
X0224956Y0130910D01*
X0224954Y0130984D01*
X0224956Y0131058D01*
X0224962Y0131133D01*
X0224972Y0131206D01*
X0224985Y0131280D01*
X0225002Y0131352D01*
X0225024Y0131423D01*
X0225048Y0131494D01*
X0225077Y0131562D01*
X0225109Y0131630D01*
X0225145Y0131695D01*
X0225183Y0131758D01*
X0225226Y0131820D01*
X0225271Y0131879D01*
X0225319Y0131936D01*
X0225370Y0131990D01*
X0225424Y0132041D01*
X0225481Y0132089D01*
X0225540Y0132134D01*
X0225602Y0132177D01*
X0225665Y0132215D01*
X0225730Y0132251D01*
X0225798Y0132283D01*
X0225866Y0132312D01*
X0225937Y0132336D01*
X0226008Y0132358D01*
X0226080Y0132375D01*
X0226154Y0132388D01*
X0226227Y0132398D01*
X0226302Y0132404D01*
X0226376Y0132406D01*
X0227798Y0132406D01*
X0227872Y0132404D01*
X0227947Y0132398D01*
X0228020Y0132388D01*
X0228094Y0132375D01*
X0228166Y0132358D01*
X0228237Y0132336D01*
X0228308Y0132312D01*
X0228376Y0132283D01*
X0228444Y0132251D01*
X0228509Y0132215D01*
X0228572Y0132177D01*
X0228634Y0132134D01*
X0228693Y0132089D01*
X0228750Y0132041D01*
X0228804Y0131990D01*
X0228855Y0131936D01*
X0228903Y0131879D01*
X0228948Y0131820D01*
X0228991Y0131758D01*
X0229029Y0131695D01*
X0229065Y0131630D01*
X0229097Y0131562D01*
X0229126Y0131494D01*
X0229150Y0131423D01*
X0229172Y0131352D01*
X0229189Y0131280D01*
X0229202Y0131206D01*
X0229212Y0131133D01*
X0229218Y0131058D01*
X0229220Y0130984D01*
X0229218Y0130910D01*
X0229212Y0130835D01*
X0229202Y0130762D01*
X0229189Y0130688D01*
X0229172Y0130616D01*
X0229150Y0130545D01*
X0229126Y0130474D01*
X0229097Y0130406D01*
X0229065Y0130338D01*
X0229029Y0130273D01*
X0228991Y0130210D01*
X0228948Y0130148D01*
X0228903Y0130089D01*
X0228855Y0130032D01*
X0228804Y0129978D01*
X0228750Y0129927D01*
X0228693Y0129879D01*
X0228634Y0129834D01*
X0228572Y0129791D01*
X0228509Y0129753D01*
X0228444Y0129717D01*
X0228376Y0129685D01*
X0228308Y0129656D01*
X0228237Y0129632D01*
X0228166Y0129610D01*
X0228094Y0129593D01*
X0228020Y0129580D01*
X0227947Y0129570D01*
X0227872Y0129564D01*
X0227798Y0129562D01*
X0218720Y0126743D02*
X0218720Y0126387D01*
X0218721Y0126387D02*
X0218719Y0126323D01*
X0218713Y0126258D01*
X0218704Y0126195D01*
X0218690Y0126132D01*
X0218673Y0126070D01*
X0218652Y0126009D01*
X0218627Y0125949D01*
X0218599Y0125891D01*
X0218567Y0125835D01*
X0218532Y0125781D01*
X0218494Y0125729D01*
X0218453Y0125679D01*
X0218408Y0125633D01*
X0218362Y0125588D01*
X0218312Y0125547D01*
X0218260Y0125509D01*
X0218206Y0125474D01*
X0218150Y0125442D01*
X0218092Y0125414D01*
X0218032Y0125389D01*
X0217971Y0125368D01*
X0217909Y0125351D01*
X0217846Y0125337D01*
X0217783Y0125328D01*
X0217718Y0125322D01*
X0217654Y0125320D01*
X0217654Y0125321D02*
X0212320Y0125321D01*
X0214454Y0124609D02*
X0214454Y0126743D01*
X0215876Y0122631D02*
X0217298Y0122631D01*
X0217372Y0122629D01*
X0217447Y0122623D01*
X0217520Y0122613D01*
X0217594Y0122600D01*
X0217666Y0122583D01*
X0217737Y0122561D01*
X0217808Y0122537D01*
X0217876Y0122508D01*
X0217944Y0122476D01*
X0218009Y0122440D01*
X0218072Y0122402D01*
X0218134Y0122359D01*
X0218193Y0122314D01*
X0218250Y0122266D01*
X0218304Y0122215D01*
X0218355Y0122161D01*
X0218403Y0122104D01*
X0218448Y0122045D01*
X0218491Y0121983D01*
X0218529Y0121920D01*
X0218565Y0121855D01*
X0218597Y0121787D01*
X0218626Y0121719D01*
X0218650Y0121648D01*
X0218672Y0121577D01*
X0218689Y0121505D01*
X0218702Y0121431D01*
X0218712Y0121358D01*
X0218718Y0121283D01*
X0218720Y0121209D01*
X0218718Y0121135D01*
X0218712Y0121060D01*
X0218702Y0120987D01*
X0218689Y0120913D01*
X0218672Y0120841D01*
X0218650Y0120770D01*
X0218626Y0120699D01*
X0218597Y0120631D01*
X0218565Y0120563D01*
X0218529Y0120498D01*
X0218491Y0120435D01*
X0218448Y0120373D01*
X0218403Y0120314D01*
X0218355Y0120257D01*
X0218304Y0120203D01*
X0218250Y0120152D01*
X0218193Y0120104D01*
X0218134Y0120059D01*
X0218072Y0120016D01*
X0218009Y0119978D01*
X0217944Y0119942D01*
X0217876Y0119910D01*
X0217808Y0119881D01*
X0217737Y0119857D01*
X0217666Y0119835D01*
X0217594Y0119818D01*
X0217520Y0119805D01*
X0217447Y0119795D01*
X0217372Y0119789D01*
X0217298Y0119787D01*
X0215876Y0119787D01*
X0215802Y0119789D01*
X0215727Y0119795D01*
X0215654Y0119805D01*
X0215580Y0119818D01*
X0215508Y0119835D01*
X0215437Y0119857D01*
X0215366Y0119881D01*
X0215298Y0119910D01*
X0215230Y0119942D01*
X0215165Y0119978D01*
X0215102Y0120016D01*
X0215040Y0120059D01*
X0214981Y0120104D01*
X0214924Y0120152D01*
X0214870Y0120203D01*
X0214819Y0120257D01*
X0214771Y0120314D01*
X0214726Y0120373D01*
X0214683Y0120435D01*
X0214645Y0120498D01*
X0214609Y0120563D01*
X0214577Y0120631D01*
X0214548Y0120699D01*
X0214524Y0120770D01*
X0214502Y0120841D01*
X0214485Y0120913D01*
X0214472Y0120987D01*
X0214462Y0121060D01*
X0214456Y0121135D01*
X0214454Y0121209D01*
X0214456Y0121283D01*
X0214462Y0121358D01*
X0214472Y0121431D01*
X0214485Y0121505D01*
X0214502Y0121577D01*
X0214524Y0121648D01*
X0214548Y0121719D01*
X0214577Y0121787D01*
X0214609Y0121855D01*
X0214645Y0121920D01*
X0214683Y0121983D01*
X0214726Y0122045D01*
X0214771Y0122104D01*
X0214819Y0122161D01*
X0214870Y0122215D01*
X0214924Y0122266D01*
X0214981Y0122314D01*
X0215040Y0122359D01*
X0215102Y0122402D01*
X0215165Y0122440D01*
X0215230Y0122476D01*
X0215298Y0122508D01*
X0215366Y0122537D01*
X0215437Y0122561D01*
X0215508Y0122583D01*
X0215580Y0122600D01*
X0215654Y0122613D01*
X0215727Y0122623D01*
X0215802Y0122629D01*
X0215876Y0122631D01*
X0214454Y0132095D02*
X0218720Y0133517D01*
X0214454Y0134939D01*
X0215520Y0140833D02*
X0215661Y0140831D01*
X0215801Y0140825D01*
X0215942Y0140816D01*
X0216082Y0140803D01*
X0216222Y0140786D01*
X0216361Y0140766D01*
X0216499Y0140741D01*
X0216637Y0140713D01*
X0216774Y0140682D01*
X0216911Y0140646D01*
X0217046Y0140607D01*
X0217180Y0140565D01*
X0217313Y0140519D01*
X0217445Y0140469D01*
X0217575Y0140416D01*
X0217704Y0140360D01*
X0217831Y0140300D01*
X0217832Y0140301D02*
X0217898Y0140276D01*
X0217963Y0140248D01*
X0218027Y0140216D01*
X0218088Y0140181D01*
X0218148Y0140142D01*
X0218206Y0140101D01*
X0218261Y0140056D01*
X0218313Y0140008D01*
X0218363Y0139958D01*
X0218411Y0139905D01*
X0218455Y0139849D01*
X0218496Y0139792D01*
X0218534Y0139732D01*
X0218569Y0139670D01*
X0218600Y0139606D01*
X0218628Y0139541D01*
X0218653Y0139474D01*
X0218673Y0139407D01*
X0218690Y0139338D01*
X0218704Y0139268D01*
X0218713Y0139198D01*
X0218719Y0139127D01*
X0218721Y0139056D01*
X0218719Y0138985D01*
X0218713Y0138914D01*
X0218704Y0138844D01*
X0218690Y0138774D01*
X0218673Y0138705D01*
X0218653Y0138638D01*
X0218628Y0138571D01*
X0218600Y0138506D01*
X0218569Y0138442D01*
X0218534Y0138380D01*
X0218496Y0138320D01*
X0218455Y0138262D01*
X0218411Y0138207D01*
X0218363Y0138154D01*
X0218313Y0138104D01*
X0218261Y0138056D01*
X0218206Y0138011D01*
X0218148Y0137970D01*
X0218088Y0137931D01*
X0218027Y0137896D01*
X0217963Y0137864D01*
X0217898Y0137836D01*
X0217832Y0137811D01*
X0217298Y0137633D02*
X0213743Y0140478D01*
X0213209Y0140301D02*
X0213143Y0140276D01*
X0213078Y0140248D01*
X0213014Y0140216D01*
X0212953Y0140181D01*
X0212893Y0140142D01*
X0212835Y0140101D01*
X0212780Y0140056D01*
X0212728Y0140008D01*
X0212678Y0139958D01*
X0212630Y0139905D01*
X0212586Y0139850D01*
X0212545Y0139792D01*
X0212507Y0139732D01*
X0212472Y0139670D01*
X0212441Y0139606D01*
X0212413Y0139541D01*
X0212388Y0139474D01*
X0212368Y0139407D01*
X0212351Y0139338D01*
X0212337Y0139268D01*
X0212328Y0139198D01*
X0212322Y0139127D01*
X0212320Y0139056D01*
X0212322Y0138985D01*
X0212328Y0138914D01*
X0212337Y0138844D01*
X0212351Y0138774D01*
X0212368Y0138705D01*
X0212388Y0138638D01*
X0212413Y0138571D01*
X0212441Y0138506D01*
X0212472Y0138442D01*
X0212507Y0138380D01*
X0212545Y0138320D01*
X0212586Y0138262D01*
X0212630Y0138207D01*
X0212678Y0138154D01*
X0212728Y0138104D01*
X0212780Y0138056D01*
X0212835Y0138011D01*
X0212893Y0137970D01*
X0212953Y0137931D01*
X0213014Y0137896D01*
X0213078Y0137864D01*
X0213143Y0137836D01*
X0213209Y0137811D01*
X0213209Y0140300D02*
X0213336Y0140360D01*
X0213465Y0140416D01*
X0213595Y0140469D01*
X0213727Y0140519D01*
X0213860Y0140565D01*
X0213994Y0140607D01*
X0214129Y0140646D01*
X0214266Y0140682D01*
X0214403Y0140713D01*
X0214541Y0140741D01*
X0214679Y0140766D01*
X0214818Y0140786D01*
X0214958Y0140803D01*
X0215098Y0140816D01*
X0215239Y0140825D01*
X0215379Y0140831D01*
X0215520Y0140833D01*
X0215520Y0137278D02*
X0215379Y0137280D01*
X0215239Y0137286D01*
X0215098Y0137295D01*
X0214958Y0137308D01*
X0214818Y0137325D01*
X0214679Y0137345D01*
X0214541Y0137370D01*
X0214403Y0137398D01*
X0214266Y0137429D01*
X0214129Y0137465D01*
X0213994Y0137504D01*
X0213860Y0137546D01*
X0213727Y0137592D01*
X0213595Y0137642D01*
X0213465Y0137695D01*
X0213336Y0137751D01*
X0213209Y0137811D01*
X0215520Y0137278D02*
X0215661Y0137280D01*
X0215801Y0137286D01*
X0215942Y0137295D01*
X0216082Y0137308D01*
X0216222Y0137325D01*
X0216361Y0137345D01*
X0216499Y0137370D01*
X0216637Y0137398D01*
X0216774Y0137429D01*
X0216911Y0137465D01*
X0217046Y0137504D01*
X0217180Y0137546D01*
X0217313Y0137592D01*
X0217445Y0137642D01*
X0217575Y0137695D01*
X0217704Y0137751D01*
X0217831Y0137811D01*
X0228865Y0139203D02*
X0228915Y0139348D01*
X0228961Y0139495D01*
X0229004Y0139642D01*
X0229043Y0139791D01*
X0229078Y0139941D01*
X0229110Y0140091D01*
X0229137Y0140242D01*
X0229161Y0140394D01*
X0229180Y0140546D01*
X0229196Y0140699D01*
X0229208Y0140852D01*
X0229216Y0141005D01*
X0229220Y0141159D01*
X0229221Y0141159D02*
X0229220Y0141218D01*
X0229215Y0141278D01*
X0229206Y0141336D01*
X0229194Y0141395D01*
X0229177Y0141452D01*
X0229158Y0141508D01*
X0229134Y0141563D01*
X0229107Y0141616D01*
X0229077Y0141667D01*
X0229043Y0141716D01*
X0229007Y0141763D01*
X0228967Y0141807D01*
X0228925Y0141849D01*
X0228880Y0141888D01*
X0228832Y0141924D01*
X0228783Y0141957D01*
X0228731Y0141986D01*
X0228678Y0142013D01*
X0228623Y0142035D01*
X0228566Y0142054D01*
X0228509Y0142070D01*
X0228451Y0142081D01*
X0228392Y0142089D01*
X0228332Y0142093D01*
X0228273Y0142094D01*
X0228213Y0142090D01*
X0228154Y0142083D01*
X0228096Y0142071D01*
X0228038Y0142056D01*
X0227982Y0142038D01*
X0227927Y0142015D01*
X0227873Y0141990D01*
X0227821Y0141960D01*
X0227771Y0141928D01*
X0227724Y0141892D01*
X0227678Y0141854D01*
X0227636Y0141812D01*
X0227596Y0141768D01*
X0227559Y0141722D01*
X0227525Y0141673D01*
X0227494Y0141622D01*
X0227467Y0141569D01*
X0227443Y0141514D01*
X0226732Y0139736D01*
X0226732Y0139737D02*
X0226708Y0139682D01*
X0226681Y0139629D01*
X0226650Y0139578D01*
X0226616Y0139529D01*
X0226579Y0139483D01*
X0226539Y0139439D01*
X0226497Y0139397D01*
X0226451Y0139359D01*
X0226404Y0139323D01*
X0226354Y0139291D01*
X0226302Y0139261D01*
X0226248Y0139236D01*
X0226193Y0139213D01*
X0226137Y0139195D01*
X0226079Y0139180D01*
X0226021Y0139168D01*
X0225962Y0139161D01*
X0225902Y0139157D01*
X0225843Y0139158D01*
X0225783Y0139162D01*
X0225724Y0139170D01*
X0225666Y0139181D01*
X0225609Y0139197D01*
X0225552Y0139216D01*
X0225497Y0139238D01*
X0225444Y0139265D01*
X0225392Y0139294D01*
X0225343Y0139327D01*
X0225295Y0139363D01*
X0225250Y0139402D01*
X0225208Y0139444D01*
X0225168Y0139488D01*
X0225132Y0139535D01*
X0225098Y0139584D01*
X0225068Y0139635D01*
X0225041Y0139688D01*
X0225017Y0139743D01*
X0224998Y0139799D01*
X0224981Y0139856D01*
X0224969Y0139915D01*
X0224960Y0139973D01*
X0224955Y0140033D01*
X0224954Y0140092D01*
X0224954Y0137267D02*
X0225665Y0137267D01*
X0224954Y0137267D02*
X0224954Y0135134D01*
X0229220Y0135134D01*
X0233320Y0136332D02*
X0239720Y0136332D01*
X0233320Y0132777D01*
X0239720Y0132777D01*
X0239720Y0139067D02*
X0235454Y0139067D01*
X0233676Y0139245D02*
X0233676Y0138890D01*
X0233320Y0138890D01*
X0233320Y0139245D01*
X0233676Y0139245D01*
X0236520Y0141550D02*
X0238654Y0141550D01*
X0238654Y0141549D02*
X0238718Y0141551D01*
X0238783Y0141557D01*
X0238846Y0141566D01*
X0238909Y0141580D01*
X0238971Y0141597D01*
X0239032Y0141618D01*
X0239092Y0141643D01*
X0239150Y0141671D01*
X0239206Y0141703D01*
X0239260Y0141738D01*
X0239312Y0141776D01*
X0239362Y0141817D01*
X0239408Y0141862D01*
X0239453Y0141908D01*
X0239494Y0141958D01*
X0239532Y0142010D01*
X0239567Y0142064D01*
X0239599Y0142120D01*
X0239627Y0142178D01*
X0239652Y0142238D01*
X0239673Y0142299D01*
X0239690Y0142361D01*
X0239704Y0142424D01*
X0239713Y0142487D01*
X0239719Y0142552D01*
X0239721Y0142616D01*
X0239720Y0142616D02*
X0239720Y0144038D01*
X0239720Y0146532D02*
X0233320Y0146532D01*
X0235454Y0144038D02*
X0235454Y0142616D01*
X0235453Y0142616D02*
X0235455Y0142552D01*
X0235461Y0142487D01*
X0235470Y0142424D01*
X0235484Y0142361D01*
X0235501Y0142299D01*
X0235522Y0142238D01*
X0235547Y0142178D01*
X0235575Y0142120D01*
X0235607Y0142064D01*
X0235642Y0142010D01*
X0235680Y0141958D01*
X0235721Y0141908D01*
X0235766Y0141862D01*
X0235812Y0141817D01*
X0235862Y0141776D01*
X0235914Y0141738D01*
X0235968Y0141703D01*
X0236024Y0141671D01*
X0236082Y0141643D01*
X0236142Y0141618D01*
X0236203Y0141597D01*
X0236265Y0141580D01*
X0236328Y0141566D01*
X0236391Y0141557D01*
X0236456Y0141551D01*
X0236520Y0141549D01*
X0225309Y0141692D02*
X0225262Y0141584D01*
X0225219Y0141474D01*
X0225178Y0141363D01*
X0225141Y0141251D01*
X0225107Y0141139D01*
X0225076Y0141025D01*
X0225049Y0140910D01*
X0225025Y0140794D01*
X0225005Y0140678D01*
X0224988Y0140562D01*
X0224974Y0140445D01*
X0224964Y0140327D01*
X0224957Y0140210D01*
X0224953Y0140092D01*
X0218720Y0143186D02*
X0218720Y0143541D01*
X0218365Y0143541D01*
X0218365Y0143186D01*
X0218720Y0143186D01*
X0218720Y0145893D02*
X0218720Y0149449D01*
X0218720Y0151801D02*
X0218365Y0151801D01*
X0218365Y0152157D01*
X0218720Y0152157D01*
X0218720Y0151801D01*
X0218720Y0154509D02*
X0218720Y0158065D01*
X0218720Y0156287D02*
X0212320Y0156287D01*
X0213743Y0154509D01*
X0215165Y0148916D02*
X0218720Y0145893D01*
X0213743Y0145893D02*
X0213658Y0145922D01*
X0213575Y0145955D01*
X0213494Y0145992D01*
X0213414Y0146032D01*
X0213337Y0146075D01*
X0213261Y0146122D01*
X0213187Y0146172D01*
X0213115Y0146225D01*
X0213046Y0146281D01*
X0212979Y0146340D01*
X0212915Y0146402D01*
X0212854Y0146467D01*
X0212795Y0146534D01*
X0212740Y0146604D01*
X0212687Y0146676D01*
X0212638Y0146750D01*
X0212592Y0146827D01*
X0212550Y0146905D01*
X0212510Y0146985D01*
X0212475Y0147067D01*
X0212442Y0147150D01*
X0212414Y0147234D01*
X0212389Y0147320D01*
X0212368Y0147407D01*
X0212351Y0147494D01*
X0212337Y0147582D01*
X0212328Y0147671D01*
X0212322Y0147760D01*
X0212320Y0147849D01*
X0212322Y0147928D01*
X0212328Y0148006D01*
X0212337Y0148084D01*
X0212351Y0148161D01*
X0212368Y0148238D01*
X0212389Y0148313D01*
X0212414Y0148388D01*
X0212442Y0148461D01*
X0212474Y0148533D01*
X0212509Y0148603D01*
X0212548Y0148672D01*
X0212590Y0148738D01*
X0212635Y0148802D01*
X0212683Y0148864D01*
X0212734Y0148923D01*
X0212789Y0148980D01*
X0212846Y0149035D01*
X0212905Y0149086D01*
X0212967Y0149134D01*
X0213031Y0149179D01*
X0213097Y0149221D01*
X0213166Y0149260D01*
X0213236Y0149295D01*
X0213308Y0149327D01*
X0213381Y0149355D01*
X0213456Y0149380D01*
X0213531Y0149401D01*
X0213608Y0149418D01*
X0213685Y0149432D01*
X0213763Y0149441D01*
X0213841Y0149447D01*
X0213920Y0149449D01*
X0214002Y0149447D01*
X0214084Y0149441D01*
X0214165Y0149431D01*
X0214246Y0149418D01*
X0214326Y0149400D01*
X0214405Y0149379D01*
X0214483Y0149354D01*
X0214559Y0149326D01*
X0214635Y0149293D01*
X0214708Y0149258D01*
X0214780Y0149218D01*
X0214850Y0149176D01*
X0214918Y0149130D01*
X0214983Y0149081D01*
X0215046Y0149029D01*
X0215107Y0148973D01*
X0215165Y0148916D01*
X0213743Y0161019D02*
X0213817Y0161021D01*
X0213892Y0161027D01*
X0213965Y0161037D01*
X0214039Y0161050D01*
X0214111Y0161067D01*
X0214182Y0161089D01*
X0214253Y0161113D01*
X0214321Y0161142D01*
X0214389Y0161174D01*
X0214454Y0161210D01*
X0214517Y0161248D01*
X0214579Y0161291D01*
X0214638Y0161336D01*
X0214695Y0161384D01*
X0214749Y0161435D01*
X0214800Y0161489D01*
X0214848Y0161546D01*
X0214893Y0161605D01*
X0214936Y0161667D01*
X0214974Y0161730D01*
X0215010Y0161795D01*
X0215042Y0161863D01*
X0215071Y0161931D01*
X0215095Y0162002D01*
X0215117Y0162073D01*
X0215134Y0162145D01*
X0215147Y0162219D01*
X0215157Y0162292D01*
X0215163Y0162367D01*
X0215165Y0162441D01*
X0215163Y0162515D01*
X0215157Y0162590D01*
X0215147Y0162663D01*
X0215134Y0162737D01*
X0215117Y0162809D01*
X0215095Y0162880D01*
X0215071Y0162951D01*
X0215042Y0163019D01*
X0215010Y0163087D01*
X0214974Y0163152D01*
X0214936Y0163215D01*
X0214893Y0163277D01*
X0214848Y0163336D01*
X0214800Y0163393D01*
X0214749Y0163447D01*
X0214695Y0163498D01*
X0214638Y0163546D01*
X0214579Y0163591D01*
X0214517Y0163634D01*
X0214454Y0163672D01*
X0214389Y0163708D01*
X0214321Y0163740D01*
X0214253Y0163769D01*
X0214182Y0163793D01*
X0214111Y0163815D01*
X0214039Y0163832D01*
X0213965Y0163845D01*
X0213892Y0163855D01*
X0213817Y0163861D01*
X0213743Y0163863D01*
X0213669Y0163861D01*
X0213594Y0163855D01*
X0213521Y0163845D01*
X0213447Y0163832D01*
X0213375Y0163815D01*
X0213304Y0163793D01*
X0213233Y0163769D01*
X0213165Y0163740D01*
X0213097Y0163708D01*
X0213032Y0163672D01*
X0212969Y0163634D01*
X0212907Y0163591D01*
X0212848Y0163546D01*
X0212791Y0163498D01*
X0212737Y0163447D01*
X0212686Y0163393D01*
X0212638Y0163336D01*
X0212593Y0163277D01*
X0212550Y0163215D01*
X0212512Y0163152D01*
X0212476Y0163087D01*
X0212444Y0163019D01*
X0212415Y0162951D01*
X0212391Y0162880D01*
X0212369Y0162809D01*
X0212352Y0162737D01*
X0212339Y0162663D01*
X0212329Y0162590D01*
X0212323Y0162515D01*
X0212321Y0162441D01*
X0212323Y0162367D01*
X0212329Y0162292D01*
X0212339Y0162219D01*
X0212352Y0162145D01*
X0212369Y0162073D01*
X0212391Y0162002D01*
X0212415Y0161931D01*
X0212444Y0161863D01*
X0212476Y0161795D01*
X0212512Y0161730D01*
X0212550Y0161667D01*
X0212593Y0161605D01*
X0212638Y0161546D01*
X0212686Y0161489D01*
X0212737Y0161435D01*
X0212791Y0161384D01*
X0212848Y0161336D01*
X0212907Y0161291D01*
X0212969Y0161248D01*
X0213032Y0161210D01*
X0213097Y0161174D01*
X0213165Y0161142D01*
X0213233Y0161113D01*
X0213304Y0161089D01*
X0213375Y0161067D01*
X0213447Y0161050D01*
X0213521Y0161037D01*
X0213594Y0161027D01*
X0213669Y0161021D01*
X0213743Y0161019D01*
X0216943Y0160663D02*
X0217026Y0160665D01*
X0217109Y0160671D01*
X0217192Y0160681D01*
X0217275Y0160694D01*
X0217356Y0160712D01*
X0217437Y0160733D01*
X0217516Y0160758D01*
X0217594Y0160787D01*
X0217671Y0160819D01*
X0217746Y0160855D01*
X0217820Y0160894D01*
X0217891Y0160937D01*
X0217961Y0160983D01*
X0218028Y0161033D01*
X0218093Y0161085D01*
X0218155Y0161140D01*
X0218215Y0161199D01*
X0218272Y0161260D01*
X0218326Y0161323D01*
X0218377Y0161389D01*
X0218424Y0161458D01*
X0218469Y0161528D01*
X0218510Y0161601D01*
X0218547Y0161675D01*
X0218582Y0161751D01*
X0218612Y0161829D01*
X0218639Y0161907D01*
X0218662Y0161988D01*
X0218682Y0162069D01*
X0218697Y0162151D01*
X0218709Y0162233D01*
X0218717Y0162316D01*
X0218721Y0162399D01*
X0218721Y0162483D01*
X0218717Y0162566D01*
X0218709Y0162649D01*
X0218697Y0162731D01*
X0218682Y0162813D01*
X0218662Y0162894D01*
X0218639Y0162975D01*
X0218612Y0163053D01*
X0218582Y0163131D01*
X0218547Y0163207D01*
X0218510Y0163281D01*
X0218469Y0163354D01*
X0218424Y0163424D01*
X0218377Y0163493D01*
X0218326Y0163559D01*
X0218272Y0163622D01*
X0218215Y0163683D01*
X0218155Y0163742D01*
X0218093Y0163797D01*
X0218028Y0163849D01*
X0217961Y0163899D01*
X0217891Y0163945D01*
X0217820Y0163988D01*
X0217746Y0164027D01*
X0217671Y0164063D01*
X0217594Y0164095D01*
X0217516Y0164124D01*
X0217437Y0164149D01*
X0217356Y0164170D01*
X0217275Y0164188D01*
X0217192Y0164201D01*
X0217109Y0164211D01*
X0217026Y0164217D01*
X0216943Y0164219D01*
X0216860Y0164217D01*
X0216777Y0164211D01*
X0216694Y0164201D01*
X0216611Y0164188D01*
X0216530Y0164170D01*
X0216449Y0164149D01*
X0216370Y0164124D01*
X0216292Y0164095D01*
X0216215Y0164063D01*
X0216140Y0164027D01*
X0216066Y0163988D01*
X0215995Y0163945D01*
X0215925Y0163899D01*
X0215858Y0163849D01*
X0215793Y0163797D01*
X0215731Y0163742D01*
X0215671Y0163683D01*
X0215614Y0163622D01*
X0215560Y0163559D01*
X0215509Y0163493D01*
X0215462Y0163424D01*
X0215417Y0163354D01*
X0215376Y0163281D01*
X0215339Y0163207D01*
X0215304Y0163131D01*
X0215274Y0163053D01*
X0215247Y0162975D01*
X0215224Y0162894D01*
X0215204Y0162813D01*
X0215189Y0162731D01*
X0215177Y0162649D01*
X0215169Y0162566D01*
X0215165Y0162483D01*
X0215165Y0162399D01*
X0215169Y0162316D01*
X0215177Y0162233D01*
X0215189Y0162151D01*
X0215204Y0162069D01*
X0215224Y0161988D01*
X0215247Y0161907D01*
X0215274Y0161829D01*
X0215304Y0161751D01*
X0215339Y0161675D01*
X0215376Y0161601D01*
X0215417Y0161528D01*
X0215462Y0161458D01*
X0215509Y0161389D01*
X0215560Y0161323D01*
X0215614Y0161260D01*
X0215671Y0161199D01*
X0215731Y0161140D01*
X0215793Y0161085D01*
X0215858Y0161033D01*
X0215925Y0160983D01*
X0215995Y0160937D01*
X0216066Y0160894D01*
X0216140Y0160855D01*
X0216215Y0160819D01*
X0216292Y0160787D01*
X0216370Y0160758D01*
X0216449Y0160733D01*
X0216530Y0160712D01*
X0216611Y0160694D01*
X0216694Y0160681D01*
X0216777Y0160671D01*
X0216860Y0160665D01*
X0216943Y0160663D01*
X0217298Y0166817D02*
X0217298Y0170373D01*
X0215876Y0169306D02*
X0218720Y0169306D01*
X0217298Y0166817D02*
X0212320Y0168239D01*
X0215165Y0175994D02*
X0215107Y0176051D01*
X0215046Y0176107D01*
X0214983Y0176159D01*
X0214918Y0176208D01*
X0214850Y0176254D01*
X0214780Y0176296D01*
X0214708Y0176336D01*
X0214635Y0176371D01*
X0214559Y0176404D01*
X0214483Y0176432D01*
X0214405Y0176457D01*
X0214326Y0176478D01*
X0214246Y0176496D01*
X0214165Y0176509D01*
X0214084Y0176519D01*
X0214002Y0176525D01*
X0213920Y0176527D01*
X0215165Y0175993D02*
X0218720Y0172971D01*
X0218720Y0176527D01*
X0213743Y0172971D02*
X0213658Y0173000D01*
X0213575Y0173033D01*
X0213494Y0173070D01*
X0213414Y0173110D01*
X0213337Y0173153D01*
X0213261Y0173200D01*
X0213187Y0173250D01*
X0213115Y0173303D01*
X0213046Y0173359D01*
X0212979Y0173418D01*
X0212915Y0173480D01*
X0212854Y0173545D01*
X0212795Y0173612D01*
X0212740Y0173682D01*
X0212687Y0173754D01*
X0212638Y0173828D01*
X0212592Y0173905D01*
X0212550Y0173983D01*
X0212510Y0174063D01*
X0212475Y0174145D01*
X0212442Y0174228D01*
X0212414Y0174312D01*
X0212389Y0174398D01*
X0212368Y0174485D01*
X0212351Y0174572D01*
X0212337Y0174660D01*
X0212328Y0174749D01*
X0212322Y0174838D01*
X0212320Y0174927D01*
X0212322Y0175006D01*
X0212328Y0175084D01*
X0212337Y0175162D01*
X0212351Y0175239D01*
X0212368Y0175316D01*
X0212389Y0175391D01*
X0212414Y0175466D01*
X0212442Y0175539D01*
X0212474Y0175611D01*
X0212509Y0175681D01*
X0212548Y0175750D01*
X0212590Y0175816D01*
X0212635Y0175880D01*
X0212683Y0175942D01*
X0212734Y0176001D01*
X0212789Y0176058D01*
X0212846Y0176113D01*
X0212905Y0176164D01*
X0212967Y0176212D01*
X0213031Y0176257D01*
X0213097Y0176299D01*
X0213166Y0176338D01*
X0213236Y0176373D01*
X0213308Y0176405D01*
X0213381Y0176433D01*
X0213456Y0176458D01*
X0213531Y0176479D01*
X0213608Y0176496D01*
X0213685Y0176510D01*
X0213763Y0176519D01*
X0213841Y0176525D01*
X0213920Y0176527D01*
X0213032Y0179125D02*
X0212320Y0179125D01*
X0212320Y0182681D01*
X0218720Y0180903D01*
X0235454Y0149377D02*
X0237587Y0146532D01*
X0236698Y0147777D02*
X0239720Y0149377D01*
X0235454Y0126951D02*
X0241854Y0124817D01*
X0241854Y0124106D01*
X0239720Y0125528D02*
X0235454Y0124106D01*
X0236520Y0121851D02*
X0238654Y0121851D01*
X0238654Y0121852D02*
X0238718Y0121850D01*
X0238783Y0121844D01*
X0238846Y0121835D01*
X0238909Y0121821D01*
X0238971Y0121804D01*
X0239032Y0121783D01*
X0239092Y0121758D01*
X0239150Y0121730D01*
X0239206Y0121698D01*
X0239260Y0121663D01*
X0239312Y0121625D01*
X0239362Y0121584D01*
X0239408Y0121539D01*
X0239453Y0121493D01*
X0239494Y0121443D01*
X0239532Y0121391D01*
X0239567Y0121337D01*
X0239599Y0121281D01*
X0239627Y0121223D01*
X0239652Y0121163D01*
X0239673Y0121102D01*
X0239690Y0121040D01*
X0239704Y0120977D01*
X0239713Y0120914D01*
X0239719Y0120849D01*
X0239721Y0120785D01*
X0239720Y0120785D02*
X0239720Y0119007D01*
X0233320Y0119007D01*
X0235454Y0119007D02*
X0235454Y0120785D01*
X0235453Y0120785D02*
X0235455Y0120849D01*
X0235461Y0120914D01*
X0235470Y0120977D01*
X0235484Y0121040D01*
X0235501Y0121102D01*
X0235522Y0121163D01*
X0235547Y0121223D01*
X0235575Y0121281D01*
X0235607Y0121337D01*
X0235642Y0121391D01*
X0235680Y0121443D01*
X0235721Y0121493D01*
X0235766Y0121539D01*
X0235812Y0121584D01*
X0235862Y0121625D01*
X0235914Y0121663D01*
X0235968Y0121698D01*
X0236024Y0121730D01*
X0236082Y0121758D01*
X0236142Y0121783D01*
X0236203Y0121804D01*
X0236265Y0121821D01*
X0236328Y0121835D01*
X0236391Y0121844D01*
X0236456Y0121850D01*
X0236520Y0121852D01*
X0235454Y0112768D02*
X0235454Y0110990D01*
X0235453Y0110990D02*
X0235455Y0110926D01*
X0235461Y0110861D01*
X0235470Y0110798D01*
X0235484Y0110735D01*
X0235501Y0110673D01*
X0235522Y0110612D01*
X0235547Y0110552D01*
X0235575Y0110494D01*
X0235607Y0110438D01*
X0235642Y0110384D01*
X0235680Y0110332D01*
X0235721Y0110282D01*
X0235766Y0110236D01*
X0235812Y0110191D01*
X0235862Y0110150D01*
X0235914Y0110112D01*
X0235968Y0110077D01*
X0236024Y0110045D01*
X0236082Y0110017D01*
X0236142Y0109992D01*
X0236203Y0109971D01*
X0236265Y0109954D01*
X0236328Y0109940D01*
X0236391Y0109931D01*
X0236456Y0109925D01*
X0236520Y0109923D01*
X0238654Y0109923D01*
X0238718Y0109925D01*
X0238783Y0109931D01*
X0238846Y0109940D01*
X0238909Y0109954D01*
X0238971Y0109971D01*
X0239032Y0109992D01*
X0239092Y0110017D01*
X0239150Y0110045D01*
X0239206Y0110077D01*
X0239260Y0110112D01*
X0239312Y0110150D01*
X0239362Y0110191D01*
X0239408Y0110236D01*
X0239453Y0110282D01*
X0239494Y0110332D01*
X0239532Y0110384D01*
X0239567Y0110438D01*
X0239599Y0110494D01*
X0239627Y0110552D01*
X0239652Y0110612D01*
X0239673Y0110673D01*
X0239690Y0110735D01*
X0239704Y0110798D01*
X0239713Y0110861D01*
X0239719Y0110926D01*
X0239721Y0110990D01*
X0239720Y0110990D02*
X0239720Y0112768D01*
X0233320Y0112768D01*
X0236876Y0107463D02*
X0237587Y0107463D01*
X0237587Y0104619D01*
X0236876Y0104619D02*
X0238654Y0104619D01*
X0238654Y0104618D02*
X0238718Y0104620D01*
X0238783Y0104626D01*
X0238846Y0104635D01*
X0238909Y0104649D01*
X0238971Y0104666D01*
X0239032Y0104687D01*
X0239092Y0104712D01*
X0239150Y0104740D01*
X0239206Y0104772D01*
X0239260Y0104807D01*
X0239312Y0104845D01*
X0239362Y0104886D01*
X0239408Y0104931D01*
X0239453Y0104977D01*
X0239494Y0105027D01*
X0239532Y0105079D01*
X0239567Y0105133D01*
X0239599Y0105189D01*
X0239627Y0105247D01*
X0239652Y0105307D01*
X0239673Y0105368D01*
X0239690Y0105430D01*
X0239704Y0105493D01*
X0239713Y0105556D01*
X0239719Y0105621D01*
X0239721Y0105685D01*
X0239720Y0105685D02*
X0239720Y0107463D01*
X0236876Y0107463D02*
X0236802Y0107461D01*
X0236727Y0107455D01*
X0236654Y0107445D01*
X0236580Y0107432D01*
X0236508Y0107415D01*
X0236437Y0107393D01*
X0236366Y0107369D01*
X0236298Y0107340D01*
X0236230Y0107308D01*
X0236165Y0107272D01*
X0236102Y0107234D01*
X0236040Y0107191D01*
X0235981Y0107146D01*
X0235924Y0107098D01*
X0235870Y0107047D01*
X0235819Y0106993D01*
X0235771Y0106936D01*
X0235726Y0106877D01*
X0235683Y0106815D01*
X0235645Y0106752D01*
X0235609Y0106687D01*
X0235577Y0106619D01*
X0235548Y0106551D01*
X0235524Y0106480D01*
X0235502Y0106409D01*
X0235485Y0106337D01*
X0235472Y0106263D01*
X0235462Y0106190D01*
X0235456Y0106115D01*
X0235454Y0106041D01*
X0235456Y0105967D01*
X0235462Y0105892D01*
X0235472Y0105819D01*
X0235485Y0105745D01*
X0235502Y0105673D01*
X0235524Y0105602D01*
X0235548Y0105531D01*
X0235577Y0105463D01*
X0235609Y0105395D01*
X0235645Y0105330D01*
X0235683Y0105267D01*
X0235726Y0105205D01*
X0235771Y0105146D01*
X0235819Y0105089D01*
X0235870Y0105035D01*
X0235924Y0104984D01*
X0235981Y0104936D01*
X0236040Y0104891D01*
X0236102Y0104848D01*
X0236165Y0104810D01*
X0236230Y0104774D01*
X0236298Y0104742D01*
X0236366Y0104713D01*
X0236437Y0104689D01*
X0236508Y0104667D01*
X0236580Y0104650D01*
X0236654Y0104637D01*
X0236727Y0104627D01*
X0236802Y0104621D01*
X0236876Y0104619D01*
X0218720Y0094350D02*
X0214454Y0094350D01*
M02*
