  0
SECTION
  2
HEADER
  9
$ACADVER
  1
AC1009
  9
$FILLMODE
 70
1
  9
$EXTMIN
 10
-4.7112
 20
-9.9717
 30
0.0000
  9
$EXTMAX
 10
115.4562
 20
63.4662
 30
0.0000
  0
ENDSEC
  0
SECTION
  2
TABLES
  0
TABLE
  2
LTYPE
 70
1
  0
LTYPE
  2
CONTINUOUS
 70
64
  3
Solid line
 72
65
 73
0
 40
0
  0
ENDTAB
  0
TABLE
  2
LAYER
 70
255
  0
LAYER
  2
20
 70
64
 62
30
  6
CONTINUOUS
  0
ENDTAB
  0
ENDSEC
  0
SECTION
  2
BLOCKS
  0
BLOCK
  8
0
  2
RECT
 70
64
 10
0.0000
 20
0.0000
 30
0.0000
  3
RECT
  0
SOLID
  8
0
 10
-0.5000
 20
-0.5000
 30
0.0000
 11
0.5000
 21
-0.5000
 31
0.0000
 12
-0.5000
 22
0.5000
 32
0.0000
 13
0.5000
 23
0.5000
 33
0.0000
  0
ENDBLK
  8
0
  0
BLOCK
  8
0
  2
PIE
 70
64
 10
0.0000
 20
0.0000
 30
0.0000
  3
PIE
  0
POLYLINE
  8
0
 66
1
 10
0.0000
 20
0.0000
 30
0.0000
 40
0.5000
 41
0.5000
 70
0
  0
VERTEX
  8
0
 10
0.0000
 20
-0.2500
 30
0.0000
 42
1.0000
  0
VERTEX
  8
0
 10
0.0000
 20
0.2500
 30
0.0000
 42
1.0000
  0
VERTEX
  8
0
 10
0.0000
 20
-0.2500
 30
0.0000
  0
SEQEND
  8
0
  0
ENDBLK
  8
0
  0
BLOCK
  8
0
  2
OCTAGONP
 70
64
 10
0.0000
 20
0.0000
 30
0.0000
  3
OCTAGONP
  0
POLYLINE
  8
0
 66
1
 10
0.0000
 20
0.0000
 30
0.0000
 40
0.5000
 41
0.5000
 70
0
  0
VERTEX
  8
0
 10
-0.2500
 20
-0.1036
 30
0.0000
  0
VERTEX
  8
0
 10
-0.2500
 20
0.1036
 30
0.0000
  0
VERTEX
  8
0
 10
-0.1036
 20
0.2500
 30
0.0000
  0
VERTEX
  8
0
 10
0.1036
 20
0.2500
 30
0.0000
  0
VERTEX
  8
0
 10
0.2500
 20
0.1036
 30
0.0000
  0
VERTEX
  8
0
 10
0.2500
 20
-0.1036
 30
0.0000
  0
VERTEX
  8
0
 10
0.1036
 20
-0.2500
 30
0.0000
  0
VERTEX
  8
0
 10
-0.1036
 20
-0.2500
 30
0.0000
  0
VERTEX
  8
0
 10
-0.2500
 20
-0.1036
 30
0.0000
  0
VERTEX
  8
0
 10
-0.2500
 20
0.1036
 30
0.0000
  0
SEQEND
  8
0
  0
ENDBLK
  8
0
  0
BLOCK
  8
0
  2
SQUAREP
 70
64
 10
0.0000
 20
0.0000
 30
0.0000
  3
SQUAREP
  0
SOLID
  8
0
 10
-0.5000
 20
-0.5000
 30
0.0000
 11
0.5000
 21
-0.5000
 31
0.0000
 12
-0.5000
 22
0.5000
 32
0.0000
 13
0.5000
 23
0.5000
 33
0.0000
  0
ENDBLK
  8
0
  0
BLOCK
  8
0
  2
ROUNDP
 70
64
 10
0.0000
 20
0.0000
 30
0.0000
  3
ROUNDP
  0
POLYLINE
  8
0
 66
1
 10
0.0000
 20
0.0000
 30
0.0000
 40
0.5000
 41
0.5000
 70
0
  0
VERTEX
  8
0
 10
0.0000
 20
-0.2500
 30
0.0000
 42
1.0000
  0
VERTEX
  8
0
 10
0.0000
 20
0.2500
 30
0.0000
 42
1.0000
  0
VERTEX
  8
0
 10
0.0000
 20
-0.2500
 30
0.0000
  0
SEQEND
  8
0
  0
ENDBLK
  8
0
  0
BLOCK
  8
0
  2
ANNULUSP
 70
64
 10
0.0000
 20
0.0000
 30
0.0000
  3
ANNULUSP
  0
POLYLINE
  8
0
 66
1
 10
0.0000
 20
0.0000
 30
0.0000
 40
0.5000
 41
0.5000
 70
0
  0
VERTEX
  8
0
 10
0.0000
 20
-0.2500
 30
0.0000
 42
1.0000
  0
VERTEX
  8
0
 10
0.0000
 20
0.2500
 30
0.0000
 42
1.0000
  0
VERTEX
  8
0
 10
0.0000
 20
-0.2500
 30
0.0000
  0
SEQEND
  8
0
  0
ENDBLK
  8
0
  0
BLOCK
  8
0
  2
THERMALP
 70
64
 10
0.0000
 20
0.0000
 30
0.0000
  3
THERMALP
  0
POLYLINE
  8
0
 66
1
 10
0.0000
 20
0.0000
 30
0.0000
 40
0.1000
 41
0.1000
 70
0
  0
VERTEX
  8
0
 10
-0.2379
 20
0.4500
 30
0.0000
  0
VERTEX
  8
0
 10
0.2379
 20
0.4500
 30
0.0000
  0
SEQEND
  8
0
  0
POLYLINE
  8
0
 66
1
 10
0.0000
 20
0.0000
 30
0.0000
 40
0.0500
 41
0.0500
 70
0
  0
VERTEX
  8
0
 10
0.2379
 20
0.4250
 30
0.0000
 42
1.0000
  0
VERTEX
  8
0
 10
0.2379
 20
0.4750
 30
0.0000
  0
SEQEND
  8
0
  0
POLYLINE
  8
0
 66
1
 10
0.0000
 20
0.0000
 30
0.0000
 40
0.0500
 41
0.0500
 70
0
  0
VERTEX
  8
0
 10
-0.2379
 20
0.4750
 30
0.0000
 42
1.0000
  0
VERTEX
  8
0
 10
-0.2379
 20
0.4250
 30
0.0000
  0
SEQEND
  8
0
  0
POLYLINE
  8
0
 66
1
 10
0.0000
 20
0.0000
 30
0.0000
 40
0.1000
 41
0.1000
 70
0
  0
VERTEX
  8
0
 10
0.4500
 20
0.2379
 30
0.0000
  0
VERTEX
  8
0
 10
0.4500
 20
-0.2379
 30
0.0000
  0
SEQEND
  8
0
  0
POLYLINE
  8
0
 66
1
 10
0.0000
 20
0.0000
 30
0.0000
 40
0.0500
 41
0.0500
 70
0
  0
VERTEX
  8
0
 10
0.4250
 20
-0.2379
 30
0.0000
 42
1.0000
  0
VERTEX
  8
0
 10
0.4750
 20
-0.2379
 30
0.0000
  0
SEQEND
  8
0
  0
POLYLINE
  8
0
 66
1
 10
0.0000
 20
0.0000
 30
0.0000
 40
0.0500
 41
0.0500
 70
0
  0
VERTEX
  8
0
 10
0.4750
 20
0.2379
 30
0.0000
 42
1.0000
  0
VERTEX
  8
0
 10
0.4250
 20
0.2379
 30
0.0000
  0
SEQEND
  8
0
  0
POLYLINE
  8
0
 66
1
 10
0.0000
 20
0.0000
 30
0.0000
 40
0.1000
 41
0.1000
 70
0
  0
VERTEX
  8
0
 10
0.2379
 20
-0.4500
 30
0.0000
  0
VERTEX
  8
0
 10
-0.2379
 20
-0.4500
 30
0.0000
  0
SEQEND
  8
0
  0
POLYLINE
  8
0
 66
1
 10
0.0000
 20
0.0000
 30
0.0000
 40
0.0500
 41
0.0500
 70
0
  0
VERTEX
  8
0
 10
-0.2379
 20
-0.4250
 30
0.0000
 42
1.0000
  0
VERTEX
  8
0
 10
-0.2379
 20
-0.4750
 30
0.0000
  0
SEQEND
  8
0
  0
POLYLINE
  8
0
 66
1
 10
0.0000
 20
0.0000
 30
0.0000
 40
0.0500
 41
0.0500
 70
0
  0
VERTEX
  8
0
 10
0.2379
 20
-0.4750
 30
0.0000
 42
1.0000
  0
VERTEX
  8
0
 10
0.2379
 20
-0.4250
 30
0.0000
  0
SEQEND
  8
0
  0
POLYLINE
  8
0
 66
1
 10
0.0000
 20
0.0000
 30
0.0000
 40
0.1000
 41
0.1000
 70
0
  0
VERTEX
  8
0
 10
-0.4500
 20
-0.2379
 30
0.0000
  0
VERTEX
  8
0
 10
-0.4500
 20
0.2379
 30
0.0000
  0
SEQEND
  8
0
  0
POLYLINE
  8
0
 66
1
 10
0.0000
 20
0.0000
 30
0.0000
 40
0.0500
 41
0.0500
 70
0
  0
VERTEX
  8
0
 10
-0.4250
 20
0.2379
 30
0.0000
 42
1.0000
  0
VERTEX
  8
0
 10
-0.4750
 20
0.2379
 30
0.0000
  0
SEQEND
  8
0
  0
POLYLINE
  8
0
 66
1
 10
0.0000
 20
0.0000
 30
0.0000
 40
0.0500
 41
0.0500
 70
0
  0
VERTEX
  8
0
 10
-0.4750
 20
-0.2379
 30
0.0000
 42
1.0000
  0
VERTEX
  8
0
 10
-0.4250
 20
-0.2379
 30
0.0000
  0
SEQEND
  8
0
  0
ENDBLK
  8
0
  0
BLOCK
  8
0
  2
OCTAGONV
 70
64
 10
0.0000
 20
0.0000
 30
0.0000
  3
OCTAGONV
  0
POLYLINE
  8
0
 66
1
 10
0.0000
 20
0.0000
 30
0.0000
 40
0.5000
 41
0.5000
 70
0
  0
VERTEX
  8
0
 10
-0.2500
 20
-0.1036
 30
0.0000
  0
VERTEX
  8
0
 10
-0.2500
 20
0.1036
 30
0.0000
  0
VERTEX
  8
0
 10
-0.1036
 20
0.2500
 30
0.0000
  0
VERTEX
  8
0
 10
0.1036
 20
0.2500
 30
0.0000
  0
VERTEX
  8
0
 10
0.2500
 20
0.1036
 30
0.0000
  0
VERTEX
  8
0
 10
0.2500
 20
-0.1036
 30
0.0000
  0
VERTEX
  8
0
 10
0.1036
 20
-0.2500
 30
0.0000
  0
VERTEX
  8
0
 10
-0.1036
 20
-0.2500
 30
0.0000
  0
VERTEX
  8
0
 10
-0.2500
 20
-0.1036
 30
0.0000
  0
VERTEX
  8
0
 10
-0.2500
 20
0.1036
 30
0.0000
  0
SEQEND
  8
0
  0
ENDBLK
  8
0
  0
BLOCK
  8
0
  2
SQUAREV
 70
64
 10
0.0000
 20
0.0000
 30
0.0000
  3
SQUAREV
  0
SOLID
  8
0
 10
-0.5000
 20
-0.5000
 30
0.0000
 11
0.5000
 21
-0.5000
 31
0.0000
 12
-0.5000
 22
0.5000
 32
0.0000
 13
0.5000
 23
0.5000
 33
0.0000
  0
ENDBLK
  8
0
  0
BLOCK
  8
0
  2
ROUNDV
 70
64
 10
0.0000
 20
0.0000
 30
0.0000
  3
ROUNDV
  0
POLYLINE
  8
0
 66
1
 10
0.0000
 20
0.0000
 30
0.0000
 40
0.5000
 41
0.5000
 70
0
  0
VERTEX
  8
0
 10
0.0000
 20
-0.2500
 30
0.0000
 42
1.0000
  0
VERTEX
  8
0
 10
0.0000
 20
0.2500
 30
0.0000
 42
1.0000
  0
VERTEX
  8
0
 10
0.0000
 20
-0.2500
 30
0.0000
  0
SEQEND
  8
0
  0
ENDBLK
  8
0
  0
BLOCK
  8
0
  2
ANNULUSV
 70
64
 10
0.0000
 20
0.0000
 30
0.0000
  3
ANNULUSV
  0
POLYLINE
  8
0
 66
1
 10
0.0000
 20
0.0000
 30
0.0000
 40
0.5000
 41
0.5000
 70
0
  0
VERTEX
  8
0
 10
0.0000
 20
-0.2500
 30
0.0000
 42
1.0000
  0
VERTEX
  8
0
 10
0.0000
 20
0.2500
 30
0.0000
 42
1.0000
  0
VERTEX
  8
0
 10
0.0000
 20
-0.2500
 30
0.0000
  0
SEQEND
  8
0
  0
ENDBLK
  8
0
  0
BLOCK
  8
0
  2
THERMALV
 70
64
 10
0.0000
 20
0.0000
 30
0.0000
  3
THERMALV
  0
POLYLINE
  8
0
 66
1
 10
0.0000
 20
0.0000
 30
0.0000
 40
0.1000
 41
0.1000
 70
0
  0
VERTEX
  8
0
 10
-0.2379
 20
0.4500
 30
0.0000
  0
VERTEX
  8
0
 10
0.2379
 20
0.4500
 30
0.0000
  0
SEQEND
  8
0
  0
POLYLINE
  8
0
 66
1
 10
0.0000
 20
0.0000
 30
0.0000
 40
0.0500
 41
0.0500
 70
0
  0
VERTEX
  8
0
 10
0.2379
 20
0.4250
 30
0.0000
 42
1.0000
  0
VERTEX
  8
0
 10
0.2379
 20
0.4750
 30
0.0000
  0
SEQEND
  8
0
  0
POLYLINE
  8
0
 66
1
 10
0.0000
 20
0.0000
 30
0.0000
 40
0.0500
 41
0.0500
 70
0
  0
VERTEX
  8
0
 10
-0.2379
 20
0.4750
 30
0.0000
 42
1.0000
  0
VERTEX
  8
0
 10
-0.2379
 20
0.4250
 30
0.0000
  0
SEQEND
  8
0
  0
POLYLINE
  8
0
 66
1
 10
0.0000
 20
0.0000
 30
0.0000
 40
0.1000
 41
0.1000
 70
0
  0
VERTEX
  8
0
 10
0.4500
 20
0.2379
 30
0.0000
  0
VERTEX
  8
0
 10
0.4500
 20
-0.2379
 30
0.0000
  0
SEQEND
  8
0
  0
POLYLINE
  8
0
 66
1
 10
0.0000
 20
0.0000
 30
0.0000
 40
0.0500
 41
0.0500
 70
0
  0
VERTEX
  8
0
 10
0.4250
 20
-0.2379
 30
0.0000
 42
1.0000
  0
VERTEX
  8
0
 10
0.4750
 20
-0.2379
 30
0.0000
  0
SEQEND
  8
0
  0
POLYLINE
  8
0
 66
1
 10
0.0000
 20
0.0000
 30
0.0000
 40
0.0500
 41
0.0500
 70
0
  0
VERTEX
  8
0
 10
0.4750
 20
0.2379
 30
0.0000
 42
1.0000
  0
VERTEX
  8
0
 10
0.4250
 20
0.2379
 30
0.0000
  0
SEQEND
  8
0
  0
POLYLINE
  8
0
 66
1
 10
0.0000
 20
0.0000
 30
0.0000
 40
0.1000
 41
0.1000
 70
0
  0
VERTEX
  8
0
 10
0.2379
 20
-0.4500
 30
0.0000
  0
VERTEX
  8
0
 10
-0.2379
 20
-0.4500
 30
0.0000
  0
SEQEND
  8
0
  0
POLYLINE
  8
0
 66
1
 10
0.0000
 20
0.0000
 30
0.0000
 40
0.0500
 41
0.0500
 70
0
  0
VERTEX
  8
0
 10
-0.2379
 20
-0.4250
 30
0.0000
 42
1.0000
  0
VERTEX
  8
0
 10
-0.2379
 20
-0.4750
 30
0.0000
  0
SEQEND
  8
0
  0
POLYLINE
  8
0
 66
1
 10
0.0000
 20
0.0000
 30
0.0000
 40
0.0500
 41
0.0500
 70
0
  0
VERTEX
  8
0
 10
0.2379
 20
-0.4750
 30
0.0000
 42
1.0000
  0
VERTEX
  8
0
 10
0.2379
 20
-0.4250
 30
0.0000
  0
SEQEND
  8
0
  0
POLYLINE
  8
0
 66
1
 10
0.0000
 20
0.0000
 30
0.0000
 40
0.1000
 41
0.1000
 70
0
  0
VERTEX
  8
0
 10
-0.4500
 20
-0.2379
 30
0.0000
  0
VERTEX
  8
0
 10
-0.4500
 20
0.2379
 30
0.0000
  0
SEQEND
  8
0
  0
POLYLINE
  8
0
 66
1
 10
0.0000
 20
0.0000
 30
0.0000
 40
0.0500
 41
0.0500
 70
0
  0
VERTEX
  8
0
 10
-0.4250
 20
0.2379
 30
0.0000
 42
1.0000
  0
VERTEX
  8
0
 10
-0.4750
 20
0.2379
 30
0.0000
  0
SEQEND
  8
0
  0
POLYLINE
  8
0
 66
1
 10
0.0000
 20
0.0000
 30
0.0000
 40
0.0500
 41
0.0500
 70
0
  0
VERTEX
  8
0
 10
-0.4750
 20
-0.2379
 30
0.0000
 42
1.0000
  0
VERTEX
  8
0
 10
-0.4250
 20
-0.2379
 30
0.0000
  0
SEQEND
  8
0
  0
ENDBLK
  8
0
  0
BLOCK
  8
0
  2
LONGP100
 70
64
 10
0.0000
 20
0.0000
 30
0.0000
  3
LONGP100
  0
POLYLINE
  8
0
 66
1
 10
0.0000
 20
0.0000
 30
0.0000
 40
1.0000
 41
1.0000
 70
0
  0
VERTEX
  8
0
 10
-0.5000
 20
0.0000
 30
0.0000
  0
VERTEX
  8
0
 10
0.5000
 20
0.0000
 30
0.0000
  0
SEQEND
  8
0
  0
POLYLINE
  8
0
 66
1
 10
0.0000
 20
0.0000
 30
0.0000
 40
0.5000
 41
0.5000
 70
0
  0
VERTEX
  8
0
 10
0.5000
 20
-0.2500
 30
0.0000
 42
1.0000
  0
VERTEX
  8
0
 10
0.5000
 20
0.2500
 30
0.0000
  0
SEQEND
  8
0
  0
POLYLINE
  8
0
 66
1
 10
0.0000
 20
0.0000
 30
0.0000
 40
0.5000
 41
0.5000
 70
0
  0
VERTEX
  8
0
 10
-0.5000
 20
0.2500
 30
0.0000
 42
1.0000
  0
VERTEX
  8
0
 10
-0.5000
 20
-0.2500
 30
0.0000
  0
SEQEND
  8
0
  0
ENDBLK
  8
0
  0
ENDSEC
  0
SECTION
  2
ENTITIES
  0
POLYLINE
  8
20
 66
1
 10
0.0000
 20
0.0000
 30
0.0000
 40
0.0010
 41
0.0010
 70
0
  0
VERTEX
  8
20
 10
24.1946
 20
13.0569
 30
0.0000
  0
VERTEX
  8
20
 10
34.1886
 20
3.3075
 30
0.0000
  0
SEQEND
  8
0
  0
POLYLINE
  8
20
 66
1
 10
0.0000
 20
0.0000
 30
0.0000
 40
0.0005
 41
0.0005
 70
0
  0
VERTEX
  8
20
 10
34.1884
 20
3.3073
 30
0.0000
 42
1.0000
  0
VERTEX
  8
20
 10
34.1888
 20
3.3077
 30
0.0000
  0
SEQEND
  8
0
  0
POLYLINE
  8
20
 66
1
 10
0.0000
 20
0.0000
 30
0.0000
 40
0.0005
 41
0.0005
 70
0
  0
VERTEX
  8
20
 10
24.1948
 20
13.0571
 30
0.0000
 42
1.0000
  0
VERTEX
  8
20
 10
24.1944
 20
13.0567
 30
0.0000
  0
SEQEND
  8
0
  0
POLYLINE
  8
20
 66
1
 10
0.0000
 20
0.0000
 30
0.0000
 40
0.0010
 41
0.0010
 70
0
  0
VERTEX
  8
20
 10
34.1884
 20
3.3073
 30
0.0000
 42
1.0000
  0
VERTEX
  8
20
 10
34.1888
 20
3.3076
 30
0.0000
  0
SEQEND
  8
0
  0
POLYLINE
  8
20
 66
1
 10
0.0000
 20
0.0000
 30
0.0000
 40
0.0005
 41
0.0005
 70
0
  0
VERTEX
  8
20
 10
34.1886
 20
3.3075
 30
0.0000
 42
1.0000
  0
VERTEX
  8
20
 10
34.1882
 20
3.3072
 30
0.0000
  0
SEQEND
  8
0
  0
POLYLINE
  8
20
 66
1
 10
0.0000
 20
0.0000
 30
0.0000
 40
0.0005
 41
0.0005
 70
0
  0
VERTEX
  8
20
 10
34.1890
 20
3.3078
 30
0.0000
 42
1.0000
  0
VERTEX
  8
20
 10
34.1886
 20
3.3075
 30
0.0000
  0
SEQEND
  8
0
  0
POLYLINE
  8
20
 66
1
 10
0.0000
 20
0.0000
 30
0.0000
 40
0.0010
 41
0.0010
 70
0
  0
VERTEX
  8
20
 10
24.1948
 20
13.0570
 30
0.0000
 42
1.0000
  0
VERTEX
  8
20
 10
24.1944
 20
13.0567
 30
0.0000
  0
SEQEND
  8
0
  0
POLYLINE
  8
20
 66
1
 10
0.0000
 20
0.0000
 30
0.0000
 40
0.0005
 41
0.0005
 70
0
  0
VERTEX
  8
20
 10
24.1946
 20
13.0569
 30
0.0000
 42
1.0000
  0
VERTEX
  8
20
 10
24.1950
 20
13.0572
 30
0.0000
  0
SEQEND
  8
0
  0
POLYLINE
  8
20
 66
1
 10
0.0000
 20
0.0000
 30
0.0000
 40
0.0005
 41
0.0005
 70
0
  0
VERTEX
  8
20
 10
24.1942
 20
13.0566
 30
0.0000
 42
1.0000
  0
VERTEX
  8
20
 10
24.1946
 20
13.0569
 30
0.0000
  0
SEQEND
  8
0
  0
POLYLINE
  8
20
 66
1
 10
0.0000
 20
0.0000
 30
0.0000
 40
0.0010
 41
0.0010
 70
0
  0
VERTEX
  8
20
 10
34.1886
 20
3.3075
 30
0.0000
 42
0.2400
  0
VERTEX
  8
20
 10
40.9469
 20
0.0000
 30
0.0000
  0
SEQEND
  8
0
  0
POLYLINE
  8
20
 66
1
 10
0.0000
 20
0.0000
 30
0.0000
 40
0.0005
 41
0.0005
 70
0
  0
VERTEX
  8
20
 10
34.1888
 20
3.3077
 30
0.0000
 42
1.0000
  0
VERTEX
  8
20
 10
34.1884
 20
3.3073
 30
0.0000
  0
SEQEND
  8
0
  0
POLYLINE
  8
20
 66
1
 10
0.0000
 20
0.0000
 30
0.0000
 40
0.0005
 41
0.0005
 70
0
  0
VERTEX
  8
20
 10
40.9469
 20
-0.0002
 30
0.0000
 42
1.0000
  0
VERTEX
  8
20
 10
40.9469
 20
0.0002
 30
0.0000
  0
SEQEND
  8
0
  0
POLYLINE
  8
20
 66
1
 10
0.0000
 20
0.0000
 30
0.0000
 40
0.0010
 41
0.0010
 70
0
  0
VERTEX
  8
20
 10
34.1888
 20
3.3076
 30
0.0000
 42
1.0000
  0
VERTEX
  8
20
 10
34.1884
 20
3.3073
 30
0.0000
  0
SEQEND
  8
0
  0
POLYLINE
  8
20
 66
1
 10
0.0000
 20
0.0000
 30
0.0000
 40
0.0005
 41
0.0005
 70
0
  0
VERTEX
  8
20
 10
34.1886
 20
3.3075
 30
0.0000
 42
1.0000
  0
VERTEX
  8
20
 10
34.1890
 20
3.3078
 30
0.0000
  0
SEQEND
  8
0
  0
POLYLINE
  8
20
 66
1
 10
0.0000
 20
0.0000
 30
0.0000
 40
0.0005
 41
0.0005
 70
0
  0
VERTEX
  8
20
 10
34.1882
 20
3.3072
 30
0.0000
 42
1.0000
  0
VERTEX
  8
20
 10
34.1886
 20
3.3075
 30
0.0000
  0
SEQEND
  8
0
  0
POLYLINE
  8
20
 66
1
 10
0.0000
 20
0.0000
 30
0.0000
 40
0.0010
 41
0.0010
 70
0
  0
VERTEX
  8
20
 10
40.9469
 20
-0.1354
 30
0.0000
 42
1.0000
  0
VERTEX
  8
20
 10
40.9469
 20
-0.1349
 30
0.0000
  0
SEQEND
  8
0
  0
POLYLINE
  8
20
 66
1
 10
0.0000
 20
0.0000
 30
0.0000
 40
0.0005
 41
0.0005
 70
0
  0
VERTEX
  8
20
 10
40.9469
 20
-0.1352
 30
0.0000
 42
1.0000
  0
VERTEX
  8
20
 10
40.9469
 20
-0.1357
 30
0.0000
  0
SEQEND
  8
0
  0
POLYLINE
  8
20
 66
1
 10
0.0000
 20
0.0000
 30
0.0000
 40
0.0005
 41
0.0005
 70
0
  0
VERTEX
  8
20
 10
40.9469
 20
-0.1347
 30
0.0000
 42
1.0000
  0
VERTEX
  8
20
 10
40.9469
 20
-0.1352
 30
0.0000
  0
SEQEND
  8
0
  0
POLYLINE
  8
20
 66
1
 10
0.0000
 20
0.0000
 30
0.0000
 40
0.0010
 41
0.0010
 70
0
  0
VERTEX
  8
20
 10
40.9469
 20
0.0000
 30
0.0000
  0
VERTEX
  8
20
 10
65.3591
 20
0.0000
 30
0.0000
  0
SEQEND
  8
0
  0
POLYLINE
  8
20
 66
1
 10
0.0000
 20
0.0000
 30
0.0000
 40
0.0005
 41
0.0005
 70
0
  0
VERTEX
  8
20
 10
65.3591
 20
-0.0003
 30
0.0000
 42
1.0000
  0
VERTEX
  8
20
 10
65.3591
 20
0.0003
 30
0.0000
  0
SEQEND
  8
0
  0
POLYLINE
  8
20
 66
1
 10
0.0000
 20
0.0000
 30
0.0000
 40
0.0005
 41
0.0005
 70
0
  0
VERTEX
  8
20
 10
40.9469
 20
0.0003
 30
0.0000
 42
1.0000
  0
VERTEX
  8
20
 10
40.9469
 20
-0.0003
 30
0.0000
  0
SEQEND
  8
0
  0
POLYLINE
  8
20
 66
1
 10
0.0000
 20
0.0000
 30
0.0000
 40
0.0010
 41
0.0010
 70
0
  0
VERTEX
  8
20
 10
65.3591
 20
-0.1354
 30
0.0000
 42
1.0000
  0
VERTEX
  8
20
 10
65.3591
 20
-0.1349
 30
0.0000
  0
SEQEND
  8
0
  0
POLYLINE
  8
20
 66
1
 10
0.0000
 20
0.0000
 30
0.0000
 40
0.0005
 41
0.0005
 70
0
  0
VERTEX
  8
20
 10
65.3591
 20
-0.1352
 30
0.0000
 42
1.0000
  0
VERTEX
  8
20
 10
65.3591
 20
-0.1357
 30
0.0000
  0
SEQEND
  8
0
  0
POLYLINE
  8
20
 66
1
 10
0.0000
 20
0.0000
 30
0.0000
 40
0.0005
 41
0.0005
 70
0
  0
VERTEX
  8
20
 10
65.3591
 20
-0.1347
 30
0.0000
 42
1.0000
  0
VERTEX
  8
20
 10
65.3591
 20
-0.1352
 30
0.0000
  0
SEQEND
  8
0
  0
POLYLINE
  8
20
 66
1
 10
0.0000
 20
0.0000
 30
0.0000
 40
0.0010
 41
0.0010
 70
0
  0
VERTEX
  8
20
 10
40.9469
 20
-0.1349
 30
0.0000
 42
1.0000
  0
VERTEX
  8
20
 10
40.9469
 20
-0.1354
 30
0.0000
  0
SEQEND
  8
0
  0
POLYLINE
  8
20
 66
1
 10
0.0000
 20
0.0000
 30
0.0000
 40
0.0005
 41
0.0005
 70
0
  0
VERTEX
  8
20
 10
40.9469
 20
-0.1352
 30
0.0000
 42
1.0000
  0
VERTEX
  8
20
 10
40.9469
 20
-0.1347
 30
0.0000
  0
SEQEND
  8
0
  0
POLYLINE
  8
20
 66
1
 10
0.0000
 20
0.0000
 30
0.0000
 40
0.0005
 41
0.0005
 70
0
  0
VERTEX
  8
20
 10
40.9469
 20
-0.1357
 30
0.0000
 42
1.0000
  0
VERTEX
  8
20
 10
40.9469
 20
-0.1352
 30
0.0000
  0
SEQEND
  8
0
  0
POLYLINE
  8
20
 66
1
 10
0.0000
 20
0.0000
 30
0.0000
 40
0.0010
 41
0.0010
 70
0
  0
VERTEX
  8
20
 10
65.3591
 20
0.0000
 30
0.0000
 42
0.2386
  0
VERTEX
  8
20
 10
72.0694
 20
3.2595
 30
0.0000
  0
SEQEND
  8
0
  0
POLYLINE
  8
20
 66
1
 10
0.0000
 20
0.0000
 30
0.0000
 40
0.0005
 41
0.0005
 70
0
  0
VERTEX
  8
20
 10
65.3591
 20
0.0002
 30
0.0000
 42
1.0000
  0
VERTEX
  8
20
 10
65.3591
 20
-0.0002
 30
0.0000
  0
SEQEND
  8
0
  0
POLYLINE
  8
20
 66
1
 10
0.0000
 20
0.0000
 30
0.0000
 40
0.0005
 41
0.0005
 70
0
  0
VERTEX
  8
20
 10
72.0696
 20
3.2593
 30
0.0000
 42
1.0000
  0
VERTEX
  8
20
 10
72.0692
 20
3.2597
 30
0.0000
  0
SEQEND
  8
0
  0
POLYLINE
  8
20
 66
1
 10
0.0000
 20
0.0000
 30
0.0000
 40
0.0010
 41
0.0010
 70
0
  0
VERTEX
  8
20
 10
65.3591
 20
-0.1349
 30
0.0000
 42
1.0000
  0
VERTEX
  8
20
 10
65.3591
 20
-0.1354
 30
0.0000
  0
SEQEND
  8
0
  0
POLYLINE
  8
20
 66
1
 10
0.0000
 20
0.0000
 30
0.0000
 40
0.0005
 41
0.0005
 70
0
  0
VERTEX
  8
20
 10
65.3591
 20
-0.1352
 30
0.0000
 42
1.0000
  0
VERTEX
  8
20
 10
65.3591
 20
-0.1347
 30
0.0000
  0
SEQEND
  8
0
  0
POLYLINE
  8
20
 66
1
 10
0.0000
 20
0.0000
 30
0.0000
 40
0.0005
 41
0.0005
 70
0
  0
VERTEX
  8
20
 10
65.3591
 20
-0.1357
 30
0.0000
 42
1.0000
  0
VERTEX
  8
20
 10
65.3591
 20
-0.1352
 30
0.0000
  0
SEQEND
  8
0
  0
POLYLINE
  8
20
 66
1
 10
0.0000
 20
0.0000
 30
0.0000
 40
0.0010
 41
0.0010
 70
0
  0
VERTEX
  8
20
 10
72.0696
 20
3.2594
 30
0.0000
 42
1.0000
  0
VERTEX
  8
20
 10
72.0692
 20
3.2597
 30
0.0000
  0
SEQEND
  8
0
  0
POLYLINE
  8
20
 66
1
 10
0.0000
 20
0.0000
 30
0.0000
 40
0.0005
 41
0.0005
 70
0
  0
VERTEX
  8
20
 10
72.0694
 20
3.2596
 30
0.0000
 42
1.0000
  0
VERTEX
  8
20
 10
72.0698
 20
3.2593
 30
0.0000
  0
SEQEND
  8
0
  0
POLYLINE
  8
20
 66
1
 10
0.0000
 20
0.0000
 30
0.0000
 40
0.0005
 41
0.0005
 70
0
  0
VERTEX
  8
20
 10
72.0690
 20
3.2599
 30
0.0000
 42
1.0000
  0
VERTEX
  8
20
 10
72.0694
 20
3.2595
 30
0.0000
  0
SEQEND
  8
0
  0
POLYLINE
  8
20
 66
1
 10
0.0000
 20
0.0000
 30
0.0000
 40
0.0010
 41
0.0010
 70
0
  0
VERTEX
  8
20
 10
72.0694
 20
3.2595
 30
0.0000
  0
VERTEX
  8
20
 10
82.3828
 20
13.2836
 30
0.0000
  0
SEQEND
  8
0
  0
POLYLINE
  8
20
 66
1
 10
0.0000
 20
0.0000
 30
0.0000
 40
0.0005
 41
0.0005
 70
0
  0
VERTEX
  8
20
 10
82.3830
 20
13.2834
 30
0.0000
 42
1.0000
  0
VERTEX
  8
20
 10
82.3826
 20
13.2838
 30
0.0000
  0
SEQEND
  8
0
  0
POLYLINE
  8
20
 66
1
 10
0.0000
 20
0.0000
 30
0.0000
 40
0.0005
 41
0.0005
 70
0
  0
VERTEX
  8
20
 10
72.0692
 20
3.2597
 30
0.0000
 42
1.0000
  0
VERTEX
  8
20
 10
72.0696
 20
3.2593
 30
0.0000
  0
SEQEND
  8
0
  0
POLYLINE
  8
20
 66
1
 10
0.0000
 20
0.0000
 30
0.0000
 40
0.0010
 41
0.0010
 70
0
  0
VERTEX
  8
20
 10
82.3830
 20
13.2835
 30
0.0000
 42
1.0000
  0
VERTEX
  8
20
 10
82.3826
 20
13.2838
 30
0.0000
  0
SEQEND
  8
0
  0
POLYLINE
  8
20
 66
1
 10
0.0000
 20
0.0000
 30
0.0000
 40
0.0005
 41
0.0005
 70
0
  0
VERTEX
  8
20
 10
82.3828
 20
13.2836
 30
0.0000
 42
1.0000
  0
VERTEX
  8
20
 10
82.3832
 20
13.2834
 30
0.0000
  0
SEQEND
  8
0
  0
POLYLINE
  8
20
 66
1
 10
0.0000
 20
0.0000
 30
0.0000
 40
0.0005
 41
0.0005
 70
0
  0
VERTEX
  8
20
 10
82.3824
 20
13.2840
 30
0.0000
 42
1.0000
  0
VERTEX
  8
20
 10
82.3828
 20
13.2837
 30
0.0000
  0
SEQEND
  8
0
  0
POLYLINE
  8
20
 66
1
 10
0.0000
 20
0.0000
 30
0.0000
 40
0.0010
 41
0.0010
 70
0
  0
VERTEX
  8
20
 10
72.0692
 20
3.2597
 30
0.0000
 42
1.0000
  0
VERTEX
  8
20
 10
72.0696
 20
3.2594
 30
0.0000
  0
SEQEND
  8
0
  0
POLYLINE
  8
20
 66
1
 10
0.0000
 20
0.0000
 30
0.0000
 40
0.0005
 41
0.0005
 70
0
  0
VERTEX
  8
20
 10
72.0694
 20
3.2595
 30
0.0000
 42
1.0000
  0
VERTEX
  8
20
 10
72.0690
 20
3.2599
 30
0.0000
  0
SEQEND
  8
0
  0
POLYLINE
  8
20
 66
1
 10
0.0000
 20
0.0000
 30
0.0000
 40
0.0005
 41
0.0005
 70
0
  0
VERTEX
  8
20
 10
72.0698
 20
3.2593
 30
0.0000
 42
1.0000
  0
VERTEX
  8
20
 10
72.0694
 20
3.2596
 30
0.0000
  0
SEQEND
  8
0
  0
POLYLINE
  8
20
 66
1
 10
0.0000
 20
0.0000
 30
0.0000
 40
0.0010
 41
0.0010
 70
0
  0
VERTEX
  8
20
 10
92.4916
 20
18.3976
 30
0.0000
 42
0.2386
  0
VERTEX
  8
20
 10
82.3828
 20
13.2836
 30
0.0000
  0
SEQEND
  8
0
  0
POLYLINE
  8
20
 66
1
 10
0.0000
 20
0.0000
 30
0.0000
 40
0.0005
 41
0.0005
 70
0
  0
VERTEX
  8
20
 10
92.4916
 20
18.3974
 30
0.0000
 42
1.0000
  0
VERTEX
  8
20
 10
92.4916
 20
18.3978
 30
0.0000
  0
SEQEND
  8
0
  0
POLYLINE
  8
20
 66
1
 10
0.0000
 20
0.0000
 30
0.0000
 40
0.0005
 41
0.0005
 70
0
  0
VERTEX
  8
20
 10
82.3826
 20
13.2837
 30
0.0000
 42
1.0000
  0
VERTEX
  8
20
 10
82.3830
 20
13.2835
 30
0.0000
  0
SEQEND
  8
0
  0
POLYLINE
  8
20
 66
1
 10
0.0000
 20
0.0000
 30
0.0000
 40
0.0010
 41
0.0010
 70
0
  0
VERTEX
  8
20
 10
92.4916
 20
18.3973
 30
0.0000
 42
1.0000
  0
VERTEX
  8
20
 10
92.4916
 20
18.3978
 30
0.0000
  0
SEQEND
  8
0
  0
POLYLINE
  8
20
 66
1
 10
0.0000
 20
0.0000
 30
0.0000
 40
0.0005
 41
0.0005
 70
0
  0
VERTEX
  8
20
 10
92.4916
 20
18.3976
 30
0.0000
 42
1.0000
  0
VERTEX
  8
20
 10
92.4916
 20
18.3971
 30
0.0000
  0
SEQEND
  8
0
  0
POLYLINE
  8
20
 66
1
 10
0.0000
 20
0.0000
 30
0.0000
 40
0.0005
 41
0.0005
 70
0
  0
VERTEX
  8
20
 10
92.4916
 20
18.3981
 30
0.0000
 42
1.0000
  0
VERTEX
  8
20
 10
92.4916
 20
18.3975
 30
0.0000
  0
SEQEND
  8
0
  0
POLYLINE
  8
20
 66
1
 10
0.0000
 20
0.0000
 30
0.0000
 40
0.0010
 41
0.0010
 70
0
  0
VERTEX
  8
20
 10
82.3826
 20
13.2838
 30
0.0000
 42
1.0000
  0
VERTEX
  8
20
 10
82.3830
 20
13.2835
 30
0.0000
  0
SEQEND
  8
0
  0
POLYLINE
  8
20
 66
1
 10
0.0000
 20
0.0000
 30
0.0000
 40
0.0005
 41
0.0005
 70
0
  0
VERTEX
  8
20
 10
82.3828
 20
13.2837
 30
0.0000
 42
1.0000
  0
VERTEX
  8
20
 10
82.3824
 20
13.2840
 30
0.0000
  0
SEQEND
  8
0
  0
POLYLINE
  8
20
 66
1
 10
0.0000
 20
0.0000
 30
0.0000
 40
0.0005
 41
0.0005
 70
0
  0
VERTEX
  8
20
 10
82.3832
 20
13.2834
 30
0.0000
 42
1.0000
  0
VERTEX
  8
20
 10
82.3828
 20
13.2836
 30
0.0000
  0
SEQEND
  8
0
  0
POLYLINE
  8
20
 66
1
 10
0.0000
 20
0.0000
 30
0.0000
 40
0.0010
 41
0.0010
 70
0
  0
VERTEX
  8
20
 10
92.4916
 20
18.3976
 30
0.0000
  0
VERTEX
  8
20
 10
98.9202
 20
18.3976
 30
0.0000
  0
SEQEND
  8
0
  0
POLYLINE
  8
20
 66
1
 10
0.0000
 20
0.0000
 30
0.0000
 40
0.0005
 41
0.0005
 70
0
  0
VERTEX
  8
20
 10
98.9202
 20
18.3973
 30
0.0000
 42
1.0000
  0
VERTEX
  8
20
 10
98.9202
 20
18.3979
 30
0.0000
  0
SEQEND
  8
0
  0
POLYLINE
  8
20
 66
1
 10
0.0000
 20
0.0000
 30
0.0000
 40
0.0005
 41
0.0005
 70
0
  0
VERTEX
  8
20
 10
92.4916
 20
18.3979
 30
0.0000
 42
1.0000
  0
VERTEX
  8
20
 10
92.4916
 20
18.3973
 30
0.0000
  0
SEQEND
  8
0
  0
POLYLINE
  8
20
 66
1
 10
0.0000
 20
0.0000
 30
0.0000
 40
0.0010
 41
0.0010
 70
0
  0
VERTEX
  8
20
 10
98.9202
 20
18.3973
 30
0.0000
 42
1.0000
  0
VERTEX
  8
20
 10
98.9202
 20
18.3978
 30
0.0000
  0
SEQEND
  8
0
  0
POLYLINE
  8
20
 66
1
 10
0.0000
 20
0.0000
 30
0.0000
 40
0.0005
 41
0.0005
 70
0
  0
VERTEX
  8
20
 10
98.9202
 20
18.3976
 30
0.0000
 42
1.0000
  0
VERTEX
  8
20
 10
98.9202
 20
18.3971
 30
0.0000
  0
SEQEND
  8
0
  0
POLYLINE
  8
20
 66
1
 10
0.0000
 20
0.0000
 30
0.0000
 40
0.0005
 41
0.0005
 70
0
  0
VERTEX
  8
20
 10
98.9202
 20
18.3981
 30
0.0000
 42
1.0000
  0
VERTEX
  8
20
 10
98.9202
 20
18.3975
 30
0.0000
  0
SEQEND
  8
0
  0
POLYLINE
  8
20
 66
1
 10
0.0000
 20
0.0000
 30
0.0000
 40
0.0010
 41
0.0010
 70
0
  0
VERTEX
  8
20
 10
92.4916
 20
18.3978
 30
0.0000
 42
1.0000
  0
VERTEX
  8
20
 10
92.4916
 20
18.3973
 30
0.0000
  0
SEQEND
  8
0
  0
POLYLINE
  8
20
 66
1
 10
0.0000
 20
0.0000
 30
0.0000
 40
0.0005
 41
0.0005
 70
0
  0
VERTEX
  8
20
 10
92.4916
 20
18.3975
 30
0.0000
 42
1.0000
  0
VERTEX
  8
20
 10
92.4916
 20
18.3981
 30
0.0000
  0
SEQEND
  8
0
  0
POLYLINE
  8
20
 66
1
 10
0.0000
 20
0.0000
 30
0.0000
 40
0.0005
 41
0.0005
 70
0
  0
VERTEX
  8
20
 10
92.4916
 20
18.3971
 30
0.0000
 42
1.0000
  0
VERTEX
  8
20
 10
92.4916
 20
18.3976
 30
0.0000
  0
SEQEND
  8
0
  0
POLYLINE
  8
20
 66
1
 10
0.0000
 20
0.0000
 30
0.0000
 40
0.0010
 41
0.0010
 70
0
  0
VERTEX
  8
20
 10
98.9202
 20
18.3976
 30
0.0000
 42
0.4164
  0
VERTEX
  8
20
 10
106.0000
 20
26.2356
 30
0.0000
  0
SEQEND
  8
0
  0
POLYLINE
  8
20
 66
1
 10
0.0000
 20
0.0000
 30
0.0000
 40
0.0005
 41
0.0005
 70
0
  0
VERTEX
  8
20
 10
98.9202
 20
18.3978
 30
0.0000
 42
1.0000
  0
VERTEX
  8
20
 10
98.9202
 20
18.3974
 30
0.0000
  0
SEQEND
  8
0
  0
POLYLINE
  8
20
 66
1
 10
0.0000
 20
0.0000
 30
0.0000
 40
0.0005
 41
0.0005
 70
0
  0
VERTEX
  8
20
 10
106.0002
 20
26.2356
 30
0.0000
 42
1.0000
  0
VERTEX
  8
20
 10
105.9998
 20
26.2356
 30
0.0000
  0
SEQEND
  8
0
  0
POLYLINE
  8
20
 66
1
 10
0.0000
 20
0.0000
 30
0.0000
 40
0.0010
 41
0.0010
 70
0
  0
VERTEX
  8
20
 10
98.9202
 20
18.3978
 30
0.0000
 42
1.0000
  0
VERTEX
  8
20
 10
98.9202
 20
18.3973
 30
0.0000
  0
SEQEND
  8
0
  0
POLYLINE
  8
20
 66
1
 10
0.0000
 20
0.0000
 30
0.0000
 40
0.0005
 41
0.0005
 70
0
  0
VERTEX
  8
20
 10
98.9202
 20
18.3975
 30
0.0000
 42
1.0000
  0
VERTEX
  8
20
 10
98.9202
 20
18.3981
 30
0.0000
  0
SEQEND
  8
0
  0
POLYLINE
  8
20
 66
1
 10
0.0000
 20
0.0000
 30
0.0000
 40
0.0005
 41
0.0005
 70
0
  0
VERTEX
  8
20
 10
98.9202
 20
18.3971
 30
0.0000
 42
1.0000
  0
VERTEX
  8
20
 10
98.9202
 20
18.3976
 30
0.0000
  0
SEQEND
  8
0
  0
POLYLINE
  8
20
 66
1
 10
0.0000
 20
0.0000
 30
0.0000
 40
0.0010
 41
0.0010
 70
0
  0
VERTEX
  8
20
 10
106.6998
 20
26.2356
 30
0.0000
 42
1.0000
  0
VERTEX
  8
20
 10
106.6993
 20
26.2356
 30
0.0000
  0
SEQEND
  8
0
  0
POLYLINE
  8
20
 66
1
 10
0.0000
 20
0.0000
 30
0.0000
 40
0.0005
 41
0.0005
 70
0
  0
VERTEX
  8
20
 10
106.6996
 20
26.2356
 30
0.0000
 42
1.0000
  0
VERTEX
  8
20
 10
106.7001
 20
26.2356
 30
0.0000
  0
SEQEND
  8
0
  0
POLYLINE
  8
20
 66
1
 10
0.0000
 20
0.0000
 30
0.0000
 40
0.0005
 41
0.0005
 70
0
  0
VERTEX
  8
20
 10
106.6991
 20
26.2356
 30
0.0000
 42
1.0000
  0
VERTEX
  8
20
 10
106.6996
 20
26.2356
 30
0.0000
  0
SEQEND
  8
0
  0
POLYLINE
  8
20
 66
1
 10
0.0000
 20
0.0000
 30
0.0000
 40
0.0010
 41
0.0010
 70
0
  0
VERTEX
  8
20
 10
106.0000
 20
26.2356
 30
0.0000
  0
VERTEX
  8
20
 10
106.0000
 20
47.8179
 30
0.0000
  0
SEQEND
  8
0
  0
POLYLINE
  8
20
 66
1
 10
0.0000
 20
0.0000
 30
0.0000
 40
0.0005
 41
0.0005
 70
0
  0
VERTEX
  8
20
 10
106.0002
 20
47.8179
 30
0.0000
 42
1.0000
  0
VERTEX
  8
20
 10
105.9998
 20
47.8179
 30
0.0000
  0
SEQEND
  8
0
  0
POLYLINE
  8
20
 66
1
 10
0.0000
 20
0.0000
 30
0.0000
 40
0.0005
 41
0.0005
 70
0
  0
VERTEX
  8
20
 10
105.9998
 20
26.2356
 30
0.0000
 42
1.0000
  0
VERTEX
  8
20
 10
106.0002
 20
26.2356
 30
0.0000
  0
SEQEND
  8
0
  0
POLYLINE
  8
20
 66
1
 10
0.0000
 20
0.0000
 30
0.0000
 40
0.0010
 41
0.0010
 70
0
  0
VERTEX
  8
20
 10
106.5275
 20
47.8179
 30
0.0000
 42
1.0000
  0
VERTEX
  8
20
 10
106.5270
 20
47.8179
 30
0.0000
  0
SEQEND
  8
0
  0
POLYLINE
  8
20
 66
1
 10
0.0000
 20
0.0000
 30
0.0000
 40
0.0005
 41
0.0005
 70
0
  0
VERTEX
  8
20
 10
106.5273
 20
47.8179
 30
0.0000
 42
1.0000
  0
VERTEX
  8
20
 10
106.5277
 20
47.8179
 30
0.0000
  0
SEQEND
  8
0
  0
POLYLINE
  8
20
 66
1
 10
0.0000
 20
0.0000
 30
0.0000
 40
0.0005
 41
0.0005
 70
0
  0
VERTEX
  8
20
 10
106.5268
 20
47.8179
 30
0.0000
 42
1.0000
  0
VERTEX
  8
20
 10
106.5272
 20
47.8179
 30
0.0000
  0
SEQEND
  8
0
  0
POLYLINE
  8
20
 66
1
 10
0.0000
 20
0.0000
 30
0.0000
 40
0.0010
 41
0.0010
 70
0
  0
VERTEX
  8
20
 10
106.6993
 20
26.2356
 30
0.0000
 42
1.0000
  0
VERTEX
  8
20
 10
106.6998
 20
26.2356
 30
0.0000
  0
SEQEND
  8
0
  0
POLYLINE
  8
20
 66
1
 10
0.0000
 20
0.0000
 30
0.0000
 40
0.0005
 41
0.0005
 70
0
  0
VERTEX
  8
20
 10
106.6996
 20
26.2356
 30
0.0000
 42
1.0000
  0
VERTEX
  8
20
 10
106.6991
 20
26.2356
 30
0.0000
  0
SEQEND
  8
0
  0
POLYLINE
  8
20
 66
1
 10
0.0000
 20
0.0000
 30
0.0000
 40
0.0005
 41
0.0005
 70
0
  0
VERTEX
  8
20
 10
106.7001
 20
26.2356
 30
0.0000
 42
1.0000
  0
VERTEX
  8
20
 10
106.6996
 20
26.2356
 30
0.0000
  0
SEQEND
  8
0
  0
POLYLINE
  8
20
 66
1
 10
0.0000
 20
0.0000
 30
0.0000
 40
0.0010
 41
0.0010
 70
0
  0
VERTEX
  8
20
 10
106.0000
 20
47.8179
 30
0.0000
 42
0.4120
  0
VERTEX
  8
20
 10
99.5513
 20
55.0000
 30
0.0000
  0
SEQEND
  8
0
  0
POLYLINE
  8
20
 66
1
 10
0.0000
 20
0.0000
 30
0.0000
 40
0.0005
 41
0.0005
 70
0
  0
VERTEX
  8
20
 10
105.9998
 20
47.8179
 30
0.0000
 42
1.0000
  0
VERTEX
  8
20
 10
106.0002
 20
47.8179
 30
0.0000
  0
SEQEND
  8
0
  0
POLYLINE
  8
20
 66
1
 10
0.0000
 20
0.0000
 30
0.0000
 40
0.0005
 41
0.0005
 70
0
  0
VERTEX
  8
20
 10
99.5513
 20
55.0002
 30
0.0000
 42
1.0000
  0
VERTEX
  8
20
 10
99.5513
 20
54.9998
 30
0.0000
  0
SEQEND
  8
0
  0
POLYLINE
  8
20
 66
1
 10
0.0000
 20
0.0000
 30
0.0000
 40
0.0010
 41
0.0010
 70
0
  0
VERTEX
  8
20
 10
106.5270
 20
47.8179
 30
0.0000
 42
1.0000
  0
VERTEX
  8
20
 10
106.5275
 20
47.8179
 30
0.0000
  0
SEQEND
  8
0
  0
POLYLINE
  8
20
 66
1
 10
0.0000
 20
0.0000
 30
0.0000
 40
0.0005
 41
0.0005
 70
0
  0
VERTEX
  8
20
 10
106.5272
 20
47.8179
 30
0.0000
 42
1.0000
  0
VERTEX
  8
20
 10
106.5268
 20
47.8179
 30
0.0000
  0
SEQEND
  8
0
  0
POLYLINE
  8
20
 66
1
 10
0.0000
 20
0.0000
 30
0.0000
 40
0.0005
 41
0.0005
 70
0
  0
VERTEX
  8
20
 10
106.5277
 20
47.8179
 30
0.0000
 42
1.0000
  0
VERTEX
  8
20
 10
106.5273
 20
47.8179
 30
0.0000
  0
SEQEND
  8
0
  0
POLYLINE
  8
20
 66
1
 10
0.0000
 20
0.0000
 30
0.0000
 40
0.0010
 41
0.0010
 70
0
  0
VERTEX
  8
20
 10
99.5513
 20
55.0000
 30
0.0000
  0
VERTEX
  8
20
 10
6.6285
 20
55.0000
 30
0.0000
  0
SEQEND
  8
0
  0
POLYLINE
  8
20
 66
1
 10
0.0000
 20
0.0000
 30
0.0000
 40
0.0005
 41
0.0005
 70
0
  0
VERTEX
  8
20
 10
6.6285
 20
55.0003
 30
0.0000
 42
1.0000
  0
VERTEX
  8
20
 10
6.6285
 20
54.9997
 30
0.0000
  0
SEQEND
  8
0
  0
POLYLINE
  8
20
 66
1
 10
0.0000
 20
0.0000
 30
0.0000
 40
0.0005
 41
0.0005
 70
0
  0
VERTEX
  8
20
 10
99.5513
 20
54.9997
 30
0.0000
 42
1.0000
  0
VERTEX
  8
20
 10
99.5513
 20
55.0003
 30
0.0000
  0
SEQEND
  8
0
  0
POLYLINE
  8
20
 66
1
 10
0.0000
 20
0.0000
 30
0.0000
 40
0.0010
 41
0.0010
 70
0
  0
VERTEX
  8
20
 10
6.6285
 20
55.0000
 30
0.0000
 42
0.4120
  0
VERTEX
  8
20
 10
0.0000
 20
48.0940
 30
0.0000
  0
SEQEND
  8
0
  0
POLYLINE
  8
20
 66
1
 10
0.0000
 20
0.0000
 30
0.0000
 40
0.0005
 41
0.0005
 70
0
  0
VERTEX
  8
20
 10
6.6285
 20
54.9998
 30
0.0000
 42
1.0000
  0
VERTEX
  8
20
 10
6.6285
 20
55.0002
 30
0.0000
  0
SEQEND
  8
0
  0
POLYLINE
  8
20
 66
1
 10
0.0000
 20
0.0000
 30
0.0000
 40
0.0005
 41
0.0005
 70
0
  0
VERTEX
  8
20
 10
-0.0002
 20
48.0940
 30
0.0000
 42
1.0000
  0
VERTEX
  8
20
 10
0.0002
 20
48.0940
 30
0.0000
  0
SEQEND
  8
0
  0
POLYLINE
  8
20
 66
1
 10
0.0000
 20
0.0000
 30
0.0000
 40
0.0010
 41
0.0010
 70
0
  0
VERTEX
  8
20
 10
-0.0691
 20
48.0940
 30
0.0000
 42
1.0000
  0
VERTEX
  8
20
 10
-0.0686
 20
48.0940
 30
0.0000
  0
SEQEND
  8
0
  0
POLYLINE
  8
20
 66
1
 10
0.0000
 20
0.0000
 30
0.0000
 40
0.0005
 41
0.0005
 70
0
  0
VERTEX
  8
20
 10
-0.0689
 20
48.0940
 30
0.0000
 42
1.0000
  0
VERTEX
  8
20
 10
-0.0694
 20
48.0940
 30
0.0000
  0
SEQEND
  8
0
  0
POLYLINE
  8
20
 66
1
 10
0.0000
 20
0.0000
 30
0.0000
 40
0.0005
 41
0.0005
 70
0
  0
VERTEX
  8
20
 10
-0.0684
 20
48.0940
 30
0.0000
 42
1.0000
  0
VERTEX
  8
20
 10
-0.0689
 20
48.0940
 30
0.0000
  0
SEQEND
  8
0
  0
POLYLINE
  8
20
 66
1
 10
0.0000
 20
0.0000
 30
0.0000
 40
0.0010
 41
0.0010
 70
0
  0
VERTEX
  8
20
 10
0.0000
 20
48.0940
 30
0.0000
  0
VERTEX
  8
20
 10
0.0000
 20
25.9600
 30
0.0000
  0
SEQEND
  8
0
  0
POLYLINE
  8
20
 66
1
 10
0.0000
 20
0.0000
 30
0.0000
 40
0.0005
 41
0.0005
 70
0
  0
VERTEX
  8
20
 10
-0.0003
 20
25.9600
 30
0.0000
 42
1.0000
  0
VERTEX
  8
20
 10
0.0003
 20
25.9600
 30
0.0000
  0
SEQEND
  8
0
  0
POLYLINE
  8
20
 66
1
 10
0.0000
 20
0.0000
 30
0.0000
 40
0.0005
 41
0.0005
 70
0
  0
VERTEX
  8
20
 10
0.0003
 20
48.0940
 30
0.0000
 42
1.0000
  0
VERTEX
  8
20
 10
-0.0003
 20
48.0940
 30
0.0000
  0
SEQEND
  8
0
  0
POLYLINE
  8
20
 66
1
 10
0.0000
 20
0.0000
 30
0.0000
 40
0.0010
 41
0.0010
 70
0
  0
VERTEX
  8
20
 10
-0.2456
 20
25.9600
 30
0.0000
 42
1.0000
  0
VERTEX
  8
20
 10
-0.2451
 20
25.9600
 30
0.0000
  0
SEQEND
  8
0
  0
POLYLINE
  8
20
 66
1
 10
0.0000
 20
0.0000
 30
0.0000
 40
0.0005
 41
0.0005
 70
0
  0
VERTEX
  8
20
 10
-0.2454
 20
25.9600
 30
0.0000
 42
1.0000
  0
VERTEX
  8
20
 10
-0.2459
 20
25.9600
 30
0.0000
  0
SEQEND
  8
0
  0
POLYLINE
  8
20
 66
1
 10
0.0000
 20
0.0000
 30
0.0000
 40
0.0005
 41
0.0005
 70
0
  0
VERTEX
  8
20
 10
-0.2449
 20
25.9600
 30
0.0000
 42
1.0000
  0
VERTEX
  8
20
 10
-0.2454
 20
25.9600
 30
0.0000
  0
SEQEND
  8
0
  0
POLYLINE
  8
20
 66
1
 10
0.0000
 20
0.0000
 30
0.0000
 40
0.0010
 41
0.0010
 70
0
  0
VERTEX
  8
20
 10
-0.0686
 20
48.0940
 30
0.0000
 42
1.0000
  0
VERTEX
  8
20
 10
-0.0691
 20
48.0940
 30
0.0000
  0
SEQEND
  8
0
  0
POLYLINE
  8
20
 66
1
 10
0.0000
 20
0.0000
 30
0.0000
 40
0.0005
 41
0.0005
 70
0
  0
VERTEX
  8
20
 10
-0.0689
 20
48.0940
 30
0.0000
 42
1.0000
  0
VERTEX
  8
20
 10
-0.0684
 20
48.0940
 30
0.0000
  0
SEQEND
  8
0
  0
POLYLINE
  8
20
 66
1
 10
0.0000
 20
0.0000
 30
0.0000
 40
0.0005
 41
0.0005
 70
0
  0
VERTEX
  8
20
 10
-0.0694
 20
48.0940
 30
0.0000
 42
1.0000
  0
VERTEX
  8
20
 10
-0.0689
 20
48.0940
 30
0.0000
  0
SEQEND
  8
0
  0
POLYLINE
  8
20
 66
1
 10
0.0000
 20
0.0000
 30
0.0000
 40
0.0010
 41
0.0010
 70
0
  0
VERTEX
  8
20
 10
0.0000
 20
25.9600
 30
0.0000
 42
0.4164
  0
VERTEX
  8
20
 10
7.2603
 20
18.3976
 30
0.0000
  0
SEQEND
  8
0
  0
POLYLINE
  8
20
 66
1
 10
0.0000
 20
0.0000
 30
0.0000
 40
0.0005
 41
0.0005
 70
0
  0
VERTEX
  8
20
 10
0.0002
 20
25.9600
 30
0.0000
 42
1.0000
  0
VERTEX
  8
20
 10
-0.0002
 20
25.9600
 30
0.0000
  0
SEQEND
  8
0
  0
POLYLINE
  8
20
 66
1
 10
0.0000
 20
0.0000
 30
0.0000
 40
0.0005
 41
0.0005
 70
0
  0
VERTEX
  8
20
 10
7.2603
 20
18.3974
 30
0.0000
 42
1.0000
  0
VERTEX
  8
20
 10
7.2603
 20
18.3978
 30
0.0000
  0
SEQEND
  8
0
  0
POLYLINE
  8
20
 66
1
 10
0.0000
 20
0.0000
 30
0.0000
 40
0.0010
 41
0.0010
 70
0
  0
VERTEX
  8
20
 10
-0.2451
 20
25.9600
 30
0.0000
 42
1.0000
  0
VERTEX
  8
20
 10
-0.2456
 20
25.9600
 30
0.0000
  0
SEQEND
  8
0
  0
POLYLINE
  8
20
 66
1
 10
0.0000
 20
0.0000
 30
0.0000
 40
0.0005
 41
0.0005
 70
0
  0
VERTEX
  8
20
 10
-0.2454
 20
25.9600
 30
0.0000
 42
1.0000
  0
VERTEX
  8
20
 10
-0.2449
 20
25.9600
 30
0.0000
  0
SEQEND
  8
0
  0
POLYLINE
  8
20
 66
1
 10
0.0000
 20
0.0000
 30
0.0000
 40
0.0005
 41
0.0005
 70
0
  0
VERTEX
  8
20
 10
-0.2459
 20
25.9600
 30
0.0000
 42
1.0000
  0
VERTEX
  8
20
 10
-0.2454
 20
25.9600
 30
0.0000
  0
SEQEND
  8
0
  0
POLYLINE
  8
20
 66
1
 10
0.0000
 20
0.0000
 30
0.0000
 40
0.0010
 41
0.0010
 70
0
  0
VERTEX
  8
20
 10
7.2603
 20
18.3973
 30
0.0000
 42
1.0000
  0
VERTEX
  8
20
 10
7.2603
 20
18.3978
 30
0.0000
  0
SEQEND
  8
0
  0
POLYLINE
  8
20
 66
1
 10
0.0000
 20
0.0000
 30
0.0000
 40
0.0005
 41
0.0005
 70
0
  0
VERTEX
  8
20
 10
7.2603
 20
18.3976
 30
0.0000
 42
1.0000
  0
VERTEX
  8
20
 10
7.2603
 20
18.3971
 30
0.0000
  0
SEQEND
  8
0
  0
POLYLINE
  8
20
 66
1
 10
0.0000
 20
0.0000
 30
0.0000
 40
0.0005
 41
0.0005
 70
0
  0
VERTEX
  8
20
 10
7.2603
 20
18.3981
 30
0.0000
 42
1.0000
  0
VERTEX
  8
20
 10
7.2603
 20
18.3975
 30
0.0000
  0
SEQEND
  8
0
  0
POLYLINE
  8
20
 66
1
 10
0.0000
 20
0.0000
 30
0.0000
 40
0.0010
 41
0.0010
 70
0
  0
VERTEX
  8
20
 10
7.2603
 20
18.3976
 30
0.0000
  0
VERTEX
  8
20
 10
13.7101
 20
18.3976
 30
0.0000
  0
SEQEND
  8
0
  0
POLYLINE
  8
20
 66
1
 10
0.0000
 20
0.0000
 30
0.0000
 40
0.0005
 41
0.0005
 70
0
  0
VERTEX
  8
20
 10
13.7101
 20
18.3973
 30
0.0000
 42
1.0000
  0
VERTEX
  8
20
 10
13.7101
 20
18.3979
 30
0.0000
  0
SEQEND
  8
0
  0
POLYLINE
  8
20
 66
1
 10
0.0000
 20
0.0000
 30
0.0000
 40
0.0005
 41
0.0005
 70
0
  0
VERTEX
  8
20
 10
7.2603
 20
18.3979
 30
0.0000
 42
1.0000
  0
VERTEX
  8
20
 10
7.2603
 20
18.3973
 30
0.0000
  0
SEQEND
  8
0
  0
POLYLINE
  8
20
 66
1
 10
0.0000
 20
0.0000
 30
0.0000
 40
0.0010
 41
0.0010
 70
0
  0
VERTEX
  8
20
 10
13.7101
 20
18.3973
 30
0.0000
 42
1.0000
  0
VERTEX
  8
20
 10
13.7101
 20
18.3978
 30
0.0000
  0
SEQEND
  8
0
  0
POLYLINE
  8
20
 66
1
 10
0.0000
 20
0.0000
 30
0.0000
 40
0.0005
 41
0.0005
 70
0
  0
VERTEX
  8
20
 10
13.7101
 20
18.3976
 30
0.0000
 42
1.0000
  0
VERTEX
  8
20
 10
13.7101
 20
18.3971
 30
0.0000
  0
SEQEND
  8
0
  0
POLYLINE
  8
20
 66
1
 10
0.0000
 20
0.0000
 30
0.0000
 40
0.0005
 41
0.0005
 70
0
  0
VERTEX
  8
20
 10
13.7101
 20
18.3981
 30
0.0000
 42
1.0000
  0
VERTEX
  8
20
 10
13.7101
 20
18.3975
 30
0.0000
  0
SEQEND
  8
0
  0
POLYLINE
  8
20
 66
1
 10
0.0000
 20
0.0000
 30
0.0000
 40
0.0010
 41
0.0010
 70
0
  0
VERTEX
  8
20
 10
7.2603
 20
18.3978
 30
0.0000
 42
1.0000
  0
VERTEX
  8
20
 10
7.2603
 20
18.3973
 30
0.0000
  0
SEQEND
  8
0
  0
POLYLINE
  8
20
 66
1
 10
0.0000
 20
0.0000
 30
0.0000
 40
0.0005
 41
0.0005
 70
0
  0
VERTEX
  8
20
 10
7.2603
 20
18.3975
 30
0.0000
 42
1.0000
  0
VERTEX
  8
20
 10
7.2603
 20
18.3981
 30
0.0000
  0
SEQEND
  8
0
  0
POLYLINE
  8
20
 66
1
 10
0.0000
 20
0.0000
 30
0.0000
 40
0.0005
 41
0.0005
 70
0
  0
VERTEX
  8
20
 10
7.2603
 20
18.3971
 30
0.0000
 42
1.0000
  0
VERTEX
  8
20
 10
7.2603
 20
18.3976
 30
0.0000
  0
SEQEND
  8
0
  0
POLYLINE
  8
20
 66
1
 10
0.0000
 20
0.0000
 30
0.0000
 40
0.0010
 41
0.0010
 70
0
  0
VERTEX
  8
20
 10
24.1946
 20
13.0569
 30
0.0000
 42
0.2400
  0
VERTEX
  8
20
 10
13.7101
 20
18.3976
 30
0.0000
  0
SEQEND
  8
0
  0
POLYLINE
  8
20
 66
1
 10
0.0000
 20
0.0000
 30
0.0000
 40
0.0005
 41
0.0005
 70
0
  0
VERTEX
  8
20
 10
24.1944
 20
13.0568
 30
0.0000
 42
1.0000
  0
VERTEX
  8
20
 10
24.1948
 20
13.0570
 30
0.0000
  0
SEQEND
  8
0
  0
POLYLINE
  8
20
 66
1
 10
0.0000
 20
0.0000
 30
0.0000
 40
0.0005
 41
0.0005
 70
0
  0
VERTEX
  8
20
 10
13.7101
 20
18.3978
 30
0.0000
 42
1.0000
  0
VERTEX
  8
20
 10
13.7101
 20
18.3974
 30
0.0000
  0
SEQEND
  8
0
  0
POLYLINE
  8
20
 66
1
 10
0.0000
 20
0.0000
 30
0.0000
 40
0.0010
 41
0.0010
 70
0
  0
VERTEX
  8
20
 10
24.1944
 20
13.0567
 30
0.0000
 42
1.0000
  0
VERTEX
  8
20
 10
24.1948
 20
13.0570
 30
0.0000
  0
SEQEND
  8
0
  0
POLYLINE
  8
20
 66
1
 10
0.0000
 20
0.0000
 30
0.0000
 40
0.0005
 41
0.0005
 70
0
  0
VERTEX
  8
20
 10
24.1946
 20
13.0569
 30
0.0000
 42
1.0000
  0
VERTEX
  8
20
 10
24.1942
 20
13.0566
 30
0.0000
  0
SEQEND
  8
0
  0
POLYLINE
  8
20
 66
1
 10
0.0000
 20
0.0000
 30
0.0000
 40
0.0005
 41
0.0005
 70
0
  0
VERTEX
  8
20
 10
24.1950
 20
13.0572
 30
0.0000
 42
1.0000
  0
VERTEX
  8
20
 10
24.1946
 20
13.0569
 30
0.0000
  0
SEQEND
  8
0
  0
POLYLINE
  8
20
 66
1
 10
0.0000
 20
0.0000
 30
0.0000
 40
0.0010
 41
0.0010
 70
0
  0
VERTEX
  8
20
 10
13.7101
 20
18.3978
 30
0.0000
 42
1.0000
  0
VERTEX
  8
20
 10
13.7101
 20
18.3973
 30
0.0000
  0
SEQEND
  8
0
  0
POLYLINE
  8
20
 66
1
 10
0.0000
 20
0.0000
 30
0.0000
 40
0.0005
 41
0.0005
 70
0
  0
VERTEX
  8
20
 10
13.7101
 20
18.3975
 30
0.0000
 42
1.0000
  0
VERTEX
  8
20
 10
13.7101
 20
18.3981
 30
0.0000
  0
SEQEND
  8
0
  0
POLYLINE
  8
20
 66
1
 10
0.0000
 20
0.0000
 30
0.0000
 40
0.0005
 41
0.0005
 70
0
  0
VERTEX
  8
20
 10
13.7101
 20
18.3971
 30
0.0000
 42
1.0000
  0
VERTEX
  8
20
 10
13.7101
 20
18.3976
 30
0.0000
  0
SEQEND
  8
0
  0
CIRCLE
  8
20
 10
53.0000
 20
52.0000
 30
0.0000
 40
1.5500
  0
CIRCLE
  8
20
 10
25.8800
 20
16.2750
 30
0.0000
 40
1.5500
  0
CIRCLE
  8
20
 10
80.1020
 20
15.8940
 30
0.0000
 40
1.5500
  0
ENDSEC
  0
EOF
