%
M48
M72
T01C0.01378
T02C0.02362
T03C0.02756
T04C0.03150
T05C0.03543
T06C0.04000
T07C0.04724
%
T01
X63800Y121300
X38800Y148800
X151300Y208800
X201300Y186300
X248800Y201300
X283800Y186300
X291300Y198800
X283800Y173800
X273800Y173800
X293800Y138800
X283800Y121300
X413800Y143800
X396300Y208800
X396300Y226300
X401300Y238800
X311300Y233800
T02
X317350Y136204
X318269Y123406
X309926Y115203
X318764Y106364
X327038Y114638
X336089Y105728
X327603Y97526
X329371Y85151
X348816Y104597
X297551Y116971
T03
X306584Y79084
X301016Y73516
T04
X129312Y88091
X134824Y88091
X180769Y88091
X186280Y88091
X202200Y89800
X202200Y79800
X202200Y69800
X202200Y59800
X202200Y49800
X202200Y39800
X202200Y29800
X262200Y29800
X262200Y39800
X262200Y49800
X262200Y59800
X262200Y69800
X262200Y79800
X262200Y89800
X262200Y99800
X262200Y109800
X262200Y119800
X262200Y129800
X262200Y139800
X262200Y149800
X262200Y159800
X262200Y169800
X202200Y169800
X202200Y159800
X186280Y162894
X180769Y162894
X202200Y149800
X202200Y139800
X202200Y129800
X202200Y119800
X202200Y109800
X202200Y99800
X134824Y162894
X129312Y162894
T05
X69658Y140442
X97942Y112158
T06
X89200Y141600
X89200Y159400
X114800Y159400
X114800Y141600
X118700Y195500
X89100Y195500
X83800Y230800
X73800Y231800
X93800Y231800
X103800Y230800
X178800Y209300
X188800Y208300
X198800Y209300
X208800Y208300
X217900Y190500
X227900Y189500
X237900Y190500
X247900Y189500
X253800Y209300
X263800Y208300
X273800Y209300
X283800Y208300
X356300Y231800
X366300Y230800
X376300Y231800
X386300Y230800
X144233Y74050
X148367Y64890
X154233Y56729
X179300Y49400
X180300Y39400
X179300Y29400
X284300Y29400
X285300Y39400
X284300Y49400
T07
X340115Y202600
X359800Y202600
X379485Y202600
M30
