G75*
%MOIN*%
%OFA0B0*%
%FSLAX25Y25*%
%IPPOS*%
%LPD*%
%AMOC8*
5,1,8,0,0,1.08239X$1,22.5*
%
%ADD10C,0.08600*%
%ADD11C,0.07400*%
%ADD12OC8,0.10000*%
%ADD13R,0.07400X0.07400*%
%ADD14C,0.05150*%
%ADD15C,0.06000*%
%ADD16R,0.04362X0.04362*%
%ADD17C,0.06299*%
%ADD18R,0.05150X0.05150*%
%ADD19C,0.00600*%
%ADD20C,0.02978*%
%ADD21C,0.01600*%
D10*
X0340115Y0202600D03*
X0359800Y0202600D03*
X0379485Y0202600D03*
D11*
X0386300Y0230800D03*
X0376300Y0231800D03*
X0366300Y0230800D03*
X0283800Y0208300D03*
X0273800Y0209300D03*
X0263800Y0208300D03*
X0247900Y0189500D03*
X0237900Y0190500D03*
X0227900Y0189500D03*
X0208800Y0208300D03*
X0198800Y0209300D03*
X0188800Y0208300D03*
X0103800Y0230800D03*
X0093800Y0231800D03*
X0083800Y0230800D03*
X0069658Y0140442D03*
X0097942Y0112158D03*
X0144233Y0074050D03*
X0148367Y0064890D03*
X0154233Y0056729D03*
X0179300Y0049400D03*
X0180300Y0039400D03*
X0179300Y0029400D03*
X0284300Y0029400D03*
X0285300Y0039400D03*
X0284300Y0049400D03*
D12*
X0118700Y0195500D03*
X0089100Y0195500D03*
D13*
X0073800Y0231800D03*
X0178800Y0209300D03*
X0217900Y0190500D03*
X0253800Y0209300D03*
X0356300Y0231800D03*
D14*
X0264775Y0169800D02*
X0259625Y0169800D01*
X0259625Y0159800D02*
X0264775Y0159800D01*
X0264775Y0149800D02*
X0259625Y0149800D01*
X0259625Y0139800D02*
X0264775Y0139800D01*
X0264775Y0129800D02*
X0259625Y0129800D01*
X0259625Y0119800D02*
X0264775Y0119800D01*
X0264775Y0109800D02*
X0259625Y0109800D01*
X0259625Y0099800D02*
X0264775Y0099800D01*
X0264775Y0089800D02*
X0259625Y0089800D01*
X0259625Y0079800D02*
X0264775Y0079800D01*
X0264775Y0069800D02*
X0259625Y0069800D01*
X0259625Y0059800D02*
X0264775Y0059800D01*
X0264775Y0049800D02*
X0259625Y0049800D01*
X0259625Y0039800D02*
X0264775Y0039800D01*
X0264775Y0029800D02*
X0259625Y0029800D01*
X0204775Y0029800D02*
X0199625Y0029800D01*
X0199625Y0039800D02*
X0204775Y0039800D01*
X0204775Y0049800D02*
X0199625Y0049800D01*
X0199625Y0059800D02*
X0204775Y0059800D01*
X0204775Y0069800D02*
X0199625Y0069800D01*
X0199625Y0079800D02*
X0204775Y0079800D01*
X0204775Y0089800D02*
X0199625Y0089800D01*
X0199625Y0099800D02*
X0204775Y0099800D01*
X0204775Y0109800D02*
X0199625Y0109800D01*
X0199625Y0119800D02*
X0204775Y0119800D01*
X0204775Y0129800D02*
X0199625Y0129800D01*
X0199625Y0139800D02*
X0204775Y0139800D01*
X0204775Y0149800D02*
X0199625Y0149800D01*
X0199625Y0159800D02*
X0204775Y0159800D01*
X0204775Y0169800D02*
X0199625Y0169800D01*
D15*
X0117800Y0159400D02*
X0111800Y0159400D01*
X0092200Y0159400D02*
X0086200Y0159400D01*
X0086200Y0141600D02*
X0092200Y0141600D01*
X0111800Y0141600D02*
X0117800Y0141600D01*
D16*
G36*
X0300635Y0116971D02*
X0297551Y0113887D01*
X0294467Y0116971D01*
X0297551Y0120055D01*
X0300635Y0116971D01*
G37*
G36*
X0313010Y0115203D02*
X0309926Y0112119D01*
X0306842Y0115203D01*
X0309926Y0118287D01*
X0313010Y0115203D01*
G37*
G36*
X0321353Y0123406D02*
X0318269Y0120322D01*
X0315185Y0123406D01*
X0318269Y0126490D01*
X0321353Y0123406D01*
G37*
G36*
X0330122Y0114638D02*
X0327038Y0111554D01*
X0323954Y0114638D01*
X0327038Y0117722D01*
X0330122Y0114638D01*
G37*
G36*
X0339173Y0105728D02*
X0336089Y0102644D01*
X0333005Y0105728D01*
X0336089Y0108812D01*
X0339173Y0105728D01*
G37*
G36*
X0351900Y0104597D02*
X0348816Y0101513D01*
X0345732Y0104597D01*
X0348816Y0107681D01*
X0351900Y0104597D01*
G37*
G36*
X0330687Y0097526D02*
X0327603Y0094442D01*
X0324519Y0097526D01*
X0327603Y0100610D01*
X0330687Y0097526D01*
G37*
G36*
X0321848Y0106364D02*
X0318764Y0103280D01*
X0315680Y0106364D01*
X0318764Y0109448D01*
X0321848Y0106364D01*
G37*
G36*
X0332455Y0085151D02*
X0329371Y0082067D01*
X0326287Y0085151D01*
X0329371Y0088235D01*
X0332455Y0085151D01*
G37*
G36*
X0320434Y0136204D02*
X0317350Y0133120D01*
X0314266Y0136204D01*
X0317350Y0139288D01*
X0320434Y0136204D01*
G37*
D17*
X0306584Y0079084D03*
X0301016Y0073516D03*
D18*
X0186280Y0088091D03*
X0180769Y0088091D03*
X0134824Y0088091D03*
X0129312Y0088091D03*
X0129312Y0162894D03*
X0134824Y0162894D03*
X0180769Y0162894D03*
X0186280Y0162894D03*
D19*
X0139924Y0076606D02*
X0127465Y0076606D01*
X0127900Y0076008D02*
X0139619Y0076008D01*
X0139599Y0075969D02*
X0139356Y0075221D01*
X0139233Y0074444D01*
X0139233Y0073656D01*
X0139356Y0072879D01*
X0139599Y0072131D01*
X0139761Y0071814D01*
X0143823Y0074160D01*
X0141475Y0078227D01*
X0140976Y0077864D01*
X0140419Y0077307D01*
X0139957Y0076671D01*
X0139599Y0075969D01*
X0139417Y0075409D02*
X0128335Y0075409D01*
X0128770Y0074811D02*
X0139291Y0074811D01*
X0139233Y0074212D02*
X0129205Y0074212D01*
X0129640Y0073614D02*
X0139240Y0073614D01*
X0139335Y0073015D02*
X0130075Y0073015D01*
X0130510Y0072417D02*
X0139506Y0072417D01*
X0139758Y0071818D02*
X0130946Y0071818D01*
X0131381Y0071220D02*
X0140109Y0071220D01*
X0140056Y0071292D02*
X0140419Y0070793D01*
X0140976Y0070236D01*
X0141612Y0069774D01*
X0142314Y0069416D01*
X0143062Y0069173D01*
X0143526Y0069100D01*
X0142941Y0068515D01*
X0141967Y0066163D01*
X0141967Y0063617D01*
X0142941Y0061264D01*
X0144742Y0059464D01*
X0147094Y0058490D01*
X0148035Y0058490D01*
X0147833Y0058003D01*
X0147833Y0055456D01*
X0148807Y0053104D01*
X0150608Y0051304D01*
X0152960Y0050329D01*
X0155506Y0050329D01*
X0157858Y0051304D01*
X0159659Y0053104D01*
X0160300Y0054653D01*
X0160300Y0045604D01*
X0160833Y0044317D01*
X0168333Y0036817D01*
X0169317Y0035833D01*
X0170604Y0035300D01*
X0175349Y0035300D01*
X0176675Y0033974D01*
X0177000Y0033840D01*
X0176679Y0033676D01*
X0176043Y0033214D01*
X0175486Y0032657D01*
X0175024Y0032021D01*
X0174666Y0031319D01*
X0174423Y0030571D01*
X0174300Y0029794D01*
X0174300Y0029700D01*
X0179000Y0029700D01*
X0179000Y0029100D01*
X0179600Y0029100D01*
X0179600Y0029700D01*
X0184300Y0029700D01*
X0184300Y0029794D01*
X0184177Y0030571D01*
X0183934Y0031319D01*
X0183576Y0032021D01*
X0183114Y0032657D01*
X0182557Y0033214D01*
X0182387Y0033337D01*
X0183925Y0033974D01*
X0185726Y0035775D01*
X0185778Y0035900D01*
X0186750Y0035900D01*
X0187800Y0034850D01*
X0187800Y0025604D01*
X0188333Y0024317D01*
X0193333Y0019317D01*
X0194317Y0018333D01*
X0195604Y0017800D01*
X0269496Y0017800D01*
X0270783Y0018333D01*
X0275783Y0023333D01*
X0276767Y0024317D01*
X0277300Y0025604D01*
X0277300Y0034850D01*
X0277750Y0035300D01*
X0280349Y0035300D01*
X0281675Y0033974D01*
X0282000Y0033840D01*
X0281679Y0033676D01*
X0281043Y0033214D01*
X0280486Y0032657D01*
X0280024Y0032021D01*
X0279666Y0031319D01*
X0279423Y0030571D01*
X0279300Y0029794D01*
X0279300Y0029700D01*
X0284000Y0029700D01*
X0284000Y0029100D01*
X0284600Y0029100D01*
X0284600Y0029700D01*
X0289300Y0029700D01*
X0289300Y0029794D01*
X0289177Y0030571D01*
X0288934Y0031319D01*
X0288576Y0032021D01*
X0288114Y0032657D01*
X0287557Y0033214D01*
X0287387Y0033337D01*
X0288925Y0033974D01*
X0290726Y0035775D01*
X0291700Y0038127D01*
X0291700Y0040673D01*
X0290726Y0043025D01*
X0288925Y0044826D01*
X0288820Y0044869D01*
X0289726Y0045775D01*
X0290700Y0048127D01*
X0290700Y0050673D01*
X0289726Y0053025D01*
X0287925Y0054826D01*
X0285573Y0055800D01*
X0283027Y0055800D01*
X0280675Y0054826D01*
X0278874Y0053025D01*
X0277900Y0050673D01*
X0277900Y0048127D01*
X0278874Y0045775D01*
X0280675Y0043974D01*
X0280780Y0043931D01*
X0279874Y0043025D01*
X0279574Y0042300D01*
X0275604Y0042300D01*
X0274317Y0041767D01*
X0273333Y0040783D01*
X0271817Y0039267D01*
X0270833Y0038283D01*
X0270300Y0036996D01*
X0270300Y0027750D01*
X0267350Y0024800D01*
X0266487Y0024800D01*
X0267763Y0025328D01*
X0269247Y0026812D01*
X0270050Y0028751D01*
X0270050Y0030849D01*
X0269247Y0032788D01*
X0267763Y0034272D01*
X0266487Y0034800D01*
X0267763Y0035328D01*
X0269247Y0036812D01*
X0270050Y0038751D01*
X0270050Y0040849D01*
X0269247Y0042788D01*
X0267763Y0044272D01*
X0266487Y0044800D01*
X0267763Y0045328D01*
X0269247Y0046812D01*
X0270050Y0048751D01*
X0270050Y0050849D01*
X0269247Y0052788D01*
X0267763Y0054272D01*
X0266487Y0054800D01*
X0267763Y0055328D01*
X0269247Y0056812D01*
X0270050Y0058751D01*
X0270050Y0060849D01*
X0269247Y0062788D01*
X0267763Y0064272D01*
X0266487Y0064800D01*
X0267763Y0065328D01*
X0269247Y0066812D01*
X0270050Y0068751D01*
X0270050Y0070849D01*
X0269247Y0072788D01*
X0267763Y0074272D01*
X0266487Y0074800D01*
X0267763Y0075328D01*
X0269247Y0076812D01*
X0270050Y0078751D01*
X0270050Y0080849D01*
X0269247Y0082788D01*
X0267763Y0084272D01*
X0266487Y0084800D01*
X0267763Y0085328D01*
X0269247Y0086812D01*
X0270050Y0088751D01*
X0270050Y0090849D01*
X0269247Y0092788D01*
X0267763Y0094272D01*
X0266487Y0094800D01*
X0267763Y0095328D01*
X0268734Y0096300D01*
X0272996Y0096300D01*
X0274283Y0096833D01*
X0275267Y0097817D01*
X0281767Y0104317D01*
X0282300Y0105604D01*
X0282300Y0114850D01*
X0284561Y0117111D01*
X0284633Y0117111D01*
X0285300Y0117387D01*
X0285300Y0096172D01*
X0285833Y0094885D01*
X0300734Y0079984D01*
X0300734Y0079366D01*
X0299853Y0079366D01*
X0297703Y0078475D01*
X0296057Y0076830D01*
X0295166Y0074680D01*
X0295166Y0072353D01*
X0296057Y0070203D01*
X0297703Y0068557D01*
X0299853Y0067666D01*
X0302180Y0067666D01*
X0304330Y0068557D01*
X0305975Y0070203D01*
X0306866Y0072353D01*
X0306866Y0073234D01*
X0307747Y0073234D01*
X0309897Y0074125D01*
X0311543Y0075770D01*
X0312433Y0077920D01*
X0312433Y0080247D01*
X0311543Y0082397D01*
X0309897Y0084043D01*
X0307747Y0084933D01*
X0305684Y0084933D01*
X0292300Y0098318D01*
X0292300Y0115319D01*
X0296022Y0111598D01*
X0297014Y0111187D01*
X0298088Y0111187D01*
X0299081Y0111598D01*
X0302925Y0115442D01*
X0303336Y0116434D01*
X0303336Y0117508D01*
X0302925Y0118500D01*
X0299081Y0122345D01*
X0298088Y0122756D01*
X0297705Y0122756D01*
X0301767Y0126817D01*
X0302300Y0128104D01*
X0302300Y0161996D01*
X0301767Y0163283D01*
X0292283Y0172767D01*
X0290996Y0173300D01*
X0287989Y0173300D01*
X0287989Y0174633D01*
X0287351Y0176173D01*
X0287300Y0176224D01*
X0287300Y0183876D01*
X0287351Y0183927D01*
X0287989Y0185467D01*
X0287989Y0187133D01*
X0287351Y0188673D01*
X0286173Y0189851D01*
X0284633Y0190489D01*
X0282967Y0190489D01*
X0281427Y0189851D01*
X0280249Y0188673D01*
X0279611Y0187133D01*
X0279611Y0185467D01*
X0280249Y0183927D01*
X0280300Y0183876D01*
X0280300Y0176224D01*
X0280249Y0176173D01*
X0279611Y0174633D01*
X0279611Y0173300D01*
X0277989Y0173300D01*
X0277989Y0174633D01*
X0277351Y0176173D01*
X0277300Y0176224D01*
X0277300Y0181996D01*
X0276767Y0183283D01*
X0275783Y0184267D01*
X0264750Y0195300D01*
X0288876Y0195300D01*
X0288927Y0195249D01*
X0290467Y0194611D01*
X0292133Y0194611D01*
X0293673Y0195249D01*
X0294851Y0196427D01*
X0295489Y0197967D01*
X0295489Y0199633D01*
X0294851Y0201173D01*
X0293673Y0202351D01*
X0292133Y0202989D01*
X0290467Y0202989D01*
X0288927Y0202351D01*
X0288876Y0202300D01*
X0286039Y0202300D01*
X0287425Y0202874D01*
X0289226Y0204675D01*
X0290200Y0207027D01*
X0290200Y0209573D01*
X0289226Y0211925D01*
X0287425Y0213726D01*
X0285073Y0214700D01*
X0282527Y0214700D01*
X0280175Y0213726D01*
X0279269Y0212820D01*
X0279226Y0212925D01*
X0277425Y0214726D01*
X0275073Y0215700D01*
X0272527Y0215700D01*
X0270175Y0214726D01*
X0268374Y0212925D01*
X0267737Y0211387D01*
X0267614Y0211557D01*
X0267057Y0212114D01*
X0266421Y0212576D01*
X0265719Y0212934D01*
X0264971Y0213177D01*
X0264194Y0213300D01*
X0264100Y0213300D01*
X0264100Y0208600D01*
X0263500Y0208600D01*
X0263500Y0213300D01*
X0263406Y0213300D01*
X0262629Y0213177D01*
X0261881Y0212934D01*
X0261179Y0212576D01*
X0260543Y0212114D01*
X0260200Y0211771D01*
X0260200Y0213537D01*
X0259789Y0214529D01*
X0259029Y0215289D01*
X0258037Y0215700D01*
X0249563Y0215700D01*
X0248571Y0215289D01*
X0247811Y0214529D01*
X0247400Y0213537D01*
X0247400Y0212300D01*
X0225604Y0212300D01*
X0224317Y0211767D01*
X0215917Y0203367D01*
X0214933Y0202383D01*
X0214400Y0201096D01*
X0214400Y0196900D01*
X0213663Y0196900D01*
X0212671Y0196489D01*
X0211911Y0195729D01*
X0211500Y0194737D01*
X0211500Y0194000D01*
X0183550Y0194000D01*
X0182300Y0195250D01*
X0182300Y0202900D01*
X0183037Y0202900D01*
X0184029Y0203311D01*
X0184789Y0204071D01*
X0185131Y0204897D01*
X0185543Y0204486D01*
X0186179Y0204024D01*
X0186881Y0203666D01*
X0187629Y0203423D01*
X0188406Y0203300D01*
X0188500Y0203300D01*
X0188500Y0208000D01*
X0189100Y0208000D01*
X0189100Y0203300D01*
X0189194Y0203300D01*
X0189971Y0203423D01*
X0190719Y0203666D01*
X0191421Y0204024D01*
X0192057Y0204486D01*
X0192614Y0205043D01*
X0193076Y0205679D01*
X0193240Y0206000D01*
X0193374Y0205675D01*
X0195175Y0203874D01*
X0197527Y0202900D01*
X0200073Y0202900D01*
X0202425Y0203874D01*
X0203331Y0204780D01*
X0203374Y0204675D01*
X0205175Y0202874D01*
X0207527Y0201900D01*
X0210073Y0201900D01*
X0212425Y0202874D01*
X0214226Y0204675D01*
X0215200Y0207027D01*
X0215200Y0209573D01*
X0214226Y0211925D01*
X0212425Y0213726D01*
X0210073Y0214700D01*
X0207527Y0214700D01*
X0205175Y0213726D01*
X0204269Y0212820D01*
X0204226Y0212925D01*
X0202425Y0214726D01*
X0200073Y0215700D01*
X0197527Y0215700D01*
X0195175Y0214726D01*
X0193374Y0212925D01*
X0192737Y0211387D01*
X0192614Y0211557D01*
X0192057Y0212114D01*
X0191421Y0212576D01*
X0190719Y0212934D01*
X0189971Y0213177D01*
X0189194Y0213300D01*
X0189100Y0213300D01*
X0189100Y0208600D01*
X0188500Y0208600D01*
X0188500Y0213300D01*
X0188406Y0213300D01*
X0187629Y0213177D01*
X0186881Y0212934D01*
X0186179Y0212576D01*
X0185543Y0212114D01*
X0185200Y0211771D01*
X0185200Y0213537D01*
X0184789Y0214529D01*
X0184029Y0215289D01*
X0183037Y0215700D01*
X0174563Y0215700D01*
X0173571Y0215289D01*
X0172811Y0214529D01*
X0172400Y0213537D01*
X0172400Y0205063D01*
X0172811Y0204071D01*
X0173571Y0203311D01*
X0174563Y0202900D01*
X0175300Y0202900D01*
X0175300Y0193104D01*
X0175833Y0191817D01*
X0179133Y0188517D01*
X0180117Y0187533D01*
X0181404Y0187000D01*
X0197111Y0187000D01*
X0197111Y0185467D01*
X0197749Y0183927D01*
X0198927Y0182749D01*
X0200467Y0182111D01*
X0200539Y0182111D01*
X0240300Y0142350D01*
X0240300Y0098104D01*
X0240833Y0096817D01*
X0249833Y0087817D01*
X0250817Y0086833D01*
X0252104Y0086300D01*
X0255665Y0086300D01*
X0256637Y0085328D01*
X0257913Y0084800D01*
X0256637Y0084272D01*
X0255153Y0082788D01*
X0254350Y0080849D01*
X0254350Y0078751D01*
X0255153Y0076812D01*
X0256637Y0075328D01*
X0257913Y0074800D01*
X0256637Y0074272D01*
X0255153Y0072788D01*
X0254350Y0070849D01*
X0254350Y0068751D01*
X0255153Y0066812D01*
X0256637Y0065328D01*
X0257913Y0064800D01*
X0256637Y0064272D01*
X0255153Y0062788D01*
X0254350Y0060849D01*
X0254350Y0058751D01*
X0255153Y0056812D01*
X0256637Y0055328D01*
X0257913Y0054800D01*
X0256637Y0054272D01*
X0255153Y0052788D01*
X0254350Y0050849D01*
X0254350Y0048751D01*
X0255153Y0046812D01*
X0256637Y0045328D01*
X0257913Y0044800D01*
X0256637Y0044272D01*
X0255153Y0042788D01*
X0254350Y0040849D01*
X0254350Y0038751D01*
X0255153Y0036812D01*
X0256637Y0035328D01*
X0257913Y0034800D01*
X0256637Y0034272D01*
X0255153Y0032788D01*
X0254350Y0030849D01*
X0254350Y0028751D01*
X0255153Y0026812D01*
X0256637Y0025328D01*
X0257913Y0024800D01*
X0206487Y0024800D01*
X0207763Y0025328D01*
X0209247Y0026812D01*
X0210050Y0028751D01*
X0210050Y0030849D01*
X0209247Y0032788D01*
X0207763Y0034272D01*
X0206487Y0034800D01*
X0207763Y0035328D01*
X0209247Y0036812D01*
X0210050Y0038751D01*
X0210050Y0040849D01*
X0209247Y0042788D01*
X0207763Y0044272D01*
X0206487Y0044800D01*
X0207763Y0045328D01*
X0209247Y0046812D01*
X0210050Y0048751D01*
X0210050Y0050849D01*
X0209247Y0052788D01*
X0207763Y0054272D01*
X0206487Y0054800D01*
X0207763Y0055328D01*
X0209247Y0056812D01*
X0210050Y0058751D01*
X0210050Y0060849D01*
X0209247Y0062788D01*
X0207763Y0064272D01*
X0206487Y0064800D01*
X0207763Y0065328D01*
X0209247Y0066812D01*
X0210050Y0068751D01*
X0210050Y0070849D01*
X0209247Y0072788D01*
X0207763Y0074272D01*
X0206487Y0074800D01*
X0207763Y0075328D01*
X0209247Y0076812D01*
X0210050Y0078751D01*
X0210050Y0080849D01*
X0209247Y0082788D01*
X0207763Y0084272D01*
X0206487Y0084800D01*
X0207763Y0085328D01*
X0209247Y0086812D01*
X0210050Y0088751D01*
X0210050Y0090849D01*
X0209247Y0092788D01*
X0207763Y0094272D01*
X0206487Y0094800D01*
X0207763Y0095328D01*
X0209247Y0096812D01*
X0210050Y0098751D01*
X0210050Y0100849D01*
X0209247Y0102788D01*
X0207763Y0104272D01*
X0206487Y0104800D01*
X0207763Y0105328D01*
X0209247Y0106812D01*
X0210050Y0108751D01*
X0210050Y0110849D01*
X0209247Y0112788D01*
X0207763Y0114272D01*
X0206487Y0114800D01*
X0207763Y0115328D01*
X0209247Y0116812D01*
X0210050Y0118751D01*
X0210050Y0120849D01*
X0209247Y0122788D01*
X0207763Y0124272D01*
X0206487Y0124800D01*
X0207763Y0125328D01*
X0209247Y0126812D01*
X0210050Y0128751D01*
X0210050Y0130849D01*
X0209247Y0132788D01*
X0207763Y0134272D01*
X0205824Y0135075D01*
X0198576Y0135075D01*
X0196637Y0134272D01*
X0195153Y0132788D01*
X0194350Y0130849D01*
X0194350Y0128751D01*
X0195153Y0126812D01*
X0196637Y0125328D01*
X0197913Y0124800D01*
X0196637Y0124272D01*
X0195153Y0122788D01*
X0194350Y0120849D01*
X0194350Y0118751D01*
X0195153Y0116812D01*
X0196637Y0115328D01*
X0197913Y0114800D01*
X0196637Y0114272D01*
X0195153Y0112788D01*
X0194350Y0110849D01*
X0194350Y0108751D01*
X0195153Y0106812D01*
X0196637Y0105328D01*
X0197913Y0104800D01*
X0196637Y0104272D01*
X0195153Y0102788D01*
X0194350Y0100849D01*
X0194350Y0098751D01*
X0195153Y0096812D01*
X0196637Y0095328D01*
X0197913Y0094800D01*
X0196637Y0094272D01*
X0195153Y0092788D01*
X0194350Y0090849D01*
X0194350Y0088751D01*
X0195153Y0086812D01*
X0196637Y0085328D01*
X0197913Y0084800D01*
X0196637Y0084272D01*
X0195153Y0082788D01*
X0194350Y0080849D01*
X0194350Y0078751D01*
X0195153Y0076812D01*
X0196637Y0075328D01*
X0197913Y0074800D01*
X0196637Y0074272D01*
X0195153Y0072788D01*
X0194350Y0070849D01*
X0194350Y0068751D01*
X0195153Y0066812D01*
X0196637Y0065328D01*
X0197913Y0064800D01*
X0196637Y0064272D01*
X0195153Y0062788D01*
X0194350Y0060849D01*
X0194350Y0058751D01*
X0195153Y0056812D01*
X0196637Y0055328D01*
X0197913Y0054800D01*
X0196637Y0054272D01*
X0195153Y0052788D01*
X0194350Y0050849D01*
X0194350Y0048751D01*
X0195153Y0046812D01*
X0196637Y0045328D01*
X0197913Y0044800D01*
X0196637Y0044272D01*
X0195153Y0042788D01*
X0194350Y0040849D01*
X0194350Y0038751D01*
X0195153Y0036812D01*
X0196637Y0035328D01*
X0197913Y0034800D01*
X0196637Y0034272D01*
X0195153Y0032788D01*
X0194800Y0031935D01*
X0194800Y0036996D01*
X0194267Y0038283D01*
X0193283Y0039267D01*
X0193283Y0039267D01*
X0190183Y0042367D01*
X0188896Y0042900D01*
X0185778Y0042900D01*
X0185726Y0043025D01*
X0183925Y0044826D01*
X0183820Y0044869D01*
X0184726Y0045775D01*
X0185700Y0048127D01*
X0185700Y0050673D01*
X0184726Y0053025D01*
X0182925Y0054826D01*
X0180573Y0055800D01*
X0178027Y0055800D01*
X0175675Y0054826D01*
X0173874Y0053025D01*
X0172900Y0050673D01*
X0172900Y0048127D01*
X0173874Y0045775D01*
X0175675Y0043974D01*
X0175780Y0043931D01*
X0174874Y0043025D01*
X0174574Y0042300D01*
X0172750Y0042300D01*
X0167300Y0047750D01*
X0167300Y0069496D01*
X0166767Y0070783D01*
X0146491Y0091058D01*
X0145205Y0091591D01*
X0139938Y0091591D01*
X0139687Y0092196D01*
X0138928Y0092955D01*
X0137935Y0093366D01*
X0126200Y0093366D01*
X0125208Y0092955D01*
X0124448Y0092196D01*
X0124037Y0091203D01*
X0124037Y0084979D01*
X0124448Y0083987D01*
X0125208Y0083228D01*
X0126200Y0082817D01*
X0137935Y0082817D01*
X0138928Y0083228D01*
X0139687Y0083987D01*
X0139938Y0084591D01*
X0143059Y0084591D01*
X0160300Y0067350D01*
X0160300Y0058806D01*
X0159659Y0060355D01*
X0157858Y0062155D01*
X0155506Y0063129D01*
X0154565Y0063129D01*
X0154767Y0063617D01*
X0154767Y0066163D01*
X0153793Y0068515D01*
X0151992Y0070315D01*
X0149640Y0071290D01*
X0148408Y0071290D01*
X0148509Y0071429D01*
X0148867Y0072131D01*
X0149110Y0072879D01*
X0149233Y0073656D01*
X0149233Y0074444D01*
X0149110Y0075221D01*
X0148867Y0075969D01*
X0148705Y0076286D01*
X0144643Y0073940D01*
X0144343Y0074460D01*
X0148410Y0076808D01*
X0148047Y0077307D01*
X0147490Y0077864D01*
X0146854Y0078326D01*
X0146152Y0078684D01*
X0145404Y0078927D01*
X0144627Y0079050D01*
X0143839Y0079050D01*
X0143062Y0078927D01*
X0142314Y0078684D01*
X0141997Y0078522D01*
X0144343Y0074460D01*
X0143823Y0074160D01*
X0144123Y0073640D01*
X0140056Y0071292D01*
X0139768Y0071818D02*
X0140968Y0071818D01*
X0140804Y0072417D02*
X0142004Y0072417D01*
X0141841Y0073015D02*
X0143041Y0073015D01*
X0142878Y0073614D02*
X0144078Y0073614D01*
X0143914Y0074212D02*
X0143793Y0074212D01*
X0143447Y0074811D02*
X0144140Y0074811D01*
X0143795Y0075409D02*
X0143102Y0075409D01*
X0142756Y0076008D02*
X0143449Y0076008D01*
X0143103Y0076606D02*
X0142411Y0076606D01*
X0142065Y0077205D02*
X0142758Y0077205D01*
X0142412Y0077803D02*
X0141720Y0077803D01*
X0142067Y0078402D02*
X0126160Y0078402D01*
X0125725Y0079001D02*
X0143527Y0079001D01*
X0144939Y0079001D02*
X0148650Y0079001D01*
X0148051Y0079599D02*
X0125290Y0079599D01*
X0124855Y0080198D02*
X0147453Y0080198D01*
X0146854Y0080796D02*
X0124420Y0080796D01*
X0123985Y0081395D02*
X0146256Y0081395D01*
X0145657Y0081993D02*
X0123550Y0081993D01*
X0123115Y0082592D02*
X0145059Y0082592D01*
X0144460Y0083190D02*
X0138837Y0083190D01*
X0139489Y0083789D02*
X0143862Y0083789D01*
X0143263Y0084387D02*
X0139853Y0084387D01*
X0140915Y0077803D02*
X0126595Y0077803D01*
X0127030Y0077205D02*
X0140345Y0077205D01*
X0144486Y0074212D02*
X0145114Y0074212D01*
X0144951Y0074811D02*
X0146151Y0074811D01*
X0145988Y0075409D02*
X0147188Y0075409D01*
X0147024Y0076008D02*
X0148224Y0076008D01*
X0148061Y0076606D02*
X0151044Y0076606D01*
X0151642Y0076008D02*
X0148847Y0076008D01*
X0149049Y0075409D02*
X0152241Y0075409D01*
X0152839Y0074811D02*
X0149175Y0074811D01*
X0149233Y0074212D02*
X0153438Y0074212D01*
X0154036Y0073614D02*
X0149226Y0073614D01*
X0149131Y0073015D02*
X0154635Y0073015D01*
X0155233Y0072417D02*
X0148960Y0072417D01*
X0148708Y0071818D02*
X0155832Y0071818D01*
X0156430Y0071220D02*
X0149809Y0071220D01*
X0151254Y0070621D02*
X0157029Y0070621D01*
X0157627Y0070023D02*
X0152285Y0070023D01*
X0152883Y0069424D02*
X0158226Y0069424D01*
X0158824Y0068826D02*
X0153482Y0068826D01*
X0153912Y0068227D02*
X0159423Y0068227D01*
X0160021Y0067629D02*
X0154160Y0067629D01*
X0154408Y0067030D02*
X0160300Y0067030D01*
X0160300Y0066432D02*
X0154656Y0066432D01*
X0154767Y0065833D02*
X0160300Y0065833D01*
X0160300Y0065235D02*
X0154767Y0065235D01*
X0154767Y0064636D02*
X0160300Y0064636D01*
X0160300Y0064038D02*
X0154767Y0064038D01*
X0154693Y0063439D02*
X0160300Y0063439D01*
X0160300Y0062841D02*
X0156203Y0062841D01*
X0157648Y0062242D02*
X0160300Y0062242D01*
X0160300Y0061644D02*
X0158370Y0061644D01*
X0158968Y0061045D02*
X0160300Y0061045D01*
X0160300Y0060447D02*
X0159567Y0060447D01*
X0159869Y0059848D02*
X0160300Y0059848D01*
X0160300Y0059250D02*
X0160116Y0059250D01*
X0160221Y0054462D02*
X0160300Y0054462D01*
X0160300Y0053863D02*
X0159973Y0053863D01*
X0159725Y0053265D02*
X0160300Y0053265D01*
X0160300Y0052666D02*
X0159221Y0052666D01*
X0158622Y0052068D02*
X0160300Y0052068D01*
X0160300Y0051469D02*
X0158023Y0051469D01*
X0156812Y0050870D02*
X0160300Y0050870D01*
X0160300Y0050272D02*
X0146607Y0050272D01*
X0146172Y0050870D02*
X0151654Y0050870D01*
X0150443Y0051469D02*
X0145737Y0051469D01*
X0145302Y0052068D02*
X0149844Y0052068D01*
X0149245Y0052666D02*
X0144867Y0052666D01*
X0144432Y0053265D02*
X0148741Y0053265D01*
X0148493Y0053863D02*
X0143997Y0053863D01*
X0143562Y0054462D02*
X0148245Y0054462D01*
X0147997Y0055060D02*
X0143127Y0055060D01*
X0142692Y0055659D02*
X0147833Y0055659D01*
X0147833Y0056257D02*
X0142257Y0056257D01*
X0141822Y0056856D02*
X0147833Y0056856D01*
X0147833Y0057454D02*
X0141386Y0057454D01*
X0140951Y0058053D02*
X0147854Y0058053D01*
X0146704Y0058651D02*
X0140516Y0058651D01*
X0140081Y0059250D02*
X0145259Y0059250D01*
X0144358Y0059848D02*
X0139646Y0059848D01*
X0139211Y0060447D02*
X0143759Y0060447D01*
X0143161Y0061045D02*
X0138776Y0061045D01*
X0138341Y0061644D02*
X0142784Y0061644D01*
X0142536Y0062242D02*
X0137906Y0062242D01*
X0137471Y0062841D02*
X0142288Y0062841D01*
X0142040Y0063439D02*
X0137036Y0063439D01*
X0136601Y0064038D02*
X0141967Y0064038D01*
X0141967Y0064636D02*
X0136166Y0064636D01*
X0135731Y0065235D02*
X0141967Y0065235D01*
X0141967Y0065833D02*
X0135296Y0065833D01*
X0134861Y0066432D02*
X0142078Y0066432D01*
X0142326Y0067030D02*
X0134426Y0067030D01*
X0133991Y0067629D02*
X0142574Y0067629D01*
X0142822Y0068227D02*
X0133556Y0068227D01*
X0133121Y0068826D02*
X0143252Y0068826D01*
X0142298Y0069424D02*
X0132686Y0069424D01*
X0132251Y0070023D02*
X0141269Y0070023D01*
X0140591Y0070621D02*
X0131816Y0070621D01*
X0146705Y0078402D02*
X0149248Y0078402D01*
X0149847Y0077803D02*
X0147551Y0077803D01*
X0148121Y0077205D02*
X0150445Y0077205D01*
X0155557Y0081993D02*
X0194824Y0081993D01*
X0194576Y0081395D02*
X0156155Y0081395D01*
X0156754Y0080796D02*
X0194350Y0080796D01*
X0194350Y0080198D02*
X0157352Y0080198D01*
X0157951Y0079599D02*
X0194350Y0079599D01*
X0194350Y0079001D02*
X0158549Y0079001D01*
X0159148Y0078402D02*
X0194495Y0078402D01*
X0194743Y0077803D02*
X0159746Y0077803D01*
X0160345Y0077205D02*
X0194991Y0077205D01*
X0195359Y0076606D02*
X0160943Y0076606D01*
X0161542Y0076008D02*
X0195958Y0076008D01*
X0196556Y0075409D02*
X0162140Y0075409D01*
X0162739Y0074811D02*
X0197886Y0074811D01*
X0196578Y0074212D02*
X0163337Y0074212D01*
X0163936Y0073614D02*
X0195979Y0073614D01*
X0195381Y0073015D02*
X0164534Y0073015D01*
X0165133Y0072417D02*
X0195000Y0072417D01*
X0194752Y0071818D02*
X0165731Y0071818D01*
X0166330Y0071220D02*
X0194504Y0071220D01*
X0194350Y0070621D02*
X0166834Y0070621D01*
X0167082Y0070023D02*
X0194350Y0070023D01*
X0194350Y0069424D02*
X0167300Y0069424D01*
X0167300Y0068826D02*
X0194350Y0068826D01*
X0194567Y0068227D02*
X0167300Y0068227D01*
X0167300Y0067629D02*
X0194815Y0067629D01*
X0195063Y0067030D02*
X0167300Y0067030D01*
X0167300Y0066432D02*
X0195534Y0066432D01*
X0196132Y0065833D02*
X0167300Y0065833D01*
X0167300Y0065235D02*
X0196863Y0065235D01*
X0197517Y0064636D02*
X0167300Y0064636D01*
X0167300Y0064038D02*
X0196403Y0064038D01*
X0195805Y0063439D02*
X0167300Y0063439D01*
X0167300Y0062841D02*
X0195206Y0062841D01*
X0194927Y0062242D02*
X0167300Y0062242D01*
X0167300Y0061644D02*
X0194679Y0061644D01*
X0194432Y0061045D02*
X0167300Y0061045D01*
X0167300Y0060447D02*
X0194350Y0060447D01*
X0194350Y0059848D02*
X0167300Y0059848D01*
X0167300Y0059250D02*
X0194350Y0059250D01*
X0194392Y0058651D02*
X0167300Y0058651D01*
X0167300Y0058053D02*
X0194640Y0058053D01*
X0194887Y0057454D02*
X0167300Y0057454D01*
X0167300Y0056856D02*
X0195135Y0056856D01*
X0195708Y0056257D02*
X0167300Y0056257D01*
X0167300Y0055659D02*
X0177686Y0055659D01*
X0176241Y0055060D02*
X0167300Y0055060D01*
X0167300Y0054462D02*
X0175311Y0054462D01*
X0174712Y0053863D02*
X0167300Y0053863D01*
X0167300Y0053265D02*
X0174114Y0053265D01*
X0173726Y0052666D02*
X0167300Y0052666D01*
X0167300Y0052068D02*
X0173478Y0052068D01*
X0173230Y0051469D02*
X0167300Y0051469D01*
X0167300Y0050870D02*
X0172982Y0050870D01*
X0172900Y0050272D02*
X0167300Y0050272D01*
X0167300Y0049673D02*
X0172900Y0049673D01*
X0172900Y0049075D02*
X0167300Y0049075D01*
X0167300Y0048476D02*
X0172900Y0048476D01*
X0173003Y0047878D02*
X0167300Y0047878D01*
X0167770Y0047279D02*
X0173251Y0047279D01*
X0173499Y0046681D02*
X0168369Y0046681D01*
X0168967Y0046082D02*
X0173747Y0046082D01*
X0174165Y0045484D02*
X0169566Y0045484D01*
X0170164Y0044885D02*
X0174764Y0044885D01*
X0175362Y0044287D02*
X0170763Y0044287D01*
X0171361Y0043688D02*
X0175537Y0043688D01*
X0174939Y0043090D02*
X0171960Y0043090D01*
X0172558Y0042491D02*
X0174653Y0042491D01*
X0168046Y0037105D02*
X0156178Y0037105D01*
X0155743Y0037703D02*
X0167447Y0037703D01*
X0166848Y0038302D02*
X0155308Y0038302D01*
X0154873Y0038900D02*
X0166250Y0038900D01*
X0165651Y0039499D02*
X0154438Y0039499D01*
X0154003Y0040097D02*
X0165053Y0040097D01*
X0164454Y0040696D02*
X0153568Y0040696D01*
X0153133Y0041294D02*
X0163856Y0041294D01*
X0163257Y0041893D02*
X0152698Y0041893D01*
X0152263Y0042491D02*
X0162659Y0042491D01*
X0162060Y0043090D02*
X0151827Y0043090D01*
X0151392Y0043688D02*
X0161462Y0043688D01*
X0160863Y0044287D02*
X0150957Y0044287D01*
X0150522Y0044885D02*
X0160598Y0044885D01*
X0160350Y0045484D02*
X0150087Y0045484D01*
X0149652Y0046082D02*
X0160300Y0046082D01*
X0160300Y0046681D02*
X0149217Y0046681D01*
X0148782Y0047279D02*
X0160300Y0047279D01*
X0160300Y0047878D02*
X0148347Y0047878D01*
X0147912Y0048476D02*
X0160300Y0048476D01*
X0160300Y0049075D02*
X0147477Y0049075D01*
X0147042Y0049673D02*
X0160300Y0049673D01*
X0156613Y0036506D02*
X0168644Y0036506D01*
X0169243Y0035908D02*
X0157048Y0035908D01*
X0157483Y0035309D02*
X0170582Y0035309D01*
X0175239Y0032317D02*
X0159396Y0032317D01*
X0159719Y0031790D02*
X0158454Y0033853D01*
X0158411Y0034033D01*
X0158057Y0034520D01*
X0157762Y0035046D01*
X0157558Y0035207D01*
X0120081Y0086766D01*
X0120003Y0086872D01*
X0119595Y0087434D01*
X0119500Y0087565D01*
X0117504Y0090311D01*
X0111490Y0096322D01*
X0104611Y0101319D01*
X0097035Y0105178D01*
X0097035Y0105178D01*
X0088948Y0107805D01*
X0080550Y0109135D01*
X0052705Y0109135D01*
X0050152Y0109270D01*
X0045160Y0110341D01*
X0040503Y0112437D01*
X0036391Y0115463D01*
X0033005Y0119285D01*
X0031633Y0121442D01*
X0030103Y0124372D01*
X0027632Y0130500D01*
X0025978Y0136897D01*
X0025170Y0143455D01*
X0025087Y0146759D01*
X0025090Y0147194D01*
X0025093Y0147615D01*
X0025470Y0197633D01*
X0025474Y0198067D01*
X0025669Y0203047D01*
X0027000Y0212920D01*
X0029567Y0222547D01*
X0033328Y0231772D01*
X0035638Y0236188D01*
X0035769Y0236422D01*
X0036058Y0236934D01*
X0037450Y0239402D01*
X0038478Y0241017D01*
X0041013Y0243878D01*
X0044092Y0246144D01*
X0047578Y0247713D01*
X0051316Y0248515D01*
X0053227Y0248616D01*
X0132996Y0248616D01*
X0133197Y0248555D01*
X0133846Y0248616D01*
X0134498Y0248616D01*
X0134600Y0248658D01*
X0135988Y0248716D01*
X0139839Y0248264D01*
X0143510Y0247013D01*
X0146836Y0245020D01*
X0149670Y0242374D01*
X0150510Y0241294D01*
X0150536Y0241211D01*
X0150966Y0240692D01*
X0151351Y0240139D01*
X0151509Y0240038D01*
X0155358Y0235397D01*
X0157008Y0232979D01*
X0161541Y0228664D01*
X0161541Y0228664D01*
X0166880Y0225397D01*
X0172785Y0223322D01*
X0178993Y0222534D01*
X0178993Y0222534D01*
X0181929Y0222784D01*
X0286727Y0222784D01*
X0288863Y0222462D01*
X0293795Y0223031D01*
X0298406Y0224869D01*
X0298406Y0224869D01*
X0302378Y0227847D01*
X0302378Y0227847D01*
X0302378Y0227847D01*
X0303470Y0229245D01*
X0303593Y0229326D01*
X0303994Y0229916D01*
X0304433Y0230478D01*
X0304472Y0230620D01*
X0312326Y0242179D01*
X0313351Y0243462D01*
X0315800Y0245692D01*
X0318663Y0247358D01*
X0321812Y0248386D01*
X0325106Y0248731D01*
X0326238Y0248669D01*
X0326366Y0248616D01*
X0326991Y0248616D01*
X0327613Y0248549D01*
X0327840Y0248616D01*
X0406890Y0248616D01*
X0409220Y0248493D01*
X0413778Y0247514D01*
X0418029Y0245601D01*
X0421783Y0242839D01*
X0424874Y0239350D01*
X0426127Y0237381D01*
X0428592Y0232668D01*
X0432606Y0222822D01*
X0435345Y0212549D01*
X0436766Y0202013D01*
X0436974Y0196698D01*
X0436977Y0196222D01*
X0437372Y0143932D01*
X0437247Y0140449D01*
X0436094Y0133579D01*
X0433772Y0127011D01*
X0432193Y0123903D01*
X0430840Y0121734D01*
X0427589Y0117793D01*
X0423697Y0114483D01*
X0419286Y0111906D01*
X0414491Y0110143D01*
X0409461Y0109247D01*
X0406907Y0109135D01*
X0391173Y0109135D01*
X0381325Y0107809D01*
X0371742Y0105181D01*
X0362595Y0101299D01*
X0355911Y0097335D01*
X0355894Y0097340D01*
X0355601Y0097461D01*
X0355441Y0097461D01*
X0354568Y0097695D01*
X0354477Y0097670D01*
X0354501Y0097762D01*
X0354267Y0098634D01*
X0354267Y0098794D01*
X0354146Y0099087D01*
X0353870Y0100118D01*
X0353612Y0100375D01*
X0353612Y0100375D01*
X0353007Y0100980D01*
X0352997Y0100991D01*
X0352555Y0101433D01*
X0354190Y0103067D01*
X0354601Y0104060D01*
X0354601Y0105134D01*
X0354190Y0106126D01*
X0350346Y0109970D01*
X0349354Y0110381D01*
X0348279Y0110381D01*
X0347287Y0109970D01*
X0343443Y0106126D01*
X0343032Y0105134D01*
X0343032Y0104060D01*
X0343443Y0103067D01*
X0346050Y0100460D01*
X0345707Y0100118D01*
X0345509Y0099378D01*
X0344706Y0098574D01*
X0344476Y0097719D01*
X0338112Y0088785D01*
X0337967Y0088845D01*
X0337807Y0088845D01*
X0336935Y0089079D01*
X0336935Y0089079D01*
X0334579Y0088447D01*
X0334579Y0088447D01*
X0333778Y0087647D01*
X0330900Y0090525D01*
X0329908Y0090936D01*
X0328834Y0090936D01*
X0327842Y0090525D01*
X0323998Y0086681D01*
X0323587Y0085688D01*
X0323587Y0084614D01*
X0323998Y0083622D01*
X0327842Y0079778D01*
X0328834Y0079367D01*
X0329908Y0079367D01*
X0330900Y0079778D01*
X0332993Y0081870D01*
X0333375Y0081489D01*
X0333309Y0081244D01*
X0333543Y0080372D01*
X0333543Y0080212D01*
X0333664Y0079919D01*
X0333941Y0078888D01*
X0333969Y0078859D01*
X0334198Y0078631D01*
X0334198Y0078631D01*
X0334803Y0078026D01*
X0335351Y0077478D01*
X0301436Y0031361D01*
X0301181Y0031149D01*
X0300933Y0030678D01*
X0300618Y0030250D01*
X0300560Y0030011D01*
X0299424Y0028075D01*
X0296089Y0023874D01*
X0292029Y0020368D01*
X0287388Y0017679D01*
X0282327Y0015901D01*
X0279937Y0015423D01*
X0186301Y0015423D01*
X0183581Y0015854D01*
X0177919Y0017450D01*
X0172576Y0019912D01*
X0167684Y0023179D01*
X0163363Y0027171D01*
X0159719Y0031790D01*
X0159776Y0031718D02*
X0174870Y0031718D01*
X0174601Y0031120D02*
X0160248Y0031120D01*
X0160720Y0030521D02*
X0174415Y0030521D01*
X0174320Y0029923D02*
X0161192Y0029923D01*
X0161664Y0029324D02*
X0179000Y0029324D01*
X0179000Y0029100D02*
X0174300Y0029100D01*
X0174300Y0029006D01*
X0174423Y0028229D01*
X0174666Y0027481D01*
X0175024Y0026779D01*
X0175486Y0026143D01*
X0176043Y0025586D01*
X0176679Y0025124D01*
X0177381Y0024766D01*
X0178129Y0024523D01*
X0178906Y0024400D01*
X0179000Y0024400D01*
X0179000Y0029100D01*
X0179000Y0028726D02*
X0179600Y0028726D01*
X0179600Y0029100D02*
X0179600Y0024400D01*
X0179694Y0024400D01*
X0180471Y0024523D01*
X0181219Y0024766D01*
X0181921Y0025124D01*
X0182557Y0025586D01*
X0183114Y0026143D01*
X0183576Y0026779D01*
X0183934Y0027481D01*
X0184177Y0028229D01*
X0184300Y0029006D01*
X0184300Y0029100D01*
X0179600Y0029100D01*
X0179600Y0029324D02*
X0187800Y0029324D01*
X0187800Y0028726D02*
X0184255Y0028726D01*
X0184144Y0028127D02*
X0187800Y0028127D01*
X0187800Y0027529D02*
X0183949Y0027529D01*
X0183653Y0026930D02*
X0187800Y0026930D01*
X0187800Y0026332D02*
X0183251Y0026332D01*
X0182704Y0025733D02*
X0187800Y0025733D01*
X0187994Y0025134D02*
X0181936Y0025134D01*
X0180510Y0024536D02*
X0188242Y0024536D01*
X0188713Y0023937D02*
X0166863Y0023937D01*
X0167510Y0023339D02*
X0189311Y0023339D01*
X0189910Y0022740D02*
X0168340Y0022740D01*
X0169236Y0022142D02*
X0190508Y0022142D01*
X0191107Y0021543D02*
X0170133Y0021543D01*
X0171029Y0020945D02*
X0191705Y0020945D01*
X0192304Y0020346D02*
X0171925Y0020346D01*
X0172931Y0019748D02*
X0192902Y0019748D01*
X0193501Y0019149D02*
X0174230Y0019149D01*
X0175529Y0018551D02*
X0194099Y0018551D01*
X0195236Y0017952D02*
X0176828Y0017952D01*
X0178259Y0017354D02*
X0286463Y0017354D01*
X0287860Y0017952D02*
X0269864Y0017952D01*
X0271001Y0018551D02*
X0288893Y0018551D01*
X0289926Y0019149D02*
X0271599Y0019149D01*
X0272198Y0019748D02*
X0290960Y0019748D01*
X0291993Y0020346D02*
X0272796Y0020346D01*
X0273395Y0020945D02*
X0292698Y0020945D01*
X0293390Y0021543D02*
X0273993Y0021543D01*
X0274592Y0022142D02*
X0294083Y0022142D01*
X0294776Y0022740D02*
X0275190Y0022740D01*
X0275783Y0023333D02*
X0275783Y0023333D01*
X0275789Y0023339D02*
X0295469Y0023339D01*
X0296139Y0023937D02*
X0276387Y0023937D01*
X0276858Y0024536D02*
X0283090Y0024536D01*
X0283129Y0024523D02*
X0283906Y0024400D01*
X0284000Y0024400D01*
X0284000Y0029100D01*
X0279300Y0029100D01*
X0279300Y0029006D01*
X0279423Y0028229D01*
X0279666Y0027481D01*
X0280024Y0026779D01*
X0280486Y0026143D01*
X0281043Y0025586D01*
X0281679Y0025124D01*
X0282381Y0024766D01*
X0283129Y0024523D01*
X0284000Y0024536D02*
X0284600Y0024536D01*
X0284600Y0024400D02*
X0284694Y0024400D01*
X0285471Y0024523D01*
X0286219Y0024766D01*
X0286921Y0025124D01*
X0287557Y0025586D01*
X0288114Y0026143D01*
X0288576Y0026779D01*
X0288934Y0027481D01*
X0289177Y0028229D01*
X0289300Y0029006D01*
X0289300Y0029100D01*
X0284600Y0029100D01*
X0284600Y0024400D01*
X0284600Y0025134D02*
X0284000Y0025134D01*
X0284000Y0025733D02*
X0284600Y0025733D01*
X0284600Y0026332D02*
X0284000Y0026332D01*
X0284000Y0026930D02*
X0284600Y0026930D01*
X0284600Y0027529D02*
X0284000Y0027529D01*
X0284000Y0028127D02*
X0284600Y0028127D01*
X0284600Y0028726D02*
X0284000Y0028726D01*
X0284000Y0029324D02*
X0277300Y0029324D01*
X0277300Y0028726D02*
X0279344Y0028726D01*
X0279456Y0028127D02*
X0277300Y0028127D01*
X0277300Y0027529D02*
X0279651Y0027529D01*
X0279947Y0026930D02*
X0277300Y0026930D01*
X0277300Y0026332D02*
X0280349Y0026332D01*
X0280896Y0025733D02*
X0277300Y0025733D01*
X0277106Y0025134D02*
X0281664Y0025134D01*
X0285510Y0024536D02*
X0296614Y0024536D01*
X0297089Y0025134D02*
X0286936Y0025134D01*
X0287704Y0025733D02*
X0297565Y0025733D01*
X0298040Y0026332D02*
X0288251Y0026332D01*
X0288653Y0026930D02*
X0298515Y0026930D01*
X0298990Y0027529D02*
X0288949Y0027529D01*
X0289144Y0028127D02*
X0299454Y0028127D01*
X0299806Y0028726D02*
X0289255Y0028726D01*
X0289280Y0029923D02*
X0300508Y0029923D01*
X0300818Y0030521D02*
X0289185Y0030521D01*
X0288999Y0031120D02*
X0301165Y0031120D01*
X0301698Y0031718D02*
X0288730Y0031718D01*
X0288361Y0032317D02*
X0302138Y0032317D01*
X0302578Y0032915D02*
X0287856Y0032915D01*
X0287813Y0033514D02*
X0303019Y0033514D01*
X0303459Y0034112D02*
X0289063Y0034112D01*
X0289662Y0034711D02*
X0303899Y0034711D01*
X0304339Y0035309D02*
X0290260Y0035309D01*
X0290781Y0035908D02*
X0304779Y0035908D01*
X0305219Y0036506D02*
X0291029Y0036506D01*
X0291277Y0037105D02*
X0305660Y0037105D01*
X0306100Y0037703D02*
X0291524Y0037703D01*
X0291700Y0038302D02*
X0306540Y0038302D01*
X0306980Y0038900D02*
X0291700Y0038900D01*
X0291700Y0039499D02*
X0307420Y0039499D01*
X0307860Y0040097D02*
X0291700Y0040097D01*
X0291691Y0040696D02*
X0308300Y0040696D01*
X0308741Y0041294D02*
X0291443Y0041294D01*
X0291195Y0041893D02*
X0309181Y0041893D01*
X0309621Y0042491D02*
X0290947Y0042491D01*
X0290661Y0043090D02*
X0310061Y0043090D01*
X0310501Y0043688D02*
X0290063Y0043688D01*
X0289464Y0044287D02*
X0310941Y0044287D01*
X0311381Y0044885D02*
X0288836Y0044885D01*
X0289435Y0045484D02*
X0311822Y0045484D01*
X0312262Y0046082D02*
X0289853Y0046082D01*
X0290101Y0046681D02*
X0312702Y0046681D01*
X0313142Y0047279D02*
X0290349Y0047279D01*
X0290597Y0047878D02*
X0313582Y0047878D01*
X0314022Y0048476D02*
X0290700Y0048476D01*
X0290700Y0049075D02*
X0314463Y0049075D01*
X0314903Y0049673D02*
X0290700Y0049673D01*
X0290700Y0050272D02*
X0315343Y0050272D01*
X0315783Y0050870D02*
X0290618Y0050870D01*
X0290370Y0051469D02*
X0316223Y0051469D01*
X0316663Y0052068D02*
X0290122Y0052068D01*
X0289874Y0052666D02*
X0317103Y0052666D01*
X0317544Y0053265D02*
X0289486Y0053265D01*
X0288888Y0053863D02*
X0317984Y0053863D01*
X0318424Y0054462D02*
X0288289Y0054462D01*
X0287359Y0055060D02*
X0318864Y0055060D01*
X0319304Y0055659D02*
X0285914Y0055659D01*
X0282686Y0055659D02*
X0268093Y0055659D01*
X0268692Y0056257D02*
X0319744Y0056257D01*
X0320185Y0056856D02*
X0269265Y0056856D01*
X0269513Y0057454D02*
X0320625Y0057454D01*
X0321065Y0058053D02*
X0269760Y0058053D01*
X0270008Y0058651D02*
X0321505Y0058651D01*
X0321945Y0059250D02*
X0270050Y0059250D01*
X0270050Y0059848D02*
X0322385Y0059848D01*
X0322825Y0060447D02*
X0270050Y0060447D01*
X0269968Y0061045D02*
X0323266Y0061045D01*
X0323706Y0061644D02*
X0269721Y0061644D01*
X0269473Y0062242D02*
X0324146Y0062242D01*
X0324586Y0062841D02*
X0269194Y0062841D01*
X0268595Y0063439D02*
X0325026Y0063439D01*
X0325466Y0064038D02*
X0267997Y0064038D01*
X0266883Y0064636D02*
X0325906Y0064636D01*
X0326347Y0065235D02*
X0267537Y0065235D01*
X0268268Y0065833D02*
X0326787Y0065833D01*
X0327227Y0066432D02*
X0268866Y0066432D01*
X0269337Y0067030D02*
X0327667Y0067030D01*
X0328107Y0067629D02*
X0269585Y0067629D01*
X0269833Y0068227D02*
X0298499Y0068227D01*
X0297434Y0068826D02*
X0270050Y0068826D01*
X0270050Y0069424D02*
X0296835Y0069424D01*
X0296237Y0070023D02*
X0270050Y0070023D01*
X0270050Y0070621D02*
X0295884Y0070621D01*
X0295636Y0071220D02*
X0269896Y0071220D01*
X0269648Y0071818D02*
X0295388Y0071818D01*
X0295166Y0072417D02*
X0269400Y0072417D01*
X0269019Y0073015D02*
X0295166Y0073015D01*
X0295166Y0073614D02*
X0268421Y0073614D01*
X0267822Y0074212D02*
X0295166Y0074212D01*
X0295221Y0074811D02*
X0266514Y0074811D01*
X0267844Y0075409D02*
X0295469Y0075409D01*
X0295717Y0076008D02*
X0268442Y0076008D01*
X0269041Y0076606D02*
X0295965Y0076606D01*
X0296432Y0077205D02*
X0269409Y0077205D01*
X0269657Y0077803D02*
X0297031Y0077803D01*
X0297629Y0078402D02*
X0269905Y0078402D01*
X0270050Y0079001D02*
X0298971Y0079001D01*
X0300734Y0079599D02*
X0270050Y0079599D01*
X0270050Y0080198D02*
X0300520Y0080198D01*
X0299922Y0080796D02*
X0270050Y0080796D01*
X0269824Y0081395D02*
X0299323Y0081395D01*
X0298725Y0081993D02*
X0269576Y0081993D01*
X0269328Y0082592D02*
X0298126Y0082592D01*
X0297528Y0083190D02*
X0268844Y0083190D01*
X0268246Y0083789D02*
X0296929Y0083789D01*
X0296331Y0084387D02*
X0267484Y0084387D01*
X0266936Y0084986D02*
X0295732Y0084986D01*
X0295134Y0085584D02*
X0268019Y0085584D01*
X0268617Y0086183D02*
X0294535Y0086183D01*
X0293937Y0086781D02*
X0269216Y0086781D01*
X0269482Y0087380D02*
X0293338Y0087380D01*
X0292740Y0087978D02*
X0269730Y0087978D01*
X0269977Y0088577D02*
X0292141Y0088577D01*
X0291543Y0089175D02*
X0270050Y0089175D01*
X0270050Y0089774D02*
X0290944Y0089774D01*
X0290346Y0090372D02*
X0270050Y0090372D01*
X0269999Y0090971D02*
X0289747Y0090971D01*
X0289149Y0091569D02*
X0269751Y0091569D01*
X0269503Y0092168D02*
X0288550Y0092168D01*
X0287952Y0092766D02*
X0269256Y0092766D01*
X0268670Y0093365D02*
X0287353Y0093365D01*
X0286755Y0093963D02*
X0268071Y0093963D01*
X0267062Y0094562D02*
X0286156Y0094562D01*
X0285719Y0095160D02*
X0267357Y0095160D01*
X0268193Y0095759D02*
X0285471Y0095759D01*
X0285300Y0096357D02*
X0273135Y0096357D01*
X0274406Y0096956D02*
X0285300Y0096956D01*
X0285300Y0097554D02*
X0275004Y0097554D01*
X0275603Y0098153D02*
X0285300Y0098153D01*
X0285300Y0098751D02*
X0276201Y0098751D01*
X0276800Y0099350D02*
X0285300Y0099350D01*
X0285300Y0099948D02*
X0277398Y0099948D01*
X0277997Y0100547D02*
X0285300Y0100547D01*
X0285300Y0101145D02*
X0278595Y0101145D01*
X0279194Y0101744D02*
X0285300Y0101744D01*
X0285300Y0102342D02*
X0279792Y0102342D01*
X0280391Y0102941D02*
X0285300Y0102941D01*
X0285300Y0103539D02*
X0280989Y0103539D01*
X0281588Y0104138D02*
X0285300Y0104138D01*
X0285300Y0104737D02*
X0281941Y0104737D01*
X0282189Y0105335D02*
X0285300Y0105335D01*
X0285300Y0105934D02*
X0282300Y0105934D01*
X0282300Y0106532D02*
X0285300Y0106532D01*
X0285300Y0107131D02*
X0282300Y0107131D01*
X0282300Y0107729D02*
X0285300Y0107729D01*
X0285300Y0108328D02*
X0282300Y0108328D01*
X0282300Y0108926D02*
X0285300Y0108926D01*
X0285300Y0109525D02*
X0282300Y0109525D01*
X0282300Y0110123D02*
X0285300Y0110123D01*
X0285300Y0110722D02*
X0282300Y0110722D01*
X0282300Y0111320D02*
X0285300Y0111320D01*
X0285300Y0111919D02*
X0282300Y0111919D01*
X0282300Y0112517D02*
X0285300Y0112517D01*
X0285300Y0113116D02*
X0282300Y0113116D01*
X0282300Y0113714D02*
X0285300Y0113714D01*
X0285300Y0114313D02*
X0282300Y0114313D01*
X0282361Y0114911D02*
X0285300Y0114911D01*
X0285300Y0115510D02*
X0282959Y0115510D01*
X0283558Y0116108D02*
X0285300Y0116108D01*
X0285300Y0116707D02*
X0284156Y0116707D01*
X0285102Y0117305D02*
X0285300Y0117305D01*
X0292300Y0114911D02*
X0292708Y0114911D01*
X0292300Y0114313D02*
X0293307Y0114313D01*
X0293905Y0113714D02*
X0292300Y0113714D01*
X0292300Y0113116D02*
X0294504Y0113116D01*
X0295102Y0112517D02*
X0292300Y0112517D01*
X0292300Y0111919D02*
X0295701Y0111919D01*
X0296692Y0111320D02*
X0292300Y0111320D01*
X0292300Y0110722D02*
X0307504Y0110722D01*
X0306906Y0111320D02*
X0298411Y0111320D01*
X0299402Y0111919D02*
X0306307Y0111919D01*
X0305709Y0112517D02*
X0300000Y0112517D01*
X0300599Y0113116D02*
X0305110Y0113116D01*
X0304552Y0113674D02*
X0308396Y0109830D01*
X0309389Y0109419D01*
X0310463Y0109419D01*
X0311455Y0109830D01*
X0315299Y0113674D01*
X0315710Y0114666D01*
X0315710Y0115740D01*
X0315299Y0116733D01*
X0311455Y0120577D01*
X0310463Y0120988D01*
X0309389Y0120988D01*
X0308396Y0120577D01*
X0304552Y0116733D01*
X0304141Y0115740D01*
X0304141Y0114666D01*
X0304552Y0113674D01*
X0304535Y0113714D02*
X0301197Y0113714D01*
X0301796Y0114313D02*
X0304288Y0114313D01*
X0304141Y0114911D02*
X0302394Y0114911D01*
X0302953Y0115510D02*
X0304141Y0115510D01*
X0304293Y0116108D02*
X0303201Y0116108D01*
X0303336Y0116707D02*
X0304541Y0116707D01*
X0305125Y0117305D02*
X0303336Y0117305D01*
X0303172Y0117904D02*
X0305723Y0117904D01*
X0306322Y0118502D02*
X0302923Y0118502D01*
X0302324Y0119101D02*
X0306920Y0119101D01*
X0307519Y0119699D02*
X0301726Y0119699D01*
X0301127Y0120298D02*
X0308117Y0120298D01*
X0309168Y0120896D02*
X0300529Y0120896D01*
X0299930Y0121495D02*
X0313277Y0121495D01*
X0312896Y0121876D02*
X0316740Y0118032D01*
X0317732Y0117621D01*
X0318807Y0117621D01*
X0319799Y0118032D01*
X0323643Y0121876D01*
X0324054Y0122869D01*
X0324054Y0123943D01*
X0323643Y0124935D01*
X0319799Y0128779D01*
X0318807Y0129190D01*
X0317732Y0129190D01*
X0316740Y0128779D01*
X0312896Y0124935D01*
X0312485Y0123943D01*
X0312485Y0122869D01*
X0312896Y0121876D01*
X0312806Y0122093D02*
X0299332Y0122093D01*
X0298242Y0122692D02*
X0312558Y0122692D01*
X0312485Y0123290D02*
X0298240Y0123290D01*
X0298839Y0123889D02*
X0312485Y0123889D01*
X0312711Y0124487D02*
X0299437Y0124487D01*
X0300036Y0125086D02*
X0313047Y0125086D01*
X0313645Y0125684D02*
X0300634Y0125684D01*
X0301233Y0126283D02*
X0314244Y0126283D01*
X0314842Y0126881D02*
X0301794Y0126881D01*
X0302042Y0127480D02*
X0315441Y0127480D01*
X0316039Y0128078D02*
X0302289Y0128078D01*
X0302300Y0128677D02*
X0316638Y0128677D01*
X0316813Y0130420D02*
X0317887Y0130420D01*
X0318880Y0130831D01*
X0322724Y0134675D01*
X0323135Y0135667D01*
X0323135Y0136741D01*
X0322724Y0137734D01*
X0318880Y0141578D01*
X0317887Y0141989D01*
X0316813Y0141989D01*
X0315821Y0141578D01*
X0311977Y0137734D01*
X0311566Y0136741D01*
X0311566Y0135667D01*
X0311977Y0134675D01*
X0315821Y0130831D01*
X0316813Y0130420D01*
X0316686Y0130472D02*
X0302300Y0130472D01*
X0302300Y0129874D02*
X0434785Y0129874D01*
X0434996Y0130472D02*
X0318014Y0130472D01*
X0319120Y0131071D02*
X0435208Y0131071D01*
X0435419Y0131670D02*
X0319718Y0131670D01*
X0320317Y0132268D02*
X0435631Y0132268D01*
X0435843Y0132867D02*
X0320915Y0132867D01*
X0321514Y0133465D02*
X0436054Y0133465D01*
X0436176Y0134064D02*
X0322112Y0134064D01*
X0322711Y0134662D02*
X0436276Y0134662D01*
X0436377Y0135261D02*
X0322966Y0135261D01*
X0323135Y0135859D02*
X0436477Y0135859D01*
X0436577Y0136458D02*
X0323135Y0136458D01*
X0323004Y0137056D02*
X0436678Y0137056D01*
X0436778Y0137655D02*
X0322757Y0137655D01*
X0322204Y0138253D02*
X0436878Y0138253D01*
X0436979Y0138852D02*
X0321606Y0138852D01*
X0321007Y0139450D02*
X0437079Y0139450D01*
X0437180Y0140049D02*
X0320409Y0140049D01*
X0319810Y0140647D02*
X0437254Y0140647D01*
X0437275Y0141246D02*
X0319212Y0141246D01*
X0318237Y0141844D02*
X0437297Y0141844D01*
X0437318Y0142443D02*
X0302300Y0142443D01*
X0302300Y0143041D02*
X0437340Y0143041D01*
X0437361Y0143640D02*
X0302300Y0143640D01*
X0302300Y0144238D02*
X0437369Y0144238D01*
X0437365Y0144837D02*
X0302300Y0144837D01*
X0302300Y0145435D02*
X0437360Y0145435D01*
X0437356Y0146034D02*
X0302300Y0146034D01*
X0302300Y0146632D02*
X0437351Y0146632D01*
X0437347Y0147231D02*
X0302300Y0147231D01*
X0302300Y0147829D02*
X0437342Y0147829D01*
X0437338Y0148428D02*
X0302300Y0148428D01*
X0302300Y0149026D02*
X0437333Y0149026D01*
X0437329Y0149625D02*
X0302300Y0149625D01*
X0302300Y0150223D02*
X0437324Y0150223D01*
X0437320Y0150822D02*
X0302300Y0150822D01*
X0302300Y0151420D02*
X0437315Y0151420D01*
X0437311Y0152019D02*
X0302300Y0152019D01*
X0302300Y0152617D02*
X0437306Y0152617D01*
X0437302Y0153216D02*
X0302300Y0153216D01*
X0302300Y0153814D02*
X0437297Y0153814D01*
X0437293Y0154413D02*
X0302300Y0154413D01*
X0302300Y0155011D02*
X0437288Y0155011D01*
X0437284Y0155610D02*
X0302300Y0155610D01*
X0302300Y0156208D02*
X0437279Y0156208D01*
X0437275Y0156807D02*
X0302300Y0156807D01*
X0302300Y0157405D02*
X0437270Y0157405D01*
X0437266Y0158004D02*
X0302300Y0158004D01*
X0302300Y0158603D02*
X0437261Y0158603D01*
X0437257Y0159201D02*
X0302300Y0159201D01*
X0302300Y0159800D02*
X0437252Y0159800D01*
X0437248Y0160398D02*
X0302300Y0160398D01*
X0302300Y0160997D02*
X0437243Y0160997D01*
X0437239Y0161595D02*
X0302300Y0161595D01*
X0302218Y0162194D02*
X0437234Y0162194D01*
X0437230Y0162792D02*
X0301970Y0162792D01*
X0301659Y0163391D02*
X0437225Y0163391D01*
X0437220Y0163989D02*
X0301061Y0163989D01*
X0300462Y0164588D02*
X0437216Y0164588D01*
X0437211Y0165186D02*
X0299864Y0165186D01*
X0299265Y0165785D02*
X0437207Y0165785D01*
X0437202Y0166383D02*
X0298667Y0166383D01*
X0298068Y0166982D02*
X0437198Y0166982D01*
X0437193Y0167580D02*
X0297470Y0167580D01*
X0296871Y0168179D02*
X0437189Y0168179D01*
X0437184Y0168777D02*
X0296273Y0168777D01*
X0295674Y0169376D02*
X0437180Y0169376D01*
X0437175Y0169974D02*
X0295075Y0169974D01*
X0294477Y0170573D02*
X0437171Y0170573D01*
X0437166Y0171171D02*
X0293878Y0171171D01*
X0293280Y0171770D02*
X0437162Y0171770D01*
X0437157Y0172368D02*
X0292681Y0172368D01*
X0291801Y0172967D02*
X0437153Y0172967D01*
X0437148Y0173565D02*
X0287989Y0173565D01*
X0287989Y0174164D02*
X0437144Y0174164D01*
X0437139Y0174762D02*
X0287935Y0174762D01*
X0287688Y0175361D02*
X0437135Y0175361D01*
X0437130Y0175959D02*
X0287440Y0175959D01*
X0287300Y0176558D02*
X0437126Y0176558D01*
X0437121Y0177156D02*
X0287300Y0177156D01*
X0287300Y0177755D02*
X0437117Y0177755D01*
X0437112Y0178353D02*
X0287300Y0178353D01*
X0287300Y0178952D02*
X0437108Y0178952D01*
X0437103Y0179550D02*
X0287300Y0179550D01*
X0287300Y0180149D02*
X0437099Y0180149D01*
X0437094Y0180747D02*
X0287300Y0180747D01*
X0287300Y0181346D02*
X0437090Y0181346D01*
X0437085Y0181944D02*
X0287300Y0181944D01*
X0287300Y0182543D02*
X0437081Y0182543D01*
X0437076Y0183141D02*
X0287300Y0183141D01*
X0287300Y0183740D02*
X0437072Y0183740D01*
X0437067Y0184339D02*
X0287522Y0184339D01*
X0287770Y0184937D02*
X0437063Y0184937D01*
X0437058Y0185536D02*
X0287989Y0185536D01*
X0287989Y0186134D02*
X0437054Y0186134D01*
X0437049Y0186733D02*
X0287989Y0186733D01*
X0287907Y0187331D02*
X0437045Y0187331D01*
X0437040Y0187930D02*
X0287659Y0187930D01*
X0287411Y0188528D02*
X0437035Y0188528D01*
X0437031Y0189127D02*
X0286897Y0189127D01*
X0286299Y0189725D02*
X0437026Y0189725D01*
X0437022Y0190324D02*
X0285032Y0190324D01*
X0282568Y0190324D02*
X0269726Y0190324D01*
X0269128Y0190922D02*
X0437017Y0190922D01*
X0437013Y0191521D02*
X0268529Y0191521D01*
X0267931Y0192119D02*
X0437008Y0192119D01*
X0437004Y0192718D02*
X0267332Y0192718D01*
X0266734Y0193316D02*
X0436999Y0193316D01*
X0436995Y0193915D02*
X0266135Y0193915D01*
X0265537Y0194513D02*
X0436990Y0194513D01*
X0436986Y0195112D02*
X0293342Y0195112D01*
X0294134Y0195710D02*
X0338456Y0195710D01*
X0338723Y0195600D02*
X0341507Y0195600D01*
X0344080Y0196666D01*
X0346049Y0198635D01*
X0347115Y0201208D01*
X0347115Y0203992D01*
X0346049Y0206565D01*
X0344080Y0208534D01*
X0343615Y0208727D01*
X0343615Y0210811D01*
X0343082Y0212098D01*
X0342098Y0213082D01*
X0340811Y0213615D01*
X0339419Y0213615D01*
X0338132Y0213082D01*
X0337148Y0212098D01*
X0336615Y0210811D01*
X0336615Y0208727D01*
X0336150Y0208534D01*
X0334181Y0206565D01*
X0333115Y0203992D01*
X0333115Y0201208D01*
X0334181Y0198635D01*
X0336150Y0196666D01*
X0338723Y0195600D01*
X0337012Y0196309D02*
X0294733Y0196309D01*
X0295050Y0196907D02*
X0335908Y0196907D01*
X0335310Y0197506D02*
X0295298Y0197506D01*
X0295489Y0198104D02*
X0334711Y0198104D01*
X0334152Y0198703D02*
X0295489Y0198703D01*
X0295489Y0199301D02*
X0333905Y0199301D01*
X0333657Y0199900D02*
X0295379Y0199900D01*
X0295131Y0200498D02*
X0333409Y0200498D01*
X0333161Y0201097D02*
X0294883Y0201097D01*
X0294329Y0201695D02*
X0333115Y0201695D01*
X0333115Y0202294D02*
X0293730Y0202294D01*
X0292366Y0202892D02*
X0333115Y0202892D01*
X0333115Y0203491D02*
X0288042Y0203491D01*
X0288640Y0204089D02*
X0333155Y0204089D01*
X0333403Y0204688D02*
X0289231Y0204688D01*
X0289479Y0205286D02*
X0333651Y0205286D01*
X0333899Y0205885D02*
X0289727Y0205885D01*
X0289975Y0206483D02*
X0334147Y0206483D01*
X0334697Y0207082D02*
X0290200Y0207082D01*
X0290200Y0207680D02*
X0335296Y0207680D01*
X0335894Y0208279D02*
X0290200Y0208279D01*
X0290200Y0208877D02*
X0336615Y0208877D01*
X0336615Y0209476D02*
X0290200Y0209476D01*
X0289992Y0210074D02*
X0336615Y0210074D01*
X0336615Y0210673D02*
X0289744Y0210673D01*
X0289496Y0211272D02*
X0336806Y0211272D01*
X0337054Y0211870D02*
X0289249Y0211870D01*
X0288682Y0212469D02*
X0337519Y0212469D01*
X0338117Y0213067D02*
X0288084Y0213067D01*
X0287485Y0213666D02*
X0392800Y0213666D01*
X0392800Y0214264D02*
X0286125Y0214264D01*
X0281475Y0214264D02*
X0277887Y0214264D01*
X0278485Y0213666D02*
X0280115Y0213666D01*
X0279516Y0213067D02*
X0279084Y0213067D01*
X0277095Y0214863D02*
X0392800Y0214863D01*
X0392800Y0215461D02*
X0275650Y0215461D01*
X0271950Y0215461D02*
X0258614Y0215461D01*
X0259456Y0214863D02*
X0270505Y0214863D01*
X0269713Y0214264D02*
X0259899Y0214264D01*
X0260147Y0213666D02*
X0269115Y0213666D01*
X0268516Y0213067D02*
X0265309Y0213067D01*
X0264100Y0213067D02*
X0263500Y0213067D01*
X0263500Y0212469D02*
X0264100Y0212469D01*
X0264100Y0211870D02*
X0263500Y0211870D01*
X0263500Y0211272D02*
X0264100Y0211272D01*
X0264100Y0210673D02*
X0263500Y0210673D01*
X0263500Y0210074D02*
X0264100Y0210074D01*
X0264100Y0209476D02*
X0263500Y0209476D01*
X0263500Y0208877D02*
X0264100Y0208877D01*
X0264100Y0208000D02*
X0264100Y0203300D01*
X0264194Y0203300D01*
X0264971Y0203423D01*
X0265719Y0203666D01*
X0266421Y0204024D01*
X0267057Y0204486D01*
X0267614Y0205043D01*
X0268076Y0205679D01*
X0268240Y0206000D01*
X0268374Y0205675D01*
X0270175Y0203874D01*
X0272527Y0202900D01*
X0275073Y0202900D01*
X0277425Y0203874D01*
X0278331Y0204780D01*
X0278374Y0204675D01*
X0280175Y0202874D01*
X0281561Y0202300D01*
X0260250Y0202300D01*
X0259134Y0203416D01*
X0259789Y0204071D01*
X0260131Y0204897D01*
X0260543Y0204486D01*
X0261179Y0204024D01*
X0261881Y0203666D01*
X0262629Y0203423D01*
X0263406Y0203300D01*
X0263500Y0203300D01*
X0263500Y0208000D01*
X0264100Y0208000D01*
X0264100Y0207680D02*
X0263500Y0207680D01*
X0263500Y0207082D02*
X0264100Y0207082D01*
X0264100Y0206483D02*
X0263500Y0206483D01*
X0263500Y0205885D02*
X0264100Y0205885D01*
X0264100Y0205286D02*
X0263500Y0205286D01*
X0263500Y0204688D02*
X0264100Y0204688D01*
X0264100Y0204089D02*
X0263500Y0204089D01*
X0263500Y0203491D02*
X0264100Y0203491D01*
X0265179Y0203491D02*
X0271100Y0203491D01*
X0269960Y0204089D02*
X0266511Y0204089D01*
X0267259Y0204688D02*
X0269361Y0204688D01*
X0268763Y0205286D02*
X0267791Y0205286D01*
X0268181Y0205885D02*
X0268287Y0205885D01*
X0262421Y0203491D02*
X0259209Y0203491D01*
X0259657Y0202892D02*
X0280157Y0202892D01*
X0279558Y0203491D02*
X0276500Y0203491D01*
X0277640Y0204089D02*
X0278960Y0204089D01*
X0278369Y0204688D02*
X0278239Y0204688D01*
X0287443Y0202892D02*
X0290234Y0202892D01*
X0289258Y0195112D02*
X0264938Y0195112D01*
X0259850Y0190300D02*
X0255604Y0190300D01*
X0254317Y0190833D01*
X0253333Y0191817D01*
X0248039Y0197111D01*
X0247967Y0197111D01*
X0246427Y0197749D01*
X0245249Y0198927D01*
X0244611Y0200467D01*
X0244611Y0202133D01*
X0245249Y0203673D01*
X0246427Y0204851D01*
X0247400Y0205254D01*
X0247400Y0205300D01*
X0227750Y0205300D01*
X0221400Y0198950D01*
X0221400Y0196900D01*
X0222137Y0196900D01*
X0223129Y0196489D01*
X0223889Y0195729D01*
X0224237Y0194888D01*
X0224275Y0194926D01*
X0226627Y0195900D01*
X0229173Y0195900D01*
X0231525Y0194926D01*
X0232431Y0194020D01*
X0232474Y0194125D01*
X0234275Y0195926D01*
X0236627Y0196900D01*
X0239173Y0196900D01*
X0241525Y0195926D01*
X0243326Y0194125D01*
X0243963Y0192587D01*
X0244086Y0192757D01*
X0244643Y0193314D01*
X0245279Y0193776D01*
X0245981Y0194134D01*
X0246729Y0194377D01*
X0247506Y0194500D01*
X0247600Y0194500D01*
X0247600Y0189800D01*
X0248200Y0189800D01*
X0248200Y0194500D01*
X0248294Y0194500D01*
X0249071Y0194377D01*
X0249819Y0194134D01*
X0250521Y0193776D01*
X0251157Y0193314D01*
X0251714Y0192757D01*
X0252176Y0192121D01*
X0252534Y0191419D01*
X0252777Y0190671D01*
X0252900Y0189894D01*
X0252900Y0189800D01*
X0248200Y0189800D01*
X0248200Y0189200D01*
X0252900Y0189200D01*
X0252900Y0189106D01*
X0252777Y0188329D01*
X0252534Y0187581D01*
X0252176Y0186879D01*
X0251714Y0186243D01*
X0251157Y0185686D01*
X0250521Y0185224D01*
X0249819Y0184866D01*
X0249071Y0184623D01*
X0248294Y0184500D01*
X0248200Y0184500D01*
X0248200Y0189200D01*
X0247600Y0189200D01*
X0247600Y0184500D01*
X0247506Y0184500D01*
X0246729Y0184623D01*
X0245981Y0184866D01*
X0245279Y0185224D01*
X0244643Y0185686D01*
X0244086Y0186243D01*
X0243624Y0186879D01*
X0243460Y0187200D01*
X0243326Y0186875D01*
X0241525Y0185074D01*
X0239173Y0184100D01*
X0236627Y0184100D01*
X0234275Y0185074D01*
X0233369Y0185980D01*
X0233326Y0185875D01*
X0231525Y0184074D01*
X0229173Y0183100D01*
X0226627Y0183100D01*
X0224275Y0184074D01*
X0223484Y0184865D01*
X0223129Y0184511D01*
X0222137Y0184100D01*
X0213663Y0184100D01*
X0212671Y0184511D01*
X0211911Y0185271D01*
X0211500Y0186263D01*
X0211500Y0187000D01*
X0205550Y0187000D01*
X0245783Y0146767D01*
X0246767Y0145783D01*
X0247300Y0144496D01*
X0247300Y0100250D01*
X0254250Y0093300D01*
X0255665Y0093300D01*
X0256637Y0094272D01*
X0257913Y0094800D01*
X0256637Y0095328D01*
X0255153Y0096812D01*
X0254350Y0098751D01*
X0254350Y0100849D01*
X0255153Y0102788D01*
X0256637Y0104272D01*
X0257913Y0104800D01*
X0256637Y0105328D01*
X0255153Y0106812D01*
X0254350Y0108751D01*
X0254350Y0110849D01*
X0255153Y0112788D01*
X0256637Y0114272D01*
X0257913Y0114800D01*
X0256637Y0115328D01*
X0255153Y0116812D01*
X0254350Y0118751D01*
X0254350Y0120849D01*
X0255153Y0122788D01*
X0256637Y0124272D01*
X0257913Y0124800D01*
X0256637Y0125328D01*
X0255153Y0126812D01*
X0254350Y0128751D01*
X0254350Y0130849D01*
X0255153Y0132788D01*
X0256637Y0134272D01*
X0257913Y0134800D01*
X0256637Y0135328D01*
X0255153Y0136812D01*
X0254350Y0138751D01*
X0254350Y0140849D01*
X0255153Y0142788D01*
X0256637Y0144272D01*
X0257913Y0144800D01*
X0256637Y0145328D01*
X0255153Y0146812D01*
X0254350Y0148751D01*
X0254350Y0150849D01*
X0255153Y0152788D01*
X0256637Y0154272D01*
X0258576Y0155075D01*
X0265824Y0155075D01*
X0267763Y0154272D01*
X0269247Y0152788D01*
X0270050Y0150849D01*
X0270050Y0148751D01*
X0269247Y0146812D01*
X0267763Y0145328D01*
X0266487Y0144800D01*
X0267763Y0144272D01*
X0269247Y0142788D01*
X0269449Y0142300D01*
X0291376Y0142300D01*
X0291427Y0142351D01*
X0292967Y0142989D01*
X0294633Y0142989D01*
X0295300Y0142713D01*
X0295300Y0159850D01*
X0288850Y0166300D01*
X0268734Y0166300D01*
X0267763Y0165328D01*
X0265824Y0164525D01*
X0258576Y0164525D01*
X0256637Y0165328D01*
X0255153Y0166812D01*
X0254350Y0168751D01*
X0254350Y0170849D01*
X0255153Y0172788D01*
X0256637Y0174272D01*
X0258576Y0175075D01*
X0265824Y0175075D01*
X0267763Y0174272D01*
X0268734Y0173300D01*
X0269611Y0173300D01*
X0269611Y0174633D01*
X0270249Y0176173D01*
X0270300Y0176224D01*
X0270300Y0179850D01*
X0259850Y0190300D01*
X0260425Y0189725D02*
X0248200Y0189725D01*
X0248200Y0189127D02*
X0247600Y0189127D01*
X0247600Y0188528D02*
X0248200Y0188528D01*
X0248200Y0187930D02*
X0247600Y0187930D01*
X0247600Y0187331D02*
X0248200Y0187331D01*
X0248200Y0186733D02*
X0247600Y0186733D01*
X0247600Y0186134D02*
X0248200Y0186134D01*
X0248200Y0185536D02*
X0247600Y0185536D01*
X0247600Y0184937D02*
X0248200Y0184937D01*
X0249958Y0184937D02*
X0265213Y0184937D01*
X0264615Y0185536D02*
X0250950Y0185536D01*
X0251605Y0186134D02*
X0264016Y0186134D01*
X0263418Y0186733D02*
X0252070Y0186733D01*
X0252406Y0187331D02*
X0262819Y0187331D01*
X0262221Y0187930D02*
X0252647Y0187930D01*
X0252808Y0188528D02*
X0261622Y0188528D01*
X0261024Y0189127D02*
X0252900Y0189127D01*
X0252832Y0190324D02*
X0255547Y0190324D01*
X0254228Y0190922D02*
X0252695Y0190922D01*
X0252482Y0191521D02*
X0253630Y0191521D01*
X0253031Y0192119D02*
X0252177Y0192119D01*
X0252433Y0192718D02*
X0251743Y0192718D01*
X0251834Y0193316D02*
X0251154Y0193316D01*
X0251236Y0193915D02*
X0250249Y0193915D01*
X0250637Y0194513D02*
X0242938Y0194513D01*
X0243413Y0193915D02*
X0245551Y0193915D01*
X0244646Y0193316D02*
X0243661Y0193316D01*
X0243909Y0192718D02*
X0244057Y0192718D01*
X0242339Y0195112D02*
X0250039Y0195112D01*
X0249440Y0195710D02*
X0241741Y0195710D01*
X0240600Y0196309D02*
X0248842Y0196309D01*
X0248243Y0196907D02*
X0221400Y0196907D01*
X0221400Y0197506D02*
X0247014Y0197506D01*
X0246072Y0198104D02*
X0221400Y0198104D01*
X0221400Y0198703D02*
X0245473Y0198703D01*
X0245094Y0199301D02*
X0221751Y0199301D01*
X0222350Y0199900D02*
X0244846Y0199900D01*
X0244611Y0200498D02*
X0222948Y0200498D01*
X0223547Y0201097D02*
X0244611Y0201097D01*
X0244611Y0201695D02*
X0224145Y0201695D01*
X0224744Y0202294D02*
X0244678Y0202294D01*
X0244925Y0202892D02*
X0225342Y0202892D01*
X0225941Y0203491D02*
X0245173Y0203491D01*
X0245665Y0204089D02*
X0226539Y0204089D01*
X0227138Y0204688D02*
X0246264Y0204688D01*
X0247400Y0205286D02*
X0227736Y0205286D01*
X0222625Y0210074D02*
X0214992Y0210074D01*
X0215200Y0209476D02*
X0222026Y0209476D01*
X0221428Y0208877D02*
X0215200Y0208877D01*
X0215200Y0208279D02*
X0220829Y0208279D01*
X0220231Y0207680D02*
X0215200Y0207680D01*
X0215200Y0207082D02*
X0219632Y0207082D01*
X0219034Y0206483D02*
X0214975Y0206483D01*
X0214727Y0205885D02*
X0218435Y0205885D01*
X0217837Y0205286D02*
X0214479Y0205286D01*
X0214231Y0204688D02*
X0217238Y0204688D01*
X0216640Y0204089D02*
X0213640Y0204089D01*
X0213042Y0203491D02*
X0216041Y0203491D01*
X0215443Y0202892D02*
X0212443Y0202892D01*
X0211024Y0202294D02*
X0214896Y0202294D01*
X0214648Y0201695D02*
X0182300Y0201695D01*
X0182300Y0201097D02*
X0214400Y0201097D01*
X0214400Y0200498D02*
X0182300Y0200498D01*
X0182300Y0199900D02*
X0214400Y0199900D01*
X0214400Y0199301D02*
X0182300Y0199301D01*
X0182300Y0198703D02*
X0214400Y0198703D01*
X0214400Y0198104D02*
X0182300Y0198104D01*
X0182300Y0197506D02*
X0214400Y0197506D01*
X0214400Y0196907D02*
X0182300Y0196907D01*
X0182300Y0196309D02*
X0212490Y0196309D01*
X0211903Y0195710D02*
X0182300Y0195710D01*
X0182438Y0195112D02*
X0211655Y0195112D01*
X0211500Y0194513D02*
X0183037Y0194513D01*
X0176130Y0191521D02*
X0125610Y0191521D01*
X0126209Y0192119D02*
X0175708Y0192119D01*
X0175460Y0192718D02*
X0126400Y0192718D01*
X0126400Y0192311D02*
X0121889Y0187800D01*
X0115511Y0187800D01*
X0111000Y0192311D01*
X0111000Y0198689D01*
X0115511Y0203200D01*
X0121889Y0203200D01*
X0126400Y0198689D01*
X0126400Y0192311D01*
X0126400Y0193316D02*
X0175300Y0193316D01*
X0175300Y0193915D02*
X0126400Y0193915D01*
X0126400Y0194513D02*
X0175300Y0194513D01*
X0175300Y0195112D02*
X0126400Y0195112D01*
X0126400Y0195710D02*
X0175300Y0195710D01*
X0175300Y0196309D02*
X0126400Y0196309D01*
X0126400Y0196907D02*
X0175300Y0196907D01*
X0175300Y0197506D02*
X0126400Y0197506D01*
X0126400Y0198104D02*
X0175300Y0198104D01*
X0175300Y0198703D02*
X0126387Y0198703D01*
X0125788Y0199301D02*
X0175300Y0199301D01*
X0175300Y0199900D02*
X0125190Y0199900D01*
X0124591Y0200498D02*
X0175300Y0200498D01*
X0175300Y0201097D02*
X0123993Y0201097D01*
X0123394Y0201695D02*
X0175300Y0201695D01*
X0175300Y0202294D02*
X0122796Y0202294D01*
X0122197Y0202892D02*
X0175300Y0202892D01*
X0173391Y0203491D02*
X0077300Y0203491D01*
X0077300Y0204089D02*
X0172803Y0204089D01*
X0172555Y0204688D02*
X0077300Y0204688D01*
X0077300Y0205286D02*
X0172400Y0205286D01*
X0172400Y0205885D02*
X0077300Y0205885D01*
X0077300Y0206483D02*
X0172400Y0206483D01*
X0172400Y0207082D02*
X0077300Y0207082D01*
X0077300Y0207680D02*
X0172400Y0207680D01*
X0172400Y0208279D02*
X0077300Y0208279D01*
X0077300Y0208877D02*
X0172400Y0208877D01*
X0172400Y0209476D02*
X0077300Y0209476D01*
X0077300Y0210074D02*
X0172400Y0210074D01*
X0172400Y0210673D02*
X0077300Y0210673D01*
X0077300Y0211272D02*
X0172400Y0211272D01*
X0172400Y0211870D02*
X0077300Y0211870D01*
X0077300Y0212469D02*
X0172400Y0212469D01*
X0172400Y0213067D02*
X0077300Y0213067D01*
X0077300Y0213666D02*
X0172453Y0213666D01*
X0172701Y0214264D02*
X0077300Y0214264D01*
X0077300Y0214863D02*
X0173144Y0214863D01*
X0173986Y0215461D02*
X0077300Y0215461D01*
X0077300Y0216060D02*
X0392800Y0216060D01*
X0392800Y0216658D02*
X0077300Y0216658D01*
X0077300Y0217257D02*
X0392800Y0217257D01*
X0392800Y0217855D02*
X0077300Y0217855D01*
X0077300Y0218454D02*
X0392800Y0218454D01*
X0392800Y0219052D02*
X0077300Y0219052D01*
X0077300Y0219651D02*
X0392800Y0219651D01*
X0392800Y0220249D02*
X0077300Y0220249D01*
X0077300Y0220848D02*
X0354303Y0220848D01*
X0354317Y0220833D02*
X0355604Y0220300D01*
X0356996Y0220300D01*
X0358283Y0220833D01*
X0359267Y0221817D01*
X0359800Y0223104D01*
X0359800Y0225400D01*
X0360537Y0225400D01*
X0361529Y0225811D01*
X0362289Y0226571D01*
X0362631Y0227397D01*
X0363043Y0226986D01*
X0363679Y0226524D01*
X0364381Y0226166D01*
X0365129Y0225923D01*
X0365906Y0225800D01*
X0366000Y0225800D01*
X0366000Y0230500D01*
X0366600Y0230500D01*
X0366600Y0225800D01*
X0366694Y0225800D01*
X0367471Y0225923D01*
X0368219Y0226166D01*
X0368921Y0226524D01*
X0369557Y0226986D01*
X0370114Y0227543D01*
X0370576Y0228179D01*
X0370740Y0228500D01*
X0370874Y0228175D01*
X0372675Y0226374D01*
X0375027Y0225400D01*
X0377573Y0225400D01*
X0379925Y0226374D01*
X0380831Y0227280D01*
X0380874Y0227175D01*
X0382675Y0225374D01*
X0385027Y0224400D01*
X0387573Y0224400D01*
X0389925Y0225374D01*
X0391726Y0227175D01*
X0392700Y0229527D01*
X0392700Y0232073D01*
X0391726Y0234425D01*
X0389925Y0236226D01*
X0387573Y0237200D01*
X0385027Y0237200D01*
X0382675Y0236226D01*
X0381769Y0235320D01*
X0381726Y0235425D01*
X0379925Y0237226D01*
X0377573Y0238200D01*
X0375027Y0238200D01*
X0372675Y0237226D01*
X0370874Y0235425D01*
X0370237Y0233887D01*
X0370114Y0234057D01*
X0369557Y0234614D01*
X0368921Y0235076D01*
X0368219Y0235434D01*
X0367471Y0235677D01*
X0366694Y0235800D01*
X0366600Y0235800D01*
X0366600Y0231100D01*
X0366000Y0231100D01*
X0366000Y0235800D01*
X0365906Y0235800D01*
X0365129Y0235677D01*
X0364381Y0235434D01*
X0363679Y0235076D01*
X0363043Y0234614D01*
X0362700Y0234271D01*
X0362700Y0236037D01*
X0362289Y0237029D01*
X0361529Y0237789D01*
X0360537Y0238200D01*
X0352063Y0238200D01*
X0351071Y0237789D01*
X0350311Y0237029D01*
X0349900Y0236037D01*
X0349900Y0227563D01*
X0350311Y0226571D01*
X0351071Y0225811D01*
X0352063Y0225400D01*
X0352800Y0225400D01*
X0352800Y0223104D01*
X0353333Y0221817D01*
X0354317Y0220833D01*
X0353704Y0221446D02*
X0077300Y0221446D01*
X0077300Y0222045D02*
X0353239Y0222045D01*
X0352991Y0222643D02*
X0290431Y0222643D01*
X0288863Y0222462D02*
X0288863Y0222462D01*
X0287661Y0222643D02*
X0180278Y0222643D01*
X0178131Y0222643D02*
X0077300Y0222643D01*
X0077300Y0223242D02*
X0173420Y0223242D01*
X0172785Y0223322D02*
X0172785Y0223322D01*
X0171311Y0223840D02*
X0077300Y0223840D01*
X0077300Y0224439D02*
X0102433Y0224439D01*
X0102527Y0224400D02*
X0105073Y0224400D01*
X0107425Y0225374D01*
X0109226Y0227175D01*
X0110200Y0229527D01*
X0110200Y0232073D01*
X0109226Y0234425D01*
X0107425Y0236226D01*
X0105073Y0237200D01*
X0102527Y0237200D01*
X0100175Y0236226D01*
X0099269Y0235320D01*
X0099226Y0235425D01*
X0097425Y0237226D01*
X0095073Y0238200D01*
X0092527Y0238200D01*
X0090175Y0237226D01*
X0088374Y0235425D01*
X0087737Y0233887D01*
X0087614Y0234057D01*
X0087057Y0234614D01*
X0086421Y0235076D01*
X0085719Y0235434D01*
X0084971Y0235677D01*
X0084194Y0235800D01*
X0084100Y0235800D01*
X0084100Y0231100D01*
X0083500Y0231100D01*
X0083500Y0235800D01*
X0083406Y0235800D01*
X0082629Y0235677D01*
X0081881Y0235434D01*
X0081179Y0235076D01*
X0080543Y0234614D01*
X0080200Y0234271D01*
X0080200Y0236037D01*
X0079789Y0237029D01*
X0079029Y0237789D01*
X0078037Y0238200D01*
X0069563Y0238200D01*
X0068571Y0237789D01*
X0067811Y0237029D01*
X0067400Y0236037D01*
X0067400Y0227563D01*
X0067811Y0226571D01*
X0068571Y0225811D01*
X0069563Y0225400D01*
X0070300Y0225400D01*
X0070300Y0185250D01*
X0038039Y0152989D01*
X0037967Y0152989D01*
X0036427Y0152351D01*
X0035249Y0151173D01*
X0034611Y0149633D01*
X0034611Y0147967D01*
X0035249Y0146427D01*
X0036427Y0145249D01*
X0037967Y0144611D01*
X0039633Y0144611D01*
X0041173Y0145249D01*
X0042351Y0146427D01*
X0042989Y0147967D01*
X0042989Y0148039D01*
X0050850Y0155900D01*
X0081639Y0155900D01*
X0082971Y0154568D01*
X0085066Y0153700D01*
X0093334Y0153700D01*
X0095429Y0154568D01*
X0097032Y0156171D01*
X0097900Y0158266D01*
X0097900Y0160534D01*
X0097032Y0162629D01*
X0095429Y0164232D01*
X0093334Y0165100D01*
X0085066Y0165100D01*
X0082971Y0164232D01*
X0081639Y0162900D01*
X0057850Y0162900D01*
X0076767Y0181817D01*
X0077300Y0183104D01*
X0077300Y0225400D01*
X0078037Y0225400D01*
X0079029Y0225811D01*
X0079789Y0226571D01*
X0080131Y0227397D01*
X0080543Y0226986D01*
X0081179Y0226524D01*
X0081881Y0226166D01*
X0082629Y0225923D01*
X0083406Y0225800D01*
X0083500Y0225800D01*
X0083500Y0230500D01*
X0084100Y0230500D01*
X0084100Y0225800D01*
X0084194Y0225800D01*
X0084971Y0225923D01*
X0085719Y0226166D01*
X0086421Y0226524D01*
X0087057Y0226986D01*
X0087614Y0227543D01*
X0088076Y0228179D01*
X0088240Y0228500D01*
X0088374Y0228175D01*
X0090175Y0226374D01*
X0092527Y0225400D01*
X0095073Y0225400D01*
X0097425Y0226374D01*
X0098331Y0227280D01*
X0098374Y0227175D01*
X0100175Y0225374D01*
X0102527Y0224400D01*
X0100988Y0225037D02*
X0077300Y0225037D01*
X0078606Y0225636D02*
X0091958Y0225636D01*
X0090513Y0226234D02*
X0085853Y0226234D01*
X0086846Y0226833D02*
X0089716Y0226833D01*
X0089118Y0227431D02*
X0087502Y0227431D01*
X0087968Y0228030D02*
X0088519Y0228030D01*
X0084100Y0228030D02*
X0083500Y0228030D01*
X0083500Y0228628D02*
X0084100Y0228628D01*
X0084100Y0229227D02*
X0083500Y0229227D01*
X0083500Y0229825D02*
X0084100Y0229825D01*
X0084100Y0230424D02*
X0083500Y0230424D01*
X0083500Y0231621D02*
X0084100Y0231621D01*
X0084100Y0232219D02*
X0083500Y0232219D01*
X0083500Y0232818D02*
X0084100Y0232818D01*
X0084100Y0233416D02*
X0083500Y0233416D01*
X0083500Y0234015D02*
X0084100Y0234015D01*
X0084100Y0234613D02*
X0083500Y0234613D01*
X0083500Y0235212D02*
X0084100Y0235212D01*
X0086154Y0235212D02*
X0088286Y0235212D01*
X0088038Y0234613D02*
X0087058Y0234613D01*
X0087645Y0234015D02*
X0087790Y0234015D01*
X0088760Y0235810D02*
X0080200Y0235810D01*
X0080200Y0235212D02*
X0081446Y0235212D01*
X0080542Y0234613D02*
X0080200Y0234613D01*
X0080046Y0236409D02*
X0089358Y0236409D01*
X0089957Y0237008D02*
X0079798Y0237008D01*
X0079212Y0237606D02*
X0091093Y0237606D01*
X0096507Y0237606D02*
X0153526Y0237606D01*
X0154022Y0237008D02*
X0105538Y0237008D01*
X0106983Y0236409D02*
X0154519Y0236409D01*
X0155016Y0235810D02*
X0107840Y0235810D01*
X0108439Y0235212D02*
X0155485Y0235212D01*
X0155893Y0234613D02*
X0109037Y0234613D01*
X0109396Y0234015D02*
X0156301Y0234015D01*
X0156710Y0233416D02*
X0109644Y0233416D01*
X0109891Y0232818D02*
X0157177Y0232818D01*
X0157008Y0232979D02*
X0157008Y0232979D01*
X0157806Y0232219D02*
X0110139Y0232219D01*
X0110200Y0231621D02*
X0158435Y0231621D01*
X0159064Y0231022D02*
X0110200Y0231022D01*
X0110200Y0230424D02*
X0159693Y0230424D01*
X0160321Y0229825D02*
X0110200Y0229825D01*
X0110076Y0229227D02*
X0160950Y0229227D01*
X0161600Y0228628D02*
X0109828Y0228628D01*
X0109580Y0228030D02*
X0162578Y0228030D01*
X0163556Y0227431D02*
X0109332Y0227431D01*
X0108884Y0226833D02*
X0164533Y0226833D01*
X0165511Y0226234D02*
X0108285Y0226234D01*
X0107687Y0225636D02*
X0166489Y0225636D01*
X0166880Y0225397D02*
X0166880Y0225397D01*
X0167903Y0225037D02*
X0106612Y0225037D01*
X0105167Y0224439D02*
X0169607Y0224439D01*
X0183614Y0215461D02*
X0196950Y0215461D01*
X0195505Y0214863D02*
X0184456Y0214863D01*
X0184899Y0214264D02*
X0194713Y0214264D01*
X0194115Y0213666D02*
X0185147Y0213666D01*
X0185200Y0213067D02*
X0187291Y0213067D01*
X0188500Y0213067D02*
X0189100Y0213067D01*
X0189100Y0212469D02*
X0188500Y0212469D01*
X0188500Y0211870D02*
X0189100Y0211870D01*
X0189100Y0211272D02*
X0188500Y0211272D01*
X0188500Y0210673D02*
X0189100Y0210673D01*
X0189100Y0210074D02*
X0188500Y0210074D01*
X0188500Y0209476D02*
X0189100Y0209476D01*
X0189100Y0208877D02*
X0188500Y0208877D01*
X0188500Y0207680D02*
X0189100Y0207680D01*
X0189100Y0207082D02*
X0188500Y0207082D01*
X0188500Y0206483D02*
X0189100Y0206483D01*
X0189100Y0205885D02*
X0188500Y0205885D01*
X0188500Y0205286D02*
X0189100Y0205286D01*
X0189100Y0204688D02*
X0188500Y0204688D01*
X0188500Y0204089D02*
X0189100Y0204089D01*
X0189100Y0203491D02*
X0188500Y0203491D01*
X0187421Y0203491D02*
X0184209Y0203491D01*
X0184797Y0204089D02*
X0186089Y0204089D01*
X0185341Y0204688D02*
X0185045Y0204688D01*
X0182300Y0202892D02*
X0205157Y0202892D01*
X0204558Y0203491D02*
X0201500Y0203491D01*
X0202640Y0204089D02*
X0203960Y0204089D01*
X0203369Y0204688D02*
X0203239Y0204688D01*
X0206576Y0202294D02*
X0182300Y0202294D01*
X0190179Y0203491D02*
X0196100Y0203491D01*
X0194960Y0204089D02*
X0191511Y0204089D01*
X0192259Y0204688D02*
X0194361Y0204688D01*
X0193763Y0205286D02*
X0192791Y0205286D01*
X0193181Y0205885D02*
X0193287Y0205885D01*
X0192937Y0211870D02*
X0192301Y0211870D01*
X0191569Y0212469D02*
X0193185Y0212469D01*
X0193516Y0213067D02*
X0190309Y0213067D01*
X0186031Y0212469D02*
X0185200Y0212469D01*
X0185200Y0211870D02*
X0185299Y0211870D01*
X0200650Y0215461D02*
X0248986Y0215461D01*
X0248144Y0214863D02*
X0202095Y0214863D01*
X0202887Y0214264D02*
X0206475Y0214264D01*
X0205115Y0213666D02*
X0203485Y0213666D01*
X0204084Y0213067D02*
X0204516Y0213067D01*
X0211125Y0214264D02*
X0247701Y0214264D01*
X0247453Y0213666D02*
X0212485Y0213666D01*
X0213084Y0213067D02*
X0247400Y0213067D01*
X0247400Y0212469D02*
X0213682Y0212469D01*
X0214249Y0211870D02*
X0224566Y0211870D01*
X0223822Y0211272D02*
X0214496Y0211272D01*
X0214744Y0210673D02*
X0223223Y0210673D01*
X0223310Y0196309D02*
X0235200Y0196309D01*
X0234059Y0195710D02*
X0229631Y0195710D01*
X0231076Y0195112D02*
X0233461Y0195112D01*
X0232862Y0194513D02*
X0231938Y0194513D01*
X0226169Y0195710D02*
X0223897Y0195710D01*
X0224145Y0195112D02*
X0224724Y0195112D01*
X0232987Y0185536D02*
X0233813Y0185536D01*
X0234606Y0184937D02*
X0232388Y0184937D01*
X0231789Y0184339D02*
X0236051Y0184339D01*
X0239749Y0184339D02*
X0265812Y0184339D01*
X0266410Y0183740D02*
X0230718Y0183740D01*
X0229273Y0183141D02*
X0267009Y0183141D01*
X0267607Y0182543D02*
X0210007Y0182543D01*
X0210605Y0181944D02*
X0268206Y0181944D01*
X0268804Y0181346D02*
X0211204Y0181346D01*
X0211802Y0180747D02*
X0269403Y0180747D01*
X0270001Y0180149D02*
X0212401Y0180149D01*
X0212999Y0179550D02*
X0270300Y0179550D01*
X0270300Y0178952D02*
X0213598Y0178952D01*
X0214196Y0178353D02*
X0270300Y0178353D01*
X0270300Y0177755D02*
X0214795Y0177755D01*
X0215393Y0177156D02*
X0270300Y0177156D01*
X0270300Y0176558D02*
X0215992Y0176558D01*
X0216590Y0175959D02*
X0270160Y0175959D01*
X0269912Y0175361D02*
X0217189Y0175361D01*
X0217787Y0174762D02*
X0257822Y0174762D01*
X0256529Y0174164D02*
X0218386Y0174164D01*
X0218984Y0173565D02*
X0255931Y0173565D01*
X0255332Y0172967D02*
X0219583Y0172967D01*
X0220181Y0172368D02*
X0254980Y0172368D01*
X0254732Y0171770D02*
X0220780Y0171770D01*
X0221378Y0171171D02*
X0254484Y0171171D01*
X0254350Y0170573D02*
X0221977Y0170573D01*
X0222575Y0169974D02*
X0254350Y0169974D01*
X0254350Y0169376D02*
X0223174Y0169376D01*
X0223773Y0168777D02*
X0254350Y0168777D01*
X0254587Y0168179D02*
X0224371Y0168179D01*
X0224970Y0167580D02*
X0254835Y0167580D01*
X0255083Y0166982D02*
X0225568Y0166982D01*
X0226167Y0166383D02*
X0255582Y0166383D01*
X0256181Y0165785D02*
X0226765Y0165785D01*
X0227364Y0165186D02*
X0256980Y0165186D01*
X0258425Y0164588D02*
X0227962Y0164588D01*
X0228561Y0163989D02*
X0291161Y0163989D01*
X0290563Y0164588D02*
X0265975Y0164588D01*
X0265905Y0163526D02*
X0265156Y0163675D01*
X0262500Y0163675D01*
X0262500Y0160100D01*
X0261900Y0160100D01*
X0261900Y0163675D01*
X0259244Y0163675D01*
X0258495Y0163526D01*
X0257790Y0163234D01*
X0257155Y0162810D01*
X0256615Y0162270D01*
X0256191Y0161635D01*
X0255899Y0160930D01*
X0255750Y0160182D01*
X0255750Y0160100D01*
X0261900Y0160100D01*
X0261900Y0159500D01*
X0262500Y0159500D01*
X0262500Y0160100D01*
X0268650Y0160100D01*
X0268650Y0160182D01*
X0268501Y0160930D01*
X0268209Y0161635D01*
X0267785Y0162270D01*
X0267245Y0162810D01*
X0266610Y0163234D01*
X0265905Y0163526D01*
X0266232Y0163391D02*
X0291760Y0163391D01*
X0292358Y0162792D02*
X0267262Y0162792D01*
X0267836Y0162194D02*
X0292957Y0162194D01*
X0293555Y0161595D02*
X0268225Y0161595D01*
X0268473Y0160997D02*
X0294154Y0160997D01*
X0294752Y0160398D02*
X0268607Y0160398D01*
X0268650Y0159500D02*
X0262500Y0159500D01*
X0262500Y0155925D01*
X0265156Y0155925D01*
X0265905Y0156074D01*
X0266610Y0156366D01*
X0267245Y0156790D01*
X0267785Y0157330D01*
X0268209Y0157965D01*
X0268501Y0158670D01*
X0268650Y0159418D01*
X0268650Y0159500D01*
X0268606Y0159201D02*
X0295300Y0159201D01*
X0295300Y0158603D02*
X0268473Y0158603D01*
X0268225Y0158004D02*
X0295300Y0158004D01*
X0295300Y0157405D02*
X0267835Y0157405D01*
X0267262Y0156807D02*
X0295300Y0156807D01*
X0295300Y0156208D02*
X0266229Y0156208D01*
X0265977Y0155011D02*
X0295300Y0155011D01*
X0295300Y0154413D02*
X0267422Y0154413D01*
X0268220Y0153814D02*
X0295300Y0153814D01*
X0295300Y0153216D02*
X0268819Y0153216D01*
X0269317Y0152617D02*
X0295300Y0152617D01*
X0295300Y0152019D02*
X0269565Y0152019D01*
X0269813Y0151420D02*
X0295300Y0151420D01*
X0295300Y0150822D02*
X0270050Y0150822D01*
X0270050Y0150223D02*
X0295300Y0150223D01*
X0295300Y0149625D02*
X0270050Y0149625D01*
X0270050Y0149026D02*
X0295300Y0149026D01*
X0295300Y0148428D02*
X0269916Y0148428D01*
X0269668Y0147829D02*
X0295300Y0147829D01*
X0295300Y0147231D02*
X0269420Y0147231D01*
X0269067Y0146632D02*
X0295300Y0146632D01*
X0295300Y0146034D02*
X0268468Y0146034D01*
X0267870Y0145435D02*
X0295300Y0145435D01*
X0295300Y0144837D02*
X0266576Y0144837D01*
X0267796Y0144238D02*
X0295300Y0144238D01*
X0295300Y0143640D02*
X0268395Y0143640D01*
X0268993Y0143041D02*
X0295300Y0143041D01*
X0291648Y0142443D02*
X0269390Y0142443D01*
X0257824Y0144837D02*
X0247159Y0144837D01*
X0247300Y0144238D02*
X0256604Y0144238D01*
X0256005Y0143640D02*
X0247300Y0143640D01*
X0247300Y0143041D02*
X0255407Y0143041D01*
X0255010Y0142443D02*
X0247300Y0142443D01*
X0247300Y0141844D02*
X0254763Y0141844D01*
X0254515Y0141246D02*
X0247300Y0141246D01*
X0247300Y0140647D02*
X0254350Y0140647D01*
X0254350Y0140049D02*
X0247300Y0140049D01*
X0247300Y0139450D02*
X0254350Y0139450D01*
X0254350Y0138852D02*
X0247300Y0138852D01*
X0247300Y0138253D02*
X0254557Y0138253D01*
X0254804Y0137655D02*
X0247300Y0137655D01*
X0247300Y0137056D02*
X0255052Y0137056D01*
X0255508Y0136458D02*
X0247300Y0136458D01*
X0247300Y0135859D02*
X0256106Y0135859D01*
X0256801Y0135261D02*
X0247300Y0135261D01*
X0247300Y0134662D02*
X0257580Y0134662D01*
X0256429Y0134064D02*
X0247300Y0134064D01*
X0247300Y0133465D02*
X0255831Y0133465D01*
X0255232Y0132867D02*
X0247300Y0132867D01*
X0247300Y0132268D02*
X0254938Y0132268D01*
X0254690Y0131670D02*
X0247300Y0131670D01*
X0247300Y0131071D02*
X0254442Y0131071D01*
X0254350Y0130472D02*
X0247300Y0130472D01*
X0247300Y0129874D02*
X0254350Y0129874D01*
X0254350Y0129275D02*
X0247300Y0129275D01*
X0247300Y0128677D02*
X0254381Y0128677D01*
X0254629Y0128078D02*
X0247300Y0128078D01*
X0247300Y0127480D02*
X0254877Y0127480D01*
X0255125Y0126881D02*
X0247300Y0126881D01*
X0247300Y0126283D02*
X0255683Y0126283D01*
X0256281Y0125684D02*
X0247300Y0125684D01*
X0247300Y0125086D02*
X0257222Y0125086D01*
X0257158Y0124487D02*
X0247300Y0124487D01*
X0247300Y0123889D02*
X0256254Y0123889D01*
X0255656Y0123290D02*
X0247300Y0123290D01*
X0247300Y0122692D02*
X0255114Y0122692D01*
X0254866Y0122093D02*
X0247300Y0122093D01*
X0247300Y0121495D02*
X0254618Y0121495D01*
X0254370Y0120896D02*
X0247300Y0120896D01*
X0247300Y0120298D02*
X0254350Y0120298D01*
X0254350Y0119699D02*
X0247300Y0119699D01*
X0247300Y0119101D02*
X0254350Y0119101D01*
X0254453Y0118502D02*
X0247300Y0118502D01*
X0247300Y0117904D02*
X0254701Y0117904D01*
X0254949Y0117305D02*
X0247300Y0117305D01*
X0247300Y0116707D02*
X0255259Y0116707D01*
X0255857Y0116108D02*
X0247300Y0116108D01*
X0247300Y0115510D02*
X0256456Y0115510D01*
X0256736Y0114313D02*
X0247300Y0114313D01*
X0247300Y0114911D02*
X0257644Y0114911D01*
X0256080Y0113714D02*
X0247300Y0113714D01*
X0247300Y0113116D02*
X0255481Y0113116D01*
X0255041Y0112517D02*
X0247300Y0112517D01*
X0247300Y0111919D02*
X0254793Y0111919D01*
X0254545Y0111320D02*
X0247300Y0111320D01*
X0247300Y0110722D02*
X0254350Y0110722D01*
X0254350Y0110123D02*
X0247300Y0110123D01*
X0247300Y0109525D02*
X0254350Y0109525D01*
X0254350Y0108926D02*
X0247300Y0108926D01*
X0247300Y0108328D02*
X0254526Y0108328D01*
X0254774Y0107729D02*
X0247300Y0107729D01*
X0247300Y0107131D02*
X0255022Y0107131D01*
X0255433Y0106532D02*
X0247300Y0106532D01*
X0247300Y0105934D02*
X0256032Y0105934D01*
X0256630Y0105335D02*
X0247300Y0105335D01*
X0247300Y0104737D02*
X0257759Y0104737D01*
X0256503Y0104138D02*
X0247300Y0104138D01*
X0247300Y0103539D02*
X0255905Y0103539D01*
X0255306Y0102941D02*
X0247300Y0102941D01*
X0247300Y0102342D02*
X0254969Y0102342D01*
X0254721Y0101744D02*
X0247300Y0101744D01*
X0247300Y0101145D02*
X0254473Y0101145D01*
X0254350Y0100547D02*
X0247300Y0100547D01*
X0247601Y0099948D02*
X0254350Y0099948D01*
X0254350Y0099350D02*
X0248200Y0099350D01*
X0248798Y0098751D02*
X0254350Y0098751D01*
X0254598Y0098153D02*
X0249397Y0098153D01*
X0249995Y0097554D02*
X0254846Y0097554D01*
X0255094Y0096956D02*
X0250594Y0096956D01*
X0251192Y0096357D02*
X0255608Y0096357D01*
X0256207Y0095759D02*
X0251791Y0095759D01*
X0252389Y0095160D02*
X0257043Y0095160D01*
X0257338Y0094562D02*
X0252988Y0094562D01*
X0253586Y0093963D02*
X0256329Y0093963D01*
X0255730Y0093365D02*
X0254185Y0093365D01*
X0249074Y0088577D02*
X0209977Y0088577D01*
X0210050Y0089175D02*
X0248475Y0089175D01*
X0247877Y0089774D02*
X0210050Y0089774D01*
X0210050Y0090372D02*
X0247278Y0090372D01*
X0246680Y0090971D02*
X0209999Y0090971D01*
X0209751Y0091569D02*
X0246081Y0091569D01*
X0245482Y0092168D02*
X0209503Y0092168D01*
X0209256Y0092766D02*
X0244884Y0092766D01*
X0244285Y0093365D02*
X0208670Y0093365D01*
X0208071Y0093963D02*
X0243687Y0093963D01*
X0243088Y0094562D02*
X0207062Y0094562D01*
X0207357Y0095160D02*
X0242490Y0095160D01*
X0241891Y0095759D02*
X0208193Y0095759D01*
X0208792Y0096357D02*
X0241293Y0096357D01*
X0240775Y0096956D02*
X0209306Y0096956D01*
X0209554Y0097554D02*
X0240528Y0097554D01*
X0240300Y0098153D02*
X0209802Y0098153D01*
X0210050Y0098751D02*
X0240300Y0098751D01*
X0240300Y0099350D02*
X0210050Y0099350D01*
X0210050Y0099948D02*
X0240300Y0099948D01*
X0240300Y0100547D02*
X0210050Y0100547D01*
X0209927Y0101145D02*
X0240300Y0101145D01*
X0240300Y0101744D02*
X0209679Y0101744D01*
X0209431Y0102342D02*
X0240300Y0102342D01*
X0240300Y0102941D02*
X0209094Y0102941D01*
X0208495Y0103539D02*
X0240300Y0103539D01*
X0240300Y0104138D02*
X0207896Y0104138D01*
X0207770Y0105335D02*
X0240300Y0105335D01*
X0240300Y0104737D02*
X0206641Y0104737D01*
X0208368Y0105934D02*
X0240300Y0105934D01*
X0240300Y0106532D02*
X0208967Y0106532D01*
X0209378Y0107131D02*
X0240300Y0107131D01*
X0240300Y0107729D02*
X0209626Y0107729D01*
X0209874Y0108328D02*
X0240300Y0108328D01*
X0240300Y0108926D02*
X0210050Y0108926D01*
X0210050Y0109525D02*
X0240300Y0109525D01*
X0240300Y0110123D02*
X0210050Y0110123D01*
X0210050Y0110722D02*
X0240300Y0110722D01*
X0240300Y0111320D02*
X0209855Y0111320D01*
X0209607Y0111919D02*
X0240300Y0111919D01*
X0240300Y0112517D02*
X0209359Y0112517D01*
X0208919Y0113116D02*
X0240300Y0113116D01*
X0240300Y0113714D02*
X0208320Y0113714D01*
X0207664Y0114313D02*
X0240300Y0114313D01*
X0240300Y0114911D02*
X0206756Y0114911D01*
X0207944Y0115510D02*
X0240300Y0115510D01*
X0240300Y0116108D02*
X0208543Y0116108D01*
X0209141Y0116707D02*
X0240300Y0116707D01*
X0240300Y0117305D02*
X0209451Y0117305D01*
X0209699Y0117904D02*
X0240300Y0117904D01*
X0240300Y0118502D02*
X0209947Y0118502D01*
X0210050Y0119101D02*
X0240300Y0119101D01*
X0240300Y0119699D02*
X0210050Y0119699D01*
X0210050Y0120298D02*
X0240300Y0120298D01*
X0240300Y0120896D02*
X0210030Y0120896D01*
X0209782Y0121495D02*
X0240300Y0121495D01*
X0240300Y0122093D02*
X0209534Y0122093D01*
X0209286Y0122692D02*
X0240300Y0122692D01*
X0240300Y0123290D02*
X0208744Y0123290D01*
X0208146Y0123889D02*
X0240300Y0123889D01*
X0240300Y0124487D02*
X0207242Y0124487D01*
X0207178Y0125086D02*
X0240300Y0125086D01*
X0240300Y0125684D02*
X0208119Y0125684D01*
X0208717Y0126283D02*
X0240300Y0126283D01*
X0240300Y0126881D02*
X0209275Y0126881D01*
X0209523Y0127480D02*
X0240300Y0127480D01*
X0240300Y0128078D02*
X0209771Y0128078D01*
X0210019Y0128677D02*
X0240300Y0128677D01*
X0240300Y0129275D02*
X0210050Y0129275D01*
X0210050Y0129874D02*
X0240300Y0129874D01*
X0240300Y0130472D02*
X0210050Y0130472D01*
X0209958Y0131071D02*
X0240300Y0131071D01*
X0240300Y0131670D02*
X0209710Y0131670D01*
X0209462Y0132268D02*
X0240300Y0132268D01*
X0240300Y0132867D02*
X0209168Y0132867D01*
X0208569Y0133465D02*
X0240300Y0133465D01*
X0240300Y0134064D02*
X0207971Y0134064D01*
X0206820Y0134662D02*
X0240300Y0134662D01*
X0240300Y0135261D02*
X0073527Y0135261D01*
X0073283Y0135016D02*
X0075084Y0136817D01*
X0076058Y0139169D01*
X0076058Y0141715D01*
X0075084Y0144067D01*
X0073283Y0145868D01*
X0070931Y0146842D01*
X0068385Y0146842D01*
X0066033Y0145868D01*
X0064232Y0144067D01*
X0063258Y0141715D01*
X0063258Y0139169D01*
X0064232Y0136817D01*
X0066033Y0135016D01*
X0068385Y0134042D01*
X0070931Y0134042D01*
X0073283Y0135016D01*
X0072428Y0134662D02*
X0197580Y0134662D01*
X0196429Y0134064D02*
X0070983Y0134064D01*
X0068333Y0134064D02*
X0026711Y0134064D01*
X0026556Y0134662D02*
X0066888Y0134662D01*
X0065788Y0135261D02*
X0026402Y0135261D01*
X0026247Y0135859D02*
X0065190Y0135859D01*
X0064591Y0136458D02*
X0026092Y0136458D01*
X0025959Y0137056D02*
X0064133Y0137056D01*
X0063885Y0137655D02*
X0025885Y0137655D01*
X0025811Y0138253D02*
X0063637Y0138253D01*
X0063389Y0138852D02*
X0025737Y0138852D01*
X0025664Y0139450D02*
X0063258Y0139450D01*
X0063258Y0140049D02*
X0025590Y0140049D01*
X0025516Y0140647D02*
X0063258Y0140647D01*
X0063258Y0141246D02*
X0025442Y0141246D01*
X0025368Y0141844D02*
X0063311Y0141844D01*
X0063559Y0142443D02*
X0025294Y0142443D01*
X0025221Y0143041D02*
X0063807Y0143041D01*
X0064055Y0143640D02*
X0025165Y0143640D01*
X0025150Y0144238D02*
X0064403Y0144238D01*
X0065002Y0144837D02*
X0040178Y0144837D01*
X0041359Y0145435D02*
X0065600Y0145435D01*
X0066433Y0146034D02*
X0041958Y0146034D01*
X0042436Y0146632D02*
X0067878Y0146632D01*
X0071437Y0146632D02*
X0083454Y0146632D01*
X0082971Y0146432D02*
X0081368Y0144829D01*
X0080500Y0142734D01*
X0080500Y0140466D01*
X0081368Y0138371D01*
X0082971Y0136768D01*
X0085066Y0135900D01*
X0093334Y0135900D01*
X0095429Y0136768D01*
X0097032Y0138371D01*
X0097900Y0140466D01*
X0097900Y0142734D01*
X0097032Y0144829D01*
X0095429Y0146432D01*
X0093334Y0147300D01*
X0085066Y0147300D01*
X0082971Y0146432D01*
X0082573Y0146034D02*
X0072882Y0146034D01*
X0073716Y0145435D02*
X0081974Y0145435D01*
X0081376Y0144837D02*
X0074314Y0144837D01*
X0074913Y0144238D02*
X0081123Y0144238D01*
X0080875Y0143640D02*
X0075261Y0143640D01*
X0075509Y0143041D02*
X0080627Y0143041D01*
X0080500Y0142443D02*
X0075756Y0142443D01*
X0076004Y0141844D02*
X0080500Y0141844D01*
X0080500Y0141246D02*
X0076058Y0141246D01*
X0076058Y0140647D02*
X0080500Y0140647D01*
X0080673Y0140049D02*
X0076058Y0140049D01*
X0076058Y0139450D02*
X0080921Y0139450D01*
X0081169Y0138852D02*
X0075926Y0138852D01*
X0075678Y0138253D02*
X0081486Y0138253D01*
X0082084Y0137655D02*
X0075431Y0137655D01*
X0075183Y0137056D02*
X0082683Y0137056D01*
X0083720Y0136458D02*
X0074724Y0136458D01*
X0074126Y0135859D02*
X0240300Y0135859D01*
X0240300Y0136458D02*
X0206747Y0136458D01*
X0206610Y0136366D02*
X0207245Y0136790D01*
X0207785Y0137330D01*
X0208209Y0137965D01*
X0208501Y0138670D01*
X0208650Y0139418D01*
X0208650Y0139500D01*
X0202500Y0139500D01*
X0202500Y0140100D01*
X0201900Y0140100D01*
X0201900Y0143675D01*
X0199244Y0143675D01*
X0198495Y0143526D01*
X0197790Y0143234D01*
X0197155Y0142810D01*
X0196615Y0142270D01*
X0196191Y0141635D01*
X0195899Y0140930D01*
X0195750Y0140182D01*
X0195750Y0140100D01*
X0201900Y0140100D01*
X0201900Y0139500D01*
X0202500Y0139500D01*
X0202500Y0135925D01*
X0205156Y0135925D01*
X0205905Y0136074D01*
X0206610Y0136366D01*
X0207511Y0137056D02*
X0240300Y0137056D01*
X0240300Y0137655D02*
X0208001Y0137655D01*
X0208328Y0138253D02*
X0240300Y0138253D01*
X0240300Y0138852D02*
X0208537Y0138852D01*
X0208650Y0139450D02*
X0240300Y0139450D01*
X0240300Y0140049D02*
X0202500Y0140049D01*
X0202500Y0140100D02*
X0208650Y0140100D01*
X0208650Y0140182D01*
X0208501Y0140930D01*
X0208209Y0141635D01*
X0207785Y0142270D01*
X0207245Y0142810D01*
X0206610Y0143234D01*
X0205905Y0143526D01*
X0205156Y0143675D01*
X0202500Y0143675D01*
X0202500Y0140100D01*
X0202500Y0140647D02*
X0201900Y0140647D01*
X0201900Y0140049D02*
X0123327Y0140049D01*
X0123500Y0140466D02*
X0123500Y0142734D01*
X0122632Y0144829D01*
X0121029Y0146432D01*
X0118934Y0147300D01*
X0110666Y0147300D01*
X0108571Y0146432D01*
X0106968Y0144829D01*
X0106100Y0142734D01*
X0106100Y0140466D01*
X0106968Y0138371D01*
X0108571Y0136768D01*
X0110666Y0135900D01*
X0118934Y0135900D01*
X0121029Y0136768D01*
X0122632Y0138371D01*
X0123500Y0140466D01*
X0123500Y0140647D02*
X0195843Y0140647D01*
X0196030Y0141246D02*
X0123500Y0141246D01*
X0123500Y0141844D02*
X0196331Y0141844D01*
X0196788Y0142443D02*
X0123500Y0142443D01*
X0123373Y0143041D02*
X0197502Y0143041D01*
X0199067Y0143640D02*
X0123125Y0143640D01*
X0122877Y0144238D02*
X0238412Y0144238D01*
X0239011Y0143640D02*
X0205333Y0143640D01*
X0205824Y0144525D02*
X0207763Y0145328D01*
X0209247Y0146812D01*
X0210050Y0148751D01*
X0210050Y0150849D01*
X0209247Y0152788D01*
X0207763Y0154272D01*
X0206487Y0154800D01*
X0207763Y0155328D01*
X0209247Y0156812D01*
X0210050Y0158751D01*
X0210050Y0160849D01*
X0209247Y0162788D01*
X0207763Y0164272D01*
X0206487Y0164800D01*
X0207763Y0165328D01*
X0209247Y0166812D01*
X0210050Y0168751D01*
X0210050Y0170849D01*
X0209247Y0172788D01*
X0207763Y0174272D01*
X0205824Y0175075D01*
X0198576Y0175075D01*
X0196637Y0174272D01*
X0195153Y0172788D01*
X0194350Y0170849D01*
X0194350Y0168751D01*
X0195153Y0166812D01*
X0196637Y0165328D01*
X0197913Y0164800D01*
X0196637Y0164272D01*
X0195153Y0162788D01*
X0194350Y0160849D01*
X0194350Y0158751D01*
X0195153Y0156812D01*
X0196637Y0155328D01*
X0197913Y0154800D01*
X0196637Y0154272D01*
X0195153Y0152788D01*
X0194350Y0150849D01*
X0194350Y0148751D01*
X0195153Y0146812D01*
X0196637Y0145328D01*
X0198576Y0144525D01*
X0205824Y0144525D01*
X0206576Y0144837D02*
X0237813Y0144837D01*
X0237215Y0145435D02*
X0207870Y0145435D01*
X0208468Y0146034D02*
X0236616Y0146034D01*
X0236018Y0146632D02*
X0209067Y0146632D01*
X0209420Y0147231D02*
X0235419Y0147231D01*
X0234821Y0147829D02*
X0209668Y0147829D01*
X0209916Y0148428D02*
X0234222Y0148428D01*
X0233624Y0149026D02*
X0210050Y0149026D01*
X0210050Y0149625D02*
X0233025Y0149625D01*
X0232427Y0150223D02*
X0210050Y0150223D01*
X0210050Y0150822D02*
X0231828Y0150822D01*
X0231230Y0151420D02*
X0209813Y0151420D01*
X0209565Y0152019D02*
X0230631Y0152019D01*
X0230033Y0152617D02*
X0209317Y0152617D01*
X0208819Y0153216D02*
X0229434Y0153216D01*
X0228836Y0153814D02*
X0208220Y0153814D01*
X0207422Y0154413D02*
X0228237Y0154413D01*
X0227639Y0155011D02*
X0206998Y0155011D01*
X0208044Y0155610D02*
X0227040Y0155610D01*
X0226442Y0156208D02*
X0208643Y0156208D01*
X0209241Y0156807D02*
X0225843Y0156807D01*
X0225245Y0157405D02*
X0209492Y0157405D01*
X0209740Y0158004D02*
X0224646Y0158004D01*
X0224048Y0158603D02*
X0209988Y0158603D01*
X0210050Y0159201D02*
X0223449Y0159201D01*
X0222851Y0159800D02*
X0210050Y0159800D01*
X0210050Y0160398D02*
X0222252Y0160398D01*
X0221654Y0160997D02*
X0209989Y0160997D01*
X0209741Y0161595D02*
X0221055Y0161595D01*
X0220457Y0162194D02*
X0209493Y0162194D01*
X0209242Y0162792D02*
X0219858Y0162792D01*
X0219260Y0163391D02*
X0208644Y0163391D01*
X0208045Y0163989D02*
X0218661Y0163989D01*
X0218063Y0164588D02*
X0207000Y0164588D01*
X0207420Y0165186D02*
X0217464Y0165186D01*
X0216866Y0165785D02*
X0208219Y0165785D01*
X0208818Y0166383D02*
X0216267Y0166383D01*
X0215669Y0166982D02*
X0209317Y0166982D01*
X0209565Y0167580D02*
X0215070Y0167580D01*
X0214472Y0168179D02*
X0209813Y0168179D01*
X0210050Y0168777D02*
X0213873Y0168777D01*
X0213275Y0169376D02*
X0210050Y0169376D01*
X0210050Y0169974D02*
X0212676Y0169974D01*
X0212077Y0170573D02*
X0210050Y0170573D01*
X0209916Y0171171D02*
X0211479Y0171171D01*
X0210880Y0171770D02*
X0209668Y0171770D01*
X0209420Y0172368D02*
X0210282Y0172368D01*
X0209683Y0172967D02*
X0209068Y0172967D01*
X0209085Y0173565D02*
X0208469Y0173565D01*
X0208486Y0174164D02*
X0207871Y0174164D01*
X0207888Y0174762D02*
X0206578Y0174762D01*
X0207289Y0175361D02*
X0070311Y0175361D01*
X0070909Y0175959D02*
X0206691Y0175959D01*
X0206092Y0176558D02*
X0071508Y0176558D01*
X0072106Y0177156D02*
X0205494Y0177156D01*
X0204895Y0177755D02*
X0072705Y0177755D01*
X0073303Y0178353D02*
X0204297Y0178353D01*
X0203698Y0178952D02*
X0073902Y0178952D01*
X0074500Y0179550D02*
X0203100Y0179550D01*
X0202501Y0180149D02*
X0075099Y0180149D01*
X0075697Y0180747D02*
X0201903Y0180747D01*
X0201304Y0181346D02*
X0076296Y0181346D01*
X0076820Y0181944D02*
X0200706Y0181944D01*
X0199424Y0182543D02*
X0077068Y0182543D01*
X0077300Y0183141D02*
X0198534Y0183141D01*
X0197936Y0183740D02*
X0077300Y0183740D01*
X0077300Y0184339D02*
X0197578Y0184339D01*
X0197330Y0184937D02*
X0077300Y0184937D01*
X0077300Y0185536D02*
X0197111Y0185536D01*
X0197111Y0186134D02*
X0077300Y0186134D01*
X0077300Y0186733D02*
X0197111Y0186733D01*
X0205817Y0186733D02*
X0211500Y0186733D01*
X0211553Y0186134D02*
X0206416Y0186134D01*
X0207014Y0185536D02*
X0211801Y0185536D01*
X0212245Y0184937D02*
X0207613Y0184937D01*
X0208211Y0184339D02*
X0213087Y0184339D01*
X0209408Y0183141D02*
X0226527Y0183141D01*
X0225082Y0183740D02*
X0208810Y0183740D01*
X0222713Y0184339D02*
X0224011Y0184339D01*
X0241194Y0184937D02*
X0245842Y0184937D01*
X0244850Y0185536D02*
X0241987Y0185536D01*
X0242585Y0186134D02*
X0244195Y0186134D01*
X0243730Y0186733D02*
X0243184Y0186733D01*
X0247600Y0190324D02*
X0248200Y0190324D01*
X0248200Y0190922D02*
X0247600Y0190922D01*
X0247600Y0191521D02*
X0248200Y0191521D01*
X0248200Y0192119D02*
X0247600Y0192119D01*
X0247600Y0192718D02*
X0248200Y0192718D01*
X0248200Y0193316D02*
X0247600Y0193316D01*
X0247600Y0193915D02*
X0248200Y0193915D01*
X0259797Y0204089D02*
X0261089Y0204089D01*
X0260341Y0204688D02*
X0260045Y0204688D01*
X0260200Y0211870D02*
X0260299Y0211870D01*
X0260200Y0212469D02*
X0261031Y0212469D01*
X0260200Y0213067D02*
X0262291Y0213067D01*
X0266569Y0212469D02*
X0268185Y0212469D01*
X0267937Y0211870D02*
X0267301Y0211870D01*
X0293795Y0223031D02*
X0293795Y0223031D01*
X0294323Y0223242D02*
X0352800Y0223242D01*
X0352800Y0223840D02*
X0295825Y0223840D01*
X0297328Y0224439D02*
X0352800Y0224439D01*
X0352800Y0225037D02*
X0298631Y0225037D01*
X0299430Y0225636D02*
X0351494Y0225636D01*
X0350647Y0226234D02*
X0300228Y0226234D01*
X0301026Y0226833D02*
X0350202Y0226833D01*
X0349955Y0227431D02*
X0301824Y0227431D01*
X0302521Y0228030D02*
X0349900Y0228030D01*
X0349900Y0228628D02*
X0302988Y0228628D01*
X0303456Y0229227D02*
X0349900Y0229227D01*
X0349900Y0229825D02*
X0303932Y0229825D01*
X0304391Y0230424D02*
X0349900Y0230424D01*
X0349900Y0231022D02*
X0304746Y0231022D01*
X0305153Y0231621D02*
X0349900Y0231621D01*
X0349900Y0232219D02*
X0305559Y0232219D01*
X0305966Y0232818D02*
X0349900Y0232818D01*
X0349900Y0233416D02*
X0306373Y0233416D01*
X0306779Y0234015D02*
X0349900Y0234015D01*
X0349900Y0234613D02*
X0307186Y0234613D01*
X0307593Y0235212D02*
X0349900Y0235212D01*
X0349900Y0235810D02*
X0307999Y0235810D01*
X0308406Y0236409D02*
X0350054Y0236409D01*
X0350302Y0237008D02*
X0308813Y0237008D01*
X0309219Y0237606D02*
X0350888Y0237606D01*
X0361712Y0237606D02*
X0373593Y0237606D01*
X0372457Y0237008D02*
X0362298Y0237008D01*
X0362546Y0236409D02*
X0371858Y0236409D01*
X0371260Y0235810D02*
X0362700Y0235810D01*
X0362700Y0235212D02*
X0363946Y0235212D01*
X0363042Y0234613D02*
X0362700Y0234613D01*
X0366000Y0234613D02*
X0366600Y0234613D01*
X0366600Y0234015D02*
X0366000Y0234015D01*
X0366000Y0233416D02*
X0366600Y0233416D01*
X0366600Y0232818D02*
X0366000Y0232818D01*
X0366000Y0232219D02*
X0366600Y0232219D01*
X0366600Y0231621D02*
X0366000Y0231621D01*
X0366000Y0230424D02*
X0366600Y0230424D01*
X0366600Y0229825D02*
X0366000Y0229825D01*
X0366000Y0229227D02*
X0366600Y0229227D01*
X0366600Y0228628D02*
X0366000Y0228628D01*
X0366000Y0228030D02*
X0366600Y0228030D01*
X0366600Y0227431D02*
X0366000Y0227431D01*
X0366000Y0226833D02*
X0366600Y0226833D01*
X0366600Y0226234D02*
X0366000Y0226234D01*
X0364247Y0226234D02*
X0361953Y0226234D01*
X0362398Y0226833D02*
X0363254Y0226833D01*
X0361106Y0225636D02*
X0374458Y0225636D01*
X0373013Y0226234D02*
X0368353Y0226234D01*
X0369346Y0226833D02*
X0372216Y0226833D01*
X0371618Y0227431D02*
X0370002Y0227431D01*
X0370468Y0228030D02*
X0371019Y0228030D01*
X0378142Y0225636D02*
X0382413Y0225636D01*
X0381815Y0226234D02*
X0379587Y0226234D01*
X0380384Y0226833D02*
X0381216Y0226833D01*
X0383488Y0225037D02*
X0359800Y0225037D01*
X0359800Y0224439D02*
X0384933Y0224439D01*
X0387667Y0224439D02*
X0392537Y0224439D01*
X0392749Y0223927D02*
X0392800Y0223876D01*
X0392800Y0211224D01*
X0392749Y0211173D01*
X0392111Y0209633D01*
X0392111Y0207967D01*
X0392749Y0206427D01*
X0393927Y0205249D01*
X0395467Y0204611D01*
X0397133Y0204611D01*
X0398673Y0205249D01*
X0399851Y0206427D01*
X0400489Y0207967D01*
X0400489Y0209633D01*
X0399851Y0211173D01*
X0399800Y0211224D01*
X0399800Y0223876D01*
X0399851Y0223927D01*
X0400489Y0225467D01*
X0400489Y0227133D01*
X0399851Y0228673D01*
X0398673Y0229851D01*
X0397133Y0230489D01*
X0395467Y0230489D01*
X0393927Y0229851D01*
X0392749Y0228673D01*
X0392111Y0227133D01*
X0392111Y0225467D01*
X0392749Y0223927D01*
X0392800Y0223840D02*
X0359800Y0223840D01*
X0359800Y0223242D02*
X0392800Y0223242D01*
X0392800Y0222643D02*
X0359609Y0222643D01*
X0359361Y0222045D02*
X0392800Y0222045D01*
X0392800Y0221446D02*
X0358896Y0221446D01*
X0358297Y0220848D02*
X0392800Y0220848D01*
X0392289Y0225037D02*
X0389112Y0225037D01*
X0390187Y0225636D02*
X0392111Y0225636D01*
X0392111Y0226234D02*
X0390785Y0226234D01*
X0391384Y0226833D02*
X0392111Y0226833D01*
X0392234Y0227431D02*
X0391832Y0227431D01*
X0392080Y0228030D02*
X0392482Y0228030D01*
X0392328Y0228628D02*
X0392730Y0228628D01*
X0392576Y0229227D02*
X0393303Y0229227D01*
X0393901Y0229825D02*
X0392700Y0229825D01*
X0392700Y0230424D02*
X0395310Y0230424D01*
X0397290Y0230424D02*
X0429507Y0230424D01*
X0429263Y0231022D02*
X0392700Y0231022D01*
X0392700Y0231621D02*
X0429019Y0231621D01*
X0428775Y0232219D02*
X0392639Y0232219D01*
X0392391Y0232818D02*
X0428514Y0232818D01*
X0428201Y0233416D02*
X0392144Y0233416D01*
X0391896Y0234015D02*
X0427887Y0234015D01*
X0427574Y0234613D02*
X0391537Y0234613D01*
X0390939Y0235212D02*
X0427261Y0235212D01*
X0426948Y0235810D02*
X0390340Y0235810D01*
X0389483Y0236409D02*
X0426635Y0236409D01*
X0426322Y0237008D02*
X0388038Y0237008D01*
X0384562Y0237008D02*
X0380143Y0237008D01*
X0380742Y0236409D02*
X0383117Y0236409D01*
X0382260Y0235810D02*
X0381340Y0235810D01*
X0379007Y0237606D02*
X0425984Y0237606D01*
X0426127Y0237381D02*
X0426127Y0237381D01*
X0425603Y0238205D02*
X0309626Y0238205D01*
X0310033Y0238803D02*
X0425222Y0238803D01*
X0424829Y0239402D02*
X0310439Y0239402D01*
X0310846Y0240000D02*
X0424299Y0240000D01*
X0423768Y0240599D02*
X0311253Y0240599D01*
X0311659Y0241197D02*
X0423238Y0241197D01*
X0422708Y0241796D02*
X0312066Y0241796D01*
X0312498Y0242394D02*
X0422177Y0242394D01*
X0421574Y0242993D02*
X0312976Y0242993D01*
X0313493Y0243591D02*
X0420761Y0243591D01*
X0419948Y0244190D02*
X0314150Y0244190D01*
X0314807Y0244788D02*
X0419134Y0244788D01*
X0418321Y0245387D02*
X0315465Y0245387D01*
X0316304Y0245985D02*
X0417176Y0245985D01*
X0415846Y0246584D02*
X0317332Y0246584D01*
X0318361Y0247182D02*
X0414516Y0247182D01*
X0412538Y0247781D02*
X0319957Y0247781D01*
X0321790Y0248379D02*
X0409749Y0248379D01*
X0398699Y0229825D02*
X0429751Y0229825D01*
X0429995Y0229227D02*
X0399297Y0229227D01*
X0399870Y0228628D02*
X0430239Y0228628D01*
X0430483Y0228030D02*
X0400118Y0228030D01*
X0400366Y0227431D02*
X0430727Y0227431D01*
X0430971Y0226833D02*
X0400489Y0226833D01*
X0400489Y0226234D02*
X0431215Y0226234D01*
X0431459Y0225636D02*
X0400489Y0225636D01*
X0400311Y0225037D02*
X0431703Y0225037D01*
X0431947Y0224439D02*
X0400063Y0224439D01*
X0399800Y0223840D02*
X0432191Y0223840D01*
X0432435Y0223242D02*
X0399800Y0223242D01*
X0399800Y0222643D02*
X0432653Y0222643D01*
X0432813Y0222045D02*
X0399800Y0222045D01*
X0399800Y0221446D02*
X0432972Y0221446D01*
X0433132Y0220848D02*
X0399800Y0220848D01*
X0399800Y0220249D02*
X0433292Y0220249D01*
X0433451Y0219651D02*
X0399800Y0219651D01*
X0399800Y0219052D02*
X0433611Y0219052D01*
X0433770Y0218454D02*
X0399800Y0218454D01*
X0399800Y0217855D02*
X0433930Y0217855D01*
X0434089Y0217257D02*
X0399800Y0217257D01*
X0399800Y0216658D02*
X0434249Y0216658D01*
X0434409Y0216060D02*
X0399800Y0216060D01*
X0399800Y0215461D02*
X0434568Y0215461D01*
X0434728Y0214863D02*
X0399800Y0214863D01*
X0399800Y0214264D02*
X0434887Y0214264D01*
X0435047Y0213666D02*
X0399800Y0213666D01*
X0399800Y0213067D02*
X0435207Y0213067D01*
X0435355Y0212469D02*
X0399800Y0212469D01*
X0399800Y0211870D02*
X0435436Y0211870D01*
X0435517Y0211272D02*
X0399800Y0211272D01*
X0400058Y0210673D02*
X0435598Y0210673D01*
X0435678Y0210074D02*
X0400306Y0210074D01*
X0400489Y0209476D02*
X0435759Y0209476D01*
X0435840Y0208877D02*
X0400489Y0208877D01*
X0400489Y0208279D02*
X0435920Y0208279D01*
X0436001Y0207680D02*
X0400370Y0207680D01*
X0400122Y0207082D02*
X0436082Y0207082D01*
X0436163Y0206483D02*
X0399875Y0206483D01*
X0399309Y0205885D02*
X0436243Y0205885D01*
X0436324Y0205286D02*
X0398711Y0205286D01*
X0397319Y0204688D02*
X0436405Y0204688D01*
X0436485Y0204089D02*
X0384889Y0204089D01*
X0384947Y0203911D02*
X0384675Y0204750D01*
X0384275Y0205535D01*
X0383756Y0206248D01*
X0383133Y0206871D01*
X0382420Y0207390D01*
X0381635Y0207790D01*
X0380796Y0208062D01*
X0379926Y0208200D01*
X0379785Y0208200D01*
X0379785Y0202900D01*
X0379185Y0202900D01*
X0379185Y0202300D01*
X0373885Y0202300D01*
X0373885Y0202159D01*
X0374023Y0201289D01*
X0374295Y0200450D01*
X0374695Y0199665D01*
X0375214Y0198952D01*
X0375837Y0198329D01*
X0376550Y0197810D01*
X0377335Y0197410D01*
X0378174Y0197138D01*
X0379044Y0197000D01*
X0379185Y0197000D01*
X0379185Y0202300D01*
X0379785Y0202300D01*
X0379785Y0197000D01*
X0379926Y0197000D01*
X0380796Y0197138D01*
X0381635Y0197410D01*
X0382420Y0197810D01*
X0383133Y0198329D01*
X0383756Y0198952D01*
X0384275Y0199665D01*
X0384675Y0200450D01*
X0384947Y0201289D01*
X0385085Y0202159D01*
X0385085Y0202300D01*
X0379785Y0202300D01*
X0379785Y0202900D01*
X0385085Y0202900D01*
X0385085Y0203041D01*
X0384947Y0203911D01*
X0385014Y0203491D02*
X0436566Y0203491D01*
X0436647Y0202892D02*
X0379785Y0202892D01*
X0379785Y0202294D02*
X0379185Y0202294D01*
X0379185Y0202892D02*
X0366800Y0202892D01*
X0366800Y0202294D02*
X0373885Y0202294D01*
X0373959Y0201695D02*
X0366800Y0201695D01*
X0366800Y0201208D02*
X0365734Y0198635D01*
X0363765Y0196666D01*
X0361192Y0195600D01*
X0358408Y0195600D01*
X0355835Y0196666D01*
X0353866Y0198635D01*
X0352800Y0201208D01*
X0352800Y0203992D01*
X0353866Y0206565D01*
X0355835Y0208534D01*
X0358408Y0209600D01*
X0361192Y0209600D01*
X0363765Y0208534D01*
X0365734Y0206565D01*
X0366800Y0203992D01*
X0366800Y0201208D01*
X0366754Y0201097D02*
X0374085Y0201097D01*
X0374280Y0200498D02*
X0366506Y0200498D01*
X0366258Y0199900D02*
X0374576Y0199900D01*
X0374960Y0199301D02*
X0366010Y0199301D01*
X0365762Y0198703D02*
X0375463Y0198703D01*
X0376146Y0198104D02*
X0365204Y0198104D01*
X0364605Y0197506D02*
X0377148Y0197506D01*
X0379185Y0197506D02*
X0379785Y0197506D01*
X0379785Y0198104D02*
X0379185Y0198104D01*
X0379185Y0198703D02*
X0379785Y0198703D01*
X0379785Y0199301D02*
X0379185Y0199301D01*
X0379185Y0199900D02*
X0379785Y0199900D01*
X0379785Y0200498D02*
X0379185Y0200498D01*
X0379185Y0201097D02*
X0379785Y0201097D01*
X0379785Y0201695D02*
X0379185Y0201695D01*
X0379185Y0202900D02*
X0373885Y0202900D01*
X0373885Y0203041D01*
X0374023Y0203911D01*
X0374295Y0204750D01*
X0374695Y0205535D01*
X0375214Y0206248D01*
X0375837Y0206871D01*
X0376550Y0207390D01*
X0377335Y0207790D01*
X0378174Y0208062D01*
X0379044Y0208200D01*
X0379185Y0208200D01*
X0379185Y0202900D01*
X0379185Y0203491D02*
X0379785Y0203491D01*
X0379785Y0204089D02*
X0379185Y0204089D01*
X0379185Y0204688D02*
X0379785Y0204688D01*
X0379785Y0205286D02*
X0379185Y0205286D01*
X0379185Y0205885D02*
X0379785Y0205885D01*
X0379785Y0206483D02*
X0379185Y0206483D01*
X0379185Y0207082D02*
X0379785Y0207082D01*
X0379785Y0207680D02*
X0379185Y0207680D01*
X0377121Y0207680D02*
X0364619Y0207680D01*
X0365218Y0207082D02*
X0376127Y0207082D01*
X0375449Y0206483D02*
X0365768Y0206483D01*
X0366016Y0205885D02*
X0374950Y0205885D01*
X0374569Y0205286D02*
X0366264Y0205286D01*
X0366512Y0204688D02*
X0374275Y0204688D01*
X0374081Y0204089D02*
X0366760Y0204089D01*
X0366800Y0203491D02*
X0373956Y0203491D01*
X0381849Y0207680D02*
X0392230Y0207680D01*
X0392111Y0208279D02*
X0364021Y0208279D01*
X0362937Y0208877D02*
X0392111Y0208877D01*
X0392111Y0209476D02*
X0361492Y0209476D01*
X0358108Y0209476D02*
X0343615Y0209476D01*
X0343615Y0210074D02*
X0392294Y0210074D01*
X0392542Y0210673D02*
X0343615Y0210673D01*
X0343424Y0211272D02*
X0392800Y0211272D01*
X0392800Y0211870D02*
X0343176Y0211870D01*
X0342711Y0212469D02*
X0392800Y0212469D01*
X0392800Y0213067D02*
X0342113Y0213067D01*
X0343615Y0208877D02*
X0356663Y0208877D01*
X0355579Y0208279D02*
X0344335Y0208279D01*
X0344934Y0207680D02*
X0354981Y0207680D01*
X0354382Y0207082D02*
X0345532Y0207082D01*
X0346083Y0206483D02*
X0353832Y0206483D01*
X0353584Y0205885D02*
X0346331Y0205885D01*
X0346579Y0205286D02*
X0353336Y0205286D01*
X0353088Y0204688D02*
X0346827Y0204688D01*
X0347075Y0204089D02*
X0352840Y0204089D01*
X0352800Y0203491D02*
X0347115Y0203491D01*
X0347115Y0202892D02*
X0352800Y0202892D01*
X0352800Y0202294D02*
X0347115Y0202294D01*
X0347115Y0201695D02*
X0352800Y0201695D01*
X0352846Y0201097D02*
X0347069Y0201097D01*
X0346821Y0200498D02*
X0353094Y0200498D01*
X0353342Y0199900D02*
X0346573Y0199900D01*
X0346325Y0199301D02*
X0353590Y0199301D01*
X0353838Y0198703D02*
X0346077Y0198703D01*
X0345519Y0198104D02*
X0354396Y0198104D01*
X0354995Y0197506D02*
X0344920Y0197506D01*
X0344322Y0196907D02*
X0355593Y0196907D01*
X0356697Y0196309D02*
X0343218Y0196309D01*
X0341773Y0195710D02*
X0358141Y0195710D01*
X0361458Y0195710D02*
X0436981Y0195710D01*
X0436977Y0196309D02*
X0362903Y0196309D01*
X0364007Y0196907D02*
X0436966Y0196907D01*
X0436942Y0197506D02*
X0381822Y0197506D01*
X0382824Y0198104D02*
X0436919Y0198104D01*
X0436895Y0198703D02*
X0383507Y0198703D01*
X0384010Y0199301D02*
X0436872Y0199301D01*
X0436848Y0199900D02*
X0384394Y0199900D01*
X0384690Y0200498D02*
X0436825Y0200498D01*
X0436801Y0201097D02*
X0384885Y0201097D01*
X0385012Y0201695D02*
X0436778Y0201695D01*
X0436728Y0202294D02*
X0385085Y0202294D01*
X0384695Y0204688D02*
X0395281Y0204688D01*
X0393889Y0205286D02*
X0384401Y0205286D01*
X0384020Y0205885D02*
X0393291Y0205885D01*
X0392725Y0206483D02*
X0383521Y0206483D01*
X0382843Y0207082D02*
X0392478Y0207082D01*
X0370290Y0234015D02*
X0370145Y0234015D01*
X0370538Y0234613D02*
X0369558Y0234613D01*
X0368654Y0235212D02*
X0370786Y0235212D01*
X0366600Y0235212D02*
X0366000Y0235212D01*
X0281301Y0189725D02*
X0270325Y0189725D01*
X0270923Y0189127D02*
X0280702Y0189127D01*
X0280189Y0188528D02*
X0271522Y0188528D01*
X0272120Y0187930D02*
X0279941Y0187930D01*
X0279693Y0187331D02*
X0272719Y0187331D01*
X0273317Y0186733D02*
X0279611Y0186733D01*
X0279611Y0186134D02*
X0273916Y0186134D01*
X0274514Y0185536D02*
X0279611Y0185536D01*
X0279830Y0184937D02*
X0275113Y0184937D01*
X0275711Y0184339D02*
X0280078Y0184339D01*
X0280300Y0183740D02*
X0276310Y0183740D01*
X0276826Y0183141D02*
X0280300Y0183141D01*
X0280300Y0182543D02*
X0277074Y0182543D01*
X0277300Y0181944D02*
X0280300Y0181944D01*
X0280300Y0181346D02*
X0277300Y0181346D01*
X0277300Y0180747D02*
X0280300Y0180747D01*
X0280300Y0180149D02*
X0277300Y0180149D01*
X0277300Y0179550D02*
X0280300Y0179550D01*
X0280300Y0178952D02*
X0277300Y0178952D01*
X0277300Y0178353D02*
X0280300Y0178353D01*
X0280300Y0177755D02*
X0277300Y0177755D01*
X0277300Y0177156D02*
X0280300Y0177156D01*
X0280300Y0176558D02*
X0277300Y0176558D01*
X0277440Y0175959D02*
X0280160Y0175959D01*
X0279912Y0175361D02*
X0277688Y0175361D01*
X0277935Y0174762D02*
X0279665Y0174762D01*
X0279611Y0174164D02*
X0277989Y0174164D01*
X0277989Y0173565D02*
X0279611Y0173565D01*
X0269611Y0173565D02*
X0268469Y0173565D01*
X0267871Y0174164D02*
X0269611Y0174164D01*
X0269665Y0174762D02*
X0266578Y0174762D01*
X0268219Y0165785D02*
X0289366Y0165785D01*
X0289964Y0165186D02*
X0267420Y0165186D01*
X0262500Y0163391D02*
X0261900Y0163391D01*
X0261900Y0162792D02*
X0262500Y0162792D01*
X0262500Y0162194D02*
X0261900Y0162194D01*
X0261900Y0161595D02*
X0262500Y0161595D01*
X0262500Y0160997D02*
X0261900Y0160997D01*
X0261900Y0160398D02*
X0262500Y0160398D01*
X0262500Y0159800D02*
X0295300Y0159800D01*
X0295300Y0155610D02*
X0236940Y0155610D01*
X0237538Y0155011D02*
X0258423Y0155011D01*
X0258495Y0156074D02*
X0259244Y0155925D01*
X0261900Y0155925D01*
X0261900Y0159500D01*
X0255750Y0159500D01*
X0255750Y0159418D01*
X0255899Y0158670D01*
X0256191Y0157965D01*
X0256615Y0157330D01*
X0257155Y0156790D01*
X0257790Y0156366D01*
X0258495Y0156074D01*
X0258171Y0156208D02*
X0236341Y0156208D01*
X0235743Y0156807D02*
X0257138Y0156807D01*
X0256565Y0157405D02*
X0235144Y0157405D01*
X0234546Y0158004D02*
X0256175Y0158004D01*
X0255927Y0158603D02*
X0233947Y0158603D01*
X0233349Y0159201D02*
X0255794Y0159201D01*
X0255793Y0160398D02*
X0232152Y0160398D01*
X0232750Y0159800D02*
X0261900Y0159800D01*
X0261900Y0159201D02*
X0262500Y0159201D01*
X0262500Y0158603D02*
X0261900Y0158603D01*
X0261900Y0158004D02*
X0262500Y0158004D01*
X0262500Y0157405D02*
X0261900Y0157405D01*
X0261900Y0156807D02*
X0262500Y0156807D01*
X0262500Y0156208D02*
X0261900Y0156208D01*
X0256978Y0154413D02*
X0238137Y0154413D01*
X0238735Y0153814D02*
X0256180Y0153814D01*
X0255581Y0153216D02*
X0239334Y0153216D01*
X0239932Y0152617D02*
X0255083Y0152617D01*
X0254835Y0152019D02*
X0240531Y0152019D01*
X0241129Y0151420D02*
X0254587Y0151420D01*
X0254350Y0150822D02*
X0241728Y0150822D01*
X0242326Y0150223D02*
X0254350Y0150223D01*
X0254350Y0149625D02*
X0242925Y0149625D01*
X0243523Y0149026D02*
X0254350Y0149026D01*
X0254484Y0148428D02*
X0244122Y0148428D01*
X0244720Y0147829D02*
X0254732Y0147829D01*
X0254980Y0147231D02*
X0245319Y0147231D01*
X0245917Y0146632D02*
X0255333Y0146632D01*
X0255932Y0146034D02*
X0246516Y0146034D01*
X0246911Y0145435D02*
X0256530Y0145435D01*
X0240208Y0142443D02*
X0207612Y0142443D01*
X0208069Y0141844D02*
X0240300Y0141844D01*
X0240300Y0141246D02*
X0208370Y0141246D01*
X0208557Y0140647D02*
X0240300Y0140647D01*
X0239609Y0143041D02*
X0206898Y0143041D01*
X0202500Y0143041D02*
X0201900Y0143041D01*
X0201900Y0142443D02*
X0202500Y0142443D01*
X0202500Y0141844D02*
X0201900Y0141844D01*
X0201900Y0141246D02*
X0202500Y0141246D01*
X0202500Y0139450D02*
X0201900Y0139450D01*
X0201900Y0139500D02*
X0201900Y0135925D01*
X0199244Y0135925D01*
X0198495Y0136074D01*
X0197790Y0136366D01*
X0197155Y0136790D01*
X0196615Y0137330D01*
X0196191Y0137965D01*
X0195899Y0138670D01*
X0195750Y0139418D01*
X0195750Y0139500D01*
X0201900Y0139500D01*
X0201900Y0138852D02*
X0202500Y0138852D01*
X0202500Y0138253D02*
X0201900Y0138253D01*
X0201900Y0137655D02*
X0202500Y0137655D01*
X0202500Y0137056D02*
X0201900Y0137056D01*
X0201900Y0136458D02*
X0202500Y0136458D01*
X0197653Y0136458D02*
X0120280Y0136458D01*
X0121317Y0137056D02*
X0196889Y0137056D01*
X0196398Y0137655D02*
X0121916Y0137655D01*
X0122514Y0138253D02*
X0196072Y0138253D01*
X0195863Y0138852D02*
X0122831Y0138852D01*
X0123079Y0139450D02*
X0195750Y0139450D01*
X0197824Y0144837D02*
X0122624Y0144837D01*
X0122026Y0145435D02*
X0196530Y0145435D01*
X0195932Y0146034D02*
X0121427Y0146034D01*
X0120546Y0146632D02*
X0195333Y0146632D01*
X0194980Y0147231D02*
X0119101Y0147231D01*
X0118934Y0153700D02*
X0110666Y0153700D01*
X0108571Y0154568D01*
X0106968Y0156171D01*
X0106100Y0158266D01*
X0106100Y0160534D01*
X0106968Y0162629D01*
X0108571Y0164232D01*
X0110666Y0165100D01*
X0118934Y0165100D01*
X0121029Y0164232D01*
X0122632Y0162629D01*
X0123500Y0160534D01*
X0123500Y0158266D01*
X0122632Y0156171D01*
X0121029Y0154568D01*
X0118934Y0153700D01*
X0119210Y0153814D02*
X0196180Y0153814D01*
X0195581Y0153216D02*
X0048166Y0153216D01*
X0048764Y0153814D02*
X0084790Y0153814D01*
X0083345Y0154413D02*
X0049363Y0154413D01*
X0049961Y0155011D02*
X0082528Y0155011D01*
X0081929Y0155610D02*
X0050560Y0155610D01*
X0047567Y0152617D02*
X0195083Y0152617D01*
X0194835Y0152019D02*
X0046969Y0152019D01*
X0046370Y0151420D02*
X0194587Y0151420D01*
X0194350Y0150822D02*
X0045772Y0150822D01*
X0045173Y0150223D02*
X0194350Y0150223D01*
X0194350Y0149625D02*
X0044575Y0149625D01*
X0043976Y0149026D02*
X0194350Y0149026D01*
X0194484Y0148428D02*
X0043378Y0148428D01*
X0042932Y0147829D02*
X0194732Y0147829D01*
X0201900Y0143640D02*
X0202500Y0143640D01*
X0196978Y0154413D02*
X0120655Y0154413D01*
X0121472Y0155011D02*
X0197402Y0155011D01*
X0196356Y0155610D02*
X0122071Y0155610D01*
X0122648Y0156208D02*
X0195757Y0156208D01*
X0195159Y0156807D02*
X0122896Y0156807D01*
X0123143Y0157405D02*
X0194908Y0157405D01*
X0194660Y0158004D02*
X0138863Y0158004D01*
X0138928Y0158031D02*
X0139687Y0158790D01*
X0140098Y0159783D01*
X0140098Y0166006D01*
X0139687Y0166999D01*
X0138928Y0167758D01*
X0137935Y0168169D01*
X0126200Y0168169D01*
X0125208Y0167758D01*
X0124448Y0166999D01*
X0124037Y0166006D01*
X0124037Y0159783D01*
X0124448Y0158790D01*
X0125208Y0158031D01*
X0126200Y0157620D01*
X0137935Y0157620D01*
X0138928Y0158031D01*
X0139500Y0158603D02*
X0194412Y0158603D01*
X0194350Y0159201D02*
X0189518Y0159201D01*
X0189653Y0159279D02*
X0189895Y0159521D01*
X0190067Y0159818D01*
X0190155Y0160149D01*
X0190155Y0162594D01*
X0186580Y0162594D01*
X0186580Y0159020D01*
X0189026Y0159020D01*
X0189357Y0159108D01*
X0189653Y0159279D01*
X0190056Y0159800D02*
X0194350Y0159800D01*
X0194350Y0160398D02*
X0190155Y0160398D01*
X0190155Y0160997D02*
X0194411Y0160997D01*
X0194659Y0161595D02*
X0190155Y0161595D01*
X0190155Y0162194D02*
X0194907Y0162194D01*
X0195158Y0162792D02*
X0186580Y0162792D01*
X0186580Y0162594D02*
X0186580Y0163194D01*
X0190155Y0163194D01*
X0190155Y0165640D01*
X0190067Y0165971D01*
X0189895Y0166268D01*
X0189653Y0166510D01*
X0189357Y0166681D01*
X0189026Y0166769D01*
X0186580Y0166769D01*
X0186580Y0163195D01*
X0185980Y0163195D01*
X0185980Y0166769D01*
X0183534Y0166769D01*
X0183524Y0166767D01*
X0183514Y0166769D01*
X0181068Y0166769D01*
X0181068Y0163195D01*
X0180469Y0163195D01*
X0180469Y0166769D01*
X0178023Y0166769D01*
X0177692Y0166681D01*
X0177395Y0166510D01*
X0177153Y0166268D01*
X0176982Y0165971D01*
X0176894Y0165640D01*
X0176894Y0163194D01*
X0180468Y0163194D01*
X0180468Y0162594D01*
X0180469Y0162594D02*
X0181068Y0162594D01*
X0181068Y0159020D01*
X0183514Y0159020D01*
X0183524Y0159022D01*
X0183534Y0159020D01*
X0185980Y0159020D01*
X0185980Y0162594D01*
X0186580Y0162594D01*
X0186580Y0162194D02*
X0185980Y0162194D01*
X0185980Y0162594D02*
X0181069Y0162594D01*
X0181069Y0163194D01*
X0182406Y0163194D01*
X0185980Y0163194D01*
X0185980Y0162594D01*
X0185980Y0162792D02*
X0181069Y0162792D01*
X0181068Y0162194D02*
X0180469Y0162194D01*
X0180469Y0162594D02*
X0180469Y0159020D01*
X0178023Y0159020D01*
X0177692Y0159108D01*
X0177395Y0159279D01*
X0177153Y0159521D01*
X0176982Y0159818D01*
X0176894Y0160149D01*
X0176894Y0162594D01*
X0180468Y0162594D01*
X0180468Y0162792D02*
X0140098Y0162792D01*
X0140098Y0162194D02*
X0176894Y0162194D01*
X0176894Y0161595D02*
X0140098Y0161595D01*
X0140098Y0160997D02*
X0176894Y0160997D01*
X0176894Y0160398D02*
X0140098Y0160398D01*
X0140098Y0159800D02*
X0176993Y0159800D01*
X0177531Y0159201D02*
X0139858Y0159201D01*
X0140098Y0163391D02*
X0176894Y0163391D01*
X0176894Y0163989D02*
X0140098Y0163989D01*
X0140098Y0164588D02*
X0176894Y0164588D01*
X0176894Y0165186D02*
X0140098Y0165186D01*
X0140098Y0165785D02*
X0176932Y0165785D01*
X0177269Y0166383D02*
X0139942Y0166383D01*
X0139694Y0166982D02*
X0195083Y0166982D01*
X0194835Y0167580D02*
X0139106Y0167580D01*
X0125030Y0167580D02*
X0062530Y0167580D01*
X0061931Y0166982D02*
X0124441Y0166982D01*
X0124193Y0166383D02*
X0061333Y0166383D01*
X0060734Y0165785D02*
X0124037Y0165785D01*
X0124037Y0165186D02*
X0060136Y0165186D01*
X0059537Y0164588D02*
X0083829Y0164588D01*
X0082728Y0163989D02*
X0058939Y0163989D01*
X0058340Y0163391D02*
X0082130Y0163391D01*
X0094571Y0164588D02*
X0109429Y0164588D01*
X0108328Y0163989D02*
X0095672Y0163989D01*
X0096270Y0163391D02*
X0107730Y0163391D01*
X0107131Y0162792D02*
X0096869Y0162792D01*
X0097212Y0162194D02*
X0106788Y0162194D01*
X0106540Y0161595D02*
X0097460Y0161595D01*
X0097708Y0160997D02*
X0106292Y0160997D01*
X0106100Y0160398D02*
X0097900Y0160398D01*
X0097900Y0159800D02*
X0106100Y0159800D01*
X0106100Y0159201D02*
X0097900Y0159201D01*
X0097900Y0158603D02*
X0106100Y0158603D01*
X0106209Y0158004D02*
X0097791Y0158004D01*
X0097543Y0157405D02*
X0106456Y0157405D01*
X0106704Y0156807D02*
X0097296Y0156807D01*
X0097048Y0156208D02*
X0106952Y0156208D01*
X0107529Y0155610D02*
X0096471Y0155610D01*
X0095872Y0155011D02*
X0108128Y0155011D01*
X0108945Y0154413D02*
X0095055Y0154413D01*
X0093610Y0153814D02*
X0110390Y0153814D01*
X0110499Y0147231D02*
X0093501Y0147231D01*
X0094946Y0146632D02*
X0109054Y0146632D01*
X0108173Y0146034D02*
X0095827Y0146034D01*
X0096426Y0145435D02*
X0107574Y0145435D01*
X0106976Y0144837D02*
X0097024Y0144837D01*
X0097277Y0144238D02*
X0106723Y0144238D01*
X0106475Y0143640D02*
X0097525Y0143640D01*
X0097773Y0143041D02*
X0106227Y0143041D01*
X0106100Y0142443D02*
X0097900Y0142443D01*
X0097900Y0141844D02*
X0106100Y0141844D01*
X0106100Y0141246D02*
X0097900Y0141246D01*
X0097900Y0140647D02*
X0106100Y0140647D01*
X0106273Y0140049D02*
X0097727Y0140049D01*
X0097479Y0139450D02*
X0106521Y0139450D01*
X0106769Y0138852D02*
X0097231Y0138852D01*
X0096914Y0138253D02*
X0107086Y0138253D01*
X0107684Y0137655D02*
X0096316Y0137655D01*
X0095717Y0137056D02*
X0108283Y0137056D01*
X0109320Y0136458D02*
X0094680Y0136458D01*
X0084899Y0147231D02*
X0042684Y0147231D01*
X0037422Y0144837D02*
X0025135Y0144837D01*
X0025120Y0145435D02*
X0036241Y0145435D01*
X0035642Y0146034D02*
X0025105Y0146034D01*
X0025090Y0146632D02*
X0035164Y0146632D01*
X0034916Y0147231D02*
X0025090Y0147231D01*
X0025093Y0147615D02*
X0025093Y0147615D01*
X0025095Y0147829D02*
X0034668Y0147829D01*
X0034611Y0148428D02*
X0025099Y0148428D01*
X0025104Y0149026D02*
X0034611Y0149026D01*
X0034611Y0149625D02*
X0025109Y0149625D01*
X0025113Y0150223D02*
X0034855Y0150223D01*
X0035103Y0150822D02*
X0025118Y0150822D01*
X0025122Y0151420D02*
X0035496Y0151420D01*
X0036095Y0152019D02*
X0025127Y0152019D01*
X0025131Y0152617D02*
X0037070Y0152617D01*
X0038266Y0153216D02*
X0025136Y0153216D01*
X0025140Y0153814D02*
X0038865Y0153814D01*
X0039463Y0154413D02*
X0025145Y0154413D01*
X0025149Y0155011D02*
X0040062Y0155011D01*
X0040660Y0155610D02*
X0025154Y0155610D01*
X0025158Y0156208D02*
X0041259Y0156208D01*
X0041857Y0156807D02*
X0025163Y0156807D01*
X0025167Y0157405D02*
X0042456Y0157405D01*
X0043054Y0158004D02*
X0025172Y0158004D01*
X0025176Y0158603D02*
X0043653Y0158603D01*
X0044251Y0159201D02*
X0025181Y0159201D01*
X0025185Y0159800D02*
X0044850Y0159800D01*
X0045448Y0160398D02*
X0025190Y0160398D01*
X0025194Y0160997D02*
X0046047Y0160997D01*
X0046645Y0161595D02*
X0025199Y0161595D01*
X0025203Y0162194D02*
X0047244Y0162194D01*
X0047842Y0162792D02*
X0025208Y0162792D01*
X0025212Y0163391D02*
X0048441Y0163391D01*
X0049039Y0163989D02*
X0025217Y0163989D01*
X0025221Y0164588D02*
X0049638Y0164588D01*
X0050236Y0165186D02*
X0025226Y0165186D01*
X0025230Y0165785D02*
X0050835Y0165785D01*
X0051433Y0166383D02*
X0025235Y0166383D01*
X0025239Y0166982D02*
X0052032Y0166982D01*
X0052630Y0167580D02*
X0025244Y0167580D01*
X0025248Y0168179D02*
X0053229Y0168179D01*
X0053827Y0168777D02*
X0025253Y0168777D01*
X0025257Y0169376D02*
X0054426Y0169376D01*
X0055024Y0169974D02*
X0025262Y0169974D01*
X0025266Y0170573D02*
X0055623Y0170573D01*
X0056222Y0171171D02*
X0025271Y0171171D01*
X0025275Y0171770D02*
X0056820Y0171770D01*
X0057419Y0172368D02*
X0025280Y0172368D01*
X0025284Y0172967D02*
X0058017Y0172967D01*
X0058616Y0173565D02*
X0025289Y0173565D01*
X0025294Y0174164D02*
X0059214Y0174164D01*
X0059813Y0174762D02*
X0025298Y0174762D01*
X0025303Y0175361D02*
X0060411Y0175361D01*
X0061010Y0175959D02*
X0025307Y0175959D01*
X0025312Y0176558D02*
X0061608Y0176558D01*
X0062207Y0177156D02*
X0025316Y0177156D01*
X0025321Y0177755D02*
X0062805Y0177755D01*
X0063404Y0178353D02*
X0025325Y0178353D01*
X0025330Y0178952D02*
X0064002Y0178952D01*
X0064601Y0179550D02*
X0025334Y0179550D01*
X0025339Y0180149D02*
X0065199Y0180149D01*
X0065798Y0180747D02*
X0025343Y0180747D01*
X0025348Y0181346D02*
X0066396Y0181346D01*
X0066995Y0181944D02*
X0025352Y0181944D01*
X0025357Y0182543D02*
X0067593Y0182543D01*
X0068192Y0183141D02*
X0025361Y0183141D01*
X0025366Y0183740D02*
X0068790Y0183740D01*
X0069389Y0184339D02*
X0025370Y0184339D01*
X0025375Y0184937D02*
X0069987Y0184937D01*
X0070300Y0185536D02*
X0025379Y0185536D01*
X0025384Y0186134D02*
X0070300Y0186134D01*
X0070300Y0186733D02*
X0025388Y0186733D01*
X0025393Y0187331D02*
X0070300Y0187331D01*
X0070300Y0187930D02*
X0025397Y0187930D01*
X0025402Y0188528D02*
X0070300Y0188528D01*
X0070300Y0189127D02*
X0025406Y0189127D01*
X0025411Y0189725D02*
X0070300Y0189725D01*
X0070300Y0190324D02*
X0025415Y0190324D01*
X0025420Y0190922D02*
X0070300Y0190922D01*
X0070300Y0191521D02*
X0025424Y0191521D01*
X0025429Y0192119D02*
X0070300Y0192119D01*
X0070300Y0192718D02*
X0025433Y0192718D01*
X0025438Y0193316D02*
X0070300Y0193316D01*
X0070300Y0193915D02*
X0025442Y0193915D01*
X0025447Y0194513D02*
X0070300Y0194513D01*
X0070300Y0195112D02*
X0025451Y0195112D01*
X0025456Y0195710D02*
X0070300Y0195710D01*
X0070300Y0196309D02*
X0025460Y0196309D01*
X0025465Y0196907D02*
X0070300Y0196907D01*
X0070300Y0197506D02*
X0025469Y0197506D01*
X0025475Y0198104D02*
X0070300Y0198104D01*
X0070300Y0198703D02*
X0025499Y0198703D01*
X0025522Y0199301D02*
X0070300Y0199301D01*
X0070300Y0199900D02*
X0025546Y0199900D01*
X0025569Y0200498D02*
X0070300Y0200498D01*
X0070300Y0201097D02*
X0025592Y0201097D01*
X0025616Y0201695D02*
X0070300Y0201695D01*
X0070300Y0202294D02*
X0025639Y0202294D01*
X0025663Y0202892D02*
X0070300Y0202892D01*
X0070300Y0203491D02*
X0025729Y0203491D01*
X0025810Y0204089D02*
X0070300Y0204089D01*
X0070300Y0204688D02*
X0025890Y0204688D01*
X0025971Y0205286D02*
X0070300Y0205286D01*
X0070300Y0205885D02*
X0026052Y0205885D01*
X0026132Y0206483D02*
X0070300Y0206483D01*
X0070300Y0207082D02*
X0026213Y0207082D01*
X0026294Y0207680D02*
X0070300Y0207680D01*
X0070300Y0208279D02*
X0026375Y0208279D01*
X0026455Y0208877D02*
X0070300Y0208877D01*
X0070300Y0209476D02*
X0026536Y0209476D01*
X0026617Y0210074D02*
X0070300Y0210074D01*
X0070300Y0210673D02*
X0026697Y0210673D01*
X0026778Y0211272D02*
X0070300Y0211272D01*
X0070300Y0211870D02*
X0026859Y0211870D01*
X0026940Y0212469D02*
X0070300Y0212469D01*
X0070300Y0213067D02*
X0027040Y0213067D01*
X0027199Y0213666D02*
X0070300Y0213666D01*
X0070300Y0214264D02*
X0027359Y0214264D01*
X0027518Y0214863D02*
X0070300Y0214863D01*
X0070300Y0215461D02*
X0027678Y0215461D01*
X0027838Y0216060D02*
X0070300Y0216060D01*
X0070300Y0216658D02*
X0027997Y0216658D01*
X0028157Y0217257D02*
X0070300Y0217257D01*
X0070300Y0217855D02*
X0028316Y0217855D01*
X0028476Y0218454D02*
X0070300Y0218454D01*
X0070300Y0219052D02*
X0028635Y0219052D01*
X0028795Y0219651D02*
X0070300Y0219651D01*
X0070300Y0220249D02*
X0028955Y0220249D01*
X0029114Y0220848D02*
X0070300Y0220848D01*
X0070300Y0221446D02*
X0029274Y0221446D01*
X0029433Y0222045D02*
X0070300Y0222045D01*
X0070300Y0222643D02*
X0029607Y0222643D01*
X0029851Y0223242D02*
X0070300Y0223242D01*
X0070300Y0223840D02*
X0030094Y0223840D01*
X0030338Y0224439D02*
X0070300Y0224439D01*
X0070300Y0225037D02*
X0030582Y0225037D01*
X0030826Y0225636D02*
X0068994Y0225636D01*
X0068147Y0226234D02*
X0031070Y0226234D01*
X0031314Y0226833D02*
X0067702Y0226833D01*
X0067455Y0227431D02*
X0031558Y0227431D01*
X0031802Y0228030D02*
X0067400Y0228030D01*
X0067400Y0228628D02*
X0032046Y0228628D01*
X0032290Y0229227D02*
X0067400Y0229227D01*
X0067400Y0229825D02*
X0032534Y0229825D01*
X0032778Y0230424D02*
X0067400Y0230424D01*
X0067400Y0231022D02*
X0033022Y0231022D01*
X0033266Y0231621D02*
X0067400Y0231621D01*
X0067400Y0232219D02*
X0033562Y0232219D01*
X0033875Y0232818D02*
X0067400Y0232818D01*
X0067400Y0233416D02*
X0034188Y0233416D01*
X0034501Y0234015D02*
X0067400Y0234015D01*
X0067400Y0234613D02*
X0034814Y0234613D01*
X0035127Y0235212D02*
X0067400Y0235212D01*
X0067400Y0235810D02*
X0035440Y0235810D01*
X0035762Y0236409D02*
X0067554Y0236409D01*
X0067802Y0237008D02*
X0036100Y0237008D01*
X0036058Y0236934D02*
X0036058Y0236934D01*
X0036438Y0237606D02*
X0068388Y0237606D01*
X0079898Y0226833D02*
X0080754Y0226833D01*
X0081747Y0226234D02*
X0079453Y0226234D01*
X0083500Y0226234D02*
X0084100Y0226234D01*
X0084100Y0226833D02*
X0083500Y0226833D01*
X0083500Y0227431D02*
X0084100Y0227431D01*
X0095642Y0225636D02*
X0099913Y0225636D01*
X0099315Y0226234D02*
X0097087Y0226234D01*
X0097884Y0226833D02*
X0098716Y0226833D01*
X0098840Y0235810D02*
X0099760Y0235810D01*
X0100617Y0236409D02*
X0098242Y0236409D01*
X0097643Y0237008D02*
X0102062Y0237008D01*
X0138857Y0248379D02*
X0050683Y0248379D01*
X0047895Y0247781D02*
X0141258Y0247781D01*
X0143014Y0247182D02*
X0046399Y0247182D01*
X0045069Y0246584D02*
X0144227Y0246584D01*
X0145226Y0245985D02*
X0043876Y0245985D01*
X0043063Y0245387D02*
X0146225Y0245387D01*
X0146836Y0245020D02*
X0146836Y0245020D01*
X0147085Y0244788D02*
X0042249Y0244788D01*
X0041436Y0244190D02*
X0147726Y0244190D01*
X0148367Y0243591D02*
X0040758Y0243591D01*
X0040228Y0242993D02*
X0149007Y0242993D01*
X0149648Y0242394D02*
X0039698Y0242394D01*
X0039168Y0241796D02*
X0150120Y0241796D01*
X0150547Y0241197D02*
X0038637Y0241197D01*
X0038212Y0240599D02*
X0151031Y0240599D01*
X0151540Y0240000D02*
X0037831Y0240000D01*
X0037450Y0239402D02*
X0152036Y0239402D01*
X0152533Y0238803D02*
X0037113Y0238803D01*
X0036775Y0238205D02*
X0153029Y0238205D01*
X0115203Y0202892D02*
X0077300Y0202892D01*
X0077300Y0202294D02*
X0114604Y0202294D01*
X0114006Y0201695D02*
X0091814Y0201695D01*
X0091710Y0201800D02*
X0089400Y0201800D01*
X0089400Y0195800D01*
X0095400Y0195800D01*
X0095400Y0198110D01*
X0091710Y0201800D01*
X0092413Y0201097D02*
X0113407Y0201097D01*
X0112809Y0200498D02*
X0093011Y0200498D01*
X0093610Y0199900D02*
X0112210Y0199900D01*
X0111612Y0199301D02*
X0094208Y0199301D01*
X0094807Y0198703D02*
X0111013Y0198703D01*
X0111000Y0198104D02*
X0095400Y0198104D01*
X0095400Y0197506D02*
X0111000Y0197506D01*
X0111000Y0196907D02*
X0095400Y0196907D01*
X0095400Y0196309D02*
X0111000Y0196309D01*
X0111000Y0195710D02*
X0089400Y0195710D01*
X0089400Y0195800D02*
X0089400Y0195200D01*
X0095400Y0195200D01*
X0095400Y0192890D01*
X0091710Y0189200D01*
X0089400Y0189200D01*
X0089400Y0195200D01*
X0088800Y0195200D01*
X0088800Y0189200D01*
X0086490Y0189200D01*
X0082800Y0192890D01*
X0082800Y0195200D01*
X0088800Y0195200D01*
X0088800Y0195800D01*
X0088800Y0201800D01*
X0086490Y0201800D01*
X0082800Y0198110D01*
X0082800Y0195800D01*
X0088800Y0195800D01*
X0089400Y0195800D01*
X0089400Y0196309D02*
X0088800Y0196309D01*
X0088800Y0196907D02*
X0089400Y0196907D01*
X0089400Y0197506D02*
X0088800Y0197506D01*
X0088800Y0198104D02*
X0089400Y0198104D01*
X0089400Y0198703D02*
X0088800Y0198703D01*
X0088800Y0199301D02*
X0089400Y0199301D01*
X0089400Y0199900D02*
X0088800Y0199900D01*
X0088800Y0200498D02*
X0089400Y0200498D01*
X0089400Y0201097D02*
X0088800Y0201097D01*
X0088800Y0201695D02*
X0089400Y0201695D01*
X0086386Y0201695D02*
X0077300Y0201695D01*
X0077300Y0201097D02*
X0085787Y0201097D01*
X0085189Y0200498D02*
X0077300Y0200498D01*
X0077300Y0199900D02*
X0084590Y0199900D01*
X0083992Y0199301D02*
X0077300Y0199301D01*
X0077300Y0198703D02*
X0083393Y0198703D01*
X0082800Y0198104D02*
X0077300Y0198104D01*
X0077300Y0197506D02*
X0082800Y0197506D01*
X0082800Y0196907D02*
X0077300Y0196907D01*
X0077300Y0196309D02*
X0082800Y0196309D01*
X0082800Y0195112D02*
X0077300Y0195112D01*
X0077300Y0195710D02*
X0088800Y0195710D01*
X0088800Y0195112D02*
X0089400Y0195112D01*
X0089400Y0194513D02*
X0088800Y0194513D01*
X0088800Y0193915D02*
X0089400Y0193915D01*
X0089400Y0193316D02*
X0088800Y0193316D01*
X0088800Y0192718D02*
X0089400Y0192718D01*
X0089400Y0192119D02*
X0088800Y0192119D01*
X0088800Y0191521D02*
X0089400Y0191521D01*
X0089400Y0190922D02*
X0088800Y0190922D01*
X0088800Y0190324D02*
X0089400Y0190324D01*
X0089400Y0189725D02*
X0088800Y0189725D01*
X0085965Y0189725D02*
X0077300Y0189725D01*
X0077300Y0189127D02*
X0114184Y0189127D01*
X0113585Y0189725D02*
X0092235Y0189725D01*
X0092833Y0190324D02*
X0112987Y0190324D01*
X0112388Y0190922D02*
X0093432Y0190922D01*
X0094030Y0191521D02*
X0111790Y0191521D01*
X0111191Y0192119D02*
X0094629Y0192119D01*
X0095227Y0192718D02*
X0111000Y0192718D01*
X0111000Y0193316D02*
X0095400Y0193316D01*
X0095400Y0193915D02*
X0111000Y0193915D01*
X0111000Y0194513D02*
X0095400Y0194513D01*
X0095400Y0195112D02*
X0111000Y0195112D01*
X0114782Y0188528D02*
X0077300Y0188528D01*
X0077300Y0187930D02*
X0115381Y0187930D01*
X0122019Y0187930D02*
X0179721Y0187930D01*
X0179122Y0188528D02*
X0122618Y0188528D01*
X0123216Y0189127D02*
X0178524Y0189127D01*
X0177925Y0189725D02*
X0123815Y0189725D01*
X0124413Y0190324D02*
X0177327Y0190324D01*
X0176728Y0190922D02*
X0125012Y0190922D01*
X0124037Y0164588D02*
X0120171Y0164588D01*
X0121272Y0163989D02*
X0124037Y0163989D01*
X0124037Y0163391D02*
X0121870Y0163391D01*
X0122469Y0162792D02*
X0124037Y0162792D01*
X0124037Y0162194D02*
X0122812Y0162194D01*
X0123060Y0161595D02*
X0124037Y0161595D01*
X0124037Y0160997D02*
X0123308Y0160997D01*
X0123500Y0160398D02*
X0124037Y0160398D01*
X0124037Y0159800D02*
X0123500Y0159800D01*
X0123500Y0159201D02*
X0124278Y0159201D01*
X0124636Y0158603D02*
X0123500Y0158603D01*
X0123391Y0158004D02*
X0125272Y0158004D01*
X0077300Y0187331D02*
X0180605Y0187331D01*
X0196529Y0174164D02*
X0069114Y0174164D01*
X0069712Y0174762D02*
X0197822Y0174762D01*
X0195931Y0173565D02*
X0068515Y0173565D01*
X0067917Y0172967D02*
X0195332Y0172967D01*
X0194980Y0172368D02*
X0067318Y0172368D01*
X0066720Y0171770D02*
X0194732Y0171770D01*
X0194484Y0171171D02*
X0066121Y0171171D01*
X0065522Y0170573D02*
X0194350Y0170573D01*
X0194350Y0169974D02*
X0064924Y0169974D01*
X0064325Y0169376D02*
X0194350Y0169376D01*
X0194350Y0168777D02*
X0063727Y0168777D01*
X0063128Y0168179D02*
X0194587Y0168179D01*
X0195582Y0166383D02*
X0189780Y0166383D01*
X0190116Y0165785D02*
X0196181Y0165785D01*
X0196980Y0165186D02*
X0190155Y0165186D01*
X0190155Y0164588D02*
X0197400Y0164588D01*
X0196355Y0163989D02*
X0190155Y0163989D01*
X0190155Y0163391D02*
X0195756Y0163391D01*
X0186580Y0163391D02*
X0185980Y0163391D01*
X0185980Y0163989D02*
X0186580Y0163989D01*
X0186580Y0164588D02*
X0185980Y0164588D01*
X0185980Y0165186D02*
X0186580Y0165186D01*
X0186580Y0165785D02*
X0185980Y0165785D01*
X0185980Y0166383D02*
X0186580Y0166383D01*
X0181068Y0166383D02*
X0180469Y0166383D01*
X0180469Y0165785D02*
X0181068Y0165785D01*
X0181068Y0165186D02*
X0180469Y0165186D01*
X0180469Y0164588D02*
X0181068Y0164588D01*
X0181068Y0163989D02*
X0180469Y0163989D01*
X0180469Y0163391D02*
X0181068Y0163391D01*
X0181068Y0161595D02*
X0180469Y0161595D01*
X0180469Y0160997D02*
X0181068Y0160997D01*
X0181068Y0160398D02*
X0180469Y0160398D01*
X0180469Y0159800D02*
X0181068Y0159800D01*
X0181068Y0159201D02*
X0180469Y0159201D01*
X0185980Y0159201D02*
X0186580Y0159201D01*
X0186580Y0159800D02*
X0185980Y0159800D01*
X0185980Y0160398D02*
X0186580Y0160398D01*
X0186580Y0160997D02*
X0185980Y0160997D01*
X0185980Y0161595D02*
X0186580Y0161595D01*
X0229159Y0163391D02*
X0258168Y0163391D01*
X0257138Y0162792D02*
X0229758Y0162792D01*
X0230356Y0162194D02*
X0256564Y0162194D01*
X0256175Y0161595D02*
X0230955Y0161595D01*
X0231553Y0160997D02*
X0255927Y0160997D01*
X0302300Y0141844D02*
X0316464Y0141844D01*
X0315489Y0141246D02*
X0302300Y0141246D01*
X0302300Y0140647D02*
X0314890Y0140647D01*
X0314292Y0140049D02*
X0302300Y0140049D01*
X0302300Y0139450D02*
X0313693Y0139450D01*
X0313095Y0138852D02*
X0302300Y0138852D01*
X0302300Y0138253D02*
X0312496Y0138253D01*
X0311944Y0137655D02*
X0302300Y0137655D01*
X0302300Y0137056D02*
X0311696Y0137056D01*
X0311566Y0136458D02*
X0302300Y0136458D01*
X0302300Y0135859D02*
X0311566Y0135859D01*
X0311734Y0135261D02*
X0302300Y0135261D01*
X0302300Y0134662D02*
X0311990Y0134662D01*
X0312588Y0134064D02*
X0302300Y0134064D01*
X0302300Y0133465D02*
X0313187Y0133465D01*
X0313785Y0132867D02*
X0302300Y0132867D01*
X0302300Y0132268D02*
X0314384Y0132268D01*
X0314982Y0131670D02*
X0302300Y0131670D01*
X0302300Y0131071D02*
X0315581Y0131071D01*
X0319901Y0128677D02*
X0434361Y0128677D01*
X0434150Y0128078D02*
X0320500Y0128078D01*
X0321098Y0127480D02*
X0433938Y0127480D01*
X0433706Y0126881D02*
X0321697Y0126881D01*
X0322295Y0126283D02*
X0433402Y0126283D01*
X0433098Y0125684D02*
X0322894Y0125684D01*
X0323492Y0125086D02*
X0432794Y0125086D01*
X0432490Y0124487D02*
X0323828Y0124487D01*
X0324054Y0123889D02*
X0432184Y0123889D01*
X0432193Y0123903D02*
X0432193Y0123903D01*
X0431811Y0123290D02*
X0324054Y0123290D01*
X0323981Y0122692D02*
X0431437Y0122692D01*
X0431064Y0122093D02*
X0323733Y0122093D01*
X0323261Y0121495D02*
X0430643Y0121495D01*
X0430149Y0120896D02*
X0322663Y0120896D01*
X0322064Y0120298D02*
X0326200Y0120298D01*
X0326501Y0120422D02*
X0325508Y0120011D01*
X0321664Y0116167D01*
X0321253Y0115175D01*
X0321253Y0114101D01*
X0321664Y0113108D01*
X0325508Y0109264D01*
X0326501Y0108853D01*
X0327575Y0108853D01*
X0328567Y0109264D01*
X0332411Y0113108D01*
X0332822Y0114101D01*
X0332822Y0115175D01*
X0332411Y0116167D01*
X0328567Y0120011D01*
X0327575Y0120422D01*
X0326501Y0120422D01*
X0327875Y0120298D02*
X0429655Y0120298D01*
X0429162Y0119699D02*
X0328879Y0119699D01*
X0329477Y0119101D02*
X0428668Y0119101D01*
X0428174Y0118502D02*
X0330076Y0118502D01*
X0330674Y0117904D02*
X0427680Y0117904D01*
X0427016Y0117305D02*
X0331273Y0117305D01*
X0331871Y0116707D02*
X0426312Y0116707D01*
X0425608Y0116108D02*
X0332435Y0116108D01*
X0332683Y0115510D02*
X0424905Y0115510D01*
X0424201Y0114911D02*
X0332822Y0114911D01*
X0332822Y0114313D02*
X0423406Y0114313D01*
X0422381Y0113714D02*
X0332662Y0113714D01*
X0332414Y0113116D02*
X0421356Y0113116D01*
X0420332Y0112517D02*
X0331820Y0112517D01*
X0331222Y0111919D02*
X0419307Y0111919D01*
X0417692Y0111320D02*
X0337090Y0111320D01*
X0336626Y0111513D02*
X0335552Y0111513D01*
X0334559Y0111102D01*
X0330715Y0107257D01*
X0330304Y0106265D01*
X0330304Y0105191D01*
X0330715Y0104199D01*
X0334559Y0100355D01*
X0335552Y0099944D01*
X0336626Y0099944D01*
X0337618Y0100355D01*
X0341462Y0104199D01*
X0341873Y0105191D01*
X0341873Y0106265D01*
X0341462Y0107257D01*
X0337618Y0111102D01*
X0336626Y0111513D01*
X0335087Y0111320D02*
X0330623Y0111320D01*
X0330025Y0110722D02*
X0334179Y0110722D01*
X0333581Y0110123D02*
X0329426Y0110123D01*
X0328827Y0109525D02*
X0332982Y0109525D01*
X0332384Y0108926D02*
X0327751Y0108926D01*
X0326324Y0108926D02*
X0323106Y0108926D01*
X0323704Y0108328D02*
X0331785Y0108328D01*
X0331187Y0107729D02*
X0324206Y0107729D01*
X0324138Y0107894D02*
X0324549Y0106902D01*
X0324549Y0105827D01*
X0324138Y0104835D01*
X0320294Y0100991D01*
X0319302Y0100580D01*
X0318227Y0100580D01*
X0317235Y0100991D01*
X0313391Y0104835D01*
X0312980Y0105827D01*
X0312980Y0106902D01*
X0313391Y0107894D01*
X0317235Y0111738D01*
X0318227Y0112149D01*
X0319302Y0112149D01*
X0320294Y0111738D01*
X0324138Y0107894D01*
X0324454Y0107131D02*
X0330663Y0107131D01*
X0330415Y0106532D02*
X0324549Y0106532D01*
X0324549Y0105934D02*
X0330304Y0105934D01*
X0330304Y0105335D02*
X0324345Y0105335D01*
X0324039Y0104737D02*
X0330492Y0104737D01*
X0330776Y0104138D02*
X0323441Y0104138D01*
X0322842Y0103539D02*
X0331374Y0103539D01*
X0331973Y0102941D02*
X0322244Y0102941D01*
X0321645Y0102342D02*
X0332571Y0102342D01*
X0333170Y0101744D02*
X0328239Y0101744D01*
X0328105Y0101822D02*
X0327774Y0101910D01*
X0327432Y0101910D01*
X0327102Y0101822D01*
X0326805Y0101650D01*
X0325347Y0100193D01*
X0327603Y0097937D01*
X0327192Y0097526D01*
X0324936Y0099782D01*
X0323479Y0098324D01*
X0323307Y0098027D01*
X0323219Y0097697D01*
X0323219Y0097354D01*
X0323307Y0097024D01*
X0323479Y0096727D01*
X0324936Y0095270D01*
X0327192Y0097526D01*
X0327603Y0097115D01*
X0325347Y0094859D01*
X0326805Y0093401D01*
X0327102Y0093230D01*
X0327432Y0093141D01*
X0327774Y0093141D01*
X0328105Y0093230D01*
X0328402Y0093401D01*
X0329859Y0094859D01*
X0327603Y0097115D01*
X0328014Y0097526D01*
X0327603Y0097937D01*
X0329859Y0100193D01*
X0328402Y0101650D01*
X0328105Y0101822D01*
X0328906Y0101145D02*
X0333768Y0101145D01*
X0334367Y0100547D02*
X0329505Y0100547D01*
X0329615Y0099948D02*
X0335540Y0099948D01*
X0336637Y0099948D02*
X0345662Y0099948D01*
X0345707Y0100118D02*
X0345707Y0100118D01*
X0345963Y0100547D02*
X0337810Y0100547D01*
X0338409Y0101145D02*
X0345365Y0101145D01*
X0344766Y0101744D02*
X0339007Y0101744D01*
X0339606Y0102342D02*
X0344168Y0102342D01*
X0343569Y0102941D02*
X0340204Y0102941D01*
X0340803Y0103539D02*
X0343247Y0103539D01*
X0343032Y0104138D02*
X0341401Y0104138D01*
X0341685Y0104737D02*
X0343032Y0104737D01*
X0343115Y0105335D02*
X0341873Y0105335D01*
X0341873Y0105934D02*
X0343363Y0105934D01*
X0343849Y0106532D02*
X0341763Y0106532D01*
X0341515Y0107131D02*
X0344447Y0107131D01*
X0345046Y0107729D02*
X0340990Y0107729D01*
X0340392Y0108328D02*
X0345644Y0108328D01*
X0346243Y0108926D02*
X0339793Y0108926D01*
X0339195Y0109525D02*
X0346841Y0109525D01*
X0347656Y0110123D02*
X0338596Y0110123D01*
X0337998Y0110722D02*
X0416065Y0110722D01*
X0414380Y0110123D02*
X0349977Y0110123D01*
X0350791Y0109525D02*
X0411018Y0109525D01*
X0389623Y0108926D02*
X0351390Y0108926D01*
X0351989Y0108328D02*
X0385177Y0108328D01*
X0381033Y0107729D02*
X0352587Y0107729D01*
X0353186Y0107131D02*
X0378850Y0107131D01*
X0376668Y0106532D02*
X0353784Y0106532D01*
X0354270Y0105934D02*
X0374485Y0105934D01*
X0372302Y0105335D02*
X0354518Y0105335D01*
X0354601Y0104737D02*
X0370694Y0104737D01*
X0369284Y0104138D02*
X0354601Y0104138D01*
X0354386Y0103539D02*
X0367874Y0103539D01*
X0366464Y0102941D02*
X0354064Y0102941D01*
X0353465Y0102342D02*
X0365054Y0102342D01*
X0363644Y0101744D02*
X0352867Y0101744D01*
X0352842Y0101145D02*
X0362337Y0101145D01*
X0361328Y0100547D02*
X0353441Y0100547D01*
X0353870Y0100118D02*
X0353870Y0100118D01*
X0353915Y0099948D02*
X0360318Y0099948D01*
X0359309Y0099350D02*
X0354076Y0099350D01*
X0354267Y0098751D02*
X0358300Y0098751D01*
X0357290Y0098153D02*
X0354396Y0098153D01*
X0354501Y0097762D02*
X0354501Y0097762D01*
X0354568Y0097695D02*
X0354568Y0097695D01*
X0355092Y0097554D02*
X0356281Y0097554D01*
X0345481Y0099350D02*
X0330702Y0099350D01*
X0330270Y0099782D02*
X0328014Y0097526D01*
X0330270Y0095270D01*
X0331728Y0096727D01*
X0331899Y0097024D01*
X0331988Y0097354D01*
X0331988Y0097697D01*
X0331899Y0098027D01*
X0331728Y0098324D01*
X0330270Y0099782D01*
X0329838Y0099350D02*
X0329017Y0099350D01*
X0329240Y0098751D02*
X0328418Y0098751D01*
X0328641Y0098153D02*
X0327820Y0098153D01*
X0327387Y0098153D02*
X0326565Y0098153D01*
X0326788Y0098751D02*
X0325967Y0098751D01*
X0326190Y0099350D02*
X0325368Y0099350D01*
X0325591Y0099948D02*
X0292300Y0099948D01*
X0292300Y0099350D02*
X0324505Y0099350D01*
X0323906Y0098751D02*
X0292300Y0098751D01*
X0292465Y0098153D02*
X0323380Y0098153D01*
X0323219Y0097554D02*
X0293063Y0097554D01*
X0293662Y0096956D02*
X0323347Y0096956D01*
X0323849Y0096357D02*
X0294260Y0096357D01*
X0294859Y0095759D02*
X0324447Y0095759D01*
X0325426Y0095759D02*
X0326247Y0095759D01*
X0326024Y0096357D02*
X0326846Y0096357D01*
X0326623Y0096956D02*
X0327444Y0096956D01*
X0327762Y0096956D02*
X0328584Y0096956D01*
X0328361Y0096357D02*
X0329182Y0096357D01*
X0328959Y0095759D02*
X0329781Y0095759D01*
X0329558Y0095160D02*
X0342653Y0095160D01*
X0342227Y0094562D02*
X0329562Y0094562D01*
X0328964Y0093963D02*
X0341801Y0093963D01*
X0341374Y0093365D02*
X0328339Y0093365D01*
X0326868Y0093365D02*
X0297253Y0093365D01*
X0297851Y0092766D02*
X0340948Y0092766D01*
X0340522Y0092168D02*
X0298450Y0092168D01*
X0299048Y0091569D02*
X0340095Y0091569D01*
X0339669Y0090971D02*
X0299647Y0090971D01*
X0300245Y0090372D02*
X0327689Y0090372D01*
X0327091Y0089774D02*
X0300844Y0089774D01*
X0301442Y0089175D02*
X0326492Y0089175D01*
X0325894Y0088577D02*
X0302041Y0088577D01*
X0302639Y0087978D02*
X0325295Y0087978D01*
X0324697Y0087380D02*
X0303238Y0087380D01*
X0303836Y0086781D02*
X0324098Y0086781D01*
X0323791Y0086183D02*
X0304435Y0086183D01*
X0305033Y0085584D02*
X0323587Y0085584D01*
X0323587Y0084986D02*
X0305632Y0084986D01*
X0309066Y0084387D02*
X0323681Y0084387D01*
X0323928Y0083789D02*
X0310152Y0083789D01*
X0310750Y0083190D02*
X0324429Y0083190D01*
X0325028Y0082592D02*
X0311349Y0082592D01*
X0311710Y0081993D02*
X0325626Y0081993D01*
X0326225Y0081395D02*
X0311958Y0081395D01*
X0312206Y0080796D02*
X0326823Y0080796D01*
X0327422Y0080198D02*
X0312433Y0080198D01*
X0312433Y0079599D02*
X0328273Y0079599D01*
X0330469Y0079599D02*
X0333750Y0079599D01*
X0333910Y0079001D02*
X0312433Y0079001D01*
X0312433Y0078402D02*
X0334427Y0078402D01*
X0333941Y0078888D02*
X0333941Y0078888D01*
X0333549Y0080198D02*
X0331320Y0080198D01*
X0331919Y0080796D02*
X0333429Y0080796D01*
X0333309Y0081244D02*
X0333309Y0081244D01*
X0333349Y0081395D02*
X0332517Y0081395D01*
X0335025Y0077803D02*
X0312385Y0077803D01*
X0312137Y0077205D02*
X0335150Y0077205D01*
X0334710Y0076606D02*
X0311889Y0076606D01*
X0311641Y0076008D02*
X0334269Y0076008D01*
X0333829Y0075409D02*
X0311182Y0075409D01*
X0310584Y0074811D02*
X0333389Y0074811D01*
X0332949Y0074212D02*
X0309985Y0074212D01*
X0308664Y0073614D02*
X0332509Y0073614D01*
X0332069Y0073015D02*
X0306866Y0073015D01*
X0306866Y0072417D02*
X0331628Y0072417D01*
X0331188Y0071818D02*
X0306644Y0071818D01*
X0306397Y0071220D02*
X0330748Y0071220D01*
X0330308Y0070621D02*
X0306149Y0070621D01*
X0305795Y0070023D02*
X0329868Y0070023D01*
X0329428Y0069424D02*
X0305197Y0069424D01*
X0304598Y0068826D02*
X0328988Y0068826D01*
X0328547Y0068227D02*
X0303534Y0068227D01*
X0281241Y0055060D02*
X0267115Y0055060D01*
X0267305Y0054462D02*
X0280311Y0054462D01*
X0279712Y0053863D02*
X0268171Y0053863D01*
X0268770Y0053265D02*
X0279114Y0053265D01*
X0278726Y0052666D02*
X0269297Y0052666D01*
X0269545Y0052068D02*
X0278478Y0052068D01*
X0278230Y0051469D02*
X0269793Y0051469D01*
X0270041Y0050870D02*
X0277982Y0050870D01*
X0277900Y0050272D02*
X0270050Y0050272D01*
X0270050Y0049673D02*
X0277900Y0049673D01*
X0277900Y0049075D02*
X0270050Y0049075D01*
X0269936Y0048476D02*
X0277900Y0048476D01*
X0278003Y0047878D02*
X0269688Y0047878D01*
X0269440Y0047279D02*
X0278251Y0047279D01*
X0278499Y0046681D02*
X0269115Y0046681D01*
X0268517Y0046082D02*
X0278747Y0046082D01*
X0279165Y0045484D02*
X0267918Y0045484D01*
X0267726Y0044287D02*
X0280362Y0044287D01*
X0280537Y0043688D02*
X0268346Y0043688D01*
X0268945Y0043090D02*
X0279939Y0043090D01*
X0279653Y0042491D02*
X0269369Y0042491D01*
X0269617Y0041893D02*
X0274621Y0041893D01*
X0273845Y0041294D02*
X0269865Y0041294D01*
X0270050Y0040696D02*
X0273246Y0040696D01*
X0272648Y0040097D02*
X0270050Y0040097D01*
X0270050Y0039499D02*
X0272049Y0039499D01*
X0271817Y0039267D02*
X0271817Y0039267D01*
X0271451Y0038900D02*
X0270050Y0038900D01*
X0269864Y0038302D02*
X0270852Y0038302D01*
X0270593Y0037703D02*
X0269616Y0037703D01*
X0269368Y0037105D02*
X0270345Y0037105D01*
X0270300Y0036506D02*
X0268941Y0036506D01*
X0268342Y0035908D02*
X0270300Y0035908D01*
X0270300Y0035309D02*
X0267717Y0035309D01*
X0266703Y0034711D02*
X0270300Y0034711D01*
X0270300Y0034112D02*
X0267922Y0034112D01*
X0268521Y0033514D02*
X0270300Y0033514D01*
X0270300Y0032915D02*
X0269119Y0032915D01*
X0269442Y0032317D02*
X0270300Y0032317D01*
X0270300Y0031718D02*
X0269690Y0031718D01*
X0269938Y0031120D02*
X0270300Y0031120D01*
X0270300Y0030521D02*
X0270050Y0030521D01*
X0270050Y0029923D02*
X0270300Y0029923D01*
X0270300Y0029324D02*
X0270050Y0029324D01*
X0270039Y0028726D02*
X0270300Y0028726D01*
X0270300Y0028127D02*
X0269791Y0028127D01*
X0269543Y0027529D02*
X0270079Y0027529D01*
X0269480Y0026930D02*
X0269295Y0026930D01*
X0268882Y0026332D02*
X0268766Y0026332D01*
X0268283Y0025733D02*
X0268168Y0025733D01*
X0267685Y0025134D02*
X0267295Y0025134D01*
X0257105Y0025134D02*
X0207295Y0025134D01*
X0208168Y0025733D02*
X0256232Y0025733D01*
X0255634Y0026332D02*
X0208766Y0026332D01*
X0209295Y0026930D02*
X0255105Y0026930D01*
X0254857Y0027529D02*
X0209543Y0027529D01*
X0209791Y0028127D02*
X0254609Y0028127D01*
X0254361Y0028726D02*
X0210039Y0028726D01*
X0210050Y0029324D02*
X0254350Y0029324D01*
X0254350Y0029923D02*
X0210050Y0029923D01*
X0210050Y0030521D02*
X0254350Y0030521D01*
X0254462Y0031120D02*
X0209938Y0031120D01*
X0209690Y0031718D02*
X0254710Y0031718D01*
X0254958Y0032317D02*
X0209442Y0032317D01*
X0209119Y0032915D02*
X0255281Y0032915D01*
X0255879Y0033514D02*
X0208521Y0033514D01*
X0207922Y0034112D02*
X0256478Y0034112D01*
X0256683Y0035309D02*
X0207717Y0035309D01*
X0208342Y0035908D02*
X0256058Y0035908D01*
X0255459Y0036506D02*
X0208941Y0036506D01*
X0209368Y0037105D02*
X0255032Y0037105D01*
X0254784Y0037703D02*
X0209616Y0037703D01*
X0209864Y0038302D02*
X0254536Y0038302D01*
X0254350Y0038900D02*
X0210050Y0038900D01*
X0210050Y0039499D02*
X0254350Y0039499D01*
X0254350Y0040097D02*
X0210050Y0040097D01*
X0210050Y0040696D02*
X0254350Y0040696D01*
X0254535Y0041294D02*
X0209865Y0041294D01*
X0209617Y0041893D02*
X0254783Y0041893D01*
X0255031Y0042491D02*
X0209369Y0042491D01*
X0208945Y0043090D02*
X0255455Y0043090D01*
X0256054Y0043688D02*
X0208346Y0043688D01*
X0207726Y0044287D02*
X0256674Y0044287D01*
X0257706Y0044885D02*
X0206694Y0044885D01*
X0207918Y0045484D02*
X0256482Y0045484D01*
X0255883Y0046082D02*
X0208517Y0046082D01*
X0209115Y0046681D02*
X0255285Y0046681D01*
X0254960Y0047279D02*
X0209440Y0047279D01*
X0209688Y0047878D02*
X0254712Y0047878D01*
X0254464Y0048476D02*
X0209936Y0048476D01*
X0210050Y0049075D02*
X0254350Y0049075D01*
X0254350Y0049673D02*
X0210050Y0049673D01*
X0210050Y0050272D02*
X0254350Y0050272D01*
X0254359Y0050870D02*
X0210041Y0050870D01*
X0209793Y0051469D02*
X0254607Y0051469D01*
X0254855Y0052068D02*
X0209545Y0052068D01*
X0209297Y0052666D02*
X0255103Y0052666D01*
X0255630Y0053265D02*
X0208770Y0053265D01*
X0208171Y0053863D02*
X0256229Y0053863D01*
X0257095Y0054462D02*
X0207305Y0054462D01*
X0207115Y0055060D02*
X0257285Y0055060D01*
X0256307Y0055659D02*
X0208093Y0055659D01*
X0208692Y0056257D02*
X0255708Y0056257D01*
X0255135Y0056856D02*
X0209265Y0056856D01*
X0209512Y0057454D02*
X0254887Y0057454D01*
X0254640Y0058053D02*
X0209760Y0058053D01*
X0210008Y0058651D02*
X0254392Y0058651D01*
X0254350Y0059250D02*
X0210050Y0059250D01*
X0210050Y0059848D02*
X0254350Y0059848D01*
X0254350Y0060447D02*
X0210050Y0060447D01*
X0209968Y0061045D02*
X0254432Y0061045D01*
X0254679Y0061644D02*
X0209721Y0061644D01*
X0209473Y0062242D02*
X0254927Y0062242D01*
X0255206Y0062841D02*
X0209194Y0062841D01*
X0208595Y0063439D02*
X0255805Y0063439D01*
X0256403Y0064038D02*
X0207997Y0064038D01*
X0206883Y0064636D02*
X0257517Y0064636D01*
X0256863Y0065235D02*
X0207537Y0065235D01*
X0208268Y0065833D02*
X0256132Y0065833D01*
X0255534Y0066432D02*
X0208866Y0066432D01*
X0209337Y0067030D02*
X0255063Y0067030D01*
X0254815Y0067629D02*
X0209585Y0067629D01*
X0209833Y0068227D02*
X0254567Y0068227D01*
X0254350Y0068826D02*
X0210050Y0068826D01*
X0210050Y0069424D02*
X0254350Y0069424D01*
X0254350Y0070023D02*
X0210050Y0070023D01*
X0210050Y0070621D02*
X0254350Y0070621D01*
X0254504Y0071220D02*
X0209896Y0071220D01*
X0209648Y0071818D02*
X0254752Y0071818D01*
X0255000Y0072417D02*
X0209400Y0072417D01*
X0209019Y0073015D02*
X0255381Y0073015D01*
X0255979Y0073614D02*
X0208421Y0073614D01*
X0207822Y0074212D02*
X0256578Y0074212D01*
X0256556Y0075409D02*
X0207844Y0075409D01*
X0208442Y0076008D02*
X0255958Y0076008D01*
X0255359Y0076606D02*
X0209041Y0076606D01*
X0209409Y0077205D02*
X0254991Y0077205D01*
X0254743Y0077803D02*
X0209657Y0077803D01*
X0209905Y0078402D02*
X0254495Y0078402D01*
X0254350Y0079001D02*
X0210050Y0079001D01*
X0210050Y0079599D02*
X0254350Y0079599D01*
X0254350Y0080198D02*
X0210050Y0080198D01*
X0210050Y0080796D02*
X0254350Y0080796D01*
X0254576Y0081395D02*
X0209824Y0081395D01*
X0209576Y0081993D02*
X0254824Y0081993D01*
X0255072Y0082592D02*
X0209328Y0082592D01*
X0208844Y0083190D02*
X0255556Y0083190D01*
X0256154Y0083789D02*
X0208246Y0083789D01*
X0207484Y0084387D02*
X0256916Y0084387D01*
X0257464Y0084986D02*
X0206936Y0084986D01*
X0208019Y0085584D02*
X0256381Y0085584D01*
X0255783Y0086183D02*
X0208617Y0086183D01*
X0209216Y0086781D02*
X0250942Y0086781D01*
X0250271Y0087380D02*
X0209482Y0087380D01*
X0209730Y0087978D02*
X0249672Y0087978D01*
X0257886Y0074811D02*
X0206514Y0074811D01*
X0195072Y0082592D02*
X0154958Y0082592D01*
X0154360Y0083190D02*
X0195556Y0083190D01*
X0196154Y0083789D02*
X0153761Y0083789D01*
X0153163Y0084387D02*
X0177550Y0084387D01*
X0177692Y0084305D02*
X0178023Y0084217D01*
X0180469Y0084217D01*
X0180469Y0087791D01*
X0181068Y0087791D01*
X0181068Y0084217D01*
X0183514Y0084217D01*
X0183524Y0084219D01*
X0183534Y0084217D01*
X0185980Y0084217D01*
X0185980Y0087791D01*
X0186580Y0087791D01*
X0186580Y0084217D01*
X0189026Y0084217D01*
X0189357Y0084305D01*
X0189653Y0084476D01*
X0189895Y0084718D01*
X0190067Y0085015D01*
X0190155Y0085345D01*
X0190155Y0087791D01*
X0186580Y0087791D01*
X0186580Y0088391D01*
X0190155Y0088391D01*
X0190155Y0090837D01*
X0190067Y0091168D01*
X0189895Y0091464D01*
X0189653Y0091706D01*
X0189357Y0091878D01*
X0189026Y0091966D01*
X0186580Y0091966D01*
X0186580Y0088391D01*
X0185980Y0088391D01*
X0185980Y0087791D01*
X0181069Y0087791D01*
X0181069Y0088391D01*
X0184643Y0088391D01*
X0185980Y0088391D01*
X0185980Y0091966D01*
X0183534Y0091966D01*
X0183524Y0091963D01*
X0183514Y0091966D01*
X0181068Y0091966D01*
X0181068Y0088391D01*
X0180469Y0088391D01*
X0180469Y0091966D01*
X0178023Y0091966D01*
X0177692Y0091878D01*
X0177395Y0091706D01*
X0177153Y0091464D01*
X0176982Y0091168D01*
X0176894Y0090837D01*
X0176894Y0088391D01*
X0180468Y0088391D01*
X0180468Y0087791D01*
X0176894Y0087791D01*
X0176894Y0085345D01*
X0176982Y0085015D01*
X0177153Y0084718D01*
X0177395Y0084476D01*
X0177692Y0084305D01*
X0176999Y0084986D02*
X0152564Y0084986D01*
X0151966Y0085584D02*
X0176894Y0085584D01*
X0176894Y0086183D02*
X0151367Y0086183D01*
X0150769Y0086781D02*
X0176894Y0086781D01*
X0176894Y0087380D02*
X0150170Y0087380D01*
X0149572Y0087978D02*
X0180468Y0087978D01*
X0180469Y0087380D02*
X0181068Y0087380D01*
X0181069Y0087978D02*
X0185980Y0087978D01*
X0185980Y0087380D02*
X0186580Y0087380D01*
X0186580Y0087978D02*
X0194670Y0087978D01*
X0194918Y0087380D02*
X0190155Y0087380D01*
X0190155Y0086781D02*
X0195184Y0086781D01*
X0195783Y0086183D02*
X0190155Y0086183D01*
X0190155Y0085584D02*
X0196381Y0085584D01*
X0197464Y0084986D02*
X0190050Y0084986D01*
X0189499Y0084387D02*
X0196916Y0084387D01*
X0194422Y0088577D02*
X0190155Y0088577D01*
X0190155Y0089175D02*
X0194350Y0089175D01*
X0194350Y0089774D02*
X0190155Y0089774D01*
X0190155Y0090372D02*
X0194350Y0090372D01*
X0194401Y0090971D02*
X0190119Y0090971D01*
X0189790Y0091569D02*
X0194649Y0091569D01*
X0194897Y0092168D02*
X0139699Y0092168D01*
X0139117Y0092766D02*
X0195144Y0092766D01*
X0195730Y0093365D02*
X0137939Y0093365D01*
X0145258Y0091569D02*
X0177258Y0091569D01*
X0176929Y0090971D02*
X0146579Y0090971D01*
X0147177Y0090372D02*
X0176894Y0090372D01*
X0176894Y0089774D02*
X0147776Y0089774D01*
X0148375Y0089175D02*
X0176894Y0089175D01*
X0176894Y0088577D02*
X0148973Y0088577D01*
X0126197Y0093365D02*
X0114449Y0093365D01*
X0113850Y0093963D02*
X0196329Y0093963D01*
X0197338Y0094562D02*
X0113251Y0094562D01*
X0112653Y0095160D02*
X0197043Y0095160D01*
X0196207Y0095759D02*
X0112054Y0095759D01*
X0111490Y0096322D02*
X0111490Y0096322D01*
X0111442Y0096357D02*
X0195608Y0096357D01*
X0195094Y0096956D02*
X0110618Y0096956D01*
X0109794Y0097554D02*
X0194846Y0097554D01*
X0194598Y0098153D02*
X0108970Y0098153D01*
X0108146Y0098751D02*
X0194350Y0098751D01*
X0194350Y0099350D02*
X0107322Y0099350D01*
X0106498Y0099948D02*
X0194350Y0099948D01*
X0194350Y0100547D02*
X0105674Y0100547D01*
X0104850Y0101145D02*
X0194473Y0101145D01*
X0194721Y0101744D02*
X0103777Y0101744D01*
X0104611Y0101319D02*
X0104611Y0101319D01*
X0102602Y0102342D02*
X0194969Y0102342D01*
X0195306Y0102941D02*
X0101427Y0102941D01*
X0100252Y0103539D02*
X0195905Y0103539D01*
X0196503Y0104138D02*
X0099077Y0104138D01*
X0097902Y0104737D02*
X0197759Y0104737D01*
X0196630Y0105335D02*
X0096552Y0105335D01*
X0094709Y0105934D02*
X0196032Y0105934D01*
X0195433Y0106532D02*
X0092867Y0106532D01*
X0091025Y0107131D02*
X0195022Y0107131D01*
X0194774Y0107729D02*
X0100264Y0107729D01*
X0100563Y0107881D02*
X0101199Y0108344D01*
X0101266Y0108410D01*
X0097942Y0111734D01*
X0094619Y0108410D01*
X0094685Y0108344D01*
X0095322Y0107881D01*
X0096023Y0107524D01*
X0096771Y0107281D01*
X0097549Y0107158D01*
X0098336Y0107158D01*
X0099113Y0107281D01*
X0099861Y0107524D01*
X0100563Y0107881D01*
X0101177Y0108328D02*
X0194526Y0108328D01*
X0194350Y0108926D02*
X0101774Y0108926D01*
X0101756Y0108901D02*
X0102219Y0109537D01*
X0102576Y0110239D01*
X0102819Y0110987D01*
X0102942Y0111764D01*
X0102942Y0112551D01*
X0102819Y0113329D01*
X0102576Y0114077D01*
X0102219Y0114778D01*
X0101756Y0115415D01*
X0101690Y0115481D01*
X0098366Y0112158D01*
X0097942Y0112582D01*
X0097518Y0112158D01*
X0094194Y0115481D01*
X0094128Y0115415D01*
X0093666Y0114778D01*
X0093308Y0114077D01*
X0093065Y0113329D01*
X0092942Y0112551D01*
X0092942Y0111764D01*
X0093065Y0110987D01*
X0093308Y0110239D01*
X0093666Y0109537D01*
X0094128Y0108901D01*
X0094194Y0108834D01*
X0097518Y0112158D01*
X0097942Y0111734D01*
X0098366Y0112158D01*
X0101690Y0108834D01*
X0101756Y0108901D01*
X0101598Y0108926D02*
X0100750Y0108926D01*
X0101000Y0109525D02*
X0100151Y0109525D01*
X0100401Y0110123D02*
X0099553Y0110123D01*
X0099803Y0110722D02*
X0098954Y0110722D01*
X0099204Y0111320D02*
X0098356Y0111320D01*
X0098127Y0111919D02*
X0098606Y0111919D01*
X0098726Y0112517D02*
X0098007Y0112517D01*
X0097942Y0112582D02*
X0101266Y0115905D01*
X0101199Y0115972D01*
X0100563Y0116434D01*
X0099861Y0116792D01*
X0099113Y0117035D01*
X0098336Y0117158D01*
X0097549Y0117158D01*
X0096771Y0117035D01*
X0096023Y0116792D01*
X0095322Y0116434D01*
X0094685Y0115972D01*
X0094619Y0115906D01*
X0097942Y0112582D01*
X0097877Y0112517D02*
X0097159Y0112517D01*
X0097279Y0111919D02*
X0097757Y0111919D01*
X0097529Y0111320D02*
X0096680Y0111320D01*
X0096930Y0110722D02*
X0096082Y0110722D01*
X0096332Y0110123D02*
X0095483Y0110123D01*
X0095733Y0109525D02*
X0094885Y0109525D01*
X0095135Y0108926D02*
X0094286Y0108926D01*
X0094110Y0108926D02*
X0081868Y0108926D01*
X0085648Y0108328D02*
X0094708Y0108328D01*
X0095621Y0107729D02*
X0089182Y0107729D01*
X0088948Y0107805D02*
X0088948Y0107805D01*
X0093367Y0110123D02*
X0046177Y0110123D01*
X0044315Y0110722D02*
X0093151Y0110722D01*
X0093012Y0111320D02*
X0042985Y0111320D01*
X0041655Y0111919D02*
X0092942Y0111919D01*
X0092942Y0112517D02*
X0040394Y0112517D01*
X0039581Y0113116D02*
X0093032Y0113116D01*
X0093191Y0113714D02*
X0038767Y0113714D01*
X0037954Y0114313D02*
X0093428Y0114313D01*
X0093762Y0114911D02*
X0037140Y0114911D01*
X0036349Y0115510D02*
X0095015Y0115510D01*
X0094873Y0116108D02*
X0035819Y0116108D01*
X0035289Y0116707D02*
X0095856Y0116707D01*
X0095613Y0114911D02*
X0094765Y0114911D01*
X0095363Y0114313D02*
X0096212Y0114313D01*
X0095962Y0113714D02*
X0096810Y0113714D01*
X0096560Y0113116D02*
X0097409Y0113116D01*
X0098476Y0113116D02*
X0099324Y0113116D01*
X0099074Y0113714D02*
X0099923Y0113714D01*
X0099673Y0114313D02*
X0100521Y0114313D01*
X0100271Y0114911D02*
X0101120Y0114911D01*
X0100870Y0115510D02*
X0196456Y0115510D01*
X0195857Y0116108D02*
X0101011Y0116108D01*
X0100028Y0116707D02*
X0195259Y0116707D01*
X0194949Y0117305D02*
X0034758Y0117305D01*
X0034228Y0117904D02*
X0194701Y0117904D01*
X0194453Y0118502D02*
X0033698Y0118502D01*
X0033168Y0119101D02*
X0194350Y0119101D01*
X0194350Y0119699D02*
X0032741Y0119699D01*
X0032360Y0120298D02*
X0194350Y0120298D01*
X0194370Y0120896D02*
X0031980Y0120896D01*
X0031633Y0121442D02*
X0031633Y0121442D01*
X0031605Y0121495D02*
X0194618Y0121495D01*
X0194866Y0122093D02*
X0031293Y0122093D01*
X0030980Y0122692D02*
X0195114Y0122692D01*
X0195656Y0123290D02*
X0030668Y0123290D01*
X0030356Y0123889D02*
X0196254Y0123889D01*
X0197158Y0124487D02*
X0030057Y0124487D01*
X0029816Y0125086D02*
X0197222Y0125086D01*
X0196281Y0125684D02*
X0029574Y0125684D01*
X0029333Y0126283D02*
X0195683Y0126283D01*
X0195125Y0126881D02*
X0029092Y0126881D01*
X0028850Y0127480D02*
X0194877Y0127480D01*
X0194629Y0128078D02*
X0028609Y0128078D01*
X0028368Y0128677D02*
X0194381Y0128677D01*
X0194350Y0129275D02*
X0028126Y0129275D01*
X0027885Y0129874D02*
X0194350Y0129874D01*
X0194350Y0130472D02*
X0027644Y0130472D01*
X0027485Y0131071D02*
X0194442Y0131071D01*
X0194690Y0131670D02*
X0027330Y0131670D01*
X0027175Y0132268D02*
X0194938Y0132268D01*
X0195232Y0132867D02*
X0027021Y0132867D01*
X0026866Y0133465D02*
X0195831Y0133465D01*
X0197644Y0114911D02*
X0102122Y0114911D01*
X0102456Y0114313D02*
X0196736Y0114313D01*
X0196080Y0113714D02*
X0102694Y0113714D01*
X0102853Y0113116D02*
X0195481Y0113116D01*
X0195041Y0112517D02*
X0102942Y0112517D01*
X0102942Y0111919D02*
X0194793Y0111919D01*
X0194545Y0111320D02*
X0102872Y0111320D01*
X0102733Y0110722D02*
X0194350Y0110722D01*
X0194350Y0110123D02*
X0102517Y0110123D01*
X0102209Y0109525D02*
X0194350Y0109525D01*
X0186580Y0091569D02*
X0185980Y0091569D01*
X0185980Y0090971D02*
X0186580Y0090971D01*
X0186580Y0090372D02*
X0185980Y0090372D01*
X0185980Y0089774D02*
X0186580Y0089774D01*
X0186580Y0089175D02*
X0185980Y0089175D01*
X0185980Y0088577D02*
X0186580Y0088577D01*
X0186580Y0086781D02*
X0185980Y0086781D01*
X0185980Y0086183D02*
X0186580Y0086183D01*
X0186580Y0085584D02*
X0185980Y0085584D01*
X0185980Y0084986D02*
X0186580Y0084986D01*
X0186580Y0084387D02*
X0185980Y0084387D01*
X0181068Y0084387D02*
X0180469Y0084387D01*
X0180469Y0084986D02*
X0181068Y0084986D01*
X0181068Y0085584D02*
X0180469Y0085584D01*
X0180469Y0086183D02*
X0181068Y0086183D01*
X0181068Y0086781D02*
X0180469Y0086781D01*
X0180469Y0088577D02*
X0181068Y0088577D01*
X0181068Y0089175D02*
X0180469Y0089175D01*
X0180469Y0089774D02*
X0181068Y0089774D01*
X0181068Y0090372D02*
X0180469Y0090372D01*
X0180469Y0090971D02*
X0181068Y0090971D01*
X0181068Y0091569D02*
X0180469Y0091569D01*
X0125019Y0092766D02*
X0115048Y0092766D01*
X0115646Y0092168D02*
X0124437Y0092168D01*
X0124189Y0091569D02*
X0116245Y0091569D01*
X0116844Y0090971D02*
X0124037Y0090971D01*
X0124037Y0090372D02*
X0117443Y0090372D01*
X0117894Y0089774D02*
X0124037Y0089774D01*
X0124037Y0089175D02*
X0118329Y0089175D01*
X0118764Y0088577D02*
X0124037Y0088577D01*
X0124037Y0087978D02*
X0119199Y0087978D01*
X0119634Y0087380D02*
X0124037Y0087380D01*
X0124037Y0086781D02*
X0120069Y0086781D01*
X0120505Y0086183D02*
X0124037Y0086183D01*
X0124037Y0085584D02*
X0120940Y0085584D01*
X0121375Y0084986D02*
X0124037Y0084986D01*
X0124282Y0084387D02*
X0121810Y0084387D01*
X0122245Y0083789D02*
X0124647Y0083789D01*
X0125298Y0083190D02*
X0122680Y0083190D01*
X0093675Y0109525D02*
X0048965Y0109525D01*
X0050152Y0109270D02*
X0050152Y0109270D01*
X0157950Y0034711D02*
X0175938Y0034711D01*
X0176537Y0034112D02*
X0158353Y0034112D01*
X0158662Y0033514D02*
X0176455Y0033514D01*
X0175744Y0032915D02*
X0159029Y0032915D01*
X0162136Y0028726D02*
X0174344Y0028726D01*
X0174456Y0028127D02*
X0162609Y0028127D01*
X0163081Y0027529D02*
X0174651Y0027529D01*
X0174947Y0026930D02*
X0163623Y0026930D01*
X0164271Y0026332D02*
X0175349Y0026332D01*
X0175896Y0025733D02*
X0164919Y0025733D01*
X0165567Y0025134D02*
X0176664Y0025134D01*
X0178090Y0024536D02*
X0166215Y0024536D01*
X0179000Y0024536D02*
X0179600Y0024536D01*
X0179600Y0025134D02*
X0179000Y0025134D01*
X0179000Y0025733D02*
X0179600Y0025733D01*
X0179600Y0026332D02*
X0179000Y0026332D01*
X0179000Y0026930D02*
X0179600Y0026930D01*
X0179600Y0027529D02*
X0179000Y0027529D01*
X0179000Y0028127D02*
X0179600Y0028127D01*
X0184280Y0029923D02*
X0187800Y0029923D01*
X0187800Y0030521D02*
X0184185Y0030521D01*
X0183999Y0031120D02*
X0187800Y0031120D01*
X0187800Y0031718D02*
X0183730Y0031718D01*
X0183361Y0032317D02*
X0187800Y0032317D01*
X0187800Y0032915D02*
X0182856Y0032915D01*
X0182813Y0033514D02*
X0187800Y0033514D01*
X0187800Y0034112D02*
X0184063Y0034112D01*
X0184662Y0034711D02*
X0187800Y0034711D01*
X0187341Y0035309D02*
X0185260Y0035309D01*
X0191255Y0041294D02*
X0194535Y0041294D01*
X0194350Y0040696D02*
X0191854Y0040696D01*
X0192452Y0040097D02*
X0194350Y0040097D01*
X0194350Y0039499D02*
X0193051Y0039499D01*
X0193649Y0038900D02*
X0194350Y0038900D01*
X0194248Y0038302D02*
X0194536Y0038302D01*
X0194507Y0037703D02*
X0194784Y0037703D01*
X0194755Y0037105D02*
X0195032Y0037105D01*
X0194800Y0036506D02*
X0195459Y0036506D01*
X0196058Y0035908D02*
X0194800Y0035908D01*
X0194800Y0035309D02*
X0196683Y0035309D01*
X0197697Y0034711D02*
X0194800Y0034711D01*
X0194800Y0034112D02*
X0196478Y0034112D01*
X0195879Y0033514D02*
X0194800Y0033514D01*
X0194800Y0032915D02*
X0195281Y0032915D01*
X0194958Y0032317D02*
X0194800Y0032317D01*
X0206703Y0034711D02*
X0257697Y0034711D01*
X0266694Y0044885D02*
X0279764Y0044885D01*
X0280938Y0034711D02*
X0277300Y0034711D01*
X0277300Y0034112D02*
X0281537Y0034112D01*
X0281455Y0033514D02*
X0277300Y0033514D01*
X0277300Y0032915D02*
X0280744Y0032915D01*
X0280239Y0032317D02*
X0277300Y0032317D01*
X0277300Y0031718D02*
X0279870Y0031718D01*
X0279601Y0031120D02*
X0277300Y0031120D01*
X0277300Y0030521D02*
X0279415Y0030521D01*
X0279320Y0029923D02*
X0277300Y0029923D01*
X0284600Y0029324D02*
X0300157Y0029324D01*
X0284759Y0016755D02*
X0180383Y0016755D01*
X0182506Y0016157D02*
X0283055Y0016157D01*
X0280612Y0015558D02*
X0185448Y0015558D01*
X0190657Y0041893D02*
X0194783Y0041893D01*
X0195031Y0042491D02*
X0189883Y0042491D01*
X0185661Y0043090D02*
X0195455Y0043090D01*
X0196054Y0043688D02*
X0185063Y0043688D01*
X0184464Y0044287D02*
X0196674Y0044287D01*
X0197706Y0044885D02*
X0183836Y0044885D01*
X0184435Y0045484D02*
X0196482Y0045484D01*
X0195883Y0046082D02*
X0184853Y0046082D01*
X0185101Y0046681D02*
X0195285Y0046681D01*
X0194960Y0047279D02*
X0185349Y0047279D01*
X0185597Y0047878D02*
X0194712Y0047878D01*
X0194464Y0048476D02*
X0185700Y0048476D01*
X0185700Y0049075D02*
X0194350Y0049075D01*
X0194350Y0049673D02*
X0185700Y0049673D01*
X0185700Y0050272D02*
X0194350Y0050272D01*
X0194359Y0050870D02*
X0185618Y0050870D01*
X0185370Y0051469D02*
X0194607Y0051469D01*
X0194855Y0052068D02*
X0185122Y0052068D01*
X0184874Y0052666D02*
X0195103Y0052666D01*
X0195630Y0053265D02*
X0184486Y0053265D01*
X0183888Y0053863D02*
X0196229Y0053863D01*
X0197095Y0054462D02*
X0183289Y0054462D01*
X0182359Y0055060D02*
X0197285Y0055060D01*
X0196307Y0055659D02*
X0180914Y0055659D01*
X0292300Y0100547D02*
X0325702Y0100547D01*
X0326300Y0101145D02*
X0320448Y0101145D01*
X0321047Y0101744D02*
X0326967Y0101744D01*
X0327164Y0097554D02*
X0327221Y0097554D01*
X0327986Y0097554D02*
X0328043Y0097554D01*
X0330760Y0095759D02*
X0343080Y0095759D01*
X0343506Y0096357D02*
X0331358Y0096357D01*
X0331860Y0096956D02*
X0343933Y0096956D01*
X0344359Y0097554D02*
X0331988Y0097554D01*
X0331827Y0098153D02*
X0344593Y0098153D01*
X0344706Y0098574D02*
X0344706Y0098574D01*
X0344883Y0098751D02*
X0331301Y0098751D01*
X0325649Y0095160D02*
X0295457Y0095160D01*
X0296056Y0094562D02*
X0325644Y0094562D01*
X0326243Y0093963D02*
X0296654Y0093963D01*
X0292300Y0101145D02*
X0317081Y0101145D01*
X0316482Y0101744D02*
X0292300Y0101744D01*
X0292300Y0102342D02*
X0315884Y0102342D01*
X0315285Y0102941D02*
X0292300Y0102941D01*
X0292300Y0103539D02*
X0314687Y0103539D01*
X0314088Y0104138D02*
X0292300Y0104138D01*
X0292300Y0104737D02*
X0313489Y0104737D01*
X0313184Y0105335D02*
X0292300Y0105335D01*
X0292300Y0105934D02*
X0312980Y0105934D01*
X0312980Y0106532D02*
X0292300Y0106532D01*
X0292300Y0107131D02*
X0313075Y0107131D01*
X0313323Y0107729D02*
X0292300Y0107729D01*
X0292300Y0108328D02*
X0313825Y0108328D01*
X0314423Y0108926D02*
X0292300Y0108926D01*
X0292300Y0109525D02*
X0309133Y0109525D01*
X0308103Y0110123D02*
X0292300Y0110123D01*
X0310718Y0109525D02*
X0315022Y0109525D01*
X0315620Y0110123D02*
X0311748Y0110123D01*
X0312347Y0110722D02*
X0316219Y0110722D01*
X0316817Y0111320D02*
X0312945Y0111320D01*
X0313544Y0111919D02*
X0317671Y0111919D01*
X0319858Y0111919D02*
X0322854Y0111919D01*
X0322255Y0112517D02*
X0314142Y0112517D01*
X0314741Y0113116D02*
X0321661Y0113116D01*
X0321413Y0113714D02*
X0315316Y0113714D01*
X0315564Y0114313D02*
X0321253Y0114313D01*
X0321253Y0114911D02*
X0315710Y0114911D01*
X0315710Y0115510D02*
X0321392Y0115510D01*
X0321640Y0116108D02*
X0315558Y0116108D01*
X0315310Y0116707D02*
X0322204Y0116707D01*
X0322802Y0117305D02*
X0314727Y0117305D01*
X0314128Y0117904D02*
X0317050Y0117904D01*
X0316270Y0118502D02*
X0313530Y0118502D01*
X0312931Y0119101D02*
X0315672Y0119101D01*
X0315073Y0119699D02*
X0312333Y0119699D01*
X0311734Y0120298D02*
X0314475Y0120298D01*
X0313876Y0120896D02*
X0310684Y0120896D01*
X0319489Y0117904D02*
X0323401Y0117904D01*
X0323999Y0118502D02*
X0320269Y0118502D01*
X0320867Y0119101D02*
X0324598Y0119101D01*
X0325196Y0119699D02*
X0321466Y0119699D01*
X0320712Y0111320D02*
X0323452Y0111320D01*
X0324051Y0110722D02*
X0321310Y0110722D01*
X0321909Y0110123D02*
X0324649Y0110123D01*
X0325248Y0109525D02*
X0322507Y0109525D01*
X0331053Y0090372D02*
X0339242Y0090372D01*
X0338816Y0089774D02*
X0331651Y0089774D01*
X0332250Y0089175D02*
X0338390Y0089175D01*
X0335061Y0088577D02*
X0332849Y0088577D01*
X0333447Y0087978D02*
X0334109Y0087978D01*
X0302300Y0129275D02*
X0434573Y0129275D01*
X0085367Y0190324D02*
X0077300Y0190324D01*
X0077300Y0190922D02*
X0084768Y0190922D01*
X0084170Y0191521D02*
X0077300Y0191521D01*
X0077300Y0192119D02*
X0083571Y0192119D01*
X0082973Y0192718D02*
X0077300Y0192718D01*
X0077300Y0193316D02*
X0082800Y0193316D01*
X0082800Y0193915D02*
X0077300Y0193915D01*
X0077300Y0194513D02*
X0082800Y0194513D01*
D20*
X0151300Y0208800D03*
X0201300Y0186300D03*
X0248800Y0201300D03*
X0283800Y0186300D03*
X0291300Y0198800D03*
X0283800Y0173800D03*
X0273800Y0173800D03*
X0293800Y0138800D03*
X0283800Y0121300D03*
X0413800Y0143800D03*
X0396300Y0208800D03*
X0396300Y0226300D03*
X0401300Y0238800D03*
X0311300Y0233800D03*
X0063800Y0121300D03*
X0038800Y0148800D03*
D21*
X0073800Y0183800D01*
X0073800Y0231800D01*
X0178800Y0209300D02*
X0178800Y0193800D01*
X0182100Y0190500D01*
X0217900Y0190500D01*
X0217900Y0200400D01*
X0226300Y0208800D01*
X0253300Y0208800D01*
X0253800Y0209300D01*
X0253800Y0203800D01*
X0258800Y0198800D01*
X0291300Y0198800D01*
X0283800Y0186300D02*
X0283800Y0173800D01*
X0290300Y0169800D02*
X0298800Y0161300D01*
X0298800Y0128800D01*
X0288800Y0118800D01*
X0288800Y0096868D01*
X0306584Y0079084D01*
X0278800Y0106300D02*
X0272300Y0099800D01*
X0262200Y0099800D01*
X0278800Y0106300D02*
X0278800Y0116300D01*
X0283800Y0121300D01*
X0293800Y0138800D02*
X0263200Y0138800D01*
X0262200Y0139800D01*
X0243800Y0143800D02*
X0243800Y0098800D01*
X0252800Y0089800D01*
X0262200Y0089800D01*
X0276300Y0038800D02*
X0284700Y0038800D01*
X0285300Y0039400D01*
X0276300Y0038800D02*
X0273800Y0036300D01*
X0273800Y0026300D01*
X0268800Y0021300D01*
X0196300Y0021300D01*
X0191300Y0026300D01*
X0191300Y0036300D01*
X0188200Y0039400D01*
X0180300Y0039400D01*
X0179700Y0038800D01*
X0171300Y0038800D01*
X0163800Y0046300D01*
X0163800Y0068800D01*
X0144509Y0088091D01*
X0134824Y0088091D01*
X0049400Y0159400D02*
X0038800Y0148800D01*
X0049400Y0159400D02*
X0089200Y0159400D01*
X0201300Y0186300D02*
X0243800Y0143800D01*
X0262200Y0169800D02*
X0290300Y0169800D01*
X0273800Y0173800D02*
X0273800Y0181300D01*
X0261300Y0193800D01*
X0256300Y0193800D01*
X0248800Y0201300D01*
X0340115Y0202600D02*
X0340115Y0210115D01*
X0356300Y0223800D02*
X0356300Y0231800D01*
X0396300Y0226300D02*
X0396300Y0208800D01*
M02*
