G75*
%MOIN*%
%OFA0B0*%
%FSLAX25Y25*%
%IPPOS*%
%LPD*%
%AMOC8*
5,1,8,0,0,1.08239X$1,22.5*
%
%ADD10C,0.00600*%
%ADD11C,0.00500*%
%ADD12C,0.00800*%
%ADD13C,0.00400*%
%ADD14C,0.00200*%
%ADD15C,0.00004*%
%ADD16C,0.01000*%
D10*
X0160517Y0144758D02*
X0164784Y0144758D01*
X0162651Y0142625D02*
X0162651Y0146892D01*
X0148406Y0156280D02*
X0148408Y0156421D01*
X0148414Y0156562D01*
X0148424Y0156702D01*
X0148438Y0156842D01*
X0148456Y0156982D01*
X0148477Y0157121D01*
X0148503Y0157260D01*
X0148532Y0157398D01*
X0148566Y0157534D01*
X0148603Y0157670D01*
X0148644Y0157805D01*
X0148689Y0157939D01*
X0148738Y0158071D01*
X0148790Y0158202D01*
X0148846Y0158331D01*
X0148906Y0158458D01*
X0148969Y0158584D01*
X0149035Y0158708D01*
X0149106Y0158831D01*
X0149179Y0158951D01*
X0149256Y0159069D01*
X0149336Y0159185D01*
X0149420Y0159298D01*
X0149506Y0159409D01*
X0149596Y0159518D01*
X0149689Y0159624D01*
X0149784Y0159727D01*
X0149883Y0159828D01*
X0149984Y0159926D01*
X0150088Y0160021D01*
X0150195Y0160113D01*
X0150304Y0160202D01*
X0150416Y0160287D01*
X0150530Y0160370D01*
X0150646Y0160450D01*
X0150765Y0160526D01*
X0150886Y0160598D01*
X0151008Y0160668D01*
X0151133Y0160733D01*
X0151259Y0160796D01*
X0151387Y0160854D01*
X0151517Y0160909D01*
X0151648Y0160961D01*
X0151781Y0161008D01*
X0151915Y0161052D01*
X0152050Y0161093D01*
X0152186Y0161129D01*
X0152323Y0161161D01*
X0152461Y0161190D01*
X0152599Y0161215D01*
X0152739Y0161235D01*
X0152879Y0161252D01*
X0153019Y0161265D01*
X0153160Y0161274D01*
X0153300Y0161279D01*
X0153441Y0161280D01*
X0153582Y0161277D01*
X0153723Y0161270D01*
X0153863Y0161259D01*
X0154003Y0161244D01*
X0154143Y0161225D01*
X0154282Y0161203D01*
X0154420Y0161176D01*
X0154558Y0161146D01*
X0154694Y0161111D01*
X0154830Y0161073D01*
X0154964Y0161031D01*
X0155098Y0160985D01*
X0155230Y0160936D01*
X0155360Y0160882D01*
X0155489Y0160825D01*
X0155616Y0160765D01*
X0155742Y0160701D01*
X0155865Y0160633D01*
X0155987Y0160562D01*
X0156107Y0160488D01*
X0156224Y0160410D01*
X0156339Y0160329D01*
X0156452Y0160245D01*
X0156563Y0160158D01*
X0156671Y0160067D01*
X0156776Y0159974D01*
X0156879Y0159877D01*
X0156979Y0159778D01*
X0157076Y0159676D01*
X0157170Y0159571D01*
X0157261Y0159464D01*
X0157349Y0159354D01*
X0157434Y0159242D01*
X0157516Y0159127D01*
X0157595Y0159010D01*
X0157670Y0158891D01*
X0157742Y0158770D01*
X0157810Y0158647D01*
X0157875Y0158522D01*
X0157937Y0158395D01*
X0157994Y0158266D01*
X0158049Y0158136D01*
X0158099Y0158005D01*
X0158146Y0157872D01*
X0158189Y0157738D01*
X0158228Y0157602D01*
X0158263Y0157466D01*
X0158295Y0157329D01*
X0158322Y0157191D01*
X0158346Y0157052D01*
X0158366Y0156912D01*
X0158382Y0156772D01*
X0158394Y0156632D01*
X0158402Y0156491D01*
X0158406Y0156350D01*
X0158406Y0156210D01*
X0158402Y0156069D01*
X0158394Y0155928D01*
X0158382Y0155788D01*
X0158366Y0155648D01*
X0158346Y0155508D01*
X0158322Y0155369D01*
X0158295Y0155231D01*
X0158263Y0155094D01*
X0158228Y0154958D01*
X0158189Y0154822D01*
X0158146Y0154688D01*
X0158099Y0154555D01*
X0158049Y0154424D01*
X0157994Y0154294D01*
X0157937Y0154165D01*
X0157875Y0154038D01*
X0157810Y0153913D01*
X0157742Y0153790D01*
X0157670Y0153669D01*
X0157595Y0153550D01*
X0157516Y0153433D01*
X0157434Y0153318D01*
X0157349Y0153206D01*
X0157261Y0153096D01*
X0157170Y0152989D01*
X0157076Y0152884D01*
X0156979Y0152782D01*
X0156879Y0152683D01*
X0156776Y0152586D01*
X0156671Y0152493D01*
X0156563Y0152402D01*
X0156452Y0152315D01*
X0156339Y0152231D01*
X0156224Y0152150D01*
X0156107Y0152072D01*
X0155987Y0151998D01*
X0155865Y0151927D01*
X0155742Y0151859D01*
X0155616Y0151795D01*
X0155489Y0151735D01*
X0155360Y0151678D01*
X0155230Y0151624D01*
X0155098Y0151575D01*
X0154964Y0151529D01*
X0154830Y0151487D01*
X0154694Y0151449D01*
X0154558Y0151414D01*
X0154420Y0151384D01*
X0154282Y0151357D01*
X0154143Y0151335D01*
X0154003Y0151316D01*
X0153863Y0151301D01*
X0153723Y0151290D01*
X0153582Y0151283D01*
X0153441Y0151280D01*
X0153300Y0151281D01*
X0153160Y0151286D01*
X0153019Y0151295D01*
X0152879Y0151308D01*
X0152739Y0151325D01*
X0152599Y0151345D01*
X0152461Y0151370D01*
X0152323Y0151399D01*
X0152186Y0151431D01*
X0152050Y0151467D01*
X0151915Y0151508D01*
X0151781Y0151552D01*
X0151648Y0151599D01*
X0151517Y0151651D01*
X0151387Y0151706D01*
X0151259Y0151764D01*
X0151133Y0151827D01*
X0151008Y0151892D01*
X0150886Y0151962D01*
X0150765Y0152034D01*
X0150646Y0152110D01*
X0150530Y0152190D01*
X0150416Y0152273D01*
X0150304Y0152358D01*
X0150195Y0152447D01*
X0150088Y0152539D01*
X0149984Y0152634D01*
X0149883Y0152732D01*
X0149784Y0152833D01*
X0149689Y0152936D01*
X0149596Y0153042D01*
X0149506Y0153151D01*
X0149420Y0153262D01*
X0149336Y0153375D01*
X0149256Y0153491D01*
X0149179Y0153609D01*
X0149106Y0153729D01*
X0149035Y0153852D01*
X0148969Y0153976D01*
X0148906Y0154102D01*
X0148846Y0154229D01*
X0148790Y0154358D01*
X0148738Y0154489D01*
X0148689Y0154621D01*
X0148644Y0154755D01*
X0148603Y0154890D01*
X0148566Y0155026D01*
X0148532Y0155162D01*
X0148503Y0155300D01*
X0148477Y0155439D01*
X0148456Y0155578D01*
X0148438Y0155718D01*
X0148424Y0155858D01*
X0148414Y0155998D01*
X0148408Y0156139D01*
X0148406Y0156280D01*
X0129406Y0156280D02*
X0129413Y0156869D01*
X0129435Y0157458D01*
X0129471Y0158046D01*
X0129522Y0158632D01*
X0129586Y0159218D01*
X0129666Y0159802D01*
X0129759Y0160383D01*
X0129867Y0160962D01*
X0129989Y0161538D01*
X0130125Y0162112D01*
X0130275Y0162681D01*
X0130439Y0163247D01*
X0130617Y0163808D01*
X0130809Y0164365D01*
X0131014Y0164917D01*
X0131233Y0165464D01*
X0131465Y0166006D01*
X0131710Y0166541D01*
X0131969Y0167071D01*
X0132240Y0167594D01*
X0132524Y0168110D01*
X0132821Y0168618D01*
X0133130Y0169120D01*
X0133451Y0169614D01*
X0133784Y0170099D01*
X0134129Y0170577D01*
X0134486Y0171046D01*
X0134854Y0171505D01*
X0135233Y0171956D01*
X0135623Y0172397D01*
X0136024Y0172829D01*
X0136435Y0173251D01*
X0136857Y0173662D01*
X0137289Y0174063D01*
X0137730Y0174453D01*
X0138181Y0174832D01*
X0138640Y0175200D01*
X0139109Y0175557D01*
X0139587Y0175902D01*
X0140072Y0176235D01*
X0140566Y0176556D01*
X0141068Y0176865D01*
X0141576Y0177162D01*
X0142092Y0177446D01*
X0142615Y0177717D01*
X0143145Y0177976D01*
X0143680Y0178221D01*
X0144222Y0178453D01*
X0144769Y0178672D01*
X0145321Y0178877D01*
X0145878Y0179069D01*
X0146439Y0179247D01*
X0147005Y0179411D01*
X0147574Y0179561D01*
X0148148Y0179697D01*
X0148724Y0179819D01*
X0149303Y0179927D01*
X0149884Y0180020D01*
X0150468Y0180100D01*
X0151054Y0180164D01*
X0151640Y0180215D01*
X0152228Y0180251D01*
X0152817Y0180273D01*
X0153406Y0180280D01*
X0153995Y0180273D01*
X0154584Y0180251D01*
X0155172Y0180215D01*
X0155758Y0180164D01*
X0156344Y0180100D01*
X0156928Y0180020D01*
X0157509Y0179927D01*
X0158088Y0179819D01*
X0158664Y0179697D01*
X0159238Y0179561D01*
X0159807Y0179411D01*
X0160373Y0179247D01*
X0160934Y0179069D01*
X0161491Y0178877D01*
X0162043Y0178672D01*
X0162590Y0178453D01*
X0163132Y0178221D01*
X0163667Y0177976D01*
X0164197Y0177717D01*
X0164720Y0177446D01*
X0165236Y0177162D01*
X0165744Y0176865D01*
X0166246Y0176556D01*
X0166740Y0176235D01*
X0167225Y0175902D01*
X0167703Y0175557D01*
X0168172Y0175200D01*
X0168631Y0174832D01*
X0169082Y0174453D01*
X0169523Y0174063D01*
X0169955Y0173662D01*
X0170377Y0173251D01*
X0170788Y0172829D01*
X0171189Y0172397D01*
X0171579Y0171956D01*
X0171958Y0171505D01*
X0172326Y0171046D01*
X0172683Y0170577D01*
X0173028Y0170099D01*
X0173361Y0169614D01*
X0173682Y0169120D01*
X0173991Y0168618D01*
X0174288Y0168110D01*
X0174572Y0167594D01*
X0174843Y0167071D01*
X0175102Y0166541D01*
X0175347Y0166006D01*
X0175579Y0165464D01*
X0175798Y0164917D01*
X0176003Y0164365D01*
X0176195Y0163808D01*
X0176373Y0163247D01*
X0176537Y0162681D01*
X0176687Y0162112D01*
X0176823Y0161538D01*
X0176945Y0160962D01*
X0177053Y0160383D01*
X0177146Y0159802D01*
X0177226Y0159218D01*
X0177290Y0158632D01*
X0177341Y0158046D01*
X0177377Y0157458D01*
X0177399Y0156869D01*
X0177406Y0156280D01*
X0177399Y0155691D01*
X0177377Y0155102D01*
X0177341Y0154514D01*
X0177290Y0153928D01*
X0177226Y0153342D01*
X0177146Y0152758D01*
X0177053Y0152177D01*
X0176945Y0151598D01*
X0176823Y0151022D01*
X0176687Y0150448D01*
X0176537Y0149879D01*
X0176373Y0149313D01*
X0176195Y0148752D01*
X0176003Y0148195D01*
X0175798Y0147643D01*
X0175579Y0147096D01*
X0175347Y0146554D01*
X0175102Y0146019D01*
X0174843Y0145489D01*
X0174572Y0144966D01*
X0174288Y0144450D01*
X0173991Y0143942D01*
X0173682Y0143440D01*
X0173361Y0142946D01*
X0173028Y0142461D01*
X0172683Y0141983D01*
X0172326Y0141514D01*
X0171958Y0141055D01*
X0171579Y0140604D01*
X0171189Y0140163D01*
X0170788Y0139731D01*
X0170377Y0139309D01*
X0169955Y0138898D01*
X0169523Y0138497D01*
X0169082Y0138107D01*
X0168631Y0137728D01*
X0168172Y0137360D01*
X0167703Y0137003D01*
X0167225Y0136658D01*
X0166740Y0136325D01*
X0166246Y0136004D01*
X0165744Y0135695D01*
X0165236Y0135398D01*
X0164720Y0135114D01*
X0164197Y0134843D01*
X0163667Y0134584D01*
X0163132Y0134339D01*
X0162590Y0134107D01*
X0162043Y0133888D01*
X0161491Y0133683D01*
X0160934Y0133491D01*
X0160373Y0133313D01*
X0159807Y0133149D01*
X0159238Y0132999D01*
X0158664Y0132863D01*
X0158088Y0132741D01*
X0157509Y0132633D01*
X0156928Y0132540D01*
X0156344Y0132460D01*
X0155758Y0132396D01*
X0155172Y0132345D01*
X0154584Y0132309D01*
X0153995Y0132287D01*
X0153406Y0132280D01*
X0152817Y0132287D01*
X0152228Y0132309D01*
X0151640Y0132345D01*
X0151054Y0132396D01*
X0150468Y0132460D01*
X0149884Y0132540D01*
X0149303Y0132633D01*
X0148724Y0132741D01*
X0148148Y0132863D01*
X0147574Y0132999D01*
X0147005Y0133149D01*
X0146439Y0133313D01*
X0145878Y0133491D01*
X0145321Y0133683D01*
X0144769Y0133888D01*
X0144222Y0134107D01*
X0143680Y0134339D01*
X0143145Y0134584D01*
X0142615Y0134843D01*
X0142092Y0135114D01*
X0141576Y0135398D01*
X0141068Y0135695D01*
X0140566Y0136004D01*
X0140072Y0136325D01*
X0139587Y0136658D01*
X0139109Y0137003D01*
X0138640Y0137360D01*
X0138181Y0137728D01*
X0137730Y0138107D01*
X0137289Y0138497D01*
X0136857Y0138898D01*
X0136435Y0139309D01*
X0136024Y0139731D01*
X0135623Y0140163D01*
X0135233Y0140604D01*
X0134854Y0141055D01*
X0134486Y0141514D01*
X0134129Y0141983D01*
X0133784Y0142461D01*
X0133451Y0142946D01*
X0133130Y0143440D01*
X0132821Y0143942D01*
X0132524Y0144450D01*
X0132240Y0144966D01*
X0131969Y0145489D01*
X0131710Y0146019D01*
X0131465Y0146554D01*
X0131233Y0147096D01*
X0131014Y0147643D01*
X0130809Y0148195D01*
X0130617Y0148752D01*
X0130439Y0149313D01*
X0130275Y0149879D01*
X0130125Y0150448D01*
X0129989Y0151022D01*
X0129867Y0151598D01*
X0129759Y0152177D01*
X0129666Y0152758D01*
X0129586Y0153342D01*
X0129522Y0153928D01*
X0129471Y0154514D01*
X0129435Y0155102D01*
X0129413Y0155691D01*
X0129406Y0156280D01*
X0089162Y0162692D02*
X0086687Y0165167D01*
X0079616Y0172238D01*
X0077141Y0174713D01*
X0069009Y0171531D02*
X0068302Y0170824D01*
X0067595Y0171531D01*
X0063352Y0167288D01*
X0064060Y0166581D01*
X0063352Y0165874D01*
X0073666Y0160217D02*
X0073668Y0160280D01*
X0073674Y0160342D01*
X0073684Y0160404D01*
X0073697Y0160466D01*
X0073715Y0160526D01*
X0073736Y0160585D01*
X0073761Y0160643D01*
X0073790Y0160699D01*
X0073822Y0160753D01*
X0073857Y0160805D01*
X0073895Y0160854D01*
X0073937Y0160902D01*
X0073981Y0160946D01*
X0074029Y0160988D01*
X0074078Y0161026D01*
X0074130Y0161061D01*
X0074184Y0161093D01*
X0074240Y0161122D01*
X0074298Y0161147D01*
X0074357Y0161168D01*
X0074417Y0161186D01*
X0074479Y0161199D01*
X0074541Y0161209D01*
X0074603Y0161215D01*
X0074666Y0161217D01*
X0074729Y0161215D01*
X0074791Y0161209D01*
X0074853Y0161199D01*
X0074915Y0161186D01*
X0074975Y0161168D01*
X0075034Y0161147D01*
X0075092Y0161122D01*
X0075148Y0161093D01*
X0075202Y0161061D01*
X0075254Y0161026D01*
X0075303Y0160988D01*
X0075351Y0160946D01*
X0075395Y0160902D01*
X0075437Y0160854D01*
X0075475Y0160805D01*
X0075510Y0160753D01*
X0075542Y0160699D01*
X0075571Y0160643D01*
X0075596Y0160585D01*
X0075617Y0160526D01*
X0075635Y0160466D01*
X0075648Y0160404D01*
X0075658Y0160342D01*
X0075664Y0160280D01*
X0075666Y0160217D01*
X0075664Y0160154D01*
X0075658Y0160092D01*
X0075648Y0160030D01*
X0075635Y0159968D01*
X0075617Y0159908D01*
X0075596Y0159849D01*
X0075571Y0159791D01*
X0075542Y0159735D01*
X0075510Y0159681D01*
X0075475Y0159629D01*
X0075437Y0159580D01*
X0075395Y0159532D01*
X0075351Y0159488D01*
X0075303Y0159446D01*
X0075254Y0159408D01*
X0075202Y0159373D01*
X0075148Y0159341D01*
X0075092Y0159312D01*
X0075034Y0159287D01*
X0074975Y0159266D01*
X0074915Y0159248D01*
X0074853Y0159235D01*
X0074791Y0159225D01*
X0074729Y0159219D01*
X0074666Y0159217D01*
X0074603Y0159219D01*
X0074541Y0159225D01*
X0074479Y0159235D01*
X0074417Y0159248D01*
X0074357Y0159266D01*
X0074298Y0159287D01*
X0074240Y0159312D01*
X0074184Y0159341D01*
X0074130Y0159373D01*
X0074078Y0159408D01*
X0074029Y0159446D01*
X0073981Y0159488D01*
X0073937Y0159532D01*
X0073895Y0159580D01*
X0073857Y0159629D01*
X0073822Y0159681D01*
X0073790Y0159735D01*
X0073761Y0159791D01*
X0073736Y0159849D01*
X0073715Y0159908D01*
X0073697Y0159968D01*
X0073684Y0160030D01*
X0073674Y0160092D01*
X0073668Y0160154D01*
X0073666Y0160217D01*
X0067666Y0160217D02*
X0067668Y0160389D01*
X0067674Y0160560D01*
X0067685Y0160732D01*
X0067700Y0160903D01*
X0067719Y0161074D01*
X0067742Y0161244D01*
X0067769Y0161414D01*
X0067801Y0161583D01*
X0067836Y0161751D01*
X0067876Y0161918D01*
X0067920Y0162084D01*
X0067967Y0162249D01*
X0068019Y0162413D01*
X0068075Y0162575D01*
X0068135Y0162736D01*
X0068199Y0162896D01*
X0068267Y0163054D01*
X0068338Y0163210D01*
X0068413Y0163364D01*
X0068493Y0163517D01*
X0068575Y0163667D01*
X0068662Y0163816D01*
X0068752Y0163962D01*
X0068846Y0164106D01*
X0068943Y0164248D01*
X0069044Y0164387D01*
X0069148Y0164524D01*
X0069255Y0164658D01*
X0069366Y0164789D01*
X0069479Y0164918D01*
X0069596Y0165044D01*
X0069716Y0165167D01*
X0069839Y0165287D01*
X0069965Y0165404D01*
X0070094Y0165517D01*
X0070225Y0165628D01*
X0070359Y0165735D01*
X0070496Y0165839D01*
X0070635Y0165940D01*
X0070777Y0166037D01*
X0070921Y0166131D01*
X0071067Y0166221D01*
X0071216Y0166308D01*
X0071366Y0166390D01*
X0071519Y0166470D01*
X0071673Y0166545D01*
X0071829Y0166616D01*
X0071987Y0166684D01*
X0072147Y0166748D01*
X0072308Y0166808D01*
X0072470Y0166864D01*
X0072634Y0166916D01*
X0072799Y0166963D01*
X0072965Y0167007D01*
X0073132Y0167047D01*
X0073300Y0167082D01*
X0073469Y0167114D01*
X0073639Y0167141D01*
X0073809Y0167164D01*
X0073980Y0167183D01*
X0074151Y0167198D01*
X0074323Y0167209D01*
X0074494Y0167215D01*
X0074666Y0167217D01*
X0074838Y0167215D01*
X0075009Y0167209D01*
X0075181Y0167198D01*
X0075352Y0167183D01*
X0075523Y0167164D01*
X0075693Y0167141D01*
X0075863Y0167114D01*
X0076032Y0167082D01*
X0076200Y0167047D01*
X0076367Y0167007D01*
X0076533Y0166963D01*
X0076698Y0166916D01*
X0076862Y0166864D01*
X0077024Y0166808D01*
X0077185Y0166748D01*
X0077345Y0166684D01*
X0077503Y0166616D01*
X0077659Y0166545D01*
X0077813Y0166470D01*
X0077966Y0166390D01*
X0078116Y0166308D01*
X0078265Y0166221D01*
X0078411Y0166131D01*
X0078555Y0166037D01*
X0078697Y0165940D01*
X0078836Y0165839D01*
X0078973Y0165735D01*
X0079107Y0165628D01*
X0079238Y0165517D01*
X0079367Y0165404D01*
X0079493Y0165287D01*
X0079616Y0165167D01*
X0079736Y0165044D01*
X0079853Y0164918D01*
X0079966Y0164789D01*
X0080077Y0164658D01*
X0080184Y0164524D01*
X0080288Y0164387D01*
X0080389Y0164248D01*
X0080486Y0164106D01*
X0080580Y0163962D01*
X0080670Y0163816D01*
X0080757Y0163667D01*
X0080839Y0163517D01*
X0080919Y0163364D01*
X0080994Y0163210D01*
X0081065Y0163054D01*
X0081133Y0162896D01*
X0081197Y0162736D01*
X0081257Y0162575D01*
X0081313Y0162413D01*
X0081365Y0162249D01*
X0081412Y0162084D01*
X0081456Y0161918D01*
X0081496Y0161751D01*
X0081531Y0161583D01*
X0081563Y0161414D01*
X0081590Y0161244D01*
X0081613Y0161074D01*
X0081632Y0160903D01*
X0081647Y0160732D01*
X0081658Y0160560D01*
X0081664Y0160389D01*
X0081666Y0160217D01*
X0081664Y0160045D01*
X0081658Y0159874D01*
X0081647Y0159702D01*
X0081632Y0159531D01*
X0081613Y0159360D01*
X0081590Y0159190D01*
X0081563Y0159020D01*
X0081531Y0158851D01*
X0081496Y0158683D01*
X0081456Y0158516D01*
X0081412Y0158350D01*
X0081365Y0158185D01*
X0081313Y0158021D01*
X0081257Y0157859D01*
X0081197Y0157698D01*
X0081133Y0157538D01*
X0081065Y0157380D01*
X0080994Y0157224D01*
X0080919Y0157070D01*
X0080839Y0156917D01*
X0080757Y0156767D01*
X0080670Y0156618D01*
X0080580Y0156472D01*
X0080486Y0156328D01*
X0080389Y0156186D01*
X0080288Y0156047D01*
X0080184Y0155910D01*
X0080077Y0155776D01*
X0079966Y0155645D01*
X0079853Y0155516D01*
X0079736Y0155390D01*
X0079616Y0155267D01*
X0079493Y0155147D01*
X0079367Y0155030D01*
X0079238Y0154917D01*
X0079107Y0154806D01*
X0078973Y0154699D01*
X0078836Y0154595D01*
X0078697Y0154494D01*
X0078555Y0154397D01*
X0078411Y0154303D01*
X0078265Y0154213D01*
X0078116Y0154126D01*
X0077966Y0154044D01*
X0077813Y0153964D01*
X0077659Y0153889D01*
X0077503Y0153818D01*
X0077345Y0153750D01*
X0077185Y0153686D01*
X0077024Y0153626D01*
X0076862Y0153570D01*
X0076698Y0153518D01*
X0076533Y0153471D01*
X0076367Y0153427D01*
X0076200Y0153387D01*
X0076032Y0153352D01*
X0075863Y0153320D01*
X0075693Y0153293D01*
X0075523Y0153270D01*
X0075352Y0153251D01*
X0075181Y0153236D01*
X0075009Y0153225D01*
X0074838Y0153219D01*
X0074666Y0153217D01*
X0074494Y0153219D01*
X0074323Y0153225D01*
X0074151Y0153236D01*
X0073980Y0153251D01*
X0073809Y0153270D01*
X0073639Y0153293D01*
X0073469Y0153320D01*
X0073300Y0153352D01*
X0073132Y0153387D01*
X0072965Y0153427D01*
X0072799Y0153471D01*
X0072634Y0153518D01*
X0072470Y0153570D01*
X0072308Y0153626D01*
X0072147Y0153686D01*
X0071987Y0153750D01*
X0071829Y0153818D01*
X0071673Y0153889D01*
X0071519Y0153964D01*
X0071366Y0154044D01*
X0071216Y0154126D01*
X0071067Y0154213D01*
X0070921Y0154303D01*
X0070777Y0154397D01*
X0070635Y0154494D01*
X0070496Y0154595D01*
X0070359Y0154699D01*
X0070225Y0154806D01*
X0070094Y0154917D01*
X0069965Y0155030D01*
X0069839Y0155147D01*
X0069716Y0155267D01*
X0069596Y0155390D01*
X0069479Y0155516D01*
X0069366Y0155645D01*
X0069255Y0155776D01*
X0069148Y0155910D01*
X0069044Y0156047D01*
X0068943Y0156186D01*
X0068846Y0156328D01*
X0068752Y0156472D01*
X0068662Y0156618D01*
X0068575Y0156767D01*
X0068493Y0156917D01*
X0068413Y0157070D01*
X0068338Y0157224D01*
X0068267Y0157380D01*
X0068199Y0157538D01*
X0068135Y0157698D01*
X0068075Y0157859D01*
X0068019Y0158021D01*
X0067967Y0158185D01*
X0067920Y0158350D01*
X0067876Y0158516D01*
X0067836Y0158683D01*
X0067801Y0158851D01*
X0067769Y0159020D01*
X0067742Y0159190D01*
X0067719Y0159360D01*
X0067700Y0159531D01*
X0067685Y0159702D01*
X0067674Y0159874D01*
X0067668Y0160045D01*
X0067666Y0160217D01*
X0062645Y0155268D02*
X0069363Y0148550D01*
X0072191Y0145722D01*
X0080323Y0148904D02*
X0081030Y0149611D01*
X0081737Y0148904D01*
X0085980Y0153146D01*
X0085273Y0153853D01*
X0085980Y0154560D01*
X0062645Y0155268D02*
X0060170Y0157742D01*
D11*
X0053013Y0138564D02*
X0033328Y0138564D01*
X0033328Y0118879D01*
X0049469Y0118879D01*
X0048288Y0117698D01*
X0049863Y0116123D01*
X0053013Y0118879D01*
X0049469Y0118879D01*
X0053013Y0122422D01*
X0053013Y0118879D01*
X0053013Y0122422D02*
X0053013Y0138564D01*
X0036397Y0128721D02*
X0036399Y0128887D01*
X0036405Y0129053D01*
X0036415Y0129219D01*
X0036430Y0129385D01*
X0036448Y0129550D01*
X0036470Y0129715D01*
X0036497Y0129879D01*
X0036527Y0130042D01*
X0036562Y0130205D01*
X0036600Y0130367D01*
X0036642Y0130527D01*
X0036689Y0130687D01*
X0036739Y0130846D01*
X0036793Y0131003D01*
X0036851Y0131159D01*
X0036913Y0131313D01*
X0036978Y0131466D01*
X0037047Y0131617D01*
X0037120Y0131766D01*
X0037197Y0131914D01*
X0037277Y0132059D01*
X0037361Y0132203D01*
X0037448Y0132345D01*
X0037538Y0132484D01*
X0037632Y0132621D01*
X0037730Y0132756D01*
X0037831Y0132888D01*
X0037934Y0133018D01*
X0038041Y0133145D01*
X0038152Y0133269D01*
X0038265Y0133391D01*
X0038381Y0133510D01*
X0038500Y0133626D01*
X0038622Y0133739D01*
X0038746Y0133850D01*
X0038873Y0133957D01*
X0039003Y0134060D01*
X0039135Y0134161D01*
X0039270Y0134259D01*
X0039407Y0134353D01*
X0039546Y0134443D01*
X0039688Y0134530D01*
X0039832Y0134614D01*
X0039977Y0134694D01*
X0040125Y0134771D01*
X0040274Y0134844D01*
X0040425Y0134913D01*
X0040578Y0134978D01*
X0040732Y0135040D01*
X0040888Y0135098D01*
X0041045Y0135152D01*
X0041204Y0135202D01*
X0041364Y0135249D01*
X0041524Y0135291D01*
X0041686Y0135329D01*
X0041849Y0135364D01*
X0042012Y0135394D01*
X0042176Y0135421D01*
X0042341Y0135443D01*
X0042506Y0135461D01*
X0042672Y0135476D01*
X0042838Y0135486D01*
X0043004Y0135492D01*
X0043170Y0135494D01*
X0043336Y0135492D01*
X0043502Y0135486D01*
X0043668Y0135476D01*
X0043834Y0135461D01*
X0043999Y0135443D01*
X0044164Y0135421D01*
X0044328Y0135394D01*
X0044491Y0135364D01*
X0044654Y0135329D01*
X0044816Y0135291D01*
X0044976Y0135249D01*
X0045136Y0135202D01*
X0045295Y0135152D01*
X0045452Y0135098D01*
X0045608Y0135040D01*
X0045762Y0134978D01*
X0045915Y0134913D01*
X0046066Y0134844D01*
X0046215Y0134771D01*
X0046363Y0134694D01*
X0046508Y0134614D01*
X0046652Y0134530D01*
X0046794Y0134443D01*
X0046933Y0134353D01*
X0047070Y0134259D01*
X0047205Y0134161D01*
X0047337Y0134060D01*
X0047467Y0133957D01*
X0047594Y0133850D01*
X0047718Y0133739D01*
X0047840Y0133626D01*
X0047959Y0133510D01*
X0048075Y0133391D01*
X0048188Y0133269D01*
X0048299Y0133145D01*
X0048406Y0133018D01*
X0048509Y0132888D01*
X0048610Y0132756D01*
X0048708Y0132621D01*
X0048802Y0132484D01*
X0048892Y0132345D01*
X0048979Y0132203D01*
X0049063Y0132059D01*
X0049143Y0131914D01*
X0049220Y0131766D01*
X0049293Y0131617D01*
X0049362Y0131466D01*
X0049427Y0131313D01*
X0049489Y0131159D01*
X0049547Y0131003D01*
X0049601Y0130846D01*
X0049651Y0130687D01*
X0049698Y0130527D01*
X0049740Y0130367D01*
X0049778Y0130205D01*
X0049813Y0130042D01*
X0049843Y0129879D01*
X0049870Y0129715D01*
X0049892Y0129550D01*
X0049910Y0129385D01*
X0049925Y0129219D01*
X0049935Y0129053D01*
X0049941Y0128887D01*
X0049943Y0128721D01*
X0049941Y0128555D01*
X0049935Y0128389D01*
X0049925Y0128223D01*
X0049910Y0128057D01*
X0049892Y0127892D01*
X0049870Y0127727D01*
X0049843Y0127563D01*
X0049813Y0127400D01*
X0049778Y0127237D01*
X0049740Y0127075D01*
X0049698Y0126915D01*
X0049651Y0126755D01*
X0049601Y0126596D01*
X0049547Y0126439D01*
X0049489Y0126283D01*
X0049427Y0126129D01*
X0049362Y0125976D01*
X0049293Y0125825D01*
X0049220Y0125676D01*
X0049143Y0125528D01*
X0049063Y0125383D01*
X0048979Y0125239D01*
X0048892Y0125097D01*
X0048802Y0124958D01*
X0048708Y0124821D01*
X0048610Y0124686D01*
X0048509Y0124554D01*
X0048406Y0124424D01*
X0048299Y0124297D01*
X0048188Y0124173D01*
X0048075Y0124051D01*
X0047959Y0123932D01*
X0047840Y0123816D01*
X0047718Y0123703D01*
X0047594Y0123592D01*
X0047467Y0123485D01*
X0047337Y0123382D01*
X0047205Y0123281D01*
X0047070Y0123183D01*
X0046933Y0123089D01*
X0046794Y0122999D01*
X0046652Y0122912D01*
X0046508Y0122828D01*
X0046363Y0122748D01*
X0046215Y0122671D01*
X0046066Y0122598D01*
X0045915Y0122529D01*
X0045762Y0122464D01*
X0045608Y0122402D01*
X0045452Y0122344D01*
X0045295Y0122290D01*
X0045136Y0122240D01*
X0044976Y0122193D01*
X0044816Y0122151D01*
X0044654Y0122113D01*
X0044491Y0122078D01*
X0044328Y0122048D01*
X0044164Y0122021D01*
X0043999Y0121999D01*
X0043834Y0121981D01*
X0043668Y0121966D01*
X0043502Y0121956D01*
X0043336Y0121950D01*
X0043170Y0121948D01*
X0043004Y0121950D01*
X0042838Y0121956D01*
X0042672Y0121966D01*
X0042506Y0121981D01*
X0042341Y0121999D01*
X0042176Y0122021D01*
X0042012Y0122048D01*
X0041849Y0122078D01*
X0041686Y0122113D01*
X0041524Y0122151D01*
X0041364Y0122193D01*
X0041204Y0122240D01*
X0041045Y0122290D01*
X0040888Y0122344D01*
X0040732Y0122402D01*
X0040578Y0122464D01*
X0040425Y0122529D01*
X0040274Y0122598D01*
X0040125Y0122671D01*
X0039977Y0122748D01*
X0039832Y0122828D01*
X0039688Y0122912D01*
X0039546Y0122999D01*
X0039407Y0123089D01*
X0039270Y0123183D01*
X0039135Y0123281D01*
X0039003Y0123382D01*
X0038873Y0123485D01*
X0038746Y0123592D01*
X0038622Y0123703D01*
X0038500Y0123816D01*
X0038381Y0123932D01*
X0038265Y0124051D01*
X0038152Y0124173D01*
X0038041Y0124297D01*
X0037934Y0124424D01*
X0037831Y0124554D01*
X0037730Y0124686D01*
X0037632Y0124821D01*
X0037538Y0124958D01*
X0037448Y0125097D01*
X0037361Y0125239D01*
X0037277Y0125383D01*
X0037197Y0125528D01*
X0037120Y0125676D01*
X0037047Y0125825D01*
X0036978Y0125976D01*
X0036913Y0126129D01*
X0036851Y0126283D01*
X0036793Y0126439D01*
X0036739Y0126596D01*
X0036689Y0126755D01*
X0036642Y0126915D01*
X0036600Y0127075D01*
X0036562Y0127237D01*
X0036527Y0127400D01*
X0036497Y0127563D01*
X0036470Y0127727D01*
X0036448Y0127892D01*
X0036430Y0128057D01*
X0036415Y0128223D01*
X0036405Y0128389D01*
X0036399Y0128555D01*
X0036397Y0128721D01*
X0108131Y0185436D02*
X0110040Y0187346D01*
X0109510Y0187876D02*
X0110571Y0186815D01*
X0109086Y0185330D02*
X0108131Y0185436D01*
X0105988Y0188109D02*
X0106020Y0188195D01*
X0106055Y0188280D01*
X0106094Y0188363D01*
X0106136Y0188444D01*
X0106181Y0188524D01*
X0106230Y0188602D01*
X0106282Y0188678D01*
X0106337Y0188751D01*
X0106394Y0188822D01*
X0106455Y0188891D01*
X0106519Y0188957D01*
X0107579Y0187897D02*
X0107643Y0187963D01*
X0107704Y0188032D01*
X0107761Y0188103D01*
X0107816Y0188176D01*
X0107868Y0188252D01*
X0107917Y0188330D01*
X0107962Y0188410D01*
X0108004Y0188491D01*
X0108043Y0188574D01*
X0108078Y0188659D01*
X0108110Y0188745D01*
X0108004Y0188533D02*
X0106095Y0188321D01*
X0105988Y0188109D02*
X0105970Y0188067D01*
X0105955Y0188024D01*
X0105944Y0187979D01*
X0105936Y0187934D01*
X0105932Y0187888D01*
X0105932Y0187842D01*
X0105936Y0187796D01*
X0105944Y0187751D01*
X0105955Y0187707D01*
X0105970Y0187663D01*
X0105988Y0187621D01*
X0106010Y0187581D01*
X0106035Y0187543D01*
X0106063Y0187506D01*
X0106095Y0187473D01*
X0106128Y0187441D01*
X0106165Y0187413D01*
X0106203Y0187388D01*
X0106243Y0187366D01*
X0106285Y0187348D01*
X0106329Y0187333D01*
X0106373Y0187322D01*
X0106418Y0187314D01*
X0106464Y0187310D01*
X0106510Y0187310D01*
X0106556Y0187314D01*
X0106601Y0187322D01*
X0106646Y0187333D01*
X0106689Y0187348D01*
X0106731Y0187366D01*
X0106519Y0188957D02*
X0106585Y0189021D01*
X0106654Y0189082D01*
X0106725Y0189139D01*
X0106798Y0189194D01*
X0106874Y0189246D01*
X0106952Y0189295D01*
X0107032Y0189340D01*
X0107113Y0189382D01*
X0107196Y0189421D01*
X0107281Y0189456D01*
X0107367Y0189488D01*
X0107367Y0189489D02*
X0107409Y0189507D01*
X0107452Y0189522D01*
X0107497Y0189533D01*
X0107542Y0189541D01*
X0107588Y0189545D01*
X0107634Y0189545D01*
X0107680Y0189541D01*
X0107725Y0189533D01*
X0107769Y0189522D01*
X0107813Y0189507D01*
X0107855Y0189489D01*
X0107895Y0189467D01*
X0107933Y0189442D01*
X0107970Y0189414D01*
X0108003Y0189382D01*
X0108035Y0189349D01*
X0108063Y0189312D01*
X0108088Y0189274D01*
X0108110Y0189234D01*
X0108128Y0189192D01*
X0108143Y0189148D01*
X0108154Y0189104D01*
X0108162Y0189059D01*
X0108166Y0189013D01*
X0108166Y0188967D01*
X0108162Y0188921D01*
X0108154Y0188876D01*
X0108143Y0188831D01*
X0108128Y0188788D01*
X0108110Y0188746D01*
X0107579Y0187897D02*
X0107513Y0187833D01*
X0107444Y0187772D01*
X0107373Y0187715D01*
X0107300Y0187660D01*
X0107224Y0187608D01*
X0107146Y0187559D01*
X0107066Y0187514D01*
X0106985Y0187472D01*
X0106902Y0187433D01*
X0106817Y0187398D01*
X0106731Y0187366D01*
X0104515Y0189053D02*
X0106424Y0190962D01*
X0105787Y0190326D02*
X0104302Y0190538D01*
X0105151Y0190432D02*
X0105575Y0191810D01*
X0134509Y0220454D02*
X0132934Y0222028D01*
X0134115Y0223209D01*
X0137658Y0226753D01*
X0137658Y0223209D01*
X0134509Y0220454D01*
X0134115Y0223209D02*
X0117973Y0223209D01*
X0117973Y0242894D01*
X0137658Y0242894D01*
X0137658Y0226753D01*
X0137658Y0223209D02*
X0134115Y0223209D01*
X0121043Y0233052D02*
X0121045Y0233218D01*
X0121051Y0233384D01*
X0121061Y0233550D01*
X0121076Y0233716D01*
X0121094Y0233881D01*
X0121116Y0234046D01*
X0121143Y0234210D01*
X0121173Y0234373D01*
X0121208Y0234536D01*
X0121246Y0234698D01*
X0121288Y0234858D01*
X0121335Y0235018D01*
X0121385Y0235177D01*
X0121439Y0235334D01*
X0121497Y0235490D01*
X0121559Y0235644D01*
X0121624Y0235797D01*
X0121693Y0235948D01*
X0121766Y0236097D01*
X0121843Y0236245D01*
X0121923Y0236390D01*
X0122007Y0236534D01*
X0122094Y0236676D01*
X0122184Y0236815D01*
X0122278Y0236952D01*
X0122376Y0237087D01*
X0122477Y0237219D01*
X0122580Y0237349D01*
X0122687Y0237476D01*
X0122798Y0237600D01*
X0122911Y0237722D01*
X0123027Y0237841D01*
X0123146Y0237957D01*
X0123268Y0238070D01*
X0123392Y0238181D01*
X0123519Y0238288D01*
X0123649Y0238391D01*
X0123781Y0238492D01*
X0123916Y0238590D01*
X0124053Y0238684D01*
X0124192Y0238774D01*
X0124334Y0238861D01*
X0124478Y0238945D01*
X0124623Y0239025D01*
X0124771Y0239102D01*
X0124920Y0239175D01*
X0125071Y0239244D01*
X0125224Y0239309D01*
X0125378Y0239371D01*
X0125534Y0239429D01*
X0125691Y0239483D01*
X0125850Y0239533D01*
X0126010Y0239580D01*
X0126170Y0239622D01*
X0126332Y0239660D01*
X0126495Y0239695D01*
X0126658Y0239725D01*
X0126822Y0239752D01*
X0126987Y0239774D01*
X0127152Y0239792D01*
X0127318Y0239807D01*
X0127484Y0239817D01*
X0127650Y0239823D01*
X0127816Y0239825D01*
X0127982Y0239823D01*
X0128148Y0239817D01*
X0128314Y0239807D01*
X0128480Y0239792D01*
X0128645Y0239774D01*
X0128810Y0239752D01*
X0128974Y0239725D01*
X0129137Y0239695D01*
X0129300Y0239660D01*
X0129462Y0239622D01*
X0129622Y0239580D01*
X0129782Y0239533D01*
X0129941Y0239483D01*
X0130098Y0239429D01*
X0130254Y0239371D01*
X0130408Y0239309D01*
X0130561Y0239244D01*
X0130712Y0239175D01*
X0130861Y0239102D01*
X0131009Y0239025D01*
X0131154Y0238945D01*
X0131298Y0238861D01*
X0131440Y0238774D01*
X0131579Y0238684D01*
X0131716Y0238590D01*
X0131851Y0238492D01*
X0131983Y0238391D01*
X0132113Y0238288D01*
X0132240Y0238181D01*
X0132364Y0238070D01*
X0132486Y0237957D01*
X0132605Y0237841D01*
X0132721Y0237722D01*
X0132834Y0237600D01*
X0132945Y0237476D01*
X0133052Y0237349D01*
X0133155Y0237219D01*
X0133256Y0237087D01*
X0133354Y0236952D01*
X0133448Y0236815D01*
X0133538Y0236676D01*
X0133625Y0236534D01*
X0133709Y0236390D01*
X0133789Y0236245D01*
X0133866Y0236097D01*
X0133939Y0235948D01*
X0134008Y0235797D01*
X0134073Y0235644D01*
X0134135Y0235490D01*
X0134193Y0235334D01*
X0134247Y0235177D01*
X0134297Y0235018D01*
X0134344Y0234858D01*
X0134386Y0234698D01*
X0134424Y0234536D01*
X0134459Y0234373D01*
X0134489Y0234210D01*
X0134516Y0234046D01*
X0134538Y0233881D01*
X0134556Y0233716D01*
X0134571Y0233550D01*
X0134581Y0233384D01*
X0134587Y0233218D01*
X0134589Y0233052D01*
X0134587Y0232886D01*
X0134581Y0232720D01*
X0134571Y0232554D01*
X0134556Y0232388D01*
X0134538Y0232223D01*
X0134516Y0232058D01*
X0134489Y0231894D01*
X0134459Y0231731D01*
X0134424Y0231568D01*
X0134386Y0231406D01*
X0134344Y0231246D01*
X0134297Y0231086D01*
X0134247Y0230927D01*
X0134193Y0230770D01*
X0134135Y0230614D01*
X0134073Y0230460D01*
X0134008Y0230307D01*
X0133939Y0230156D01*
X0133866Y0230007D01*
X0133789Y0229859D01*
X0133709Y0229714D01*
X0133625Y0229570D01*
X0133538Y0229428D01*
X0133448Y0229289D01*
X0133354Y0229152D01*
X0133256Y0229017D01*
X0133155Y0228885D01*
X0133052Y0228755D01*
X0132945Y0228628D01*
X0132834Y0228504D01*
X0132721Y0228382D01*
X0132605Y0228263D01*
X0132486Y0228147D01*
X0132364Y0228034D01*
X0132240Y0227923D01*
X0132113Y0227816D01*
X0131983Y0227713D01*
X0131851Y0227612D01*
X0131716Y0227514D01*
X0131579Y0227420D01*
X0131440Y0227330D01*
X0131298Y0227243D01*
X0131154Y0227159D01*
X0131009Y0227079D01*
X0130861Y0227002D01*
X0130712Y0226929D01*
X0130561Y0226860D01*
X0130408Y0226795D01*
X0130254Y0226733D01*
X0130098Y0226675D01*
X0129941Y0226621D01*
X0129782Y0226571D01*
X0129622Y0226524D01*
X0129462Y0226482D01*
X0129300Y0226444D01*
X0129137Y0226409D01*
X0128974Y0226379D01*
X0128810Y0226352D01*
X0128645Y0226330D01*
X0128480Y0226312D01*
X0128314Y0226297D01*
X0128148Y0226287D01*
X0127982Y0226281D01*
X0127816Y0226279D01*
X0127650Y0226281D01*
X0127484Y0226287D01*
X0127318Y0226297D01*
X0127152Y0226312D01*
X0126987Y0226330D01*
X0126822Y0226352D01*
X0126658Y0226379D01*
X0126495Y0226409D01*
X0126332Y0226444D01*
X0126170Y0226482D01*
X0126010Y0226524D01*
X0125850Y0226571D01*
X0125691Y0226621D01*
X0125534Y0226675D01*
X0125378Y0226733D01*
X0125224Y0226795D01*
X0125071Y0226860D01*
X0124920Y0226929D01*
X0124771Y0227002D01*
X0124623Y0227079D01*
X0124478Y0227159D01*
X0124334Y0227243D01*
X0124192Y0227330D01*
X0124053Y0227420D01*
X0123916Y0227514D01*
X0123781Y0227612D01*
X0123649Y0227713D01*
X0123519Y0227816D01*
X0123392Y0227923D01*
X0123268Y0228034D01*
X0123146Y0228147D01*
X0123027Y0228263D01*
X0122911Y0228382D01*
X0122798Y0228504D01*
X0122687Y0228628D01*
X0122580Y0228755D01*
X0122477Y0228885D01*
X0122376Y0229017D01*
X0122278Y0229152D01*
X0122184Y0229289D01*
X0122094Y0229428D01*
X0122007Y0229570D01*
X0121923Y0229714D01*
X0121843Y0229859D01*
X0121766Y0230007D01*
X0121693Y0230156D01*
X0121624Y0230307D01*
X0121559Y0230460D01*
X0121497Y0230614D01*
X0121439Y0230770D01*
X0121385Y0230927D01*
X0121335Y0231086D01*
X0121288Y0231246D01*
X0121246Y0231406D01*
X0121208Y0231568D01*
X0121173Y0231731D01*
X0121143Y0231894D01*
X0121116Y0232058D01*
X0121094Y0232223D01*
X0121076Y0232388D01*
X0121061Y0232554D01*
X0121051Y0232720D01*
X0121045Y0232886D01*
X0121043Y0233052D01*
X0257747Y0162993D02*
X0257747Y0161493D01*
X0257747Y0162243D02*
X0260447Y0162243D01*
X0259847Y0162993D01*
X0259097Y0158613D02*
X0259005Y0158615D01*
X0258914Y0158621D01*
X0258822Y0158630D01*
X0258732Y0158643D01*
X0258641Y0158660D01*
X0258552Y0158681D01*
X0258464Y0158705D01*
X0258376Y0158733D01*
X0258290Y0158764D01*
X0258205Y0158800D01*
X0258122Y0158838D01*
X0258079Y0158855D01*
X0258038Y0158875D01*
X0257999Y0158898D01*
X0257961Y0158925D01*
X0257926Y0158955D01*
X0257894Y0158987D01*
X0257864Y0159022D01*
X0257837Y0159059D01*
X0257814Y0159099D01*
X0257794Y0159140D01*
X0257777Y0159183D01*
X0257764Y0159227D01*
X0257755Y0159272D01*
X0257749Y0159317D01*
X0257747Y0159363D01*
X0257749Y0159409D01*
X0257755Y0159454D01*
X0257764Y0159499D01*
X0257777Y0159543D01*
X0257794Y0159586D01*
X0257814Y0159627D01*
X0257837Y0159667D01*
X0257864Y0159704D01*
X0257894Y0159739D01*
X0257926Y0159771D01*
X0257961Y0159801D01*
X0257999Y0159828D01*
X0258038Y0159851D01*
X0258079Y0159871D01*
X0258122Y0159888D01*
X0258347Y0159963D02*
X0259847Y0158763D01*
X0260072Y0158838D02*
X0260115Y0158855D01*
X0260156Y0158875D01*
X0260195Y0158898D01*
X0260233Y0158925D01*
X0260268Y0158955D01*
X0260300Y0158987D01*
X0260330Y0159022D01*
X0260357Y0159059D01*
X0260380Y0159099D01*
X0260400Y0159140D01*
X0260417Y0159183D01*
X0260430Y0159227D01*
X0260439Y0159272D01*
X0260445Y0159317D01*
X0260447Y0159363D01*
X0260445Y0159409D01*
X0260439Y0159454D01*
X0260430Y0159499D01*
X0260417Y0159543D01*
X0260400Y0159586D01*
X0260380Y0159627D01*
X0260357Y0159667D01*
X0260330Y0159704D01*
X0260300Y0159739D01*
X0260268Y0159771D01*
X0260233Y0159801D01*
X0260195Y0159828D01*
X0260156Y0159851D01*
X0260115Y0159871D01*
X0260072Y0159888D01*
X0260072Y0158838D02*
X0259989Y0158800D01*
X0259904Y0158764D01*
X0259818Y0158733D01*
X0259730Y0158705D01*
X0259642Y0158681D01*
X0259553Y0158660D01*
X0259462Y0158643D01*
X0259372Y0158630D01*
X0259280Y0158621D01*
X0259189Y0158615D01*
X0259097Y0158613D01*
X0259097Y0160113D02*
X0259005Y0160111D01*
X0258914Y0160105D01*
X0258822Y0160096D01*
X0258732Y0160083D01*
X0258641Y0160066D01*
X0258552Y0160045D01*
X0258464Y0160021D01*
X0258376Y0159993D01*
X0258290Y0159962D01*
X0258205Y0159926D01*
X0258122Y0159888D01*
X0259097Y0160113D02*
X0259189Y0160111D01*
X0259280Y0160105D01*
X0259372Y0160096D01*
X0259462Y0160083D01*
X0259553Y0160066D01*
X0259642Y0160045D01*
X0259730Y0160021D01*
X0259818Y0159993D01*
X0259904Y0159962D01*
X0259989Y0159926D01*
X0260072Y0159888D01*
X0260447Y0157095D02*
X0258947Y0156195D01*
X0260447Y0155295D01*
X0257747Y0155295D01*
X0258497Y0153777D02*
X0259697Y0153777D01*
X0259751Y0153775D01*
X0259804Y0153769D01*
X0259856Y0153760D01*
X0259908Y0153747D01*
X0259959Y0153730D01*
X0260009Y0153709D01*
X0260056Y0153685D01*
X0260102Y0153658D01*
X0260146Y0153627D01*
X0260188Y0153594D01*
X0260227Y0153557D01*
X0260264Y0153518D01*
X0260297Y0153476D01*
X0260328Y0153432D01*
X0260355Y0153386D01*
X0260379Y0153339D01*
X0260400Y0153289D01*
X0260417Y0153238D01*
X0260430Y0153186D01*
X0260439Y0153134D01*
X0260445Y0153081D01*
X0260447Y0153027D01*
X0260445Y0152973D01*
X0260439Y0152920D01*
X0260430Y0152868D01*
X0260417Y0152816D01*
X0260400Y0152765D01*
X0260379Y0152715D01*
X0260355Y0152668D01*
X0260328Y0152622D01*
X0260297Y0152578D01*
X0260264Y0152536D01*
X0260227Y0152497D01*
X0260188Y0152460D01*
X0260146Y0152427D01*
X0260102Y0152396D01*
X0260056Y0152369D01*
X0260009Y0152345D01*
X0259959Y0152324D01*
X0259908Y0152307D01*
X0259856Y0152294D01*
X0259804Y0152285D01*
X0259751Y0152279D01*
X0259697Y0152277D01*
X0258497Y0152277D01*
X0258443Y0152279D01*
X0258390Y0152285D01*
X0258338Y0152294D01*
X0258286Y0152307D01*
X0258235Y0152324D01*
X0258185Y0152345D01*
X0258138Y0152369D01*
X0258092Y0152396D01*
X0258048Y0152427D01*
X0258006Y0152460D01*
X0257967Y0152497D01*
X0257930Y0152536D01*
X0257897Y0152578D01*
X0257866Y0152622D01*
X0257839Y0152668D01*
X0257815Y0152715D01*
X0257794Y0152765D01*
X0257777Y0152816D01*
X0257764Y0152868D01*
X0257755Y0152920D01*
X0257749Y0152973D01*
X0257747Y0153027D01*
X0257749Y0153081D01*
X0257755Y0153134D01*
X0257764Y0153186D01*
X0257777Y0153238D01*
X0257794Y0153289D01*
X0257815Y0153339D01*
X0257839Y0153386D01*
X0257866Y0153432D01*
X0257897Y0153476D01*
X0257930Y0153518D01*
X0257967Y0153557D01*
X0258006Y0153594D01*
X0258048Y0153627D01*
X0258092Y0153658D01*
X0258138Y0153685D01*
X0258185Y0153709D01*
X0258235Y0153730D01*
X0258286Y0153747D01*
X0258338Y0153760D01*
X0258390Y0153769D01*
X0258443Y0153775D01*
X0258497Y0153777D01*
X0257747Y0150843D02*
X0260447Y0150843D01*
X0259547Y0150843D02*
X0259547Y0150093D01*
X0259545Y0150051D01*
X0259539Y0150010D01*
X0259530Y0149970D01*
X0259517Y0149930D01*
X0259500Y0149892D01*
X0259480Y0149856D01*
X0259456Y0149822D01*
X0259430Y0149790D01*
X0259400Y0149760D01*
X0259368Y0149734D01*
X0259334Y0149710D01*
X0259298Y0149690D01*
X0259260Y0149673D01*
X0259220Y0149660D01*
X0259180Y0149651D01*
X0259139Y0149645D01*
X0259097Y0149643D01*
X0257747Y0149643D01*
X0257747Y0148071D02*
X0259547Y0148071D01*
X0259547Y0146721D01*
X0259547Y0147171D02*
X0257747Y0147171D01*
X0257747Y0146271D02*
X0259097Y0146271D01*
X0259139Y0146273D01*
X0259180Y0146279D01*
X0259220Y0146288D01*
X0259260Y0146301D01*
X0259298Y0146318D01*
X0259334Y0146338D01*
X0259368Y0146362D01*
X0259400Y0146388D01*
X0259430Y0146418D01*
X0259456Y0146450D01*
X0259480Y0146484D01*
X0259500Y0146520D01*
X0259517Y0146558D01*
X0259530Y0146598D01*
X0259539Y0146638D01*
X0259545Y0146679D01*
X0259547Y0146721D01*
X0260447Y0157095D02*
X0257747Y0157095D01*
X0306922Y0150434D02*
X0324600Y0132756D01*
X0321064Y0129220D01*
X0338742Y0153969D02*
X0352884Y0139827D01*
X0359955Y0146898D01*
X0345813Y0161040D01*
X0338742Y0153969D01*
X0321064Y0129220D02*
X0321674Y0128625D01*
X0322299Y0128045D01*
X0322937Y0127480D01*
X0323589Y0126931D01*
X0324254Y0126397D01*
X0324931Y0125881D01*
X0325622Y0125380D01*
X0326324Y0124897D01*
X0327037Y0124431D01*
X0327762Y0123983D01*
X0328498Y0123552D01*
X0329244Y0123140D01*
X0329999Y0122745D01*
X0330764Y0122369D01*
X0331538Y0122012D01*
X0332321Y0121674D01*
X0333111Y0121355D01*
X0333909Y0121056D01*
X0334714Y0120775D01*
X0335526Y0120515D01*
X0336343Y0120274D01*
X0337167Y0120054D01*
X0337995Y0119853D01*
X0338828Y0119673D01*
X0339665Y0119513D01*
X0340506Y0119374D01*
X0341350Y0119255D01*
X0342197Y0119156D01*
X0343046Y0119079D01*
X0343896Y0119022D01*
X0344748Y0118985D01*
X0345600Y0118970D01*
X0346452Y0118975D01*
X0347304Y0119001D01*
X0348155Y0119047D01*
X0349005Y0119115D01*
X0349853Y0119203D01*
X0350698Y0119312D01*
X0351541Y0119441D01*
X0352380Y0119591D01*
X0353215Y0119761D01*
X0354046Y0119951D01*
X0354872Y0120162D01*
X0355692Y0120392D01*
X0356507Y0120643D01*
X0357315Y0120913D01*
X0358117Y0121203D01*
X0358911Y0121512D01*
X0359698Y0121841D01*
X0360476Y0122188D01*
X0361245Y0122555D01*
X0362006Y0122940D01*
X0362756Y0123344D01*
X0363497Y0123765D01*
X0364227Y0124205D01*
X0364947Y0124662D01*
X0365655Y0125137D01*
X0366351Y0125628D01*
X0367035Y0126137D01*
X0367706Y0126662D01*
X0368365Y0127203D01*
X0369010Y0127760D01*
X0369641Y0128333D01*
X0370259Y0128921D01*
X0370861Y0129523D01*
X0371449Y0130141D01*
X0372022Y0130772D01*
X0372579Y0131417D01*
X0373120Y0132076D01*
X0373645Y0132747D01*
X0374154Y0133431D01*
X0374645Y0134127D01*
X0375120Y0134835D01*
X0375577Y0135555D01*
X0376017Y0136285D01*
X0376438Y0137026D01*
X0376842Y0137776D01*
X0377227Y0138537D01*
X0377594Y0139306D01*
X0377941Y0140084D01*
X0378270Y0140871D01*
X0378579Y0141665D01*
X0378869Y0142467D01*
X0379139Y0143275D01*
X0379390Y0144090D01*
X0379620Y0144910D01*
X0379831Y0145736D01*
X0380021Y0146567D01*
X0380191Y0147402D01*
X0380341Y0148241D01*
X0380470Y0149084D01*
X0380579Y0149929D01*
X0380667Y0150777D01*
X0380735Y0151627D01*
X0380781Y0152478D01*
X0380807Y0153330D01*
X0380812Y0154182D01*
X0380797Y0155034D01*
X0380760Y0155886D01*
X0380703Y0156736D01*
X0380626Y0157585D01*
X0380527Y0158432D01*
X0380408Y0159276D01*
X0380269Y0160117D01*
X0380109Y0160954D01*
X0379929Y0161787D01*
X0379728Y0162615D01*
X0379508Y0163439D01*
X0379267Y0164256D01*
X0379007Y0165068D01*
X0378726Y0165873D01*
X0378427Y0166671D01*
X0378108Y0167461D01*
X0377770Y0168244D01*
X0377413Y0169018D01*
X0377037Y0169783D01*
X0376642Y0170538D01*
X0376230Y0171284D01*
X0375799Y0172020D01*
X0375351Y0172745D01*
X0374885Y0173458D01*
X0374402Y0174160D01*
X0373901Y0174851D01*
X0373385Y0175528D01*
X0372851Y0176193D01*
X0372302Y0176845D01*
X0371737Y0177483D01*
X0371157Y0178108D01*
X0370562Y0178718D01*
X0370561Y0178718D02*
X0367026Y0175182D01*
X0349348Y0192860D01*
X0337265Y0220454D02*
X0340414Y0223209D01*
X0336871Y0223209D01*
X0335690Y0222028D01*
X0337265Y0220454D01*
X0336871Y0223209D02*
X0340414Y0226753D01*
X0340414Y0223209D01*
X0336871Y0223209D02*
X0320729Y0223209D01*
X0320729Y0242894D01*
X0340414Y0242894D01*
X0340414Y0226753D01*
X0323799Y0233052D02*
X0323801Y0233218D01*
X0323807Y0233384D01*
X0323817Y0233550D01*
X0323832Y0233716D01*
X0323850Y0233881D01*
X0323872Y0234046D01*
X0323899Y0234210D01*
X0323929Y0234373D01*
X0323964Y0234536D01*
X0324002Y0234698D01*
X0324044Y0234858D01*
X0324091Y0235018D01*
X0324141Y0235177D01*
X0324195Y0235334D01*
X0324253Y0235490D01*
X0324315Y0235644D01*
X0324380Y0235797D01*
X0324449Y0235948D01*
X0324522Y0236097D01*
X0324599Y0236245D01*
X0324679Y0236390D01*
X0324763Y0236534D01*
X0324850Y0236676D01*
X0324940Y0236815D01*
X0325034Y0236952D01*
X0325132Y0237087D01*
X0325233Y0237219D01*
X0325336Y0237349D01*
X0325443Y0237476D01*
X0325554Y0237600D01*
X0325667Y0237722D01*
X0325783Y0237841D01*
X0325902Y0237957D01*
X0326024Y0238070D01*
X0326148Y0238181D01*
X0326275Y0238288D01*
X0326405Y0238391D01*
X0326537Y0238492D01*
X0326672Y0238590D01*
X0326809Y0238684D01*
X0326948Y0238774D01*
X0327090Y0238861D01*
X0327234Y0238945D01*
X0327379Y0239025D01*
X0327527Y0239102D01*
X0327676Y0239175D01*
X0327827Y0239244D01*
X0327980Y0239309D01*
X0328134Y0239371D01*
X0328290Y0239429D01*
X0328447Y0239483D01*
X0328606Y0239533D01*
X0328766Y0239580D01*
X0328926Y0239622D01*
X0329088Y0239660D01*
X0329251Y0239695D01*
X0329414Y0239725D01*
X0329578Y0239752D01*
X0329743Y0239774D01*
X0329908Y0239792D01*
X0330074Y0239807D01*
X0330240Y0239817D01*
X0330406Y0239823D01*
X0330572Y0239825D01*
X0330738Y0239823D01*
X0330904Y0239817D01*
X0331070Y0239807D01*
X0331236Y0239792D01*
X0331401Y0239774D01*
X0331566Y0239752D01*
X0331730Y0239725D01*
X0331893Y0239695D01*
X0332056Y0239660D01*
X0332218Y0239622D01*
X0332378Y0239580D01*
X0332538Y0239533D01*
X0332697Y0239483D01*
X0332854Y0239429D01*
X0333010Y0239371D01*
X0333164Y0239309D01*
X0333317Y0239244D01*
X0333468Y0239175D01*
X0333617Y0239102D01*
X0333765Y0239025D01*
X0333910Y0238945D01*
X0334054Y0238861D01*
X0334196Y0238774D01*
X0334335Y0238684D01*
X0334472Y0238590D01*
X0334607Y0238492D01*
X0334739Y0238391D01*
X0334869Y0238288D01*
X0334996Y0238181D01*
X0335120Y0238070D01*
X0335242Y0237957D01*
X0335361Y0237841D01*
X0335477Y0237722D01*
X0335590Y0237600D01*
X0335701Y0237476D01*
X0335808Y0237349D01*
X0335911Y0237219D01*
X0336012Y0237087D01*
X0336110Y0236952D01*
X0336204Y0236815D01*
X0336294Y0236676D01*
X0336381Y0236534D01*
X0336465Y0236390D01*
X0336545Y0236245D01*
X0336622Y0236097D01*
X0336695Y0235948D01*
X0336764Y0235797D01*
X0336829Y0235644D01*
X0336891Y0235490D01*
X0336949Y0235334D01*
X0337003Y0235177D01*
X0337053Y0235018D01*
X0337100Y0234858D01*
X0337142Y0234698D01*
X0337180Y0234536D01*
X0337215Y0234373D01*
X0337245Y0234210D01*
X0337272Y0234046D01*
X0337294Y0233881D01*
X0337312Y0233716D01*
X0337327Y0233550D01*
X0337337Y0233384D01*
X0337343Y0233218D01*
X0337345Y0233052D01*
X0337343Y0232886D01*
X0337337Y0232720D01*
X0337327Y0232554D01*
X0337312Y0232388D01*
X0337294Y0232223D01*
X0337272Y0232058D01*
X0337245Y0231894D01*
X0337215Y0231731D01*
X0337180Y0231568D01*
X0337142Y0231406D01*
X0337100Y0231246D01*
X0337053Y0231086D01*
X0337003Y0230927D01*
X0336949Y0230770D01*
X0336891Y0230614D01*
X0336829Y0230460D01*
X0336764Y0230307D01*
X0336695Y0230156D01*
X0336622Y0230007D01*
X0336545Y0229859D01*
X0336465Y0229714D01*
X0336381Y0229570D01*
X0336294Y0229428D01*
X0336204Y0229289D01*
X0336110Y0229152D01*
X0336012Y0229017D01*
X0335911Y0228885D01*
X0335808Y0228755D01*
X0335701Y0228628D01*
X0335590Y0228504D01*
X0335477Y0228382D01*
X0335361Y0228263D01*
X0335242Y0228147D01*
X0335120Y0228034D01*
X0334996Y0227923D01*
X0334869Y0227816D01*
X0334739Y0227713D01*
X0334607Y0227612D01*
X0334472Y0227514D01*
X0334335Y0227420D01*
X0334196Y0227330D01*
X0334054Y0227243D01*
X0333910Y0227159D01*
X0333765Y0227079D01*
X0333617Y0227002D01*
X0333468Y0226929D01*
X0333317Y0226860D01*
X0333164Y0226795D01*
X0333010Y0226733D01*
X0332854Y0226675D01*
X0332697Y0226621D01*
X0332538Y0226571D01*
X0332378Y0226524D01*
X0332218Y0226482D01*
X0332056Y0226444D01*
X0331893Y0226409D01*
X0331730Y0226379D01*
X0331566Y0226352D01*
X0331401Y0226330D01*
X0331236Y0226312D01*
X0331070Y0226297D01*
X0330904Y0226287D01*
X0330738Y0226281D01*
X0330572Y0226279D01*
X0330406Y0226281D01*
X0330240Y0226287D01*
X0330074Y0226297D01*
X0329908Y0226312D01*
X0329743Y0226330D01*
X0329578Y0226352D01*
X0329414Y0226379D01*
X0329251Y0226409D01*
X0329088Y0226444D01*
X0328926Y0226482D01*
X0328766Y0226524D01*
X0328606Y0226571D01*
X0328447Y0226621D01*
X0328290Y0226675D01*
X0328134Y0226733D01*
X0327980Y0226795D01*
X0327827Y0226860D01*
X0327676Y0226929D01*
X0327527Y0227002D01*
X0327379Y0227079D01*
X0327234Y0227159D01*
X0327090Y0227243D01*
X0326948Y0227330D01*
X0326809Y0227420D01*
X0326672Y0227514D01*
X0326537Y0227612D01*
X0326405Y0227713D01*
X0326275Y0227816D01*
X0326148Y0227923D01*
X0326024Y0228034D01*
X0325902Y0228147D01*
X0325783Y0228263D01*
X0325667Y0228382D01*
X0325554Y0228504D01*
X0325443Y0228628D01*
X0325336Y0228755D01*
X0325233Y0228885D01*
X0325132Y0229017D01*
X0325034Y0229152D01*
X0324940Y0229289D01*
X0324850Y0229428D01*
X0324763Y0229570D01*
X0324679Y0229714D01*
X0324599Y0229859D01*
X0324522Y0230007D01*
X0324449Y0230156D01*
X0324380Y0230307D01*
X0324315Y0230460D01*
X0324253Y0230614D01*
X0324195Y0230770D01*
X0324141Y0230927D01*
X0324091Y0231086D01*
X0324044Y0231246D01*
X0324002Y0231406D01*
X0323964Y0231568D01*
X0323929Y0231731D01*
X0323899Y0231894D01*
X0323872Y0232058D01*
X0323850Y0232223D01*
X0323832Y0232388D01*
X0323817Y0232554D01*
X0323807Y0232720D01*
X0323801Y0232886D01*
X0323799Y0233052D01*
X0345812Y0168112D02*
X0346244Y0168193D01*
X0346677Y0168263D01*
X0347112Y0168323D01*
X0347549Y0168372D01*
X0347986Y0168410D01*
X0348424Y0168438D01*
X0348863Y0168455D01*
X0349302Y0168462D01*
X0349741Y0168458D01*
X0350179Y0168443D01*
X0350618Y0168417D01*
X0351055Y0168381D01*
X0351492Y0168334D01*
X0351927Y0168277D01*
X0352361Y0168208D01*
X0352793Y0168130D01*
X0353223Y0168041D01*
X0353650Y0167941D01*
X0354075Y0167831D01*
X0354497Y0167711D01*
X0354917Y0167580D01*
X0355333Y0167440D01*
X0355745Y0167289D01*
X0356153Y0167128D01*
X0356558Y0166957D01*
X0356958Y0166777D01*
X0357354Y0166587D01*
X0357745Y0166387D01*
X0358131Y0166178D01*
X0358512Y0165959D01*
X0358887Y0165732D01*
X0359257Y0165495D01*
X0359620Y0165249D01*
X0359978Y0164995D01*
X0360330Y0164731D01*
X0360674Y0164460D01*
X0361013Y0164180D01*
X0361344Y0163892D01*
X0361668Y0163596D01*
X0361985Y0163292D01*
X0362294Y0162980D01*
X0362596Y0162661D01*
X0362890Y0162335D01*
X0363176Y0162002D01*
X0363453Y0161661D01*
X0363722Y0161315D01*
X0363983Y0160961D01*
X0364235Y0160602D01*
X0364478Y0160236D01*
X0364712Y0159865D01*
X0364938Y0159488D01*
X0365153Y0159106D01*
X0365360Y0158718D01*
X0365557Y0158326D01*
X0365744Y0157929D01*
X0365922Y0157527D01*
X0366090Y0157122D01*
X0366248Y0156712D01*
X0366395Y0156299D01*
X0366533Y0155882D01*
X0366661Y0155462D01*
X0366778Y0155039D01*
X0366885Y0154613D01*
X0366982Y0154185D01*
X0367068Y0153754D01*
X0367143Y0153322D01*
X0367208Y0152887D01*
X0367263Y0152452D01*
X0367307Y0152015D01*
X0367340Y0151577D01*
X0367362Y0151139D01*
X0367374Y0150700D01*
X0367375Y0150261D01*
X0367366Y0149822D01*
X0367345Y0149383D01*
X0367314Y0148945D01*
X0367273Y0148508D01*
X0367221Y0148072D01*
X0367158Y0147638D01*
X0367084Y0147205D01*
X0367001Y0146774D01*
X0366906Y0146345D01*
X0366801Y0145919D01*
X0366686Y0145495D01*
X0366561Y0145075D01*
X0366425Y0144657D01*
X0366280Y0144243D01*
X0366124Y0143832D01*
X0365958Y0143426D01*
X0365782Y0143023D01*
X0365597Y0142625D01*
X0365402Y0142232D01*
X0365198Y0141844D01*
X0364984Y0141460D01*
X0364761Y0141082D01*
X0364528Y0140710D01*
X0364287Y0140343D01*
X0364037Y0139982D01*
X0363778Y0139627D01*
X0363511Y0139279D01*
X0363235Y0138938D01*
X0362951Y0138603D01*
X0362659Y0138275D01*
X0362359Y0137955D01*
X0362051Y0137641D01*
X0361735Y0137336D01*
X0361413Y0137038D01*
X0361083Y0136748D01*
X0360746Y0136467D01*
X0360403Y0136193D01*
X0360053Y0135928D01*
X0359696Y0135672D01*
X0359334Y0135424D01*
X0358965Y0135186D01*
X0358591Y0134956D01*
X0358212Y0134735D01*
X0357827Y0134524D01*
X0357437Y0134322D01*
X0357042Y0134130D01*
X0356643Y0133948D01*
X0356239Y0133775D01*
X0355831Y0133612D01*
X0355420Y0133459D01*
X0355005Y0133316D01*
X0354586Y0133184D01*
X0354165Y0133061D01*
X0353740Y0132949D01*
X0353313Y0132847D01*
X0352884Y0132756D01*
X0352452Y0132675D01*
X0352019Y0132605D01*
X0351584Y0132545D01*
X0351147Y0132496D01*
X0350710Y0132458D01*
X0350272Y0132430D01*
X0349833Y0132413D01*
X0349394Y0132406D01*
X0348955Y0132410D01*
X0348517Y0132425D01*
X0348078Y0132451D01*
X0347641Y0132487D01*
X0347204Y0132534D01*
X0346769Y0132591D01*
X0346335Y0132660D01*
X0345903Y0132738D01*
X0345473Y0132827D01*
X0345046Y0132927D01*
X0344621Y0133037D01*
X0344199Y0133157D01*
X0343779Y0133288D01*
X0343363Y0133428D01*
X0342951Y0133579D01*
X0342543Y0133740D01*
X0342138Y0133911D01*
X0341738Y0134091D01*
X0341342Y0134281D01*
X0340951Y0134481D01*
X0340565Y0134690D01*
X0340184Y0134909D01*
X0339809Y0135136D01*
X0339439Y0135373D01*
X0339076Y0135619D01*
X0338718Y0135873D01*
X0338366Y0136137D01*
X0338022Y0136408D01*
X0337683Y0136688D01*
X0337352Y0136976D01*
X0337028Y0137272D01*
X0336711Y0137576D01*
X0336402Y0137888D01*
X0336100Y0138207D01*
X0335806Y0138533D01*
X0335520Y0138866D01*
X0335243Y0139207D01*
X0334974Y0139553D01*
X0334713Y0139907D01*
X0334461Y0140266D01*
X0334218Y0140632D01*
X0333984Y0141003D01*
X0333758Y0141380D01*
X0333543Y0141762D01*
X0333336Y0142150D01*
X0333139Y0142542D01*
X0332952Y0142939D01*
X0332774Y0143341D01*
X0332606Y0143746D01*
X0332448Y0144156D01*
X0332301Y0144569D01*
X0332163Y0144986D01*
X0332035Y0145406D01*
X0331918Y0145829D01*
X0331811Y0146255D01*
X0331714Y0146683D01*
X0331628Y0147114D01*
X0331553Y0147546D01*
X0331488Y0147981D01*
X0331433Y0148416D01*
X0331389Y0148853D01*
X0331356Y0149291D01*
X0331334Y0149729D01*
X0331322Y0150168D01*
X0331321Y0150607D01*
X0331330Y0151046D01*
X0331351Y0151485D01*
X0331382Y0151923D01*
X0331423Y0152360D01*
X0331475Y0152796D01*
X0331538Y0153230D01*
X0331612Y0153663D01*
X0331695Y0154094D01*
X0331790Y0154523D01*
X0331895Y0154949D01*
X0332010Y0155373D01*
X0332135Y0155793D01*
X0332271Y0156211D01*
X0332416Y0156625D01*
X0332572Y0157036D01*
X0332738Y0157442D01*
X0332914Y0157845D01*
X0333099Y0158243D01*
X0333294Y0158636D01*
X0333498Y0159024D01*
X0333712Y0159408D01*
X0333935Y0159786D01*
X0334168Y0160158D01*
X0334409Y0160525D01*
X0334659Y0160886D01*
X0334918Y0161241D01*
X0335185Y0161589D01*
X0335461Y0161930D01*
X0335745Y0162265D01*
X0336037Y0162593D01*
X0336337Y0162913D01*
X0336645Y0163227D01*
X0336961Y0163532D01*
X0337283Y0163830D01*
X0337613Y0164120D01*
X0337950Y0164401D01*
X0338293Y0164675D01*
X0338643Y0164940D01*
X0339000Y0165196D01*
X0339362Y0165444D01*
X0339731Y0165682D01*
X0340105Y0165912D01*
X0340484Y0166133D01*
X0340869Y0166344D01*
X0341259Y0166546D01*
X0341654Y0166738D01*
X0342053Y0166920D01*
X0342457Y0167093D01*
X0342865Y0167256D01*
X0343276Y0167409D01*
X0343691Y0167552D01*
X0344110Y0167684D01*
X0344531Y0167807D01*
X0344956Y0167919D01*
X0345383Y0168021D01*
X0345812Y0168112D01*
X0403406Y0138564D02*
X0403406Y0118879D01*
X0419548Y0118879D01*
X0418367Y0117698D01*
X0419942Y0116123D01*
X0423091Y0118879D01*
X0419548Y0118879D01*
X0423091Y0122422D01*
X0423091Y0118879D01*
X0423091Y0122422D02*
X0423091Y0138564D01*
X0403406Y0138564D01*
X0406476Y0128721D02*
X0406478Y0128887D01*
X0406484Y0129053D01*
X0406494Y0129219D01*
X0406509Y0129385D01*
X0406527Y0129550D01*
X0406549Y0129715D01*
X0406576Y0129879D01*
X0406606Y0130042D01*
X0406641Y0130205D01*
X0406679Y0130367D01*
X0406721Y0130527D01*
X0406768Y0130687D01*
X0406818Y0130846D01*
X0406872Y0131003D01*
X0406930Y0131159D01*
X0406992Y0131313D01*
X0407057Y0131466D01*
X0407126Y0131617D01*
X0407199Y0131766D01*
X0407276Y0131914D01*
X0407356Y0132059D01*
X0407440Y0132203D01*
X0407527Y0132345D01*
X0407617Y0132484D01*
X0407711Y0132621D01*
X0407809Y0132756D01*
X0407910Y0132888D01*
X0408013Y0133018D01*
X0408120Y0133145D01*
X0408231Y0133269D01*
X0408344Y0133391D01*
X0408460Y0133510D01*
X0408579Y0133626D01*
X0408701Y0133739D01*
X0408825Y0133850D01*
X0408952Y0133957D01*
X0409082Y0134060D01*
X0409214Y0134161D01*
X0409349Y0134259D01*
X0409486Y0134353D01*
X0409625Y0134443D01*
X0409767Y0134530D01*
X0409911Y0134614D01*
X0410056Y0134694D01*
X0410204Y0134771D01*
X0410353Y0134844D01*
X0410504Y0134913D01*
X0410657Y0134978D01*
X0410811Y0135040D01*
X0410967Y0135098D01*
X0411124Y0135152D01*
X0411283Y0135202D01*
X0411443Y0135249D01*
X0411603Y0135291D01*
X0411765Y0135329D01*
X0411928Y0135364D01*
X0412091Y0135394D01*
X0412255Y0135421D01*
X0412420Y0135443D01*
X0412585Y0135461D01*
X0412751Y0135476D01*
X0412917Y0135486D01*
X0413083Y0135492D01*
X0413249Y0135494D01*
X0413415Y0135492D01*
X0413581Y0135486D01*
X0413747Y0135476D01*
X0413913Y0135461D01*
X0414078Y0135443D01*
X0414243Y0135421D01*
X0414407Y0135394D01*
X0414570Y0135364D01*
X0414733Y0135329D01*
X0414895Y0135291D01*
X0415055Y0135249D01*
X0415215Y0135202D01*
X0415374Y0135152D01*
X0415531Y0135098D01*
X0415687Y0135040D01*
X0415841Y0134978D01*
X0415994Y0134913D01*
X0416145Y0134844D01*
X0416294Y0134771D01*
X0416442Y0134694D01*
X0416587Y0134614D01*
X0416731Y0134530D01*
X0416873Y0134443D01*
X0417012Y0134353D01*
X0417149Y0134259D01*
X0417284Y0134161D01*
X0417416Y0134060D01*
X0417546Y0133957D01*
X0417673Y0133850D01*
X0417797Y0133739D01*
X0417919Y0133626D01*
X0418038Y0133510D01*
X0418154Y0133391D01*
X0418267Y0133269D01*
X0418378Y0133145D01*
X0418485Y0133018D01*
X0418588Y0132888D01*
X0418689Y0132756D01*
X0418787Y0132621D01*
X0418881Y0132484D01*
X0418971Y0132345D01*
X0419058Y0132203D01*
X0419142Y0132059D01*
X0419222Y0131914D01*
X0419299Y0131766D01*
X0419372Y0131617D01*
X0419441Y0131466D01*
X0419506Y0131313D01*
X0419568Y0131159D01*
X0419626Y0131003D01*
X0419680Y0130846D01*
X0419730Y0130687D01*
X0419777Y0130527D01*
X0419819Y0130367D01*
X0419857Y0130205D01*
X0419892Y0130042D01*
X0419922Y0129879D01*
X0419949Y0129715D01*
X0419971Y0129550D01*
X0419989Y0129385D01*
X0420004Y0129219D01*
X0420014Y0129053D01*
X0420020Y0128887D01*
X0420022Y0128721D01*
X0420020Y0128555D01*
X0420014Y0128389D01*
X0420004Y0128223D01*
X0419989Y0128057D01*
X0419971Y0127892D01*
X0419949Y0127727D01*
X0419922Y0127563D01*
X0419892Y0127400D01*
X0419857Y0127237D01*
X0419819Y0127075D01*
X0419777Y0126915D01*
X0419730Y0126755D01*
X0419680Y0126596D01*
X0419626Y0126439D01*
X0419568Y0126283D01*
X0419506Y0126129D01*
X0419441Y0125976D01*
X0419372Y0125825D01*
X0419299Y0125676D01*
X0419222Y0125528D01*
X0419142Y0125383D01*
X0419058Y0125239D01*
X0418971Y0125097D01*
X0418881Y0124958D01*
X0418787Y0124821D01*
X0418689Y0124686D01*
X0418588Y0124554D01*
X0418485Y0124424D01*
X0418378Y0124297D01*
X0418267Y0124173D01*
X0418154Y0124051D01*
X0418038Y0123932D01*
X0417919Y0123816D01*
X0417797Y0123703D01*
X0417673Y0123592D01*
X0417546Y0123485D01*
X0417416Y0123382D01*
X0417284Y0123281D01*
X0417149Y0123183D01*
X0417012Y0123089D01*
X0416873Y0122999D01*
X0416731Y0122912D01*
X0416587Y0122828D01*
X0416442Y0122748D01*
X0416294Y0122671D01*
X0416145Y0122598D01*
X0415994Y0122529D01*
X0415841Y0122464D01*
X0415687Y0122402D01*
X0415531Y0122344D01*
X0415374Y0122290D01*
X0415215Y0122240D01*
X0415055Y0122193D01*
X0414895Y0122151D01*
X0414733Y0122113D01*
X0414570Y0122078D01*
X0414407Y0122048D01*
X0414243Y0122021D01*
X0414078Y0121999D01*
X0413913Y0121981D01*
X0413747Y0121966D01*
X0413581Y0121956D01*
X0413415Y0121950D01*
X0413249Y0121948D01*
X0413083Y0121950D01*
X0412917Y0121956D01*
X0412751Y0121966D01*
X0412585Y0121981D01*
X0412420Y0121999D01*
X0412255Y0122021D01*
X0412091Y0122048D01*
X0411928Y0122078D01*
X0411765Y0122113D01*
X0411603Y0122151D01*
X0411443Y0122193D01*
X0411283Y0122240D01*
X0411124Y0122290D01*
X0410967Y0122344D01*
X0410811Y0122402D01*
X0410657Y0122464D01*
X0410504Y0122529D01*
X0410353Y0122598D01*
X0410204Y0122671D01*
X0410056Y0122748D01*
X0409911Y0122828D01*
X0409767Y0122912D01*
X0409625Y0122999D01*
X0409486Y0123089D01*
X0409349Y0123183D01*
X0409214Y0123281D01*
X0409082Y0123382D01*
X0408952Y0123485D01*
X0408825Y0123592D01*
X0408701Y0123703D01*
X0408579Y0123816D01*
X0408460Y0123932D01*
X0408344Y0124051D01*
X0408231Y0124173D01*
X0408120Y0124297D01*
X0408013Y0124424D01*
X0407910Y0124554D01*
X0407809Y0124686D01*
X0407711Y0124821D01*
X0407617Y0124958D01*
X0407527Y0125097D01*
X0407440Y0125239D01*
X0407356Y0125383D01*
X0407276Y0125528D01*
X0407199Y0125676D01*
X0407126Y0125825D01*
X0407057Y0125976D01*
X0406992Y0126129D01*
X0406930Y0126283D01*
X0406872Y0126439D01*
X0406818Y0126596D01*
X0406768Y0126755D01*
X0406721Y0126915D01*
X0406679Y0127075D01*
X0406641Y0127237D01*
X0406606Y0127400D01*
X0406576Y0127563D01*
X0406549Y0127727D01*
X0406527Y0127892D01*
X0406509Y0128057D01*
X0406494Y0128223D01*
X0406484Y0128389D01*
X0406478Y0128555D01*
X0406476Y0128721D01*
X0327497Y0059904D02*
X0322194Y0054601D01*
X0320426Y0052833D01*
X0177135Y0097430D02*
X0156484Y0119191D01*
X0140526Y0104047D01*
X0143968Y0100420D01*
X0147594Y0103862D01*
X0161361Y0089355D01*
X0157735Y0085913D01*
X0143968Y0100420D01*
X0157735Y0085913D02*
X0161176Y0082286D01*
X0177135Y0097430D01*
D12*
X0160172Y0063706D02*
X0160172Y0060170D01*
X0163707Y0056635D01*
X0167243Y0056635D01*
X0167243Y0053099D01*
X0170778Y0049564D01*
X0174314Y0049564D01*
X0174314Y0046028D01*
X0177850Y0042493D01*
X0181385Y0042493D01*
X0184921Y0046028D01*
X0184921Y0049564D01*
X0181385Y0053099D01*
X0177850Y0053099D01*
X0177850Y0056635D01*
X0174314Y0060170D01*
X0170778Y0060170D01*
X0170778Y0063706D01*
X0167243Y0067241D01*
X0163707Y0067241D01*
X0160172Y0063706D01*
X0272156Y0049422D02*
X0272156Y0045886D01*
X0275692Y0042351D01*
X0279227Y0042351D01*
X0282763Y0045886D01*
X0282763Y0049422D01*
X0286298Y0049422D01*
X0289834Y0052957D01*
X0289834Y0056493D01*
X0293369Y0056493D01*
X0296905Y0060028D01*
X0296905Y0063564D01*
X0293369Y0067099D01*
X0289834Y0067099D01*
X0286298Y0063564D01*
X0286298Y0060028D01*
X0282763Y0060028D01*
X0279227Y0056493D01*
X0279227Y0052957D01*
X0275692Y0052957D01*
X0272156Y0049422D01*
X0268898Y0144341D02*
X0268898Y0169144D01*
X0278347Y0169144D01*
X0278347Y0144341D01*
X0268898Y0144341D01*
X0286015Y0167276D02*
X0332506Y0213767D01*
X0326938Y0219335D02*
X0352271Y0194001D01*
X0305780Y0147511D01*
X0280447Y0172844D01*
X0326938Y0219335D01*
X0311950Y0213898D02*
X0311950Y0208898D01*
X0309450Y0206398D01*
X0304450Y0206398D01*
X0301950Y0208898D01*
X0299450Y0206398D01*
X0294450Y0206398D01*
X0291950Y0208898D01*
X0289450Y0206398D01*
X0284450Y0206398D01*
X0281950Y0208898D01*
X0279450Y0206398D01*
X0274450Y0206398D01*
X0271950Y0208898D01*
X0271950Y0213898D01*
X0274450Y0216398D01*
X0279450Y0216398D01*
X0281950Y0213898D01*
X0284450Y0216398D01*
X0289450Y0216398D01*
X0291950Y0213898D01*
X0294450Y0216398D01*
X0299450Y0216398D01*
X0301950Y0213898D01*
X0304450Y0216398D01*
X0309450Y0216398D01*
X0311950Y0213898D01*
X0350690Y0213898D02*
X0350690Y0208898D01*
X0353190Y0206398D01*
X0358190Y0206398D01*
X0360690Y0208898D01*
X0363190Y0206398D01*
X0368190Y0206398D01*
X0370690Y0208898D01*
X0373190Y0206398D01*
X0378190Y0206398D01*
X0380690Y0208898D01*
X0383190Y0206398D01*
X0388190Y0206398D01*
X0390690Y0208898D01*
X0390690Y0213898D01*
X0388190Y0216398D01*
X0383190Y0216398D01*
X0380690Y0213898D01*
X0378190Y0216398D01*
X0373190Y0216398D01*
X0370690Y0213898D01*
X0368190Y0216398D01*
X0363190Y0216398D01*
X0360690Y0213898D01*
X0358190Y0216398D01*
X0353190Y0216398D01*
X0350690Y0213898D01*
X0246989Y0219459D02*
X0244489Y0216959D01*
X0239489Y0216959D01*
X0236989Y0219459D01*
X0234489Y0216959D01*
X0229489Y0216959D01*
X0226989Y0219459D01*
X0224489Y0216959D01*
X0219489Y0216959D01*
X0216989Y0219459D01*
X0214489Y0216959D01*
X0209489Y0216959D01*
X0206989Y0219459D01*
X0206989Y0224459D01*
X0209489Y0226959D01*
X0214489Y0226959D01*
X0216989Y0224459D01*
X0219489Y0226959D01*
X0224489Y0226959D01*
X0226989Y0224459D01*
X0229489Y0226959D01*
X0234489Y0226959D01*
X0236989Y0224459D01*
X0239489Y0226959D01*
X0244489Y0226959D01*
X0246989Y0224459D01*
X0246989Y0219459D01*
X0185965Y0213898D02*
X0185965Y0208898D01*
X0183465Y0206398D01*
X0178465Y0206398D01*
X0175965Y0208898D01*
X0173465Y0206398D01*
X0168465Y0206398D01*
X0165965Y0208898D01*
X0163465Y0206398D01*
X0158465Y0206398D01*
X0155965Y0208898D01*
X0153465Y0206398D01*
X0148465Y0206398D01*
X0145965Y0208898D01*
X0145965Y0213898D01*
X0148465Y0216398D01*
X0153465Y0216398D01*
X0155965Y0213898D01*
X0158465Y0216398D01*
X0163465Y0216398D01*
X0165965Y0213898D01*
X0168465Y0216398D01*
X0173465Y0216398D01*
X0175965Y0213898D01*
X0178465Y0216398D01*
X0183465Y0216398D01*
X0185965Y0213898D01*
X0107225Y0213898D02*
X0107225Y0208898D01*
X0104725Y0206398D01*
X0099725Y0206398D01*
X0097225Y0208898D01*
X0094725Y0206398D01*
X0089725Y0206398D01*
X0087225Y0208898D01*
X0084725Y0206398D01*
X0079725Y0206398D01*
X0077225Y0208898D01*
X0074725Y0206398D01*
X0069725Y0206398D01*
X0067225Y0208898D01*
X0067225Y0213898D01*
X0069725Y0216398D01*
X0074725Y0216398D01*
X0077225Y0213898D01*
X0079725Y0216398D01*
X0084725Y0216398D01*
X0087225Y0213898D01*
X0089725Y0216398D01*
X0094725Y0216398D01*
X0097225Y0213898D01*
X0099725Y0216398D01*
X0104725Y0216398D01*
X0107225Y0213898D01*
X0088923Y0192012D02*
X0106461Y0174474D01*
X0099780Y0167792D01*
X0082241Y0185331D01*
X0088923Y0192012D01*
D13*
X0179740Y0179659D02*
X0179740Y0175059D01*
X0179740Y0177103D02*
X0181018Y0177103D01*
X0181274Y0177103D02*
X0182296Y0175059D01*
X0186106Y0176975D02*
X0186160Y0176941D01*
X0186211Y0176904D01*
X0186260Y0176864D01*
X0186307Y0176821D01*
X0186350Y0176775D01*
X0186391Y0176727D01*
X0186429Y0176676D01*
X0186464Y0176623D01*
X0186496Y0176568D01*
X0186524Y0176511D01*
X0186548Y0176453D01*
X0186569Y0176393D01*
X0186586Y0176332D01*
X0186600Y0176270D01*
X0186609Y0176207D01*
X0186615Y0176144D01*
X0186617Y0176081D01*
X0186615Y0176019D01*
X0186610Y0175958D01*
X0186600Y0175897D01*
X0186587Y0175836D01*
X0186571Y0175777D01*
X0186551Y0175719D01*
X0186527Y0175662D01*
X0186500Y0175606D01*
X0186470Y0175552D01*
X0186436Y0175500D01*
X0186400Y0175451D01*
X0186360Y0175403D01*
X0186318Y0175358D01*
X0186273Y0175316D01*
X0186225Y0175276D01*
X0186176Y0175240D01*
X0186124Y0175206D01*
X0186070Y0175176D01*
X0186014Y0175149D01*
X0185957Y0175125D01*
X0185899Y0175105D01*
X0185840Y0175089D01*
X0185779Y0175076D01*
X0185718Y0175066D01*
X0185657Y0175061D01*
X0185595Y0175059D01*
X0186106Y0176976D02*
X0184700Y0177742D01*
X0185211Y0179659D02*
X0185293Y0179657D01*
X0185375Y0179652D01*
X0185457Y0179643D01*
X0185538Y0179631D01*
X0185619Y0179615D01*
X0185699Y0179596D01*
X0185778Y0179573D01*
X0185856Y0179547D01*
X0185933Y0179518D01*
X0186008Y0179485D01*
X0186082Y0179449D01*
X0186155Y0179411D01*
X0186226Y0179369D01*
X0186294Y0179324D01*
X0186361Y0179276D01*
X0184700Y0177743D02*
X0184646Y0177777D01*
X0184595Y0177814D01*
X0184546Y0177854D01*
X0184499Y0177897D01*
X0184456Y0177943D01*
X0184415Y0177991D01*
X0184377Y0178042D01*
X0184342Y0178095D01*
X0184310Y0178150D01*
X0184282Y0178207D01*
X0184258Y0178265D01*
X0184237Y0178325D01*
X0184220Y0178386D01*
X0184206Y0178448D01*
X0184197Y0178511D01*
X0184191Y0178574D01*
X0184189Y0178637D01*
X0184191Y0178699D01*
X0184196Y0178760D01*
X0184206Y0178821D01*
X0184219Y0178882D01*
X0184235Y0178941D01*
X0184255Y0178999D01*
X0184279Y0179056D01*
X0184306Y0179112D01*
X0184336Y0179166D01*
X0184370Y0179218D01*
X0184407Y0179267D01*
X0184446Y0179315D01*
X0184488Y0179360D01*
X0184533Y0179402D01*
X0184581Y0179442D01*
X0184630Y0179478D01*
X0184682Y0179512D01*
X0184736Y0179542D01*
X0184792Y0179569D01*
X0184849Y0179593D01*
X0184907Y0179613D01*
X0184966Y0179629D01*
X0185027Y0179642D01*
X0185088Y0179652D01*
X0185149Y0179657D01*
X0185211Y0179659D01*
X0184062Y0175699D02*
X0184126Y0175636D01*
X0184194Y0175577D01*
X0184263Y0175520D01*
X0184335Y0175466D01*
X0184409Y0175415D01*
X0184485Y0175367D01*
X0184562Y0175323D01*
X0184642Y0175282D01*
X0184723Y0175244D01*
X0184806Y0175209D01*
X0184890Y0175178D01*
X0184976Y0175151D01*
X0185062Y0175127D01*
X0185150Y0175106D01*
X0185238Y0175090D01*
X0185327Y0175077D01*
X0185416Y0175067D01*
X0185505Y0175062D01*
X0185595Y0175060D01*
X0189389Y0175059D02*
X0189389Y0179659D01*
X0188111Y0179659D02*
X0190667Y0179659D01*
X0181018Y0179659D02*
X0179740Y0179659D01*
X0181018Y0179659D02*
X0181088Y0179657D01*
X0181159Y0179651D01*
X0181228Y0179642D01*
X0181297Y0179628D01*
X0181366Y0179611D01*
X0181433Y0179590D01*
X0181499Y0179565D01*
X0181563Y0179537D01*
X0181626Y0179505D01*
X0181687Y0179470D01*
X0181746Y0179431D01*
X0181803Y0179390D01*
X0181857Y0179345D01*
X0181909Y0179297D01*
X0181958Y0179247D01*
X0182005Y0179193D01*
X0182048Y0179138D01*
X0182088Y0179080D01*
X0182125Y0179020D01*
X0182158Y0178958D01*
X0182188Y0178894D01*
X0182215Y0178829D01*
X0182238Y0178763D01*
X0182257Y0178695D01*
X0182272Y0178626D01*
X0182284Y0178557D01*
X0182292Y0178487D01*
X0182296Y0178416D01*
X0182296Y0178346D01*
X0182292Y0178275D01*
X0182284Y0178205D01*
X0182272Y0178136D01*
X0182257Y0178067D01*
X0182238Y0177999D01*
X0182215Y0177933D01*
X0182188Y0177868D01*
X0182158Y0177804D01*
X0182125Y0177742D01*
X0182088Y0177682D01*
X0182048Y0177624D01*
X0182005Y0177569D01*
X0181958Y0177515D01*
X0181909Y0177465D01*
X0181857Y0177417D01*
X0181803Y0177372D01*
X0181746Y0177331D01*
X0181687Y0177292D01*
X0181626Y0177257D01*
X0181563Y0177225D01*
X0181499Y0177197D01*
X0181433Y0177172D01*
X0181366Y0177151D01*
X0181297Y0177134D01*
X0181228Y0177120D01*
X0181159Y0177111D01*
X0181088Y0177105D01*
X0181018Y0177103D01*
X0265856Y0169659D02*
X0265856Y0167615D01*
X0267389Y0167615D01*
X0267389Y0167614D02*
X0267451Y0167612D01*
X0267512Y0167607D01*
X0267573Y0167597D01*
X0267634Y0167584D01*
X0267693Y0167568D01*
X0267751Y0167548D01*
X0267808Y0167524D01*
X0267864Y0167497D01*
X0267918Y0167467D01*
X0267970Y0167433D01*
X0268019Y0167397D01*
X0268067Y0167357D01*
X0268112Y0167315D01*
X0268154Y0167270D01*
X0268194Y0167222D01*
X0268230Y0167173D01*
X0268264Y0167121D01*
X0268294Y0167067D01*
X0268321Y0167011D01*
X0268345Y0166954D01*
X0268365Y0166896D01*
X0268381Y0166837D01*
X0268394Y0166776D01*
X0268404Y0166715D01*
X0268409Y0166654D01*
X0268411Y0166592D01*
X0268411Y0166081D01*
X0268409Y0166019D01*
X0268404Y0165958D01*
X0268394Y0165897D01*
X0268381Y0165836D01*
X0268365Y0165777D01*
X0268345Y0165719D01*
X0268321Y0165662D01*
X0268294Y0165606D01*
X0268264Y0165552D01*
X0268230Y0165500D01*
X0268194Y0165451D01*
X0268154Y0165403D01*
X0268112Y0165358D01*
X0268067Y0165316D01*
X0268019Y0165276D01*
X0267970Y0165240D01*
X0267918Y0165206D01*
X0267864Y0165176D01*
X0267808Y0165149D01*
X0267751Y0165125D01*
X0267693Y0165105D01*
X0267634Y0165089D01*
X0267573Y0165076D01*
X0267512Y0165066D01*
X0267451Y0165061D01*
X0267389Y0165059D01*
X0265856Y0165059D01*
X0265856Y0169659D02*
X0268411Y0169659D01*
X0270100Y0169659D02*
X0271634Y0165059D01*
X0273167Y0169659D01*
X0273311Y0185059D02*
X0273311Y0189659D01*
X0275867Y0185059D01*
X0275867Y0189659D01*
X0278111Y0189659D02*
X0279389Y0189659D01*
X0278111Y0189659D02*
X0278111Y0185059D01*
X0279389Y0185059D01*
X0279458Y0185061D01*
X0279527Y0185066D01*
X0279596Y0185076D01*
X0279664Y0185089D01*
X0279731Y0185106D01*
X0279797Y0185126D01*
X0279862Y0185150D01*
X0279926Y0185177D01*
X0279988Y0185208D01*
X0280048Y0185242D01*
X0280106Y0185279D01*
X0280162Y0185320D01*
X0280216Y0185363D01*
X0280268Y0185409D01*
X0280317Y0185458D01*
X0280363Y0185510D01*
X0280406Y0185564D01*
X0280447Y0185620D01*
X0280484Y0185678D01*
X0280518Y0185738D01*
X0280549Y0185800D01*
X0280576Y0185864D01*
X0280600Y0185929D01*
X0280620Y0185995D01*
X0280637Y0186062D01*
X0280650Y0186130D01*
X0280660Y0186199D01*
X0280665Y0186268D01*
X0280667Y0186337D01*
X0280667Y0188381D01*
X0280665Y0188450D01*
X0280660Y0188519D01*
X0280650Y0188588D01*
X0280637Y0188656D01*
X0280620Y0188723D01*
X0280600Y0188789D01*
X0280576Y0188854D01*
X0280549Y0188918D01*
X0280518Y0188980D01*
X0280484Y0189040D01*
X0280447Y0189098D01*
X0280406Y0189154D01*
X0280363Y0189208D01*
X0280317Y0189260D01*
X0280268Y0189309D01*
X0280216Y0189355D01*
X0280162Y0189398D01*
X0280106Y0189439D01*
X0280048Y0189476D01*
X0279988Y0189510D01*
X0279926Y0189541D01*
X0279862Y0189568D01*
X0279797Y0189592D01*
X0279731Y0189612D01*
X0279664Y0189629D01*
X0279596Y0189642D01*
X0279527Y0189652D01*
X0279458Y0189657D01*
X0279389Y0189659D01*
X0271067Y0189659D02*
X0269534Y0189659D01*
X0269472Y0189657D01*
X0269411Y0189652D01*
X0269350Y0189642D01*
X0269289Y0189629D01*
X0269230Y0189613D01*
X0269172Y0189593D01*
X0269115Y0189569D01*
X0269059Y0189542D01*
X0269005Y0189512D01*
X0268953Y0189478D01*
X0268904Y0189441D01*
X0268856Y0189402D01*
X0268811Y0189360D01*
X0268769Y0189315D01*
X0268729Y0189267D01*
X0268693Y0189218D01*
X0268659Y0189166D01*
X0268629Y0189112D01*
X0268602Y0189056D01*
X0268578Y0188999D01*
X0268558Y0188941D01*
X0268542Y0188882D01*
X0268529Y0188821D01*
X0268519Y0188760D01*
X0268514Y0188699D01*
X0268512Y0188637D01*
X0268511Y0188637D02*
X0268511Y0186081D01*
X0268512Y0186081D02*
X0268514Y0186019D01*
X0268519Y0185958D01*
X0268529Y0185897D01*
X0268542Y0185836D01*
X0268558Y0185777D01*
X0268578Y0185719D01*
X0268602Y0185662D01*
X0268629Y0185606D01*
X0268659Y0185552D01*
X0268693Y0185500D01*
X0268729Y0185451D01*
X0268769Y0185403D01*
X0268811Y0185358D01*
X0268856Y0185316D01*
X0268904Y0185276D01*
X0268953Y0185240D01*
X0269005Y0185206D01*
X0269059Y0185176D01*
X0269115Y0185149D01*
X0269172Y0185125D01*
X0269230Y0185105D01*
X0269289Y0185089D01*
X0269350Y0185076D01*
X0269411Y0185066D01*
X0269472Y0185061D01*
X0269534Y0185059D01*
X0271067Y0185059D01*
X0271067Y0187615D01*
X0270300Y0187615D01*
X0270856Y0069659D02*
X0272389Y0065059D01*
X0273922Y0069659D01*
X0275611Y0069659D02*
X0277145Y0069659D01*
X0277208Y0069657D01*
X0277271Y0069651D01*
X0277333Y0069642D01*
X0277394Y0069628D01*
X0277455Y0069611D01*
X0277514Y0069590D01*
X0277572Y0069565D01*
X0277629Y0069537D01*
X0277683Y0069506D01*
X0277735Y0069471D01*
X0277786Y0069433D01*
X0277834Y0069392D01*
X0277879Y0069348D01*
X0277921Y0069302D01*
X0277961Y0069253D01*
X0277997Y0069202D01*
X0278030Y0069148D01*
X0278060Y0069093D01*
X0278086Y0069035D01*
X0278109Y0068977D01*
X0278128Y0068917D01*
X0278143Y0068856D01*
X0278155Y0068794D01*
X0278163Y0068731D01*
X0278167Y0068668D01*
X0278167Y0068606D01*
X0278163Y0068543D01*
X0278155Y0068480D01*
X0278143Y0068418D01*
X0278128Y0068357D01*
X0278109Y0068297D01*
X0278086Y0068239D01*
X0278060Y0068181D01*
X0278030Y0068126D01*
X0277997Y0068072D01*
X0277961Y0068021D01*
X0277921Y0067972D01*
X0277879Y0067926D01*
X0277834Y0067882D01*
X0277786Y0067841D01*
X0277735Y0067803D01*
X0277683Y0067768D01*
X0277629Y0067737D01*
X0277572Y0067709D01*
X0277514Y0067684D01*
X0277455Y0067663D01*
X0277394Y0067646D01*
X0277333Y0067632D01*
X0277271Y0067623D01*
X0277208Y0067617D01*
X0277145Y0067615D01*
X0276122Y0067615D01*
X0276889Y0067615D02*
X0276959Y0067613D01*
X0277030Y0067607D01*
X0277099Y0067598D01*
X0277168Y0067584D01*
X0277237Y0067567D01*
X0277304Y0067546D01*
X0277370Y0067521D01*
X0277434Y0067493D01*
X0277497Y0067461D01*
X0277558Y0067426D01*
X0277617Y0067387D01*
X0277674Y0067346D01*
X0277728Y0067301D01*
X0277780Y0067253D01*
X0277829Y0067203D01*
X0277876Y0067149D01*
X0277919Y0067094D01*
X0277959Y0067036D01*
X0277996Y0066976D01*
X0278029Y0066914D01*
X0278059Y0066850D01*
X0278086Y0066785D01*
X0278109Y0066719D01*
X0278128Y0066651D01*
X0278143Y0066582D01*
X0278155Y0066513D01*
X0278163Y0066443D01*
X0278167Y0066372D01*
X0278167Y0066302D01*
X0278163Y0066231D01*
X0278155Y0066161D01*
X0278143Y0066092D01*
X0278128Y0066023D01*
X0278109Y0065955D01*
X0278086Y0065889D01*
X0278059Y0065824D01*
X0278029Y0065760D01*
X0277996Y0065698D01*
X0277959Y0065638D01*
X0277919Y0065580D01*
X0277876Y0065525D01*
X0277829Y0065471D01*
X0277780Y0065421D01*
X0277728Y0065373D01*
X0277674Y0065328D01*
X0277617Y0065287D01*
X0277558Y0065248D01*
X0277497Y0065213D01*
X0277434Y0065181D01*
X0277370Y0065153D01*
X0277304Y0065128D01*
X0277237Y0065107D01*
X0277168Y0065090D01*
X0277099Y0065076D01*
X0277030Y0065067D01*
X0276959Y0065061D01*
X0276889Y0065059D01*
X0275611Y0065059D01*
X0275611Y0059659D02*
X0277145Y0059659D01*
X0277208Y0059657D01*
X0277271Y0059651D01*
X0277333Y0059642D01*
X0277394Y0059628D01*
X0277455Y0059611D01*
X0277514Y0059590D01*
X0277572Y0059565D01*
X0277629Y0059537D01*
X0277683Y0059506D01*
X0277735Y0059471D01*
X0277786Y0059433D01*
X0277834Y0059392D01*
X0277879Y0059348D01*
X0277921Y0059302D01*
X0277961Y0059253D01*
X0277997Y0059202D01*
X0278030Y0059148D01*
X0278060Y0059093D01*
X0278086Y0059035D01*
X0278109Y0058977D01*
X0278128Y0058917D01*
X0278143Y0058856D01*
X0278155Y0058794D01*
X0278163Y0058731D01*
X0278167Y0058668D01*
X0278167Y0058606D01*
X0278163Y0058543D01*
X0278155Y0058480D01*
X0278143Y0058418D01*
X0278128Y0058357D01*
X0278109Y0058297D01*
X0278086Y0058239D01*
X0278060Y0058181D01*
X0278030Y0058126D01*
X0277997Y0058072D01*
X0277961Y0058021D01*
X0277921Y0057972D01*
X0277879Y0057926D01*
X0277834Y0057882D01*
X0277786Y0057841D01*
X0277735Y0057803D01*
X0277683Y0057768D01*
X0277629Y0057737D01*
X0277572Y0057709D01*
X0277514Y0057684D01*
X0277455Y0057663D01*
X0277394Y0057646D01*
X0277333Y0057632D01*
X0277271Y0057623D01*
X0277208Y0057617D01*
X0277145Y0057615D01*
X0276122Y0057615D01*
X0276889Y0057615D02*
X0276959Y0057613D01*
X0277030Y0057607D01*
X0277099Y0057598D01*
X0277168Y0057584D01*
X0277237Y0057567D01*
X0277304Y0057546D01*
X0277370Y0057521D01*
X0277434Y0057493D01*
X0277497Y0057461D01*
X0277558Y0057426D01*
X0277617Y0057387D01*
X0277674Y0057346D01*
X0277728Y0057301D01*
X0277780Y0057253D01*
X0277829Y0057203D01*
X0277876Y0057149D01*
X0277919Y0057094D01*
X0277959Y0057036D01*
X0277996Y0056976D01*
X0278029Y0056914D01*
X0278059Y0056850D01*
X0278086Y0056785D01*
X0278109Y0056719D01*
X0278128Y0056651D01*
X0278143Y0056582D01*
X0278155Y0056513D01*
X0278163Y0056443D01*
X0278167Y0056372D01*
X0278167Y0056302D01*
X0278163Y0056231D01*
X0278155Y0056161D01*
X0278143Y0056092D01*
X0278128Y0056023D01*
X0278109Y0055955D01*
X0278086Y0055889D01*
X0278059Y0055824D01*
X0278029Y0055760D01*
X0277996Y0055698D01*
X0277959Y0055638D01*
X0277919Y0055580D01*
X0277876Y0055525D01*
X0277829Y0055471D01*
X0277780Y0055421D01*
X0277728Y0055373D01*
X0277674Y0055328D01*
X0277617Y0055287D01*
X0277558Y0055248D01*
X0277497Y0055213D01*
X0277434Y0055181D01*
X0277370Y0055153D01*
X0277304Y0055128D01*
X0277237Y0055107D01*
X0277168Y0055090D01*
X0277099Y0055076D01*
X0277030Y0055067D01*
X0276959Y0055061D01*
X0276889Y0055059D01*
X0275611Y0055059D01*
X0273667Y0055059D02*
X0271111Y0055059D01*
X0272389Y0055059D02*
X0272389Y0059659D01*
X0271111Y0058637D01*
X0269017Y0058381D02*
X0269017Y0056337D01*
X0269015Y0056268D01*
X0269010Y0056199D01*
X0269000Y0056130D01*
X0268987Y0056062D01*
X0268970Y0055995D01*
X0268950Y0055929D01*
X0268926Y0055864D01*
X0268899Y0055800D01*
X0268868Y0055738D01*
X0268834Y0055678D01*
X0268797Y0055620D01*
X0268756Y0055564D01*
X0268713Y0055510D01*
X0268667Y0055458D01*
X0268618Y0055409D01*
X0268566Y0055363D01*
X0268512Y0055320D01*
X0268456Y0055279D01*
X0268398Y0055242D01*
X0268338Y0055208D01*
X0268276Y0055177D01*
X0268212Y0055150D01*
X0268147Y0055126D01*
X0268081Y0055106D01*
X0268014Y0055089D01*
X0267946Y0055076D01*
X0267877Y0055066D01*
X0267808Y0055061D01*
X0267739Y0055059D01*
X0266461Y0055059D01*
X0266461Y0059659D01*
X0267739Y0059659D01*
X0267808Y0059657D01*
X0267877Y0059652D01*
X0267946Y0059642D01*
X0268014Y0059629D01*
X0268081Y0059612D01*
X0268147Y0059592D01*
X0268212Y0059568D01*
X0268276Y0059541D01*
X0268338Y0059510D01*
X0268398Y0059476D01*
X0268456Y0059439D01*
X0268512Y0059398D01*
X0268566Y0059355D01*
X0268618Y0059309D01*
X0268667Y0059260D01*
X0268713Y0059208D01*
X0268756Y0059154D01*
X0268797Y0059098D01*
X0268834Y0059040D01*
X0268868Y0058980D01*
X0268899Y0058918D01*
X0268926Y0058854D01*
X0268950Y0058789D01*
X0268970Y0058723D01*
X0268987Y0058656D01*
X0269000Y0058588D01*
X0269010Y0058519D01*
X0269015Y0058450D01*
X0269017Y0058381D01*
X0267889Y0065059D02*
X0266611Y0065059D01*
X0267889Y0065059D02*
X0267959Y0065061D01*
X0268030Y0065067D01*
X0268099Y0065076D01*
X0268168Y0065090D01*
X0268237Y0065107D01*
X0268304Y0065128D01*
X0268370Y0065153D01*
X0268434Y0065181D01*
X0268497Y0065213D01*
X0268558Y0065248D01*
X0268617Y0065287D01*
X0268674Y0065328D01*
X0268728Y0065373D01*
X0268780Y0065421D01*
X0268829Y0065471D01*
X0268876Y0065525D01*
X0268919Y0065580D01*
X0268959Y0065638D01*
X0268996Y0065698D01*
X0269029Y0065760D01*
X0269059Y0065824D01*
X0269086Y0065889D01*
X0269109Y0065955D01*
X0269128Y0066023D01*
X0269143Y0066092D01*
X0269155Y0066161D01*
X0269163Y0066231D01*
X0269167Y0066302D01*
X0269167Y0066372D01*
X0269163Y0066443D01*
X0269155Y0066513D01*
X0269143Y0066582D01*
X0269128Y0066651D01*
X0269109Y0066719D01*
X0269086Y0066785D01*
X0269059Y0066850D01*
X0269029Y0066914D01*
X0268996Y0066976D01*
X0268959Y0067036D01*
X0268919Y0067094D01*
X0268876Y0067149D01*
X0268829Y0067203D01*
X0268780Y0067253D01*
X0268728Y0067301D01*
X0268674Y0067346D01*
X0268617Y0067387D01*
X0268558Y0067426D01*
X0268497Y0067461D01*
X0268434Y0067493D01*
X0268370Y0067521D01*
X0268304Y0067546D01*
X0268237Y0067567D01*
X0268168Y0067584D01*
X0268099Y0067598D01*
X0268030Y0067607D01*
X0267959Y0067613D01*
X0267889Y0067615D01*
X0268145Y0067615D02*
X0267123Y0067615D01*
X0268145Y0067615D02*
X0268208Y0067617D01*
X0268271Y0067623D01*
X0268333Y0067632D01*
X0268394Y0067646D01*
X0268455Y0067663D01*
X0268514Y0067684D01*
X0268572Y0067709D01*
X0268629Y0067737D01*
X0268683Y0067768D01*
X0268735Y0067803D01*
X0268786Y0067841D01*
X0268834Y0067882D01*
X0268879Y0067926D01*
X0268921Y0067972D01*
X0268961Y0068021D01*
X0268997Y0068072D01*
X0269030Y0068126D01*
X0269060Y0068181D01*
X0269086Y0068239D01*
X0269109Y0068297D01*
X0269128Y0068357D01*
X0269143Y0068418D01*
X0269155Y0068480D01*
X0269163Y0068543D01*
X0269167Y0068606D01*
X0269167Y0068668D01*
X0269163Y0068731D01*
X0269155Y0068794D01*
X0269143Y0068856D01*
X0269128Y0068917D01*
X0269109Y0068977D01*
X0269086Y0069035D01*
X0269060Y0069093D01*
X0269030Y0069148D01*
X0268997Y0069202D01*
X0268961Y0069253D01*
X0268921Y0069302D01*
X0268879Y0069348D01*
X0268834Y0069392D01*
X0268786Y0069433D01*
X0268735Y0069471D01*
X0268683Y0069506D01*
X0268629Y0069537D01*
X0268572Y0069565D01*
X0268514Y0069590D01*
X0268455Y0069611D01*
X0268394Y0069628D01*
X0268333Y0069642D01*
X0268271Y0069651D01*
X0268208Y0069657D01*
X0268145Y0069659D01*
X0266611Y0069659D01*
D14*
X0086687Y0165167D02*
X0085980Y0164460D01*
X0078909Y0171531D01*
X0079616Y0172238D01*
X0063352Y0155975D02*
X0062645Y0155268D01*
X0063352Y0155975D02*
X0070070Y0149257D01*
X0069363Y0148550D01*
D15*
X0313847Y0062654D02*
X0331650Y0044852D01*
X0331826Y0045029D02*
X0343325Y0056527D01*
X0343501Y0056704D02*
X0325699Y0074506D01*
X0326701Y0076050D02*
X0314934Y0059533D01*
X0314963Y0059504D02*
X0331481Y0071270D01*
X0331510Y0071242D02*
X0320853Y0053614D01*
X0320874Y0053593D02*
X0338502Y0064250D01*
X0327845Y0046622D01*
X0328122Y0046699D02*
X0341628Y0060204D01*
X0342618Y0059214D02*
X0329112Y0045709D01*
X0333036Y0046239D02*
X0338269Y0041006D01*
X0338446Y0041183D02*
X0347143Y0049881D01*
X0347320Y0050057D02*
X0342087Y0055290D01*
X0346047Y0048502D02*
X0347886Y0046663D01*
X0348062Y0046840D02*
X0350679Y0049456D01*
X0350855Y0049633D02*
X0358775Y0041713D01*
X0358598Y0041537D02*
X0346789Y0029728D01*
X0346613Y0029551D02*
X0338693Y0037471D01*
X0338870Y0037648D02*
X0341345Y0040122D01*
X0341522Y0040299D02*
X0339542Y0042279D01*
X0341698Y0040476D02*
X0347709Y0046486D01*
D16*
X0352246Y0049297D02*
X0334568Y0066975D01*
X0322194Y0054601D01*
X0339871Y0036923D01*
X0352246Y0049297D01*
X0334568Y0066975D02*
X0338103Y0070511D01*
X0327497Y0081117D01*
X0320355Y0088683D02*
X0299142Y0109896D01*
X0289242Y0109896D02*
X0277151Y0097805D01*
X0279767Y0089956D02*
X0300980Y0068743D01*
X0308051Y0061672D02*
X0318658Y0051065D01*
X0322194Y0054601D01*
M02*
