%
M48
M72
T01C0.01378
T02C0.03150
T03C0.03543
T04C0.03937
T05C0.04000
T06C0.04724
T07C0.05118
T08C0.12205
%
T01
X142048Y91733
X165172Y137359
X153659Y141733
X162048Y189233
X168298Y198227
X173298Y201733
X190798Y205483
X194548Y209233
X222048Y212739
X232048Y212739
X244548Y205483
X247048Y194233
X287048Y191733
X355798Y174233
X290798Y127983
X287048Y102983
X243298Y111733
X223298Y56733
X62048Y121733
X145798Y226733
X183298Y231733
X83298Y230483
X352048Y226733
X409548Y114233
T02
X258367Y117359
X258367Y127359
X258367Y137359
X258367Y147359
X258367Y157359
X258367Y167359
X258367Y177359
X258367Y187359
X258367Y197359
X198367Y197359
X198367Y187359
X198367Y177359
X198367Y167359
X198367Y157359
X198367Y147359
X198367Y137359
X198367Y127359
X198367Y117359
X198367Y107359
X198367Y97359
X198367Y87359
X198367Y77359
X198367Y67359
X198367Y57359
X258367Y57359
X258367Y67359
X258367Y77359
X258367Y87359
X258367Y97359
X258367Y107359
T03
X273623Y136743
X273623Y176743
X108493Y165760
X80209Y194044
T04
X286838Y93491
X295182Y101694
X303950Y92926
X295677Y84653
X304516Y75814
X313001Y84016
T05
X291955Y61443
X284177Y55079
X277813Y47300
X179264Y47443
X172900Y55221
X165122Y61585
X164988Y92796
X158105Y100050
X151221Y107304
X153406Y141480
X153406Y171080
X160965Y210898
X150965Y211898
X170965Y211898
X180965Y210898
X211989Y222459
X221989Y221459
X231989Y222459
X241989Y221459
X276950Y211898
X286950Y210898
X296950Y211898
X306950Y210898
X355690Y211898
X365690Y210898
X375690Y211898
X385690Y210898
X102225Y210898
X92225Y211898
X82225Y210898
X72225Y211898
X71908Y175562
X59322Y162975
X90010Y157460
X77424Y144873
T06
X300073Y171870
X313993Y185789
X327912Y199708
T07
X294263Y114493
X274464Y95259
X306284Y63439
X325729Y82885
T08
X334910Y96808
X121438Y98308
X228209Y238957
M30
