G75*
%MOIN*%
%OFA0B0*%
%FSLAX25Y25*%
%IPPOS*%
%LPD*%
%AMOC8*
5,1,8,0,0,1.08239X$1,22.5*
%
%ADD10C,0.09400*%
%ADD11C,0.08200*%
%ADD12OC8,0.10800*%
%ADD13R,0.08200X0.08200*%
%ADD14C,0.05950*%
%ADD15C,0.06800*%
%ADD16R,0.05162X0.05162*%
%ADD17C,0.07099*%
%ADD18R,0.05950X0.05950*%
%ADD19C,0.03778*%
D10*
X0340115Y0202600D03*
X0359800Y0202600D03*
X0379485Y0202600D03*
D11*
X0386300Y0230800D03*
X0376300Y0231800D03*
X0366300Y0230800D03*
X0283800Y0208300D03*
X0273800Y0209300D03*
X0263800Y0208300D03*
X0247900Y0189500D03*
X0237900Y0190500D03*
X0227900Y0189500D03*
X0208800Y0208300D03*
X0198800Y0209300D03*
X0188800Y0208300D03*
X0103800Y0230800D03*
X0093800Y0231800D03*
X0083800Y0230800D03*
X0069658Y0140442D03*
X0097942Y0112158D03*
X0144233Y0074050D03*
X0148367Y0064890D03*
X0154233Y0056729D03*
X0179300Y0049400D03*
X0180300Y0039400D03*
X0179300Y0029400D03*
X0284300Y0029400D03*
X0285300Y0039400D03*
X0284300Y0049400D03*
D12*
X0118700Y0195500D03*
X0089100Y0195500D03*
D13*
X0073800Y0231800D03*
X0178800Y0209300D03*
X0217900Y0190500D03*
X0253800Y0209300D03*
X0356300Y0231800D03*
D14*
X0264775Y0169800D02*
X0259625Y0169800D01*
X0259625Y0159800D02*
X0264775Y0159800D01*
X0264775Y0149800D02*
X0259625Y0149800D01*
X0259625Y0139800D02*
X0264775Y0139800D01*
X0264775Y0129800D02*
X0259625Y0129800D01*
X0259625Y0119800D02*
X0264775Y0119800D01*
X0264775Y0109800D02*
X0259625Y0109800D01*
X0259625Y0099800D02*
X0264775Y0099800D01*
X0264775Y0089800D02*
X0259625Y0089800D01*
X0259625Y0079800D02*
X0264775Y0079800D01*
X0264775Y0069800D02*
X0259625Y0069800D01*
X0259625Y0059800D02*
X0264775Y0059800D01*
X0264775Y0049800D02*
X0259625Y0049800D01*
X0259625Y0039800D02*
X0264775Y0039800D01*
X0264775Y0029800D02*
X0259625Y0029800D01*
X0204775Y0029800D02*
X0199625Y0029800D01*
X0199625Y0039800D02*
X0204775Y0039800D01*
X0204775Y0049800D02*
X0199625Y0049800D01*
X0199625Y0059800D02*
X0204775Y0059800D01*
X0204775Y0069800D02*
X0199625Y0069800D01*
X0199625Y0079800D02*
X0204775Y0079800D01*
X0204775Y0089800D02*
X0199625Y0089800D01*
X0199625Y0099800D02*
X0204775Y0099800D01*
X0204775Y0109800D02*
X0199625Y0109800D01*
X0199625Y0119800D02*
X0204775Y0119800D01*
X0204775Y0129800D02*
X0199625Y0129800D01*
X0199625Y0139800D02*
X0204775Y0139800D01*
X0204775Y0149800D02*
X0199625Y0149800D01*
X0199625Y0159800D02*
X0204775Y0159800D01*
X0204775Y0169800D02*
X0199625Y0169800D01*
D15*
X0117800Y0159400D02*
X0111800Y0159400D01*
X0092200Y0159400D02*
X0086200Y0159400D01*
X0086200Y0141600D02*
X0092200Y0141600D01*
X0111800Y0141600D02*
X0117800Y0141600D01*
D16*
G36*
X0301201Y0116971D02*
X0297551Y0113321D01*
X0293901Y0116971D01*
X0297551Y0120621D01*
X0301201Y0116971D01*
G37*
G36*
X0313576Y0115203D02*
X0309926Y0111553D01*
X0306276Y0115203D01*
X0309926Y0118853D01*
X0313576Y0115203D01*
G37*
G36*
X0330688Y0114638D02*
X0327038Y0110988D01*
X0323388Y0114638D01*
X0327038Y0118288D01*
X0330688Y0114638D01*
G37*
G36*
X0339739Y0105728D02*
X0336089Y0102078D01*
X0332439Y0105728D01*
X0336089Y0109378D01*
X0339739Y0105728D01*
G37*
G36*
X0352466Y0104597D02*
X0348816Y0100947D01*
X0345166Y0104597D01*
X0348816Y0108247D01*
X0352466Y0104597D01*
G37*
G36*
X0331253Y0097526D02*
X0327603Y0093876D01*
X0323953Y0097526D01*
X0327603Y0101176D01*
X0331253Y0097526D01*
G37*
G36*
X0322414Y0106364D02*
X0318764Y0102714D01*
X0315114Y0106364D01*
X0318764Y0110014D01*
X0322414Y0106364D01*
G37*
G36*
X0321919Y0123406D02*
X0318269Y0119756D01*
X0314619Y0123406D01*
X0318269Y0127056D01*
X0321919Y0123406D01*
G37*
G36*
X0321000Y0136204D02*
X0317350Y0132554D01*
X0313700Y0136204D01*
X0317350Y0139854D01*
X0321000Y0136204D01*
G37*
G36*
X0333021Y0085151D02*
X0329371Y0081501D01*
X0325721Y0085151D01*
X0329371Y0088801D01*
X0333021Y0085151D01*
G37*
D17*
X0306584Y0079084D03*
X0301016Y0073516D03*
D18*
X0129312Y0088091D03*
X0134824Y0088091D03*
X0180769Y0088091D03*
X0186280Y0088091D03*
X0186280Y0162894D03*
X0180769Y0162894D03*
X0134824Y0162894D03*
X0129312Y0162894D03*
D19*
X0201300Y0186300D03*
X0248800Y0201300D03*
X0283800Y0186300D03*
X0291300Y0198800D03*
X0283800Y0173800D03*
X0273800Y0173800D03*
X0293800Y0138800D03*
X0283800Y0121300D03*
X0413800Y0143800D03*
X0396300Y0208800D03*
X0396300Y0226300D03*
X0401300Y0238800D03*
X0311300Y0233800D03*
X0151300Y0208800D03*
X0038800Y0148800D03*
X0063800Y0121300D03*
M02*
